# Rhino

v -0.31123832603399998 0.066527143272800002 -0.252102594776
v -0.31123832603399998 0.22112231006499999 0.25678172849499997
v -0.31123832603399998 0.066527143272800002 0.25678172849499997
v -0.31123832603399998 0.22112231006499999 -0.25678172849499997
v -0.31123832603399998 -0.12205397267699999 -0.25678172849499997
v -0.31123832603399998 0.029447319605100001 -0.252102594776
v -0.31123832603399998 -0.12205397267699999 0.25678172849499997
v -0.31123832603399998 0.029447319605100001 0.25678172849499997
v -0.34808189862700001 0.25080298195900003 0.25678172849499997
v -0.31123832603399998 0.029447319605100001 0.25678172849499997
v -0.31123832603399998 0.066527143272800002 0.25678172849499997
v -0.31123832603399998 -0.12205397267699999 0.25678172849499997
v -0.34808189862700001 -0.15856476461300001 0.25678172849499997
v 0.30652229076699999 -0.12205397267699999 0.25678172849499997
v 0.34808189862700001 -0.15856476461300001 0.25678172849499997
v 0.34808189862700001 0.25080298195900003 0.25678172849499997
v 0.30652229076699999 0.22112231006499999 0.25678172849499997
v -0.31123832603399998 0.22112231006499999 0.25678172849499997
v 0.30652229076699999 0.066527143272800002 0.25678172849499997
v 0.30652229076699999 0.029447319605100001 0.25678172849499997
v 0.34808189862700001 -0.15856476461300001 -0.25678172849499997
v 0.34808189862700001 0.25080298195900003 0.25678172849499997
v 0.34808189862700001 -0.15856476461300001 0.25678172849499997
v 0.34808189862700001 0.25080298195900003 -0.25678172849499997
v 0.30652229076699999 -0.12205397267699999 -0.25678172849499997
v -0.31123832603399998 -0.12205397267699999 -0.25678172849499997
v -0.34808189862700001 -0.15856476461300001 -0.25678172849499997
v -0.34808189862700001 0.25080298195900003 -0.25678172849499997
v 0.30652229076699999 0.22112231006499999 -0.25678172849499997
v -0.31123832603399998 0.22112231006499999 -0.25678172849499997
v -0.34808189862700001 -0.15856476461300001 0.25678172849499997
v -0.34808189862700001 0.25080298195900003 -0.25678172849499997
v -0.34808189862700001 -0.15856476461300001 -0.25678172849499997
v -0.34808189862700001 0.25080298195900003 0.25678172849499997
v 0.34808189862700001 0.25080298195900003 0.25678172849499997
v -0.34808189862700001 0.25080298195900003 -0.25678172849499997
v -0.34808189862700001 0.25080298195900003 0.25678172849499997
v 0.34808189862700001 0.25080298195900003 -0.25678172849499997
v 0.30652229076699999 0.22112231006499999 -0.25678172849499997
v -0.31123832603399998 0.22112231006499999 0.25678172849499997
v -0.31123832603399998 0.22112231006499999 -0.25678172849499997
v 0.30652229076699999 0.22112231006499999 0.25678172849499997
v -0.34808189862700001 -0.15856476461300001 -0.25678172849499997
v 0.34808189862700001 -0.15856476461300001 0.25678172849499997
v -0.34808189862700001 -0.15856476461300001 0.25678172849499997
v 0.34808189862700001 -0.15856476461300001 -0.25678172849499997
v -0.31123832603399998 -0.12205397267699999 0.25678172849499997
v 0.30652229076699999 -0.12205397267699999 -0.25678172849499997
v -0.31123832603399998 -0.12205397267699999 -0.25678172849499997
v 0.30652229076699999 -0.12205397267699999 0.25678172849499997
v 0.30652229076699999 0.029447319605100001 -0.252102594776
v 0.30652229076699999 -0.12205397267699999 0.25678172849499997
v 0.30652229076699999 0.029447319605100001 0.25678172849499997
v 0.30652229076699999 -0.12205397267699999 -0.25678172849499997
v 0.30652229076699999 0.22112231006499999 -0.25678172849499997
v 0.30652229076699999 0.066527143272800002 -0.252102594776
v 0.30652229076699999 0.22112231006499999 0.25678172849499997
v 0.30652229076699999 0.066527143272800002 0.25678172849499997
vt -0.16141700744628906 10.946999549865723
vt -17.716499328613281 16.280099868774414
vt -17.716499328613281 10.946999549865723
vt 0 16.280099868774414
vt 0 4.4414801597595215
vt -0.16141700744628906 9.6678495407104492
vt -17.716499328613281 4.4414801597595215
vt -17.716499328613281 9.6678495407104492
vt -24.01569938659668 17.304000854492188
vt -22.744699478149414 9.6678495407104492
vt -22.744699478149414 10.946999549865723
vt -22.744699478149414 4.4414801597595215
vt -24.01569938659668 3.1819601058959961
vt -1.4336899518966675 4.4414801597595215
vt 0 3.1819601058959961
vt 0 17.304000854492188
vt -1.4336899518966675 16.280099868774414
vt -22.744699478149414 16.280099868774414
vt -1.4336899518966675 10.946999549865723
vt -1.4336899518966675 9.6678495407104492
vt 0 3.1819601058959961
vt -17.716499328613281 17.304000854492188
vt -17.716499328613281 3.1819601058959961
vt 0 17.304000854492188
vt 1.4336899518966675 4.4414801597595215
vt 22.744699478149414 4.4414801597595215
vt 24.01569938659668 3.1819601058959961
vt 24.01569938659668 17.304000854492188
vt 1.4336899518966675 16.280099868774414
vt 22.744699478149414 16.280099868774414
vt 17.716499328613281 3.1819601058959961
vt 0 17.304000854492188
vt 0 3.1819601058959961
vt 17.716499328613281 17.304000854492188
vt 0 17.716499328613281
vt 24.01569938659668 0
vt 24.01569938659668 17.716499328613281
vt 0 0
vt -1.4336899518966675 0
vt -22.744699478149414 17.716499328613281
vt -22.744699478149414 0
vt -1.4336899518966675 17.716499328613281
vt -24.01569938659668 0
vt 0 17.716499328613281
vt -24.01569938659668 17.716499328613281
vt 0 0
vt 22.744699478149414 17.716499328613281
vt 1.4336899518966675 0
vt 22.744699478149414 0
vt 1.4336899518966675 17.716499328613281
vt 0.16141700744628906 9.6678495407104492
vt 17.716499328613281 4.4414801597595215
vt 17.716499328613281 9.6678495407104492
vt 0 4.4414801597595215
vt 0 16.280099868774414
vt 0.16141700744628906 10.946999549865723
vt 17.716499328613281 16.280099868774414
vt 17.716499328613281 10.946999549865723
vn 1 0 0
vn 1 0 0
vn 1 0 0
vn 1 0 0
vn 1 0 0
vn 1 0 0
vn 1 0 0
vn 1 0 0
vn 0 0 1
vn 0 0 1
vn 0 0 1
vn 0 0 1
vn 0 0 1
vn 0 0 1
vn 0 0 1
vn 0 0 1
vn 0 0 1
vn 0 0 1
vn 0 0 1
vn 0 0 1
vn 0.55470019578933716 0 -0.83205032348632812
vn 1 0 0
vn 1 0 0
vn 0.31622776389122009 0 -0.94868332147598267
vn 0 0 -1
vn 0 0 -1
vn 0 0 -1
vn 0 0 -1
vn 0 0 -1
vn 0 0 -1
vn -1 0 0
vn -1 0 0
vn -1 0 0
vn -1 0 0
vn 0 1 0
vn 0 1 0
vn 0 1 0
vn 0 1 0
vn 0 -1 0
vn 0 -1 0
vn 0 -1 0
vn 0 -1 0
vn 0 -1 0
vn 0 -1 0
vn 0 -1 0
vn 0 -1 0
vn 0 1 0
vn 0 1 0
vn 0 1 0
vn 0 1 0
vn -1 0 0
vn -1 0 0
vn -1 0 0
vn -1 0 0
vn -1 0 0
vn -1 0 0
vn -1 0 0
vn -1 0 0
f 1/1/1 2/2/2 3/3/3
f 1/1/1 4/4/4 2/2/2
f 4/4/4 1/1/1 5/5/5
f 6/6/6 5/5/5 1/1/1
f 5/5/5 6/6/6 7/7/7
f 7/7/7 6/6/6 8/8/8
f 3/3/3 6/6/6 1/1/1
f 6/6/6 3/3/3 8/8/8
f 9/9/9 10/10/10 11/11/11
f 9/9/9 12/12/12 10/10/10
f 13/13/13 12/12/12 9/9/9
f 12/12/12 13/13/13 14/14/14
f 15/15/15 14/14/14 13/13/13
f 14/14/14 15/15/15 16/16/16
f 17/17/17 16/16/16 18/18/18
f 19/19/19 16/16/16 17/17/17
f 20/20/20 16/16/16 19/19/19
f 14/14/14 16/16/16 20/20/20
f 9/9/9 18/18/18 16/16/16
f 9/9/9 11/11/11 18/18/18
f 21/21/21 22/22/22 23/23/23
f 22/22/22 21/21/21 24/24/24
f 21/21/21 25/25/25 24/24/24
f 25/25/25 21/21/21 26/26/26
f 27/27/27 26/26/26 21/21/21
f 26/26/26 27/27/27 28/28/28
f 24/24/24 29/29/29 28/28/28
f 24/24/24 25/25/25 29/29/29
f 30/30/30 28/28/28 29/29/29
f 26/26/26 28/28/28 30/30/30
f 31/31/31 32/32/32 33/33/33
f 32/32/32 31/31/31 34/34/34
f 35/35/35 36/36/36 37/37/37
f 36/36/36 35/35/35 38/38/38
f 39/39/39 40/40/40 41/41/41
f 40/40/40 39/39/39 42/42/42
f 43/43/43 44/44/44 45/45/45
f 44/44/44 43/43/43 46/46/46
f 47/47/47 48/48/48 49/49/49
f 48/48/48 47/47/47 50/50/50
f 51/51/51 52/52/52 53/53/53
f 51/51/51 54/54/54 52/52/52
f 54/54/54 51/51/51 55/55/55
f 56/56/56 55/55/55 51/51/51
f 55/55/55 56/56/56 57/57/57
f 57/57/57 56/56/56 58/58/58
f 56/56/56 53/53/53 58/58/58
f 53/53/53 56/56/56 51/51/51
