# Rhino

v 0.204813822177 0.28671384593100002 0.35474758748099999
v 0.204813822177 0.28671384593100002 0.35474758748099999
v 0.204813822177 0.28671384593100002 0.35474758748099999
v 0.106019363182 0.27898502245200002 0.39567016203400002
v 0.106019363182 0.27898502245200002 0.39567016203400002
v 0.106019363182 0.27898502245200002 0.39567016203400002
v 0.204813822177 0.27898502245200002 0.35474758748099999
v 0.204813822177 0.27898502245200002 0.35474758748099999
v 0.204813822177 0.27898502245200002 0.35474758748099999
v 0.106019363182 0.28671384593100002 0.39567016203400002
v 0.106019363182 0.28671384593100002 0.39567016203400002
v 0.106019363182 0.28671384593100002 0.39567016203400002
v 0.106019363182 0.28671384593100002 -0.39567016203400002
v 0.106019363182 0.28671384593100002 -0.39567016203400002
v 0.106019363182 0.28671384593100002 -0.39567016203400002
v 0 0.28671384593100002 -0.40962764435400001
v 0 0.28671384593100002 -0.40962764435400001
v 0 0.28671384593100002 -0.40962764435400001
v 0 0.28671384593100002 0.40962764435400001
v 0 0.28671384593100002 0.40962764435400001
v -0.106019363182 0.28671384593100002 -0.39567016203400002
v -0.106019363182 0.28671384593100002 -0.39567016203400002
v -0.106019363182 0.28671384593100002 -0.39567016203400002
v -0.106019363182 0.28671384593100002 0.39567016203400002
v -0.106019363182 0.28671384593100002 0.39567016203400002
v -0.106019363182 0.28671384593100002 0.39567016203400002
v -0.204813822177 0.28671384593100002 -0.35474758748099999
v -0.204813822177 0.28671384593100002 -0.35474758748099999
v -0.204813822177 0.28671384593100002 -0.35474758748099999
v -0.204813822177 0.28671384593100002 0.35474758748099999
v -0.204813822177 0.28671384593100002 0.35474758748099999
v -0.204813822177 0.28671384593100002 0.35474758748099999
v -0.28965079885200001 0.28671384593100002 -0.28965079885200001
v -0.28965079885200001 0.28671384593100002 -0.28965079885200001
v -0.28965079885200001 0.28671384593100002 -0.28965079885200001
v -0.28965079885200001 0.28671384593100002 0.28965079885200001
v -0.28965079885200001 0.28671384593100002 0.28965079885200001
v -0.28965079885200001 0.28671384593100002 0.28965079885200001
v -0.35474758748099999 0.28671384593100002 -0.204813822177
v -0.35474758748099999 0.28671384593100002 -0.204813822177
v -0.35474758748099999 0.28671384593100002 -0.204813822177
v -0.35474758748099999 0.28671384593100002 0.204813822177
v -0.35474758748099999 0.28671384593100002 0.204813822177
v -0.35474758748099999 0.28671384593100002 0.204813822177
v -0.39567016203400002 0.28671384593100002 -0.106019363182
v -0.39567016203400002 0.28671384593100002 -0.106019363182
v -0.39567016203400002 0.28671384593100002 -0.106019363182
v -0.39567016203400002 0.28671384593100002 0.106019363182
v -0.39567016203400002 0.28671384593100002 0.106019363182
v -0.39567016203400002 0.28671384593100002 0.106019363182
v -0.40962764435400001 0.28671384593100002 0
v -0.40962764435400001 0.28671384593100002 0
v -0.40962764435400001 0.27898502245200002 0
v -0.40962764435400001 0.27898502245200002 0
v -0.39567016203400002 0.27898502245200002 -0.106019363182
v -0.39567016203400002 0.27898502245200002 -0.106019363182
v -0.39567016203400002 0.27898502245200002 -0.106019363182
v -0.35474758748099999 0.27898502245200002 -0.204813822177
v -0.35474758748099999 0.27898502245200002 -0.204813822177
v -0.35474758748099999 0.27898502245200002 -0.204813822177
v -0.28965079885200001 0.27898502245200002 -0.28965079885200001
v -0.28965079885200001 0.27898502245200002 -0.28965079885200001
v -0.28965079885200001 0.27898502245200002 -0.28965079885200001
v -0.204813822177 0.27898502245200002 -0.35474758748099999
v -0.204813822177 0.27898502245200002 -0.35474758748099999
v -0.204813822177 0.27898502245200002 -0.35474758748099999
v -0.106019363182 0.27898502245200002 -0.39567016203400002
v -0.106019363182 0.27898502245200002 -0.39567016203400002
v -0.106019363182 0.27898502245200002 -0.39567016203400002
v 0 0.27898502245200002 -0.40962764435400001
v 0 0.27898502245200002 -0.40962764435400001
v 0 0.27898502245200002 -0.40962764435400001
v 0.106019363182 0.27898502245200002 -0.39567016203400002
v 0.106019363182 0.27898502245200002 -0.39567016203400002
v 0.106019363182 0.27898502245200002 -0.39567016203400002
v 0.204813822177 0.27898502245200002 -0.35474758748099999
v 0.204813822177 0.27898502245200002 -0.35474758748099999
v 0.204813822177 0.27898502245200002 -0.35474758748099999
v 0.204813822177 0.28671384593100002 -0.35474758748099999
v 0.204813822177 0.28671384593100002 -0.35474758748099999
v 0.204813822177 0.28671384593100002 -0.35474758748099999
v 0.28965079885200001 0.28671384593100002 0.28965079885200001
v 0.28965079885200001 0.28671384593100002 0.28965079885200001
v 0.28965079885200001 0.28671384593100002 0.28965079885200001
v 0.28965079885200001 0.27898502245200002 0.28965079885200001
v 0.28965079885200001 0.27898502245200002 0.28965079885200001
v 0.28965079885200001 0.27898502245200002 0.28965079885200001
v 0 0.27898502245200002 0.40962764435400001
v 0 0.27898502245200002 0.40962764435400001
v -0.106019363182 0.27898502245200002 0.39567016203400002
v -0.106019363182 0.27898502245200002 0.39567016203400002
v -0.106019363182 0.27898502245200002 0.39567016203400002
v -0.204813822177 0.27898502245200002 0.35474758748099999
v -0.204813822177 0.27898502245200002 0.35474758748099999
v -0.204813822177 0.27898502245200002 0.35474758748099999
v -0.28965079885200001 0.27898502245200002 0.28965079885200001
v -0.28965079885200001 0.27898502245200002 0.28965079885200001
v -0.28965079885200001 0.27898502245200002 0.28965079885200001
v -0.35474758748099999 0.27898502245200002 0.204813822177
v -0.35474758748099999 0.27898502245200002 0.204813822177
v -0.35474758748099999 0.27898502245200002 0.204813822177
v -0.39567016203400002 0.27898502245200002 0.106019363182
v -0.39567016203400002 0.27898502245200002 0.106019363182
v -0.39567016203400002 0.27898502245200002 0.106019363182
v 0.28965079885200001 0.27898502245200002 -0.28965079885200001
v 0.28965079885200001 0.27898502245200002 -0.28965079885200001
v 0.28965079885200001 0.27898502245200002 -0.28965079885200001
v 0.28965079885200001 0.28671384593100002 -0.28965079885200001
v 0.28965079885200001 0.28671384593100002 -0.28965079885200001
v 0.28965079885200001 0.28671384593100002 -0.28965079885200001
v 0.35474758748099999 0.28671384593100002 0.204813822177
v 0.35474758748099999 0.28671384593100002 0.204813822177
v 0.35474758748099999 0.28671384593100002 0.204813822177
v 0.35474758748099999 0.27898502245200002 0.204813822177
v 0.35474758748099999 0.27898502245200002 0.204813822177
v 0.35474758748099999 0.27898502245200002 0.204813822177
v 0.35474758748099999 0.27898502245200002 -0.204813822177
v 0.35474758748099999 0.27898502245200002 -0.204813822177
v 0.35474758748099999 0.27898502245200002 -0.204813822177
v 0.35474758748099999 0.28671384593100002 -0.204813822177
v 0.35474758748099999 0.28671384593100002 -0.204813822177
v 0.35474758748099999 0.28671384593100002 -0.204813822177
v 0.39567016203400002 0.28671384593100002 0.106019363182
v 0.39567016203400002 0.28671384593100002 0.106019363182
v 0.39567016203400002 0.28671384593100002 0.106019363182
v 0.39567016203400002 0.27898502245200002 0.106019363182
v 0.39567016203400002 0.27898502245200002 0.106019363182
v 0.39567016203400002 0.27898502245200002 0.106019363182
v 0.39567016203400002 0.27898502245200002 -0.106019363182
v 0.39567016203400002 0.27898502245200002 -0.106019363182
v 0.39567016203400002 0.27898502245200002 -0.106019363182
v 0.39567016203400002 0.28671384593100002 -0.106019363182
v 0.39567016203400002 0.28671384593100002 -0.106019363182
v 0.39567016203400002 0.28671384593100002 -0.106019363182
v 0.40962764435400001 0.28671384593100002 0
v 0.40962764435400001 0.28671384593100002 0
v 0.40962764435400001 0.28671384593100002 0
v 0.40962764435400001 0.27898502245200002 0
v 0.40962764435400001 0.27898502245200002 0
v 0.40962764435400001 0.27898502245200002 0
vt 29.986499786376953 0.3937009871006012
vt 31.299200057983398 2.7955300807952881
vt 26.533100128173828 0.3937009871006012
vt 24.539300918579102 0
vt -26.266700744628906 0.71099698543548584
vt 26.134799957275391 0
vt 29.986499786376953 0
vt 26.533100128173828 0
vt -31.299200057983398 2.7955300807952881
vt 24.539300918579102 0.3937009871006012
vt 26.266700744628906 0.71099698543548584
vt 26.134799957275391 0.3937009871006012
vt 26.266700744628906 41.02130126953125
vt -20.687599182128906 0.3937009871006012
vt -8.5691003799438477 0.3937009871006012
vt 20.866100311279297 41.7322998046875
vt -26.134799957275391 0.3937009871006012
vt -15.240500450134277 0.3937009871006012
vt 20.866100311279297 0
vt 20.687599182128906 0.3937009871006012
vt 15.46560001373291 41.02130126953125
vt -20.687599182128906 0.3937009871006012
vt -29.986499786376953 0.3937009871006012
vt 15.46560001373291 0.71099698543548584
vt 14.016300201416016 0.3937009871006012
vt 15.240500450134277 0.3937009871006012
vt 10.433099746704102 38.936798095703125
vt -24.539300918579102 0.3937009871006012
vt -31.980300903320312 0.3937009871006012
vt 10.433099746704102 2.7955300807952881
vt 6.5753002166748047 0.3937009871006012
vt 8.5691003799438477 0.3937009871006012
vt 6.1115498542785645 35.620700836181641
vt -31.980300903320312 0.3937009871006012
vt -26.533100128173828 0.3937009871006012
vt 6.1115498542785645 6.1115498542785645
vt -1.1281399726867676 0.3937009871006012
vt 1.1281399726867676 0.3937009871006012
vt 2.7955300807952881 31.299200057983398
vt -29.986499786376953 0.3937009871006012
vt -26.533100128173828 0.3937009871006012
vt 2.7955300807952881 10.433099746704102
vt -8.5691003799438477 0.3937009871006012
vt -6.5753002166748047 0.3937009871006012
vt 0.71099698543548584 26.266700744628906
vt -26.134799957275391 0.3937009871006012
vt -24.539300918579102 0.3937009871006012
vt 0.71099698543548584 15.46560001373291
vt -14.016300201416016 0.3937009871006012
vt -15.240500450134277 0.3937009871006012
vt 0 20.866100311279297
vt -20.687599182128906 0.3937009871006012
vt 0 20.866100311279297
vt -20.687599182128906 0
vt -26.134799957275391 0
vt -24.539300918579102 0
vt -0.71099698543548584 26.266700744628906
vt -29.986499786376953 0
vt -26.533100128173828 0
vt -2.7955300807952881 31.299200057983398
vt -31.980300903320312 0
vt -26.533100128173828 0
vt -6.1115498542785645 35.620700836181641
vt -24.539300918579102 0
vt -31.980300903320312 0
vt -10.433099746704102 38.936798095703125
vt -20.687599182128906 0
vt -29.986499786376953 0
vt -15.46560001373291 41.02130126953125
vt -26.134799957275391 0
vt -15.240500450134277 0
vt -20.866100311279297 41.7322998046875
vt -20.687599182128906 0
vt -8.5691003799438477 0
vt -26.266700744628906 41.02130126953125
vt -14.016300201416016 0
vt -31.299200057983398 38.936798095703125
vt -1.1281399726867676 0
vt -14.016300201416016 0.3937009871006012
vt 31.299200057983398 38.936798095703125
vt -1.1281399726867676 0.3937009871006012
vt 35.620700836181641 6.1115498542785645
vt 31.980300903320312 0.3937009871006012
vt 26.533100128173828 0.3937009871006012
vt 31.980300903320312 0
vt -35.620700836181641 6.1115498542785645
vt 26.533100128173828 0
vt -20.866100311279297 0
vt 20.687599182128906 0
vt -15.46560001373291 0.71099698543548584
vt 14.016300201416016 0
vt 15.240500450134277 0
vt -10.433099746704102 2.7955300807952881
vt 6.5753002166748047 0
vt 8.5691003799438477 0
vt -6.1115498542785645 6.1115498542785645
vt -1.1281399726867676 0
vt 1.1281399726867676 0
vt -2.7955300807952881 10.433099746704102
vt -8.5691003799438477 0
vt -6.5753002166748047 0
vt -14.016300201416016 0
vt -0.71099698543548584 15.46560001373291
vt -15.240500450134277 0
vt -35.620700836181641 35.620700836181641
vt -6.5753002166748047 0
vt 6.5753002166748047 0
vt -6.5753002166748047 0.3937009871006012
vt 35.620700836181641 35.620700836181641
vt 6.5753002166748047 0.3937009871006012
vt 38.936798095703125 10.433099746704102
vt 31.980300903320312 0.3937009871006012
vt 24.539300918579102 0.3937009871006012
vt 31.980300903320312 0
vt -38.936798095703125 10.433099746704102
vt 24.539300918579102 0
vt -38.936798095703125 31.299200057983398
vt 1.1281399726867676 0
vt 14.016300201416016 0
vt 1.1281399726867676 0.3937009871006012
vt 38.936798095703125 31.299200057983398
vt 14.016300201416016 0.3937009871006012
vt 41.02130126953125 15.46560001373291
vt 29.986499786376953 0.3937009871006012
vt 20.687599182128906 0.3937009871006012
vt 29.986499786376953 0
vt -41.02130126953125 15.46560001373291
vt 20.687599182128906 0
vt -41.02130126953125 26.266700744628906
vt 8.5691003799438477 0
vt 20.687599182128906 0
vt 8.5691003799438477 0.3937009871006012
vt 41.02130126953125 26.266700744628906
vt 20.687599182128906 0.3937009871006012
vt 41.7322998046875 20.866100311279297
vt 26.134799957275391 0.3937009871006012
vt 15.240500450134277 0.3937009871006012
vt 26.134799957275391 0
vt -41.7322998046875 20.866100311279297
vt 15.240500450134277 0
vn 0.38268798589706421 0 0.92387765645980835
vn 0 1 0
vn 0.60875606536865234 0 0.7933574914932251
vn 0.38268798589706421 0 0.92387765645980835
vn 0 -1 0
vn 0.13052406907081604 0 0.99144512414932251
vn 0.38268798589706421 0 0.92387765645980835
vn 0.60875606536865234 0 0.7933574914932251
vn 0 -1 0
vn 0.38268798589706421 0 0.92387765645980835
vn 0 1 0
vn 0.13052406907081604 0 0.99144512414932251
vn 0 1 0
vn 0.13052406907081604 0 -0.99144512414932251
vn 0.38268798589706421 0 -0.92387765645980835
vn 0 1 0
vn -0.13052406907081604 0 -0.99144512414932251
vn 0.13052406907081604 0 -0.99144512414932251
vn 0 1 0
vn -0.043841246515512466 0 0.99903851747512817
vn 0 1 0
vn -0.13052406907081604 0 -0.99144512414932251
vn -0.38268798589706421 0 -0.92387765645980835
vn 0 1 0
vn -0.38268798589706421 0 0.92387765645980835
vn -0.13052406907081604 0 0.99144512414932251
vn 0 1 0
vn -0.38268798589706421 0 -0.92387765645980835
vn -0.60875606536865234 0 -0.7933574914932251
vn 0 1 0
vn -0.60875606536865234 0 0.7933574914932251
vn -0.38268798589706421 0 0.92387765645980835
vn 0 1 0
vn -0.7933574914932251 0 -0.60875606536865234
vn -0.60875606536865234 0 -0.7933574914932251
vn 0 1 0
vn -0.7933574914932251 0 0.60875606536865234
vn -0.60875606536865234 0 0.7933574914932251
vn 0 1 0
vn -0.92387765645980835 0 -0.38268798589706421
vn -0.7933574914932251 0 -0.60875606536865234
vn 0 1 0
vn -0.92387765645980835 0 0.38268798589706421
vn -0.7933574914932251 0 0.60875606536865234
vn 0 1 0
vn -0.99144512414932251 0 -0.13052406907081604
vn -0.92387765645980835 0 -0.38268798589706421
vn 0 1 0
vn -0.92387765645980835 0 0.38268798589706421
vn -0.99144512414932251 0 0.13052406907081604
vn 0 1 0
vn -0.99903851747512817 0 0.043841246515512466
vn 0 -1 0
vn -0.99903851747512817 0 -0.043841246515512466
vn -0.99144512414932251 0 -0.13052406907081604
vn -0.92387765645980835 0 -0.38268798589706421
vn 0 -1 0
vn -0.92387765645980835 0 -0.38268798589706421
vn -0.7933574914932251 0 -0.60875606536865234
vn 0 -1 0
vn -0.7933574914932251 0 -0.60875606536865234
vn -0.60875606536865234 0 -0.7933574914932251
vn 0 -1 0
vn -0.38268798589706421 0 -0.92387765645980835
vn -0.60875606536865234 0 -0.7933574914932251
vn 0 -1 0
vn -0.13052406907081604 0 -0.99144512414932251
vn -0.38268798589706421 0 -0.92387765645980835
vn 0 -1 0
vn -0.13052406907081604 0 -0.99144512414932251
vn 0.13052406907081604 0 -0.99144512414932251
vn 0 -1 0
vn 0.13052406907081604 0 -0.99144512414932251
vn 0.38268798589706421 0 -0.92387765645980835
vn 0 -1 0
vn 0.38268798589706421 0 -0.92387765645980835
vn 0 -1 0
vn 0.60875606536865234 0 -0.7933574914932251
vn 0.38268798589706421 0 -0.92387765645980835
vn 0 1 0
vn 0.60875606536865234 0 -0.7933574914932251
vn 0 1 0
vn 0.60875606536865234 0 0.7933574914932251
vn 0.7933574914932251 0 0.60875606536865234
vn 0.60875606536865234 0 0.7933574914932251
vn 0 -1 0
vn 0.7933574914932251 0 0.60875606536865234
vn 0 -1 0
vn 0.043841246515512466 0 0.99903851747512817
vn 0 -1 0
vn -0.38268798589706421 0 0.92387765645980835
vn -0.13052406907081604 0 0.99144512414932251
vn 0 -1 0
vn -0.60875606536865234 0 0.7933574914932251
vn -0.38268798589706421 0 0.92387765645980835
vn 0 -1 0
vn -0.7933574914932251 0 0.60875606536865234
vn -0.60875606536865234 0 0.7933574914932251
vn 0 -1 0
vn -0.92387765645980835 0 0.38268798589706421
vn -0.7933574914932251 0 0.60875606536865234
vn -0.92387765645980835 0 0.38268798589706421
vn 0 -1 0
vn -0.99144512414932251 0 0.13052406907081604
vn 0 -1 0
vn 0.60875606536865234 0 -0.7933574914932251
vn 0.7933574914932251 0 -0.60875606536865234
vn 0.60875606536865234 0 -0.7933574914932251
vn 0 1 0
vn 0.7933574914932251 0 -0.60875606536865234
vn 0 1 0
vn 0.7933574914932251 0 0.60875606536865234
vn 0.92387765645980835 0 0.38268798589706421
vn 0.7933574914932251 0 0.60875606536865234
vn 0 -1 0
vn 0.92387765645980835 0 0.38268798589706421
vn 0 -1 0
vn 0.7933574914932251 0 -0.60875606536865234
vn 0.92387765645980835 0 -0.38268798589706421
vn 0.7933574914932251 0 -0.60875606536865234
vn 0 1 0
vn 0.92387765645980835 0 -0.38268798589706421
vn 0 1 0
vn 0.92387765645980835 0 0.38268798589706421
vn 0.99144512414932251 0 0.13052406907081604
vn 0.92387765645980835 0 0.38268798589706421
vn 0 -1 0
vn 0.99144512414932251 0 0.13052406907081604
vn 0 -1 0
vn 0.92387765645980835 0 -0.38268798589706421
vn 0.99144512414932251 0 -0.13052406907081604
vn 0.92387765645980835 0 -0.38268798589706421
vn 0 1 0
vn 0.99144512414932251 0 -0.13052406907081604
vn 0 1 0
vn 0.99144512414932251 0 0.13052406907081604
vn 0.99144512414932251 0 -0.13052406907081604
vn 0.99144512414932251 0 0.13052406907081604
vn 0 -1 0
vn 0.99144512414932251 0 -0.13052406907081604
f 1/1/1 4/4/4 7/7/7
f 4/4/4 1/1/1 10/10/10
f 13/13/13 11/11/11 2/2/2
f 16/16/16 11/11/11 13/13/13
f 16/16/16 19/19/19 11/11/11
f 21/21/21 19/19/19 16/16/16
f 21/21/21 24/24/24 19/19/19
f 27/27/27 24/24/24 21/21/21
f 27/27/27 30/30/30 24/24/24
f 33/33/33 30/30/30 27/27/27
f 33/33/33 36/36/36 30/30/30
f 39/39/39 36/36/36 33/33/33
f 39/39/39 42/42/42 36/36/36
f 45/45/45 42/42/42 39/39/39
f 45/45/45 48/48/48 42/42/42
f 48/48/48 45/45/45 51/51/51
f 46/46/46 54/54/54 52/52/52
f 54/54/54 46/46/46 55/55/55
f 40/40/40 56/56/56 47/47/47
f 56/56/56 40/40/40 58/58/58
f 34/34/34 59/59/59 41/41/41
f 59/59/59 34/34/34 61/61/61
f 35/35/35 65/65/65 62/62/62
f 65/65/65 35/35/35 29/29/29
f 28/28/28 68/68/68 64/64/64
f 68/68/68 28/28/28 23/23/23
f 22/22/22 70/70/70 67/67/67
f 70/70/70 22/22/22 17/17/17
f 18/18/18 73/73/73 71/71/71
f 73/73/73 18/18/18 14/14/14
f 15/15/15 76/76/76 74/74/74
f 76/76/76 15/15/15 79/79/79
f 13/13/13 2/2/2 80/80/80
f 80/80/80 2/2/2 82/82/82
f 8/8/8 83/83/83 3/3/3
f 83/83/83 8/8/8 85/85/85
f 9/9/9 77/77/77 86/86/86
f 9/9/9 75/75/75 77/77/77
f 5/5/5 75/75/75 9/9/9
f 5/5/5 72/72/72 75/75/75
f 88/88/88 72/72/72 5/5/5
f 88/88/88 69/69/69 72/72/72
f 90/90/90 69/69/69 88/88/88
f 90/90/90 66/66/66 69/69/69
f 93/93/93 66/66/66 90/90/90
f 93/93/93 63/63/63 66/66/66
f 96/96/96 63/63/63 93/93/93
f 96/96/96 60/60/60 63/63/63
f 99/99/99 60/60/60 96/96/96
f 99/99/99 57/57/57 60/60/60
f 103/103/103 57/57/57 99/99/99
f 57/57/57 103/103/103 53/53/53
f 104/104/104 52/52/52 54/54/54
f 52/52/52 104/104/104 50/50/50
f 100/100/100 49/49/49 102/102/102
f 49/49/49 100/100/100 43/43/43
f 97/97/97 44/44/44 101/101/101
f 44/44/44 97/97/97 37/37/37
f 98/98/98 31/31/31 38/38/38
f 31/31/31 98/98/98 94/94/94
f 95/95/95 25/25/25 32/32/32
f 25/25/25 95/95/95 91/91/91
f 92/92/92 20/20/20 26/26/26
f 20/20/20 92/92/92 89/89/89
f 89/89/89 12/12/12 20/20/20
f 12/12/12 89/89/89 6/6/6
f 86/86/86 77/77/77 105/105/105
f 81/81/81 106/106/106 78/78/78
f 106/106/106 81/81/81 108/108/108
f 80/80/80 82/82/82 109/109/109
f 109/109/109 82/82/82 111/111/111
f 84/84/84 114/114/114 112/112/112
f 114/114/114 84/84/84 87/87/87
f 86/86/86 117/117/117 115/115/115
f 86/86/86 105/105/105 117/117/117
f 107/107/107 120/120/120 118/118/118
f 120/120/120 107/107/107 110/110/110
f 109/109/109 111/111/111 121/121/121
f 121/121/121 111/111/111 123/123/123
f 113/113/113 126/126/126 124/124/124
f 126/126/126 113/113/113 116/116/116
f 115/115/115 117/117/117 127/127/127
f 127/127/127 117/117/117 129/129/129
f 119/119/119 132/132/132 130/130/130
f 132/132/132 119/119/119 122/122/122
f 121/121/121 123/123/123 133/133/133
f 133/133/133 123/123/123 135/135/135
f 125/125/125 138/138/138 136/136/136
f 138/138/138 125/125/125 128/128/128
f 127/127/127 129/129/129 139/139/139
f 131/131/131 137/137/137 140/140/140
f 137/137/137 131/131/131 134/134/134
