# Rhino

v 0.371656741806 0.23022984005700001 -0.151293894894
v 0.371656741806 0.23022984005700001 -0.151293894894
v 0.371656741806 0.23022984005700001 -0.151293894894
v 0.34534476008499998 0.23022984005700001 -0.177605876616
v 0.34534476008499998 0.23022984005700001 -0.177605876616
v 0.34534476008499998 0.23022984005700001 -0.177605876616
v 0.34534476008499998 0.23022984005700001 -0.151293894894
v 0.34534476008499998 0.23022984005700001 -0.151293894894
v 0.34534476008499998 0.23022984005700001 -0.151293894894
v 0.371656741806 0.23022984005700001 -0.177605876616
v 0.371656741806 0.23022984005700001 -0.177605876616
v 0.371656741806 0.23022984005700001 -0.177605876616
v 0.371656741806 0.16444988575399999 -0.151293894894
v 0.371656741806 0.16444988575399999 -0.151293894894
v 0.371656741806 0.16444988575399999 -0.151293894894
v 0.371656741806 0.16444988575399999 -0.177605876616
v 0.371656741806 0.16444988575399999 -0.177605876616
v 0.371656741806 0.16444988575399999 -0.177605876616
v 0.34534476008499998 0.16444988575399999 -0.177605876616
v 0.34534476008499998 0.16444988575399999 -0.177605876616
v 0.34534476008499998 0.16444988575399999 -0.177605876616
v 0.34534476008499998 0.16444988575399999 -0.151293894894
v 0.34534476008499998 0.16444988575399999 -0.151293894894
v 0.34534476008499998 0.16444988575399999 -0.151293894894
vt 0.13238799571990967 0
vt 0.093612201511859894 2.880000114440918
vt 0.093612201511859894 2.880000114440918
vt 0.13238799571990967 0.22627399861812592
vt -0.25361201167106628 2.880000114440918
vt 0.066387802362442017 2.880000114440918
vt 0.019250599667429924 0.11313699930906296
vt -0.066387802362442017 2.880000114440918
vt -0.093612201511859894 2.880000114440918
vt 0.24552500247955322 0.11313699930906296
vt 0.25361201167106628 2.880000114440918
vt -0.093612201511859894 2.880000114440918
vt -0.13238799571990967 0
vt 0.093612201511859894 2.4800000190734863
vt 0.093612201511859894 2.4800000190734863
vt 0.25361201167106628 2.4800000190734863
vt -0.24552500247955322 0.11313699930906296
vt -0.093612201511859894 2.4800000190734863
vt -0.25361201167106628 2.4800000190734863
vt -0.13238799571990967 0.22627399861812592
vt 0.066387802362442017 2.4800000190734863
vt -0.019250599667429924 0.11313699930906296
vt -0.066387802362442017 2.4800000190734863
vt -0.093612201511859894 2.4800000190734863
vn 0 1 0
vn 0 0 1
vn 1 0 0
vn 0 1 0
vn -1 0 0
vn 0 0 -1
vn 0 1 0
vn 0 0 1
vn -1 0 0
vn 0 1 0
vn 1 0 0
vn 0 0 -1
vn 0 -1 0
vn 0 0 1
vn 1 0 0
vn 1 0 0
vn 0 -1 0
vn 0 0 -1
vn -1 0 0
vn 0 -1 0
vn 0 0 -1
vn 0 -1 0
vn 0 0 1
vn -1 0 0
f 1/1/1 4/4/4 7/7/7
f 4/4/4 1/1/1 10/10/10
f 15/15/15 11/11/11 3/3/3
f 11/11/11 15/15/15 16/16/16
f 13/13/13 20/20/20 17/17/17
f 20/20/20 13/13/13 22/22/22
f 14/14/14 8/8/8 23/23/23
f 8/8/8 14/14/14 2/2/2
f 9/9/9 19/19/19 24/24/24
f 19/19/19 9/9/9 5/5/5
f 12/12/12 21/21/21 6/6/6
f 21/21/21 12/12/12 18/18/18
