# Rhino

v -0.25082803632799999 -0.14488658375399999 0.26757748583300001
v -0.25082803632799999 -0.145276256858 0.30844498665100001
v -0.25082803632799999 -0.140153953227 0.30638058216500003
v -0.27482803632800001 -0.14488658375399999 0.26757748583300001
v -0.27482803632800001 -0.145276256858 0.30844498665100001
v -0.27482803632800001 -0.140153953227 0.30638058216500003
v -0.25082803632799999 -0.15035499351100001 0.26680417197700002
v -0.27482803632800001 -0.15035499351100001 0.26680417197700002
v -0.25082803632799999 -0.15075849075100001 0.30911441002200002
v -0.27482803632800001 -0.15075849075100001 0.30911441002200002
v -0.25082803632799999 -0.15583722740399999 0.26747275751999999
v -0.27482803632800001 -0.15583722740399999 0.26747275751999999
v -0.25082803632799999 -0.15622690050800001 0.30834109616599997
v -0.27482803632800001 -0.15622690050800001 0.30834109616599997
v -0.25082803632799999 -0.16095953103499999 0.26953716200700001
v -0.27482803632800001 -0.16095953103499999 0.26953716200700001
v -0.25082803632799999 -0.161308904684 0.30617866597999999
v -0.27482803632800001 -0.161308904684 0.30617866597999999
v -0.25082803632799999 -0.165372865885 0.27285746841000003
v -0.27482803632800001 -0.165372865885 0.27285746841000003
v -0.25082803632799999 -0.165658145807 0.30277541475300002
v -0.27482803632800001 -0.165658145807 0.30277541475300002
v -0.25082803632799999 -0.16877657791600001 0.27720662574999999
v -0.27482803632800001 -0.16877657791600001 0.27720662574999999
v -0.25082803632799999 -0.16897830140199999 0.29836174477299998
v -0.27482803632800001 -0.16897830140199999 0.29836174477299998
v -0.25082803632799999 -0.17093861432400001 0.28228888127500001
v -0.27482803632800001 -0.17093861432400001 0.28228888127500001
v -0.25082803632799999 -0.17104303264000001 0.29323927357700003
v -0.27482803632800001 -0.17104303264000001 0.29323927357700003
v -0.25082803632799999 -0.17171166007499999 0.28775737481399999
v -0.27482803632800001 -0.17171166007499999 0.28775737481399999
v -0.25082803632799999 -0.13007046 0.28267847059500001
v -0.25082803632799999 -0.130174853181 0.29362886289700002
v -0.25082803632799999 -0.12940179067400001 0.28816120718499999
v -0.27482803632800001 -0.13007046 0.28267847059500001
v -0.27482803632800001 -0.130174853181 0.29362886289700002
v -0.27482803632800001 -0.12940179067400001 0.28816120718499999
v -0.25082803632799999 -0.13213519961699999 0.27755599939999998
v -0.27482803632800001 -0.13213519961699999 0.27755599939999998
v -0.25082803632799999 -0.13233694823700001 0.29871111842199999
v -0.27482803632800001 -0.13233694823700001 0.29871111842199999
v -0.25082803632799999 -0.13545533845499999 0.27314316724499998
v -0.27482803632800001 -0.13545533845499999 0.27314316724499998
v -0.25082803632799999 -0.13574061837699999 0.30306027576200001
v -0.27482803632800001 -0.13574061837699999 0.30306027576200001
v -0.25082803632799999 -0.13980457957799999 0.26973907819199999
v -0.27482803632800001 -0.13980457957799999 0.26973907819199999
v -0.27482803632800001 -0.14488658375399999 0.26757748583300001
v -0.27482803632800001 -0.15035499351100001 0.26680417197700002
v -0.25082803632799999 -0.15035499351100001 0.26680417197700002
v -0.25082803632799999 -0.14488658375399999 0.26757748583300001
v -0.27482803632800001 -0.13980457957799999 0.26973907819199999
v -0.27482803632800001 -0.14488658375399999 0.26757748583300001
v -0.25082803632799999 -0.14488658375399999 0.26757748583300001
v -0.25082803632799999 -0.13980457957799999 0.26973907819199999
v -0.27482803632800001 -0.145276256858 0.30844498665100001
v -0.27482803632800001 -0.140153953227 0.30638058216500003
v -0.25082803632799999 -0.140153953227 0.30638058216500003
v -0.25082803632799999 -0.145276256858 0.30844498665100001
v -0.27482803632800001 -0.15075849075100001 0.30911441002200002
v -0.27482803632800001 -0.145276256858 0.30844498665100001
v -0.25082803632799999 -0.145276256858 0.30844498665100001
v -0.25082803632799999 -0.15075849075100001 0.30911441002200002
v -0.27482803632800001 -0.140153953227 0.30638058216500003
v -0.27482803632800001 -0.13574061837699999 0.30306027576200001
v -0.25082803632799999 -0.13574061837699999 0.30306027576200001
v -0.25082803632799999 -0.140153953227 0.30638058216500003
v -0.27482803632800001 -0.15035499351100001 0.26680417197700002
v -0.27482803632800001 -0.15583722740399999 0.26747275751999999
v -0.25082803632799999 -0.15583722740399999 0.26747275751999999
v -0.25082803632799999 -0.15035499351100001 0.26680417197700002
v -0.27482803632800001 -0.15622690050800001 0.30834109616599997
v -0.27482803632800001 -0.15075849075100001 0.30911441002200002
v -0.25082803632799999 -0.15075849075100001 0.30911441002200002
v -0.25082803632799999 -0.15622690050800001 0.30834109616599997
v -0.27482803632800001 -0.15583722740399999 0.26747275751999999
v -0.27482803632800001 -0.16095953103499999 0.26953716200700001
v -0.25082803632799999 -0.16095953103499999 0.26953716200700001
v -0.25082803632799999 -0.15583722740399999 0.26747275751999999
v -0.27482803632800001 -0.161308904684 0.30617866597999999
v -0.27482803632800001 -0.15622690050800001 0.30834109616599997
v -0.25082803632799999 -0.15622690050800001 0.30834109616599997
v -0.25082803632799999 -0.161308904684 0.30617866597999999
v -0.27482803632800001 -0.16095953103499999 0.26953716200700001
v -0.27482803632800001 -0.165372865885 0.27285746841000003
v -0.25082803632799999 -0.165372865885 0.27285746841000003
v -0.25082803632799999 -0.16095953103499999 0.26953716200700001
v -0.27482803632800001 -0.165658145807 0.30277541475300002
v -0.27482803632800001 -0.161308904684 0.30617866597999999
v -0.25082803632799999 -0.161308904684 0.30617866597999999
v -0.25082803632799999 -0.165658145807 0.30277541475300002
v -0.27482803632800001 -0.165372865885 0.27285746841000003
v -0.27482803632800001 -0.16877657791600001 0.27720662574999999
v -0.25082803632799999 -0.16877657791600001 0.27720662574999999
v -0.25082803632799999 -0.165372865885 0.27285746841000003
v -0.27482803632800001 -0.16897830140199999 0.29836174477299998
v -0.27482803632800001 -0.165658145807 0.30277541475300002
v -0.25082803632799999 -0.165658145807 0.30277541475300002
v -0.25082803632799999 -0.16897830140199999 0.29836174477299998
v -0.27482803632800001 -0.16877657791600001 0.27720662574999999
v -0.27482803632800001 -0.17093861432400001 0.28228888127500001
v -0.25082803632799999 -0.17093861432400001 0.28228888127500001
v -0.25082803632799999 -0.16877657791600001 0.27720662574999999
v -0.27482803632800001 -0.17104303264000001 0.29323927357700003
v -0.27482803632800001 -0.16897830140199999 0.29836174477299998
v -0.25082803632799999 -0.16897830140199999 0.29836174477299998
v -0.25082803632799999 -0.17104303264000001 0.29323927357700003
v -0.27482803632800001 -0.17093861432400001 0.28228888127500001
v -0.27482803632800001 -0.17171166007499999 0.28775737481399999
v -0.25082803632799999 -0.17171166007499999 0.28775737481399999
v -0.25082803632799999 -0.17093861432400001 0.28228888127500001
v -0.27482803632800001 -0.17171166007499999 0.28775737481399999
v -0.27482803632800001 -0.17104303264000001 0.29323927357700003
v -0.25082803632799999 -0.17104303264000001 0.29323927357700003
v -0.25082803632799999 -0.17171166007499999 0.28775737481399999
v -0.27482803632800001 -0.12940179067400001 0.28816120718499999
v -0.27482803632800001 -0.13007046 0.28267847059500001
v -0.25082803632799999 -0.13007046 0.28267847059500001
v -0.25082803632799999 -0.12940179067400001 0.28816120718499999
v -0.27482803632800001 -0.13007046 0.28267847059500001
v -0.27482803632800001 -0.13213519961699999 0.27755599939999998
v -0.25082803632799999 -0.13213519961699999 0.27755599939999998
v -0.25082803632799999 -0.13007046 0.28267847059500001
v -0.27482803632800001 -0.130174853181 0.29362886289700002
v -0.27482803632800001 -0.12940179067400001 0.28816120718499999
v -0.25082803632799999 -0.12940179067400001 0.28816120718499999
v -0.25082803632799999 -0.130174853181 0.29362886289700002
v -0.27482803632800001 -0.13233694823700001 0.29871111842199999
v -0.27482803632800001 -0.130174853181 0.29362886289700002
v -0.25082803632799999 -0.130174853181 0.29362886289700002
v -0.25082803632799999 -0.13233694823700001 0.29871111842199999
v -0.27482803632800001 -0.13213519961699999 0.27755599939999998
v -0.27482803632800001 -0.13545533845499999 0.27314316724499998
v -0.25082803632799999 -0.13545533845499999 0.27314316724499998
v -0.25082803632799999 -0.13213519961699999 0.27755599939999998
v -0.27482803632800001 -0.13574061837699999 0.30306027576200001
v -0.27482803632800001 -0.13233694823700001 0.29871111842199999
v -0.25082803632799999 -0.13233694823700001 0.29871111842199999
v -0.25082803632799999 -0.13574061837699999 0.30306027576200001
v -0.27482803632800001 -0.13545533845499999 0.27314316724499998
v -0.27482803632800001 -0.13980457957799999 0.26973907819199999
v -0.25082803632799999 -0.13980457957799999 0.26973907819199999
v -0.25082803632799999 -0.13545533845499999 0.27314316724499998
vt 0.85907000303268433 1.4933133125305176
vt 1.8192800283432007 1.4841582775115967
vt 1.7707700729370117 1.6045082807540894
vt 0.23510000109672546 1.4593000411987305
vt 2.155519962310791 1.4409899711608887
vt 2.0585000514984131 1.681689977645874
vt 0.53095263242721558 1.2849416732788086
vt 0.19877399504184723 1.2023400068283081
vt 1.8503422737121582 1.2294750213623047
vt 2.1869399547576904 1.1833800077438354
vt 0.55108100175857544 1.0274380445480347
vt 0.23019300401210785 0.94472700357437134
vt 1.8366020917892456 0.97229450941085815
vt 2.1506199836730957 0.92641502618789673
vt 0.61494684219360352 0.78120768070220947
vt 0.32721701264381409 0.7040259838104248
vt 1.7789862155914307 0.73014551401138306
vt 2.0490200519561768 0.68760800361633301
vt 0.71819418668746948 0.56303101778030396
vt 0.48323199152946472 0.49663800001144409
vt 1.6814286708831787 0.51952898502349854
vt 1.8890800476074219 0.48323199152946472
vt 0.85379070043563843 0.38777565956115723
vt 0.68760800361633301 0.33669599890708923
vt 1.5505746603012085 0.35479933023452759
vt 1.681689977645874 0.32721701264381409
vt 1.0124930143356323 0.26738551259040833
vt 0.92641502618789673 0.23510000109672546
vt 1.3953441381454468 0.24718150496482849
vt 1.4409899711608887 0.23019300401210785
vt 1.1834875345230103 0.21006482839584351
vt 1.1833800077438354 0.19877399504184723
vt 1.0734246969223022 2.1599400043487549
vt 1.3307112455368042 2.1574900150299072
vt 1.2022311687469482 2.175649881362915
vt 0.94472700357437134 2.155519962310791
vt 1.4593000411987305 2.1506199836730957
vt 1.2023400068283081 2.1869399547576904
vt 0.87002182006835938 2.0900232791900635
vt 0.7040259838104248 2.0585000514984131
vt 1.4926276206970215 2.0675334930419922
vt 1.6981099843978882 2.0490200519561768
vt 0.73144799470901489 1.9529134035110474
vt 0.49663800001144409 1.9024900197982788
vt 1.6341179609298706 1.9179717302322388
vt 1.9024900197982788 1.8890800476074219
vt 0.62431865930557251 1.7640016078948975
vt 0.33669599890708923 1.6981099843978882
vt 0.23510000109672546 1.4593000411987305
vt 0.19877399504184723 1.2023400068283081
vt 0.53095263242721558 1.2849416732788086
vt 0.85907000303268433 1.4933133125305176
vt 0.33669599890708923 1.6981099843978882
vt 0.23510000109672546 1.4593000411987305
vt 0.85907000303268433 1.4933133125305176
vt 0.62431865930557251 1.7640016078948975
vt 2.155519962310791 1.4409899711608887
vt 2.0585000514984131 1.681689977645874
vt 1.7707700729370117 1.6045082807540894
vt 1.8192800283432007 1.4841582775115967
vt 2.1869399547576904 1.1833800077438354
vt 2.155519962310791 1.4409899711608887
vt 1.8192800283432007 1.4841582775115967
vt 1.8503422737121582 1.2294750213623047
vt 2.0585000514984131 1.681689977645874
vt 1.9024900197982788 1.8890800476074219
vt 1.6341179609298706 1.9179717302322388
vt 1.7707700729370117 1.6045082807540894
vt 0.19877399504184723 1.2023400068283081
vt 0.23019300401210785 0.94472700357437134
vt 0.55108100175857544 1.0274380445480347
vt 0.53095263242721558 1.2849416732788086
vt 2.1506199836730957 0.92641502618789673
vt 2.1869399547576904 1.1833800077438354
vt 1.8503422737121582 1.2294750213623047
vt 1.8366020917892456 0.97229450941085815
vt 0.23019300401210785 0.94472700357437134
vt 0.32721701264381409 0.7040259838104248
vt 0.61494684219360352 0.78120768070220947
vt 0.55108100175857544 1.0274380445480347
vt 2.0490200519561768 0.68760800361633301
vt 2.1506199836730957 0.92641502618789673
vt 1.8366020917892456 0.97229450941085815
vt 1.7789862155914307 0.73014551401138306
vt 0.32721701264381409 0.7040259838104248
vt 0.48323199152946472 0.49663800001144409
vt 0.71819418668746948 0.56303101778030396
vt 0.61494684219360352 0.78120768070220947
vt 1.8890800476074219 0.48323199152946472
vt 2.0490200519561768 0.68760800361633301
vt 1.7789862155914307 0.73014551401138306
vt 1.6814286708831787 0.51952898502349854
vt 0.48323199152946472 0.49663800001144409
vt 0.68760800361633301 0.33669599890708923
vt 0.85379070043563843 0.38777565956115723
vt 0.71819418668746948 0.56303101778030396
vt 1.681689977645874 0.32721701264381409
vt 1.8890800476074219 0.48323199152946472
vt 1.6814286708831787 0.51952898502349854
vt 1.5505746603012085 0.35479933023452759
vt 0.68760800361633301 0.33669599890708923
vt 0.92641502618789673 0.23510000109672546
vt 1.0124930143356323 0.26738551259040833
vt 0.85379070043563843 0.38777565956115723
vt 1.4409899711608887 0.23019300401210785
vt 1.681689977645874 0.32721701264381409
vt 1.5505746603012085 0.35479933023452759
vt 1.3953441381454468 0.24718150496482849
vt 0.92641502618789673 0.23510000109672546
vt 1.1833800077438354 0.19877399504184723
vt 1.1834875345230103 0.21006482839584351
vt 1.0124930143356323 0.26738551259040833
vt 1.1833800077438354 0.19877399504184723
vt 1.4409899711608887 0.23019300401210785
vt 1.3953441381454468 0.24718150496482849
vt 1.1834875345230103 0.21006482839584351
vt 1.2023400068283081 2.1869399547576904
vt 0.94472700357437134 2.155519962310791
vt 1.0734246969223022 2.1599400043487549
vt 1.2022311687469482 2.175649881362915
vt 0.94472700357437134 2.155519962310791
vt 0.7040259838104248 2.0585000514984131
vt 0.87002182006835938 2.0900232791900635
vt 1.0734246969223022 2.1599400043487549
vt 1.4593000411987305 2.1506199836730957
vt 1.2023400068283081 2.1869399547576904
vt 1.2022311687469482 2.175649881362915
vt 1.3307112455368042 2.1574900150299072
vt 1.6981099843978882 2.0490200519561768
vt 1.4593000411987305 2.1506199836730957
vt 1.3307112455368042 2.1574900150299072
vt 1.4926276206970215 2.0675334930419922
vt 0.7040259838104248 2.0585000514984131
vt 0.49663800001144409 1.9024900197982788
vt 0.73144799470901489 1.9529134035110474
vt 0.87002182006835938 2.0900232791900635
vt 1.9024900197982788 1.8890800476074219
vt 1.6981099843978882 2.0490200519561768
vt 1.4926276206970215 2.0675334930419922
vt 1.6341179609298706 1.9179717302322388
vt 0.49663800001144409 1.9024900197982788
vt 0.33669599890708923 1.6981099843978882
vt 0.62431865930557251 1.7640016078948975
vt 0.73144799470901489 1.9529134035110474
vn 1 0 0
vn 1 0 0
vn 1 0 0
vn -1 0 0
vn -1 0 0
vn -1 0 0
vn 1 0 0
vn -1 0 0
vn 1 0 0
vn -1 0 0
vn 1 0 0
vn -1 0 0
vn 1 0 0
vn -1 0 0
vn 1 0 0
vn -1 0 0
vn 1 0 0
vn -1 0 0
vn 1 0 0
vn -1 0 0
vn 1 0 0
vn -1 0 0
vn 1 0 0
vn -1 0 0
vn 1 0 0
vn -1 0 0
vn 1 0 0
vn -1 0 0
vn 1 0 0
vn -1 0 0
vn 1 0 0
vn -1 0 0
vn 1 0 0
vn 1 0 0
vn 1 0 0
vn -1 0 0
vn -1 0 0
vn -1 0 0
vn 1 0 0
vn -1 0 0
vn 1 0 0
vn -1 0 0
vn 1 0 0
vn -1 0 0
vn 1 0 0
vn -1 0 0
vn 1 0 0
vn -1 0 0
vn 0 0.14002160727977753 -0.99014842510223389
vn 0 0.14002160727977753 -0.99014842510223389
vn 0 0.14002160727977753 -0.99014842510223389
vn 0 0.14002160727977753 -0.99014842510223389
vn 0 0.39140757918357849 -0.92021739482879639
vn 0 0.39140757918357849 -0.92021739482879639
vn 0 0.39140757918357849 -0.92021739482879639
vn 0 0.39140757918357849 -0.92021739482879639
vn 0 0.37380626797676086 0.92750680446624756
vn 0 0.37380626797676086 0.92750680446624756
vn 0 0.37380626797676086 0.92750680446624756
vn 0 0.37380626797676086 0.92750680446624756
vn 0 0.12120749801397324 0.99262720346450806
vn 0 0.12120749801397324 0.99262720346450806
vn 0 0.12120749801397324 0.99262720346450806
vn 0 0.12120749801397324 0.99262720346450806
vn 0 0.60119354724884033 0.79910343885421753
vn 0 0.60119354724884033 0.79910343885421753
vn 0 0.60119354724884033 0.79910343885421753
vn 0 0.60119354724884033 0.79910343885421753
vn 0 -0.12105802446603775 -0.99264544248580933
vn 0 -0.12105802446603775 -0.99264544248580933
vn 0 -0.12105802446603775 -0.99264544248580933
vn 0 -0.12105802446603775 -0.99264544248580933
vn 0 -0.14002160727977753 0.99014842510223389
vn 0 -0.14002160727977753 0.99014842510223389
vn 0 -0.14002160727977753 0.99014842510223389
vn 0 -0.14002160727977753 0.99014842510223389
vn 0 -0.37380626797676086 -0.92750680446624756
vn 0 -0.37380626797676086 -0.92750680446624756
vn 0 -0.37380626797676086 -0.92750680446624756
vn 0 -0.37380626797676086 -0.92750680446624756
vn 0 -0.39153602719306946 0.92016279697418213
vn 0 -0.39153602719306946 0.92016279697418213
vn 0 -0.39153602719306946 0.92016279697418213
vn 0 -0.39153602719306946 0.92016279697418213
vn 0 -0.60119354724884033 -0.79910343885421753
vn 0 -0.60119354724884033 -0.79910343885421753
vn 0 -0.60119354724884033 -0.79910343885421753
vn 0 -0.60119354724884033 -0.79910343885421753
vn 0 -0.61625182628631592 0.78754919767379761
vn 0 -0.61625182628631592 0.78754919767379761
vn 0 -0.61625182628631592 0.78754919767379761
vn 0 -0.61625182628631592 0.78754919767379761
vn 0 -0.7875029444694519 -0.61631089448928833
vn 0 -0.7875029444694519 -0.61631089448928833
vn 0 -0.7875029444694519 -0.61631089448928833
vn 0 -0.7875029444694519 -0.61631089448928833
vn 0 -0.79913848638534546 0.60114693641662598
vn 0 -0.79913848638534546 0.60114693641662598
vn 0 -0.79913848638534546 0.60114693641662598
vn 0 -0.79913848638534546 0.60114693641662598
vn 0 -0.92019546031951904 -0.39145925641059875
vn 0 -0.92019546031951904 -0.39145925641059875
vn 0 -0.92019546031951904 -0.39145925641059875
vn 0 -0.92019546031951904 -0.39145925641059875
vn 0 -0.92749053239822388 0.37384665012359619
vn 0 -0.92749053239822388 0.37384665012359619
vn 0 -0.92749053239822388 0.37384665012359619
vn 0 -0.92749053239822388 0.37384665012359619
vn 0 -0.99015545845031738 -0.13997191190719604
vn 0 -0.99015545845031738 -0.13997191190719604
vn 0 -0.99015545845031738 -0.13997191190719604
vn 0 -0.99015545845031738 -0.13997191190719604
vn 0 -0.99264365434646606 0.12107278406620026
vn 0 -0.99264365434646606 0.12107278406620026
vn 0 -0.99264365434646606 0.12107278406620026
vn 0 -0.99264365434646606 0.12107278406620026
vn 0 0.99264496564865112 -0.1210620328783989
vn 0 0.99264496564865112 -0.1210620328783989
vn 0 0.99264496564865112 -0.1210620328783989
vn 0 0.99264496564865112 -0.1210620328783989
vn 0 0.9274899959564209 -0.37384796142578125
vn 0 0.9274899959564209 -0.37384796142578125
vn 0 0.9274899959564209 -0.37384796142578125
vn 0 0.9274899959564209 -0.37384796142578125
vn 0 0.99015206098556519 0.13999591767787933
vn 0 0.99015206098556519 0.13999591767787933
vn 0 0.99015206098556519 0.13999591767787933
vn 0 0.99015206098556519 0.13999591767787933
vn 0 0.92019158601760864 0.39146825671195984
vn 0 0.92019158601760864 0.39146825671195984
vn 0 0.92019158601760864 0.39146825671195984
vn 0 0.92019158601760864 0.39146825671195984
vn 0 0.79908514022827148 -0.60121786594390869
vn 0 0.79908514022827148 -0.60121786594390869
vn 0 0.79908514022827148 -0.60121786594390869
vn 0 0.79908514022827148 -0.60121786594390869
vn 0 0.7875065803527832 0.61630624532699585
vn 0 0.7875065803527832 0.61630624532699585
vn 0 0.7875065803527832 0.61630624532699585
vn 0 0.7875065803527832 0.61630624532699585
vn 0 0.61634588241577148 -0.78747552633285522
vn 0 0.61634588241577148 -0.78747552633285522
vn 0 0.61634588241577148 -0.78747552633285522
vn 0 0.61634588241577148 -0.78747552633285522
f 1/1/1 3/3/3 2/2/2
f 4/4/4 5/5/5 6/6/6
f 7/7/7 1/1/1 2/2/2
f 8/8/8 5/5/5 4/4/4
f 7/7/7 2/2/2 9/9/9
f 8/8/8 10/10/10 5/5/5
f 11/11/11 7/7/7 9/9/9
f 12/12/12 10/10/10 8/8/8
f 11/11/11 9/9/9 13/13/13
f 12/12/12 14/14/14 10/10/10
f 15/15/15 11/11/11 13/13/13
f 16/16/16 14/14/14 12/12/12
f 15/15/15 13/13/13 17/17/17
f 16/16/16 18/18/18 14/14/14
f 19/19/19 15/15/15 17/17/17
f 20/20/20 18/18/18 16/16/16
f 19/19/19 17/17/17 21/21/21
f 20/20/20 22/22/22 18/18/18
f 23/23/23 19/19/19 21/21/21
f 24/24/24 22/22/22 20/20/20
f 23/23/23 21/21/21 25/25/25
f 24/24/24 26/26/26 22/22/22
f 27/27/27 23/23/23 25/25/25
f 28/28/28 26/26/26 24/24/24
f 27/27/27 25/25/25 29/29/29
f 28/28/28 30/30/30 26/26/26
f 29/29/29 31/31/31 27/27/27
f 30/30/30 28/28/28 32/32/32
f 33/33/33 35/35/35 34/34/34
f 36/36/36 37/37/37 38/38/38
f 39/39/39 33/33/33 34/34/34
f 40/40/40 37/37/37 36/36/36
f 39/39/39 34/34/34 41/41/41
f 40/40/40 42/42/42 37/37/37
f 43/43/43 39/39/39 41/41/41
f 44/44/44 42/42/42 40/40/40
f 43/43/43 41/41/41 45/45/45
f 44/44/44 46/46/46 42/42/42
f 47/47/47 43/43/43 45/45/45
f 48/48/48 46/46/46 44/44/44
f 47/47/47 45/45/45 3/3/3
f 48/48/48 6/6/6 46/46/46
f 1/1/1 47/47/47 3/3/3
f 4/4/4 6/6/6 48/48/48
f 49/49/49 52/52/52 51/51/51 50/50/50
f 53/53/53 56/56/56 55/55/55 54/54/54
f 57/57/57 60/60/60 59/59/59 58/58/58
f 61/61/61 64/64/64 63/63/63 62/62/62
f 65/65/65 68/68/68 67/67/67 66/66/66
f 69/69/69 72/72/72 71/71/71 70/70/70
f 73/73/73 76/76/76 75/75/75 74/74/74
f 77/77/77 80/80/80 79/79/79 78/78/78
f 81/81/81 84/84/84 83/83/83 82/82/82
f 85/85/85 88/88/88 87/87/87 86/86/86
f 89/89/89 92/92/92 91/91/91 90/90/90
f 93/93/93 96/96/96 95/95/95 94/94/94
f 97/97/97 100/100/100 99/99/99 98/98/98
f 101/101/101 104/104/104 103/103/103 102/102/102
f 105/105/105 108/108/108 107/107/107 106/106/106
f 109/109/109 112/112/112 111/111/111 110/110/110
f 113/113/113 116/116/116 115/115/115 114/114/114
f 117/117/117 120/120/120 119/119/119 118/118/118
f 121/121/121 124/124/124 123/123/123 122/122/122
f 125/125/125 128/128/128 127/127/127 126/126/126
f 129/129/129 132/132/132 131/131/131 130/130/130
f 133/133/133 136/136/136 135/135/135 134/134/134
f 137/137/137 140/140/140 139/139/139 138/138/138
f 141/141/141 144/144/144 143/143/143 142/142/142
