# Rhino

v -0.21305353867999999 -0.224852207256 0.23327257241999999
v -0.21305353867999999 -0.224852207256 0.23327257241999999
v -0.21305353867999999 -0.224852207256 0.23327257241999999
v -0.216552373622 -0.233296603357 0.20987646900500001
v -0.216552373622 -0.233296603357 0.20987646900500001
v -0.21305353867999999 -0.224852207256 0.20987646900500001
v -0.21305353867999999 -0.224852207256 0.20987646900500001
v -0.216552373622 -0.233296603357 0.23327257241999999
v -0.216552373622 -0.233296603357 0.23327257241999999
v -0.216552373622 -0.233296603357 0.23327257241999999
v -0.27719498091 -0.233296603357 0.23327257241999999
v -0.27719498091 -0.233296603357 0.23327257241999999
v -0.27719498091 -0.233296603357 0.23327257241999999
v -0.27163221019400002 -0.24054797501 0.23327257241999999
v -0.27163221019400002 -0.24054797501 0.23327257241999999
v -0.27163221019400002 -0.24054797501 0.23327257241999999
v -0.222115144338 -0.24054797501 0.23327257241999999
v -0.222115144338 -0.24054797501 0.23327257241999999
v -0.222115144338 -0.24054797501 0.23327257241999999
v -0.26437944712299999 -0.24611216613100001 0.23327257241999999
v -0.26437944712299999 -0.24611216613100001 0.23327257241999999
v -0.26437944712299999 -0.24611216613100001 0.23327257241999999
v -0.22936790740900001 -0.24611216613100001 0.23327257241999999
v -0.22936790740900001 -0.24611216613100001 0.23327257241999999
v -0.22936790740900001 -0.24611216613100001 0.23327257241999999
v -0.25593528292500001 -0.24960995171299999 0.23327257241999999
v -0.25593528292500001 -0.24960995171299999 0.23327257241999999
v -0.25593528292500001 -0.24960995171299999 0.23327257241999999
v -0.23781207160699999 -0.24960995171299999 0.23327257241999999
v -0.23781207160699999 -0.24960995171299999 0.23327257241999999
v -0.23781207160699999 -0.24960995171299999 0.23327257241999999
v -0.24687367726600001 -0.25080298195900003 0.23327257241999999
v -0.24687367726600001 -0.25080298195900003 0.23327257241999999
v -0.24687367726600001 -0.25080298195900003 0.23327257241999999
v -0.24687367726600001 -0.25080298195900003 0.20987646900500001
v -0.24687367726600001 -0.25080298195900003 0.20987646900500001
v -0.25593528292500001 -0.24960995171299999 0.20987646900500001
v -0.25593528292500001 -0.24960995171299999 0.20987646900500001
v -0.26437944712299999 -0.24611216613100001 0.20987646900500001
v -0.26437944712299999 -0.24611216613100001 0.20987646900500001
v -0.27163221019400002 -0.24054797501 0.20987646900500001
v -0.27163221019400002 -0.24054797501 0.20987646900500001
v -0.27719498091 -0.233296603357 0.20987646900500001
v -0.27719498091 -0.233296603357 0.20987646900500001
v -0.28069381585300002 -0.224852207256 0.20987646900500001
v -0.28069381585300002 -0.224852207256 0.20987646900500001
v -0.28069381585300002 -0.224852207256 0.23327257241999999
v -0.28069381585300002 -0.224852207256 0.23327257241999999
v -0.28069381585300002 -0.224852207256 0.23327257241999999
v -0.21186213755200001 -0.21579028273 0.23327257241999999
v -0.21186213755200001 -0.21579028273 0.23327257241999999
v -0.21186213755200001 -0.21579028273 0.23327257241999999
v -0.21186213755200001 -0.21579028273 0.20987646900500001
v -0.21186213755200001 -0.21579028273 0.20987646900500001
v -0.281885216981 -0.21579028273 0.20987646900500001
v -0.281885216981 -0.21579028273 0.20987646900500001
v -0.222115144338 -0.24054797501 0.20987646900500001
v -0.222115144338 -0.24054797501 0.20987646900500001
v -0.22936790740900001 -0.24611216613100001 0.20987646900500001
v -0.22936790740900001 -0.24611216613100001 0.20987646900500001
v -0.23781207160699999 -0.24960995171299999 0.20987646900500001
v -0.23781207160699999 -0.24960995171299999 0.20987646900500001
v -0.281885216981 -0.21579028273 0.23327257241999999
v -0.281885216981 -0.21579028273 0.23327257241999999
v -0.281885216981 -0.21579028273 0.23327257241999999
v -0.21305353867999999 -0.20672838719299999 0.23327257241999999
v -0.21305353867999999 -0.20672838719299999 0.23327257241999999
v -0.21305353867999999 -0.20672838719299999 0.23327257241999999
v -0.21305353867999999 -0.20672838719299999 0.20987646900500001
v -0.21305353867999999 -0.20672838719299999 0.20987646900500001
v -0.28069381585300002 -0.20672838719299999 0.20987646900500001
v -0.28069381585300002 -0.20672838719299999 0.20987646900500001
v -0.28069381585300002 -0.20672838719299999 0.23327257241999999
v -0.28069381585300002 -0.20672838719299999 0.23327257241999999
v -0.28069381585300002 -0.20672838719299999 0.23327257241999999
v -0.216552373622 -0.19828393311600001 0.23327257241999999
v -0.216552373622 -0.19828393311600001 0.23327257241999999
v -0.216552373622 -0.19828393311600001 0.23327257241999999
v -0.216552373622 -0.19828393311600001 0.20987646900500001
v -0.216552373622 -0.19828393311600001 0.20987646900500001
v -0.27719498091 -0.19828393311600001 0.20987646900500001
v -0.27719498091 -0.19828393311600001 0.20987646900500001
v -0.27719498091 -0.19828393311600001 0.23327257241999999
v -0.27719498091 -0.19828393311600001 0.23327257241999999
v -0.27719498091 -0.19828393311600001 0.23327257241999999
v -0.222115144338 -0.19103232955900001 0.23327257241999999
v -0.222115144338 -0.19103232955900001 0.23327257241999999
v -0.222115144338 -0.19103232955900001 0.23327257241999999
v -0.222115144338 -0.19103232955900001 0.20987646900500001
v -0.222115144338 -0.19103232955900001 0.20987646900500001
v -0.27163221019400002 -0.19103232955900001 0.20987646900500001
v -0.27163221019400002 -0.19103232955900001 0.20987646900500001
v -0.27163221019400002 -0.19103232955900001 0.23327257241999999
v -0.27163221019400002 -0.19103232955900001 0.23327257241999999
v -0.27163221019400002 -0.19103232955900001 0.23327257241999999
v -0.22936790740900001 -0.185468399329 0.23327257241999999
v -0.22936790740900001 -0.185468399329 0.23327257241999999
v -0.22936790740900001 -0.185468399329 0.23327257241999999
v -0.22936790740900001 -0.185468399329 0.20987646900500001
v -0.22936790740900001 -0.185468399329 0.20987646900500001
v -0.26437944712299999 -0.185468399329 0.20987646900500001
v -0.26437944712299999 -0.185468399329 0.20987646900500001
v -0.26437944712299999 -0.185468399329 0.23327257241999999
v -0.26437944712299999 -0.185468399329 0.23327257241999999
v -0.26437944712299999 -0.185468399329 0.23327257241999999
v -0.23781207160699999 -0.181970434022 0.23327257241999999
v -0.23781207160699999 -0.181970434022 0.23327257241999999
v -0.23781207160699999 -0.181970434022 0.23327257241999999
v -0.23781207160699999 -0.181970434022 0.20987646900500001
v -0.23781207160699999 -0.181970434022 0.20987646900500001
v -0.25593528292500001 -0.181970434022 0.20987646900500001
v -0.25593528292500001 -0.181970434022 0.20987646900500001
v -0.25593528292500001 -0.181970434022 0.23327257241999999
v -0.25593528292500001 -0.181970434022 0.23327257241999999
v -0.25593528292500001 -0.181970434022 0.23327257241999999
v -0.24687367726600001 -0.18077758350100001 0.23327257241999999
v -0.24687367726600001 -0.18077758350100001 0.23327257241999999
v -0.24687367726600001 -0.18077758350100001 0.23327257241999999
v -0.24687367726600001 -0.18077758350100001 0.20987646900500001
v -0.24687367726600001 -0.18077758350100001 0.20987646900500001
v -0.216552373622 -0.233296603357 0.20987646900500001
v -0.21305353867999999 -0.224852207256 0.20987646900500001
v -0.24687367726600001 -0.25080298195900003 0.20987646900500001
v -0.25593528292500001 -0.24960995171299999 0.20987646900500001
v -0.26437944712299999 -0.24611216613100001 0.20987646900500001
v -0.27163221019400002 -0.24054797501 0.20987646900500001
v -0.27719498091 -0.233296603357 0.20987646900500001
v -0.28069381585300002 -0.224852207256 0.20987646900500001
v -0.21186213755200001 -0.21579028273 0.20987646900500001
v -0.281885216981 -0.21579028273 0.20987646900500001
v -0.222115144338 -0.24054797501 0.20987646900500001
v -0.22936790740900001 -0.24611216613100001 0.20987646900500001
v -0.23781207160699999 -0.24960995171299999 0.20987646900500001
v -0.21305353867999999 -0.20672838719299999 0.20987646900500001
v -0.28069381585300002 -0.20672838719299999 0.20987646900500001
v -0.216552373622 -0.19828393311600001 0.20987646900500001
v -0.27719498091 -0.19828393311600001 0.20987646900500001
v -0.222115144338 -0.19103232955900001 0.20987646900500001
v -0.27163221019400002 -0.19103232955900001 0.20987646900500001
v -0.22936790740900001 -0.185468399329 0.20987646900500001
v -0.26437944712299999 -0.185468399329 0.20987646900500001
v -0.23781207160699999 -0.181970434022 0.20987646900500001
v -0.25593528292500001 -0.181970434022 0.20987646900500001
v -0.24687367726600001 -0.18077758350100001 0.20987646900500001
vt 0.13468299806118011 0
vt -0.35847398638725281 0.016578299924731255
vt 0.13468299806118011 0
vt 0.14053900539875031 0.014945999719202518
vt 0 0.014945999719202518
vt 0.13468299806118011 0.014945999719202518
vt 0.13468299806118011 0.014945999719202518
vt 0.14053900539875031 0
vt -0.36070901155471802 0.01118369959294796
vt 0 0
vt -0.39945000410079956 0.01118369959294796
vt 0.046846300363540649 0
vt 0.046846300363540649 0
vt -0.39589598774909973 0.0065512699075043201
vt 0.040990501642227173 0
vt 0.040990501642227173 0
vt -0.36426401138305664 0.0065512699075043201
vt 0.0058557800948619843 0
vt 0.0058557800948619843 0
vt -0.39126300811767578 0.0029966700822114944
vt 0.035134699195623398 0
vt 0.035134699195623398 0
vt -0.3688960075378418 0.0029966700822114944
vt 0.011711600236594677 0
vt 0.011711600236594677 0
vt -0.38586899638175964 0.00076215201988816261
vt 0.029278900474309921 0
vt 0.029278900474309921 0
vt -0.37429100275039673 0.00076215201988816261
vt 0.01756729930639267 0
vt 0.01756729930639267 0
vt -0.38008001446723938 0
vt 0.023423099890351295 0
vt 0.023423099890351295 0
vt 0.023423099890351295 0.014945999719202518
vt 0.023423099890351295 0.014945999719202518
vt 0.029278900474309921 0.014945999719202518
vt 0.029278900474309921 0.014945999719202518
vt 0.035134699195623398 0.014945999719202518
vt 0.035134699195623398 0.014945999719202518
vt 0.040990501642227173 0.014945999719202518
vt 0.040990501642227173 0.014945999719202518
vt 0.046846300363540649 0.014945999719202518
vt 0.046846300363540649 0.014945999719202518
vt 0.052701998502016068 0.014945999719202518
vt 0.052701998502016068 0.014945999719202518
vt 0.052701998502016068 0
vt -0.40168499946594238 0.016578299924731255
vt 0.052701998502016068 0
vt -0.35771200060844421 0.02236739918589592
vt 0.12882700562477112 0
vt 0.12882700562477112 0
vt 0.12882700562477112 0.014945999719202518
vt 0.12882700562477112 0.014945999719202518
vt 0.058557800948619843 0.014945999719202518
vt 0.058557800948619843 0.014945999719202518
vt 0.0058557800948619843 0.014945999719202518
vt 0.0058557800948619843 0.014945999719202518
vt 0.011711600236594677 0.014945999719202518
vt 0.011711600236594677 0.014945999719202518
vt 0.01756729930639267 0.014945999719202518
vt 0.01756729930639267 0.014945999719202518
vt 0.058557800948619843 0
vt -0.40244698524475098 0.02236739918589592
vt 0.058557800948619843 0
vt -0.35847398638725281 0.028156600892543793
vt 0.12297099828720093 0
vt 0.12297099828720093 0
vt 0.12297099828720093 0.014945999719202518
vt 0.12297099828720093 0.014945999719202518
vt 0.064413599669933319 0.014945999719202518
vt 0.064413599669933319 0.014945999719202518
vt 0.064413599669933319 0
vt -0.40168499946594238 0.028156600892543793
vt 0.064413599669933319 0
vt -0.36070901155471802 0.033551201224327087
vt 0.11711599677801132 0
vt 0.11711599677801132 0
vt 0.11711599677801132 0.014945999719202518
vt 0.11711599677801132 0.014945999719202518
vt 0.070269398391246796 0.014945999719202518
vt 0.070269398391246796 0.014945999719202518
vt 0.070269398391246796 0
vt -0.39945000410079956 0.033551201224327087
vt 0.070269398391246796 0
vt -0.36426401138305664 0.038183599710464478
vt 0.11125999689102173 0
vt 0.11125999689102173 0
vt 0.11125999689102173 0.014945999719202518
vt 0.11125999689102173 0.014945999719202518
vt 0.076125197112560272 0.014945999719202518
vt 0.076125197112560272 0.014945999719202518
vt 0.076125197112560272 0
vt -0.39589598774909973 0.038183599710464478
vt 0.076125197112560272 0
vt -0.3688960075378418 0.041738200932741165
vt 0.10540399700403214 0
vt 0.10540399700403214 0
vt 0.10540399700403214 0.014945999719202518
vt 0.10540399700403214 0.014945999719202518
vt 0.081981003284454346 0.014945999719202518
vt 0.081981003284454346 0.014945999719202518
vt -0.39126300811767578 0.041738200932741165
vt 0.081981003284454346 0
vt 0.081981003284454346 0
vt -0.37429100275039673 0.043972700834274292
vt 0.099548302590847015 0
vt 0.099548302590847015 0
vt 0.099548302590847015 0.014945999719202518
vt 0.099548302590847015 0.014945999719202518
vt 0.087836697697639465 0.014945999719202518
vt 0.087836697697639465 0.014945999719202518
vt -0.38586899638175964 0.043972700834274292
vt 0.087836697697639465 0
vt 0.087836697697639465 0
vt -0.38008001446723938 0.044734898954629898
vt 0.093692496418952942 0
vt 0.093692496418952942 0
vt 0.093692496418952942 0.014945999719202518
vt 0.093692496418952942 0.014945999719202518
vt 19.478300094604492 0.60392099618911743
vt 19.357599258422852 0.89522898197174072
vt 20.524299621582031 0
vt 20.83690071105957 0.04115619882941246
vt 21.128200531005859 0.16181999444961548
vt 21.378400802612305 0.35376900434494019
vt 21.57029914855957 0.60392099618911743
vt 21.690999984741211 0.89522898197174072
vt 19.316499710083008 1.2078399658203125
vt 21.732099533081055 1.2078399658203125
vt 19.670200347900391 0.35376900434494019
vt 19.920400619506836 0.16181999444961548
vt 20.211700439453125 0.04115619882941246
vt 19.357599258422852 1.5204499959945679
vt 21.690999984741211 1.5204499959945679
vt 19.478300094604492 1.8117599487304688
vt 21.57029914855957 1.8117599487304688
vt 19.670200347900391 2.0619199275970459
vt 21.378400802612305 2.0619199275970459
vt 19.920400619506836 2.2538599967956543
vt 21.128200531005859 2.2538599967956543
vt 20.211700439453125 2.3745300769805908
vt 20.83690071105957 2.3745300769805908
vt 20.524299621582031 2.415679931640625
vn 0.92383885383605957 -0.38278162479400635 0
vn 0 0 1
vn 0.99146783351898193 -0.13035154342651367 0
vn 0.92383885383605957 -0.38278162479400635 0
vn 0.79342746734619141 -0.60866481065750122 0
vn 0.92383885383605957 -0.38278162479400635 0
vn 0.99146783351898193 -0.13035154342651367 0
vn 0.92383885383605957 -0.38278162479400635 0
vn 0 0 1
vn 0.79342746734619141 -0.60866481065750122 0
vn 0 0 1
vn -0.79342746734619141 -0.60866481065750122 0
vn -0.92383885383605957 -0.38278162479400635 0
vn 0 0 1
vn -0.60868912935256958 -0.79340881109237671 0
vn -0.79342746734619141 -0.60866481065750122 0
vn 0 0 1
vn 0.60868912935256958 -0.79340881109237671 0
vn 0.79342746734619141 -0.60866481065750122 0
vn 0 0 1
vn -0.3826926052570343 -0.92387574911117554 0
vn -0.60868912935256958 -0.79340881109237671 0
vn 0 0 1
vn 0.3826926052570343 -0.92387574911117554 0
vn 0.60868912935256958 -0.79340881109237671 0
vn 0 0 1
vn -0.13053126633167267 -0.9914441704750061 0
vn -0.3826926052570343 -0.92387574911117554 0
vn 0 0 1
vn 0.13053126633167267 -0.9914441704750061 0
vn 0.3826926052570343 -0.92387574911117554 0
vn 0 0 1
vn -0.13053126633167267 -0.9914441704750061 0
vn 0.13053126633167267 -0.9914441704750061 0
vn -0.13053126633167267 -0.9914441704750061 0
vn 0.13053126633167267 -0.9914441704750061 0
vn -0.13053126633167267 -0.9914441704750061 0
vn -0.3826926052570343 -0.92387574911117554 0
vn -0.3826926052570343 -0.92387574911117554 0
vn -0.60868912935256958 -0.79340881109237671 0
vn -0.60868912935256958 -0.79340881109237671 0
vn -0.79342746734619141 -0.60866481065750122 0
vn -0.79342746734619141 -0.60866481065750122 0
vn -0.92383885383605957 -0.38278162479400635 0
vn -0.92383885383605957 -0.38278162479400635 0
vn -0.99146783351898193 -0.13035154342651367 0
vn -0.92383885383605957 -0.38278162479400635 0
vn 0 0 1
vn -0.99146783351898193 -0.13035154342651367 0
vn 0 0 1
vn 0.99146783351898193 -0.13035154342651367 0
vn 0.99146777391433716 0.1303519606590271 0
vn 0.99146783351898193 -0.13035154342651367 0
vn 0.99146777391433716 0.1303519606590271 0
vn -0.99146783351898193 -0.13035154342651367 0
vn -0.99146777391433716 0.1303519606590271 0
vn 0.60868912935256958 -0.79340881109237671 0
vn 0.79342746734619141 -0.60866481065750122 0
vn 0.3826926052570343 -0.92387574911117554 0
vn 0.60868912935256958 -0.79340881109237671 0
vn 0.13053126633167267 -0.9914441704750061 0
vn 0.3826926052570343 -0.92387574911117554 0
vn -0.99146783351898193 -0.13035154342651367 0
vn 0 0 1
vn -0.99146777391433716 0.1303519606590271 0
vn 0 0 1
vn 0.99146777391433716 0.1303519606590271 0
vn 0.92383980751037598 0.38277938961982727 0
vn 0.99146777391433716 0.1303519606590271 0
vn 0.92383980751037598 0.38277938961982727 0
vn -0.99146777391433716 0.1303519606590271 0
vn -0.92383980751037598 0.38277938961982727 0
vn -0.99146777391433716 0.1303519606590271 0
vn 0 0 1
vn -0.92383980751037598 0.38277938961982727 0
vn 0 0 1
vn 0.92383980751037598 0.38277938961982727 0
vn 0.79343682527542114 0.60865259170532227 0
vn 0.92383980751037598 0.38277938961982727 0
vn 0.79343682527542114 0.60865259170532227 0
vn -0.92383980751037598 0.38277938961982727 0
vn -0.79343682527542114 0.60865259170532227 0
vn -0.92383980751037598 0.38277938961982727 0
vn 0 0 1
vn -0.79343682527542114 0.60865259170532227 0
vn 0 0 1
vn 0.79343682527542114 0.60865259170532227 0
vn 0.60867118835449219 0.79342257976531982 0
vn 0.79343682527542114 0.60865259170532227 0
vn 0.60867118835449219 0.79342257976531982 0
vn -0.79343682527542114 0.60865259170532227 0
vn -0.60867118835449219 0.79342257976531982 0
vn -0.79343682527542114 0.60865259170532227 0
vn 0 0 1
vn -0.60867118835449219 0.79342257976531982 0
vn 0 0 1
vn 0.60867118835449219 0.79342257976531982 0
vn 0.38270938396453857 0.92386877536773682 0
vn 0.60867118835449219 0.79342257976531982 0
vn 0.38270938396453857 0.92386877536773682 0
vn -0.60867118835449219 0.79342257976531982 0
vn -0.38270938396453857 0.92386877536773682 0
vn 0 0 1
vn -0.60867118835449219 0.79342257976531982 0
vn -0.38270938396453857 0.92386877536773682 0
vn 0 0 1
vn 0.38270938396453857 0.92386877536773682 0
vn 0.13051193952560425 0.99144673347473145 0
vn 0.38270938396453857 0.92386877536773682 0
vn 0.13051193952560425 0.99144673347473145 0
vn -0.38270938396453857 0.92386877536773682 0
vn -0.13051193952560425 0.99144673347473145 0
vn 0 0 1
vn -0.38270938396453857 0.92386877536773682 0
vn -0.13051193952560425 0.99144673347473145 0
vn 0 0 1
vn 0.13051193952560425 0.99144673347473145 0
vn -0.13051193952560425 0.99144673347473145 0
vn 0.13051193952560425 0.99144673347473145 0
vn -0.13051193952560425 0.99144673347473145 0
vn 0 0 -1
vn 0 0 -1
vn 0 0 -1
vn 0 0 -1
vn 0 0 -1
vn 0 0 -1
vn 0 0 -1
vn 0 0 -1
vn 0 0 -1
vn 0 0 -1
vn 0 0 -1
vn 0 0 -1
vn 0 0 -1
vn 0 0 -1
vn 0 0 -1
vn 0 0 -1
vn 0 0 -1
vn 0 0 -1
vn 0 0 -1
vn 0 0 -1
vn 0 0 -1
vn 0 0 -1
vn 0 0 -1
vn 0 0 -1
f 1/1/1 4/4/4 6/6/6
f 4/4/4 1/1/1 8/8/8
f 11/11/11 9/9/9 2/2/2
f 14/14/14 9/9/9 11/11/11
f 14/14/14 17/17/17 9/9/9
f 20/20/20 17/17/17 14/14/14
f 20/20/20 23/23/23 17/17/17
f 26/26/26 23/23/23 20/20/20
f 26/26/26 29/29/29 23/23/23
f 29/29/29 26/26/26 32/32/32
f 27/27/27 35/35/35 33/33/33
f 35/35/35 27/27/27 37/37/37
f 28/28/28 39/39/39 38/38/38
f 39/39/39 28/28/28 21/21/21
f 15/15/15 40/40/40 22/22/22
f 40/40/40 15/15/15 41/41/41
f 12/12/12 42/42/42 16/16/16
f 42/42/42 12/12/12 43/43/43
f 13/13/13 45/45/45 44/44/44
f 45/45/45 13/13/13 47/47/47
f 11/11/11 2/2/2 48/48/48
f 48/48/48 2/2/2 50/50/50
f 7/7/7 51/51/51 3/3/3
f 51/51/51 7/7/7 53/53/53
f 61/61/61 34/34/34 36/36/36
f 34/34/34 61/61/61 30/30/30
f 59/59/59 31/31/31 62/62/62
f 31/31/31 59/59/59 24/24/24
f 57/57/57 25/25/25 60/60/60
f 25/25/25 57/57/57 18/18/18
f 58/58/58 10/10/10 19/19/19
f 10/10/10 58/58/58 5/5/5
f 49/49/49 55/55/55 46/46/46
f 55/55/55 49/49/49 63/63/63
f 48/48/48 50/50/50 64/64/64
f 64/64/64 50/50/50 66/66/66
f 54/54/54 67/67/67 52/52/52
f 67/67/67 54/54/54 69/69/69
f 65/65/65 71/71/71 56/56/56
f 71/71/71 65/65/65 73/73/73
f 64/64/64 66/66/66 74/74/74
f 74/74/74 66/66/66 76/76/76
f 68/68/68 79/79/79 77/77/77
f 79/79/79 68/68/68 70/70/70
f 72/72/72 83/83/83 81/81/81
f 83/83/83 72/72/72 75/75/75
f 74/74/74 76/76/76 84/84/84
f 84/84/84 76/76/76 86/86/86
f 80/80/80 87/87/87 78/78/78
f 87/87/87 80/80/80 89/89/89
f 85/85/85 91/91/91 82/82/82
f 91/91/91 85/85/85 93/93/93
f 84/84/84 86/86/86 94/94/94
f 94/94/94 86/86/86 96/96/96
f 88/88/88 99/99/99 97/97/97
f 99/99/99 88/88/88 90/90/90
f 95/95/95 101/101/101 92/92/92
f 101/101/101 95/95/95 104/104/104
f 94/94/94 96/96/96 103/103/103
f 103/103/103 96/96/96 106/106/106
f 98/98/98 109/109/109 107/107/107
f 109/109/109 98/98/98 100/100/100
f 102/102/102 114/114/114 111/111/111
f 114/114/114 102/102/102 105/105/105
f 103/103/103 106/106/106 113/113/113
f 113/113/113 106/106/106 116/116/116
f 108/108/108 119/119/119 117/117/117
f 119/119/119 108/108/108 110/110/110
f 112/112/112 118/118/118 120/120/120
f 118/118/118 112/112/112 115/115/115
f 122/122/122 130/130/130 129/129/129
f 122/122/122 128/128/128 130/130/130
f 121/121/121 128/128/128 122/122/122
f 121/121/121 127/127/127 128/128/128
f 131/131/131 127/127/127 121/121/121
f 131/131/131 126/126/126 127/127/127
f 131/131/131 125/125/125 126/126/126
f 132/132/132 125/125/125 131/131/131
f 133/133/133 125/125/125 132/132/132
f 133/133/133 124/124/124 125/125/125
f 124/124/124 133/133/133 123/123/123
f 129/129/129 135/135/135 134/134/134
f 129/129/129 130/130/130 135/135/135
f 134/134/134 137/137/137 136/136/136
f 134/134/134 135/135/135 137/137/137
f 136/136/136 137/137/137 138/138/138
f 138/138/138 137/137/137 139/139/139
f 138/138/138 141/141/141 140/140/140
f 138/138/138 139/139/139 141/141/141
f 140/140/140 143/143/143 142/142/142
f 140/140/140 141/141/141 143/143/143
f 142/142/142 143/143/143 144/144/144
