# Rhino

v 0.36986791702799998 -0.159128720132 -0.0074482343995700001
v 0.36986791702799998 -0.159128720132 -0.0074482343995700001
v 0.36986791702799998 -0.159128720132 -0.0074482343995700001
v 0.0067714348992300001 -0.159128720132 0.00582288363001
v 0.0067714348992300001 -0.159128720132 0.00582288363001
v 0.0067714348992300001 -0.159128720132 0.00582288363001
v 0.0067714348992300001 -0.159128720132 -0.0074482343995700001
v 0.0067714348992300001 -0.159128720132 -0.0074482343995700001
v 0.0067714348992300001 -0.159128720132 -0.0074482343995700001
v 0.36986791702799998 -0.159128720132 0.00582288363001
v 0.36986791702799998 -0.159128720132 0.00582288363001
v 0.36986791702799998 -0.159128720132 0.00582288363001
v 0.36986791702799998 -0.133397267515 0.00582288363001
v 0.36986791702799998 -0.133397267515 0.00582288363001
v 0.36986791702799998 -0.133397267515 0.00582288363001
v 0.36986791702799998 -0.133397267515 -0.0074482343995700001
v 0.36986791702799998 -0.133397267515 -0.0074482343995700001
v 0.36986791702799998 -0.133397267515 -0.0074482343995700001
v 0.0067714348992300001 -0.133397267515 -0.0074482343995700001
v 0.0067714348992300001 -0.133397267515 -0.0074482343995700001
v 0.0067714348992300001 -0.133397267515 -0.0074482343995700001
v 0.0067714348992300001 -0.159128720132 -0.15561314661600001
v 0.0067714348992300001 -0.159128720132 -0.15561314661600001
v 0.0067714348992300001 -0.159128720132 -0.15561314661600001
v 0.0067714348992300001 -0.133397267515 -0.15561314661600001
v 0.0067714348992300001 -0.133397267515 -0.15561314661600001
v 0.0067714348992300001 -0.133397267515 -0.15561314661600001
v -0.0067714348992300001 -0.133397267515 -0.15561314661600001
v -0.0067714348992300001 -0.133397267515 -0.15561314661600001
v -0.0067714348992300001 -0.133397267515 -0.15561314661600001
v -0.0067714348992300001 -0.159128720132 -0.15561314661600001
v -0.0067714348992300001 -0.159128720132 -0.15561314661600001
v -0.0067714348992300001 -0.159128720132 -0.15561314661600001
v -0.0067714348992300001 -0.159128720132 -0.0074482343995700001
v -0.0067714348992300001 -0.159128720132 -0.0074482343995700001
v -0.0067714348992300001 -0.159128720132 -0.0074482343995700001
v -0.0067714348992300001 -0.159128720132 0.00582288363001
v -0.0067714348992300001 -0.159128720132 0.00582288363001
v -0.0067714348992300001 -0.159128720132 0.00582288363001
v -0.0067714348992300001 -0.159128720132 0.15561314661600001
v -0.0067714348992300001 -0.159128720132 0.15561314661600001
v -0.0067714348992300001 -0.159128720132 0.15561314661600001
v 0.0067714348992300001 -0.159128720132 0.15561314661600001
v 0.0067714348992300001 -0.159128720132 0.15561314661600001
v 0.0067714348992300001 -0.159128720132 0.15561314661600001
v 0.0067714348992300001 -0.133397267515 0.15561314661600001
v 0.0067714348992300001 -0.133397267515 0.15561314661600001
v 0.0067714348992300001 -0.133397267515 0.15561314661600001
v 0.0067714348992300001 -0.133397267515 0.00582288363001
v 0.0067714348992300001 -0.133397267515 0.00582288363001
v 0.0067714348992300001 -0.133397267515 0.00582288363001
v -0.0067714348992300001 -0.133397267515 -0.0074482343995700001
v -0.0067714348992300001 -0.133397267515 -0.0074482343995700001
v -0.0067714348992300001 -0.133397267515 -0.0074482343995700001
v -0.0067714348992300001 -0.133397267515 0.00582288363001
v -0.0067714348992300001 -0.133397267515 0.00582288363001
v -0.0067714348992300001 -0.133397267515 0.00582288363001
v -0.0067714348992300001 -0.133397267515 0.15561314661600001
v -0.0067714348992300001 -0.133397267515 0.15561314661600001
v -0.0067714348992300001 -0.133397267515 0.15561314661600001
v -0.36986791702799998 -0.159128720132 0.00582288363001
v -0.36986791702799998 -0.159128720132 0.00582288363001
v -0.36986791702799998 -0.159128720132 0.00582288363001
v -0.36986791702799998 -0.133397267515 0.00582288363001
v -0.36986791702799998 -0.133397267515 0.00582288363001
v -0.36986791702799998 -0.133397267515 0.00582288363001
v -0.36986791702799998 -0.133397267515 -0.0074482343995700001
v -0.36986791702799998 -0.133397267515 -0.0074482343995700001
v -0.36986791702799998 -0.133397267515 -0.0074482343995700001
v -0.36986791702799998 -0.159128720132 -0.0074482343995700001
v -0.36986791702799998 -0.159128720132 -0.0074482343995700001
v -0.36986791702799998 -0.159128720132 -0.0074482343995700001
vt -5.4621801376342773 0.85566198825836182
vt 1.2040400505065918 0
vt -5.4621801376342773 0
vt -2.7810900211334229 0.78601700067520142
vt 1.1060400009155273 0
vt 2.7810900211334229 0
vt -2.7810900211334229 0.85566198825836182
vt 1.2040400505065918 0
vt -2.7810900211334229 0
vt -5.4621801376342773 0.78601700067520142
vt 1.1060400009155273 0
vt 5.4621801376342773 0
vt 1.1060400009155273 0.13502499461174011
vt 5.4621801376342773 0.13502499461174011
vt 5.4621801376342773 0.78601700067520142
vt 1.2040400505065918 0.13502499461174011
vt -5.4621801376342773 0.13502499461174011
vt 5.4621801376342773 0.85566198825836182
vt 1.2040400505065918 0.13502499461174011
vt -2.7810900211334229 0.13502499461174011
vt 2.7810900211334229 0.85566198825836182
vt -2.7810900211334229 0
vt 2.2980799674987793 0
vt -2.7810900211334229 1.6331499814987183
vt -2.7810900211334229 0.13502499461174011
vt 2.2980799674987793 0.13502499461174011
vt 2.7810900211334229 1.6331499814987183
vt -2.6810901165008545 0.13502499461174011
vt 2.6810901165008545 1.6331499814987183
vt -2.2980799674987793 0.13502499461174011
vt -2.6810901165008545 0
vt -2.6810901165008545 1.6331499814987183
vt -2.2980799674987793 0
vt -2.6810901165008545 0
vt -2.6810901165008545 0.85566198825836182
vt -1.2040400505065918 0
vt -2.6810901165008545 0.78601700067520142
vt 2.6810901165008545 0
vt -1.1060400009155273 0
vt -2.6810901165008545 0
vt 0 0
vt 2.6810901165008545 0
vt -2.7810900211334229 0
vt 0 0
vt 2.7810900211334229 0
vt 0 0.13502499461174011
vt 2.7810900211334229 0
vt 2.7810900211334229 0.13502499461174011
vt 1.1060400009155273 0.13502499461174011
vt 2.7810900211334229 0.13502499461174011
vt 2.7810900211334229 0.78601700067520142
vt -2.6810901165008545 0.13502499461174011
vt 2.6810901165008545 0.85566198825836182
vt -1.2040400505065918 0.13502499461174011
vt 2.6810901165008545 0.78601700067520142
vt -1.1060400009155273 0.13502499461174011
vt 2.6810901165008545 0.13502499461174011
vt 0 0.13502499461174011
vt 2.6810901165008545 0
vt 2.6810901165008545 0.13502499461174011
vt 0 0
vt -1.1060400009155273 0
vt 0 0.78601700067520142
vt 0 0.13502499461174011
vt -1.1060400009155273 0.13502499461174011
vt 0 0.78601700067520142
vt 0 0.13502499461174011
vt 0 0.85566198825836182
vt -1.2040400505065918 0.13502499461174011
vt 0 0
vt 0 0.85566198825836182
vt -1.2040400505065918 0
vn 0 -1 0
vn 1 0 0
vn 0 0 -1
vn 0 -1 0
vn 1 0 0
vn 0 0 1
vn 0 -1 0
vn 1 0 0
vn 0 0 -1
vn 0 -1 0
vn 1 0 0
vn 0 0 1
vn 1 0 0
vn 0 0 1
vn 0 1 0
vn 1 0 0
vn 0 0 -1
vn 0 1 0
vn 1 0 0
vn 0 0 -1
vn 0 1 0
vn 0 0 -1
vn 1 0 0
vn 0 -1 0
vn 0 0 -1
vn 1 0 0
vn 0 1 0
vn 0 0 -1
vn 0 1 0
vn -1 0 0
vn 0 0 -1
vn 0 -1 0
vn -1 0 0
vn 0 0 -1
vn 0 -1 0
vn -1 0 0
vn 0 -1 0
vn 0 0 1
vn -1 0 0
vn 0 -1 0
vn -1 0 0
vn 0 0 1
vn 0 -1 0
vn 1 0 0
vn 0 0 1
vn 1 0 0
vn 0 1 0
vn 0 0 1
vn 1 0 0
vn 0 0 1
vn 0 1 0
vn 0 0 -1
vn 0 1 0
vn -1 0 0
vn 0 1 0
vn -1 0 0
vn 0 0 1
vn -1 0 0
vn 0 1 0
vn 0 0 1
vn 0 0 1
vn -1 0 0
vn 0 -1 0
vn 0 0 1
vn -1 0 0
vn 0 1 0
vn 0 0 -1
vn 0 1 0
vn -1 0 0
vn 0 0 -1
vn 0 -1 0
vn -1 0 0
f 1/1/1 4/4/4 7/7/7
f 4/4/4 1/1/1 10/10/10
f 2/2/2 13/13/13 11/11/11
f 13/13/13 2/2/2 16/16/16
f 3/3/3 20/20/20 17/17/17
f 20/20/20 3/3/3 9/9/9
f 23/23/23 19/19/19 8/8/8
f 19/19/19 23/23/23 26/26/26
f 22/22/22 28/28/28 25/25/25
f 28/28/28 22/22/22 31/31/31
f 24/24/24 35/35/35 32/32/32
f 35/35/35 24/24/24 37/37/37
f 37/37/37 24/24/24 40/40/40
f 40/40/40 24/24/24 43/43/43
f 43/43/43 24/24/24 7/7/7
f 43/43/43 7/7/7 4/4/4
f 5/5/5 46/46/46 44/44/44
f 46/46/46 5/5/5 49/49/49
f 6/6/6 14/14/14 50/50/50
f 14/14/14 6/6/6 12/12/12
f 15/15/15 21/21/21 51/51/51
f 21/21/21 15/15/15 18/18/18
f 27/27/27 51/51/51 21/21/21
f 27/27/27 47/47/47 51/51/51
f 29/29/29 47/47/47 27/27/27
f 53/53/53 47/47/47 29/29/29
f 55/55/55 47/47/47 53/53/53
f 47/47/47 55/55/55 59/59/59
f 56/56/56 41/41/41 58/58/58
f 41/41/41 56/56/56 39/39/39
f 57/57/57 61/61/61 38/38/38
f 61/61/61 57/57/57 64/64/64
f 55/55/55 68/68/68 66/66/66
f 68/68/68 55/55/55 53/53/53
f 34/34/34 67/67/67 52/52/52
f 67/67/67 34/34/34 70/70/70
f 35/35/35 63/63/63 71/71/71
f 63/63/63 35/35/35 37/37/37
f 62/62/62 69/69/69 72/72/72
f 69/69/69 62/62/62 65/65/65
f 30/30/30 36/36/36 54/54/54
f 36/36/36 30/30/30 33/33/33
f 42/42/42 48/48/48 60/60/60
f 48/48/48 42/42/42 45/45/45
