# Rhino

v -0.27164506729900001 0.209556951523 0.13468169915299999
v -0.27164506729900001 0.209556951523 0.13468169915299999
v -0.27164506729900001 0.209556951523 0.13468169915299999
v 0.27164506729900001 0.209556951523 0.181729224262
v 0.27164506729900001 0.209556951523 0.181729224262
v 0.27164506729900001 0.209556951523 0.181729224262
v -0.27164506729900001 0.209556951523 0.181729224262
v -0.27164506729900001 0.209556951523 0.181729224262
v -0.27164506729900001 0.209556951523 0.181729224262
v 0.27164506729900001 0.209556951523 0.13468169915299999
v 0.27164506729900001 0.209556951523 0.13468169915299999
v 0.27164506729900001 0.209556951523 0.13468169915299999
v 0.27164506729900001 0.30305880859399997 0.13468169915299999
v 0.27164506729900001 0.30305880859399997 0.13468169915299999
v 0.27164506729900001 0.30305880859399997 0.13468169915299999
v -0.27164506729900001 0.30305880859399997 0.13468169915299999
v -0.27164506729900001 0.30305880859399997 0.13468169915299999
v -0.27164506729900001 0.30305880859399997 0.13468169915299999
v -0.27164506729900001 0.30305880859399997 0.181729224262
v -0.27164506729900001 0.30305880859399997 0.181729224262
v -0.27164506729900001 0.30305880859399997 0.181729224262
v 0.27164506729900001 0.30305880859399997 0.181729224262
v 0.27164506729900001 0.30305880859399997 0.181729224262
v 0.27164506729900001 0.30305880859399997 0.181729224262
vt -0.1968500018119812 2.1795299053192139
vt -0.1968500018119812 0
vt -2.1795299053192139 0
vt -25.365400314331055 0
vt 25.365400314331055 0
vt 0 0
vt -0.1968500018119812 0
vt 0 0
vt 0.1968500018119812 0
vt -25.365400314331055 2.1795299053192139
vt -25.365400314331055 0
vt 2.1795299053192139 0
vt -25.365400314331055 5.3476099967956543
vt 2.1795299053192139 5.3476099967956543
vt 25.365400314331055 2.1795299053192139
vt -0.1968500018119812 5.3476099967956543
vt -2.1795299053192139 5.3476099967956543
vt 0.1968500018119812 2.1795299053192139
vt 0 5.3476099967956543
vt 0.1968500018119812 5.3476099967956543
vt 0.1968500018119812 0
vt 25.365400314331055 5.3476099967956543
vt 0 5.3476099967956543
vt 25.365400314331055 0
vn 0 -1 0
vn 0 0 -1
vn -1 0 0
vn 0 -1 0
vn 0 0 1
vn 1 0 0
vn 0 -1 0
vn -1 0 0
vn 0 0 1
vn 0 -1 0
vn 0 0 -1
vn 1 0 0
vn 0 0 -1
vn 1 0 0
vn 0 1 0
vn 0 0 -1
vn -1 0 0
vn 0 1 0
vn -1 0 0
vn 0 0 1
vn 0 1 0
vn 0 0 1
vn 1 0 0
vn 0 1 0
f 1/1/1 4/4/4 7/7/7
f 4/4/4 1/1/1 10/10/10
f 2/2/2 13/13/13 11/11/11
f 13/13/13 2/2/2 16/16/16
f 8/8/8 17/17/17 3/3/3
f 17/17/17 8/8/8 19/19/19
f 9/9/9 22/22/22 20/20/20
f 22/22/22 9/9/9 5/5/5
f 12/12/12 23/23/23 6/6/6
f 23/23/23 12/12/12 14/14/14
f 18/18/18 24/24/24 15/15/15
f 24/24/24 18/18/18 21/21/21
