# Rhino

v -0.34722484201999998 -0.231619166066 0.014769056136799999
v -0.34722484201999998 -0.231619166066 0.014769056136799999
v -0.29174058651099999 -0.231619166066 -0.0029554635130899999
v -0.29174058651099999 -0.231619166066 0.014769056136799999
v -0.29174058651099999 -0.231619166066 0.014769056136799999
v -0.29174058651099999 -0.231619166066 -0.020679983163000001
v -0.29174058651099999 -0.231619166066 -0.020679983163000001
v -0.32240300412 -0.231619166066 -0.020679983163000001
v -0.34722484201999998 -0.231619166066 -0.020679983163000001
v -0.34722484201999998 -0.231619166066 -0.020679983163000001
v -0.34722484201999998 -0.231619166066 -0.0029554635130899999
v -0.37934928215399999 0.210775331235 0.014769056136799999
v -0.37934928215399999 0.210775331235 0.014769056136799999
v -0.37934928215399999 0.210775331235 0.014769056136799999
v -0.37934928215399999 0.210775331235 -0.020679983163000001
v -0.37934928215399999 0.210775331235 -0.020679983163000001
v -0.37934928215399999 0.210775331235 -0.020679983163000001
v -0.29174058651099999 0.17371406161700001 -0.020679983163000001
v -0.29174058651099999 0.17371406161700001 -0.020679983163000001
v -0.29174058651099999 0.210775331235 -0.020679983163000001
v -0.29174058651099999 0.210775331235 -0.020679983163000001
v -0.29174058651099999 0.210775331235 -0.020679983163000001
v -0.34860925718399999 0.210775331235 -0.0115148042875
v -0.34860925718399999 0.210775331235 -0.0115148042875
v -0.34649633422100001 0.210775331235 -0.010628578305000001
v -0.34649633422100001 0.210775331235 -0.010628578305000001
v -0.29174058651099999 0.210775331235 0.014769056136799999
v -0.29174058651099999 0.210775331235 0.014769056136799999
v -0.29174058651099999 0.210775331235 0.014769056136799999
v -0.34468132338000002 0.210775331235 -0.0092216319712600005
v -0.34468132338000002 0.210775331235 -0.0092216319712600005
v -0.34468132338000002 0.210775331235 0.0033132084082799999
v -0.34468132338000002 0.210775331235 0.0033132084082799999
v -0.34328939782599999 0.210775331235 0.00147566639938
v -0.34328939782599999 0.210775331235 0.00147566639938
v -0.34328939782599999 0.210775331235 -0.0073865934255800004
v -0.34328939782599999 0.210775331235 -0.0073865934255800004
v -0.34241318569599999 0.210775331235 -0.000659787733578
v -0.34241318569599999 0.210775331235 -0.000659787733578
v -0.34241318569599999 0.210775331235 -0.0052486358293800002
v -0.34241318569599999 0.210775331235 -0.0052486358293800002
v -0.34211527357299998 0.210775331235 -0.0029554635130899999
v -0.34211527357299998 0.210775331235 -0.0029554635130899999
v -0.34649633422100001 0.210775331235 0.0047201547420799997
v -0.34649633422100001 0.210775331235 0.0047201547420799997
v -0.34860925718399999 0.210775331235 0.0056063807245699997
v -0.34860925718399999 0.210775331235 0.0056063807245699997
v -0.35087739486800001 0.210775331235 0.0059067963118600002
v -0.35087739486800001 0.210775331235 0.0059067963118600002
v -0.35087739486800001 0.210775331235 -0.011817723338
v -0.35087739486800001 0.210775331235 -0.011817723338
v -0.35314302908900003 0.210775331235 -0.0115148042875
v -0.35314302908900003 0.210775331235 -0.0115148042875
v -0.35525595205299998 0.210775331235 -0.010628578305000001
v -0.35525595205299998 0.210775331235 -0.010628578305000001
v -0.357070962893 0.210775331235 -0.0092216319712600005
v -0.357070962893 0.210775331235 -0.0092216319712600005
v -0.35846288844700003 0.210775331235 -0.0073865934255800004
v -0.35846288844700003 0.210775331235 -0.0073865934255800004
v -0.35933910057700003 0.210775331235 -0.0052486358293800002
v -0.35933910057700003 0.210775331235 -0.0052486358293800002
v -0.35963701270100001 0.210775331235 -0.0029554635130899999
v -0.35963701270100001 0.210775331235 -0.0029554635130899999
v -0.35933910057700003 0.210775331235 -0.000659787733578
v -0.35933910057700003 0.210775331235 -0.000659787733578
v -0.35846288844700003 0.210775331235 0.00147566639938
v -0.35846288844700003 0.210775331235 0.00147566639938
v -0.357070962893 0.210775331235 0.0033132084082799999
v -0.357070962893 0.210775331235 0.0033132084082799999
v -0.35525595205299998 0.210775331235 0.0047201547420799997
v -0.35525595205299998 0.210775331235 0.0047201547420799997
v -0.35314302908900003 0.210775331235 0.0056063807245699997
v -0.35314302908900003 0.210775331235 0.0056063807245699997
v -0.29174058651099999 0.17371406161700001 0.014769056136799999
v -0.29174058651099999 0.17371406161700001 0.014769056136799999
vt 0.16440899670124054 0.28047698736190796
vt 1.9633899927139282 0.33425500988960266
vt -0.16778400540351868 0.28690001368522644
vt 1.9598300457000732 0.33425500988960266
vt -0.16890799999237061 0.28690001368522644
vt -0.16665899753570557 0.28690001368522644
vt -1.9598300457000732 0.33425500988960266
vt -1.9617899656295776 0.33425500988960266
vt 0.16665899753570557 0.28047698736190796
vt -1.9633899927139282 0.33425500988960266
vt 0.16553400456905365 0.28047698736190796
vt 0.16440899670124054 0.24227799475193024
vt -0.16440899670124054 -1.3967700004577637
vt 1.9654500484466553 0.29608398675918579
vt 0.16665899753570557 0.24227799475193024
vt -1.9654500484466553 0.29608398675918579
vt -0.16665899753570557 -1.3967700004577637
vt -1.9598300457000732 0.2992820143699646
vt -0.16665899753570557 0.3218739926815033
vt -1.9598300457000732 0.29608398675918579
vt -0.16665899753570557 -1.3927700519561768
vt -0.16665899753570557 0.32507100701332092
vt -0.16607700288295746 -1.395359992980957
vt -0.16607700288295746 -1.395359992980957
vt -0.16602100431919098 -1.3952699899673462
vt -0.16602100431919098 -1.3952699899673462
vt -0.16440899670124054 -1.3927700519561768
vt 1.9598300457000732 0.29608398675918579
vt -0.16890799999237061 0.32507100701332092
vt -0.16593199968338013 -1.3951799869537354
vt -0.16593199968338013 -1.3951799869537354
vt -0.16513599455356598 -1.3951799869537354
vt -0.16513599455356598 -1.3951799869537354
vt -0.16525299847126007 -1.3951200246810913
vt -0.16525299847126007 -1.3951200246810913
vt -0.16581499576568604 -1.3951200246810913
vt -0.16581499576568604 -1.3951200246810913
vt -0.16538800299167633 -1.3950799703598022
vt -0.16538800299167633 -1.3950799703598022
vt -0.16567899286746979 -1.3950799703598022
vt -0.16567899286746979 -1.3950799703598022
vt -0.16553400456905365 -1.39506995677948
vt -0.16553400456905365 -1.39506995677948
vt -0.16504700481891632 -1.3952699899673462
vt -0.16504700481891632 -1.3952699899673462
vt -0.16499100625514984 -1.395359992980957
vt -0.16499100625514984 -1.395359992980957
vt -0.1649709939956665 -1.3954700231552124
vt -0.1649709939956665 -1.3954700231552124
vt -0.16609600186347961 -1.3954700231552124
vt -0.16609600186347961 -1.3954700231552124
vt -0.16607700288295746 -1.3955700397491455
vt -0.16607700288295746 -1.3955700397491455
vt -0.16602100431919098 -1.3956700563430786
vt -0.16602100431919098 -1.3956700563430786
vt -0.16593199968338013 -1.3957500457763672
vt -0.16593199968338013 -1.3957500457763672
vt -0.16581499576568604 -1.3958100080490112
vt -0.16581499576568604 -1.3958100080490112
vt -0.16567899286746979 -1.3958499431610107
vt -0.16567899286746979 -1.3958499431610107
vt -0.16553400456905365 -1.3958699703216553
vt -0.16553400456905365 -1.3958699703216553
vt -0.16538800299167633 -1.3958499431610107
vt -0.16538800299167633 -1.3958499431610107
vt -0.16525299847126007 -1.3958100080490112
vt -0.16525299847126007 -1.3958100080490112
vt -0.16513599455356598 -1.3957500457763672
vt -0.16513599455356598 -1.3957500457763672
vt -0.16504700481891632 -1.3956700563430786
vt -0.16504700481891632 -1.3956700563430786
vt -0.16499100625514984 -1.3955700397491455
vt -0.16499100625514984 -1.3955700397491455
vt 1.9598300457000732 0.2992820143699646
vt -0.16890799999237061 0.3218739926815033
vn -0.99737393856048584 -0.072424225509166718 0
vn 0 0 1
vn 1 0 0
vn 0 0 1
vn 1 0 0
vn 1 0 0
vn 0 0 -1
vn 0 0 -1
vn -0.99737393856048584 -0.072424225509166718 0
vn 0 0 -1
vn -0.99737393856048584 -0.072424225509166718 0
vn -0.99737393856048584 -0.072424225509166718 0
vn 0 1 0
vn 0 0 1
vn -0.99737393856048584 -0.072424225509166718 0
vn 0 0 -1
vn 0 1 0
vn 0 0 -1
vn 0 0 1
vn 0 0 -1
vn 0 1 0
vn 1 0 0
vn 0 1 0
vn 0 1 0
vn 0 1 0
vn 0 1 0
vn 0 1 0
vn 0 0 1
vn 1 0 0
vn 0 1 0
vn 0 1 0
vn 0 1 0
vn 0 1 0
vn 0 1 0
vn 0 1 0
vn 0 1 0
vn 0 1 0
vn 0 1 0
vn 0 1 0
vn 0 1 0
vn 0 1 0
vn 0 1 0
vn 0 1 0
vn 0 1 0
vn 0 1 0
vn 0 1 0
vn 0 1 0
vn 0 1 0
vn 0 1 0
vn 0 1 0
vn 0 1 0
vn 0 1 0
vn 0 1 0
vn 0 1 0
vn 0 1 0
vn 0 1 0
vn 0 1 0
vn 0 1 0
vn 0 1 0
vn 0 1 0
vn 0 1 0
vn 0 1 0
vn 0 1 0
vn 0 1 0
vn 0 1 0
vn 0 1 0
vn 0 1 0
vn 0 1 0
vn 0 1 0
vn 0 1 0
vn 0 1 0
vn 0 1 0
vn 0 1 0
vn 0 0 1
vn 1 0 0
f 12/12/12 11/11/11 1/1/1
f 15/15/15 11/11/11 12/12/12
f 11/11/11 15/15/15 9/9/9
f 16/16/16 8/8/8 10/10/10
f 8/8/8 16/16/16 18/18/18
f 18/18/18 16/16/16 20/20/20
f 23/23/23 21/21/21 17/17/17
f 25/25/25 21/21/21 23/23/23
f 21/21/21 25/25/25 27/27/27
f 27/27/27 25/25/25 30/30/30
f 32/32/32 31/31/31 26/26/26
f 34/34/34 31/31/31 32/32/32
f 34/34/34 36/36/36 31/31/31
f 38/38/38 36/36/36 34/34/34
f 38/38/38 40/40/40 36/36/36
f 40/40/40 38/38/38 42/42/42
f 39/39/39 27/27/27 43/43/43
f 35/35/35 27/27/27 39/39/39
f 33/33/33 27/27/27 35/35/35
f 44/44/44 27/27/27 33/33/33
f 46/46/46 27/27/27 44/44/44
f 27/27/27 46/46/46 13/13/13
f 13/13/13 46/46/46 48/48/48
f 47/47/47 50/50/50 49/49/49
f 47/47/47 24/24/24 50/50/50
f 45/45/45 24/24/24 47/47/47
f 45/45/45 26/26/26 24/24/24
f 32/32/32 26/26/26 45/45/45
f 23/23/23 17/17/17 51/51/51
f 51/51/51 17/17/17 52/52/52
f 52/52/52 17/17/17 54/54/54
f 54/54/54 17/17/17 56/56/56
f 56/56/56 17/17/17 58/58/58
f 58/58/58 17/17/17 60/60/60
f 60/60/60 17/17/17 62/62/62
f 13/13/13 62/62/62 17/17/17
f 13/13/13 64/64/64 62/62/62
f 13/13/13 66/66/66 64/64/64
f 13/13/13 68/68/68 66/66/66
f 13/13/13 70/70/70 68/68/68
f 13/13/13 72/72/72 70/70/70
f 13/13/13 48/48/48 72/72/72
f 49/49/49 53/53/53 73/73/73
f 49/49/49 50/50/50 53/53/53
f 73/73/73 53/53/53 55/55/55
f 73/73/73 55/55/55 71/71/71
f 71/71/71 55/55/55 57/57/57
f 71/71/71 57/57/57 69/69/69
f 69/69/69 57/57/57 59/59/59
f 69/69/69 59/59/59 67/67/67
f 67/67/67 59/59/59 61/61/61
f 67/67/67 61/61/61 65/65/65
f 65/65/65 61/61/61 63/63/63
f 14/14/14 74/74/74 28/28/28
f 14/14/14 4/4/4 74/74/74
f 4/4/4 14/14/14 2/2/2
f 5/5/5 3/3/3 75/75/75
f 3/3/3 29/29/29 75/75/75
f 3/3/3 22/22/22 29/29/29
f 6/6/6 22/22/22 3/3/3
f 22/22/22 6/6/6 19/19/19
f 18/18/18 7/7/7 8/8/8
f 27/27/27 41/41/41 43/43/43
f 27/27/27 37/37/37 41/41/41
f 27/27/27 30/30/30 37/37/37
