# Rhino

v -0.45785013212499998 0.14480843388100001 -0.057835828204000003
v -0.45785013212499998 0.14480843388100001 -0.057835828204000003
v -0.45785013212499998 0.14480843388100001 -0.057835828204000003
v -0.45785013212499998 0.14480843388100001 0.057834108256000001
v -0.45785013212499998 0.14480843388100001 0.057834108256000001
v -0.45785013212499998 0.14480843388100001 0.057834108256000001
v -0.47400216289399999 0.14480843388100001 -8.5997395208800003E-07
v -0.47400216289399999 0.14480843388100001 -8.5997395208800003E-07
v -0.47400216289399999 0.14480843388100001 -8.5997395208800003E-07
v -0.410496526423 0.14480843388100001 -0.111728675838
v -0.410496526423 0.14480843388100001 -0.111728675838
v -0.410496526423 0.14480843388100001 -0.111728675838
v -0.410496526423 0.159128720132 -0.111728675838
v -0.410496526423 0.159128720132 -0.111728675838
v -0.410496526423 0.159128720132 -0.111728675838
v -0.45785013212499998 0.159128720132 -0.057835828204000003
v -0.45785013212499998 0.159128720132 -0.057835828204000003
v -0.45785013212499998 0.159128720132 -0.057835828204000003
v -0.47400216289399999 0.159128720132 -8.5997395208800003E-07
v -0.47400216289399999 0.159128720132 -8.5997395208800003E-07
v -0.47400216289399999 0.159128720132 -8.5997395208800003E-07
v -0.45785013212499998 0.159128720132 0.057834108256000001
v -0.45785013212499998 0.159128720132 0.057834108256000001
v -0.45785013212499998 0.159128720132 0.057834108256000001
v -0.410496526423 0.14480843388100001 0.111728675838
v -0.410496526423 0.14480843388100001 0.111728675838
v -0.410496526423 0.14480843388100001 0.111728675838
v -0.410496526423 0.159128720132 0.111728675838
v -0.410496526423 0.159128720132 0.111728675838
v -0.410496526423 0.159128720132 0.111728675838
v -0.33516968800699998 0.159128720132 0.15800731409800001
v -0.33516968800699998 0.159128720132 0.15800731409800001
v -0.33516968800699998 0.159128720132 0.15800731409800001
v -0.33516968800699998 0.14480843388100001 0.15800731409800001
v -0.33516968800699998 0.14480843388100001 0.15800731409800001
v -0.33516968800699998 0.14480843388100001 0.15800731409800001
v -0.33516968800699998 0.14480843388100001 -0.158009034046
v -0.33516968800699998 0.14480843388100001 -0.158009034046
v -0.33516968800699998 0.14480843388100001 -0.158009034046
v -0.33516968800699998 0.159128720132 -0.158009034046
v -0.33516968800699998 0.159128720132 -0.158009034046
v -0.33516968800699998 0.159128720132 -0.158009034046
v -0.23700022147300001 0.159128720132 0.19351907847899999
v -0.23700022147300001 0.159128720132 0.19351907847899999
v -0.23700022147300001 0.159128720132 0.19351907847899999
v -0.23700022147300001 0.14480843388100001 0.19351907847899999
v -0.23700022147300001 0.14480843388100001 0.19351907847899999
v -0.23700022147300001 0.14480843388100001 0.19351907847899999
v -0.23700022147300001 0.14480843388100001 -0.19352079842600001
v -0.23700022147300001 0.14480843388100001 -0.19352079842600001
v -0.23700022147300001 0.14480843388100001 -0.19352079842600001
v -0.23700022147300001 0.159128720132 -0.19352079842600001
v -0.23700022147300001 0.159128720132 -0.19352079842600001
v -0.23700022147300001 0.159128720132 -0.19352079842600001
v -0.122680444118 0.159128720132 0.21584400227600001
v -0.122680444118 0.159128720132 0.21584400227600001
v -0.122680444118 0.159128720132 0.21584400227600001
v -0.122680444118 0.14480843388100001 0.21584400227600001
v -0.122680444118 0.14480843388100001 0.21584400227600001
v -0.122680444118 0.14480843388100001 0.21584400227600001
v -0.122680444118 0.14480843388100001 -0.21584400227600001
v -0.122680444118 0.14480843388100001 -0.21584400227600001
v -0.122680444118 0.14480843388100001 -0.21584400227600001
v -0.122680444118 0.159128720132 -0.21584400227600001
v -0.122680444118 0.159128720132 -0.21584400227600001
v -0.122680444118 0.159128720132 -0.21584400227600001
v 0 0.159128720132 0.22345821164900001
v 0 0.159128720132 0.22345821164900001
v 0 0.14480843388100001 0.22345821164900001
v 0 0.14480843388100001 0.22345821164900001
v 0 0.14480843388100001 -0.22345821164900001
v 0 0.14480843388100001 -0.22345821164900001
v 0 0.14480843388100001 -0.22345821164900001
v 0 0.159128720132 -0.22345821164900001
v 0 0.159128720132 -0.22345821164900001
v 0 0.159128720132 -0.22345821164900001
v 0.122680444118 0.159128720132 0.21584400227600001
v 0.122680444118 0.159128720132 0.21584400227600001
v 0.122680444118 0.159128720132 0.21584400227600001
v 0.122680444118 0.14480843388100001 0.21584400227600001
v 0.122680444118 0.14480843388100001 0.21584400227600001
v 0.122680444118 0.14480843388100001 0.21584400227600001
v 0.122680444118 0.14480843388100001 -0.21584400227600001
v 0.122680444118 0.14480843388100001 -0.21584400227600001
v 0.122680444118 0.14480843388100001 -0.21584400227600001
v 0.122680444118 0.159128720132 -0.21584400227600001
v 0.122680444118 0.159128720132 -0.21584400227600001
v 0.122680444118 0.159128720132 -0.21584400227600001
v 0.23700022147300001 0.159128720132 0.19351907847899999
v 0.23700022147300001 0.159128720132 0.19351907847899999
v 0.23700022147300001 0.159128720132 0.19351907847899999
v 0.23700022147300001 0.14480843388100001 0.19351907847899999
v 0.23700022147300001 0.14480843388100001 0.19351907847899999
v 0.23700022147300001 0.14480843388100001 0.19351907847899999
v 0.23700022147300001 0.14480843388100001 -0.19352079842600001
v 0.23700022147300001 0.14480843388100001 -0.19352079842600001
v 0.23700022147300001 0.14480843388100001 -0.19352079842600001
v 0.23700022147300001 0.159128720132 -0.19352079842600001
v 0.23700022147300001 0.159128720132 -0.19352079842600001
v 0.23700022147300001 0.159128720132 -0.19352079842600001
v 0.33516968800699998 0.159128720132 0.15800731409800001
v 0.33516968800699998 0.159128720132 0.15800731409800001
v 0.33516968800699998 0.159128720132 0.15800731409800001
v 0.33516968800699998 0.14480843388100001 0.15800731409800001
v 0.33516968800699998 0.14480843388100001 0.15800731409800001
v 0.33516968800699998 0.14480843388100001 0.15800731409800001
v 0.31569643783399998 0.14480843388100001 0.0089377092846899993
v 0.31569643783399998 0.14480843388100001 0.0089377092846899993
v 0.31569643783399998 0.14480843388100001 -0.0089394292326000005
v 0.31569643783399998 0.14480843388100001 -0.0089394292326000005
v 0.33516968800699998 0.14480843388100001 -0.158009034046
v 0.33516968800699998 0.14480843388100001 -0.158009034046
v 0.33516968800699998 0.14480843388100001 -0.158009034046
v 0.33516968800699998 0.159128720132 -0.158009034046
v 0.33516968800699998 0.159128720132 -0.158009034046
v 0.33516968800699998 0.159128720132 -0.158009034046
v 0.410496526423 0.159128720132 0.111728675838
v 0.410496526423 0.159128720132 0.111728675838
v 0.410496526423 0.159128720132 0.111728675838
v 0.410496526423 0.14480843388100001 0.111728675838
v 0.410496526423 0.14480843388100001 0.111728675838
v 0.410496526423 0.14480843388100001 0.111728675838
v 0.37573637927800002 0.14480843388100001 0.0089377092846899993
v 0.37573637927800002 0.14480843388100001 0.0089377092846899993
v 0.34887767280400001 0.14480843388100001 -8.5997395214000002E-07
v 0.34887767280400001 0.14480843388100001 -8.5997395214000002E-07
v 0.34887767280400001 0.14480843388100001 -8.5997395214000002E-07
v 0.31569643783399998 0.14480843388100001 -8.5997395213700004E-07
v 0.31569643783399998 0.14480843388100001 -8.5997395213700004E-07
v 0.31569643783399998 0.14480843388100001 -8.5997395213700004E-07
v 0.34887767280400001 0.14480843388100001 -0.0089394292326000005
v 0.34887767280400001 0.14480843388100001 -0.0089394292326000005
v 0.34887767280400001 0.14480843388100001 -0.0089394292326000005
v 0.37573637927800002 0.14480843388100001 -0.0089394292326000005
v 0.37573637927800002 0.14480843388100001 -0.0089394292326000005
v 0.37573637927800002 0.14480843388100001 -8.5997395214000002E-07
v 0.37573637927800002 0.14480843388100001 -8.5997395214000002E-07
v 0.37573637927800002 0.14480843388100001 -8.5997395214000002E-07
v 0.410496526423 0.14480843388100001 -0.111728675838
v 0.410496526423 0.14480843388100001 -0.111728675838
v 0.410496526423 0.14480843388100001 -0.111728675838
v 0.410496526423 0.159128720132 -0.111728675838
v 0.410496526423 0.159128720132 -0.111728675838
v 0.410496526423 0.159128720132 -0.111728675838
v 0.45785013212499998 0.159128720132 0.057834108256000001
v 0.45785013212499998 0.159128720132 0.057834108256000001
v 0.45785013212499998 0.159128720132 0.057834108256000001
v 0.45785013212499998 0.14480843388100001 0.057834108256000001
v 0.45785013212499998 0.14480843388100001 0.057834108256000001
v 0.45785013212499998 0.14480843388100001 0.057834108256000001
v 0.45785013212499998 0.14480843388100001 -0.057835828204000003
v 0.45785013212499998 0.14480843388100001 -0.057835828204000003
v 0.45785013212499998 0.14480843388100001 -0.057835828204000003
v 0.45785013212499998 0.159128720132 -0.057835828204000003
v 0.45785013212499998 0.159128720132 -0.057835828204000003
v 0.45785013212499998 0.159128720132 -0.057835828204000003
v 0.47400216289399999 0.159128720132 -8.5997395214700001E-07
v 0.47400216289399999 0.159128720132 -8.5997395214700001E-07
v 0.47400216289399999 0.159128720132 -8.5997395214700001E-07
v 0.47400216289399999 0.14480843388100001 -8.5997395214700001E-07
v 0.47400216289399999 0.14480843388100001 -8.5997395214700001E-07
v 0.47400216289399999 0.14480843388100001 -8.5997395214700001E-07
vt -0.039753198623657227 0.65603399276733398
vt -0.546347975730896 0.70884400606155396
vt -0.677528977394104 0.70884400606155396
vt -0.039753198623657227 0.38626700639724731
vt -0.38193398714065552 0.70884400606155396
vt -0.27999600768089294 0.70884400606155396
vt 0 0.52115100622177124
vt -0.52973097562789917 0.70884400606155396
vt -0.52973097562789917 0.70884400606155396
vt -0.1563040018081665 0.78172600269317627
vt -0.72292602062225342 0.70884400606155396
vt -0.56504398584365845 0.70884400606155396
vt -0.72292602062225342 0.74224501848220825
vt -0.56504398584365845 0.74224501848220825
vt 0.1563040018081665 0.78172600269317627
vt -0.546347975730896 0.74224501848220825
vt -0.677528977394104 0.74224501848220825
vt 0.039753198623657227 0.65603399276733398
vt 0 0.52115100622177124
vt -0.52973097562789917 0.74224501848220825
vt -0.52973097562789917 0.74224501848220825
vt -0.38193398714065552 0.74224501848220825
vt -0.27999600768089294 0.74224501848220825
vt 0.039753198623657227 0.38626700639724731
vt -0.10341800004243851 0.70884400606155396
vt -0.010778499767184258 0.70884400606155396
vt -0.1563040018081665 0.26057499647140503
vt -0.10341800004243851 0.74224501848220825
vt -0.010778499767184258 0.74224501848220825
vt 0.1563040018081665 0.26057499647140503
vt 0.20682300627231598 0.74224501848220825
vt 0.34170898795127869 0.15264099836349487
vt 0.26653298735618591 0.74224501848220825
vt 0.20682300627231598 0.70884400606155396
vt -0.34170898795127869 0.15264099836349487
vt 0.26653298735618591 0.70884400606155396
vt -0.34170898795127869 0.88966000080108643
vt -0.78264498710632324 0.70884400606155396
vt -0.6407170295715332 0.70884400606155396
vt -0.78264498710632324 0.74224501848220825
vt 0.34170898795127869 0.88966000080108643
vt -0.6407170295715332 0.74224501848220825
vt 0.58333301544189453 0.069820903241634369
vt 0.52348101139068604 0.74224501848220825
vt 0.55839800834655762 0.74224501848220825
vt 0.52348101139068604 0.70884400606155396
vt -0.58333301544189453 0.069820903241634369
vt 0.55839800834655762 0.70884400606155396
vt -0.58333301544189453 0.97247999906539917
vt -0.89766502380371094 0.70884400606155396
vt -0.76921498775482178 0.70884400606155396
vt -0.89766502380371094 0.74224501848220825
vt 0.58333301544189453 0.97247999906539917
vt -0.76921498775482178 0.74224501848220825
vt 0.86471098661422729 0.017757799476385117
vt 0.84508997201919556 0.74224501848220825
vt 0.86189001798629761 0.74224501848220825
vt 0.84508997201919556 0.70884400606155396
vt -0.86471098661422729 0.017757799476385117
vt 0.86189001798629761 0.70884400606155396
vt -0.86471098661422729 1.0245399475097656
vt -1.0559099912643433 0.70884400606155396
vt -0.93002998828887939 0.70884400606155396
vt -1.0559099912643433 0.74224501848220825
vt 0.86471098661422729 1.0245399475097656
vt -0.93002998828887939 0.74224501848220825
vt 1.1666699647903442 0
vt 1.1644300222396851 0.74224501848220825
vt 1.1644300222396851 0.70884400606155396
vt -1.1666699647903442 0
vt -1.1666699647903442 1.0422999858856201
vt -1.2325700521469116 0.70884400606155396
vt -1.0962899923324585 0.70884400606155396
vt -1.2325700521469116 0.74224501848220825
vt 1.1666699647903442 1.0422999858856201
vt -1.0962899923324585 0.74224501848220825
vt 1.4686199426651001 0.017757799476385117
vt 1.4669599533081055 0.74224501848220825
vt 1.4449900388717651 0.74224501848220825
vt 1.4669599533081055 0.70884400606155396
vt -1.4686199426651001 0.017757799476385117
vt 1.4449900388717651 0.70884400606155396
vt -1.4686199426651001 1.0245399475097656
vt -1.3988200426101685 0.70884400606155396
vt -1.2341699600219727 0.70884400606155396
vt -1.3988200426101685 0.74224501848220825
vt 1.4686199426651001 1.0245399475097656
vt -1.2341699600219727 0.74224501848220825
vt 1.75 0.069820903241634369
vt 1.7316800355911255 0.74224501848220825
vt 1.6706999540328979 0.74224501848220825
vt 1.7316800355911255 0.70884400606155396
vt -1.75 0.069820903241634369
vt 1.6706999540328979 0.70884400606155396
vt -1.75 0.97247999906539917
vt -1.520859956741333 0.70884400606155396
vt -1.2965199947357178 0.70884400606155396
vt -1.520859956741333 0.74224501848220825
vt 1.75 0.97247999906539917
vt -1.2965199947357178 0.74224501848220825
vt 1.9916199445724487 0.15264099836349487
vt 1.927649974822998 0.74224501848220825
vt 1.7812700271606445 0.74224501848220825
vt 1.927649974822998 0.70884400606155396
vt -1.9916199445724487 0.15264099836349487
vt 1.7812700271606445 0.70884400606155396
vt -1.9436999559402466 0.50030499696731567
vt -1.9436999559402466 0.50030499696731567
vt -1.9436999559402466 0.54199701547622681
vt -1.9436999559402466 0.54199701547622681
vt -1.9916199445724487 0.88966000080108643
vt -1.5534700155258179 0.70884400606155396
vt -1.2054500579833984 0.70884400606155396
vt -1.5534700155258179 0.74224501848220825
vt 1.9916199445724487 0.88966000080108643
vt -1.2054500579833984 0.74224501848220825
vt 2.177030086517334 0.26057499647140503
vt 1.9988700151443481 0.74224501848220825
vt 1.643530011177063 0.74224501848220825
vt 1.9988700151443481 0.70884400606155396
vt -2.177030086517334 0.26057499647140503
vt 1.643530011177063 0.70884400606155396
vt -2.0914700031280518 0.50030499696731567
vt -2.0914700031280518 0.50030499696731567
vt -2.025360107421875 0.52115100622177124
vt -2.025360107421875 0.52115100622177124
vt -2.025360107421875 0.52115100622177124
vt -1.9436999559402466 0.52115100622177124
vt -1.9436999559402466 0.52115100622177124
vt -1.9436999559402466 0.52115100622177124
vt -2.025360107421875 0.54199701547622681
vt -2.025360107421875 0.54199701547622681
vt -2.025360107421875 0.54199701547622681
vt -2.0914700031280518 0.54199701547622681
vt -2.0914700031280518 0.54199701547622681
vt -2.0914700031280518 0.52115100622177124
vt -2.0914700031280518 0.52115100622177124
vt -2.0914700031280518 0.52115100622177124
vt -2.177030086517334 0.78172600269317627
vt -1.4230500459671021 0.70884400606155396
vt -0.81718999147415161 0.70884400606155396
vt -1.4230500459671021 0.74224501848220825
vt 2.177030086517334 0.78172600269317627
vt -0.81718999147415161 0.74224501848220825
vt 2.2935800552368164 0.38626700639724731
vt 1.8201099634170532 0.74224501848220825
vt 1.0095299482345581 0.74224501848220825
vt 1.8201099634170532 0.70884400606155396
vt -2.2935800552368164 0.38626700639724731
vt 1.0095299482345581 0.70884400606155396
vt -2.2935800552368164 0.65603399276733398
vt -0.99376797676086426 0.70884400606155396
vt 0.049928300082683563 0.70884400606155396
vt -0.99376797676086426 0.74224501848220825
vt 2.2935800552368164 0.65603399276733398
vt 0.049928300082683563 0.74224501848220825
vt 2.3333299160003662 0.52115100622177124
vt 1.1573300361633301 0.74224501848220825
vt -0.097868703305721283 0.74224501848220825
vt 1.1573300361633301 0.70884400606155396
vt -2.3333299160003662 0.52115100622177124
vt -0.097868703305721283 0.70884400606155396
vn 0 -1 0
vn -0.75121170282363892 0 -0.6600612998008728
vn -0.96314436197280884 0 -0.26898497343063354
vn 0 -1 0
vn -0.96314436197280884 0 0.26898497343063354
vn -0.75122219324111938 0 0.6600494384765625
vn 0 -1 0
vn -0.96314436197280884 0 -0.26898497343063354
vn -0.96314436197280884 0 0.26898497343063354
vn 0 -1 0
vn -0.75121170282363892 0 -0.6600612998008728
vn -0.52348512411117554 0 -0.8520348072052002
vn -0.75121170282363892 0 -0.6600612998008728
vn -0.52348512411117554 0 -0.8520348072052002
vn 0 1 0
vn -0.75121170282363892 0 -0.6600612998008728
vn -0.96314436197280884 0 -0.26898497343063354
vn 0 1 0
vn 0 1 0
vn -0.96314436197280884 0 -0.26898497343063354
vn -0.96314436197280884 0 0.26898497343063354
vn -0.96314436197280884 0 0.26898497343063354
vn -0.75122219324111938 0 0.6600494384765625
vn 0 1 0
vn -0.75122219324111938 0 0.6600494384765625
vn -0.52347099781036377 0 0.8520435094833374
vn 0 -1 0
vn -0.75122219324111938 0 0.6600494384765625
vn -0.52347099781036377 0 0.8520435094833374
vn 0 1 0
vn -0.52347099781036377 0 0.8520435094833374
vn 0 1 0
vn -0.34016707539558411 0 0.9403650164604187
vn -0.52347099781036377 0 0.8520435094833374
vn 0 -1 0
vn -0.34016707539558411 0 0.9403650164604187
vn 0 -1 0
vn -0.52348512411117554 0 -0.8520348072052002
vn -0.34016707539558411 0 -0.9403650164604187
vn -0.52348512411117554 0 -0.8520348072052002
vn 0 1 0
vn -0.34016707539558411 0 -0.9403650164604187
vn 0 1 0
vn -0.34016707539558411 0 0.9403650164604187
vn -0.19166439771652222 0 0.98146051168441772
vn -0.34016707539558411 0 0.9403650164604187
vn 0 -1 0
vn -0.19166439771652222 0 0.98146051168441772
vn 0 -1 0
vn -0.34016707539558411 0 -0.9403650164604187
vn -0.19165018200874329 0 -0.98146331310272217
vn -0.34016707539558411 0 -0.9403650164604187
vn 0 1 0
vn -0.19165018200874329 0 -0.98146331310272217
vn 0 1 0
vn -0.19166439771652222 0 0.98146051168441772
vn -0.061946190893650055 0 0.99807947874069214
vn -0.19166439771652222 0 0.98146051168441772
vn 0 -1 0
vn -0.061946190893650055 0 0.99807947874069214
vn 0 -1 0
vn -0.19165018200874329 0 -0.98146331310272217
vn -0.061946190893650055 0 -0.99807947874069214
vn -0.19165018200874329 0 -0.98146331310272217
vn 0 1 0
vn -0.061946190893650055 0 -0.99807947874069214
vn 0 1 0
vn -0.020684037357568741 0 0.99978607892990112
vn 0.020684037357568741 0 0.99978607892990112
vn 0 -1 0
vn 0 -1 0
vn -0.061946190893650055 0 -0.99807947874069214
vn 0.061946190893650055 0 -0.99807947874069214
vn -0.061946190893650055 0 -0.99807947874069214
vn 0 1 0
vn 0.061946190893650055 0 -0.99807947874069214
vn 0 1 0
vn 0.061946190893650055 0 0.99807947874069214
vn 0.19166439771652222 0 0.98146051168441772
vn 0.061946190893650055 0 0.99807947874069214
vn 0 -1 0
vn 0.19166439771652222 0 0.98146051168441772
vn 0 -1 0
vn 0.061946190893650055 0 -0.99807947874069214
vn 0.19165018200874329 0 -0.98146331310272217
vn 0.061946190893650055 0 -0.99807947874069214
vn 0 1 0
vn 0.19165018200874329 0 -0.98146331310272217
vn 0 1 0
vn 0.19166439771652222 0 0.98146051168441772
vn 0.34016707539558411 0 0.9403650164604187
vn 0.19166439771652222 0 0.98146051168441772
vn 0 -1 0
vn 0.34016707539558411 0 0.9403650164604187
vn 0 -1 0
vn 0.19165018200874329 0 -0.98146331310272217
vn 0.34016707539558411 0 -0.9403650164604187
vn 0.19165018200874329 0 -0.98146331310272217
vn 0 1 0
vn 0.34016707539558411 0 -0.9403650164604187
vn 0 1 0
vn 0.34016707539558411 0 0.9403650164604187
vn 0.52347099781036377 0 0.8520435094833374
vn 0.34016707539558411 0 0.9403650164604187
vn 0 -1 0
vn 0.52347099781036377 0 0.8520435094833374
vn 0 -1 0
vn 0 -1 0
vn 0 -1 0
vn 0 -1 0
vn 0 -1 0
vn 0.34016707539558411 0 -0.9403650164604187
vn 0.52348512411117554 0 -0.8520348072052002
vn 0.34016707539558411 0 -0.9403650164604187
vn 0 1 0
vn 0.52348512411117554 0 -0.8520348072052002
vn 0 1 0
vn 0.52347099781036377 0 0.8520435094833374
vn 0.75122219324111938 0 0.6600494384765625
vn 0.52347099781036377 0 0.8520435094833374
vn 0 -1 0
vn 0.75122219324111938 0 0.6600494384765625
vn 0 -1 0
vn 0 -1 0
vn 0 -1 0
vn 0 -1 0
vn 0 -1 0
vn 0 -1 0
vn 0 0 1
vn 0 -1 0
vn 0 -1 0
vn 0 -1 0
vn 0 -1 0
vn 0 -1 0
vn 0 -1 0
vn 0 -1 0
vn 0 -1 0
vn 0 -1 0
vn 0 -1 0
vn 0.52348512411117554 0 -0.8520348072052002
vn 0.75121170282363892 0 -0.6600612998008728
vn 0.52348512411117554 0 -0.8520348072052002
vn 0 1 0
vn 0.75121170282363892 0 -0.6600612998008728
vn 0 1 0
vn 0.75122219324111938 0 0.6600494384765625
vn 0.96314436197280884 0 0.26898497343063354
vn 0.75122219324111938 0 0.6600494384765625
vn 0 -1 0
vn 0.96314436197280884 0 0.26898497343063354
vn 0 -1 0
vn 0.75121170282363892 0 -0.6600612998008728
vn 0.96314436197280884 0 -0.26898497343063354
vn 0.75121170282363892 0 -0.6600612998008728
vn 0 1 0
vn 0.96314436197280884 0 -0.26898497343063354
vn 0 1 0
vn 0.96314436197280884 0 0.26898497343063354
vn 0.96314436197280884 0 -0.26898497343063354
vn 0.96314436197280884 0 0.26898497343063354
vn 0 -1 0
vn 0.96314436197280884 0 -0.26898497343063354
f 1/1/1 4/4/4 7/7/7
f 4/4/4 1/1/1 10/10/10
f 2/2/2 13/13/13 11/11/11
f 13/13/13 2/2/2 16/16/16
f 8/8/8 17/17/17 3/3/3
f 17/17/17 8/8/8 20/20/20
f 5/5/5 21/21/21 9/9/9
f 21/21/21 5/5/5 22/22/22
f 25/25/25 23/23/23 6/6/6
f 23/23/23 25/25/25 28/28/28
f 26/26/26 31/31/31 29/29/29
f 31/31/31 26/26/26 34/34/34
f 27/27/27 37/37/37 35/35/35
f 27/27/27 10/10/10 37/37/37
f 4/4/4 10/10/10 27/27/27
f 14/14/14 38/38/38 12/12/12
f 38/38/38 14/14/14 40/40/40
f 15/15/15 32/32/32 41/41/41
f 15/15/15 30/30/30 32/32/32
f 18/18/18 30/30/30 15/15/15
f 18/18/18 24/24/24 30/30/30
f 24/24/24 18/18/18 19/19/19
f 41/41/41 32/32/32 43/43/43
f 36/36/36 44/44/44 33/33/33
f 44/44/44 36/36/36 46/46/46
f 35/35/35 49/49/49 47/47/47
f 35/35/35 37/37/37 49/49/49
f 42/42/42 50/50/50 39/39/39
f 50/50/50 42/42/42 52/52/52
f 41/41/41 43/43/43 53/53/53
f 53/53/53 43/43/43 55/55/55
f 48/48/48 56/56/56 45/45/45
f 56/56/56 48/48/48 58/58/58
f 47/47/47 61/61/61 59/59/59
f 47/47/47 49/49/49 61/61/61
f 54/54/54 62/62/62 51/51/51
f 62/62/62 54/54/54 64/64/64
f 53/53/53 55/55/55 65/65/65
f 65/65/65 55/55/55 67/67/67
f 60/60/60 68/68/68 57/57/57
f 68/68/68 60/60/60 69/69/69
f 59/59/59 71/71/71 70/70/70
f 59/59/59 61/61/61 71/71/71
f 66/66/66 72/72/72 63/63/63
f 72/72/72 66/66/66 74/74/74
f 65/65/65 67/67/67 75/75/75
f 75/75/75 67/67/67 77/77/77
f 69/69/69 78/78/78 68/68/68
f 78/78/78 69/69/69 80/80/80
f 70/70/70 83/83/83 81/81/81
f 70/70/70 71/71/71 83/83/83
f 76/76/76 84/84/84 73/73/73
f 84/84/84 76/76/76 86/86/86
f 75/75/75 77/77/77 87/87/87
f 87/87/87 77/77/77 89/89/89
f 82/82/82 90/90/90 79/79/79
f 90/90/90 82/82/82 92/92/92
f 81/81/81 95/95/95 93/93/93
f 81/81/81 83/83/83 95/95/95
f 88/88/88 96/96/96 85/85/85
f 96/96/96 88/88/88 98/98/98
f 87/87/87 89/89/89 99/99/99
f 99/99/99 89/89/89 101/101/101
f 94/94/94 102/102/102 91/91/91
f 102/102/102 94/94/94 104/104/104
f 93/93/93 107/107/107 105/105/105
f 107/107/107 93/93/93 109/109/109
f 93/93/93 111/111/111 109/109/109
f 93/93/93 95/95/95 111/111/111
f 100/100/100 112/112/112 97/97/97
f 112/112/112 100/100/100 114/114/114
f 99/99/99 101/101/101 115/115/115
f 115/115/115 101/101/101 117/117/117
f 106/106/106 118/118/118 103/103/103
f 118/118/118 106/106/106 120/120/120
f 105/105/105 123/123/123 121/121/121
f 105/105/105 107/107/107 123/123/123
f 108/108/108 125/125/125 124/124/124
f 125/125/125 108/108/108 128/128/128
f 107/107/107 109/109/109 129/129/129
f 131/131/131 130/130/130 110/110/110
f 130/130/130 131/131/131 126/126/126
f 134/134/134 127/127/127 132/132/132
f 127/127/127 134/134/134 136/136/136
f 135/135/135 139/139/139 137/137/137
f 133/133/133 139/139/139 135/135/135
f 133/133/133 111/111/111 139/139/139
f 109/109/109 111/111/111 133/133/133
f 116/116/116 140/140/140 113/113/113
f 140/140/140 116/116/116 142/142/142
f 115/115/115 117/117/117 143/143/143
f 143/143/143 117/117/117 145/145/145
f 119/119/119 148/148/148 146/146/146
f 148/148/148 119/119/119 122/122/122
f 121/121/121 151/151/151 149/149/149
f 121/121/121 139/139/139 151/151/151
f 121/121/121 123/123/123 139/139/139
f 137/137/137 139/139/139 123/123/123
f 124/124/124 125/125/125 138/138/138
f 141/141/141 154/154/154 152/152/152
f 154/154/154 141/141/141 144/144/144
f 143/143/143 145/145/145 155/155/155
f 155/155/155 145/145/145 157/157/157
f 147/147/147 160/160/160 158/158/158
f 160/160/160 147/147/147 150/150/150
f 149/149/149 151/151/151 161/161/161
f 153/153/153 159/159/159 162/162/162
f 159/159/159 153/153/153 156/156/156
