# Rhino

v 0.199950474209 -0.17409480944 -0.15800684025100001
v 0.199950474209 -0.17409480944 -0.15800684025100001
v 0.199950474209 -0.17409480944 -0.15800684025100001
v 0.199950474209 -0.16375254353300001 -0.15800684025100001
v 0.199950474209 -0.16375254353300001 -0.15800684025100001
v 0.199950474209 -0.16375254353300001 -0.15800684025100001
v 0.37749270561800002 -0.17409480944 -0.15800684025100001
v 0.37749270561800002 -0.17409480944 -0.15800684025100001
v 0.37749270561800002 -0.17409480944 -0.15800684025100001
v 0.199950474209 -0.17409480944 0.15800684025100001
v 0.199950474209 -0.17409480944 0.15800684025100001
v 0.199950474209 -0.17409480944 0.15800684025100001
v 0.37749270561800002 -0.17409480944 0.15800684025100001
v 0.37749270561800002 -0.17409480944 0.15800684025100001
v 0.37749270561800002 -0.17409480944 0.15800684025100001
v 0.37749270561800002 -0.16375254353300001 0.15800684025100001
v 0.37749270561800002 -0.16375254353300001 0.15800684025100001
v 0.37749270561800002 -0.16375254353300001 0.15800684025100001
v 0.37749270561800002 -0.16375254353300001 -0.15800684025100001
v 0.37749270561800002 -0.16375254353300001 -0.15800684025100001
v 0.37749270561800002 -0.16375254353300001 -0.15800684025100001
v 0.199950474209 -0.16375254353300001 0.15800684025100001
v 0.199950474209 -0.16375254353300001 0.15800684025100001
v 0.199950474209 -0.16375254353300001 0.15800684025100001
vt 1.4173200130462646 0
vt 21.653499603271484 0
vt -21.653499603271484 1.4173200130462646
vt 1.4173200130462646 0.70866101980209351
vt 21.653499603271484 0.70866101980209351
vt 21.653499603271484 1.4173200130462646
vt -21.653499603271484 13.582699775695801
vt 13.582699775695801 0
vt -21.653499603271484 0
vt 0 0
vt 0 1.4173200130462646
vt -1.4173200130462646 0
vt 0 13.582699775695801
vt -13.582699775695801 0
vt 0 0
vt 0 13.582699775695801
vt -13.582699775695801 0.70866101980209351
vt 0 0.70866101980209351
vt 21.653499603271484 13.582699775695801
vt -21.653499603271484 0.70866101980209351
vt 13.582699775695801 0.70866101980209351
vt 0 1.4173200130462646
vt 0 0.70866101980209351
vt -1.4173200130462646 0.70866101980209351
vn 0 0 -1
vn -1 0 0
vn 0 -1 0
vn 0 0 -1
vn -1 0 0
vn 0 1 0
vn 0 -1 0
vn 0 0 -1
vn 1 0 0
vn -1 0 0
vn 0 -1 0
vn 0 0 1
vn 0 -1 0
vn 0 0 1
vn 1 0 0
vn 0 1 0
vn 0 0 1
vn 1 0 0
vn 0 1 0
vn 1 0 0
vn 0 0 -1
vn 0 1 0
vn -1 0 0
vn 0 0 1
f 1/1/1 4/4/4 8/8/8
f 2/2/2 10/10/10 5/5/5
f 3/3/3 7/7/7 11/11/11
f 13/13/13 11/11/11 7/7/7
f 14/14/14 17/17/17 12/12/12
f 15/15/15 9/9/9 18/18/18
f 20/20/20 18/18/18 9/9/9
f 16/16/16 19/19/19 22/22/22
f 6/6/6 22/22/22 19/19/19
f 23/23/23 5/5/5 10/10/10
f 24/24/24 12/12/12 17/17/17
f 21/21/21 8/8/8 4/4/4
