# Rhino

v 0.33094146589399998 -0.101043709701 -0.33094146589399998
v 0.31694976341199999 -0.101043709701 0.31694976341199999
v 0.31694976341199999 -0.101043709701 0.31694976341199999
v 0.31694976341199999 -0.101043709701 0.31694976341199999
v 0.31694976341199999 0.17594172985500001 -0.33094146589399998
v 0.31694976341199999 0.17594172985500001 -0.33094146589399998
v 0.31694976341199999 0.17594172985500001 -0.33094146589399998
v 0.31694976341199999 -0.101043709701 -0.33094146589399998
v 0.31694976341199999 -0.101043709701 -0.33094146589399998
v 0.31694976341199999 -0.101043709701 -0.33094146589399998
v 0.31694976341199999 0.17594172985500001 0.31694976341199999
v 0.31694976341199999 0.17594172985500001 0.31694976341199999
v 0.31694976341199999 0.17594172985500001 0.31694976341199999
v 0.33094146589399998 0.17594172985500001 0.31694976341199999
v 0.33094146589399998 0.17594172985500001 0.31694976341199999
v 0.33094146589399998 0.17594172985500001 0.31694976341199999
v 0.33094146589399998 -0.101043709701 0.31694976341199999
v 0.33094146589399998 -0.101043709701 0.31694976341199999
v 0.33094146589399998 -0.101043709701 0.31694976341199999
v 0.33094146589399998 0.17594172985500001 -0.33094146589399998
v 0.33094146589399998 0.17594172985500001 -0.33094146589399998
v 0.33094146589399998 0.17594172985500001 -0.33094146589399998
vt 0 0
vt 0.77329999208450317 0
vt -0.016699999570846558 0
vt -0.016699999570846558 0.77329999208450317
vt 0 0.33059999346733093
vt 0.016699999570846558 0.33059999346733093
vt 0.016699999570846558 0
vt 0 0
vt -0.016699999570846558 0
vt 0.016699999570846558 0
vt 0.77329999208450317 0.33059999346733093
vt -0.016699999570846558 0.33059999346733093
vt 0.016699999570846558 0.77329999208450317
vt 0 0.33059999346733093
vt 0 0.77329999208450317
vt -0.77329999208450317 0.33059999346733093
vt 0 0
vt 0 0.77329999208450317
vt -0.77329999208450317 0
vt 0 0.33059999346733093
vt 0 0
vt 0 0.33059999346733093
vn 0.3333333432674408 -0.66666668653488159 -0.66666668653488159
vn -1 0 0
vn 0 0 1
vn 0 -1 0
vn -1 0 0
vn 0 0 -1
vn 0 1 0
vn -1 0 0
vn 0 -1 0
vn 0 0 -1
vn -1 0 0
vn 0 0 1
vn 0 1 0
vn 0 0 1
vn 0 1 0
vn 1 0 0
vn 0 0 1
vn 0 -1 0
vn 1 0 0
vn 0 0 -1
vn 0 1 0
vn 1 0 0
f 2/2/2 5/5/5 8/8/8
f 5/5/5 2/2/2 11/11/11
f 3/3/3 14/14/14 12/12/12
f 14/14/14 3/3/3 17/17/17
f 4/4/4 1/1/1 18/18/18
f 1/1/1 4/4/4 9/9/9
f 6/6/6 1/1/1 10/10/10
f 1/1/1 6/6/6 20/20/20
f 7/7/7 15/15/15 21/21/21
f 15/15/15 7/7/7 13/13/13
f 19/19/19 22/22/22 16/16/16
f 22/22/22 19/19/19 1/1/1
