# Rhino

v 0.32240400550600001 0.210775331235 -1.37690477507E-06
v 0.32240400550600001 0.210775331235 -1.37690477507E-06
v 0.32240400550600001 0.210775331235 -1.37690477507E-06
v 0.29174158789600002 0.210775331235 0.0177231427452
v 0.29174158789600002 0.210775331235 0.0177231427452
v 0.29174158789600002 0.210775331235 -1.37690477507E-06
v 0.29174158789600002 0.210775331235 -1.37690477507E-06
v 0.29174158789600002 0.210775331235 -1.37690477507E-06
v 0.34722584340500001 0.210775331235 0.0177231427452
v 0.34722584340500001 0.210775331235 0.0177231427452
v 0.34722584340500001 0.210775331235 -1.37690477507E-06
v 0.34722584340500001 0.210775331235 -1.37690477507E-06
v 0.34722584340500001 0.210775331235 -1.37690477507E-06
v 0.34722584340500001 0.210775331235 -0.017725896554699999
v 0.34722584340500001 0.210775331235 -0.017725896554699999
v 0.32240400550600001 0.210775331235 -0.017725896554699999
v 0.32240400550600001 0.210775331235 -0.017725896554699999
v 0.32240400550600001 0.210775331235 -0.017725896554699999
v 0.29174158789600002 0.210775331235 -0.017725896554699999
v 0.29174158789600002 0.210775331235 -0.017725896554699999
v 0.219018484604 0.210775331235 0.38374949429499999
v 0.219018484604 0.210775331235 0.38374949429499999
v 0.219018484604 0.210775331235 0.38374949429499999
v 0.309736481575 0.210775331235 0.313329577172
v 0.309736481575 0.210775331235 0.313329577172
v 0.309736481575 0.210775331235 0.313329577172
v 0.37934778007499997 0.210775331235 0.22155762218200001
v 0.37934778007499997 0.210775331235 0.22155762218200001
v 0.37934778007499997 0.210775331235 0.22155762218200001
v 0.37934778007499997 0.210775331235 -0.22156037599200001
v 0.37934778007499997 0.210775331235 -0.22156037599200001
v 0.37934778007499997 0.210775331235 -0.22156037599200001
v 0.309736481575 0.210775331235 -0.31333233098199997
v 0.309736481575 0.210775331235 -0.31333233098199997
v 0.309736481575 0.210775331235 -0.31333233098199997
v 0.219018484604 0.210775331235 -0.38375224810500003
v 0.219018484604 0.210775331235 -0.38375224810500003
v 0.219018484604 0.210775331235 -0.38375224810500003
v 0.113372336408 0.210775331235 0.428017984199
v 0.113372336408 0.210775331235 0.428017984199
v 0.113372336408 0.210775331235 0.428017984199
v 0.113372336408 0.210775331235 -0.42801848489099997
v 0.113372336408 0.210775331235 -0.42801848489099997
v 0.113372336408 0.210775331235 -0.42801848489099997
v 5.0069264557499998E-07 0.210775331235 0.443116871616
v 5.0069264557499998E-07 0.210775331235 0.443116871616
v 5.0069264557499998E-07 0.210775331235 0.443116871616
v 5.0069264552000002E-07 0.210775331235 -0.443116871616
v 5.0069264552000002E-07 0.210775331235 -0.443116871616
v 5.0069264552000002E-07 0.210775331235 -0.443116871616
v -0.11337133502299999 0.210775331235 0.428017984199
v -0.11337133502299999 0.210775331235 0.428017984199
v -0.11337133502299999 0.210775331235 0.428017984199
v -0.11337133502299999 0.210775331235 -0.42801848489099997
v -0.11337133502299999 0.210775331235 -0.42801848489099997
v -0.11337133502299999 0.210775331235 -0.42801848489099997
v -0.219017483219 0.210775331235 0.38374949429499999
v -0.219017483219 0.210775331235 0.38374949429499999
v -0.219017483219 0.210775331235 0.38374949429499999
v -0.219017483219 0.210775331235 -0.38375224810500003
v -0.219017483219 0.210775331235 -0.38375224810500003
v -0.219017483219 0.210775331235 -0.38375224810500003
v -0.30973548019000002 0.210775331235 0.313329577172
v -0.30973548019000002 0.210775331235 0.313329577172
v -0.30973548019000002 0.210775331235 0.313329577172
v -0.30973548019000002 0.210775331235 -0.31333233098199997
v -0.30973548019000002 0.210775331235 -0.31333233098199997
v -0.30973548019000002 0.210775331235 -0.31333233098199997
v -0.37934928215399999 0.210775331235 0.22155762218200001
v -0.37934928215399999 0.210775331235 0.22155762218200001
v -0.37934928215399999 0.210775331235 0.22155762218200001
v -0.37934928215399999 0.210775331235 -0.22156037599200001
v -0.37934928215399999 0.210775331235 -0.22156037599200001
v -0.37934928215399999 0.210775331235 -0.22156037599200001
v -0.423107315905 0.210775331235 0.114687280468
v -0.423107315905 0.210775331235 0.114687280468
v -0.423107315905 0.210775331235 0.114687280468
v -0.423107315905 0.210775331235 -0.114687530814
v -0.423107315905 0.210775331235 -0.114687530814
v -0.423107315905 0.210775331235 -0.114687530814
v -0.43803396505199999 0.210775331235 -1.37690477503E-06
v -0.43803396505199999 0.210775331235 -1.37690477503E-06
v -0.43803396505199999 0.231619166066 -1.37690477503E-06
v -0.43803396505199999 0.231619166066 -1.37690477503E-06
v -0.423107315905 0.231619166066 0.114687280468
v -0.423107315905 0.231619166066 0.114687280468
v -0.423107315905 0.231619166066 0.114687280468
v -0.37934928215399999 0.231619166066 0.22155762218200001
v -0.37934928215399999 0.231619166066 0.22155762218200001
v -0.37934928215399999 0.231619166066 0.22155762218200001
v -0.30973548019000002 0.231619166066 0.313329577172
v -0.30973548019000002 0.231619166066 0.313329577172
v -0.30973548019000002 0.231619166066 0.313329577172
v -0.219017483219 0.231619166066 0.38374949429499999
v -0.219017483219 0.231619166066 0.38374949429499999
v -0.219017483219 0.231619166066 0.38374949429499999
v -0.11337133502299999 0.231619166066 0.428017984199
v -0.11337133502299999 0.231619166066 0.428017984199
v -0.11337133502299999 0.231619166066 0.428017984199
v 5.0069264557499998E-07 0.231619166066 0.443116871616
v 5.0069264557499998E-07 0.231619166066 0.443116871616
v 5.0069264557499998E-07 0.231619166066 0.443116871616
v 0.113372336408 0.231619166066 0.428017984199
v 0.113372336408 0.231619166066 0.428017984199
v 0.113372336408 0.231619166066 0.428017984199
v 0.219018484604 0.231619166066 0.38374949429499999
v 0.219018484604 0.231619166066 0.38374949429499999
v 0.219018484604 0.231619166066 0.38374949429499999
v 0.309736481575 0.231619166066 0.313329577172
v 0.309736481575 0.231619166066 0.313329577172
v 0.309736481575 0.231619166066 0.313329577172
v 0.37934778007499997 0.231619166066 0.22155762218200001
v 0.37934778007499997 0.231619166066 0.22155762218200001
v 0.37934778007499997 0.231619166066 0.22155762218200001
v 0.42310831729100001 0.210775331235 0.114687280468
v 0.42310831729100001 0.210775331235 0.114687280468
v 0.42310831729100001 0.210775331235 0.114687280468
v 0.42310831729100001 0.231619166066 0.114687280468
v 0.42310831729100001 0.231619166066 0.114687280468
v 0.42310831729100001 0.231619166066 0.114687280468
v 0.43803396505199999 0.210775331235 -1.3769047750800001E-06
v 0.43803396505199999 0.210775331235 -1.3769047750800001E-06
v 0.43803396505199999 0.210775331235 -1.3769047750800001E-06
v 0.43803396505199999 0.231619166066 -1.3769047750800001E-06
v 0.43803396505199999 0.231619166066 -1.3769047750800001E-06
v 0.43803396505199999 0.231619166066 -1.3769047750800001E-06
v 0.42310831729100001 0.210775331235 -0.114687530814
v 0.42310831729100001 0.210775331235 -0.114687530814
v 0.42310831729100001 0.210775331235 -0.114687530814
v 0.42310831729100001 0.231619166066 -0.114687530814
v 0.42310831729100001 0.231619166066 -0.114687530814
v 0.42310831729100001 0.231619166066 -0.114687530814
v 0.37934778007499997 0.231619166066 -0.22156037599200001
v 0.37934778007499997 0.231619166066 -0.22156037599200001
v 0.37934778007499997 0.231619166066 -0.22156037599200001
v 0.309736481575 0.231619166066 -0.31333233098199997
v 0.309736481575 0.231619166066 -0.31333233098199997
v 0.309736481575 0.231619166066 -0.31333233098199997
v 0.219018484604 0.231619166066 -0.38375224810500003
v 0.219018484604 0.231619166066 -0.38375224810500003
v 0.219018484604 0.231619166066 -0.38375224810500003
v 0.113372336408 0.231619166066 -0.42801848489099997
v 0.113372336408 0.231619166066 -0.42801848489099997
v 0.113372336408 0.231619166066 -0.42801848489099997
v 5.0069264552000002E-07 0.231619166066 -0.443116871616
v 5.0069264552000002E-07 0.231619166066 -0.443116871616
v 5.0069264552000002E-07 0.231619166066 -0.443116871616
v -0.11337133502299999 0.231619166066 -0.42801848489099997
v -0.11337133502299999 0.231619166066 -0.42801848489099997
v -0.11337133502299999 0.231619166066 -0.42801848489099997
v -0.219017483219 0.231619166066 -0.38375224810500003
v -0.219017483219 0.231619166066 -0.38375224810500003
v -0.219017483219 0.231619166066 -0.38375224810500003
v -0.30973548019000002 0.231619166066 -0.31333233098199997
v -0.30973548019000002 0.231619166066 -0.31333233098199997
v -0.30973548019000002 0.231619166066 -0.31333233098199997
v -0.37934928215399999 0.231619166066 -0.22156037599200001
v -0.37934928215399999 0.231619166066 -0.22156037599200001
v -0.37934928215399999 0.231619166066 -0.22156037599200001
v -0.423107315905 0.231619166066 -0.114687530814
v -0.423107315905 0.231619166066 -0.114687530814
v -0.423107315905 0.231619166066 -0.114687530814
vt -0.86801302433013916 0.47377300262451172
vt -0.86801302433013916 0.47377300262451172
vt -0.86801302433013916 0.47377300262451172
vt -0.83301299810409546 0.45482200384140015
vt -0.83301299810409546 0.45482200384140015
vt -0.83301299810409546 0.47377300262451172
vt -0.83301299810409546 0.47377300262451172
vt -0.83301299810409546 0.47377300262451172
vt -0.89634597301483154 0.45482200384140015
vt -0.89634597301483154 0.45482200384140015
vt -0.89634597301483154 0.47377300262451172
vt -0.89634597301483154 0.47377300262451172
vt -0.89634597301483154 0.47377300262451172
vt -0.89634597301483154 0.49272400140762329
vt -0.89634597301483154 0.49272400140762329
vt -0.86801302433013916 0.49272400140762329
vt -0.86801302433013916 0.49272400140762329
vt -0.86801302433013916 0.49272400140762329
vt -0.83301299810409546 0.49272400140762329
vt -0.83301299810409546 0.49272400140762329
vt -0.75 0.063473597168922424
vt 0.71854501962661743 0.70884400606155396
vt 0.63579398393630981 0.70884400606155396
vt -0.85355299711227417 0.13876500725746155
vt 0.76631999015808105 0.70884400606155396
vt 0.63579398393630981 0.70884400606155396
vt -0.93301302194595337 0.23688699305057526
vt 0.76631999015808105 0.70884400606155396
vt 0.58801800012588501 0.70884400606155396
vt -0.93301302194595337 0.71065998077392578
vt 0.33586099743843079 0.70884400606155396
vt 0.027032900601625443 0.70884400606155396
vt -0.85355299711227417 0.80878198146820068
vt 0.15755900740623474 0.70884400606155396
vt -0.15755900740623474 0.70884400606155396
vt -0.75 0.88407301902770996
vt -0.027032900601625443 0.70884400606155396
vt -0.33586099743843079 0.70884400606155396
vt -0.6294100284576416 0.016143400222063065
vt 0.62624901533126831 0.70884400606155396
vt 0.58801800012588501 0.70884400606155396
vt -0.6294100284576416 0.93140298128128052
vt -0.20533500611782074 0.70884400606155396
vt -0.49572199583053589 0.70884400606155396
vt -0.5 0
vt 0.49572199583053589 0.70884400606155396
vt 0.49572199583053589 0.70884400606155396
vt -0.5 0.94754701852798462
vt -0.36519598960876465 0.70884400606155396
vt -0.62624901533126831 0.70884400606155396
vt -0.37059000134468079 0.016143400222063065
vt 0.33586099743843079 0.70884400606155396
vt 0.36519598960876465 0.70884400606155396
vt -0.37059000134468079 0.93140298128128052
vt -0.49572199583053589 0.70884400606155396
vt -0.71854501962661743 0.70884400606155396
vt -0.25 0.063473597168922424
vt 0.15755900740623474 0.70884400606155396
vt 0.20533500611782074 0.70884400606155396
vt -0.25 0.88407301902770996
vt -0.58801800012588501 0.70884400606155396
vt -0.76631999015808105 0.70884400606155396
vt -0.14644700288772583 0.13876500725746155
vt -0.027032900601625443 0.70884400606155396
vt 0.027032900601625443 0.70884400606155396
vt -0.14644700288772583 0.80878198146820068
vt -0.63579398393630981 0.70884400606155396
vt -0.76631999015808105 0.70884400606155396
vt -0.066987298429012299 0.23688699305057526
vt -0.20533500611782074 0.70884400606155396
vt -0.15755900740623474 0.70884400606155396
vt -0.066987298429012299 0.71065998077392578
vt -0.63579398393630981 0.70884400606155396
vt -0.71854501962661743 0.70884400606155396
vt -0.017037099227309227 0.35115200281143188
vt -0.36519598960876465 0.70884400606155396
vt -0.33586099743843079 0.70884400606155396
vt -0.017037099227309227 0.59639501571655273
vt -0.58801800012588501 0.70884400606155396
vt -0.62624901533126831 0.70884400606155396
vt 0 0.47377300262451172
vt -0.49572199583053589 0.70884400606155396
vt 0 0.47377300262451172
vt -0.49572199583053589 0.74224501848220825
vt -0.36519598960876465 0.74224501848220825
vt -0.33586099743843079 0.74224501848220825
vt 0.017037099227309227 0.35115200281143188
vt -0.20533500611782074 0.74224501848220825
vt -0.15755900740623474 0.74224501848220825
vt 0.066987298429012299 0.23688699305057526
vt -0.027032900601625443 0.74224501848220825
vt 0.027032900601625443 0.74224501848220825
vt 0.14644700288772583 0.13876500725746155
vt 0.15755900740623474 0.74224501848220825
vt 0.20533500611782074 0.74224501848220825
vt 0.25 0.063473597168922424
vt 0.33586099743843079 0.74224501848220825
vt 0.36519598960876465 0.74224501848220825
vt 0.37059000134468079 0.016143400222063065
vt 0.49572199583053589 0.74224501848220825
vt 0.49572199583053589 0.74224501848220825
vt 0.5 0
vt 0.62624901533126831 0.74224501848220825
vt 0.58801800012588501 0.74224501848220825
vt 0.6294100284576416 0.016143400222063065
vt 0.71854501962661743 0.74224501848220825
vt 0.63579398393630981 0.74224501848220825
vt 0.75 0.063473597168922424
vt 0.76631999015808105 0.74224501848220825
vt 0.63579398393630981 0.74224501848220825
vt 0.85355299711227417 0.13876500725746155
vt 0.76631999015808105 0.74224501848220825
vt 0.58801800012588501 0.74224501848220825
vt 0.93301302194595337 0.23688699305057526
vt 0.71854501962661743 0.70884400606155396
vt 0.49572199583053589 0.70884400606155396
vt -0.98296302556991577 0.35115200281143188
vt 0.71854501962661743 0.74224501848220825
vt 0.49572199583053589 0.74224501848220825
vt 0.98296302556991577 0.35115200281143188
vt 0.62624901533126831 0.70884400606155396
vt 0.36519598960876465 0.70884400606155396
vt -1 0.47377300262451172
vt 0.62624901533126831 0.74224501848220825
vt 0.36519598960876465 0.74224501848220825
vt 1 0.47377300262451172
vt 0.49572199583053589 0.70884400606155396
vt 0.20533500611782074 0.70884400606155396
vt -0.98296302556991577 0.59639501571655273
vt 0.49572199583053589 0.74224501848220825
vt 0.20533500611782074 0.74224501848220825
vt 0.98296302556991577 0.59639501571655273
vt 0.33586099743843079 0.74224501848220825
vt 0.027032900601625443 0.74224501848220825
vt 0.93301302194595337 0.71065998077392578
vt 0.15755900740623474 0.74224501848220825
vt -0.15755900740623474 0.74224501848220825
vt 0.85355299711227417 0.80878198146820068
vt -0.027032900601625443 0.74224501848220825
vt -0.33586099743843079 0.74224501848220825
vt 0.75 0.88407301902770996
vt -0.20533500611782074 0.74224501848220825
vt -0.49572199583053589 0.74224501848220825
vt 0.6294100284576416 0.93140298128128052
vt -0.36519598960876465 0.74224501848220825
vt -0.62624901533126831 0.74224501848220825
vt 0.5 0.94754701852798462
vt -0.49572199583053589 0.74224501848220825
vt -0.71854501962661743 0.74224501848220825
vt 0.37059000134468079 0.93140298128128052
vt -0.58801800012588501 0.74224501848220825
vt -0.76631999015808105 0.74224501848220825
vt 0.25 0.88407301902770996
vt -0.63579398393630981 0.74224501848220825
vt -0.76631999015808105 0.74224501848220825
vt 0.14644700288772583 0.80878198146820068
vt -0.63579398393630981 0.74224501848220825
vt -0.71854501962661743 0.74224501848220825
vt 0.066987298429012299 0.71065998077392578
vt -0.58801800012588501 0.74224501848220825
vt -0.62624901533126831 0.74224501848220825
vt 0.017037099227309227 0.59639501571655273
vn 0 -1 0
vn 0 -1 0
vn 0 -1 0
vn 0 -1 0
vn 0 -1 0
vn 0 -1 0
vn 0 -1 0
vn 0 0 1
vn 0 -1 0
vn 0 -1 0
vn 0 -1 0
vn 0 -1 0
vn 0 -1 0
vn 0 -1 0
vn 0 -1 0
vn 0 -1 0
vn 0 -1 0
vn 0 -1 0
vn 0 -1 0
vn 0 -1 0
vn 0 -1 0
vn 0.3864687979221344 0 0.9223024845123291
vn 0.61318874359130859 0 0.78993642330169678
vn 0 -1 0
vn 0.61318874359130859 0 0.78993642330169678
vn 0.79672807455062866 0 0.60433793067932129
vn 0 -1 0
vn 0.79672807455062866 0 0.60433793067932129
vn 0.92542296648025513 0 0.37893587350845337
vn 0 -1 0
vn 0.92542606592178345 0 -0.37892824411392212
vn 0.79672807455062866 0 -0.60433793067932129
vn 0 -1 0
vn 0.79672807455062866 0 -0.60433793067932129
vn 0.61318874359130859 0 -0.78993642330169678
vn 0 -1 0
vn 0.61318874359130859 0 -0.78993642330169678
vn 0.38645204901695251 0 -0.9223095178604126
vn 0 -1 0
vn 0.13201460242271423 0 0.99124777317047119
vn 0.3864687979221344 0 0.9223024845123291
vn 0 -1 0
vn 0.38645204901695251 0 -0.9223095178604126
vn 0.13201031088829041 0 -0.99124836921691895
vn 0 -1 0
vn -0.13201460242271423 0 0.99124777317047119
vn 0.13201460242271423 0 0.99124777317047119
vn 0 -1 0
vn 0.13201031088829041 0 -0.99124836921691895
vn -0.13201031088829041 0 -0.99124836921691895
vn 0 -1 0
vn -0.3864687979221344 0 0.9223024845123291
vn -0.13201460242271423 0 0.99124777317047119
vn 0 -1 0
vn -0.13201031088829041 0 -0.99124836921691895
vn -0.38645204901695251 0 -0.9223095178604126
vn 0 -1 0
vn -0.61318874359130859 0 0.78993642330169678
vn -0.3864687979221344 0 0.9223024845123291
vn 0 -1 0
vn -0.38645204901695251 0 -0.9223095178604126
vn -0.61318874359130859 0 -0.78993642330169678
vn 0 -1 0
vn -0.79671758413314819 0 0.60435175895690918
vn -0.61318874359130859 0 0.78993642330169678
vn 0 -1 0
vn -0.61318874359130859 0 -0.78993642330169678
vn -0.79671758413314819 0 -0.60435175895690918
vn 0 -1 0
vn -0.9254305362701416 0 0.37891730666160583
vn -0.79671758413314819 0 0.60435175895690918
vn 0 -1 0
vn -0.79671758413314819 0 -0.60435175895690918
vn -0.92543363571166992 0 -0.37890970706939697
vn 0 -1 0
vn -0.99163669347763062 0 0.12906081974506378
vn -0.9254305362701416 0 0.37891730666160583
vn 0 -1 0
vn -0.92543363571166992 0 -0.37890970706939697
vn -0.99163633584976196 0 -0.12906359136104584
vn 0 -1 0
vn -0.99906021356582642 0 -0.043344199657440186
vn 0 1 0
vn -0.99906033277511597 0 0.043341405689716339
vn -0.99163669347763062 0 0.12906081974506378
vn -0.9254305362701416 0 0.37891730666160583
vn 0 1 0
vn -0.9254305362701416 0 0.37891730666160583
vn -0.79671758413314819 0 0.60435175895690918
vn 0 1 0
vn -0.79671758413314819 0 0.60435175895690918
vn -0.61318874359130859 0 0.78993642330169678
vn 0 1 0
vn -0.61318874359130859 0 0.78993642330169678
vn -0.3864687979221344 0 0.9223024845123291
vn 0 1 0
vn -0.3864687979221344 0 0.9223024845123291
vn -0.13201460242271423 0 0.99124777317047119
vn 0 1 0
vn -0.13201460242271423 0 0.99124777317047119
vn 0.13201460242271423 0 0.99124777317047119
vn 0 1 0
vn 0.13201460242271423 0 0.99124777317047119
vn 0.3864687979221344 0 0.9223024845123291
vn 0 1 0
vn 0.3864687979221344 0 0.9223024845123291
vn 0.61318874359130859 0 0.78993642330169678
vn 0 1 0
vn 0.61318874359130859 0 0.78993642330169678
vn 0.79672807455062866 0 0.60433793067932129
vn 0 1 0
vn 0.79672807455062866 0 0.60433793067932129
vn 0.92542296648025513 0 0.37893587350845337
vn 0 1 0
vn 0.92542296648025513 0 0.37893587350845337
vn 0.99163776636123657 0 0.12905231118202209
vn 0 -1 0
vn 0.92542296648025513 0 0.37893587350845337
vn 0.99163776636123657 0 0.12905231118202209
vn 0 1 0
vn 0.99163776636123657 0 0.12905231118202209
vn 0.99163740873336792 0 -0.12905508279800415
vn 0 -1 0
vn 0.99163776636123657 0 0.12905231118202209
vn 0.99163740873336792 0 -0.12905508279800415
vn 0 1 0
vn 0.99163740873336792 0 -0.12905508279800415
vn 0.92542606592178345 0 -0.37892824411392212
vn 0 -1 0
vn 0.99163740873336792 0 -0.12905508279800415
vn 0.92542606592178345 0 -0.37892824411392212
vn 0 1 0
vn 0.92542606592178345 0 -0.37892824411392212
vn 0.79672807455062866 0 -0.60433793067932129
vn 0 1 0
vn 0.79672807455062866 0 -0.60433793067932129
vn 0.61318874359130859 0 -0.78993642330169678
vn 0 1 0
vn 0.61318874359130859 0 -0.78993642330169678
vn 0.38645204901695251 0 -0.9223095178604126
vn 0 1 0
vn 0.38645204901695251 0 -0.9223095178604126
vn 0.13201031088829041 0 -0.99124836921691895
vn 0 1 0
vn 0.13201031088829041 0 -0.99124836921691895
vn -0.13201031088829041 0 -0.99124836921691895
vn 0 1 0
vn -0.13201031088829041 0 -0.99124836921691895
vn -0.38645204901695251 0 -0.9223095178604126
vn 0 1 0
vn -0.38645204901695251 0 -0.9223095178604126
vn -0.61318874359130859 0 -0.78993642330169678
vn 0 1 0
vn -0.61318874359130859 0 -0.78993642330169678
vn -0.79671758413314819 0 -0.60435175895690918
vn 0 1 0
vn -0.79671758413314819 0 -0.60435175895690918
vn -0.92543363571166992 0 -0.37890970706939697
vn 0 1 0
vn -0.92543363571166992 0 -0.37890970706939697
vn -0.99163633584976196 0 -0.12906359136104584
vn 0 1 0
f 1/1/1 4/4/4 6/6/6
f 4/4/4 1/1/1 9/9/9
f 9/9/9 1/1/1 11/11/11
f 2/2/2 14/14/14 12/12/12
f 14/14/14 2/2/2 16/16/16
f 7/7/7 17/17/17 3/3/3
f 17/17/17 7/7/7 19/19/19
f 5/5/5 20/20/20 8/8/8
f 5/5/5 21/21/21 20/20/20
f 21/21/21 5/5/5 24/24/24
f 24/24/24 5/5/5 10/10/10
f 24/24/24 10/10/10 27/27/27
f 27/27/27 10/10/10 30/30/30
f 13/13/13 30/30/30 10/10/10
f 15/15/15 30/30/30 13/13/13
f 18/18/18 30/30/30 15/15/15
f 18/18/18 33/33/33 30/30/30
f 20/20/20 33/33/33 18/18/18
f 21/21/21 33/33/33 20/20/20
f 21/21/21 36/36/36 33/33/33
f 39/39/39 36/36/36 21/21/21
f 39/39/39 42/42/42 36/36/36
f 45/45/45 42/42/42 39/39/39
f 45/45/45 48/48/48 42/42/42
f 51/51/51 48/48/48 45/45/45
f 51/51/51 54/54/54 48/48/48
f 57/57/57 54/54/54 51/51/51
f 57/57/57 60/60/60 54/54/54
f 63/63/63 60/60/60 57/57/57
f 63/63/63 66/66/66 60/60/60
f 69/69/69 66/66/66 63/63/63
f 69/69/69 72/72/72 66/66/66
f 75/75/75 72/72/72 69/69/69
f 75/75/75 78/78/78 72/72/72
f 78/78/78 75/75/75 81/81/81
f 76/76/76 84/84/84 82/82/82
f 84/84/84 76/76/76 85/85/85
f 70/70/70 86/86/86 77/77/77
f 86/86/86 70/70/70 88/88/88
f 64/64/64 89/89/89 71/71/71
f 89/89/89 64/64/64 91/91/91
f 65/65/65 94/94/94 92/92/92
f 94/94/94 65/65/65 58/58/58
f 59/59/59 97/97/97 95/95/95
f 97/97/97 59/59/59 52/52/52
f 53/53/53 100/100/100 98/98/98
f 100/100/100 53/53/53 46/46/46
f 47/47/47 103/103/103 101/101/101
f 103/103/103 47/47/47 40/40/40
f 41/41/41 106/106/106 104/104/104
f 106/106/106 41/41/41 22/22/22
f 23/23/23 109/109/109 107/107/107
f 109/109/109 23/23/23 25/25/25
f 28/28/28 110/110/110 26/26/26
f 110/110/110 28/28/28 112/112/112
f 115/115/115 113/113/113 29/29/29
f 113/113/113 115/115/115 118/118/118
f 121/121/121 119/119/119 116/116/116
f 119/119/119 121/121/121 124/124/124
f 127/127/127 125/125/125 122/122/122
f 125/125/125 127/127/127 130/130/130
f 31/31/31 131/131/131 128/128/128
f 131/131/131 31/31/31 133/133/133
f 34/34/34 134/134/134 32/32/32
f 134/134/134 34/34/34 136/136/136
f 35/35/35 139/139/139 137/137/137
f 139/139/139 35/35/35 37/37/37
f 38/38/38 142/142/142 140/140/140
f 142/142/142 38/38/38 43/43/43
f 44/44/44 145/145/145 143/143/143
f 145/145/145 44/44/44 49/49/49
f 50/50/50 148/148/148 146/146/146
f 148/148/148 50/50/50 55/55/55
f 56/56/56 151/151/151 149/149/149
f 151/151/151 56/56/56 61/61/61
f 62/62/62 154/154/154 152/152/152
f 154/154/154 62/62/62 67/67/67
f 73/73/73 155/155/155 68/68/68
f 155/155/155 73/73/73 157/157/157
f 79/79/79 158/158/158 74/74/74
f 158/158/158 79/79/79 160/160/160
f 82/82/82 161/161/161 80/80/80
f 161/161/161 82/82/82 84/84/84
f 87/87/87 162/162/162 83/83/83
f 162/162/162 87/87/87 90/90/90
f 162/162/162 90/90/90 159/159/159
f 159/159/159 90/90/90 93/93/93
f 159/159/159 93/93/93 156/156/156
f 156/156/156 93/93/93 96/96/96
f 156/156/156 96/96/96 153/153/153
f 153/153/153 96/96/96 99/99/99
f 153/153/153 99/99/99 150/150/150
f 150/150/150 99/99/99 102/102/102
f 150/150/150 102/102/102 147/147/147
f 147/147/147 102/102/102 105/105/105
f 147/147/147 105/105/105 144/144/144
f 144/144/144 105/105/105 108/108/108
f 144/144/144 108/108/108 141/141/141
f 141/141/141 108/108/108 111/111/111
f 141/141/141 111/111/111 138/138/138
f 138/138/138 111/111/111 114/114/114
f 138/138/138 114/114/114 135/135/135
f 135/135/135 114/114/114 120/120/120
f 135/135/135 120/120/120 132/132/132
f 132/132/132 120/120/120 126/126/126
f 27/27/27 30/30/30 129/129/129
f 27/27/27 129/129/129 117/117/117
f 117/117/117 129/129/129 123/123/123
