# Rhino

v -0.38210016435700001 0.20752029912 0.10520381923200001
v -0.38165171060800002 -0.23387197689100001 0.17957016819900001
v -0.38210016435700001 -0.23387197689100001 0.18303296741
v -0.38165171060800002 0.20752029912 0.10174168935400001
v -0.36892432547100001 -0.23387197689100001 0.19641211648500001
v -0.36551406897599997 0.20752029912 0.11812698454999999
v -0.36892432547100001 0.20752029912 0.11858296830700001
v -0.36551406897599997 -0.23387197689100001 0.19595630006199999
v -0.36892432547100001 -0.23387197689100001 0.19641211648500001
v -0.36551406897599997 -0.23387197689100001 0.170109802093
v -0.36551406897599997 -0.23387197689100001 0.19595630006199999
v -0.36892432547100001 -0.23387197689100001 0.16965381833599999
v -0.37233458196800001 -0.23387197689100001 0.170109802093
v -0.37233458196800001 -0.23387197689100001 0.19595630006199999
v -0.37551224491500002 -0.23387197689100001 0.194619640156
v -0.37551224491500002 -0.23387197689100001 0.171446294665
v -0.378241454112 -0.23387197689100001 0.19249350085
v -0.378241454112 -0.23387197689100001 0.17357260130300001
v -0.38033479605300002 -0.23387197689100001 0.189722625614
v -0.38033479605300002 -0.23387197689100001 0.17634347653999999
v -0.38165171060800002 -0.23387197689100001 0.17957016819900001
v -0.38165171060800002 -0.23387197689100001 0.18649576662199999
v -0.38210016435700001 -0.23387197689100001 0.18303296741
v -0.36233640602900002 -0.23387197689100001 0.171446294665
v -0.36233640602900002 -0.23387197689100001 0.194619640156
v -0.35960887016600002 -0.23387197689100001 0.17357260130300001
v -0.35960887016600002 -0.23387197689100001 0.19249350085
v -0.357513854889 -0.23387197689100001 0.189722625614
v -0.357513854889 -0.23387197689100001 0.17634347653999999
v -0.35619861367 -0.23387197689100001 0.17957016819900001
v -0.35619861367 -0.23387197689100001 0.18649576662199999
v -0.35574848658500002 -0.23387197689100001 0.18303296741
v -0.38165171060800002 0.20752029912 0.108666618444
v -0.38210016435700001 -0.23387197689100001 0.18303296741
v -0.38165171060800002 -0.23387197689100001 0.18649576662199999
v -0.38210016435700001 0.20752029912 0.10520381923200001
v -0.38165171060800002 -0.23387197689100001 0.18649576662199999
v -0.38033479605300002 0.20752029912 0.11189331010299999
v -0.38165171060800002 0.20752029912 0.108666618444
v -0.38033479605300002 -0.23387197689100001 0.189722625614
v -0.38033479605300002 -0.23387197689100001 0.189722625614
v -0.378241454112 0.20752029912 0.114664185339
v -0.38033479605300002 0.20752029912 0.11189331010299999
v -0.378241454112 -0.23387197689100001 0.19249350085
v -0.37551224491500002 -0.23387197689100001 0.194619640156
v -0.378241454112 0.20752029912 0.114664185339
v -0.378241454112 -0.23387197689100001 0.19249350085
v -0.37551224491500002 0.20752029912 0.116790491978
v -0.37551224491500002 -0.23387197689100001 0.194619640156
v -0.37233458196800001 0.20752029912 0.11812698454999999
v -0.37551224491500002 0.20752029912 0.116790491978
v -0.37233458196800001 -0.23387197689100001 0.19595630006199999
v -0.37233458196800001 -0.23387197689100001 0.19595630006199999
v -0.36892432547100001 0.20752029912 0.11858296830700001
v -0.37233458196800001 0.20752029912 0.11812698454999999
v -0.36892432547100001 -0.23387197689100001 0.19641211648500001
v -0.38165171060800002 0.20752029912 0.10174168935400001
v -0.38033479605300002 -0.23387197689100001 0.17634347653999999
v -0.38165171060800002 -0.23387197689100001 0.17957016819900001
v -0.38033479605300002 0.20752029912 0.098513826361400006
v -0.378241454112 -0.23387197689100001 0.17357260130300001
v -0.38033479605300002 0.20752029912 0.098513826361400006
v -0.378241454112 0.20752029912 0.095742783791600006
v -0.38033479605300002 -0.23387197689100001 0.17634347653999999
v -0.378241454112 0.20752029912 0.095742783791600006
v -0.37551224491500002 -0.23387197689100001 0.171446294665
v -0.378241454112 -0.23387197689100001 0.17357260130300001
v -0.37551224491500002 0.20752029912 0.093617648487399993
v -0.37233458196800001 0.20752029912 0.092280653913699995
v -0.37551224491500002 -0.23387197689100001 0.171446294665
v -0.37551224491500002 0.20752029912 0.093617648487399993
v -0.37233458196800001 -0.23387197689100001 0.170109802093
v -0.37233458196800001 0.20752029912 0.092280653913699995
v -0.36892432547100001 -0.23387197689100001 0.16965381833599999
v -0.37233458196800001 -0.23387197689100001 0.170109802093
v -0.36892432547100001 0.20752029912 0.091823833490499995
v -0.36892432547100001 0.20752029912 0.091823833490499995
v -0.36551406897599997 -0.23387197689100001 0.170109802093
v -0.36892432547100001 -0.23387197689100001 0.16965381833599999
v -0.36551406897599997 0.20752029912 0.092280653913699995
v -0.36551406897599997 0.20752029912 0.092280653913699995
v -0.36233640602900002 -0.23387197689100001 0.171446294665
v -0.36551406897599997 -0.23387197689100001 0.170109802093
v -0.36233640602900002 0.20752029912 0.093617648487399993
v -0.35960887016600002 0.20752029912 0.095742783791600006
v -0.36233640602900002 -0.23387197689100001 0.171446294665
v -0.36233640602900002 0.20752029912 0.093617648487399993
v -0.35960887016600002 -0.23387197689100001 0.17357260130300001
v -0.357513854889 0.20752029912 0.098513826361400006
v -0.35960887016600002 -0.23387197689100001 0.17357260130300001
v -0.35960887016600002 0.20752029912 0.095742783791600006
v -0.357513854889 -0.23387197689100001 0.17634347653999999
v -0.35619861367 0.20752029912 0.10174168935400001
v -0.357513854889 -0.23387197689100001 0.17634347653999999
v -0.357513854889 0.20752029912 0.098513826361400006
v -0.35619861367 -0.23387197689100001 0.17957016819900001
v -0.35574848658500002 0.20752029912 0.10520381923200001
v -0.35619861367 -0.23387197689100001 0.17957016819900001
v -0.35619861367 0.20752029912 0.10174168935400001
v -0.35574848658500002 -0.23387197689100001 0.18303296741
v -0.35619861367 0.20752029912 0.108666618444
v -0.35574848658500002 -0.23387197689100001 0.18303296741
v -0.35574848658500002 0.20752029912 0.10520381923200001
v -0.35619861367 -0.23387197689100001 0.18649576662199999
v -0.357513854889 0.20752029912 0.11189331010299999
v -0.35619861367 -0.23387197689100001 0.18649576662199999
v -0.35619861367 0.20752029912 0.108666618444
v -0.357513854889 -0.23387197689100001 0.189722625614
v -0.35960887016600002 0.20752029912 0.114664185339
v -0.357513854889 -0.23387197689100001 0.189722625614
v -0.357513854889 0.20752029912 0.11189331010299999
v -0.35960887016600002 -0.23387197689100001 0.19249350085
v -0.36233640602900002 0.20752029912 0.116790491978
v -0.35960887016600002 -0.23387197689100001 0.19249350085
v -0.35960887016600002 0.20752029912 0.114664185339
v -0.36233640602900002 -0.23387197689100001 0.194619640156
v -0.36233640602900002 0.20752029912 0.116790491978
v -0.36551406897599997 -0.23387197689100001 0.19595630006199999
v -0.36233640602900002 -0.23387197689100001 0.194619640156
v -0.36551406897599997 0.20752029912 0.11812698454999999
vt -5.5793499946594238 26.369600296020508
vt -1.1754800081253052 -0.01515519991517067
vt -0.96680998802185059 -0.01515519991517067
vt -5.788020133972168 26.369600296020508
vt 1.5706299543380737 -0.023422699421644211
vt 2.3925299644470215 26.754400253295898
vt 2.1869199275970459 26.754400253295898
vt 1.7762299776077271 -0.023422699421644211
vt -1.5748000144958496 0.073264703154563904
vt -1.7785999774932861 1.6451200246810913
vt -1.7785999774932861 0.10050900280475616
vt -1.5748000144958496 1.6723599433898926
vt -1.3710099458694458 1.6451200246810913
vt -1.3710099458694458 0.10050900280475616
vt -1.1811000108718872 0.18038399517536163
vt -1.1811000108718872 1.5652400255203247
vt -1.018030047416687 0.30744698643684387
vt -1.018030047416687 1.4381799697875977
vt -0.89289301633834839 0.47303900122642517
vt -0.89289301633834839 1.2725900411605835
vt -0.8142319917678833 1.0797499418258667
vt -0.8142319917678833 0.66587501764297485
vt -0.78740197420120239 0.87281298637390137
vt -1.968500018119812 1.5652400255203247
vt -1.968500018119812 0.18038399517536163
vt -2.131580114364624 1.4381799697875977
vt -2.131580114364624 0.30744698643684387
vt -2.2567100524902344 0.47303900122642517
vt -2.2567100524902344 1.2725900411605835
vt -2.3353700637817383 1.0797499418258667
vt -2.3353700637817383 0.66587501764297485
vt -2.3622000217437744 0.87281298637390137
vt -5.1682000160217285 26.405000686645508
vt -0.76432698965072632 0.020242400467395782
vt -0.5556570291519165 0.020242400467395782
vt -5.3768701553344727 26.405000686645508
vt -0.30901199579238892 0.066812597215175629
vt -4.4073700904846191 26.503200531005859
vt -4.6156301498413086 26.503200531005859
vt -0.10074900090694427 0.066812597215175629
vt 0.16091600060462952 0.1054529994726181
vt -3.3423199653625488 26.631999969482422
vt -3.5498800277709961 26.631999969482422
vt 0.36847001314163208 0.1054529994726181
vt 0.82081198692321777 0.11960999667644501
vt -2.2446200847625732 26.751499176025391
vt 0.61407798528671265 0.11960999667644501
vt -2.0378799438476562 26.751499176025391
vt 1.018779993057251 0.10013999789953232
vt -0.57846802473068237 26.824199676513672
vt -0.7844889760017395 26.824199676513672
vt 1.224810004234314 0.10013999789953232
vt 1.3456000089645386 0.048427201807498932
vt 0.93491101264953613 26.826200485229492
vt 0.72930300235748291 26.826200485229492
vt 1.5512100458145142 0.048427201807498932
vt -5.6139302253723145 26.413400650024414
vt -1.5155700445175171 -0.022998599335551262
vt -1.3073099851608276 -0.022998599335551262
vt -5.8221898078918457 26.413400650024414
vt -1.7611700296401978 0.0057992800138890743
vt -5.2644100189208984 26.532400131225586
vt -5.4719700813293457 26.532400131225586
vt -1.5536199808120728 0.0057992800138890743
vt -4.5456700325012207 26.701999664306641
vt -1.8937100172042847 0.070089899003505707
vt -1.6869800090789795 0.070089899003505707
vt -4.7524099349975586 26.701999664306641
vt -3.7048699855804443 26.882099151611328
vt -1.6955699920654297 0.15800699591636658
vt -3.4988501071929932 26.882099151611328
vt -1.9015899896621704 0.15800699591636658
vt -2.1932001113891602 27.027200698852539
vt -1.7825100421905518 0.24945400655269623
vt -1.5769100189208984 0.24945400655269623
vt -2.3988099098205566 27.027200698852539
vt -0.72302299737930298 27.099100112915039
vt -1.5449299812316895 0.32130399346351624
vt -1.3393199443817139 0.32130399346351624
vt -0.92862999439239502 27.099100112915039
vt 0.8016129732131958 27.077999114990234
vt -1.2076799869537354 0.35391101241111755
vt -1.0016599893569946 0.35391101241111755
vt 0.59559202194213867 27.077999114990234
vt 2.0611898899078369 26.968700408935547
vt -0.5907670259475708 0.33677598834037781
vt 2.2679300308227539 26.968700408935547
vt -0.79750102758407593 0.33677598834037781
vt 3.3655400276184082 26.798000335693359
vt -0.1376969963312149 0.27143099904060364
vt 3.5731000900268555 26.798000335693359
vt -0.34525200724601746 0.27143099904060364
vt 4.4243102073669434 26.607200622558594
vt 0.32595100998878479 0.17079600691795349
vt 4.6325697898864746 26.607200622558594
vt 0.11768899857997894 0.17079600691795349
vt 5.174379825592041 26.440399169921875
vt 0.77051597833633423 0.055640101432800293
vt 5.3830499649047852 26.440399169921875
vt 0.56184500455856323 0.055640101432800293
vt 5.5731601715087891 26.334199905395508
vt 1.1692899465560913 -0.05055290088057518
vt 5.781829833984375 26.334199905395508
vt 0.96062099933624268 -0.05055290088057518
vt 5.5969901084899902 26.30940055847168
vt 1.4986300468444824 -0.12698200345039368
vt 5.8052501678466797 26.30940055847168
vt 1.290369987487793 -0.12698200345039368
vt 5.2411899566650391 26.366399765014648
vt 1.7379499673843384 -0.16017900407314301
vt 5.4487500190734863 26.366399765014648
vt 1.5304000377655029 -0.16017900407314301
vt 4.5223598480224609 26.484800338745117
vt 1.8703999519348145 -0.14707699418067932
vt 4.729100227355957 26.484800338745117
vt 1.6636699438095093 -0.14707699418067932
vt 3.6877400875091553 26.628299713134766
vt 1.6784499883651733 -0.095764599740505219
vt 1.8844699859619141 -0.095764599740505219
vt 3.481719970703125 26.628299713134766
vn -0.99146229028701782 -0.022642491385340691 -0.12841285765171051
vn -0.99146229028701782 -0.022642491385340691 -0.12841285765171051
vn -0.99146389961242676 -0.022640436887741089 -0.12840065360069275
vn -0.99146068096160889 -0.022644545882940292 -0.12842506170272827
vn 0.13052767515182495 0.172162264585495 0.97638243436813354
vn 0.13052767515182495 0.172162264585495 0.97638243436813354
vn 0.13055121898651123 0.17216154932975769 0.97637939453125
vn 0.13050411641597748 0.1721629798412323 0.97638547420501709
vn 0 -1 0
vn 0 -1 0
vn 0 -1 0
vn 0 -1 0
vn 0 -1 0
vn 0 -1 0
vn 0 -1 0
vn 0 -1 0
vn 0 -1 0
vn 0 -1 0
vn 0 -1 0
vn 0 -1 0
vn 0 -1 0
vn 0 -1 0
vn 0 -1 0
vn 0 -1 0
vn 0 -1 0
vn 0 -1 0
vn 0 -1 0
vn 0 -1 0
vn 0 -1 0
vn 0 -1 0
vn 0 -1 0
vn 0 -1 0
vn -0.99146389961242676 0.022640436887741089 0.12840065360069275
vn -0.99146389961242676 0.022640436887741089 0.12840065360069275
vn -0.99146389961242676 0.022640436887741089 0.12840065360069275
vn -0.99146389961242676 0.022640436887741089 0.12840065360069275
vn -0.9238131046295166 0.066480003297328949 0.3770274817943573
vn -0.9238131046295166 0.066480003297328949 0.3770274817943573
vn -0.92380964756011963 0.066481404006481171 0.37703582644462585
vn -0.92381662130355835 0.066478602588176727 0.37701913714408875
vn -0.79342693090438843 0.10569358617067337 0.5994185209274292
vn -0.79342693090438843 0.10569358617067337 0.5994185209274292
vn -0.79342693090438843 0.10569358617067337 0.5994185209274292
vn -0.79342693090438843 0.10569358617067337 0.5994185209274292
vn -0.6087111234664917 0.13777083158493042 0.78133857250213623
vn -0.6087111234664917 0.13777083158493042 0.78133857250213623
vn -0.60869604349136353 0.13777299225330353 0.78134995698928833
vn -0.60872620344161987 0.13776867091655731 0.78132718801498413
vn -0.38269326090812683 0.16042903065681458 0.90983974933624268
vn -0.38269326090812683 0.16042903065681458 0.90983974933624268
vn -0.38267281651496887 0.16043032705783844 0.90984815359115601
vn -0.38271370530128479 0.16042771935462952 0.90983140468597412
vn -0.13052767515182495 0.172162264585495 0.97638243436813354
vn -0.13052767515182495 0.172162264585495 0.97638243436813354
vn -0.13055121898651123 0.17216190695762634 0.97637933492660522
vn -0.13050413131713867 0.17216262221336365 0.97638553380966187
vn -0.92383420467376709 -0.066471032798290253 -0.37697744369506836
vn -0.92383420467376709 -0.066471032798290253 -0.37697744369506836
vn -0.92380964756011963 -0.066480830311775208 -0.37703582644462585
vn -0.92385870218276978 -0.066461235284805298 -0.37691903114318848
vn -0.79343581199645996 -0.10569213330745697 -0.59940707683563232
vn -0.79343581199645996 -0.10569213330745697 -0.59940707683563232
vn -0.79344463348388672 -0.10569024085998535 -0.59939569234848022
vn -0.79342693090438843 -0.10569403320550919 -0.59941846132278442
vn -0.60862064361572266 -0.13778287172317505 -0.7814069390296936
vn -0.60862064361572266 -0.13778287172317505 -0.7814069390296936
vn -0.6087261438369751 -0.13776983320713043 -0.78132706880569458
vn -0.60851514339447021 -0.13779592514038086 -0.78148680925369263
vn -0.38273417949676514 -0.16042540967464447 -0.90982317924499512
vn -0.38273417949676514 -0.16042540967464447 -0.90982317924499512
vn -0.38279557228088379 -0.1604204922914505 -0.90979820489883423
vn -0.38267281651496887 -0.16043032705783844 -0.90984815359115601
vn -0.13066892325878143 -0.17215976119041443 -0.97636401653289795
vn -0.13066892325878143 -0.17215976119041443 -0.97636401653289795
vn -0.13055121898651123 -0.17216154932975769 -0.97637939453125
vn -0.13078662753105164 -0.17215795814990997 -0.97634857892990112
vn 0.13066893815994263 -0.17215976119041443 -0.97636401653289795
vn 0.13066893815994263 -0.17215976119041443 -0.97636401653289795
vn 0.13055118918418884 -0.17216335237026215 -0.97637909650802612
vn 0.13078667223453522 -0.17215615510940552 -0.976348876953125
vn 0.38273417949676514 -0.16042540967464447 -0.90982317924499512
vn 0.38273417949676514 -0.16042540967464447 -0.90982317924499512
vn 0.38267281651496887 -0.16043032705783844 -0.90984815359115601
vn 0.38279557228088379 -0.1604204922914505 -0.90979820489883423
vn 0.60885560512542725 -0.13775157928466797 -0.78122937679290771
vn 0.60885560512542725 -0.13775157928466797 -0.78122937679290771
vn 0.60875016450881958 -0.13776463270187378 -0.78130924701690674
vn 0.60896110534667969 -0.13773852586746216 -0.78114944696426392
vn 0.79320085048675537 -0.10574530065059662 -0.59970855712890625
vn 0.79320085048675537 -0.10574530065059662 -0.59970855712890625
vn 0.79320967197418213 -0.105743408203125 -0.59969717264175415
vn 0.79319196939468384 -0.10574720054864883 -0.59972000122070312
vn 0.92400616407394409 -0.066398926079273224 -0.3765684962272644
vn 0.92400616407394409 -0.066398926079273224 -0.3765684962272644
vn 0.924030601978302 -0.066389136016368866 -0.3765101432800293
vn 0.92398166656494141 -0.066408716142177582 -0.37662684917449951
vn 0.99139928817749023 -0.022725533694028854 -0.12888382375240326
vn 0.99139928817749023 -0.022725533694028854 -0.12888382375240326
vn 0.99139761924743652 -0.022727595642209053 -0.1288960725069046
vn 0.99140089750289917 -0.022723471745848656 -0.12887157499790192
vn 0.99140089750289917 0.022723471745848656 0.12887157499790192
vn 0.99140089750289917 0.022723471745848656 0.12887157499790192
vn 0.99140089750289917 0.022723471745848656 0.12887157499790192
vn 0.99140089750289917 0.022723471745848656 0.12887157499790192
vn 0.92398512363433838 0.066407889127731323 0.37661850452423096
vn 0.92398512363433838 0.066407889127731323 0.37661850452423096
vn 0.92398160696029663 0.066409289836883545 0.37662684917449951
vn 0.92398864030838013 0.066406488418579102 0.3766101598739624
vn 0.79319196939468384 0.10574674606323242 0.59972000122070312
vn 0.79319196939468384 0.10574674606323242 0.59972000122070312
vn 0.79319196939468384 0.10574674606323242 0.59972000122070312
vn 0.79319196939468384 0.10574674606323242 0.59972000122070312
vn 0.60894608497619629 0.13773950934410095 0.78116095066070557
vn 0.60894608497619629 0.13773950934410095 0.78116095066070557
vn 0.60896116495132446 0.13773764669895172 0.78114956617355347
vn 0.60893106460571289 0.13774137198925018 0.78117239475250244
vn 0.38269329071044922 0.16042901575565338 0.90983974933624268
vn 0.38269329071044922 0.16042901575565338 0.90983974933624268
vn 0.38271373510360718 0.16042737662792206 0.9098314642906189
vn 0.38267281651496887 0.1604306548833847 0.90984809398651123
f 1/1/1 2/2/2 3/3/3
f 2/2/2 1/1/1 4/4/4
f 5/5/5 6/6/6 7/7/7
f 6/6/6 5/5/5 8/8/8
f 9/9/9 10/10/10 11/11/11
f 9/9/9 12/12/12 10/10/10
f 9/9/9 13/13/13 12/12/12
f 14/14/14 13/13/13 9/9/9
f 15/15/15 13/13/13 14/14/14
f 15/15/15 16/16/16 13/13/13
f 17/17/17 16/16/16 15/15/15
f 17/17/17 18/18/18 16/16/16
f 19/19/19 18/18/18 17/17/17
f 19/19/19 20/20/20 18/18/18
f 19/19/19 21/21/21 20/20/20
f 22/22/22 21/21/21 19/19/19
f 21/21/21 22/22/22 23/23/23
f 11/11/11 24/24/24 25/25/25
f 11/11/11 10/10/10 24/24/24
f 25/25/25 24/24/24 26/26/26
f 25/25/25 26/26/26 27/27/27
f 27/27/27 26/26/26 28/28/28
f 28/28/28 26/26/26 29/29/29
f 28/28/28 29/29/29 30/30/30
f 28/28/28 30/30/30 31/31/31
f 31/31/31 30/30/30 32/32/32
f 33/33/33 34/34/34 35/35/35
f 34/34/34 33/33/33 36/36/36
f 37/37/37 38/38/38 39/39/39
f 38/38/38 37/37/37 40/40/40
f 41/41/41 42/42/42 43/43/43
f 42/42/42 41/41/41 44/44/44
f 45/45/45 46/46/46 47/47/47
f 46/46/46 45/45/45 48/48/48
f 49/49/49 50/50/50 51/51/51
f 50/50/50 49/49/49 52/52/52
f 53/53/53 54/54/54 55/55/55
f 54/54/54 53/53/53 56/56/56
f 57/57/57 58/58/58 59/59/59
f 58/58/58 57/57/57 60/60/60
f 61/61/61 62/62/62 63/63/63
f 62/62/62 61/61/61 64/64/64
f 65/65/65 66/66/66 67/67/67
f 66/66/66 65/65/65 68/68/68
f 69/69/69 70/70/70 71/71/71
f 70/70/70 69/69/69 72/72/72
f 73/73/73 74/74/74 75/75/75
f 74/74/74 73/73/73 76/76/76
f 77/77/77 78/78/78 79/79/79
f 78/78/78 77/77/77 80/80/80
f 81/81/81 82/82/82 83/83/83
f 82/82/82 81/81/81 84/84/84
f 85/85/85 86/86/86 87/87/87
f 86/86/86 85/85/85 88/88/88
f 89/89/89 90/90/90 91/91/91
f 90/90/90 89/89/89 92/92/92
f 93/93/93 94/94/94 95/95/95
f 94/94/94 93/93/93 96/96/96
f 97/97/97 98/98/98 99/99/99
f 98/98/98 97/97/97 100/100/100
f 101/101/101 102/102/102 103/103/103
f 102/102/102 101/101/101 104/104/104
f 105/105/105 106/106/106 107/107/107
f 106/106/106 105/105/105 108/108/108
f 109/109/109 110/110/110 111/111/111
f 110/110/110 109/109/109 112/112/112
f 113/113/113 114/114/114 115/115/115
f 114/114/114 113/113/113 116/116/116
f 117/117/117 118/118/118 119/119/119
f 118/118/118 117/117/117 120/120/120
