# Rhino

v -0.33094146589399998 -0.101043709701 -0.33094146589399998
v -0.33094146589399998 -0.101043709701 -0.33094146589399998
v -0.33094146589399998 -0.101043709701 -0.33094146589399998
v 0.33094146589399998 -0.101043709701 0.33094146589399998
v 0.33094146589399998 -0.101043709701 0.33094146589399998
v 0.33094146589399998 -0.101043709701 0.33094146589399998
v 0.33094146589399998 -0.101043709701 -0.33094146589399998
v 0.33094146589399998 -0.101043709701 -0.33094146589399998
v 0.33094146589399998 -0.101043709701 -0.33094146589399998
v -0.33094146589399998 -0.101043709701 0.33094146589399998
v -0.33094146589399998 -0.101043709701 0.33094146589399998
v -0.33094146589399998 -0.101043709701 0.33094146589399998
v -0.33094146589399998 -0.11503541218299999 0.33094146589399998
v -0.33094146589399998 -0.11503541218299999 0.33094146589399998
v -0.33094146589399998 -0.11503541218299999 0.33094146589399998
v -0.33094146589399998 -0.11503541218299999 -0.33094146589399998
v -0.33094146589399998 -0.11503541218299999 -0.33094146589399998
v -0.33094146589399998 -0.11503541218299999 -0.33094146589399998
v 0.33094146589399998 -0.11503541218299999 -0.33094146589399998
v 0.33094146589399998 -0.11503541218299999 -0.33094146589399998
v 0.33094146589399998 -0.11503541218299999 0.33094146589399998
v 0.33094146589399998 -0.11503541218299999 0.33094146589399998
v 0.33094146589399998 -0.11503541218299999 0.33094146589399998
vt 0.79000002145767212 0
vt 0 0.016699999570846558
vt 0.79000002145767212 0.016699999570846558
vt 0 0.79000002145767212
vt -0.79000002145767212 0.016699999570846558
vt 0 0.016699999570846558
vt 0 0
vt 0 0.016699999570846558
vt 0 0.016699999570846558
vt 0.79000002145767212 0.79000002145767212
vt 0.79000002145767212 0.016699999570846558
vt -0.79000002145767212 0.016699999570846558
vt 0.79000002145767212 0
vt -0.79000002145767212 0
vt -0.79000002145767212 0.79000002145767212
vt 0 0
vt 0.79000002145767212 0
vt -0.79000002145767212 0
vt 0 0
vt 0 0
vt -0.79000002145767212 0
vt 0 0
vt 0 0.79000002145767212
vn 0 1 0
vn -1 0 0
vn 0 0 -1
vn 0 1 0
vn 1 0 0
vn 0 0 1
vn 0 1 0
vn 0 0 -1
vn 1 0 0
vn 0 1 0
vn -1 0 0
vn 0 0 1
vn -1 0 0
vn 0 0 1
vn 0 -1 0
vn -1 0 0
vn 0 0 -1
vn 0 -1 0
vn 0.44721359014511108 0 -0.89442718029022217
vn 0 -1 0
vn 1 0 0
vn 0 0 1
vn 0 -1 0
f 1/1/1 4/4/4 7/7/7
f 4/4/4 1/1/1 10/10/10
f 2/2/2 13/13/13 11/11/11
f 13/13/13 2/2/2 16/16/16
f 3/3/3 19/19/19 17/17/17
f 19/19/19 3/3/3 8/8/8
f 9/9/9 21/21/21 19/19/19
f 21/21/21 9/9/9 5/5/5
f 12/12/12 22/22/22 6/6/6
f 22/22/22 12/12/12 14/14/14
f 15/15/15 20/20/20 23/23/23
f 20/20/20 15/15/15 18/18/18
