# Rhino

v 0.331440296104 0.30650068859200003 0.12717109207399999
v 0.331440296104 0.30650068859200003 0.12717109207399999
v 0.331440296104 0.30650068859200003 0.12717109207399999
v 0.32588569668 0.202673191527 0.12717109207399999
v 0.32588569668 0.202673191527 0.12717109207399999
v 0.331440296104 0.202673191527 0.12717109207399999
v 0.331440296104 0.202673191527 0.12717109207399999
v 0.331440296104 0.202673191527 0.12717109207399999
v 0.30451119696899998 0.202673191527 0.12717109207399999
v 0.30451119696899998 0.202673191527 0.12717109207399999
v 0.30282340099999999 0.202673191527 0.12717109207399999
v 0.30282340099999999 0.202673191527 0.12717109207399999
v 0.300889999272 0.202673191527 0.12717109207399999
v 0.300889999272 0.202673191527 0.12717109207399999
v 0.27589430186500002 0.202673191527 0.12717109207399999
v 0.27589430186500002 0.202673191527 0.12717109207399999
v 0.27589430186500002 0.202673191527 0.12717109207399999
v 0.27589430186500002 0.30650068859200003 0.12717109207399999
v 0.27589430186500002 0.30650068859200003 0.12717109207399999
v 0.27589430186500002 0.30650068859200003 0.12717109207399999
v 0.27589430186500002 0.30650068859200003 0.18271708631399999
v 0.27589430186500002 0.30650068859200003 0.18271708631399999
v 0.27589430186500002 0.30650068859200003 0.18271708631399999
v 0.331440296104 0.30650068859200003 0.18271708631399999
v 0.331440296104 0.30650068859200003 0.18271708631399999
v 0.331440296104 0.30650068859200003 0.18271708631399999
v 0.331440296104 0.202673191527 0.18271708631399999
v 0.331440296104 0.202673191527 0.18271708631399999
v 0.331440296104 0.202673191527 0.18271708631399999
v 0.331215936519 0.202673191527 0.15460882458700001
v 0.33027770552699998 0.202673191527 0.147478693971
v 0.32752505137499999 0.202673191527 0.140834420835
v 0.32314748992600001 0.202673191527 0.13512888859899999
v 0.31744161775200003 0.202673191527 0.13075081724199999
v 0.31079751458499999 0.202673191527 0.127998672998
v 0.31079751458499999 0.202673191527 0.18121897617499999
v 0.30366729898400002 0.202673191527 0.182157632091
v 0.296537083383 0.202673191527 0.18121897617499999
v 0.296537083383 0.202673191527 0.127998672998
v 0.289892980217 0.202673191527 0.178466831932
v 0.289892980217 0.202673191527 0.13075081724199999
v 0.28418710804199998 0.202673191527 0.174088760574
v 0.28418710804199998 0.202673191527 0.13512888859899999
v 0.279809546593 0.202673191527 0.16838322833899999
v 0.279809546593 0.202673191527 0.140834420835
v 0.27705689244199999 0.202673191527 0.161738955203
v 0.27705689244199999 0.202673191527 0.147478693971
v 0.27611866145000002 0.202673191527 0.15460882458700001
v 0.27589430186500002 0.202673191527 0.15216678948199999
v 0.27589430186500002 0.202673191527 0.15216678948199999
v 0.27589430186500002 0.202673191527 0.17716248689
v 0.27589430186500002 0.202673191527 0.17716248689
v 0.27589430186500002 0.202673191527 0.18271708631399999
v 0.27589430186500002 0.202673191527 0.18271708631399999
v 0.27589430186500002 0.202673191527 0.18271708631399999
v 0.31744161775200003 0.202673191527 0.178466831932
v 0.32314748992600001 0.202673191527 0.174088760574
v 0.32752505137499999 0.202673191527 0.16838322833899999
v 0.33027770552699998 0.202673191527 0.161738955203
vt 31.102399826049805 28.814199447631836
vt -31.102399826049805 2.9669299125671387
vt -2.9669299125671387 28.814199447631836
vt 30.844999313354492 22.875999450683594
vt 30.844999313354492 2.9669299125671387
vt 31.102399826049805 22.875999450683594
vt -2.9669299125671387 22.875999450683594
vt 31.102399826049805 2.9669299125671387
vt 29.854799270629883 2.9669299125671387
vt 29.854799270629883 22.875999450683594
vt 29.776699066162109 2.9669299125671387
vt 29.776699066162109 22.875999450683594
vt 29.687099456787109 22.875999450683594
vt 29.687099456787109 2.9669299125671387
vt 28.52910041809082 22.875999450683594
vt 28.52910041809082 2.9669299125671387
vt 2.9669299125671387 22.875999450683594
vt 28.52910041809082 28.814199447631836
vt -28.52910041809082 2.9669299125671387
vt 2.9669299125671387 28.814199447631836
vt -28.52910041809082 0.3937009871006012
vt 0.3937009871006012 28.814199447631836
vt -28.52910041809082 28.814199447631836
vt -31.102399826049805 0.3937009871006012
vt -0.3937009871006012 28.814199447631836
vt -31.102399826049805 28.814199447631836
vt -0.3937009871006012 22.875999450683594
vt 31.102399826049805 0.3937009871006012
vt -31.102399826049805 22.875999450683594
vt 31.091999053955078 1.6958500146865845
vt 31.048500061035156 2.0261600017547607
vt 30.920999526977539 2.3339600563049316
vt 30.71820068359375 2.5982799530029297
vt 30.453899383544922 2.8010900020599365
vt 30.146099090576172 2.9285900592803955
vt 30.146099090576172 0.46310299634933472
vt 29.815700531005859 0.41961699724197388
vt 29.48539924621582 0.46310299634933472
vt 29.48539924621582 2.9285900592803955
vt 29.177600860595703 0.59059900045394897
vt 29.177600860595703 2.8010900020599365
vt 28.913299560546875 0.79341602325439453
vt 28.913299560546875 2.5982799530029297
vt 28.710500717163086 1.057729959487915
vt 28.710500717163086 2.3339600563049316
vt 28.583000183105469 1.3655300140380859
vt 28.583000183105469 2.0261600017547607
vt 28.539499282836914 1.6958500146865845
vt 28.52910041809082 1.8089799880981445
vt 1.8089799880981445 22.875999450683594
vt 0.6510239839553833 22.875999450683594
vt 28.52910041809082 0.6510239839553833
vt 0.3937009871006012 22.875999450683594
vt -28.52910041809082 22.875999450683594
vt 28.52910041809082 0.3937009871006012
vt 30.453899383544922 0.59059900045394897
vt 30.71820068359375 0.79341602325439453
vt 30.920999526977539 1.057729959487915
vt 31.048500061035156 1.3655300140380859
vn 0 0 -1
vn 0 1 0
vn 1 0 0
vn 0 0 -1
vn 0 -1 0
vn 0 0 -1
vn 1 0 0
vn 0 -1 0
vn 0 -1 0
vn 0 0 -1
vn 0 -1 0
vn 0 0 -1
vn 0 0 -1
vn 0 -1 0
vn 0 0 -1
vn 0 -1 0
vn -1 0 0
vn 0 0 -1
vn 0 1 0
vn -1 0 0
vn 0 1 0
vn -1 0 0
vn 0 0 1
vn 0 1 0
vn 1 0 0
vn 0 0 1
vn 1 0 0
vn 0 -1 0
vn 0 0 1
vn 0 -1 0
vn 0 -1 0
vn 0 -1 0
vn 0 -1 0
vn 0 -1 0
vn 0 -1 0
vn 0 -1 0
vn 0 -1 0
vn 0 -1 0
vn 0 -1 0
vn 0 -1 0
vn 0 -1 0
vn 0 -1 0
vn 0 -1 0
vn 0 -1 0
vn 0 -1 0
vn 0 -1 0
vn 0 -1 0
vn 0 -1 0
vn 0 -1 0
vn -1 0 0
vn -1 0 0
vn 0 -1 0
vn -1 0 0
vn 0 0 1
vn 0 -1 0
vn 0 -1 0
vn 0 -1 0
vn 0 -1 0
vn 0 -1 0
f 1/1/1 6/6/6 4/4/4
f 4/4/4 10/10/10 1/1/1
f 10/10/10 12/12/12 1/1/1
f 12/12/12 13/13/13 1/1/1
f 13/13/13 15/15/15 1/1/1
f 15/15/15 18/18/18 1/1/1
f 2/2/2 19/19/19 21/21/21
f 21/21/21 24/24/24 2/2/2
f 3/3/3 25/25/25 27/27/27
f 27/27/27 7/7/7 3/3/3
f 8/8/8 28/28/28 30/30/30
f 8/8/8 30/30/30 31/31/31
f 8/8/8 31/31/31 32/32/32
f 5/5/5 8/8/8 32/32/32
f 5/5/5 32/32/32 33/33/33
f 5/5/5 33/33/33 34/34/34
f 5/5/5 34/34/34 35/35/35
f 35/35/35 9/9/9 5/5/5
f 9/9/9 35/35/35 36/36/36
f 9/9/9 36/36/36 37/37/37
f 11/11/11 9/9/9 37/37/37
f 11/11/11 37/37/37 38/38/38
f 39/39/39 11/11/11 38/38/38
f 39/39/39 38/38/38 40/40/40
f 41/41/41 39/39/39 40/40/40
f 41/41/41 40/40/40 42/42/42
f 43/43/43 41/41/41 42/42/42
f 43/43/43 42/42/42 44/44/44
f 45/45/45 43/43/43 44/44/44
f 45/45/45 44/44/44 46/46/46
f 47/47/47 45/45/45 46/46/46
f 46/46/46 48/48/48 47/47/47
f 47/47/47 48/48/48 49/49/49
f 47/47/47 49/49/49 16/16/16
f 45/45/45 47/47/47 16/16/16
f 43/43/43 45/45/45 16/16/16
f 41/41/41 43/43/43 16/16/16
f 39/39/39 41/41/41 16/16/16
f 16/16/16 14/14/14 39/39/39
f 14/14/14 11/11/11 39/39/39
f 20/20/20 17/17/17 50/50/50
f 20/20/20 50/50/50 51/51/51
f 22/22/22 20/20/20 51/51/51
f 51/51/51 53/53/53 22/22/22
f 23/23/23 54/54/54 29/29/29
f 29/29/29 26/26/26 23/23/23
f 37/37/37 28/28/28 55/55/55
f 38/38/38 37/37/37 55/55/55
f 55/55/55 52/52/52 38/38/38
f 52/52/52 40/40/40 38/38/38
f 52/52/52 42/42/42 40/40/40
f 52/52/52 44/44/44 42/42/42
f 52/52/52 46/46/46 44/44/44
f 52/52/52 48/48/48 46/46/46
f 48/48/48 52/52/52 49/49/49
f 37/37/37 36/36/36 28/28/28
f 36/36/36 56/56/56 28/28/28
f 56/56/56 57/57/57 28/28/28
f 57/57/57 58/58/58 28/28/28
f 58/58/58 59/59/59 28/28/28
f 59/59/59 30/30/30 28/28/28
f 31/31/31 30/30/30 59/59/59
f 32/32/32 31/31/31 59/59/59
f 32/32/32 59/59/59 58/58/58
f 32/32/32 58/58/58 57/57/57
f 33/33/33 32/32/32 57/57/57
f 33/33/33 57/57/57 56/56/56
f 34/34/34 33/33/33 56/56/56
f 34/34/34 56/56/56 36/36/36
f 35/35/35 34/34/34 36/36/36
