# Rhino

v -0.35015200350699999 0.152102241118 0.193038185231
v -0.35015200350699999 0.152102241118 0.193038185231
v -0.35015200350699999 0.152102241118 0.193038185231
v 0.349647026636 0.152102241118 0.193038185231
v 0.349647026636 0.152102241118 0.193038185231
v 0.349647026636 0.152102241118 0.193038185231
v -0.35015200350699999 0.15236097668900001 0.19283963040800001
v -0.35015200350699999 0.15236097668900001 0.19283963040800001
v -0.35015200350699999 0.15236097668900001 0.19283963040800001
v -0.35015200350699999 0.15190389453200001 0.19329697286299999
v -0.35015200350699999 0.15190389453200001 0.19329697286299999
v -0.35015200350699999 0.15190389453200001 0.19329697286299999
v -0.35015200350699999 0.14498362902100001 0.19392168651800001
v -0.35015200350699999 0.14498362902100001 0.19392168651800001
v -0.35015200350699999 0.14498362902100001 0.19392168651800001
v -0.35015200350699999 0.15266240102799999 0.19271484385500001
v -0.35015200350699999 0.15266240102799999 0.19271484385500001
v -0.35015200350699999 0.15266240102799999 0.19271484385500001
v 0.349647026636 0.15236097668900001 0.19283963040800001
v 0.349647026636 0.15236097668900001 0.19283963040800001
v 0.349647026636 0.15236097668900001 0.19283963040800001
v 0.349647026636 0.14498362902100001 0.19392168651800001
v 0.349647026636 0.14498362902100001 0.19392168651800001
v 0.349647026636 0.14498362902100001 0.19392168651800001
v 0.349647026636 0.15190389453200001 0.19329697286299999
v 0.349647026636 0.15190389453200001 0.19329697286299999
v 0.349647026636 0.15190389453200001 0.19329697286299999
v 0.349647026636 0.15177895180100001 0.19359829308199999
v 0.349647026636 0.15177895180100001 0.19359829308199999
v 0.349647026636 0.15177895180100001 0.19359829308199999
v 0.349647026636 0.15173626303500001 0.19392168651800001
v 0.349647026636 0.15173626303500001 0.19392168651800001
v 0.349647026636 0.15173626303500001 0.19392168651800001
v -0.35015200350699999 0.15173626303500001 0.19392168651800001
v -0.35015200350699999 0.15173626303500001 0.19392168651800001
v -0.35015200350699999 0.15173626303500001 0.19392168651800001
v -0.35015200350699999 0.15177895180100001 0.19359829308199999
v -0.35015200350699999 0.15177895180100001 0.19359829308199999
v -0.35015200350699999 0.15177895180100001 0.19359829308199999
v -0.35015200350699999 0.14498362902100001 0.17830384514799999
v -0.35015200350699999 0.15298569034500001 0.19267225920799999
v -0.35015200350699999 0.15298569034500001 0.19267225920799999
v -0.35015200350699999 0.15298569034500001 0.19267225920799999
v -0.35015200350699999 0.18220615095199999 0.19392168651800001
v -0.35015200350699999 0.18220615095199999 0.19392168651800001
v -0.35015200350699999 0.18220615095199999 0.19392168651800001
v -0.35015200350699999 0.15330950025500001 0.19271484385500001
v -0.35015200350699999 0.15330950025500001 0.19271484385500001
v -0.35015200350699999 0.15330950025500001 0.19271484385500001
v -0.35015200350699999 0.153610403999 0.19283963040800001
v -0.35015200350699999 0.153610403999 0.19283963040800001
v -0.35015200350699999 0.153610403999 0.19283963040800001
v -0.35015200350699999 0.15386966016500001 0.193038185231
v -0.35015200350699999 0.15386966016500001 0.193038185231
v -0.35015200350699999 0.15386966016500001 0.193038185231
v -0.35015200350699999 0.15406800675099999 0.19329697286299999
v -0.35015200350699999 0.15406800675099999 0.19329697286299999
v -0.35015200350699999 0.15406800675099999 0.19329697286299999
v -0.35015200350699999 0.15419294948199999 0.19359829308199999
v -0.35015200350699999 0.15419294948199999 0.19359829308199999
v -0.35015200350699999 0.15419294948199999 0.19359829308199999
v -0.35015200350699999 0.15423511765299999 0.19392168651800001
v -0.35015200350699999 0.15423511765299999 0.19392168651800001
v -0.35015200350699999 0.15423511765299999 0.19392168651800001
v 0.349647026636 0.15423511765299999 0.19392168651800001
v 0.349647026636 0.15423511765299999 0.19392168651800001
v 0.349647026636 0.15423511765299999 0.19392168651800001
v 0.349647026636 0.15419294948199999 0.19359829308199999
v 0.349647026636 0.15419294948199999 0.19359829308199999
v 0.349647026636 0.15419294948199999 0.19359829308199999
v 0.349647026636 0.18220615095199999 0.19392168651800001
v 0.349647026636 0.18220615095199999 0.19392168651800001
v 0.349647026636 0.18220615095199999 0.19392168651800001
v 0.349647026636 0.15406800675099999 0.19329697286299999
v 0.349647026636 0.15406800675099999 0.19329697286299999
v 0.349647026636 0.15406800675099999 0.19329697286299999
v 0.349647026636 0.15386966016500001 0.193038185231
v 0.349647026636 0.15386966016500001 0.193038185231
v 0.349647026636 0.15386966016500001 0.193038185231
v 0.349647026636 0.153610403999 0.19283963040800001
v 0.349647026636 0.153610403999 0.19283963040800001
v 0.349647026636 0.153610403999 0.19283963040800001
v 0.349647026636 0.15330950025500001 0.19271484385500001
v 0.349647026636 0.15330950025500001 0.19271484385500001
v 0.349647026636 0.15330950025500001 0.19271484385500001
v 0.349647026636 0.15298569034500001 0.19267225920799999
v 0.349647026636 0.15298569034500001 0.19267225920799999
v 0.349647026636 0.15298569034500001 0.19267225920799999
v 0.349647026636 0.15266240102799999 0.19271484385500001
v 0.349647026636 0.15266240102799999 0.19271484385500001
v 0.349647026636 0.15266240102799999 0.19271484385500001
v 0.349647026636 0.18220615095199999 0.17830384514799999
v 0.349647026636 0.18220615095199999 0.17830384514799999
v 0.349647026636 0.18220615095199999 0.17830384514799999
v 0.349647026636 0.14498362902100001 0.17830384514799999
v 0.349647026636 0.14498362902100001 0.17830384514799999
v 0.349647026636 0.14498362902100001 0.17830384514799999
v -0.35015200350699999 0.18220615095199999 0.17830384514799999
v -0.35015200350699999 0.18220615095199999 0.17830384514799999
vt 0 -0.25122401118278503
vt -1.1142899990081787 0.53836297988891602
vt 0 -0.55628997087478638
vt -52.922298431396484 -0.25122401118278503
vt -52.922298431396484 -0.55628997087478638
vt 1.1142899990081787 0.53836297988891602
vt 0 -0.22655799984931946
vt 0 0.094788402318954468
vt -1.0992699861526489 0.55793201923370361
vt -1.1338599920272827 0.52334702014923096
vt 0 -0.58095699548721313
vt 0 -0.84727197885513306
vt 0 0
vt 0 1.1811000108718872
vt -1.1811000108718872 0
vt 0 0.1194550022482872
vt 0 0.43350100517272949
vt -1.0898300409317017 0.58072102069854736
vt -52.922298431396484 -0.22655799984931946
vt -52.922298431396484 0.094788402318954468
vt 1.0992699861526489 0.55793201923370361
vt -52.922298431396484 1.1811000108718872
vt -52.922298431396484 0
vt 1.1811000108718872 0
vt -52.922298431396484 -0.58095699548721313
vt 1.1338599920272827 0.52334702014923096
vt -52.922298431396484 -0.84727197885513306
vt 1.1566499471664429 0.5139080286026001
vt -52.922298431396484 -0.87193900346755981
vt -52.922298431396484 -1.0796699523925781
vt 1.1811000108718872 0.51068800687789917
vt -52.922298431396484 0.51068800687789917
vt -52.922298431396484 -1.1043399572372437
vt 0 0.51068800687789917
vt -1.1811000108718872 0.51068800687789917
vt 0 -1.1043399572372437
vt -1.1566499471664429 0.5139080286026001
vt 0 -0.87193900346755981
vt 0 -1.0796699523925781
vt 0 0
vt 0 0.45816698670387268
vt 0 0.74182999134063721
vt -1.086609959602356 0.60517597198486328
vt -1.1811000108718872 2.8149600028991699
vt 0 2.8149600028991699
vt 0 1.1811000108718872
vt 0 0.76649701595306396
vt 0 0.99876499176025391
vt -1.0898300409317017 0.62963199615478516
vt 0 1.0234299898147583
vt 0 1.1867899894714355
vt -1.0992699861526489 0.65241998434066772
vt 0 1.2114599943161011
vt 0 1.2931100130081177
vt -1.1142899990081787 0.67198902368545532
vt 0 1.3177700042724609
vt -1.1338599920272827 0.68700498342514038
vt 0 1.3104499578475952
vt 0 1.3351199626922607
vt -1.1566499471664429 0.69644498825073242
vt 0 1.2376600503921509
vt -1.1811000108718872 0.69966399669647217
vt 0 0.69966399669647217
vt 0 1.2623200416564941
vt -52.922298431396484 0.69966399669647217
vt 1.1811000108718872 0.69966399669647217
vt -52.922298431396484 1.2623200416564941
vt 1.1566499471664429 0.69644498825073242
vt -52.922298431396484 1.3351199626922607
vt -52.922298431396484 1.2376600503921509
vt 1.1811000108718872 2.8149600028991699
vt -52.922298431396484 2.8149600028991699
vt 52.922298431396484 1.1811000108718872
vt -52.922298431396484 1.3177700042724609
vt 1.1338599920272827 0.68700498342514038
vt -52.922298431396484 1.3104499578475952
vt -52.922298431396484 1.2114599943161011
vt -52.922298431396484 1.2931100130081177
vt 1.1142899990081787 0.67198902368545532
vt -52.922298431396484 1.0234299898147583
vt -52.922298431396484 1.1867899894714355
vt 1.0992699861526489 0.65241998434066772
vt -52.922298431396484 0.76649701595306396
vt -52.922298431396484 0.99876499176025391
vt 1.0898300409317017 0.62963199615478516
vt -52.922298431396484 0.45816698670387268
vt -52.922298431396484 0.74182999134063721
vt 1.086609959602356 0.60517597198486328
vt -52.922298431396484 0.1194550022482872
vt -52.922298431396484 0.43350100517272949
vt 1.0898300409317017 0.58072102069854736
vt 0 2.8149600028991699
vt 52.922298431396484 2.8149600028991699
vt 52.922298431396484 0
vt 0 0
vt 52.922298431396484 0
vt -52.922298431396484 0
vt 0 0
vt 0 2.8149600028991699
vn 0 0.60880011320114136 0.79332369565963745
vn -1 0 0
vn 0 0.79369115829467773 0.60832095146179199
vn 0 0.60880011320114136 0.79332369565963745
vn 0 0.79369115829467773 0.60832095146179199
vn 1 0 0
vn 0 0.60880011320114136 0.79332369565963745
vn 0 0.38250681757926941 0.92395263910293579
vn -1 0 0
vn -1 0 0
vn 0 0.79369115829467773 0.60832095146179199
vn 0 0.92373663187026978 0.3830282986164093
vn 0 0 1
vn 0 -1 0
vn -1 0 0
vn 0 0.38250681757926941 0.92395263910293579
vn 0 0.13059492409229279 0.99143582582473755
vn -1 0 0
vn 0 0.60880011320114136 0.79332369565963745
vn 0 0.38250681757926941 0.92395263910293579
vn 1 0 0
vn 0 -1 0
vn 0 0 1
vn 1 0 0
vn 0 0.79369115829467773 0.60832095146179199
vn 1 0 0
vn 0 0.92373663187026978 0.3830282986164093
vn 1 0 0
vn 0 0.92373663187026978 0.3830282986164093
vn 0 0.99139988422393799 0.13086733222007751
vn 1 0 0
vn 0 0 1
vn 0 0.99139988422393799 0.13086733222007751
vn 0 0 1
vn -1 0 0
vn 0 0.99139988422393799 0.13086733222007751
vn -1 0 0
vn 0 0.92373663187026978 0.3830282986164093
vn 0 0.99139988422393799 0.13086733222007751
vn -0.81649661064147949 -0.40824830532073975 -0.40824830532073975
vn 0 0.13059492409229279 0.99143582582473755
vn 0 -0.130388543009758 0.99146294593811035
vn -1 0 0
vn -1 0 0
vn 0 0 1
vn 0 1 0
vn 0 -0.130388543009758 0.99146294593811035
vn 0 -0.38307157158851624 0.92371869087219238
vn -1 0 0
vn 0 -0.38307157158851624 0.92371869087219238
vn 0 -0.60802984237670898 0.79391413927078247
vn -1 0 0
vn 0 -0.60802984237670898 0.79391413927078247
vn 0 -0.79369115829467773 0.60832095146179199
vn -1 0 0
vn 0 -0.79369115829467773 0.60832095146179199
vn -1 0 0
vn 0 -0.92373663187026978 0.3830282986164093
vn 0 -0.92373663187026978 0.3830282986164093
vn -1 0 0
vn 0 -0.99160575866699219 0.12929823994636536
vn -1 0 0
vn 0 0 1
vn 0 -0.99160575866699219 0.12929823994636536
vn 0 0 1
vn 1 0 0
vn 0 -0.99160575866699219 0.12929823994636536
vn 1 0 0
vn 0 -0.92373663187026978 0.3830282986164093
vn 0 -0.99160575866699219 0.12929823994636536
vn 1 0 0
vn 0 0 1
vn 0 1 0
vn 0 -0.79369115829467773 0.60832095146179199
vn 1 0 0
vn 0 -0.92373663187026978 0.3830282986164093
vn 0 -0.60802984237670898 0.79391413927078247
vn 0 -0.79369115829467773 0.60832095146179199
vn 1 0 0
vn 0 -0.38307157158851624 0.92371869087219238
vn 0 -0.60802984237670898 0.79391413927078247
vn 1 0 0
vn 0 -0.130388543009758 0.99146294593811035
vn 0 -0.38307157158851624 0.92371869087219238
vn 1 0 0
vn 0 0.13059492409229279 0.99143582582473755
vn 0 -0.130388543009758 0.99146294593811035
vn 1 0 0
vn 0 0.38250681757926941 0.92395263910293579
vn 0 0.13059492409229279 0.99143582582473755
vn 1 0 0
vn 1 0 0
vn 0 0 -1
vn 0 1 0
vn 1 0 0
vn 0 0 -1
vn 0 -1 0
vn 0 1 0
vn -0.70710676908493042 0 -0.70710676908493042
f 1/1/1 4/4/4 7/7/7
f 3/3/3 11/11/11 5/5/5
f 10/10/10 2/2/2 15/15/15
f 2/2/2 9/9/9 15/15/15
f 9/9/9 18/18/18 15/15/15
f 8/8/8 20/20/20 16/16/16
f 19/19/19 7/7/7 4/4/4
f 6/6/6 24/24/24 21/21/21
f 26/26/26 24/24/24 6/6/6
f 28/28/28 24/24/24 26/26/26
f 31/31/31 24/24/24 28/28/28
f 32/32/32 34/34/34 23/23/23
f 33/33/33 30/30/30 36/36/36
f 39/39/39 36/36/36 30/30/30
f 35/35/35 37/37/37 15/15/15
f 37/37/37 10/10/10 15/15/15
f 12/12/12 38/38/38 27/27/27
f 29/29/29 27/27/27 38/38/38
f 25/25/25 5/5/5 11/11/11
f 13/13/13 23/23/23 34/34/34
f 14/14/14 40/40/40 22/22/22
f 15/15/15 18/18/18 40/40/40
f 43/43/43 40/40/40 18/18/18
f 43/43/43 44/44/44 40/40/40
f 49/49/49 44/44/44 43/43/43
f 52/52/52 44/44/44 49/49/49
f 55/55/55 44/44/44 52/52/52
f 57/57/57 44/44/44 55/55/55
f 60/60/60 44/44/44 57/57/57
f 62/62/62 44/44/44 60/60/60
f 63/63/63 65/65/65 45/45/45
f 64/64/64 61/61/61 67/67/67
f 70/70/70 67/67/67 61/61/61
f 66/66/66 68/68/68 71/71/71
f 68/68/68 75/75/75 71/71/71
f 76/76/76 69/69/69 58/58/58
f 59/59/59 58/58/58 69/69/69
f 56/56/56 54/54/54 74/74/74
f 78/78/78 74/74/74 54/54/54
f 75/75/75 79/79/79 71/71/71
f 79/79/79 82/82/82 71/71/71
f 77/77/77 53/53/53 81/81/81
f 51/51/51 81/81/81 53/53/53
f 80/80/80 50/50/50 84/84/84
f 48/48/48 84/84/84 50/50/50
f 83/83/83 47/47/47 87/87/87
f 42/42/42 87/87/87 47/47/47
f 86/86/86 41/41/41 90/90/90
f 17/17/17 90/90/90 41/41/41
f 89/89/89 16/16/16 20/20/20
f 21/21/21 24/24/24 91/91/91
f 91/91/91 24/24/24 92/92/92
f 95/95/95 92/92/92 24/24/24
f 96/96/96 40/40/40 93/93/93
f 97/97/97 22/22/22 40/40/40
f 99/99/99 93/93/93 40/40/40
f 98/98/98 46/46/46 94/94/94
f 99/99/99 40/40/40 44/44/44
f 73/73/73 94/94/94 46/46/46
f 92/92/92 71/71/71 88/88/88
f 85/85/85 88/88/88 71/71/71
f 82/82/82 85/85/85 71/71/71
f 88/88/88 91/91/91 92/92/92
f 72/72/72 45/45/45 65/65/65
