# Rhino

v 0.120128837658 -0.35141999163400001 0.234146452895
v 0.117073226448 -0.35121967934300002 0.234146452895
v 0.234146452895 -0.28097574347499998 0.234146452895
v 0.234146452895 -0.28097574347499998 0.234146452895
v -0.117073226448 -0.35121967934300002 0.234146452895
v -0.120128837658 -0.35141999163400001 0.234146452895
v -0.234146452895 -0.28097574347499998 0.234146452895
v -0.234146452895 -0.28097574347499998 0.234146452895
v -0.123137619578 -0.352017533381 0.234146452895
v -0.234146452895 -0.374634324633 0.234146452895
v -0.234146452895 -0.374634324633 0.234146452895
v -0.12604103559400001 -0.35300200214299998 0.234146452895
v -0.234146452895 -0.37157810464199997 -0.140288847252
v -0.234146452895 -0.374634324633 -0.140487871737
v -0.234146452895 -0.28097574347499998 -0.234146452895
v -0.234146452895 -0.28097574347499998 -0.234146452895
v -0.234146452895 -0.374634324633 -0.234146452895
v -0.234146452895 -0.374634324633 -0.234146452895
v -0.140487871737 -0.374634324633 -0.234146452895
v -0.140288847252 -0.37157810464199997 -0.234146452895
v -0.13969177379700001 -0.36857416955299999 -0.234146452895
v -0.13870835869500001 -0.36567392622200001 -0.234146452895
v -0.13735030926799999 -0.36292700198799999 -0.234146452895
v -0.135652747485 -0.360380425166 -0.234146452895
v -0.133627380667 -0.35807771187499998 -0.234146452895
v -0.131332745429 -0.35605819871900002 -0.234146452895
v -0.12878054909200001 -0.35435665644600001 -0.234146452895
v -0.12604103559400001 -0.35300200214299998 -0.234146452895
v -0.123137619578 -0.352017533381 -0.234146452895
v -0.120128837658 -0.35141999163400001 -0.234146452895
v -0.117073226448 -0.35121967934300002 -0.234146452895
v 0.117073226448 -0.35121967934300002 -0.234146452895
v 0.234146452895 -0.28097574347499998 -0.234146452895
v 0.234146452895 -0.28097574347499998 -0.234146452895
v -0.234146452895 -0.35121967934300002 0.117073226448
v -0.234146452895 -0.35141999163400001 0.120128837658
v -0.234146452895 -0.352017533381 0.123125912255
v -0.234146452895 -0.35300200214299998 0.126029328271
v -0.234146452895 -0.35435665644600001 0.12878054909200001
v -0.234146452895 -0.35605819871900002 0.13132103810599999
v -0.234146452895 -0.35807771187499998 0.133627380667
v -0.234146452895 -0.360380425166 0.135652747485
v -0.234146452895 -0.36292700198799999 0.13735030926799999
v -0.234146452895 -0.36567392622200001 0.13870835869500001
v -0.234146452895 -0.36857416955299999 0.13969177379700001
v -0.234146452895 -0.37157810464199997 0.140288847252
v -0.234146452895 -0.374634324633 0.140487871737
v -0.234146452895 -0.35121967934300002 -0.117073226448
v -0.234146452895 -0.35141999163400001 -0.120128837658
v -0.234146452895 -0.352017533381 -0.123137619578
v -0.234146452895 -0.35300200214299998 -0.12604103559400001
v -0.234146452895 -0.35435665644600001 -0.12878054909200001
v -0.234146452895 -0.35605819871900002 -0.131332745429
v -0.234146452895 -0.35807771187499998 -0.133627380667
v -0.234146452895 -0.360380425166 -0.135652747485
v -0.234146452895 -0.36292700198799999 -0.13735030926799999
v -0.234146452895 -0.36567392622200001 -0.13870835869500001
v -0.234146452895 -0.36857416955299999 -0.13969177379700001
v -0.12878054909200001 -0.35435665644600001 0.234146452895
v -0.131332745429 -0.35605819871900002 0.234146452895
v -0.133627380667 -0.35807771187499998 0.234146452895
v -0.135652747485 -0.360380425166 0.234146452895
v -0.13735030926799999 -0.36292700198799999 0.234146452895
v -0.13870835869500001 -0.36567392622200001 0.234146452895
v -0.13969177379700001 -0.36857416955299999 0.234146452895
v -0.140288847252 -0.37157810464199997 0.234146452895
v -0.140487871737 -0.374634324633 0.234146452895
v 0.234146452895 -0.35121967934300002 -0.117073226448
v 0.234146452895 -0.35141999163400001 -0.120128837658
v 0.234146452895 -0.352017533381 -0.123137619578
v 0.234146452895 -0.35300200214299998 -0.12604103559400001
v 0.234146452895 -0.35435665644600001 -0.12878054909200001
v 0.234146452895 -0.35605819871900002 -0.131332745429
v 0.234146452895 -0.35807771187499998 -0.133627380667
v 0.234146452895 -0.360380425166 -0.135652747485
v 0.234146452895 -0.36292700198799999 -0.13735030926799999
v 0.234146452895 -0.36567392622200001 -0.13870835869500001
v 0.234146452895 -0.36857416955299999 -0.13969177379700001
v 0.234146452895 -0.37157810464199997 -0.140288847252
v 0.234146452895 -0.374634324633 -0.234146452895
v 0.234146452895 -0.374634324633 -0.234146452895
v 0.234146452895 -0.374634324633 -0.140487871737
v 0.140487871737 -0.374634324633 -0.234146452895
v 0.140288847252 -0.37157810464199997 -0.234146452895
v 0.13969177379700001 -0.36857416955299999 -0.234146452895
v 0.13870835869500001 -0.36567392622200001 -0.234146452895
v 0.13735030926799999 -0.36292700198799999 -0.234146452895
v 0.135652747485 -0.360380425166 -0.234146452895
v 0.133627380667 -0.35807771187499998 -0.234146452895
v 0.13132103810599999 -0.35605819871900002 -0.234146452895
v 0.120128837658 -0.35141999163400001 -0.234146452895
v 0.123125912255 -0.352017533381 -0.234146452895
v 0.126029328271 -0.35300200214299998 -0.234146452895
v 0.12878054909200001 -0.35435665644600001 -0.234146452895
v 0.234146452895 -0.35121967934300002 0.117073226448
v 0.234146452895 -0.35141999163400001 0.120128837658
v 0.234146452895 -0.352017533381 0.123125912255
v 0.234146452895 -0.35300200214299998 0.126029328271
v 0.234146452895 -0.35435665644600001 0.12878054909200001
v 0.234146452895 -0.35605819871900002 0.13132103810599999
v 0.234146452895 -0.35807771187499998 0.133627380667
v 0.234146452895 -0.360380425166 0.135652747485
v 0.234146452895 -0.36292700198799999 0.13735030926799999
v 0.234146452895 -0.36567392622200001 0.13870835869500001
v 0.234146452895 -0.36857416955299999 0.13969177379700001
v 0.234146452895 -0.37157810464199997 0.140288847252
v 0.234146452895 -0.374634324633 0.140487871737
v 0.234146452895 -0.374634324633 0.234146452895
v 0.234146452895 -0.374634324633 0.234146452895
v 0.140487871737 -0.374634324633 0.234146452895
v 0.140288847252 -0.37157810464199997 0.234146452895
v 0.13969177379700001 -0.36857416955299999 0.234146452895
v 0.13870835869500001 -0.36567392622200001 0.234146452895
v 0.13735030926799999 -0.36292700198799999 0.234146452895
v 0.135652747485 -0.360380425166 0.234146452895
v 0.133627380667 -0.35807771187499998 0.234146452895
v 0.13132103810599999 -0.35605819871900002 0.234146452895
v 0.12878054909200001 -0.35435665644600001 0.234146452895
v 0.126029328271 -0.35300200214299998 0.234146452895
v 0.123125912255 -0.352017533381 0.234146452895
vt -11.913800239562988 0.78066498041152954
vt -11.810999870300293 0.78740197420120239
vt -15.748000144958496 3.1496100425720215
vt 15.748000144958496 3.1496100425720215
vt -3.9370100498199463 0.78740197420120239
vt -3.8342299461364746 0.78066498041152954
vt 0 3.1496100425720215
vt -15.748000144958496 3.1496100425720215
vt -3.7332100868225098 0.76057201623916626
vt 0 0
vt -15.748000144958496 0
vt -3.6356799602508545 0.72746402025222778
vt -3.1563398838043213 0.10277699679136276
vt -3.1496100425720215 0
vt 0 3.1496100425720215
vt 0 3.1496100425720215
vt 0 0
vt 0 0
vt 3.1496100425720215 0
vt 3.1563398838043213 0.10277699679136276
vt 3.1764400005340576 0.20379500091075897
vt 3.2095398902893066 0.30132600665092468
vt 3.2551000118255615 0.3937009871006012
vt 3.3123199939727783 0.47933998703956604
vt 3.3802299499511719 0.55677700042724609
vt 3.4576699733734131 0.62468802928924561
vt 3.5433099269866943 0.68190997838973999
vt 3.6356799602508545 0.72746402025222778
vt 3.7332100868225098 0.76057201623916626
vt 3.8342299461364746 0.78066498041152954
vt 3.9370100498199463 0.78740197420120239
vt 11.810999870300293 0.78740197420120239
vt 15.748000144958496 3.1496100425720215
vt 0 3.1496100425720215
vt -11.810999870300293 0.78740197420120239
vt -11.913800239562988 0.78066498041152954
vt -12.014800071716309 0.76057201623916626
vt -12.112299919128418 0.72746402025222778
vt -12.204700469970703 0.68190997838973999
vt -12.290399551391602 0.62468802928924561
vt -12.367799758911133 0.55677700042724609
vt -12.435700416564941 0.47933998703956604
vt -12.492899894714355 0.3937009871006012
vt -12.53849983215332 0.30132600665092468
vt -12.571599960327148 0.20379500091075897
vt -12.591699600219727 0.10277699679136276
vt -12.598400115966797 0
vt -3.9370100498199463 0.78740197420120239
vt -3.8342299461364746 0.78066498041152954
vt -3.7332100868225098 0.76057201623916626
vt -3.6356799602508545 0.72746402025222778
vt -3.5433099269866943 0.68190997838973999
vt -3.4576699733734131 0.62468802928924561
vt -3.3802299499511719 0.55677700042724609
vt -3.3123199939727783 0.47933998703956604
vt -3.2551000118255615 0.3937009871006012
vt -3.2095398902893066 0.30132600665092468
vt -3.1764400005340576 0.20379500091075897
vt -3.5433099269866943 0.68190997838973999
vt -3.4576699733734131 0.62468802928924561
vt -3.3802299499511719 0.55677700042724609
vt -3.3123199939727783 0.47933998703956604
vt -3.2551000118255615 0.3937009871006012
vt -3.2095398902893066 0.30132600665092468
vt -3.1764400005340576 0.20379500091075897
vt -3.1563398838043213 0.10277699679136276
vt -3.1496100425720215 0
vt 3.9370100498199463 0.78740197420120239
vt 3.8342299461364746 0.78066498041152954
vt 3.7332100868225098 0.76057201623916626
vt 3.6356799602508545 0.72746402025222778
vt 3.5433099269866943 0.68190997838973999
vt 3.4576699733734131 0.62468802928924561
vt 3.3802299499511719 0.55677700042724609
vt 3.3123199939727783 0.47933998703956604
vt 3.2551000118255615 0.3937009871006012
vt 3.2095398902893066 0.30132600665092468
vt 3.1764400005340576 0.20379500091075897
vt 3.1563398838043213 0.10277699679136276
vt 0 0
vt 15.748000144958496 0
vt 3.1496100425720215 0
vt 12.598400115966797 0
vt 12.591699600219727 0.10277699679136276
vt 12.571599960327148 0.20379500091075897
vt 12.53849983215332 0.30132600665092468
vt 12.492899894714355 0.3937009871006012
vt 12.435700416564941 0.47933998703956604
vt 12.367799758911133 0.55677700042724609
vt 12.290399551391602 0.62468802928924561
vt 11.913800239562988 0.78066498041152954
vt 12.014800071716309 0.76057201623916626
vt 12.112299919128418 0.72746402025222778
vt 12.204700469970703 0.68190997838973999
vt 11.810999870300293 0.78740197420120239
vt 11.913800239562988 0.78066498041152954
vt 12.014800071716309 0.76057201623916626
vt 12.112299919128418 0.72746402025222778
vt 12.204700469970703 0.68190997838973999
vt 12.290399551391602 0.62468802928924561
vt 12.367799758911133 0.55677700042724609
vt 12.435700416564941 0.47933998703956604
vt 12.492899894714355 0.3937009871006012
vt 12.53849983215332 0.30132600665092468
vt 12.571599960327148 0.20379500091075897
vt 12.591699600219727 0.10277699679136276
vt 12.598400115966797 0
vt 15.748000144958496 0
vt -15.748000144958496 0
vt -12.598400115966797 0
vt -12.591699600219727 0.10277699679136276
vt -12.571599960327148 0.20379500091075897
vt -12.53849983215332 0.30132600665092468
vt -12.492899894714355 0.3937009871006012
vt -12.435700416564941 0.47933998703956604
vt -12.367799758911133 0.55677700042724609
vt -12.290399551391602 0.62468802928924561
vt -12.204700469970703 0.68190997838973999
vt -12.112299919128418 0.72746402025222778
vt -12.014800071716309 0.76057201623916626
vn 0 0 -1
vn 0 0 -1
vn 0 0 -1
vn -1 0 0
vn 0 0 -1
vn 0 0 -1
vn 0 0 -1
vn 1 0 0
vn 0 0 -1
vn 0 0 -1
vn 1 0 0
vn 0 0 -1
vn 1 0 0
vn 1 0 0
vn 1 0 0
vn 0 0 1
vn 1 0 0
vn 0 0 1
vn 0 0 1
vn 0 0 1
vn 0 0 1
vn 0 0 1
vn 0 0 1
vn 0 0 1
vn 0 0 1
vn 0 0 1
vn 0 0 1
vn 0 0 1
vn 0 0 1
vn 0 0 1
vn 0 0 1
vn 0 0 1
vn 0 0 1
vn -1 0 0
vn 1 0 0
vn 1 0 0
vn 1 0 0
vn 1 0 0
vn 1 0 0
vn 1 0 0
vn 1 0 0
vn 1 0 0
vn 1 0 0
vn 1 0 0
vn 1 0 0
vn 1 0 0
vn 1 0 0
vn 1 0 0
vn 1 0 0
vn 1 0 0
vn 1 0 0
vn 1 0 0
vn 1 0 0
vn 1 0 0
vn 1 0 0
vn 1 0 0
vn 1 0 0
vn 1 0 0
vn 0 0 -1
vn 0 0 -1
vn 0 0 -1
vn 0 0 -1
vn 0 0 -1
vn 0 0 -1
vn 0 0 -1
vn 0 0 -1
vn 0 0 -1
vn -1 0 0
vn -1 0 0
vn -1 0 0
vn -1 0 0
vn -1 0 0
vn -1 0 0
vn -1 0 0
vn -1 0 0
vn -1 0 0
vn -1 0 0
vn -1 0 0
vn -1 0 0
vn -1 0 0
vn 0 0 1
vn -1 0 0
vn 0 0 1
vn 0 0 1
vn 0 0 1
vn 0 0 1
vn 0 0 1
vn 0 0 1
vn 0 0 1
vn 0 0 1
vn 0 0 1
vn 0 0 1
vn 0 0 1
vn 0 0 1
vn -1 0 0
vn -1 0 0
vn -1 0 0
vn -1 0 0
vn -1 0 0
vn -1 0 0
vn -1 0 0
vn -1 0 0
vn -1 0 0
vn -1 0 0
vn -1 0 0
vn -1 0 0
vn -1 0 0
vn -1 0 0
vn 0 0 -1
vn 0 0 -1
vn 0 0 -1
vn 0 0 -1
vn 0 0 -1
vn 0 0 -1
vn 0 0 -1
vn 0 0 -1
vn 0 0 -1
vn 0 0 -1
vn 0 0 -1
vn 0 0 -1
f 2/2/2 3/3/3 1/1/1
f 5/5/5 3/3/3 2/2/2
f 6/6/6 3/3/3 5/5/5
f 6/6/6 7/7/7 3/3/3
f 9/9/9 7/7/7 6/6/6
f 7/7/7 9/9/9 10/10/10
f 10/10/10 9/9/9 12/12/12
f 14/14/14 15/15/15 13/13/13
f 15/15/15 14/14/14 17/17/17
f 19/19/19 16/16/16 18/18/18
f 16/16/16 19/19/19 20/20/20
f 16/16/16 20/20/20 21/21/21
f 16/16/16 21/21/21 22/22/22
f 16/16/16 22/22/22 23/23/23
f 16/16/16 23/23/23 24/24/24
f 16/16/16 24/24/24 25/25/25
f 16/16/16 25/25/25 26/26/26
f 16/16/16 26/26/26 27/27/27
f 16/16/16 27/27/27 28/28/28
f 16/16/16 28/28/28 29/29/29
f 16/16/16 29/29/29 30/30/30
f 33/33/33 31/31/31 32/32/32
f 33/33/33 30/30/30 31/31/31
f 16/16/16 30/30/30 33/33/33
f 8/8/8 35/35/35 15/15/15
f 8/8/8 36/36/36 35/35/35
f 8/8/8 37/37/37 36/36/36
f 8/8/8 38/38/38 37/37/37
f 8/8/8 39/39/39 38/38/38
f 8/8/8 40/40/40 39/39/39
f 8/8/8 41/41/41 40/40/40
f 8/8/8 42/42/42 41/41/41
f 8/8/8 43/43/43 42/42/42
f 8/8/8 44/44/44 43/43/43
f 8/8/8 45/45/45 44/44/44
f 8/8/8 46/46/46 45/45/45
f 11/11/11 46/46/46 8/8/8
f 46/46/46 11/11/11 47/47/47
f 55/55/55 15/15/15 54/54/54
f 56/56/56 15/15/15 55/55/55
f 57/57/57 15/15/15 56/56/56
f 58/58/58 15/15/15 57/57/57
f 13/13/13 15/15/15 58/58/58
f 54/54/54 15/15/15 53/53/53
f 53/53/53 15/15/15 52/52/52
f 52/52/52 15/15/15 51/51/51
f 51/51/51 15/15/15 50/50/50
f 50/50/50 15/15/15 49/49/49
f 49/49/49 15/15/15 48/48/48
f 48/48/48 15/15/15 35/35/35
f 10/10/10 12/12/12 59/59/59
f 10/10/10 59/59/59 60/60/60
f 10/10/10 61/61/61 62/62/62
f 10/10/10 60/60/60 61/61/61
f 10/10/10 62/62/62 63/63/63
f 10/10/10 63/63/63 64/64/64
f 10/10/10 64/64/64 65/65/65
f 10/10/10 65/65/65 66/66/66
f 10/10/10 66/66/66 67/67/67
f 34/34/34 68/68/68 4/4/4
f 34/34/34 69/69/69 68/68/68
f 34/34/34 70/70/70 69/69/69
f 34/34/34 71/71/71 70/70/70
f 34/34/34 72/72/72 71/71/71
f 34/34/34 73/73/73 72/72/72
f 34/34/34 74/74/74 73/73/73
f 34/34/34 75/75/75 74/74/74
f 34/34/34 76/76/76 75/75/75
f 34/34/34 77/77/77 76/76/76
f 34/34/34 78/78/78 77/77/77
f 34/34/34 79/79/79 78/78/78
f 80/80/80 79/79/79 34/34/34
f 79/79/79 80/80/80 82/82/82
f 33/33/33 32/32/32 91/91/91
f 33/33/33 91/91/91 92/92/92
f 33/33/33 92/92/92 93/93/93
f 33/33/33 93/93/93 94/94/94
f 33/33/33 94/94/94 90/90/90
f 33/33/33 90/90/90 89/89/89
f 33/33/33 89/89/89 88/88/88
f 33/33/33 88/88/88 87/87/87
f 33/33/33 87/87/87 86/86/86
f 33/33/33 86/86/86 85/85/85
f 33/33/33 85/85/85 84/84/84
f 33/33/33 84/84/84 83/83/83
f 33/33/33 83/83/83 81/81/81
f 102/102/102 4/4/4 101/101/101
f 103/103/103 4/4/4 102/102/102
f 104/104/104 4/4/4 103/103/103
f 105/105/105 4/4/4 104/104/104
f 106/106/106 4/4/4 105/105/105
f 107/107/107 4/4/4 106/106/106
f 4/4/4 107/107/107 108/108/108
f 110/110/110 3/3/3 109/109/109
f 111/111/111 3/3/3 110/110/110
f 112/112/112 3/3/3 111/111/111
f 113/113/113 3/3/3 112/112/112
f 114/114/114 3/3/3 113/113/113
f 115/115/115 3/3/3 114/114/114
f 116/116/116 3/3/3 115/115/115
f 117/117/117 3/3/3 116/116/116
f 118/118/118 3/3/3 117/117/117
f 119/119/119 3/3/3 118/118/118
f 120/120/120 3/3/3 119/119/119
f 1/1/1 3/3/3 120/120/120
f 101/101/101 4/4/4 100/100/100
f 100/100/100 4/4/4 99/99/99
f 99/99/99 4/4/4 98/98/98
f 98/98/98 4/4/4 97/97/97
f 97/97/97 4/4/4 96/96/96
f 96/96/96 4/4/4 95/95/95
f 95/95/95 4/4/4 68/68/68
