# Rhino

v 0.22948150955499999 0.30300807627999998 0.29714438615700001
v 0.22948150955499999 0.30300807627999998 0.29714438615700001
v 0.22948150955499999 0.30300807627999998 0.29714438615700001
v 0.17661612236999999 0.28282572016399998 0.31904312431600002
v 0.17661612236999999 0.28282572016399998 0.31904312431600002
v 0.17661612236999999 0.28282572016399998 0.31904312431600002
v 0.22948150955499999 0.28282572016399998 0.29714438615700001
v 0.22948150955499999 0.28282572016399998 0.29714438615700001
v 0.22948150955499999 0.28282572016399998 0.29714438615700001
v 0.17661612236999999 0.30300807627999998 0.31904312431600002
v 0.17661612236999999 0.30300807627999998 0.31904312431600002
v 0.17661612236999999 0.30300807627999998 0.31904312431600002
v 0.17661612236999999 0.30300807627999998 -0.34418166174600001
v 0.17661612236999999 0.30300807627999998 -0.34418166174600001
v 0.17661612236999999 0.30300807627999998 -0.34418166174600001
v 0.119883236341 0.30300807627999998 -0.35165007680100002
v 0.119883236341 0.30300807627999998 -0.35165007680100002
v 0.119883236341 0.30300807627999998 -0.35165007680100002
v 0.119883236341 0.30300807627999998 0.32651215456100002
v 0.119883236341 0.30300807627999998 0.32651215456100002
v 0.119883236341 0.30300807627999998 0.32651215456100002
v -0.119883236341 0.30300807627999998 -0.35165007680100002
v -0.119883236341 0.30300807627999998 -0.35165007680100002
v -0.119883236341 0.30300807627999998 -0.35165007680100002
v -0.119883236341 0.30300807627999998 0.32651215456100002
v -0.119883236341 0.30300807627999998 0.32651215456100002
v -0.119883236341 0.30300807627999998 0.32651215456100002
v -0.17661612236999999 0.30300807627999998 -0.34418166174600001
v -0.17661612236999999 0.30300807627999998 -0.34418166174600001
v -0.17661612236999999 0.30300807627999998 -0.34418166174600001
v -0.17661612236999999 0.30300807627999998 0.31904312431600002
v -0.17661612236999999 0.30300807627999998 0.31904312431600002
v -0.17661612236999999 0.30300807627999998 0.31904312431600002
v -0.22948356018999999 0.30300807627999998 -0.322282923587
v -0.22948356018999999 0.30300807627999998 -0.322282923587
v -0.22948356018999999 0.30300807627999998 -0.322282923587
v -0.22948356018999999 0.30300807627999998 0.29714438615700001
v -0.22948356018999999 0.30300807627999998 0.29714438615700001
v -0.22948356018999999 0.30300807627999998 0.29714438615700001
v -0.274880532319 0.30300807627999998 -0.28744877571600003
v -0.274880532319 0.30300807627999998 -0.28744877571600003
v -0.274880532319 0.30300807627999998 -0.28744877571600003
v -0.274880532319 0.30300807627999998 0.26231023828599997
v -0.274880532319 0.30300807627999998 0.26231023828599997
v -0.274880532319 0.30300807627999998 0.26231023828599997
v -0.30971468018999998 0.30300807627999998 -0.24205180358699999
v -0.30971468018999998 0.30300807627999998 -0.24205180358699999
v -0.30971468018999998 0.30300807627999998 -0.24205180358699999
v -0.30971468018999998 0.30300807627999998 0.216913266158
v -0.30971468018999998 0.30300807627999998 0.216913266158
v -0.30971468018999998 0.30300807627999998 0.216913266158
v -0.33161341834800001 0.30300807627999998 -0.18918436576700001
v -0.33161341834800001 0.30300807627999998 -0.18918436576700001
v -0.33161341834800001 0.30300807627999998 -0.18918436576700001
v -0.33161341834800001 0.30300807627999998 0.16404582833799999
v -0.33161341834800001 0.30300807627999998 0.16404582833799999
v -0.33161341834800001 0.30300807627999998 0.16404582833799999
v -0.339081833404 0.30300807627999998 -0.13245353037400001
v -0.339081833404 0.30300807627999998 -0.13245353037400001
v -0.339081833404 0.30300807627999998 -0.13245353037400001
v -0.339081833404 0.30300807627999998 0.107314992944
v -0.339081833404 0.30300807627999998 0.107314992944
v -0.339081833404 0.30300807627999998 0.107314992944
v -0.339081833404 0.28282572016399998 0.107314992944
v -0.339081833404 0.28282572016399998 0.107314992944
v -0.339081833404 0.28282572016399998 0.107314992944
v -0.339081833404 0.28282572016399998 -0.13245353037400001
v -0.339081833404 0.28282572016399998 -0.13245353037400001
v -0.339081833404 0.28282572016399998 -0.13245353037400001
v -0.33161341834800001 0.28282572016399998 -0.18918436576700001
v -0.33161341834800001 0.28282572016399998 -0.18918436576700001
v -0.33161341834800001 0.28282572016399998 -0.18918436576700001
v -0.30971468018999998 0.28282572016399998 -0.24205180358699999
v -0.30971468018999998 0.28282572016399998 -0.24205180358699999
v -0.30971468018999998 0.28282572016399998 -0.24205180358699999
v -0.274880532319 0.28282572016399998 -0.28744877571600003
v -0.274880532319 0.28282572016399998 -0.28744877571600003
v -0.274880532319 0.28282572016399998 -0.28744877571600003
v -0.22948356018999999 0.28282572016399998 -0.322282923587
v -0.22948356018999999 0.28282572016399998 -0.322282923587
v -0.22948356018999999 0.28282572016399998 -0.322282923587
v -0.17661612236999999 0.28282572016399998 -0.34418166174600001
v -0.17661612236999999 0.28282572016399998 -0.34418166174600001
v -0.17661612236999999 0.28282572016399998 -0.34418166174600001
v -0.119883236341 0.28282572016399998 -0.35165007680100002
v -0.119883236341 0.28282572016399998 -0.35165007680100002
v -0.119883236341 0.28282572016399998 -0.35165007680100002
v 0.119883236341 0.28282572016399998 -0.35165007680100002
v 0.119883236341 0.28282572016399998 -0.35165007680100002
v 0.119883236341 0.28282572016399998 -0.35165007680100002
v 0.17661612236999999 0.28282572016399998 -0.34418166174600001
v 0.17661612236999999 0.28282572016399998 -0.34418166174600001
v 0.17661612236999999 0.28282572016399998 -0.34418166174600001
v 0.22948150955499999 0.28282572016399998 -0.322282923587
v 0.22948150955499999 0.28282572016399998 -0.322282923587
v 0.22948150955499999 0.28282572016399998 -0.322282923587
v 0.22948150955499999 0.30300807627999998 -0.322282923587
v 0.22948150955499999 0.30300807627999998 -0.322282923587
v 0.22948150955499999 0.30300807627999998 -0.322282923587
v 0.27487848168399998 0.30300807627999998 0.26231023828599997
v 0.27487848168399998 0.30300807627999998 0.26231023828599997
v 0.27487848168399998 0.30300807627999998 0.26231023828599997
v 0.27487848168399998 0.28282572016399998 0.26231023828599997
v 0.27487848168399998 0.28282572016399998 0.26231023828599997
v 0.27487848168399998 0.28282572016399998 0.26231023828599997
v 0.27487848168399998 0.28282572016399998 -0.28744877571600003
v 0.27487848168399998 0.28282572016399998 -0.28744877571600003
v 0.27487848168399998 0.28282572016399998 -0.28744877571600003
v 0.119883236341 0.28282572016399998 0.32651215456100002
v 0.119883236341 0.28282572016399998 0.32651215456100002
v 0.119883236341 0.28282572016399998 0.32651215456100002
v -0.119883236341 0.28282572016399998 0.32651215456100002
v -0.119883236341 0.28282572016399998 0.32651215456100002
v -0.119883236341 0.28282572016399998 0.32651215456100002
v -0.17661612236999999 0.28282572016399998 0.31904312431600002
v -0.17661612236999999 0.28282572016399998 0.31904312431600002
v -0.17661612236999999 0.28282572016399998 0.31904312431600002
v -0.22948356018999999 0.28282572016399998 0.29714438615700001
v -0.22948356018999999 0.28282572016399998 0.29714438615700001
v -0.22948356018999999 0.28282572016399998 0.29714438615700001
v -0.274880532319 0.28282572016399998 0.26231023828599997
v -0.274880532319 0.28282572016399998 0.26231023828599997
v -0.274880532319 0.28282572016399998 0.26231023828599997
v -0.30971468018999998 0.28282572016399998 0.216913266158
v -0.30971468018999998 0.28282572016399998 0.216913266158
v -0.30971468018999998 0.28282572016399998 0.216913266158
v -0.33161341834800001 0.28282572016399998 0.16404582833799999
v -0.33161341834800001 0.28282572016399998 0.16404582833799999
v -0.33161341834800001 0.28282572016399998 0.16404582833799999
v 0.27487848168399998 0.30300807627999998 -0.28744877571600003
v 0.27487848168399998 0.30300807627999998 -0.28744877571600003
v 0.27487848168399998 0.30300807627999998 -0.28744877571600003
v 0.30971468018999998 0.30300807627999998 0.216913266158
v 0.30971468018999998 0.30300807627999998 0.216913266158
v 0.30971468018999998 0.30300807627999998 0.216913266158
v 0.30971468018999998 0.28282572016399998 0.216913266158
v 0.30971468018999998 0.28282572016399998 0.216913266158
v 0.30971468018999998 0.28282572016399998 0.216913266158
v 0.30971468018999998 0.28282572016399998 -0.24205180358699999
v 0.30971468018999998 0.28282572016399998 -0.24205180358699999
v 0.30971468018999998 0.28282572016399998 -0.24205180358699999
v 0.30971468018999998 0.30300807627999998 -0.24205180358699999
v 0.30971468018999998 0.30300807627999998 -0.24205180358699999
v 0.30971468018999998 0.30300807627999998 -0.24205180358699999
v 0.33161136771299998 0.30300807627999998 0.16404582833799999
v 0.33161136771299998 0.30300807627999998 0.16404582833799999
v 0.33161136771299998 0.30300807627999998 0.16404582833799999
v 0.33161136771299998 0.28282572016399998 0.16404582833799999
v 0.33161136771299998 0.28282572016399998 0.16404582833799999
v 0.33161136771299998 0.28282572016399998 0.16404582833799999
v 0.33161136771299998 0.28282572016399998 -0.18918436576700001
v 0.33161136771299998 0.28282572016399998 -0.18918436576700001
v 0.33161136771299998 0.28282572016399998 -0.18918436576700001
v 0.33161136771299998 0.30300807627999998 -0.18918436576700001
v 0.33161136771299998 0.30300807627999998 -0.18918436576700001
v 0.33161136771299998 0.30300807627999998 -0.18918436576700001
v 0.339081833404 0.30300807627999998 0.107314992944
v 0.339081833404 0.30300807627999998 0.107314992944
v 0.339081833404 0.30300807627999998 0.107314992944
v 0.339081833404 0.28282572016399998 0.107314992944
v 0.339081833404 0.28282572016399998 0.107314992944
v 0.339081833404 0.28282572016399998 0.107314992944
v 0.339081833404 0.28282572016399998 -0.13245353037400001
v 0.339081833404 0.28282572016399998 -0.13245353037400001
v 0.339081833404 0.28282572016399998 -0.13245353037400001
v 0.339081833404 0.30300807627999998 -0.13245353037400001
v 0.339081833404 0.30300807627999998 -0.13245353037400001
v 0.339081833404 0.30300807627999998 -0.13245353037400001
vt 0.36338499188423157 0.013670199550688267
vt 0.38508701324462891 0.019890200346708298
vt 0.31761801242828369 0.013670199550688267
vt 0.32462900876998901 0
vt -0.34927999973297119 0.0050587300211191177
vt 0.34695199131965637 0
vt 0.36338499188423157 0
vt 0.31761801242828369 0
vt -0.38508701324462891 0.019890200346708298
vt 0.32462900876998901 0.013670199550688267
vt 0.34927999973297119 0.0050587300211191177
vt 0.34695199131965637 0.013670199550688267
vt 0.34927999973297119 0.45425900816917419
vt -0.28699898719787598 0.013670199550688267
vt -0.14885599911212921 0.013670199550688267
vt 0.31085500121116638 0.45931801199913025
vt -0.31085500121116638 0.013670199550688267
vt -0.24824300408363342 0.013670199550688267
vt 0.31085500121116638 0
vt 0.31085500121116638 0.013670199550688267
vt 0.30819600820541382 0.013670199550688267
vt 0.14846199750900269 0.45931801199913025
vt -0.20714500546455383 0.013670199550688267
vt -0.14846199750900269 0.013670199550688267
vt 0.14846199750900269 0
vt 0.14719200134277344 0.013670199550688267
vt 0.14846199750900269 0.013670199550688267
vt 0.11003699898719788 0.45425900816917419
vt -0.27549898624420166 0.013670199550688267
vt -0.16838900744915009 0.013670199550688267
vt 0.11003699898719788 0.0050587300211191177
vt 0.099725298583507538 0.013670199550688267
vt 0.10843600332736969 0.013670199550688267
vt 0.0742311030626297 0.43942698836326599
vt -0.32639798521995544 0.013670199550688267
vt -0.23674200475215912 0.013670199550688267
vt 0.0742311030626297 0.019890200346708298
vt 0.046783100813627243 0.013670199550688267
vt 0.060968898236751556 0.013670199550688267
vt 0.04348360002040863 0.41583400964736938
vt -0.35637399554252625 0.013670199550688267
vt -0.28764200210571289 0.013670199550688267
vt 0.04348360002040863 0.04348360002040863
vt -0.0080267097800970078 0.013670199550688267
vt 0.0080267097800970078 0.013670199550688267
vt 0.019890200346708298 0.38508701324462891
vt -0.36338499188423157 0.013670199550688267
vt -0.31761801242828369 0.013670199550688267
vt 0.019890200346708298 0.0742311030626297
vt -0.060968898236751556 0.013670199550688267
vt -0.046783100813627243 0.013670199550688267
vt 0.0050587300211191177 0.34927999973297119
vt -0.34695199131965637 0.013670199550688267
vt -0.32462900876998901 0.013670199550688267
vt 0.0050587300211191177 0.11003699898719788
vt -0.10843600332736969 0.013670199550688267
vt -0.099725298583507538 0.013670199550688267
vt 0 0.31085500121116638
vt -0.31085500121116638 0.013670199550688267
vt -0.30819600820541382 0.013670199550688267
vt 0 0.14846199750900269
vt -0.14846199750900269 0.013670199550688267
vt -0.14719200134277344 0.013670199550688267
vt 0 0.14846199750900269
vt -0.14846199750900269 0
vt -0.14719200134277344 0
vt 0 0.31085500121116638
vt -0.31085500121116638 0
vt -0.30819600820541382 0
vt -0.34695199131965637 0
vt -0.32462900876998901 0
vt -0.0050587300211191177 0.34927999973297119
vt -0.36338499188423157 0
vt -0.31761801242828369 0
vt -0.019890200346708298 0.38508701324462891
vt -0.35637399554252625 0
vt -0.28764200210571289 0
vt -0.04348360002040863 0.41583400964736938
vt -0.32639798521995544 0
vt -0.23674200475215912 0
vt -0.0742311030626297 0.43942698836326599
vt -0.27549898624420166 0
vt -0.16838900744915009 0
vt -0.11003699898719788 0.45425900816917419
vt -0.20714500546455383 0
vt -0.14846199750900269 0
vt -0.14846199750900269 0.45931801199913025
vt -0.31085500121116638 0
vt -0.24824300408363342 0
vt -0.31085500121116638 0.45931801199913025
vt -0.28699898719787598 0
vt -0.14885599911212921 0
vt -0.34927999973297119 0.45425900816917419
vt -0.18761199712753296 0
vt -0.38508701324462891 0.43942698836326599
vt -0.038003198802471161 0
vt -0.18761199712753296 0.013670199550688267
vt 0.38508701324462891 0.43942698836326599
vt -0.038003198802471161 0.013670199550688267
vt 0.41583400964736938 0.04348360002040863
vt 0.35637399554252625 0.013670199550688267
vt 0.28764200210571289 0.013670199550688267
vt 0.35637399554252625 0
vt -0.41583400964736938 0.04348360002040863
vt 0.28764200210571289 0
vt -0.41583400964736938 0.41583400964736938
vt -0.076759599149227142 0
vt 0.076759599149227142 0
vt 0.31085500121116638 0
vt -0.31085500121116638 0
vt 0.30819600820541382 0
vt 0.14846199750900269 0
vt -0.14846199750900269 0
vt 0.14719200134277344 0
vt -0.11003699898719788 0.0050587300211191177
vt 0.099725298583507538 0
vt 0.10843600332736969 0
vt -0.0742311030626297 0.019890200346708298
vt 0.046783100813627243 0
vt 0.060968898236751556 0
vt -0.04348360002040863 0.04348360002040863
vt -0.0080267097800970078 0
vt 0.0080267097800970078 0
vt -0.019890200346708298 0.0742311030626297
vt -0.060968898236751556 0
vt -0.046783100813627243 0
vt -0.0050587300211191177 0.11003699898719788
vt -0.10843600332736969 0
vt -0.099725298583507538 0
vt -0.076759599149227142 0.013670199550688267
vt 0.41583400964736938 0.41583400964736938
vt 0.076759599149227142 0.013670199550688267
vt 0.43942698836326599 0.0742311030626297
vt 0.32639798521995544 0.013670199550688267
vt 0.23674200475215912 0.013670199550688267
vt 0.32639798521995544 0
vt -0.43942698836326599 0.0742311030626297
vt 0.23674200475215912 0
vt -0.43942698836326599 0.38508701324462891
vt 0.038003198802471161 0
vt 0.18761199712753296 0
vt 0.038003198802471161 0.013670199550688267
vt 0.43942698836326599 0.38508701324462891
vt 0.18761199712753296 0.013670199550688267
vt 0.45425900816917419 0.11003699898719788
vt 0.27549898624420166 0.013670199550688267
vt 0.16838900744915009 0.013670199550688267
vt 0.27549898624420166 0
vt -0.45425900816917419 0.11003699898719788
vt 0.16838900744915009 0
vt -0.45425900816917419 0.34927999973297119
vt 0.14885599911212921 0
vt 0.28699898719787598 0
vt 0.14885599911212921 0.013670199550688267
vt 0.45425900816917419 0.34927999973297119
vt 0.28699898719787598 0.013670199550688267
vt 0.45931801199913025 0.14846199750900269
vt 0.20714500546455383 0.013670199550688267
vt 0.14846199750900269 0.013670199550688267
vt 0.20714500546455383 0
vt -0.45931801199913025 0.14846199750900269
vt 0.14846199750900269 0
vt -0.45931801199913025 0.31085500121116638
vt 0.24824300408363342 0
vt 0.31085500121116638 0
vt 0.24824300408363342 0.013670199550688267
vt 0.45931801199913025 0.31085500121116638
vt 0.31085500121116638 0.013670199550688267
vn 0.38270100951194763 0 0.92387223243713379
vn 0 1 0
vn 0.60875952243804932 0 0.79335480928421021
vn 0.38270100951194763 0 0.92387223243713379
vn 0 -1 0
vn 0.13052625954151154 0 0.99144482612609863
vn 0.38270100951194763 0 0.92387223243713379
vn 0.60875952243804932 0 0.79335480928421021
vn 0 -1 0
vn 0.38270100951194763 0 0.92387223243713379
vn 0 1 0
vn 0.13052625954151154 0 0.99144482612609863
vn 0 1 0
vn 0.1305156946182251 0 -0.99144625663757324
vn 0.38270100951194763 0 -0.92387223243713379
vn 0 1 0
vn 0 0 -1
vn 0.1305156946182251 0 -0.99144625663757324
vn 0 1 0
vn 0 0 1
vn 0.13052625954151154 0 0.99144482612609863
vn 0 1 0
vn -0.1305156946182251 0 -0.99144625663757324
vn 0 0 -1
vn 0 1 0
vn -0.13052625954151154 0 0.99144482612609863
vn 0 0 1
vn 0 1 0
vn -0.38268834352493286 0 -0.92387747764587402
vn -0.1305156946182251 0 -0.99144625663757324
vn 0 1 0
vn -0.38268834352493286 0 0.92387747764587402
vn -0.13052625954151154 0 0.99144482612609863
vn 0 1 0
vn -0.60875952243804932 0 -0.79335480928421021
vn -0.38268834352493286 0 -0.92387747764587402
vn 0 1 0
vn -0.60875952243804932 0 0.79335480928421021
vn -0.38268834352493286 0 0.92387747764587402
vn 0 1 0
vn -0.79335480928421021 0 -0.60875952243804932
vn -0.60875952243804932 0 -0.79335480928421021
vn 0 1 0
vn -0.79335480928421021 0 0.60875952243804932
vn -0.60875952243804932 0 0.79335480928421021
vn 0 1 0
vn -0.92387747764587402 0 -0.38268834352493286
vn -0.79335480928421021 0 -0.60875952243804932
vn 0 1 0
vn -0.92387747764587402 0 0.38268834352493286
vn -0.79335480928421021 0 0.60875952243804932
vn 0 1 0
vn -0.99144566059112549 0 -0.13052032887935638
vn -0.92387747764587402 0 -0.38268834352493286
vn 0 1 0
vn -0.99144566059112549 0 0.13052032887935638
vn -0.92387747764587402 0 0.38268834352493286
vn 0 1 0
vn -1 0 0
vn -0.99144566059112549 0 -0.13052032887935638
vn 0 1 0
vn -1 0 0
vn -0.99144566059112549 0 0.13052032887935638
vn 0 -1 0
vn -1 0 0
vn -0.99144566059112549 0 0.13052032887935638
vn 0 -1 0
vn -1 0 0
vn -0.99144566059112549 0 -0.13052032887935638
vn -0.99144566059112549 0 -0.13052032887935638
vn -0.92387747764587402 0 -0.38268834352493286
vn 0 -1 0
vn -0.92387747764587402 0 -0.38268834352493286
vn -0.79335480928421021 0 -0.60875952243804932
vn 0 -1 0
vn -0.79335480928421021 0 -0.60875952243804932
vn -0.60875952243804932 0 -0.79335480928421021
vn 0 -1 0
vn -0.60875952243804932 0 -0.79335480928421021
vn -0.38268834352493286 0 -0.92387747764587402
vn 0 -1 0
vn -0.38268834352493286 0 -0.92387747764587402
vn -0.1305156946182251 0 -0.99144625663757324
vn 0 -1 0
vn -0.1305156946182251 0 -0.99144625663757324
vn 0 0 -1
vn 0 -1 0
vn 0 0 -1
vn 0.1305156946182251 0 -0.99144625663757324
vn 0 -1 0
vn 0.1305156946182251 0 -0.99144625663757324
vn 0.38270100951194763 0 -0.92387223243713379
vn 0 -1 0
vn 0.38270100951194763 0 -0.92387223243713379
vn 0 -1 0
vn 0.60875952243804932 0 -0.79335480928421021
vn 0.38270100951194763 0 -0.92387223243713379
vn 0 1 0
vn 0.60875952243804932 0 -0.79335480928421021
vn 0 1 0
vn 0.60875952243804932 0 0.79335480928421021
vn 0.79333752393722534 0 0.60878205299377441
vn 0.60875952243804932 0 0.79335480928421021
vn 0 -1 0
vn 0.79333752393722534 0 0.60878205299377441
vn 0 -1 0
vn 0.60875952243804932 0 -0.79335480928421021
vn 0.79333752393722534 0 -0.60878205299377441
vn 0 0 1
vn 0 -1 0
vn 0.13052625954151154 0 0.99144482612609863
vn 0 0 1
vn 0 -1 0
vn -0.13052625954151154 0 0.99144482612609863
vn 0 -1 0
vn -0.38268834352493286 0 0.92387747764587402
vn -0.13052625954151154 0 0.99144482612609863
vn 0 -1 0
vn -0.60875952243804932 0 0.79335480928421021
vn -0.38268834352493286 0 0.92387747764587402
vn 0 -1 0
vn -0.79335480928421021 0 0.60875952243804932
vn -0.60875952243804932 0 0.79335480928421021
vn 0 -1 0
vn -0.92387747764587402 0 0.38268834352493286
vn -0.79335480928421021 0 0.60875952243804932
vn 0 -1 0
vn -0.99144566059112549 0 0.13052032887935638
vn -0.92387747764587402 0 0.38268834352493286
vn 0.60875952243804932 0 -0.79335480928421021
vn 0 1 0
vn 0.79333752393722534 0 -0.60878205299377441
vn 0 1 0
vn 0.79333752393722534 0 0.60878205299377441
vn 0.92389017343521118 0 0.3826577365398407
vn 0.79333752393722534 0 0.60878205299377441
vn 0 -1 0
vn 0.92389017343521118 0 0.3826577365398407
vn 0 -1 0
vn 0.79333752393722534 0 -0.60878205299377441
vn 0.92389017343521118 0 -0.3826577365398407
vn 0.79333752393722534 0 -0.60878205299377441
vn 0 1 0
vn 0.92389017343521118 0 -0.3826577365398407
vn 0 1 0
vn 0.92389017343521118 0 0.3826577365398407
vn 0.99144101142883301 0 0.13055555522441864
vn 0.92389017343521118 0 0.3826577365398407
vn 0 -1 0
vn 0.99144101142883301 0 0.13055555522441864
vn 0 -1 0
vn 0.92389017343521118 0 -0.3826577365398407
vn 0.99144101142883301 0 -0.13055555522441864
vn 0.92389017343521118 0 -0.3826577365398407
vn 0 1 0
vn 0.99144101142883301 0 -0.13055555522441864
vn 0 1 0
vn 0.99144101142883301 0 0.13055555522441864
vn 1 0 0
vn 0.99144101142883301 0 0.13055555522441864
vn 0 -1 0
vn 1 0 0
vn 0 -1 0
vn 0.99144101142883301 0 -0.13055555522441864
vn 1 0 0
vn 0.99144101142883301 0 -0.13055555522441864
vn 0 1 0
vn 1 0 0
f 1/1/1 4/4/4 7/7/7
f 4/4/4 1/1/1 10/10/10
f 13/13/13 11/11/11 2/2/2
f 16/16/16 11/11/11 13/13/13
f 16/16/16 19/19/19 11/11/11
f 22/22/22 19/19/19 16/16/16
f 22/22/22 25/25/25 19/19/19
f 28/28/28 25/25/25 22/22/22
f 28/28/28 31/31/31 25/25/25
f 34/34/34 31/31/31 28/28/28
f 34/34/34 37/37/37 31/31/31
f 40/40/40 37/37/37 34/34/34
f 40/40/40 43/43/43 37/37/37
f 46/46/46 43/43/43 40/40/40
f 46/46/46 49/49/49 43/43/43
f 52/52/52 49/49/49 46/46/46
f 52/52/52 55/55/55 49/49/49
f 58/58/58 55/55/55 52/52/52
f 55/55/55 58/58/58 61/61/61
f 59/59/59 65/65/65 62/62/62
f 65/65/65 59/59/59 68/68/68
f 53/53/53 69/69/69 60/60/60
f 69/69/69 53/53/53 70/70/70
f 47/47/47 71/71/71 54/54/54
f 71/71/71 47/47/47 73/73/73
f 41/41/41 74/74/74 48/48/48
f 74/74/74 41/41/41 76/76/76
f 42/42/42 79/79/79 77/77/77
f 79/79/79 42/42/42 35/35/35
f 36/36/36 82/82/82 80/80/80
f 82/82/82 36/36/36 29/29/29
f 30/30/30 85/85/85 83/83/83
f 85/85/85 30/30/30 23/23/23
f 24/24/24 88/88/88 86/86/86
f 88/88/88 24/24/24 17/17/17
f 18/18/18 91/91/91 89/89/89
f 91/91/91 18/18/18 14/14/14
f 15/15/15 94/94/94 92/92/92
f 94/94/94 15/15/15 97/97/97
f 13/13/13 2/2/2 98/98/98
f 98/98/98 2/2/2 100/100/100
f 8/8/8 101/101/101 3/3/3
f 101/101/101 8/8/8 103/103/103
f 9/9/9 106/106/106 104/104/104
f 9/9/9 95/95/95 106/106/106
f 9/9/9 93/93/93 95/95/95
f 5/5/5 93/93/93 9/9/9
f 110/110/110 93/93/93 5/5/5
f 110/110/110 90/90/90 93/93/93
f 110/110/110 87/87/87 90/90/90
f 113/113/113 87/87/87 110/110/110
f 113/113/113 84/84/84 87/87/87
f 115/115/115 84/84/84 113/113/113
f 115/115/115 81/81/81 84/84/84
f 118/118/118 81/81/81 115/115/115
f 118/118/118 78/78/78 81/81/81
f 121/121/121 78/78/78 118/118/118
f 121/121/121 75/75/75 78/78/78
f 124/124/124 75/75/75 121/121/121
f 124/124/124 72/72/72 75/75/75
f 127/127/127 72/72/72 124/124/124
f 64/64/64 72/72/72 127/127/127
f 72/72/72 64/64/64 67/67/67
f 128/128/128 63/63/63 66/66/66
f 63/63/63 128/128/128 56/56/56
f 125/125/125 57/57/57 129/129/129
f 57/57/57 125/125/125 50/50/50
f 122/122/122 51/51/51 126/126/126
f 51/51/51 122/122/122 44/44/44
f 123/123/123 38/38/38 45/45/45
f 38/38/38 123/123/123 119/119/119
f 120/120/120 32/32/32 39/39/39
f 32/32/32 120/120/120 116/116/116
f 117/117/117 26/26/26 33/33/33
f 26/26/26 117/117/117 114/114/114
f 112/112/112 20/20/20 27/27/27
f 20/20/20 112/112/112 109/109/109
f 111/111/111 12/12/12 21/21/21
f 12/12/12 111/111/111 6/6/6
f 99/99/99 107/107/107 96/96/96
f 107/107/107 99/99/99 130/130/130
f 98/98/98 100/100/100 131/131/131
f 131/131/131 100/100/100 133/133/133
f 102/102/102 136/136/136 134/134/134
f 136/136/136 102/102/102 105/105/105
f 104/104/104 106/106/106 137/137/137
f 137/137/137 106/106/106 139/139/139
f 108/108/108 142/142/142 140/140/140
f 142/142/142 108/108/108 132/132/132
f 131/131/131 133/133/133 143/143/143
f 143/143/143 133/133/133 145/145/145
f 135/135/135 148/148/148 146/146/146
f 148/148/148 135/135/135 138/138/138
f 137/137/137 139/139/139 149/149/149
f 149/149/149 139/139/139 151/151/151
f 141/141/141 154/154/154 152/152/152
f 154/154/154 141/141/141 144/144/144
f 143/143/143 145/145/145 155/155/155
f 155/155/155 145/145/145 157/157/157
f 147/147/147 160/160/160 158/158/158
f 160/160/160 147/147/147 150/150/150
f 149/149/149 151/151/151 161/161/161
f 161/161/161 151/151/151 163/163/163
f 153/153/153 166/166/166 164/164/164
f 166/166/166 153/153/153 156/156/156
f 155/155/155 157/157/157 167/167/167
f 159/159/159 165/165/165 168/168/168
f 165/165/165 159/159/159 162/162/162
