# Rhino

v 0.18493395851399999 0.010343766696500001 0.13476393812000001
v 0.18493395851399999 0.010343766696500001 0.13476393812000001
v 0.18493395851399999 0.010343766696500001 0.13476393812000001
v 0.095728860457899995 0.00079599189011000005 0.15031054722699999
v 0.095728860457899995 0.00079599189011000005 0.15031054722699999
v 0.095728860457899995 0.00079599189011000005 0.15031054722699999
v 0.18493395851399999 0.00079599189011000005 0.13476393812000001
v 0.18493395851399999 0.00079599189011000005 0.13476393812000001
v 0.18493395851399999 0.00079599189011000005 0.13476393812000001
v 0.095728860457899995 0.010343766696500001 0.15031054722699999
v 0.095728860457899995 0.010343766696500001 0.15031054722699999
v 0.095728860457899995 0.010343766696500001 0.15031054722699999
v 0.095728860457899995 0.010343766696500001 -0.15031054722699999
v 0.095728860457899995 0.010343766696500001 -0.15031054722699999
v 0.095728860457899995 0.010343766696500001 -0.15031054722699999
v 0 0.010343766696500001 -0.15561314661600001
v 0 0.010343766696500001 -0.15561314661600001
v 0 0.010343766696500001 -0.15561314661600001
v 0 0.010343766696500001 0.15561314661600001
v 0 0.010343766696500001 0.15561314661600001
v 0 0.010343766696500001 0.15561314661600001
v -0.095728860457899995 0.010343766696500001 -0.15031054722699999
v -0.095728860457899995 0.010343766696500001 -0.15031054722699999
v -0.095728860457899995 0.010343766696500001 -0.15031054722699999
v -0.095728860457899995 0.010343766696500001 0.15031054722699999
v -0.095728860457899995 0.010343766696500001 0.15031054722699999
v -0.095728860457899995 0.010343766696500001 0.15031054722699999
v -0.18493395851399999 0.010343766696500001 -0.134765658068
v -0.18493395851399999 0.010343766696500001 -0.134765658068
v -0.18493395851399999 0.010343766696500001 -0.134765658068
v -0.18493395851399999 0.010343766696500001 0.13476393812000001
v -0.18493395851399999 0.010343766696500001 0.13476393812000001
v -0.18493395851399999 0.010343766696500001 0.13476393812000001
v -0.26153699827600002 0.010343766696500001 -0.11003624709900001
v -0.26153699827600002 0.010343766696500001 -0.11003624709900001
v -0.26153699827600002 0.010343766696500001 -0.11003624709900001
v -0.26153699827600002 0.010343766696500001 0.110034527152
v -0.26153699827600002 0.010343766696500001 0.110034527152
v -0.26153699827600002 0.010343766696500001 0.110034527152
v -0.32031621790499998 0.010343766696500001 -0.077806143320800006
v -0.32031621790499998 0.010343766696500001 -0.077806143320800006
v -0.32031621790499998 0.010343766696500001 -0.077806143320800006
v -0.32031621790499998 0.010343766696500001 0.077806143320800006
v -0.32031621790499998 0.010343766696500001 0.077806143320800006
v -0.32031621790499998 0.010343766696500001 0.077806143320800006
v -0.35726585873400002 0.010343766696500001 -0.040276880049
v -0.35726585873400002 0.010343766696500001 -0.040276880049
v -0.35726585873400002 0.010343766696500001 -0.040276880049
v -0.35726585873400002 0.010343766696500001 0.040275160101100001
v -0.35726585873400002 0.010343766696500001 0.040275160101100001
v -0.35726585873400002 0.010343766696500001 0.040275160101100001
v -0.36986791702799998 0.010343766696500001 -8.5997395209500002E-07
v -0.36986791702799998 0.010343766696500001 -8.5997395209500002E-07
v -0.36986791702799998 0.010343766696500001 -8.5997395209500002E-07
v -0.36986791702799998 0.00079599189011000005 -8.5997395209500002E-07
v -0.36986791702799998 0.00079599189011000005 -8.5997395209500002E-07
v -0.36986791702799998 0.00079599189011000005 -8.5997395209500002E-07
v -0.35726585873400002 0.00079599189011000005 -0.040276880049
v -0.35726585873400002 0.00079599189011000005 -0.040276880049
v -0.35726585873400002 0.00079599189011000005 -0.040276880049
v -0.32031621790499998 0.00079599189011000005 -0.077806143320800006
v -0.32031621790499998 0.00079599189011000005 -0.077806143320800006
v -0.32031621790499998 0.00079599189011000005 -0.077806143320800006
v -0.26153699827600002 0.00079599189011000005 -0.11003624709900001
v -0.26153699827600002 0.00079599189011000005 -0.11003624709900001
v -0.26153699827600002 0.00079599189011000005 -0.11003624709900001
v -0.18493395851399999 0.00079599189011000005 -0.134765658068
v -0.18493395851399999 0.00079599189011000005 -0.134765658068
v -0.18493395851399999 0.00079599189011000005 -0.134765658068
v -0.095728860457899995 0.00079599189011000005 -0.15031054722699999
v -0.095728860457899995 0.00079599189011000005 -0.15031054722699999
v -0.095728860457899995 0.00079599189011000005 -0.15031054722699999
v 0 0.00079599189011000005 -0.15561314661600001
v 0 0.00079599189011000005 -0.15561314661600001
v 0 0.00079599189011000005 -0.15561314661600001
v 0.095728860457899995 0.00079599189011000005 -0.15031054722699999
v 0.095728860457899995 0.00079599189011000005 -0.15031054722699999
v 0.095728860457899995 0.00079599189011000005 -0.15031054722699999
v 0.18493395851399999 0.00079599189011000005 -0.134765658068
v 0.18493395851399999 0.00079599189011000005 -0.134765658068
v 0.18493395851399999 0.00079599189011000005 -0.134765658068
v 0.18493395851399999 0.010343766696500001 -0.134765658068
v 0.18493395851399999 0.010343766696500001 -0.134765658068
v 0.18493395851399999 0.010343766696500001 -0.134765658068
v 0.26153699827600002 0.010343766696500001 0.110034527152
v 0.26153699827600002 0.010343766696500001 0.110034527152
v 0.26153699827600002 0.010343766696500001 0.110034527152
v 0.26153699827600002 0.00079599189011000005 0.110034527152
v 0.26153699827600002 0.00079599189011000005 0.110034527152
v 0.26153699827600002 0.00079599189011000005 0.110034527152
v 0.26153699827600002 0.00079599189011000005 -0.11003624709900001
v 0.26153699827600002 0.00079599189011000005 -0.11003624709900001
v 0.26153699827600002 0.00079599189011000005 -0.11003624709900001
v 0 0.00079599189011000005 0.15561314661600001
v 0 0.00079599189011000005 0.15561314661600001
v 0 0.00079599189011000005 0.15561314661600001
v -0.095728860457899995 0.00079599189011000005 0.15031054722699999
v -0.095728860457899995 0.00079599189011000005 0.15031054722699999
v -0.095728860457899995 0.00079599189011000005 0.15031054722699999
v -0.18493395851399999 0.00079599189011000005 0.13476393812000001
v -0.18493395851399999 0.00079599189011000005 0.13476393812000001
v -0.18493395851399999 0.00079599189011000005 0.13476393812000001
v -0.26153699827600002 0.00079599189011000005 0.110034527152
v -0.26153699827600002 0.00079599189011000005 0.110034527152
v -0.26153699827600002 0.00079599189011000005 0.110034527152
v -0.32031621790499998 0.00079599189011000005 0.077806143320800006
v -0.32031621790499998 0.00079599189011000005 0.077806143320800006
v -0.32031621790499998 0.00079599189011000005 0.077806143320800006
v -0.35726585873400002 0.00079599189011000005 0.040275160101100001
v -0.35726585873400002 0.00079599189011000005 0.040275160101100001
v -0.35726585873400002 0.00079599189011000005 0.040275160101100001
v -0.36694400559099999 0.00079599189011000005 0.0093453369380199994
v -0.36694400559099999 0.00079599189011000005 0.0093453369380199994
v 0.26153699827600002 0.010343766696500001 -0.11003624709900001
v 0.26153699827600002 0.010343766696500001 -0.11003624709900001
v 0.26153699827600002 0.010343766696500001 -0.11003624709900001
v 0.32031621790499998 0.010343766696500001 0.077806143320800006
v 0.32031621790499998 0.010343766696500001 0.077806143320800006
v 0.32031621790499998 0.010343766696500001 0.077806143320800006
v 0.32031621790499998 0.00079599189011000005 0.077806143320800006
v 0.32031621790499998 0.00079599189011000005 0.077806143320800006
v 0.32031621790499998 0.00079599189011000005 0.077806143320800006
v 0.32031621790499998 0.00079599189011000005 -0.077806143320800006
v 0.32031621790499998 0.00079599189011000005 -0.077806143320800006
v 0.32031621790499998 0.00079599189011000005 -0.077806143320800006
v 0.32031621790499998 0.010343766696500001 -0.077806143320800006
v 0.32031621790499998 0.010343766696500001 -0.077806143320800006
v 0.32031621790499998 0.010343766696500001 -0.077806143320800006
v 0.35726585873400002 0.010343766696500001 0.040275160101100001
v 0.35726585873400002 0.010343766696500001 0.040275160101100001
v 0.35726585873400002 0.010343766696500001 0.040275160101100001
v 0.35726585873400002 0.00079599189011000005 0.040275160101100001
v 0.35726585873400002 0.00079599189011000005 0.040275160101100001
v 0.35726585873400002 0.00079599189011000005 0.040275160101100001
v 0.35726585873400002 0.00079599189011000005 -0.040276880049
v 0.35726585873400002 0.00079599189011000005 -0.040276880049
v 0.35726585873400002 0.00079599189011000005 -0.040276880049
v 0.35726585873400002 0.010343766696500001 -0.040276880049
v 0.35726585873400002 0.010343766696500001 -0.040276880049
v 0.35726585873400002 0.010343766696500001 -0.040276880049
v 0.36986791702799998 0.010343766696500001 -8.5997395214000002E-07
v 0.36986791702799998 0.010343766696500001 -8.5997395214000002E-07
v 0.36986791702799998 0.010343766696500001 -8.5997395214000002E-07
v 0.36986791702799998 0.00079599189011000005 -8.5997395214000002E-07
v 0.36986791702799998 0.00079599189011000005 -8.5997395214000002E-07
v 0.36986791702799998 0.00079599189011000005 -8.5997395214000002E-07
vt 1.6352499723434448 0.39524498581886292
vt 1.6218500137329102 0.20685100555419922
vt 1.6104799509048462 0.39524498581886292
vt 1.412369966506958 0.37297800183296204
vt -1.4022899866104126 0.17059500515460968
vt 1.410099983215332 0.37297800183296204
vt 1.6352499723434448 0.37297800183296204
vt 1.6104799509048462 0.37297800183296204
vt -1.6218500137329102 0.20685100555419922
vt 1.412369966506958 0.39524498581886292
vt 1.4022899866104126 0.17059500515460968
vt 1.410099983215332 0.39524498581886292
vt 1.4022899866104126 0.87170702219009399
vt -1.3492599725723267 0.39524498581886292
vt -1.223520040512085 0.39524498581886292
vt 1.1666699647903442 0.88407301902770996
vt -1.216480016708374 0.39524498581886292
vt -1.1132800579071045 0.39524498581886292
vt 1.1666699647903442 0.15822799503803253
vt 1.1556500196456909 0.39524498581886292
vt 1.1741199493408203 0.39524498581886292
vt 0.93104702234268188 0.87170702219009399
vt -1.075160026550293 0.39524498581886292
vt -0.98050099611282349 0.39524498581886292
vt 0.93104702234268188 0.17059500515460968
vt 0.88631397485733032 0.39524498581886292
vt 0.91966497898101807 0.39524498581886292
vt 0.71148502826690674 0.83545100688934326
vt -0.9479529857635498 0.39524498581886292
vt -0.85229402780532837 0.39524498581886292
vt 0.71148502826690674 0.20685100555419922
vt 0.61001002788543701 0.39524498581886292
vt 0.66344302892684937 0.39524498581886292
vt 0.52294301986694336 0.77777498960494995
vt -0.85317397117614746 0.39524498581886292
vt -0.7498289942741394 0.39524498581886292
vt 0.52294301986694336 0.26452600955963135
vt 0.32432198524475098 0.39524498581886292
vt 0.41188600659370422 0.39524498581886292
vt 0.37826898694038391 0.70261198282241821
vt -0.79378002882003784 0.39524498581886292
vt -0.68818002939224243 0.39524498581886292
vt 0.37826898694038391 0.3396889865398407
vt 0.009920080192387104 0.39524498581886292
vt 0.15932899713516235 0.39524498581886292
vt 0.28732401132583618 0.6150820255279541
vt -0.7053149938583374 0.39524498581886292
vt -0.66414797306060791 0.39524498581886292
vt 0.28732401132583618 0.42721900343894958
vt -0.3444879949092865 0.39524498581886292
vt -0.11971099674701691 0.39524498581886292
vt 0.25630399584770203 0.52115100622177124
vt -0.60144400596618652 0.39524498581886292
vt -0.44835901260375977 0.39524498581886292
vt -0.60144400596618652 0.37297800183296204
vt -0.25630399584770203 0.52115100622177124
vt -0.44835901260375977 0.37297800183296204
vt -0.7053149938583374 0.37297800183296204
vt -0.66414797306060791 0.37297800183296204
vt -0.28732401132583618 0.6150820255279541
vt -0.79378002882003784 0.37297800183296204
vt -0.68818002939224243 0.37297800183296204
vt -0.37826898694038391 0.70261198282241821
vt -0.85317397117614746 0.37297800183296204
vt -0.7498289942741394 0.37297800183296204
vt -0.52294301986694336 0.77777498960494995
vt -0.9479529857635498 0.37297800183296204
vt -0.85229402780532837 0.37297800183296204
vt -0.71148502826690674 0.83545100688934326
vt -1.075160026550293 0.37297800183296204
vt -0.98050099611282349 0.37297800183296204
vt -0.93104702234268188 0.87170702219009399
vt -1.216480016708374 0.37297800183296204
vt -1.1132800579071045 0.37297800183296204
vt -1.1666699647903442 0.88407301902770996
vt -1.3492599725723267 0.37297800183296204
vt -1.223520040512085 0.37297800183296204
vt -1.4022899866104126 0.87170702219009399
vt -1.4464000463485718 0.37297800183296204
vt -1.6218500137329102 0.83545100688934326
vt -1.2725399732589722 0.37297800183296204
vt -1.4464000463485718 0.39524498581886292
vt 1.6218500137329102 0.83545100688934326
vt -1.2725399732589722 0.39524498581886292
vt 1.8103899955749512 0.26452600955963135
vt 1.8085999488830566 0.39524498581886292
vt 1.7216500043869019 0.39524498581886292
vt 1.8085999488830566 0.37297800183296204
vt -1.8103899955749512 0.26452600955963135
vt 1.7216500043869019 0.37297800183296204
vt -1.8103899955749512 0.77777498960494995
vt -1.4706599712371826 0.37297800183296204
vt -1.1928000450134277 0.37297800183296204
vt -1.1666699647903442 0.15822799503803253
vt 1.1556500196456909 0.37297800183296204
vt 1.1741199493408203 0.37297800183296204
vt -0.93104702234268188 0.17059500515460968
vt 0.88631397485733032 0.37297800183296204
vt 0.91966497898101807 0.37297800183296204
vt -0.71148502826690674 0.20685100555419922
vt 0.61001002788543701 0.37297800183296204
vt 0.66344302892684937 0.37297800183296204
vt -0.52294301986694336 0.26452600955963135
vt 0.32432198524475098 0.37297800183296204
vt 0.41188600659370422 0.37297800183296204
vt -0.37826898694038391 0.3396889865398407
vt 0.009920080192387104 0.37297800183296204
vt 0.15932899713516235 0.37297800183296204
vt -0.28732401132583618 0.42721900343894958
vt -0.3444879949092865 0.37297800183296204
vt -0.11971099674701691 0.37297800183296204
vt -0.26350200176239014 0.49935400485992432
vt -0.42425701022148132 0.37297800183296204
vt -1.4706599712371826 0.39524498581886292
vt 1.8103899955749512 0.77777498960494995
vt -1.1928000450134277 0.39524498581886292
vt 1.9550600051879883 0.3396889865398407
vt 1.8866399526596069 0.39524498581886292
vt 1.627079963684082 0.39524498581886292
vt 1.8866399526596069 0.37297800183296204
vt -1.9550600051879883 0.3396889865398407
vt 1.627079963684082 0.37297800183296204
vt -1.9550600051879883 0.70261198282241821
vt -1.3577899932861328 0.37297800183296204
vt -0.84321802854537964 0.37297800183296204
vt -1.3577899932861328 0.39524498581886292
vt 1.9550600051879883 0.70261198282241821
vt -0.84321802854537964 0.39524498581886292
vt 2.0460100173950195 0.42721900343894958
vt 1.7567100524902344 0.39524498581886292
vt 1.0413099527359009 0.39524498581886292
vt 1.7567100524902344 0.37297800183296204
vt -2.0460100173950195 0.42721900343894958
vt 1.0413099527359009 0.37297800183296204
vt -2.0460100173950195 0.6150820255279541
vt -0.97285002470016479 0.37297800183296204
vt 0.00849170982837677 0.37297800183296204
vt -0.97285002470016479 0.39524498581886292
vt 2.0460100173950195 0.6150820255279541
vt 0.00849170982837677 0.39524498581886292
vt 2.0770299434661865 0.52115100622177124
vt 1.1451799869537354 0.39524498581886292
vt -0.0953793004155159 0.39524498581886292
vt 1.1451799869537354 0.37297800183296204
vt -2.0770299434661865 0.52115100622177124
vt -0.0953793004155159 0.37297800183296204
vn 0.17169146239757538 0 0.98515075445175171
vn 0 1 0
vn 0.30721378326416016 0 0.9516405463218689
vn 0.17169146239757538 0 0.98515075445175171
vn 0 -1 0
vn 0.055307075381278992 0 0.99846941232681274
vn 0.17169146239757538 0 0.98515075445175171
vn 0.30721378326416016 0 0.9516405463218689
vn 0 -1 0
vn 0.17169146239757538 0 0.98515075445175171
vn 0 1 0
vn 0.055307075381278992 0 0.99846941232681274
vn 0 1 0
vn 0.055307075381278992 0 -0.99846941232681274
vn 0.17167302966117859 0 -0.98515397310256958
vn 0 1 0
vn -0.055307075381278992 0 -0.99846941232681274
vn 0.055307075381278992 0 -0.99846941232681274
vn 0 1 0
vn -0.055307075381278992 0 0.99846941232681274
vn 0.055307075381278992 0 0.99846941232681274
vn 0 1 0
vn -0.17167302966117859 0 -0.98515397310256958
vn -0.055307075381278992 0 -0.99846941232681274
vn 0 1 0
vn -0.17169146239757538 0 0.98515075445175171
vn -0.055307075381278992 0 0.99846941232681274
vn 0 1 0
vn -0.30721378326416016 0 -0.9516405463218689
vn -0.17167302966117859 0 -0.98515397310256958
vn 0 1 0
vn -0.30721378326416016 0 0.9516405463218689
vn -0.17169146239757538 0 0.98515075445175171
vn 0 1 0
vn -0.48079061508178711 0 -0.87683546543121338
vn -0.30721378326416016 0 -0.9516405463218689
vn 0 1 0
vn -0.48077088594436646 0 0.87684625387191772
vn -0.30721378326416016 0 0.9516405463218689
vn 0 1 0
vn -0.71258819103240967 0 -0.70158255100250244
vn -0.48079061508178711 0 -0.87683546543121338
vn 0 1 0
vn -0.71260422468185425 0 0.70156621932983398
vn -0.48077088594436646 0 0.87684625387191772
vn 0 1 0
vn -0.95437330007553101 0 -0.29861611127853394
vn -0.71258819103240967 0 -0.70158255100250244
vn 0 1 0
vn -0.95437330007553101 0 0.29861611127853394
vn -0.71260422468185425 0 0.70156621932983398
vn 0 1 0
vn -0.95437330007553101 0 -0.29861611127853394
vn -0.95437628030776978 1.9177788999513723E-05 0.29860654473304749
vn -0.95437330007553101 0 -0.29861611127853394
vn 0 -1 0
vn -0.95438617467880249 0 0.29857498407363892
vn -0.95437330007553101 0 -0.29861611127853394
vn -0.71258819103240967 0 -0.70158255100250244
vn 0 -1 0
vn -0.71258819103240967 0 -0.70158255100250244
vn -0.48079061508178711 0 -0.87683546543121338
vn 0 -1 0
vn -0.48079061508178711 0 -0.87683546543121338
vn -0.30721378326416016 0 -0.9516405463218689
vn 0 -1 0
vn -0.30721378326416016 0 -0.9516405463218689
vn -0.17167302966117859 0 -0.98515397310256958
vn 0 -1 0
vn -0.17167302966117859 0 -0.98515397310256958
vn -0.055307075381278992 0 -0.99846941232681274
vn 0 -1 0
vn -0.055307075381278992 0 -0.99846941232681274
vn 0.055307075381278992 0 -0.99846941232681274
vn 0 -1 0
vn 0.055307075381278992 0 -0.99846941232681274
vn 0.17167302966117859 0 -0.98515397310256958
vn 0 -1 0
vn 0.17167302966117859 0 -0.98515397310256958
vn 0 -1 0
vn 0.30721378326416016 0 -0.9516405463218689
vn 0.17167302966117859 0 -0.98515397310256958
vn 0 1 0
vn 0.30721378326416016 0 -0.9516405463218689
vn 0 1 0
vn 0.30721378326416016 0 0.9516405463218689
vn 0.48077088594436646 0 0.87684625387191772
vn 0.30721378326416016 0 0.9516405463218689
vn 0 -1 0
vn 0.48077088594436646 0 0.87684625387191772
vn 0 -1 0
vn 0.30721378326416016 0 -0.9516405463218689
vn 0.48079061508178711 0 -0.87683546543121338
vn 0 -1 0
vn -0.055307075381278992 0 0.99846941232681274
vn 0.055307075381278992 0 0.99846941232681274
vn 0 -1 0
vn -0.17169146239757538 0 0.98515075445175171
vn -0.055307075381278992 0 0.99846941232681274
vn 0 -1 0
vn -0.30721378326416016 0 0.9516405463218689
vn -0.17169146239757538 0 0.98515075445175171
vn 0 -1 0
vn -0.48077088594436646 0 0.87684625387191772
vn -0.30721378326416016 0 0.9516405463218689
vn 0 -1 0
vn -0.71260422468185425 0 0.70156621932983398
vn -0.48077088594436646 0 0.87684625387191772
vn 0 -1 0
vn -0.95437139272689819 2.876668622775469E-05 0.29862231016159058
vn -0.71260422468185425 0 0.70156621932983398
vn 0 -1 0
vn -0.95437783002853394 2.876668622775469E-05 0.29860174655914307
vn 0.30721378326416016 0 -0.9516405463218689
vn 0 1 0
vn 0.48079061508178711 0 -0.87683546543121338
vn 0 1 0
vn 0.48077088594436646 0 0.87684625387191772
vn 0.71260422468185425 0 0.70156621932983398
vn 0.48077088594436646 0 0.87684625387191772
vn 0 -1 0
vn 0.71260422468185425 0 0.70156621932983398
vn 0 -1 0
vn 0.48079061508178711 0 -0.87683546543121338
vn 0.71258819103240967 0 -0.70158255100250244
vn 0.48079061508178711 0 -0.87683546543121338
vn 0 1 0
vn 0.71258819103240967 0 -0.70158255100250244
vn 0 1 0
vn 0.71260422468185425 0 0.70156621932983398
vn 0.95437330007553101 0 0.29861611127853394
vn 0.71260422468185425 0 0.70156621932983398
vn 0 -1 0
vn 0.95437330007553101 0 0.29861611127853394
vn 0 -1 0
vn 0.71258819103240967 0 -0.70158255100250244
vn 0.95437330007553101 0 -0.29861611127853394
vn 0.71258819103240967 0 -0.70158255100250244
vn 0 1 0
vn 0.95437330007553101 0 -0.29861611127853394
vn 0 1 0
vn 0.95437330007553101 0 0.29861611127853394
vn 0.95437330007553101 0 -0.29861611127853394
vn 0.95437330007553101 0 0.29861611127853394
vn 0 -1 0
vn 0.95437330007553101 0 -0.29861611127853394
f 1/1/1 4/4/4 7/7/7
f 4/4/4 1/1/1 10/10/10
f 13/13/13 11/11/11 2/2/2
f 16/16/16 11/11/11 13/13/13
f 16/16/16 19/19/19 11/11/11
f 22/22/22 19/19/19 16/16/16
f 22/22/22 25/25/25 19/19/19
f 28/28/28 25/25/25 22/22/22
f 28/28/28 31/31/31 25/25/25
f 34/34/34 31/31/31 28/28/28
f 34/34/34 37/37/37 31/31/31
f 40/40/40 37/37/37 34/34/34
f 40/40/40 43/43/43 37/37/37
f 46/46/46 43/43/43 40/40/40
f 46/46/46 49/49/49 43/43/43
f 49/49/49 46/46/46 52/52/52
f 47/47/47 55/55/55 53/53/53
f 55/55/55 47/47/47 58/58/58
f 41/41/41 59/59/59 48/48/48
f 59/59/59 41/41/41 61/61/61
f 42/42/42 64/64/64 62/62/62
f 64/64/64 42/42/42 35/35/35
f 36/36/36 67/67/67 65/65/65
f 67/67/67 36/36/36 29/29/29
f 30/30/30 70/70/70 68/68/68
f 70/70/70 30/30/30 23/23/23
f 24/24/24 73/73/73 71/71/71
f 73/73/73 24/24/24 17/17/17
f 18/18/18 76/76/76 74/74/74
f 76/76/76 18/18/18 14/14/14
f 15/15/15 79/79/79 77/77/77
f 79/79/79 15/15/15 82/82/82
f 13/13/13 2/2/2 83/83/83
f 83/83/83 2/2/2 85/85/85
f 8/8/8 86/86/86 3/3/3
f 86/86/86 8/8/8 88/88/88
f 9/9/9 91/91/91 89/89/89
f 9/9/9 80/80/80 91/91/91
f 5/5/5 80/80/80 9/9/9
f 5/5/5 78/78/78 80/80/80
f 94/94/94 78/78/78 5/5/5
f 94/94/94 75/75/75 78/78/78
f 97/97/97 75/75/75 94/94/94
f 97/97/97 72/72/72 75/75/75
f 100/100/100 72/72/72 97/97/97
f 100/100/100 69/69/69 72/72/72
f 103/103/103 69/69/69 100/100/100
f 103/103/103 66/66/66 69/69/69
f 106/106/106 66/66/66 103/103/103
f 106/106/106 63/63/63 66/66/66
f 109/109/109 63/63/63 106/106/106
f 109/109/109 60/60/60 63/63/63
f 112/112/112 60/60/60 109/109/109
f 60/60/60 112/112/112 56/56/56
f 113/113/113 54/54/54 57/57/57
f 110/110/110 54/54/54 113/113/113
f 54/54/54 110/110/110 50/50/50
f 107/107/107 51/51/51 111/111/111
f 51/51/51 107/107/107 44/44/44
f 108/108/108 38/38/38 45/45/45
f 38/38/38 108/108/108 104/104/104
f 105/105/105 32/32/32 39/39/39
f 32/32/32 105/105/105 101/101/101
f 102/102/102 26/26/26 33/33/33
f 26/26/26 102/102/102 98/98/98
f 99/99/99 20/20/20 27/27/27
f 20/20/20 99/99/99 95/95/95
f 96/96/96 12/12/12 21/21/21
f 12/12/12 96/96/96 6/6/6
f 84/84/84 92/92/92 81/81/81
f 92/92/92 84/84/84 114/114/114
f 83/83/83 85/85/85 115/115/115
f 115/115/115 85/85/85 117/117/117
f 90/90/90 118/118/118 87/87/87
f 118/118/118 90/90/90 120/120/120
f 89/89/89 123/123/123 121/121/121
f 89/89/89 91/91/91 123/123/123
f 116/116/116 124/124/124 93/93/93
f 124/124/124 116/116/116 126/126/126
f 115/115/115 117/117/117 127/127/127
f 127/127/127 117/117/117 129/129/129
f 119/119/119 132/132/132 130/130/130
f 132/132/132 119/119/119 122/122/122
f 121/121/121 135/135/135 133/133/133
f 121/121/121 123/123/123 135/135/135
f 125/125/125 138/138/138 136/136/136
f 138/138/138 125/125/125 128/128/128
f 127/127/127 129/129/129 139/139/139
f 139/139/139 129/129/129 141/141/141
f 131/131/131 144/144/144 142/142/142
f 144/144/144 131/131/131 134/134/134
f 133/133/133 135/135/135 145/145/145
f 137/137/137 143/143/143 146/146/146
f 143/143/143 137/137/137 140/140/140
