# Rhino

v 0.38810173038200002 0.243385830917 -0.19405086519100001
v 0.38810173038200002 0.243385830917 -0.19405086519100001
v 0.38810173038200002 0.243385830917 -0.19405086519100001
v -0.38810173038200002 0.243385830917 0.19405086519100001
v -0.38810173038200002 0.243385830917 0.19405086519100001
v -0.38810173038200002 0.243385830917 0.19405086519100001
v 0.38810173038200002 0.243385830917 0.19405086519100001
v 0.38810173038200002 0.243385830917 0.19405086519100001
v 0.38810173038200002 0.243385830917 0.19405086519100001
v -0.38810173038200002 0.243385830917 -0.19405086519100001
v -0.38810173038200002 0.243385830917 -0.19405086519100001
v -0.38810173038200002 0.243385830917 -0.19405086519100001
v -0.39056847866799999 0.242563581488 -0.196517613477
v -0.39056847866799999 0.242563581488 -0.196517613477
v -0.39056847866799999 0.242563581488 -0.196517613477
v 0.39056847866799999 0.242563581488 -0.196517613477
v 0.39056847866799999 0.242563581488 -0.196517613477
v 0.39056847866799999 0.242563581488 -0.196517613477
v 0.39056847866799999 0.242563581488 -0.196517613477
v 0.39056847866799999 0.242563581488 0.196517613477
v 0.39056847866799999 0.242563581488 0.196517613477
v 0.39056847866799999 0.242563581488 0.196517613477
v 0.39056847866799999 0.242563581488 0.196517613477
v -0.39056847866799999 0.242563581488 0.196517613477
v -0.39056847866799999 0.242563581488 0.196517613477
v -0.39056847866799999 0.242563581488 0.196517613477
v -0.39056847866799999 0.242563581488 0.196517613477
v -0.39139072809600001 0.24009683320200001 0.197339862906
v -0.39139072809600001 0.24009683320200001 0.197339862906
v -0.39139072809600001 0.24009683320200001 0.197339862906
v -0.39139072809600001 0.24009683320200001 -0.197339862906
v -0.39139072809600001 0.24009683320200001 -0.197339862906
v -0.39139072809600001 0.24009683320200001 -0.197339862906
v -0.39139072809600001 0.24009683320200001 -0.197339862906
v 0.39139072809600001 0.24009683320200001 -0.197339862906
v 0.39139072809600001 0.24009683320200001 -0.197339862906
v 0.39139072809600001 0.24009683320200001 -0.197339862906
v 0.39139072809600001 0.24009683320200001 -0.197339862906
v 0.39139072809600001 0.24009683320200001 0.197339862906
v 0.39139072809600001 0.24009683320200001 0.197339862906
v 0.39139072809600001 0.24009683320200001 0.197339862906
v 0.39139072809600001 0.24009683320200001 0.197339862906
v -0.39139072809600001 0.233518837772 0.197339862906
v -0.39139072809600001 0.233518837772 0.197339862906
v -0.39139072809600001 0.233518837772 0.197339862906
v -0.39139072809600001 0.233518837772 0.197339862906
v 0.39139072809600001 0.233518837772 0.197339862906
v 0.39139072809600001 0.233518837772 0.197339862906
v 0.39139072809600001 0.233518837772 0.197339862906
v 0.39139072809600001 0.233518837772 0.197339862906
v -0.39056847866799999 0.23105208948600001 0.196517613477
v -0.39056847866799999 0.23105208948600001 0.196517613477
v -0.39056847866799999 0.23105208948600001 0.196517613477
v -0.39056847866799999 0.23105208948600001 0.196517613477
v 0.39056847866799999 0.23105208948600001 0.196517613477
v 0.39056847866799999 0.23105208948600001 0.196517613477
v 0.39056847866799999 0.23105208948600001 0.196517613477
v 0.38810173038200002 0.23022984005700001 0.19405086519100001
v 0.38810173038200002 0.23022984005700001 0.19405086519100001
v 0.38810173038200002 0.23022984005700001 0.19405086519100001
v -0.38810173038200002 0.23022984005700001 0.19405086519100001
v -0.38810173038200002 0.23022984005700001 0.19405086519100001
v -0.38810173038200002 0.23022984005700001 0.19405086519100001
v -0.38810173038200002 0.23022984005700001 -0.19405086519100001
v -0.38810173038200002 0.23022984005700001 -0.19405086519100001
v -0.38810173038200002 0.23022984005700001 -0.19405086519100001
v -0.39056847866799999 0.23105208948600001 -0.196517613477
v -0.39056847866799999 0.23105208948600001 -0.196517613477
v -0.39056847866799999 0.23105208948600001 -0.196517613477
v -0.39056847866799999 0.23105208948600001 -0.196517613477
v -0.39139072809600001 0.233518837772 -0.197339862906
v -0.39139072809600001 0.233518837772 -0.197339862906
v -0.39139072809600001 0.233518837772 -0.197339862906
v 0.39139072809600001 0.233518837772 -0.197339862906
v 0.39139072809600001 0.233518837772 -0.197339862906
v 0.39139072809600001 0.233518837772 -0.197339862906
v 0.39139072809600001 0.233518837772 -0.197339862906
v 0.39056847866799999 0.23105208948600001 -0.196517613477
v 0.39056847866799999 0.23105208948600001 -0.196517613477
v 0.39056847866799999 0.23105208948600001 -0.196517613477
v 0.38810173038200002 0.23022984005700001 -0.19405086519100001
v 0.38810173038200002 0.23022984005700001 -0.19405086519100001
v 0.38810173038200002 0.23022984005700001 -0.19405086519100001
vt -1.4600000381469727 0.98000001907348633
vt 1.4916199445724487 0.98000001907348633
vt -1.4600000381469727 0.98000001907348633
vt 0.89999997615814209 -3.7400000095367432
vt 0.89999997615814209 -3.7400000095367432
vt 0.89999997615814209 -3.7400000095367432
vt 0.89999997615814209 0.98000001907348633
vt 0.89999997615814209 0.98000001907348633
vt 0.89999997615814209 0.98000001907348633
vt -1.4600000381469727 -3.7400000095367432
vt 1.4916199445724487 -3.7400000095367432
vt -1.4600000381469727 -3.7400000095367432
vt 1.4758100509643555 -3.755000114440918
vt -1.4750000238418579 -3.755810022354126
vt 1.4758100509643555 -3.7650001049041748
vt 1.4758100509643555 0.99500000476837158
vt -1.4750000238418579 0.99581098556518555
vt 1.4758100509643555 0.99500000476837158
vt 1.4758100509643555 1.0049999952316284
vt 0.91500002145767212 0.99581098556518555
vt 0.91581100225448608 0.99500000476837158
vt 1.4758100509643555 3.3949999809265137
vt 1.4758100509643555 3.4049999713897705
vt 0.91581100225448608 -3.755000114440918
vt 0.91500002145767212 -3.755810022354126
vt 1.4758100509643555 -6.1550002098083496
vt 1.4758100509643555 8.1549997329711914
vt 1.4600000381469727 -6.1599998474121094
vt 1.4600000381469727 8.1599998474121094
vt 1.4600000381469727 -6.1599998474121094
vt 1.4600000381469727 -3.7599999904632568
vt 1.4600000381469727 -3.7599999904632568
vt 1.4600000381469727 -3.7599999904632568
vt 1.4600000381469727 -3.7599999904632568
vt 1.4600000381469727 1
vt 1.4600000381469727 1
vt 1.4600000381469727 1
vt 1.4600000381469727 1
vt 1.4600000381469727 3.4000000953674316
vt 1.4600000381469727 3.4000000953674316
vt 1.4600000381469727 3.4000000953674316
vt 1.4600000381469727 3.4000000953674316
vt 1.4199999570846558 8.1599998474121094
vt 1.4199999570846558 8.1599998474121094
vt 1.4199999570846558 -6.1599998474121094
vt 1.4199999570846558 -6.1599998474121094
vt 1.4199999570846558 3.4000000953674316
vt 1.4199999570846558 3.4000000953674316
vt 1.4199999570846558 3.4000000953674316
vt 1.4199999570846558 3.4000000953674316
vt 1.4041899442672729 8.1549997329711914
vt 1.7044099569320679 5.755000114440918
vt 1.7044099569320679 5.755000114440918
vt 1.4041899442672729 -6.1550002098083496
vt 1.4041899442672729 3.4049999713897705
vt 1.7044099569320679 1.0049999952316284
vt 1.4041899442672729 3.3949999809265137
vt 1.6885999441146851 1.0199999809265137
vt 1.3883800506591797 3.380000114440918
vt -0.9716230034828186 0.98000001907348633
vt 1.6885999441146851 5.7399997711181641
vt 1.6885999441146851 5.7399997711181641
vt -0.9716230034828186 -3.7400000095367432
vt -0.66812700033187866 5.8642101287841797
vt 1.3883800506591797 -3.7400000095367432
vt 1.3883800506591797 -3.7400000095367432
vt -0.6822739839553833 5.8807902336120605
vt 1.4041899442672729 -3.7650001049041748
vt 1.4041899442672729 -3.755000114440918
vt 1.4041899442672729 -3.755000114440918
vt 1.4199999570846558 -3.7599999904632568
vt 1.4199999570846558 -3.7599999904632568
vt 1.4199999570846558 -3.7599999904632568
vt 1.4199999570846558 1
vt 1.4199999570846558 1
vt 1.4199999570846558 1
vt 1.4199999570846558 1
vt 1.4041899442672729 1.0049999952316284
vt 1.4041899442672729 0.99500000476837158
vt 1.4041899442672729 0.99500000476837158
vt 1.3883800506591797 1.0199999809265137
vt 1.3883800506591797 0.98000001907348633
vt 1.3883800506591797 0.98000001907348633
vn 0 1 0
vn 0 0.94868332147598267 -0.31622776389122009
vn 0.31622776389122009 0.94868332147598267 0
vn 0 1 0
vn 0 0.94868332147598267 0.31622776389122009
vn -0.31622776389122009 0.94868332147598267 0
vn 0 1 0
vn 0.31622776389122009 0.94868332147598267 0
vn 0 0.94868332147598267 0.31622776389122009
vn 0 1 0
vn 0 0.94868332147598267 -0.31622776389122009
vn -0.31622776389122009 0.94868332147598267 0
vn 0 0.70710676908493042 -0.70710676908493042
vn -0.31622776389122009 0.94868332147598267 0
vn -0.94868332147598267 0.31622776389122009 0
vn 0 0.94868332147598267 -0.31622776389122009
vn 0.31622776389122009 0.94868332147598267 0
vn 0 0.31622776389122009 -0.94868332147598267
vn 0.94868332147598267 0.31622776389122009 0
vn 0.31622776389122009 0.94868332147598267 0
vn 0 0.94868332147598267 0.31622776389122009
vn 0.94868332147598267 0.31622776389122009 0
vn 0 0.31622776389122009 0.94868332147598267
vn 0 0.94868332147598267 0.31622776389122009
vn -0.31622776389122009 0.94868332147598267 0
vn -0.94868332147598267 0.31622776389122009 0
vn 0 0.31622776389122009 0.94868332147598267
vn -0.94868332147598267 0.31622776389122009 0
vn 0 0.21326455473899841 0.97699451446533203
vn -1 0 0
vn -0.94868332147598267 0.31622776389122009 0
vn 0 0.31622776389122009 -0.94868332147598267
vn -1 0 0
vn 0 0 -1
vn 0 0.31622776389122009 -0.94868332147598267
vn 0.94868332147598267 0.31622776389122009 0
vn 0 0 -1
vn 1 0 0
vn 0.94868332147598267 0.31622776389122009 0
vn 0 0.31622776389122009 0.94868332147598267
vn 0 0 1
vn 1 0 0
vn 0 0 1
vn 0 -0.31622776389122009 0.94868332147598267
vn -0.94868332147598267 -0.31622776389122009 0
vn -1 0 0
vn 0 0 1
vn 0 -0.31622776389122009 0.94868332147598267
vn 1 0 0
vn 0.94868332147598267 -0.31622776389122009 0
vn 0 -0.31622776389122009 0.94868332147598267
vn 0 -0.94868332147598267 0.31622776389122009
vn -0.31622776389122009 -0.94868332147598267 0
vn -0.94868332147598267 -0.31622776389122009 0
vn 0 -0.31622776389122009 0.94868332147598267
vn 0 -0.94868332147598267 0.31622776389122009
vn 0.70710676908493042 -0.70710676908493042 0
vn 0 -0.94868332147598267 0.31622776389122009
vn 0.31622776389122009 -0.94868332147598267 0
vn 0 -1 0
vn 0 -0.94868332147598267 0.31622776389122009
vn -0.31622776389122009 -0.94868332147598267 0
vn 0 -1 0
vn -0.31622776389122009 -0.94868332147598267 0
vn 0 -1 0
vn 0 -0.94868332147598267 -0.31622776389122009
vn -0.31622776389122009 -0.94868332147598267 0
vn -0.94868332147598267 -0.31622776389122009 0
vn 0 -0.94868332147598267 -0.31622776389122009
vn 0 -0.31622776389122009 -0.94868332147598267
vn -0.94868332147598267 -0.31622776389122009 0
vn -1 0 0
vn 0 -0.21326455473899841 -0.97699451446533203
vn 0 0 -1
vn 1 0 0
vn 0.94868332147598267 -0.31622776389122009 0
vn 0 -0.31622776389122009 -0.94868332147598267
vn 0.70710676908493042 -0.70710676908493042 0
vn 0 -0.94868332147598267 -0.31622776389122009
vn 0 -0.31622776389122009 -0.94868332147598267
vn 0.31622776389122009 -0.94868332147598267 0
vn 0 -1 0
vn 0 -0.94868332147598267 -0.31622776389122009
f 1/1/1 4/4/4 7/7/7
f 4/4/4 1/1/1 10/10/10
f 2/2/2 13/13/13 11/11/11
f 13/13/13 2/2/2 16/16/16
f 8/8/8 17/17/17 3/3/3
f 17/17/17 8/8/8 20/20/20
f 9/9/9 24/24/24 21/21/21
f 24/24/24 9/9/9 5/5/5
f 6/6/6 14/14/14 25/25/25
f 14/14/14 6/6/6 12/12/12
f 15/15/15 28/28/28 26/26/26
f 28/28/28 15/15/15 31/31/31
f 13/13/13 35/35/35 32/32/32
f 35/35/35 13/13/13 18/18/18
f 19/19/19 39/39/39 36/36/36
f 39/39/39 19/19/19 22/22/22
f 23/23/23 29/29/29 40/40/40
f 29/29/29 23/23/23 27/27/27
f 43/43/43 41/41/41 29/29/29
f 41/41/41 43/43/43 47/47/47
f 51/51/51 48/48/48 44/44/44
f 48/48/48 51/51/51 55/55/55
f 52/52/52 58/58/58 56/56/56
f 58/58/58 52/52/52 61/61/61
f 53/53/53 64/64/64 62/62/62
f 64/64/64 53/53/53 67/67/67
f 45/45/45 68/68/68 54/54/54
f 68/68/68 45/45/45 71/71/71
f 46/46/46 33/33/33 72/72/72
f 33/33/33 46/46/46 30/30/30
f 34/34/34 74/74/74 73/73/73
f 74/74/74 34/34/34 37/37/37
f 42/42/42 75/75/75 38/38/38
f 75/75/75 42/42/42 49/49/49
f 50/50/50 78/78/78 76/76/76
f 78/78/78 50/50/50 57/57/57
f 59/59/59 78/78/78 57/57/57
f 78/78/78 59/59/59 81/81/81
f 60/60/60 65/65/65 82/82/82
f 65/65/65 60/60/60 63/63/63
f 69/69/69 83/83/83 66/66/66
f 83/83/83 69/69/69 79/79/79
f 73/73/73 80/80/80 70/70/70
f 80/80/80 73/73/73 77/77/77
