# Rhino

v -0.38165171060800002 0.20752029912 -0.10174085268700001
v -0.38033479605300002 -0.23387197689100001 -0.17634314187299999
v -0.38033479605300002 0.20752029912 -0.0985146630286
v -0.38165171060800002 -0.23387197689100001 -0.179569331532
v -0.38210016435700001 0.20752029912 -0.10520298256500001
v -0.38165171060800002 -0.23387197689100001 -0.179569331532
v -0.38165171060800002 0.20752029912 -0.10174085268700001
v -0.38210016435700001 -0.23387197689100001 -0.18303313474399999
v -0.38165171060800002 0.20752029912 -0.10866678577699999
v -0.38210016435700001 -0.23387197689100001 -0.18303313474399999
v -0.38210016435700001 0.20752029912 -0.10520298256500001
v -0.38165171060800002 -0.23387197689100001 -0.186495264621
v -0.38033479605300002 0.20752029912 -0.11189297543600001
v -0.38165171060800002 -0.23387197689100001 -0.186495264621
v -0.38165171060800002 0.20752029912 -0.10866678577699999
v -0.38033479605300002 -0.23387197689100001 -0.18972312761499999
v -0.378241454112 0.20752029912 -0.114664018006
v -0.38033479605300002 -0.23387197689100001 -0.18972312761499999
v -0.38033479605300002 0.20752029912 -0.11189297543600001
v -0.378241454112 -0.23387197689100001 -0.19249249684899999
v -0.378241454112 0.20752029912 -0.114664018006
v -0.37551224491500002 -0.23387197689100001 -0.194619305489
v -0.378241454112 -0.23387197689100001 -0.19249249684899999
v -0.37551224491500002 0.20752029912 -0.11679082664400001
v -0.36551406897599997 -0.23387197689100001 -0.19595630006199999
v -0.36892432547100001 0.20752029912 -0.11858296830700001
v -0.36551406897599997 0.20752029912 -0.11812614788299999
v -0.36892432547100001 -0.23387197689100001 -0.19641144715100001
v -0.36892432547100001 -0.23387197689100001 -0.16965314900199999
v -0.36892432547100001 -0.23387197689100001 -0.19641144715100001
v -0.36551406897599997 -0.23387197689100001 -0.19595630006199999
v -0.37233458196800001 -0.23387197689100001 -0.17010996942500001
v -0.37233458196800001 -0.23387197689100001 -0.19595630006199999
v -0.37551224491500002 -0.23387197689100001 -0.17144529066399999
v -0.37551224491500002 -0.23387197689100001 -0.194619305489
v -0.378241454112 -0.23387197689100001 -0.17357209930299999
v -0.378241454112 -0.23387197689100001 -0.19249249684899999
v -0.38033479605300002 -0.23387197689100001 -0.18972312761499999
v -0.38033479605300002 -0.23387197689100001 -0.17634314187299999
v -0.38165171060800002 -0.23387197689100001 -0.179569331532
v -0.38165171060800002 -0.23387197689100001 -0.186495264621
v -0.38210016435700001 -0.23387197689100001 -0.18303313474399999
v -0.36551406897599997 -0.23387197689100001 -0.17010996942500001
v -0.36233640602900002 -0.23387197689100001 -0.194619305489
v -0.36233640602900002 -0.23387197689100001 -0.17144529066399999
v -0.35960887016600002 -0.23387197689100001 -0.17357209930299999
v -0.35960887016600002 -0.23387197689100001 -0.19249249684899999
v -0.357513854889 -0.23387197689100001 -0.17634314187299999
v -0.357513854889 -0.23387197689100001 -0.18972312761499999
v -0.35619861367 -0.23387197689100001 -0.186495264621
v -0.35619861367 -0.23387197689100001 -0.179569331532
v -0.35574848658500002 -0.23387197689100001 -0.18303313474399999
v -0.378241454112 -0.23387197689100001 -0.17357209930299999
v -0.38033479605300002 0.20752029912 -0.0985146630286
v -0.38033479605300002 -0.23387197689100001 -0.17634314187299999
v -0.378241454112 0.20752029912 -0.095743620458799999
v -0.378241454112 -0.23387197689100001 -0.17357209930299999
v -0.37551224491500002 0.20752029912 -0.0936168118194
v -0.378241454112 0.20752029912 -0.095743620458799999
v -0.37551224491500002 -0.23387197689100001 -0.17144529066399999
v -0.37551224491500002 -0.23387197689100001 -0.17144529066399999
v -0.37233458196800001 0.20752029912 -0.092279817246399998
v -0.37551224491500002 0.20752029912 -0.0936168118194
v -0.37233458196800001 -0.23387197689100001 -0.17010996942500001
v -0.37233458196800001 -0.23387197689100001 -0.17010996942500001
v -0.36892432547100001 0.20752029912 -0.091824670157700003
v -0.37233458196800001 0.20752029912 -0.092279817246399998
v -0.36892432547100001 -0.23387197689100001 -0.16965314900199999
v -0.36892432547100001 -0.23387197689100001 -0.16965314900199999
v -0.36551406897599997 0.20752029912 -0.092279817246399998
v -0.36892432547100001 0.20752029912 -0.091824670157700003
v -0.36551406897599997 -0.23387197689100001 -0.17010996942500001
v -0.36551406897599997 0.20752029912 -0.11812614788299999
v -0.36233640602900002 -0.23387197689100001 -0.194619305489
v -0.36551406897599997 -0.23387197689100001 -0.19595630006199999
v -0.36233640602900002 0.20752029912 -0.11679082664400001
v -0.36233640602900002 0.20752029912 -0.11679082664400001
v -0.35960887016600002 -0.23387197689100001 -0.19249249684899999
v -0.36233640602900002 -0.23387197689100001 -0.194619305489
v -0.35960887016600002 0.20752029912 -0.114664018006
v -0.35960887016600002 0.20752029912 -0.114664018006
v -0.357513854889 -0.23387197689100001 -0.18972312761499999
v -0.35960887016600002 -0.23387197689100001 -0.19249249684899999
v -0.357513854889 0.20752029912 -0.11189297543600001
v -0.357513854889 0.20752029912 -0.11189297543600001
v -0.35619861367 -0.23387197689100001 -0.186495264621
v -0.357513854889 -0.23387197689100001 -0.18972312761499999
v -0.35619861367 0.20752029912 -0.10866678577699999
v -0.35619861367 0.20752029912 -0.10866678577699999
v -0.35574848658500002 -0.23387197689100001 -0.18303313474399999
v -0.35619861367 -0.23387197689100001 -0.186495264621
v -0.35574848658500002 0.20752029912 -0.10520298256500001
v -0.35574848658500002 0.20752029912 -0.10520298256500001
v -0.35619861367 -0.23387197689100001 -0.179569331532
v -0.35574848658500002 -0.23387197689100001 -0.18303313474399999
v -0.35619861367 0.20752029912 -0.10174085268700001
v -0.36551406897599997 0.20752029912 -0.092279817246399998
v -0.36233640602900002 -0.23387197689100001 -0.17144529066399999
v -0.36233640602900002 0.20752029912 -0.0936168118194
v -0.36551406897599997 -0.23387197689100001 -0.17010996942500001
v -0.35619861367 0.20752029912 -0.10174085268700001
v -0.357513854889 -0.23387197689100001 -0.17634314187299999
v -0.35619861367 -0.23387197689100001 -0.179569331532
v -0.357513854889 0.20752029912 -0.0985146630286
v -0.357513854889 0.20752029912 -0.0985146630286
v -0.35960887016600002 -0.23387197689100001 -0.17357209930299999
v -0.357513854889 -0.23387197689100001 -0.17634314187299999
v -0.35960887016600002 0.20752029912 -0.095743620458799999
v -0.35960887016600002 0.20752029912 -0.095743620458799999
v -0.36233640602900002 -0.23387197689100001 -0.17144529066399999
v -0.35960887016600002 -0.23387197689100001 -0.17357209930299999
v -0.36233640602900002 0.20752029912 -0.0936168118194
v -0.37551224491500002 -0.23387197689100001 -0.194619305489
v -0.37233458196800001 0.20752029912 -0.11812614788299999
v -0.37233458196800001 -0.23387197689100001 -0.19595630006199999
v -0.37551224491500002 0.20752029912 -0.11679082664400001
v -0.36892432547100001 -0.23387197689100001 -0.19641144715100001
v -0.37233458196800001 0.20752029912 -0.11812614788299999
v -0.36892432547100001 0.20752029912 -0.11858296830700001
v -0.37233458196800001 -0.23387197689100001 -0.19595630006199999
vt -16.25830078125 25.820499420166016
vt -20.356700897216797 -0.61589598655700684
vt -16.050100326538086 25.820499420166016
vt -20.565000534057617 -0.61589598655700684
vt -17.846599578857422 26.300699234008789
vt -22.250499725341797 -0.083996102213859558
vt -17.63800048828125 26.300699234008789
vt -22.459199905395508 -0.083996102213859558
vt -18.25779914855957 26.336099624633789
vt -22.661600112915039 -0.048598401248455048
vt -18.049100875854492 26.336099624633789
vt -22.87030029296875 -0.048598401248455048
vt -17.464899063110352 25.910299301147461
vt -21.563299179077148 -0.5260850191116333
vt -17.256599426269531 25.910299301147461
vt -21.771499633789062 -0.5260850191116333
vt -15.503899574279785 25.12660026550293
vt -19.007099151611328 -1.4000200033187866
vt -15.296299934387207 25.12660026550293
vt -19.214700698852539 -1.4000200033187866
vt -12.27400016784668 24.184499740600586
vt -15.339400291442871 -2.447429895401001
vt -15.132699966430664 -2.447429895401001
vt -12.48069953918457 24.184499740600586
vt 1.3538000583648682 -4.0543999671936035
vt 0.94310802221298218 22.723400115966797
vt 0.73750102519989014 22.723400115966797
vt 1.5594099760055542 -4.0543999671936035
vt -1.5748000144958496 21.949699401855469
vt -1.5748000144958496 23.548799514770508
vt -1.7785999774932861 23.521499633789062
vt -1.3710099458694458 21.976900100708008
vt -1.3710099458694458 23.521499633789062
vt -1.1811000108718872 22.056800842285156
vt -1.1811000108718872 23.441699981689453
vt -1.018030047416687 22.183900833129883
vt -1.018030047416687 23.314599990844727
vt -0.89289301633834839 23.14900016784668
vt -0.89289301633834839 22.34950065612793
vt -0.8142319917678833 22.542299270629883
vt -0.8142319917678833 22.956199645996094
vt -0.78740197420120239 22.749200820922852
vt -1.7785999774932861 21.976900100708008
vt -1.968500018119812 23.441699981689453
vt -1.968500018119812 22.056800842285156
vt -2.131580114364624 22.183900833129883
vt -2.131580114364624 23.314599990844727
vt -2.2567100524902344 22.34950065612793
vt -2.2567100524902344 23.14900016784668
vt -2.3353700637817383 22.956199645996094
vt -2.3353700637817383 22.542299270629883
vt -2.3622000217437744 22.749200820922852
vt -17.085100173950195 -1.4996800422668457
vt -13.58180046081543 25.026899337768555
vt -17.292600631713867 -1.4996800422668457
vt -13.374300003051758 25.026899337768555
vt -12.831600189208984 -2.4969499111175537
vt -9.7662200927734375 24.134899139404297
vt -9.9729499816894531 24.134899139404297
vt -12.624899864196777 -2.4969499111175537
vt -7.4628200531005859 -3.3352599143981934
vt -5.4535298347473145 23.388799667358398
vt -5.6595501899719238 23.388799667358398
vt -7.2568001747131348 -3.3352599143981934
vt -1.553130030632019 -3.781519889831543
vt -0.73122000694274902 22.996299743652344
vt -0.93682801723480225 22.996299743652344
vt -1.3475199937820435 -3.781519889831543
vt 4.4693498611450195 -3.7096700668334961
vt 4.0586600303649902 23.068099975585938
vt 3.8530499935150146 23.068099975585938
vt 4.6749601364135742 -3.7096700668334961
vt 5.6766700744628906 23.135099411010742
vt 7.2739200592041016 -3.5890300273895264
vt 7.4799399375915527 -3.5890300273895264
vt 5.4706501960754395 23.135099411010742
vt 9.9962596893310547 23.917800903320312
vt 12.648200035095215 -2.7141199111938477
vt 12.854999542236328 -2.7141199111938477
vt 9.7895298004150391 23.917800903320312
vt 13.604999542236328 24.86090087890625
vt 17.108299255371094 -1.6656500101089478
vt 17.315799713134766 -1.6656500101089478
vt 13.397500038146973 24.86090087890625
vt 16.275299072265625 25.716499328613281
vt 20.373600006103516 -0.71987998485565186
vt 20.581899642944336 -0.71987998485565186
vt 16.066999435424805 25.716499328613281
vt 17.852800369262695 26.265300750732422
vt 22.25670051574707 -0.11939399689435959
vt 22.465400695800781 -0.11939399689435959
vt 17.644100189208984 26.265300750732422
vt 18.25160026550293 26.371500015258789
vt 22.655500411987305 -0.013200799934566021
vt 22.864099502563477 -0.013200799934566021
vt 18.042900085449219 26.371500015258789
vt 8.3567800521850586 23.584699630737305
vt 10.366100311279297 -3.1393599510192871
vt 8.562800407409668 23.584699630737305
vt 10.160099983215332 -3.1393599510192871
vt 17.447999954223633 26.014299392700195
vt 21.546300888061523 -0.42210099101066589
vt 21.754600524902344 -0.42210099101066589
vt 17.239700317382812 26.014299392700195
vt 15.48069953918457 25.292499542236328
vt 18.98390007019043 -1.2340400218963623
vt 19.191499710083008 -1.2340400218963623
vt 15.273099899291992 25.292499542236328
vt 12.457400321960449 24.401599884033203
vt 15.109399795532227 -2.2302699089050293
vt 15.316100120544434 -2.2302699089050293
vt 12.250699996948242 24.401599884033203
vt -10.177200317382812 -3.3931300640106201
vt -8.5799198150634766 23.330999374389648
vt -10.383199691772461 -3.3931300640106201
vt -8.3739004135131836 23.330999374389648
vt -4.6812400817871094 -3.9825499057769775
vt -3.8593399524688721 22.795200347900391
vt -4.0649399757385254 22.795200347900391
vt -4.4756298065185547 -3.9825499057769775
vn -0.92378860712051392 -0.066489659249782562 0.37708589434623718
vn -0.92378860712051392 -0.066489659249782562 0.37708589434623718
vn -0.92378860712051392 -0.066489659249782562 0.37708589434623718
vn -0.92378860712051392 -0.066489659249782562 0.37708589434623718
vn -0.99146473407745361 -0.022639412432909012 0.12839457392692566
vn -0.99146473407745361 -0.022639412432909012 0.12839457392692566
vn -0.99146068096160889 -0.022644545882940292 0.12842506170272827
vn -0.99146878719329834 -0.022634277120232582 0.12836407124996185
vn -0.99146473407745361 0.022639412432909012 -0.12839457392692566
vn -0.99146473407745361 0.022639412432909012 -0.12839457392692566
vn -0.99146878719329834 0.022634277120232582 -0.12836407124996185
vn -0.99146068096160889 0.022644545882940292 -0.12842506170272827
vn -0.92382365465164185 0.066475659608840942 -0.37700247764587402
vn -0.92382365465164185 0.066475659608840942 -0.37700247764587402
vn -0.92378860712051392 0.066489659249782562 -0.37708589434623718
vn -0.92385870218276978 0.066461659967899323 -0.37691903114318848
vn -0.79335588216781616 0.10570965707302094 -0.59950971603393555
vn -0.79335588216781616 0.10570965707302094 -0.59950971603393555
vn -0.79344457387924194 0.10569068789482117 -0.59939563274383545
vn -0.79326719045639038 0.1057286337018013 -0.59962373971939087
vn -0.60881674289703369 0.13775546848773956 -0.78125894069671631
vn -0.60881674289703369 0.13775546848773956 -0.78125894069671631
vn -0.60881674289703369 0.13775546848773956 -0.78125894069671631
vn -0.60881674289703369 0.13775546848773956 -0.78125894069671631
vn 0.13055121898651123 0.17216192185878754 -0.97637933492660522
vn 0.13055121898651123 0.17216192185878754 -0.97637933492660522
vn 0.13078662753105164 0.17215831577777863 -0.97634845972061157
vn 0.13031578063964844 0.17216549813747406 -0.9764101505279541
vn 0 -1 0
vn 0 -1 0
vn 0 -1 0
vn 0 -1 0
vn 0 -1 0
vn 0 -1 0
vn 0 -1 0
vn 0 -1 0
vn 0 -1 0
vn 0 -1 0
vn 0 -1 0
vn 0 -1 0
vn 0 -1 0
vn 0 -1 0
vn 0 -1 0
vn 0 -1 0
vn 0 -1 0
vn 0 -1 0
vn 0 -1 0
vn 0 -1 0
vn 0 -1 0
vn 0 -1 0
vn 0 -1 0
vn 0 -1 0
vn -0.79344481229782104 -0.10568844527006149 0.59939581155776978
vn -0.79344481229782104 -0.10568844527006149 0.59939581155776978
vn -0.79344481229782104 -0.10568844527006149 0.59939581155776978
vn -0.79344481229782104 -0.10568844527006149 0.59939581155776978
vn -0.60881674289703369 -0.13775546848773956 0.78125894069671631
vn -0.60881674289703369 -0.13775546848773956 0.78125894069671631
vn -0.60881674289703369 -0.13775546848773956 0.78125894069671631
vn -0.60881674289703369 -0.13775546848773956 0.78125894069671631
vn -0.38259100914001465 -0.16043654084205627 0.90988141298294067
vn -0.38259100914001465 -0.16043654084205627 0.90988141298294067
vn -0.38279560208320618 -0.16042014956474304 0.909798264503479
vn -0.38238638639450073 -0.16045291721820831 0.90996456146240234
vn -0.13055120408535004 -0.17216190695762634 0.97637933492660522
vn -0.13055120408535004 -0.17216190695762634 0.97637933492660522
vn -0.13031570613384247 -0.17216908931732178 0.97640955448150635
vn -0.1307867020368576 -0.17215472459793091 0.9763491153717041
vn 0.13055120408535004 -0.17216190695762634 0.97637933492660522
vn 0.13055120408535004 -0.17216190695762634 0.97637933492660522
vn 0.13031578063964844 -0.17216549813747406 0.9764101505279541
vn 0.13078662753105164 -0.17215831577777863 0.97634851932525635
vn 0.38259097933769226 0.16043654084205627 -0.90988147258758545
vn 0.38259097933769226 0.16043654084205627 -0.90988147258758545
vn 0.38279536366462708 0.16042351722717285 -0.9097977876663208
vn 0.38238659501075745 0.1604495644569397 -0.90996509790420532
vn 0.60905176401138306 0.1377241313457489 -0.78108131885528564
vn 0.60905176401138306 0.1377241313457489 -0.78108131885528564
vn 0.60905176401138306 0.1377241313457489 -0.78108131885528564
vn 0.60905176401138306 0.1377241313457489 -0.78108131885528564
vn 0.7931208610534668 0.10576282441616058 -0.59981119632720947
vn 0.7931208610534668 0.10576282441616058 -0.59981119632720947
vn 0.79303210973739624 0.10578179359436035 -0.59992522001266479
vn 0.79320967197418213 0.10574385523796082 -0.59969717264175415
vn 0.92399561405181885 0.066403552889823914 -0.37659353017807007
vn 0.92399561405181885 0.066403552889823914 -0.37659353017807007
vn 0.924030601978302 0.066389568150043488 -0.3765101432800293
vn 0.92396062612533569 0.06641753762960434 -0.37667688727378845
vn 0.99140173196792603 0.02272244356572628 -0.12886546552181244
vn 0.99140173196792603 0.02272244356572628 -0.12886546552181244
vn 0.99139761924743652 0.022727595642209053 -0.1288960725069046
vn 0.99140584468841553 0.022717291489243507 -0.12883485853672028
vn 0.99140173196792603 -0.02272244356572628 0.12886546552181244
vn 0.99140173196792603 -0.02272244356572628 0.12886546552181244
vn 0.99140584468841553 -0.022717291489243507 0.12883485853672028
vn 0.99139761924743652 -0.022727595642209053 0.1288960725069046
vn 0.38259100914001465 -0.16043654084205627 0.90988141298294067
vn 0.38259100914001465 -0.16043654084205627 0.90988141298294067
vn 0.38279560208320618 -0.16042014956474304 0.909798264503479
vn 0.38238638639450073 -0.16045291721820831 0.90996456146240234
vn 0.92396062612533569 -0.06641753762960434 0.37667688727378845
vn 0.92396062612533569 -0.06641753762960434 0.37667688727378845
vn 0.92396062612533569 -0.06641753762960434 0.37667688727378845
vn 0.92396062612533569 -0.06641753762960434 0.37667688727378845
vn 0.79320985078811646 -0.10574160516262054 0.5996972918510437
vn 0.79320985078811646 -0.10574160516262054 0.5996972918510437
vn 0.79320985078811646 -0.10574160516262054 0.5996972918510437
vn 0.79320985078811646 -0.10574160516262054 0.5996972918510437
vn 0.60905176401138306 -0.1377241313457489 0.78108131885528564
vn 0.60905176401138306 -0.1377241313457489 0.78108131885528564
vn 0.60905176401138306 -0.1377241313457489 0.78108131885528564
vn 0.60905176401138306 -0.1377241313457489 0.78108131885528564
vn -0.38259097933769226 0.16043654084205627 -0.90988147258758545
vn -0.38259097933769226 0.16043654084205627 -0.90988147258758545
vn -0.38279536366462708 0.16042351722717285 -0.9097977876663208
vn -0.38238659501075745 0.1604495644569397 -0.90996509790420532
vn -0.13055120408535004 0.17216190695762634 -0.97637933492660522
vn -0.13055120408535004 0.17216190695762634 -0.97637933492660522
vn -0.1307867020368576 0.17215472459793091 -0.9763491153717041
vn -0.13031570613384247 0.17216908931732178 -0.97640955448150635
f 1/1/1 2/2/2 3/3/3
f 2/2/2 1/1/1 4/4/4
f 5/5/5 6/6/6 7/7/7
f 6/6/6 5/5/5 8/8/8
f 9/9/9 10/10/10 11/11/11
f 10/10/10 9/9/9 12/12/12
f 13/13/13 14/14/14 15/15/15
f 14/14/14 13/13/13 16/16/16
f 17/17/17 18/18/18 19/19/19
f 18/18/18 17/17/17 20/20/20
f 21/21/21 22/22/22 23/23/23
f 22/22/22 21/21/21 24/24/24
f 25/25/25 26/26/26 27/27/27
f 26/26/26 25/25/25 28/28/28
f 29/29/29 30/30/30 31/31/31
f 32/32/32 30/30/30 29/29/29
f 32/32/32 33/33/33 30/30/30
f 34/34/34 33/33/33 32/32/32
f 34/34/34 35/35/35 33/33/33
f 36/36/36 35/35/35 34/34/34
f 36/36/36 37/37/37 35/35/35
f 36/36/36 38/38/38 37/37/37
f 39/39/39 38/38/38 36/36/36
f 40/40/40 38/38/38 39/39/39
f 40/40/40 41/41/41 38/38/38
f 41/41/41 40/40/40 42/42/42
f 29/29/29 31/31/31 43/43/43
f 43/43/43 31/31/31 44/44/44
f 43/43/43 44/44/44 45/45/45
f 45/45/45 44/44/44 46/46/46
f 46/46/46 44/44/44 47/47/47
f 46/46/46 47/47/47 48/48/48
f 48/48/48 47/47/47 49/49/49
f 48/48/48 49/49/49 50/50/50
f 48/48/48 50/50/50 51/51/51
f 51/51/51 50/50/50 52/52/52
f 53/53/53 54/54/54 55/55/55
f 54/54/54 53/53/53 56/56/56
f 57/57/57 58/58/58 59/59/59
f 58/58/58 57/57/57 60/60/60
f 61/61/61 62/62/62 63/63/63
f 62/62/62 61/61/61 64/64/64
f 65/65/65 66/66/66 67/67/67
f 66/66/66 65/65/65 68/68/68
f 69/69/69 70/70/70 71/71/71
f 70/70/70 69/69/69 72/72/72
f 73/73/73 74/74/74 75/75/75
f 74/74/74 73/73/73 76/76/76
f 77/77/77 78/78/78 79/79/79
f 78/78/78 77/77/77 80/80/80
f 81/81/81 82/82/82 83/83/83
f 82/82/82 81/81/81 84/84/84
f 85/85/85 86/86/86 87/87/87
f 86/86/86 85/85/85 88/88/88
f 89/89/89 90/90/90 91/91/91
f 90/90/90 89/89/89 92/92/92
f 93/93/93 94/94/94 95/95/95
f 94/94/94 93/93/93 96/96/96
f 97/97/97 98/98/98 99/99/99
f 98/98/98 97/97/97 100/100/100
f 101/101/101 102/102/102 103/103/103
f 102/102/102 101/101/101 104/104/104
f 105/105/105 106/106/106 107/107/107
f 106/106/106 105/105/105 108/108/108
f 109/109/109 110/110/110 111/111/111
f 110/110/110 109/109/109 112/112/112
f 113/113/113 114/114/114 115/115/115
f 114/114/114 113/113/113 116/116/116
f 117/117/117 118/118/118 119/119/119
f 118/118/118 117/117/117 120/120/120
