# Rhino

v 0.014600698234799999 -0.19456014956500001 0.29512689604499998
v 0.014600698234799999 -0.19456014956500001 0.29512689604499998
v -0.0145996968495 -0.19456014956500001 0.014769056136799999
v -0.0145996968495 -0.19456014956500001 0.014769056136799999
v -0.0145996968495 -0.19456014956500001 0.014769056136799999
v -0.0145996968495 -0.19456014956500001 0.29512689604499998
v -0.0145996968495 -0.19456014956500001 0.29512689604499998
v 0.014600698234799999 -0.19456014956500001 0.014769056136799999
v 0.014600698234799999 -0.19456014956500001 0.014769056136799999
v 0.014600698234799999 -0.19456014956500001 0.014769056136799999
v 0.014600698234799999 -0.231619166066 0.014769056136799999
v 0.014600698234799999 -0.231619166066 0.014769056136799999
v 0.014600698234799999 -0.231619166066 0.014769056136799999
v 0.014600698234799999 -0.231619166066 0.29512689604499998
v 0.014600698234799999 -0.231619166066 0.29512689604499998
v -0.0145996968495 -0.231619166066 0.29512689604499998
v -0.0145996968495 -0.231619166066 0.29512689604499998
v -0.0145996968495 -0.231619166066 0.014769056136799999
v -0.0145996968495 -0.231619166066 0.014769056136799999
v -0.0145996968495 -0.231619166066 0.014769056136799999
v -0.0145996968495 -0.19456014956500001 -0.0147718099464
v -0.0145996968495 -0.19456014956500001 -0.0147718099464
v -0.0145996968495 -0.19456014956500001 -0.0147718099464
v -0.29174058651099999 -0.19456014956500001 -0.0147718099464
v -0.29174058651099999 -0.19456014956500001 -0.0147718099464
v -0.29174058651099999 -0.19456014956500001 0.014769056136799999
v -0.29174058651099999 -0.19456014956500001 0.014769056136799999
v -0.29174058651099999 -0.231619166066 0.014769056136799999
v -0.29174058651099999 -0.231619166066 0.014769056136799999
v -0.29174058651099999 -0.231619166066 -0.0147718099464
v -0.29174058651099999 -0.231619166066 -0.0147718099464
v -0.0145996968495 -0.231619166066 -0.0147718099464
v -0.0145996968495 -0.231619166066 -0.0147718099464
v -0.0145996968495 -0.231619166066 -0.0147718099464
v 0.014600698234799999 -0.231619166066 -0.0147718099464
v 0.014600698234799999 -0.231619166066 -0.0147718099464
v 0.014600698234799999 -0.231619166066 -0.0147718099464
v 0.29174158789600002 -0.231619166066 -0.0147718099464
v 0.29174158789600002 -0.231619166066 -0.0147718099464
v 0.29174158789600002 -0.19456014956500001 -0.0147718099464
v 0.29174158789600002 -0.19456014956500001 -0.0147718099464
v 0.014600698234799999 -0.19456014956500001 -0.0147718099464
v 0.014600698234799999 -0.19456014956500001 -0.0147718099464
v 0.014600698234799999 -0.19456014956500001 -0.0147718099464
v -0.0145996968495 -0.19456014956500001 -0.29512714639199999
v -0.0145996968495 -0.19456014956500001 -0.29512714639199999
v 0.014600698234799999 -0.19456014956500001 -0.29512714639199999
v 0.014600698234799999 -0.19456014956500001 -0.29512714639199999
v 0.014600698234799999 -0.231619166066 -0.29512714639199999
v 0.014600698234799999 -0.231619166066 -0.29512714639199999
v 0.29174158789600002 -0.231619166066 0.014769056136799999
v 0.29174158789600002 -0.231619166066 0.014769056136799999
v 0.29174158789600002 -0.19456014956500001 0.014769056136799999
v 0.29174158789600002 -0.19456014956500001 0.014769056136799999
v -0.0145996968495 -0.231619166066 -0.29512714639199999
v -0.0145996968495 -0.231619166066 -0.29512714639199999
vt 0.14680400490760803 -1.3801300525665283
vt 0.14680400490760803 0.2992820143699646
vt 0.16459700465202332 -1.378790020942688
vt -0.16459700465202332 0.2992820143699646
vt 1.9401600360870361 0.2992820143699646
vt 0.14680400490760803 -1.378790020942688
vt -0.14680400490760803 0.2992820143699646
vt 0.16459700465202332 -1.3801300525665283
vt 0.16459700465202332 0.2992820143699646
vt 1.9420299530029297 0.2992820143699646
vt 0.16459700465202332 0.29608398675918579
vt -0.16459700465202332 -1.3801300525665283
vt 1.9420299530029297 0.29608398675918579
vt 0.14680400490760803 0.29608398675918579
vt -0.14680400490760803 -1.3801300525665283
vt -0.14680400490760803 0.29608398675918579
vt -0.14680400490760803 -1.378790020942688
vt -0.16459700465202332 0.29608398675918579
vt 1.9401600360870361 0.29608398675918579
vt -0.16459700465202332 -1.378790020942688
vt -0.16647100448608398 0.2992820143699646
vt 0.16647100448608398 -1.378790020942688
vt -1.9401600360870361 0.2992820143699646
vt 0.16647100448608398 -1.3661500215530396
vt -1.9223699569702148 0.2992820143699646
vt 0.16459700465202332 -1.3661500215530396
vt 1.9223699569702148 0.2992820143699646
vt 1.9223699569702148 0.29608398675918579
vt -0.16459700465202332 -1.3661500215530396
vt -1.9223699569702148 0.29608398675918579
vt -0.16647100448608398 -1.3661500215530396
vt -1.9401600360870361 0.29608398675918579
vt -0.16647100448608398 -1.378790020942688
vt -0.16647100448608398 0.29608398675918579
vt -1.9420299530029297 0.29608398675918579
vt 0.16647100448608398 0.29608398675918579
vt -0.16647100448608398 -1.3801300525665283
vt -1.9598300457000732 0.29608398675918579
vt -0.16647100448608398 -1.3927700519561768
vt -1.9598300457000732 0.2992820143699646
vt 0.16647100448608398 -1.3927700519561768
vt -1.9420299530029297 0.2992820143699646
vt 0.16647100448608398 -1.3801300525665283
vt 0.16647100448608398 0.2992820143699646
vt 0.18426400423049927 -1.378790020942688
vt -0.18426400423049927 0.2992820143699646
vt 0.18426400423049927 -1.3801300525665283
vt 0.18426400423049927 0.2992820143699646
vt 0.18426400423049927 0.29608398675918579
vt -0.18426400423049927 -1.3801300525665283
vt -0.16459700465202332 -1.3927700519561768
vt 1.9598300457000732 0.29608398675918579
vt 1.9598300457000732 0.2992820143699646
vt 0.16459700465202332 -1.3927700519561768
vt -0.18426400423049927 0.29608398675918579
vt -0.18426400423049927 -1.378790020942688
vn 0 1 0
vn 1 0 0
vn 0 1 0
vn -1 0 0
vn 0 0 1
vn 0 1 0
vn -1 0 0
vn 0 1 0
vn 1 0 0
vn 0 0 1
vn 1 0 0
vn 0 -1 0
vn 0 0 1
vn 1 0 0
vn 0 -1 0
vn -1 0 0
vn 0 -1 0
vn -1 0 0
vn 0 0 1
vn 0 -1 0
vn -1 0 0
vn 0 1 0
vn 0 0 1
vn 0 1 0
vn 0 0 -1
vn 0 1 0
vn 0 0 1
vn 0 0 1
vn 0 -1 0
vn 0 0 -1
vn 0 -1 0
vn 0 0 -1
vn 0 -1 0
vn -1 0 0
vn 0 0 -1
vn 1 0 0
vn 0 -1 0
vn 0 0 -1
vn 0 -1 0
vn 0 0 -1
vn 0 1 0
vn 0 0 1
vn 0 1 0
vn 1 0 0
vn 0 1 0
vn -1 0 0
vn 0 1 0
vn 1 0 0
vn 1 0 0
vn 0 -1 0
vn 0 -1 0
vn 0 0 1
vn 0 0 1
vn 0 1 0
vn -1 0 0
vn 0 -1 0
f 1/1/1 3/3/3 6/6/6
f 3/3/3 1/1/1 8/8/8
f 2/2/2 11/11/11 9/9/9
f 11/11/11 2/2/2 14/14/14
f 4/4/4 16/16/16 7/7/7
f 16/16/16 4/4/4 18/18/18
f 18/18/18 4/4/4 21/21/21
f 24/24/24 3/3/3 22/22/22
f 3/3/3 24/24/24 26/26/26
f 25/25/25 32/32/32 30/30/30
f 32/32/32 25/25/25 35/35/35
f 35/35/35 25/25/25 38/38/38
f 38/38/38 25/25/25 40/40/40
f 40/40/40 25/25/25 23/23/23
f 40/40/40 23/23/23 42/42/42
f 43/43/43 45/45/45 22/22/22
f 45/45/45 43/43/43 47/47/47
f 44/44/44 49/49/49 48/48/48
f 44/44/44 36/36/36 49/49/49
f 9/9/9 36/36/36 44/44/44
f 9/9/9 11/11/11 36/36/36
f 39/39/39 12/12/12 37/37/37
f 12/12/12 39/39/39 51/51/51
f 53/53/53 13/13/13 52/52/52
f 13/13/13 53/53/53 19/19/19
f 19/19/19 53/53/53 28/28/28
f 28/28/28 53/53/53 27/27/27
f 27/27/27 53/53/53 10/10/10
f 54/54/54 43/43/43 8/8/8
f 43/43/43 54/54/54 41/41/41
f 22/22/22 8/8/8 43/43/43
f 8/8/8 22/22/22 3/3/3
f 27/27/27 10/10/10 5/5/5
f 29/29/29 33/33/33 20/20/20
f 33/33/33 29/29/29 31/31/31
f 18/18/18 21/21/21 34/34/34
f 34/34/34 21/21/21 55/55/55
f 55/55/55 21/21/21 46/46/46
f 50/50/50 33/33/33 56/56/56
f 33/33/33 50/50/50 37/37/37
f 37/37/37 20/20/20 33/33/33
f 20/20/20 37/37/37 12/12/12
f 12/12/12 17/17/17 20/20/20
f 17/17/17 12/12/12 15/15/15
