# Rhino

v 0.226396361676 -0.18222494745100001 0.23366680734199999
v 0.29280494459299999 -0.21617640105200001 0.23366680734199999
v 0.27423329104999999 -0.21617640105200001 0.23366680734199999
v 0.29280494459299999 -0.15979848801999999 0.23366680734199999
v 0.226050246604 -0.18099905076700001 0.23366680734199999
v 0.225733409272 -0.17976532736100001 0.23366680734199999
v 0.22544613956000001 -0.17852435698899999 0.23366680734199999
v 0.22518843746700001 -0.17727671940799999 0.23366680734199999
v 0.22496117262900001 -0.176023284255 0.23366680734199999
v 0.22476347541 -0.17476492116699999 0.23366680734199999
v 0.224596215446 -0.17350192002000001 0.23366680734199999
v 0.224459392737 -0.17223544032900001 0.23366680734199999
v 0.22435271740599999 -0.17096606185300001 0.23366680734199999
v 0.22427647932799999 -0.169694654226 0.23366680734199999
v 0.22423067850699999 -0.16842150732700001 0.23366680734199999
v 0.22421560481899999 -0.167147780671 0.23366680734199999
v 0.22421560481899999 -0.15979848801999999 0.23366680734199999
vt 0.077737100422382355 0.043810199946165085
vt 0.035312999039888382 0.022120699286460876
vt 0.047177299857139587 0.022120699286460876
vt 0.035312999039888382 0.058136999607086182
vt 0.077958397567272186 0.044593300670385361
vt 0.078160800039768219 0.045381501317024231
vt 0.078344300389289856 0.046174298971891403
vt 0.078508801758289337 0.04697129875421524
vt 0.078654199838638306 0.047772001475095749
vt 0.078780300915241241 0.048576001077890396
vt 0.078887201845645905 0.049382701516151428
vt 0.078974701464176178 0.05019180104136467
vt 0.079042799770832062 0.051002800464630127
vt 0.079091496765613556 0.051815100014209747
vt 0.079120703041553497 0.052628401666879654
vt 0.079130403697490692 0.053442098200321198
vt 0.079130403697490692 0.058136999607086182
vn 0 0 -1
vn 0 0 -1
vn 0 0 -1
vn 0 0 -1
vn 0 0 -1
vn 0 0 -1
vn 0 0 -1
vn 0 0 -1
vn 0 0 -1
vn 0 0 -1
vn 0 0 -1
vn 0 0 -1
vn 0 0 -1
vn 0 0 -1
vn 0 0 -1
vn 0 0 -1
vn 0 0 -1
f 1/1/1 2/2/2 3/3/3
f 2/2/2 1/1/1 4/4/4
f 4/4/4 1/1/1 5/5/5
f 4/4/4 5/5/5 6/6/6
f 4/4/4 6/6/6 7/7/7
f 4/4/4 7/7/7 8/8/8
f 4/4/4 8/8/8 9/9/9
f 4/4/4 9/9/9 10/10/10
f 4/4/4 10/10/10 11/11/11
f 4/4/4 11/11/11 12/12/12
f 4/4/4 12/12/12 13/13/13
f 4/4/4 13/13/13 14/14/14
f 4/4/4 14/14/14 15/15/15
f 4/4/4 15/15/15 16/16/16
f 4/4/4 16/16/16 17/17/17
