# Rhino

v 0.25930802066800002 -0.233296603357 0.23327257241999999
v 0.25930802066800002 -0.233296603357 0.23327257241999999
v 0.25930802066800002 -0.233296603357 0.23327257241999999
v 0.25581034523899998 -0.224852207256 0.20987646900500001
v 0.25581034523899998 -0.224852207256 0.20987646900500001
v 0.25930802066800002 -0.233296603357 0.20987646900500001
v 0.25930802066800002 -0.233296603357 0.20987646900500001
v 0.25581034523899998 -0.224852207256 0.23327257241999999
v 0.25581034523899998 -0.224852207256 0.23327257241999999
v 0.25581034523899998 -0.224852207256 0.23327257241999999
v 0.32344966581399998 -0.224852207256 0.23327257241999999
v 0.32344966581399998 -0.224852207256 0.23327257241999999
v 0.32344966581399998 -0.224852207256 0.23327257241999999
v 0.31995187443400003 -0.233296603357 0.23327257241999999
v 0.31995187443400003 -0.233296603357 0.23327257241999999
v 0.31995187443400003 -0.233296603357 0.23327257241999999
v 0.264872240777 -0.24054797501 0.23327257241999999
v 0.264872240777 -0.24054797501 0.23327257241999999
v 0.264872240777 -0.24054797501 0.23327257241999999
v 0.31438756736099999 -0.24054797501 0.23327257241999999
v 0.31438756736099999 -0.24054797501 0.23327257241999999
v 0.31438756736099999 -0.24054797501 0.23327257241999999
v 0.27212355445500003 -0.24611216613100001 0.23327257241999999
v 0.27212355445500003 -0.24611216613100001 0.23327257241999999
v 0.27212355445500003 -0.24611216613100001 0.23327257241999999
v 0.30713625368399999 -0.24611216613100001 0.23327257241999999
v 0.30713625368399999 -0.24611216613100001 0.23327257241999999
v 0.30713625368399999 -0.24611216613100001 0.23327257241999999
v 0.28056800853199998 -0.24960995171299999 0.23327257241999999
v 0.28056800853199998 -0.24960995171299999 0.23327257241999999
v 0.28056800853199998 -0.24960995171299999 0.23327257241999999
v 0.29869179960699999 -0.24960995171299999 0.23327257241999999
v 0.29869179960699999 -0.24960995171299999 0.23327257241999999
v 0.29869179960699999 -0.24960995171299999 0.23327257241999999
v 0.28962990406900002 -0.25080298195900003 0.23327257241999999
v 0.28962990406900002 -0.25080298195900003 0.23327257241999999
v 0.28962990406900002 -0.25080298195900003 0.23327257241999999
v 0.28962990406900002 -0.25080298195900003 0.20987646900500001
v 0.28962990406900002 -0.25080298195900003 0.20987646900500001
v 0.28056800853199998 -0.24960995171299999 0.20987646900500001
v 0.28056800853199998 -0.24960995171299999 0.20987646900500001
v 0.27212355445500003 -0.24611216613100001 0.20987646900500001
v 0.27212355445500003 -0.24611216613100001 0.20987646900500001
v 0.264872240777 -0.24054797501 0.20987646900500001
v 0.264872240777 -0.24054797501 0.20987646900500001
v 0.31438756736099999 -0.24054797501 0.20987646900500001
v 0.31438756736099999 -0.24054797501 0.20987646900500001
v 0.30713625368399999 -0.24611216613100001 0.20987646900500001
v 0.30713625368399999 -0.24611216613100001 0.20987646900500001
v 0.29869179960699999 -0.24960995171299999 0.20987646900500001
v 0.29869179960699999 -0.24960995171299999 0.20987646900500001
v 0.31995187443400003 -0.233296603357 0.20987646900500001
v 0.31995187443400003 -0.233296603357 0.20987646900500001
v 0.32344966581399998 -0.224852207256 0.20987646900500001
v 0.32344966581399998 -0.224852207256 0.20987646900500001
v 0.25461720484 -0.21579028273 0.20987646900500001
v 0.25461720484 -0.21579028273 0.20987646900500001
v 0.25461720484 -0.21579028273 0.23327257241999999
v 0.25461720484 -0.21579028273 0.23327257241999999
v 0.25461720484 -0.21579028273 0.23327257241999999
v 0.32464269026199999 -0.21579028273 0.23327257241999999
v 0.32464269026199999 -0.21579028273 0.23327257241999999
v 0.32464269026199999 -0.21579028273 0.23327257241999999
v 0.32464269026199999 -0.21579028273 0.20987646900500001
v 0.32464269026199999 -0.21579028273 0.20987646900500001
v 0.25581034523899998 -0.20672838719299999 0.20987646900500001
v 0.25581034523899998 -0.20672838719299999 0.20987646900500001
v 0.25581034523899998 -0.20672838719299999 0.23327257241999999
v 0.25581034523899998 -0.20672838719299999 0.23327257241999999
v 0.25581034523899998 -0.20672838719299999 0.23327257241999999
v 0.32344966581399998 -0.20672838719299999 0.23327257241999999
v 0.32344966581399998 -0.20672838719299999 0.23327257241999999
v 0.32344966581399998 -0.20672838719299999 0.23327257241999999
v 0.32344966581399998 -0.20672838719299999 0.20987646900500001
v 0.32344966581399998 -0.20672838719299999 0.20987646900500001
v 0.25930802066800002 -0.19828393311600001 0.20987646900500001
v 0.25930802066800002 -0.19828393311600001 0.20987646900500001
v 0.25930802066800002 -0.19828393311600001 0.23327257241999999
v 0.25930802066800002 -0.19828393311600001 0.23327257241999999
v 0.25930802066800002 -0.19828393311600001 0.23327257241999999
v 0.31995187443400003 -0.19828393311600001 0.23327257241999999
v 0.31995187443400003 -0.19828393311600001 0.23327257241999999
v 0.31995187443400003 -0.19828393311600001 0.23327257241999999
v 0.31995187443400003 -0.19828393311600001 0.20987646900500001
v 0.31995187443400003 -0.19828393311600001 0.20987646900500001
v 0.31438756736099999 -0.19103232955900001 0.20987646900500001
v 0.31438756736099999 -0.19103232955900001 0.20987646900500001
v 0.264872240777 -0.19103232955900001 0.20987646900500001
v 0.264872240777 -0.19103232955900001 0.20987646900500001
v 0.264872240777 -0.19103232955900001 0.23327257241999999
v 0.264872240777 -0.19103232955900001 0.23327257241999999
v 0.264872240777 -0.19103232955900001 0.23327257241999999
v 0.31438756736099999 -0.19103232955900001 0.23327257241999999
v 0.31438756736099999 -0.19103232955900001 0.23327257241999999
v 0.31438756736099999 -0.19103232955900001 0.23327257241999999
v 0.30713625368399999 -0.185468399329 0.20987646900500001
v 0.30713625368399999 -0.185468399329 0.20987646900500001
v 0.30713625368399999 -0.185468399329 0.23327257241999999
v 0.30713625368399999 -0.185468399329 0.23327257241999999
v 0.30713625368399999 -0.185468399329 0.23327257241999999
v 0.29869179960699999 -0.181970434022 0.23327257241999999
v 0.29869179960699999 -0.181970434022 0.23327257241999999
v 0.29869179960699999 -0.181970434022 0.23327257241999999
v 0.29869179960699999 -0.181970434022 0.20987646900500001
v 0.29869179960699999 -0.181970434022 0.20987646900500001
v 0.28056800853199998 -0.181970434022 0.20987646900500001
v 0.28056800853199998 -0.181970434022 0.20987646900500001
v 0.27212355445500003 -0.185468399329 0.20987646900500001
v 0.27212355445500003 -0.185468399329 0.20987646900500001
v 0.27212355445500003 -0.185468399329 0.23327257241999999
v 0.27212355445500003 -0.185468399329 0.23327257241999999
v 0.27212355445500003 -0.185468399329 0.23327257241999999
v 0.28056800853199998 -0.181970434022 0.23327257241999999
v 0.28056800853199998 -0.181970434022 0.23327257241999999
v 0.28056800853199998 -0.181970434022 0.23327257241999999
v 0.28962990406900002 -0.18077758350100001 0.23327257241999999
v 0.28962990406900002 -0.18077758350100001 0.23327257241999999
v 0.28962990406900002 -0.18077758350100001 0.23327257241999999
v 0.28962990406900002 -0.18077758350100001 0.20987646900500001
v 0.28962990406900002 -0.18077758350100001 0.20987646900500001
v 0.25581034523899998 -0.224852207256 0.20987646900500001
v 0.25930802066800002 -0.233296603357 0.20987646900500001
v 0.28962990406900002 -0.25080298195900003 0.20987646900500001
v 0.28056800853199998 -0.24960995171299999 0.20987646900500001
v 0.27212355445500003 -0.24611216613100001 0.20987646900500001
v 0.264872240777 -0.24054797501 0.20987646900500001
v 0.31438756736099999 -0.24054797501 0.20987646900500001
v 0.30713625368399999 -0.24611216613100001 0.20987646900500001
v 0.29869179960699999 -0.24960995171299999 0.20987646900500001
v 0.31995187443400003 -0.233296603357 0.20987646900500001
v 0.32344966581399998 -0.224852207256 0.20987646900500001
v 0.25461720484 -0.21579028273 0.20987646900500001
v 0.32464269026199999 -0.21579028273 0.20987646900500001
v 0.25581034523899998 -0.20672838719299999 0.20987646900500001
v 0.32344966581399998 -0.20672838719299999 0.20987646900500001
v 0.25930802066800002 -0.19828393311600001 0.20987646900500001
v 0.31995187443400003 -0.19828393311600001 0.20987646900500001
v 0.31438756736099999 -0.19103232955900001 0.20987646900500001
v 0.264872240777 -0.19103232955900001 0.20987646900500001
v 0.30713625368399999 -0.185468399329 0.20987646900500001
v 0.29869179960699999 -0.181970434022 0.20987646900500001
v 0.28056800853199998 -0.181970434022 0.20987646900500001
v 0.27212355445500003 -0.185468399329 0.20987646900500001
v 0.28962990406900002 -0.18077758350100001 0.20987646900500001
vt 0 0
vt -0.05671200156211853 0.01118369959294796
vt 0.14053900539875031 0
vt 0.0058557800948619843 0.014945999719202518
vt 0.0058557800948619843 0.014945999719202518
vt 0 0.014945999719202518
vt 0.14053900539875031 0.014945999719202518
vt 0.0058557800948619843 0
vt -0.058946598321199417 0.016578299924731255
vt 0.0058557800948619843 0
vt -0.01573600061237812 0.016578299924731255
vt 0.087836697697639465 0
vt 0.087836697697639465 0
vt -0.017970500513911247 0.01118369959294796
vt 0.093692496418952942 0
vt 0.093692496418952942 0
vt -0.053157400339841843 0.0065512699075043201
vt 0.13468299806118011 0
vt 0.13468299806118011 0
vt -0.021525099873542786 0.0065512699075043201
vt 0.099548302590847015 0
vt 0.099548302590847015 0
vt -0.048525001853704453 0.0029966700822114944
vt 0.12882700562477112 0
vt 0.12882700562477112 0
vt -0.026157600805163383 0.0029966700822114944
vt 0.10540399700403214 0
vt 0.10540399700403214 0
vt -0.043130401521921158 0.00076215201988816261
vt 0.12297099828720093 0
vt 0.12297099828720093 0
vt -0.031552199274301529 0.00076215201988816261
vt 0.11125999689102173 0
vt 0.11125999689102173 0
vt -0.037341300398111343 0
vt 0.11711599677801132 0
vt 0.11711599677801132 0
vt 0.11711599677801132 0.014945999719202518
vt 0.11711599677801132 0.014945999719202518
vt 0.12297099828720093 0.014945999719202518
vt 0.12297099828720093 0.014945999719202518
vt 0.12882700562477112 0.014945999719202518
vt 0.12882700562477112 0.014945999719202518
vt 0.13468299806118011 0.014945999719202518
vt 0.13468299806118011 0.014945999719202518
vt 0.099548302590847015 0.014945999719202518
vt 0.099548302590847015 0.014945999719202518
vt 0.10540399700403214 0.014945999719202518
vt 0.10540399700403214 0.014945999719202518
vt 0.11125999689102173 0.014945999719202518
vt 0.11125999689102173 0.014945999719202518
vt 0.093692496418952942 0.014945999719202518
vt 0.093692496418952942 0.014945999719202518
vt 0.087836697697639465 0.014945999719202518
vt 0.087836697697639465 0.014945999719202518
vt 0.011711600236594677 0.014945999719202518
vt 0.011711600236594677 0.014945999719202518
vt 0.011711600236594677 0
vt -0.059708699584007263 0.02236739918589592
vt 0.011711600236594677 0
vt -0.01497379969805479 0.02236739918589592
vt 0.081981003284454346 0
vt 0.081981003284454346 0
vt 0.081981003284454346 0.014945999719202518
vt 0.081981003284454346 0.014945999719202518
vt 0.01756729930639267 0.014945999719202518
vt 0.01756729930639267 0.014945999719202518
vt 0.01756729930639267 0
vt -0.058946598321199417 0.028156600892543793
vt 0.01756729930639267 0
vt -0.01573600061237812 0.028156600892543793
vt 0.076125197112560272 0
vt 0.076125197112560272 0
vt 0.076125197112560272 0.014945999719202518
vt 0.076125197112560272 0.014945999719202518
vt 0.023423099890351295 0.014945999719202518
vt 0.023423099890351295 0.014945999719202518
vt 0.023423099890351295 0
vt -0.05671200156211853 0.033551201224327087
vt 0.023423099890351295 0
vt -0.017970500513911247 0.033551201224327087
vt 0.070269398391246796 0
vt 0.070269398391246796 0
vt 0.070269398391246796 0.014945999719202518
vt 0.070269398391246796 0.014945999719202518
vt 0.064413599669933319 0.014945999719202518
vt 0.064413599669933319 0.014945999719202518
vt 0.029278900474309921 0.014945999719202518
vt 0.029278900474309921 0.014945999719202518
vt 0.029278900474309921 0
vt -0.053157400339841843 0.038183599710464478
vt 0.029278900474309921 0
vt -0.021525099873542786 0.038183599710464478
vt 0.064413599669933319 0
vt 0.064413599669933319 0
vt 0.058557800948619843 0.014945999719202518
vt 0.058557800948619843 0.014945999719202518
vt 0.058557800948619843 0
vt 0.058557800948619843 0
vt -0.026157600805163383 0.041738200932741165
vt 0.052701998502016068 0
vt -0.031552199274301529 0.043972700834274292
vt 0.052701998502016068 0
vt 0.052701998502016068 0.014945999719202518
vt 0.052701998502016068 0.014945999719202518
vt 0.040990501642227173 0.014945999719202518
vt 0.040990501642227173 0.014945999719202518
vt 0.035134699195623398 0.014945999719202518
vt 0.035134699195623398 0.014945999719202518
vt 0.035134699195623398 0
vt -0.048525001853704453 0.041738200932741165
vt 0.035134699195623398 0
vt -0.043130401521921158 0.043972700834274292
vt 0.040990501642227173 0
vt 0.040990501642227173 0
vt -0.037341300398111343 0.044734898954629898
vt 0.046846300363540649 0
vt 0.046846300363540649 0
vt 0.046846300363540649 0.014945999719202518
vt 0.046846300363540649 0.014945999719202518
vt 3.1831099987030029 0.89522898197174072
vt 3.0624499320983887 0.60392099618911743
vt 2.0164299011230469 0
vt 2.3290400505065918 0.04115619882941246
vt 2.6203498840332031 0.16181999444961548
vt 2.8705000877380371 0.35376900434494019
vt 1.1623599529266357 0.35376900434494019
vt 1.4125100374221802 0.16181999444961548
vt 1.7038199901580811 0.04115619882941246
vt 0.97040700912475586 0.60392099618911743
vt 0.84974300861358643 0.89522898197174072
vt 3.2242701053619385 1.2078399658203125
vt 0.80858701467514038 1.2078399658203125
vt 3.1831099987030029 1.5204499959945679
vt 0.84974300861358643 1.5204499959945679
vt 3.0624499320983887 1.8117599487304688
vt 0.97040700912475586 1.8117599487304688
vt 1.1623599529266357 2.0619199275970459
vt 2.8705000877380371 2.0619199275970459
vt 1.4125100374221802 2.2538599967956543
vt 1.7038199901580811 2.3745300769805908
vt 2.3290400505065918 2.3745300769805908
vt 2.6203498840332031 2.2538599967956543
vt 2.0164299011230469 2.415679931640625
vn -0.92388373613357544 -0.38267335295677185 0
vn 0 0 1
vn -0.79335087537765503 -0.6087646484375 0
vn -0.92388373613357544 -0.38267335295677185 0
vn -0.9914432168006897 -0.13053859770298004 0
vn -0.92388373613357544 -0.38267335295677185 0
vn -0.79335087537765503 -0.6087646484375 0
vn -0.92388373613357544 -0.38267335295677185 0
vn 0 0 1
vn -0.9914432168006897 -0.13053859770298004 0
vn 0 0 1
vn 0.99144488573074341 -0.13052614033222198 0
vn 0.92387920618057251 -0.38268417119979858 0
vn 0 0 1
vn 0.79334628582000732 -0.60877066850662231 0
vn 0.92387920618057251 -0.38268417119979858 0
vn 0 0 1
vn -0.60876572132110596 -0.79335004091262817 0
vn -0.79335087537765503 -0.6087646484375 0
vn 0 0 1
vn 0.60876572132110596 -0.79335004091262817 0
vn 0.79334628582000732 -0.60877066850662231 0
vn 0 0 1
vn -0.38268139958381653 -0.92388039827346802 0
vn -0.60876572132110596 -0.79335004091262817 0
vn 0 0 1
vn 0.38268139958381653 -0.92388039827346802 0
vn 0.60876572132110596 -0.79335004091262817 0
vn 0 0 1
vn -0.13052716851234436 -0.99144470691680908 0
vn -0.38268139958381653 -0.92388039827346802 0
vn 0 0 1
vn 0.13052716851234436 -0.99144470691680908 0
vn 0.38268139958381653 -0.92388039827346802 0
vn 0 0 1
vn -0.13052716851234436 -0.99144470691680908 0
vn 0.13052716851234436 -0.99144470691680908 0
vn -0.13052716851234436 -0.99144470691680908 0
vn 0.13052716851234436 -0.99144470691680908 0
vn -0.13052716851234436 -0.99144470691680908 0
vn -0.38268139958381653 -0.92388039827346802 0
vn -0.38268139958381653 -0.92388039827346802 0
vn -0.60876572132110596 -0.79335004091262817 0
vn -0.60876572132110596 -0.79335004091262817 0
vn -0.79335087537765503 -0.6087646484375 0
vn 0.60876572132110596 -0.79335004091262817 0
vn 0.79334628582000732 -0.60877066850662231 0
vn 0.38268139958381653 -0.92388039827346802 0
vn 0.60876572132110596 -0.79335004091262817 0
vn 0.13052716851234436 -0.99144470691680908 0
vn 0.38268139958381653 -0.92388039827346802 0
vn 0.79334628582000732 -0.60877066850662231 0
vn 0.92387920618057251 -0.38268417119979858 0
vn 0.99144488573074341 -0.13052614033222198 0
vn 0.92387920618057251 -0.38268417119979858 0
vn -0.9914432168006897 -0.13053859770298004 0
vn -0.99144315719604492 0.13053901493549347 0
vn -0.9914432168006897 -0.13053859770298004 0
vn 0 0 1
vn -0.99144315719604492 0.13053901493549347 0
vn 0 0 1
vn 0.99144488573074341 -0.13052614033222198 0
vn 0.99144482612609863 0.13052654266357422 0
vn 0.99144488573074341 -0.13052614033222198 0
vn 0.99144482612609863 0.13052654266357422 0
vn -0.99144315719604492 0.13053901493549347 0
vn -0.92388463020324707 0.38267111778259277 0
vn -0.99144315719604492 0.13053901493549347 0
vn 0 0 1
vn -0.92388463020324707 0.38267111778259277 0
vn 0 0 1
vn 0.99144482612609863 0.13052654266357422 0
vn 0.92388015985488892 0.38268193602561951 0
vn 0.99144482612609863 0.13052654266357422 0
vn 0.92388015985488892 0.38268193602561951 0
vn -0.92388463020324707 0.38267111778259277 0
vn -0.79336023330688477 0.60875242948532104 0
vn -0.92388463020324707 0.38267111778259277 0
vn 0 0 1
vn -0.79336023330688477 0.60875242948532104 0
vn 0 0 1
vn 0.92388015985488892 0.38268193602561951 0
vn 0.79335564374923706 0.60875838994979858 0
vn 0.92388015985488892 0.38268193602561951 0
vn 0.79335564374923706 0.60875838994979858 0
vn 0.79335564374923706 0.60875838994979858 0
vn 0.60874778032302856 0.79336380958557129 0
vn -0.79336023330688477 0.60875242948532104 0
vn -0.60874778032302856 0.79336380958557129 0
vn -0.79336023330688477 0.60875242948532104 0
vn 0 0 1
vn -0.60874778032302856 0.79336380958557129 0
vn 0 0 1
vn 0.79335564374923706 0.60875838994979858 0
vn 0.60874778032302856 0.79336380958557129 0
vn 0.60874778032302856 0.79336380958557129 0
vn 0.3826981782913208 0.9238734245300293 0
vn 0.60874778032302856 0.79336380958557129 0
vn 0.3826981782913208 0.9238734245300293 0
vn 0 0 1
vn 0.3826981782913208 0.9238734245300293 0
vn 0 0 1
vn 0.13050784170627594 0.99144726991653442 0
vn 0.3826981782913208 0.9238734245300293 0
vn 0.13050784170627594 0.99144726991653442 0
vn -0.13050784170627594 0.99144726991653442 0
vn -0.3826981782913208 0.9238734245300293 0
vn -0.60874778032302856 0.79336380958557129 0
vn -0.3826981782913208 0.9238734245300293 0
vn -0.60874778032302856 0.79336380958557129 0
vn 0 0 1
vn -0.3826981782913208 0.9238734245300293 0
vn 0 0 1
vn -0.13050784170627594 0.99144726991653442 0
vn -0.3826981782913208 0.9238734245300293 0
vn 0 0 1
vn 0.13050784170627594 0.99144726991653442 0
vn -0.13050784170627594 0.99144726991653442 0
vn 0.13050784170627594 0.99144726991653442 0
vn -0.13050784170627594 0.99144726991653442 0
vn 0 0 -1
vn 0 0 -1
vn 0 0 -1
vn 0 0 -1
vn 0 0 -1
vn 0 0 -1
vn 0 0 -1
vn 0 0 -1
vn 0 0 -1
vn 0 0 -1
vn 0 0 -1
vn 0 0 -1
vn 0 0 -1
vn 0 0 -1
vn 0 0 -1
vn 0 0 -1
vn 0 0 -1
vn 0 0 -1
vn 0 0 -1
vn 0 0 -1
vn 0 0 -1
vn 0 0 -1
vn 0 0 -1
vn 0 0 -1
f 1/1/1 4/4/4 6/6/6
f 4/4/4 1/1/1 8/8/8
f 2/2/2 11/11/11 9/9/9
f 2/2/2 14/14/14 11/11/11
f 17/17/17 14/14/14 2/2/2
f 17/17/17 20/20/20 14/14/14
f 23/23/23 20/20/20 17/17/17
f 23/23/23 26/26/26 20/20/20
f 29/29/29 26/26/26 23/23/23
f 29/29/29 32/32/32 26/26/26
f 32/32/32 29/29/29 35/35/35
f 30/30/30 38/38/38 36/36/36
f 38/38/38 30/30/30 40/40/40
f 24/24/24 41/41/41 31/31/31
f 41/41/41 24/24/24 42/42/42
f 18/18/18 43/43/43 25/25/25
f 43/43/43 18/18/18 44/44/44
f 19/19/19 7/7/7 45/45/45
f 7/7/7 19/19/19 3/3/3
f 50/50/50 37/37/37 39/39/39
f 37/37/37 50/50/50 33/33/33
f 48/48/48 34/34/34 51/51/51
f 34/34/34 48/48/48 27/27/27
f 46/46/46 28/28/28 49/49/49
f 28/28/28 46/46/46 21/21/21
f 47/47/47 15/15/15 22/22/22
f 15/15/15 47/47/47 52/52/52
f 5/5/5 58/58/58 56/56/56
f 58/58/58 5/5/5 10/10/10
f 9/9/9 61/61/61 59/59/59
f 9/9/9 11/11/11 61/61/61
f 54/54/54 62/62/62 12/12/12
f 62/62/62 54/54/54 64/64/64
f 60/60/60 66/66/66 57/57/57
f 66/66/66 60/60/60 68/68/68
f 59/59/59 71/71/71 69/69/69
f 59/59/59 61/61/61 71/71/71
f 63/63/63 74/74/74 72/72/72
f 74/74/74 63/63/63 65/65/65
f 67/67/67 78/78/78 76/76/76
f 78/78/78 67/67/67 70/70/70
f 69/69/69 81/81/81 79/79/79
f 69/69/69 71/71/71 81/81/81
f 73/73/73 84/84/84 82/82/82
f 84/84/84 73/73/73 75/75/75
f 80/80/80 88/88/88 77/77/77
f 88/88/88 80/80/80 90/90/90
f 79/79/79 93/93/93 91/91/91
f 79/79/79 81/81/81 93/93/93
f 85/85/85 94/94/94 83/83/83
f 94/94/94 85/85/85 86/86/86
f 96/96/96 95/95/95 87/87/87
f 95/95/95 96/96/96 98/98/98
f 97/97/97 101/101/101 99/99/99
f 101/101/101 97/97/97 104/104/104
f 89/89/89 110/110/110 108/108/108
f 110/110/110 89/89/89 92/92/92
f 91/91/91 100/100/100 111/111/111
f 91/91/91 93/93/93 100/100/100
f 111/111/111 100/100/100 102/102/102
f 111/111/111 102/102/102 113/113/113
f 113/113/113 102/102/102 116/116/116
f 103/103/103 119/119/119 117/117/117
f 119/119/119 103/103/103 105/105/105
f 114/114/114 120/120/120 106/106/106
f 120/120/120 114/114/114 118/118/118
f 109/109/109 115/115/115 107/107/107
f 115/115/115 109/109/109 112/112/112
f 13/13/13 53/53/53 55/55/55
f 53/53/53 13/13/13 16/16/16
f 127/127/127 126/126/126 122/122/122
f 127/127/127 125/125/125 126/126/126
f 128/128/128 125/125/125 127/127/127
f 129/129/129 125/125/125 128/128/128
f 129/129/129 124/124/124 125/125/125
f 124/124/124 129/129/129 123/123/123
f 127/127/127 122/122/122 130/130/130
f 130/130/130 122/122/122 121/121/121
f 130/130/130 121/121/121 131/131/131
f 131/131/131 121/121/121 132/132/132
f 131/131/131 132/132/132 133/133/133
f 133/133/133 132/132/132 134/134/134
f 133/133/133 134/134/134 135/135/135
f 135/135/135 134/134/134 136/136/136
f 135/135/135 136/136/136 137/137/137
f 137/137/137 136/136/136 138/138/138
f 138/138/138 136/136/136 139/139/139
f 140/140/140 142/142/142 141/141/141
f 140/140/140 143/143/143 142/142/142
f 138/138/138 143/143/143 140/140/140
f 138/138/138 139/139/139 143/143/143
f 141/141/141 142/142/142 144/144/144
