# Rhino

v 0.20629338101899999 0.00115860278164 -0.208687568076
v 0.20629338101899999 0.00115860278164 -0.208687568076
v 0.20629338101899999 0.00115860278164 -0.208687568076
v 0.25265501652799999 0.015055827849500001 -0.147563009917
v 0.25265501652799999 0.015055827849500001 -0.147563009917
v 0.25265501652799999 0.015055827849500001 -0.147563009917
v 0.25265501652799999 0.00115860278164 -0.147563009917
v 0.25265501652799999 0.00115860278164 -0.147563009917
v 0.25265501652799999 0.00115860278164 -0.147563009917
v 0.20629338101899999 0.015055827849500001 -0.208687568076
v 0.20629338101899999 0.015055827849500001 -0.208687568076
v 0.20629338101899999 0.015055827849500001 -0.208687568076
v 0.14587229602599999 0.015055827849500001 -0.25558744817899998
v 0.14587229602599999 0.015055827849500001 -0.25558744817899998
v 0.14587229602599999 0.015055827849500001 -0.25558744817899998
v 0.14587229602599999 0.00115860278164 -0.25558744817899998
v 0.14587229602599999 0.00115860278164 -0.25558744817899998
v 0.14587229602599999 0.00115860278164 -0.25558744817899998
v 0.14587229602599999 0.00115860278164 0.25558719783200001
v 0.14587229602599999 0.00115860278164 0.25558719783200001
v 0.14587229602599999 0.00115860278164 0.25558719783200001
v 0.0755074550939 0.00115860278164 0.28507048426199999
v 0.0755074550939 0.00115860278164 0.28507048426199999
v 0.0755074550939 0.00115860278164 0.28507048426199999
v 0.0755074550939 0.00115860278164 -0.285070734607
v 0.0755074550939 0.00115860278164 -0.285070734607
v 0.0755074550939 0.00115860278164 -0.285070734607
v 5.0069264556500002E-07 0.00115860278164 0.29512689604499998
v 5.0069264556500002E-07 0.00115860278164 0.29512689604499998
v 5.0069264556500002E-07 0.00115860278164 0.29512689604499998
v 5.0069264552999998E-07 0.00115860278164 -0.29512714639199999
v 5.0069264552999998E-07 0.00115860278164 -0.29512714639199999
v 5.0069264552999998E-07 0.00115860278164 -0.29512714639199999
v -0.075508957171899996 0.00115860278164 0.28507048426199999
v -0.075508957171899996 0.00115860278164 0.28507048426199999
v -0.075508957171899996 0.00115860278164 0.28507048426199999
v -0.075508957171899996 0.00115860278164 -0.285070734607
v -0.075508957171899996 0.00115860278164 -0.285070734607
v -0.075508957171899996 0.00115860278164 -0.285070734607
v -0.14587129464099999 0.00115860278164 0.25558719783200001
v -0.14587129464099999 0.00115860278164 0.25558719783200001
v -0.14587129464099999 0.00115860278164 0.25558719783200001
v -0.14587129464099999 0.00115860278164 -0.25558744817899998
v -0.14587129464099999 0.00115860278164 -0.25558744817899998
v -0.14587129464099999 0.00115860278164 -0.25558744817899998
v -0.20629237963399999 0.00115860278164 0.20868731772999999
v -0.20629237963399999 0.00115860278164 0.20868731772999999
v -0.20629237963399999 0.00115860278164 0.20868731772999999
v -0.20629237963399999 0.00115860278164 -0.208687568076
v -0.20629237963399999 0.00115860278164 -0.208687568076
v -0.20629237963399999 0.00115860278164 -0.208687568076
v -0.25265651860499999 0.00115860278164 0.14756275957000001
v -0.25265651860499999 0.00115860278164 0.14756275957000001
v -0.25265651860499999 0.00115860278164 0.14756275957000001
v -0.25265651860499999 0.00115860278164 -0.147563009917
v -0.25265651860499999 0.00115860278164 -0.147563009917
v -0.25265651860499999 0.00115860278164 -0.147563009917
v -0.28180183749900001 0.00115860278164 0.076384293089300004
v -0.28180183749900001 0.00115860278164 0.076384293089300004
v -0.28180183749900001 0.00115860278164 0.076384293089300004
v -0.28180183749900001 0.00115860278164 -0.0763845434356
v -0.28180183749900001 0.00115860278164 -0.0763845434356
v -0.28180183749900001 0.00115860278164 -0.0763845434356
v -0.28943489687899998 0.00115860278164 0.0177231427452
v -0.28943489687899998 0.00115860278164 0.0177231427452
v -0.29174058651099999 0.00115860278164 -1.37690477504E-06
v -0.29174058651099999 0.00115860278164 -1.37690477504E-06
v -0.29174058651099999 0.00115860278164 -1.37690477504E-06
v -0.29174058651099999 0.015055827849500001 -1.37690477504E-06
v -0.29174058651099999 0.015055827849500001 -1.37690477504E-06
v -0.29174058651099999 0.015055827849500001 -1.37690477504E-06
v -0.28180183749900001 0.015055827849500001 0.076384293089300004
v -0.28180183749900001 0.015055827849500001 0.076384293089300004
v -0.28180183749900001 0.015055827849500001 0.076384293089300004
v -0.25265651860499999 0.015055827849500001 0.14756275957000001
v -0.25265651860499999 0.015055827849500001 0.14756275957000001
v -0.25265651860499999 0.015055827849500001 0.14756275957000001
v -0.20629237963399999 0.015055827849500001 0.20868731772999999
v -0.20629237963399999 0.015055827849500001 0.20868731772999999
v -0.20629237963399999 0.015055827849500001 0.20868731772999999
v -0.14587129464099999 0.015055827849500001 0.25558719783200001
v -0.14587129464099999 0.015055827849500001 0.25558719783200001
v -0.14587129464099999 0.015055827849500001 0.25558719783200001
v -0.075508957171899996 0.015055827849500001 0.28507048426199999
v -0.075508957171899996 0.015055827849500001 0.28507048426199999
v -0.075508957171899996 0.015055827849500001 0.28507048426199999
v 5.0069264556500002E-07 0.015055827849500001 0.29512689604499998
v 5.0069264556500002E-07 0.015055827849500001 0.29512689604499998
v 5.0069264556500002E-07 0.015055827849500001 0.29512689604499998
v 0.0755074550939 0.015055827849500001 0.28507048426199999
v 0.0755074550939 0.015055827849500001 0.28507048426199999
v 0.0755074550939 0.015055827849500001 0.28507048426199999
v 0.14587229602599999 0.015055827849500001 0.25558719783200001
v 0.14587229602599999 0.015055827849500001 0.25558719783200001
v 0.14587229602599999 0.015055827849500001 0.25558719783200001
v 0.20629338101899999 0.015055827849500001 0.20868731772999999
v 0.20629338101899999 0.015055827849500001 0.20868731772999999
v 0.20629338101899999 0.015055827849500001 0.20868731772999999
v 0.20629338101899999 0.00115860278164 0.20868731772999999
v 0.20629338101899999 0.00115860278164 0.20868731772999999
v 0.20629338101899999 0.00115860278164 0.20868731772999999
v 0.25265501652799999 0.00115860278164 0.14756275957000001
v 0.25265501652799999 0.00115860278164 0.14756275957000001
v 0.25265501652799999 0.00115860278164 0.14756275957000001
v 0.28180033541999999 0.00115860278164 -0.0763845434356
v 0.28180033541999999 0.00115860278164 -0.0763845434356
v 0.28180033541999999 0.00115860278164 -0.0763845434356
v 0.28180033541999999 0.015055827849500001 -0.0763845434356
v 0.28180033541999999 0.015055827849500001 -0.0763845434356
v 0.28180033541999999 0.015055827849500001 -0.0763845434356
v 0.28180033541999999 0.015055827849500001 0.076384293089300004
v 0.28180033541999999 0.015055827849500001 0.076384293089300004
v 0.28180033541999999 0.015055827849500001 0.076384293089300004
v 0.25265501652799999 0.015055827849500001 0.14756275957000001
v 0.25265501652799999 0.015055827849500001 0.14756275957000001
v 0.25265501652799999 0.015055827849500001 0.14756275957000001
v 0.0755074550939 0.015055827849500001 -0.285070734607
v 0.0755074550939 0.015055827849500001 -0.285070734607
v 0.0755074550939 0.015055827849500001 -0.285070734607
v 5.0069264552999998E-07 0.015055827849500001 -0.29512714639199999
v 5.0069264552999998E-07 0.015055827849500001 -0.29512714639199999
v 5.0069264552999998E-07 0.015055827849500001 -0.29512714639199999
v -0.075508957171899996 0.015055827849500001 -0.285070734607
v -0.075508957171899996 0.015055827849500001 -0.285070734607
v -0.075508957171899996 0.015055827849500001 -0.285070734607
v -0.14587129464099999 0.015055827849500001 -0.25558744817899998
v -0.14587129464099999 0.015055827849500001 -0.25558744817899998
v -0.14587129464099999 0.015055827849500001 -0.25558744817899998
v -0.20629237963399999 0.015055827849500001 -0.208687568076
v -0.20629237963399999 0.015055827849500001 -0.208687568076
v -0.20629237963399999 0.015055827849500001 -0.208687568076
v -0.25265651860499999 0.015055827849500001 -0.147563009917
v -0.25265651860499999 0.015055827849500001 -0.147563009917
v -0.25265651860499999 0.015055827849500001 -0.147563009917
v -0.28180183749900001 0.015055827849500001 -0.0763845434356
v -0.28180183749900001 0.015055827849500001 -0.0763845434356
v -0.28180183749900001 0.015055827849500001 -0.0763845434356
v 0.28180033541999999 0.00115860278164 0.076384293089300004
v 0.28180033541999999 0.00115860278164 0.076384293089300004
v 0.28180033541999999 0.00115860278164 0.076384293089300004
v 0.29174158789600002 0.00115860278164 -1.37690477507E-06
v 0.29174158789600002 0.00115860278164 -1.37690477507E-06
v 0.29174158789600002 0.00115860278164 -1.37690477507E-06
v 0.29174158789600002 0.015055827849500001 -1.37690477507E-06
v 0.29174158789600002 0.015055827849500001 -1.37690477507E-06
v 0.29174158789600002 0.015055827849500001 -1.37690477507E-06
vt 0.13576300442218781 0.37297800183296204
vt -0.13576300442218781 0.37297800183296204
vt -0.73547601699829102 0.69689697027206421
vt 0.048829101026058197 0.39524498581886292
vt 0.31406500935554504 0.39524498581886292
vt 0.78839701414108276 0.6315460205078125
vt 0.048829101026058197 0.37297800183296204
vt -0.78839701414108276 0.6315460205078125
vt 0.31406500935554504 0.37297800183296204
vt 0.13576300442218781 0.39524498581886292
vt -0.13576300442218781 0.39524498581886292
vt 0.73547601699829102 0.69689697027206421
vt -0.048829101026058197 0.39524498581886292
vt 0.66650599241256714 0.74704301357269287
vt -0.31406500935554504 0.39524498581886292
vt -0.048829101026058197 0.37297800183296204
vt -0.66650599241256714 0.74704301357269287
vt -0.31406500935554504 0.37297800183296204
vt -0.66650599241256714 0.20050300657749176
vt 0.69674801826477051 0.37297800183296204
vt 0.65759098529815674 0.37297800183296204
vt -0.58618998527526855 0.16898000240325928
vt 0.60445201396942139 0.37297800183296204
vt 0.60981500148773193 0.37297800183296204
vt -0.58618998527526855 0.77856600284576416
vt -0.47392600774765015 0.37297800183296204
vt -0.22713099420070648 0.37297800183296204
vt -0.5 0.15822799503803253
vt 0.47392600774765015 0.37297800183296204
vt 0.51751899719238281 0.37297800183296204
vt -0.5 0.7893180251121521
vt -0.60445201396942139 0.37297800183296204
vt -0.38699200749397278 0.37297800183296204
vt -0.41381001472473145 0.16898000240325928
vt 0.31406500935554504 0.37297800183296204
vt 0.38699200749397278 0.37297800183296204
vt -0.41381001472473145 0.77856600284576416
vt -0.69674801826477051 0.37297800183296204
vt -0.51751899719238281 0.37297800183296204
vt -0.33349400758743286 0.20050300657749176
vt 0.13576300442218781 0.37297800183296204
vt 0.22713099420070648 0.37297800183296204
vt -0.33349400758743286 0.74704301357269287
vt -0.74452400207519531 0.37297800183296204
vt -0.60981500148773193 0.37297800183296204
vt -0.26452401280403137 0.25064900517463684
vt -0.048829101026058197 0.37297800183296204
vt 0.048829101026058197 0.37297800183296204
vt -0.26452401280403137 0.69689697027206421
vt -0.74452400207519531 0.37297800183296204
vt -0.65759098529815674 0.37297800183296204
vt -0.21160300076007843 0.31600099802017212
vt -0.22713099420070648 0.37297800183296204
vt -0.13576300442218781 0.37297800183296204
vt -0.21160300076007843 0.6315460205078125
vt -0.69674801826477051 0.37297800183296204
vt -0.65759098529815674 0.37297800183296204
vt -0.17833399772644043 0.39210399985313416
vt -0.38699200749397278 0.37297800183296204
vt -0.31406500935554504 0.37297800183296204
vt -0.17833399772644043 0.55544197559356689
vt -0.60445201396942139 0.37297800183296204
vt -0.60981500148773193 0.37297800183296204
vt -0.16962000727653503 0.45482200384140015
vt -0.4537540078163147 0.37297800183296204
vt -0.16698700189590454 0.47377300262451172
vt -0.47392600774765015 0.37297800183296204
vt -0.51751899719238281 0.37297800183296204
vt -0.47392600774765015 0.39524498581886292
vt 0.16698700189590454 0.47377300262451172
vt -0.51751899719238281 0.39524498581886292
vt -0.38699200749397278 0.39524498581886292
vt -0.31406500935554504 0.39524498581886292
vt 0.17833399772644043 0.39210399985313416
vt -0.22713099420070648 0.39524498581886292
vt -0.13576300442218781 0.39524498581886292
vt 0.21160300076007843 0.31600099802017212
vt -0.048829101026058197 0.39524498581886292
vt 0.048829101026058197 0.39524498581886292
vt 0.26452401280403137 0.25064900517463684
vt 0.13576300442218781 0.39524498581886292
vt 0.22713099420070648 0.39524498581886292
vt 0.33349400758743286 0.20050300657749176
vt 0.31406500935554504 0.39524498581886292
vt 0.38699200749397278 0.39524498581886292
vt 0.41381001472473145 0.16898000240325928
vt 0.47392600774765015 0.39524498581886292
vt 0.51751899719238281 0.39524498581886292
vt 0.5 0.15822799503803253
vt 0.60445201396942139 0.39524498581886292
vt 0.60981500148773193 0.39524498581886292
vt 0.58618998527526855 0.16898000240325928
vt 0.69674801826477051 0.39524498581886292
vt 0.65759098529815674 0.39524498581886292
vt 0.66650599241256714 0.20050300657749176
vt 0.74452400207519531 0.39524498581886292
vt 0.73547601699829102 0.25064900517463684
vt 0.65759098529815674 0.39524498581886292
vt 0.74452400207519531 0.37297800183296204
vt -0.73547601699829102 0.25064900517463684
vt 0.65759098529815674 0.37297800183296204
vt -0.78839701414108276 0.31600099802017212
vt 0.74452400207519531 0.37297800183296204
vt 0.60981500148773193 0.37297800183296204
vt 0.47392600774765015 0.37297800183296204
vt -0.82166600227355957 0.55544197559356689
vt 0.22713099420070648 0.37297800183296204
vt 0.47392600774765015 0.39524498581886292
vt 0.22713099420070648 0.39524498581886292
vt 0.82166600227355957 0.55544197559356689
vt 0.82166600227355957 0.39210399985313416
vt 0.69674801826477051 0.39524498581886292
vt 0.51751899719238281 0.39524498581886292
vt 0.78839701414108276 0.31600099802017212
vt 0.74452400207519531 0.39524498581886292
vt 0.60981500148773193 0.39524498581886292
vt 0.58618998527526855 0.77856600284576416
vt -0.47392600774765015 0.39524498581886292
vt -0.22713099420070648 0.39524498581886292
vt 0.5 0.7893180251121521
vt -0.60445201396942139 0.39524498581886292
vt -0.38699200749397278 0.39524498581886292
vt 0.41381001472473145 0.77856600284576416
vt -0.69674801826477051 0.39524498581886292
vt -0.51751899719238281 0.39524498581886292
vt 0.33349400758743286 0.74704301357269287
vt -0.74452400207519531 0.39524498581886292
vt -0.60981500148773193 0.39524498581886292
vt 0.26452401280403137 0.69689697027206421
vt -0.74452400207519531 0.39524498581886292
vt -0.65759098529815674 0.39524498581886292
vt 0.21160300076007843 0.6315460205078125
vt -0.69674801826477051 0.39524498581886292
vt -0.65759098529815674 0.39524498581886292
vt 0.17833399772644043 0.55544197559356689
vt -0.60445201396942139 0.39524498581886292
vt -0.60981500148773193 0.39524498581886292
vt 0.69674801826477051 0.37297800183296204
vt 0.51751899719238281 0.37297800183296204
vt -0.82166600227355957 0.39210399985313416
vt 0.60445201396942139 0.37297800183296204
vt 0.38699200749397278 0.37297800183296204
vt -0.83301299810409546 0.47377300262451172
vt 0.60445201396942139 0.39524498581886292
vt 0.38699200749397278 0.39524498581886292
vt 0.83301299810409546 0.47377300262451172
vn 0.79674601554870605 0 -0.60431432723999023
vn 0.61317217350006104 0 -0.78994929790496826
vn 0 -1 0
vn 0.79674601554870605 0 -0.60431432723999023
vn 0.92542457580566406 0 -0.37893193960189819
vn 0 1 0
vn 0.79674601554870605 0 -0.60431432723999023
vn 0 -1 0
vn 0.92542457580566406 0 -0.37893193960189819
vn 0.79674601554870605 0 -0.60431432723999023
vn 0.61317217350006104 0 -0.78994929790496826
vn 0 1 0
vn 0.61317217350006104 0 -0.78994929790496826
vn 0 1 0
vn 0.38645300269126892 0 -0.92230910062789917
vn 0.61317217350006104 0 -0.78994929790496826
vn 0 -1 0
vn 0.38645300269126892 0 -0.92230910062789917
vn 0 -1 0
vn 0.38645300269126892 0 0.92230910062789917
vn 0.61317217350006104 0 0.78994929790496826
vn 0 -1 0
vn 0.13201949000358582 0 0.99124711751937866
vn 0.38645300269126892 0 0.92230910062789917
vn 0 -1 0
vn 0.13201949000358582 0 -0.99124711751937866
vn 0.38645300269126892 0 -0.92230910062789917
vn 0 -1 0
vn -0.13201518356800079 0 0.99124771356582642
vn 0.13201949000358582 0 0.99124711751937866
vn 0 -1 0
vn -0.13201518356800079 0 -0.99124771356582642
vn 0.13201949000358582 0 -0.99124711751937866
vn 0 -1 0
vn -0.3864646852016449 0 0.92230421304702759
vn -0.13201518356800079 0 0.99124771356582642
vn 0 -1 0
vn -0.3864646852016449 0 -0.92230421304702759
vn -0.13201518356800079 0 -0.99124771356582642
vn 0 -1 0
vn -0.61317217350006104 0 0.78994929790496826
vn -0.3864646852016449 0 0.92230421304702759
vn 0 -1 0
vn -0.61317217350006104 0 -0.78994929790496826
vn -0.3864646852016449 0 -0.92230421304702759
vn 0 -1 0
vn -0.79673027992248535 0 0.60433506965637207
vn -0.61317217350006104 0 0.78994929790496826
vn 0 -1 0
vn -0.79673027992248535 0 -0.60433506965637207
vn -0.61317217350006104 0 -0.78994929790496826
vn 0 -1 0
vn -0.92542457580566406 0 0.37893193960189819
vn -0.79673027992248535 0 0.60433506965637207
vn 0 -1 0
vn -0.92542457580566406 0 -0.37893193960189819
vn -0.79673027992248535 0 -0.60433506965637207
vn 0 -1 0
vn -0.99164080619812012 2.3053662516758777E-05 0.12902930378913879
vn -0.92542457580566406 0 0.37893193960189819
vn 0 -1 0
vn -0.99164080619812012 0 -0.12902933359146118
vn -0.92542457580566406 0 -0.37893193960189819
vn 0 -1 0
vn -0.9916425347328186 2.3053662516758777E-05 0.12901565432548523
vn 0 -1 0
vn -0.99164485931396484 0 0.12899787724018097
vn -0.99164080619812012 0 -0.12902933359146118
vn -0.99164211750030518 1.5369108950835653E-05 0.12901882827281952
vn 0 1 0
vn -0.99164080619812012 0 -0.12902933359146118
vn -0.9916413426399231 0 0.1290251761674881
vn -0.92542457580566406 0 0.37893193960189819
vn 0 1 0
vn -0.92542457580566406 0 0.37893193960189819
vn -0.79673027992248535 0 0.60433506965637207
vn 0 1 0
vn -0.79673027992248535 0 0.60433506965637207
vn -0.61317217350006104 0 0.78994929790496826
vn 0 1 0
vn -0.61317217350006104 0 0.78994929790496826
vn -0.3864646852016449 0 0.92230421304702759
vn 0 1 0
vn -0.3864646852016449 0 0.92230421304702759
vn -0.13201518356800079 0 0.99124771356582642
vn 0 1 0
vn -0.13201518356800079 0 0.99124771356582642
vn 0.13201949000358582 0 0.99124711751937866
vn 0 1 0
vn 0.13201949000358582 0 0.99124711751937866
vn 0.38645300269126892 0 0.92230910062789917
vn 0 1 0
vn 0.38645300269126892 0 0.92230910062789917
vn 0.61317217350006104 0 0.78994929790496826
vn 0 1 0
vn 0.61317217350006104 0 0.78994929790496826
vn 0 1 0
vn 0.79674601554870605 0 0.60431432723999023
vn 0.61317217350006104 0 0.78994929790496826
vn 0 -1 0
vn 0.79674601554870605 0 0.60431432723999023
vn 0 -1 0
vn 0.79674601554870605 0 0.60431432723999023
vn 0.92542457580566406 0 0.37893193960189819
vn 0.99163663387298584 0 -0.12906129658222198
vn 0 -1 0
vn 0.92542457580566406 0 -0.37893193960189819
vn 0.99163663387298584 0 -0.12906129658222198
vn 0.92542457580566406 0 -0.37893193960189819
vn 0 1 0
vn 0 1 0
vn 0.92542457580566406 0 0.37893193960189819
vn 0.99163717031478882 0 0.12905712425708771
vn 0 1 0
vn 0.79674601554870605 0 0.60431432723999023
vn 0.92542457580566406 0 0.37893193960189819
vn 0 1 0
vn 0.13201949000358582 0 -0.99124711751937866
vn 0.38645300269126892 0 -0.92230910062789917
vn 0 1 0
vn -0.13201518356800079 0 -0.99124771356582642
vn 0.13201949000358582 0 -0.99124711751937866
vn 0 1 0
vn -0.3864646852016449 0 -0.92230421304702759
vn -0.13201518356800079 0 -0.99124771356582642
vn 0 1 0
vn -0.61317217350006104 0 -0.78994929790496826
vn -0.3864646852016449 0 -0.92230421304702759
vn 0 1 0
vn -0.79673027992248535 0 -0.60433506965637207
vn -0.61317217350006104 0 -0.78994929790496826
vn 0 1 0
vn -0.92542457580566406 0 -0.37893193960189819
vn -0.79673027992248535 0 -0.60433506965637207
vn 0 1 0
vn -0.99164080619812012 0 -0.12902933359146118
vn -0.92542457580566406 0 -0.37893193960189819
vn 0.92542457580566406 0 0.37893193960189819
vn 0.99163717031478882 0 0.12905712425708771
vn 0 -1 0
vn 0.99163717031478882 0 0.12905712425708771
vn 0.99163663387298584 0 -0.12906129658222198
vn 0 -1 0
vn 0.99163717031478882 0 0.12905712425708771
vn 0.99163663387298584 0 -0.12906129658222198
vn 0 1 0
f 1/1/1 4/4/4 7/7/7
f 4/4/4 1/1/1 10/10/10
f 2/2/2 13/13/13 11/11/11
f 13/13/13 2/2/2 16/16/16
f 19/19/19 17/17/17 3/3/3
f 22/22/22 17/17/17 19/19/19
f 22/22/22 25/25/25 17/17/17
f 28/28/28 25/25/25 22/22/22
f 28/28/28 31/31/31 25/25/25
f 34/34/34 31/31/31 28/28/28
f 34/34/34 37/37/37 31/31/31
f 40/40/40 37/37/37 34/34/34
f 40/40/40 43/43/43 37/37/37
f 46/46/46 43/43/43 40/40/40
f 46/46/46 49/49/49 43/43/43
f 52/52/52 49/49/49 46/46/46
f 52/52/52 55/55/55 49/49/49
f 58/58/58 55/55/55 52/52/52
f 58/58/58 61/61/61 55/55/55
f 64/64/64 61/61/61 58/58/58
f 61/61/61 64/64/64 66/66/66
f 65/65/65 69/69/69 67/67/67
f 59/59/59 69/69/69 65/65/65
f 69/69/69 59/59/59 72/72/72
f 53/53/53 73/73/73 60/60/60
f 73/73/73 53/53/53 75/75/75
f 47/47/47 76/76/76 54/54/54
f 76/76/76 47/47/47 78/78/78
f 48/48/48 81/81/81 79/79/79
f 81/81/81 48/48/48 41/41/41
f 42/42/42 84/84/84 82/82/82
f 84/84/84 42/42/42 35/35/35
f 36/36/36 87/87/87 85/85/85
f 87/87/87 36/36/36 29/29/29
f 30/30/30 90/90/90 88/88/88
f 90/90/90 30/30/30 23/23/23
f 24/24/24 93/93/93 91/91/91
f 93/93/93 24/24/24 20/20/20
f 21/21/21 96/96/96 94/94/94
f 96/96/96 21/21/21 99/99/99
f 19/19/19 3/3/3 100/100/100
f 100/100/100 3/3/3 8/8/8
f 100/100/100 8/8/8 102/102/102
f 102/102/102 8/8/8 106/106/106
f 9/9/9 109/109/109 107/107/107
f 109/109/109 9/9/9 5/5/5
f 6/6/6 111/111/111 110/110/110
f 6/6/6 114/114/114 111/111/111
f 12/12/12 114/114/114 6/6/6
f 12/12/12 97/97/97 114/114/114
f 14/14/14 97/97/97 12/12/12
f 14/14/14 95/95/95 97/97/97
f 117/117/117 95/95/95 14/14/14
f 117/117/117 92/92/92 95/95/95
f 120/120/120 92/92/92 117/117/117
f 120/120/120 89/89/89 92/92/92
f 123/123/123 89/89/89 120/120/120
f 123/123/123 86/86/86 89/89/89
f 126/126/126 86/86/86 123/123/123
f 126/126/126 83/83/83 86/86/86
f 129/129/129 83/83/83 126/126/126
f 129/129/129 80/80/80 83/83/83
f 132/132/132 80/80/80 129/129/129
f 132/132/132 77/77/77 80/80/80
f 135/135/135 77/77/77 132/132/132
f 135/135/135 74/74/74 77/77/77
f 74/74/74 135/135/135 70/70/70
f 136/136/136 68/68/68 71/71/71
f 68/68/68 136/136/136 62/62/62
f 133/133/133 63/63/63 137/137/137
f 63/63/63 133/133/133 56/56/56
f 130/130/130 57/57/57 134/134/134
f 57/57/57 130/130/130 50/50/50
f 131/131/131 44/44/44 51/51/51
f 44/44/44 131/131/131 127/127/127
f 128/128/128 38/38/38 45/45/45
f 38/38/38 128/128/128 124/124/124
f 125/125/125 32/32/32 39/39/39
f 32/32/32 125/125/125 121/121/121
f 122/122/122 26/26/26 33/33/33
f 26/26/26 122/122/122 118/118/118
f 119/119/119 18/18/18 27/27/27
f 18/18/18 119/119/119 15/15/15
f 98/98/98 103/103/103 115/115/115
f 103/103/103 98/98/98 101/101/101
f 138/138/138 116/116/116 104/104/104
f 116/116/116 138/138/138 112/112/112
f 141/141/141 113/113/113 139/139/139
f 113/113/113 141/141/141 144/144/144
f 105/105/105 145/145/145 142/142/142
f 145/145/145 105/105/105 108/108/108
f 110/110/110 111/111/111 146/146/146
f 140/140/140 106/106/106 143/143/143
f 102/102/102 106/106/106 140/140/140
