# Rhino

v -0.33094146589399998 0.17594172985500001 0.31694976341199999
v -0.33094146589399998 0.17594172985500001 0.31694976341199999
v -0.33094146589399998 0.17594172985500001 0.31694976341199999
v 0.33094146589399998 -0.101043709701 0.31694976341199999
v 0.33094146589399998 -0.101043709701 0.31694976341199999
v 0.33094146589399998 -0.101043709701 0.31694976341199999
v -0.33094146589399998 -0.101043709701 0.31694976341199999
v -0.33094146589399998 -0.101043709701 0.31694976341199999
v -0.33094146589399998 -0.101043709701 0.31694976341199999
v 0.33094146589399998 0.17594172985500001 0.31694976341199999
v 0.33094146589399998 0.17594172985500001 0.31694976341199999
v 0.33094146589399998 0.17594172985500001 0.31694976341199999
v 0.33094146589399998 0.17594172985500001 0.33094146589399998
v 0.33094146589399998 0.17594172985500001 0.33094146589399998
v 0.33094146589399998 0.17594172985500001 0.33094146589399998
v -0.33094146589399998 0.17594172985500001 0.33094146589399998
v -0.33094146589399998 0.17594172985500001 0.33094146589399998
v -0.33094146589399998 0.17594172985500001 0.33094146589399998
v -0.33094146589399998 -0.101043709701 0.33094146589399998
v -0.33094146589399998 -0.101043709701 0.33094146589399998
v -0.33094146589399998 -0.101043709701 0.33094146589399998
v 0.33094146589399998 -0.101043709701 0.33094146589399998
v 0.33094146589399998 -0.101043709701 0.33094146589399998
v 0.33094146589399998 -0.101043709701 0.33094146589399998
vt 0.79000002145767212 0.34729999303817749
vt 0.79000002145767212 0
vt 0 0.34729999303817749
vt 0 0.016699999570846558
vt 0 0
vt 0 0.016699999570846558
vt 0.79000002145767212 0.016699999570846558
vt 0 0.016699999570846558
vt -0.79000002145767212 0
vt 0 0.34729999303817749
vt 0 0
vt 0 0.34729999303817749
vt 0 0.016699999570846558
vt -0.016699999570846558 0.34729999303817749
vt 0 0.34729999303817749
vt 0.79000002145767212 0.016699999570846558
vt 0.016699999570846558 0.34729999303817749
vt -0.79000002145767212 0.34729999303817749
vt 0.016699999570846558 0.016699999570846558
vt -0.79000002145767212 0.016699999570846558
vt -0.79000002145767212 0.016699999570846558
vt 0 0.016699999570846558
vt -0.016699999570846558 0.016699999570846558
vt 0 0.016699999570846558
vn 0 0 -1
vn 0 1 0
vn -1 0 0
vn 0 0 -1
vn 0 -1 0
vn 1 0 0
vn 0 0 -1
vn -1 0 0
vn 0 -1 0
vn 0 0 -1
vn 0 1 0
vn 1 0 0
vn 0 1 0
vn 1 0 0
vn 0 0 1
vn 0 1 0
vn -1 0 0
vn 0 0 1
vn -1 0 0
vn 0 -1 0
vn 0 0 1
vn 0 -1 0
vn 1 0 0
vn 0 0 1
f 1/1/1 4/4/4 7/7/7
f 4/4/4 1/1/1 10/10/10
f 2/2/2 13/13/13 11/11/11
f 13/13/13 2/2/2 16/16/16
f 3/3/3 19/19/19 17/17/17
f 19/19/19 3/3/3 8/8/8
f 5/5/5 20/20/20 9/9/9
f 20/20/20 5/5/5 22/22/22
f 6/6/6 14/14/14 23/23/23
f 14/14/14 6/6/6 12/12/12
f 18/18/18 24/24/24 15/15/15
f 24/24/24 18/18/18 21/21/21
