# Rhino

v -0.38210016435700001 0.22069613800499999 -0.11858296830700001
v -0.38210016435700001 0.22069613800499999 0.11858296830700001
v 0.38210016435700001 0.22069613800499999 0.11858296830700001
v 0.38210016435700001 0.22069613800499999 -0.11858296830700001
v 0.395276003243 0.22069613800499999 -0.19763800162199999
v 0.395276003243 0.22069613800499999 -0.19763800162199999
v 0.395276003243 0.22069613800499999 -0.19763800162199999
v -0.395276003243 0.22069613800499999 -0.19763800162199999
v -0.395276003243 0.22069613800499999 -0.19763800162199999
v -0.395276003243 0.22069613800499999 -0.19763800162199999
v -0.395276003243 0.22069613800499999 0.19763800162199999
v -0.395276003243 0.22069613800499999 0.19763800162199999
v 0.395276003243 0.22069613800499999 0.19763800162199999
v 0.395276003243 0.22069613800499999 0.19763800162199999
v 0.395276003243 0.22069613800499999 0.19763800162199999
v 0.35574848658500002 0.22069613800499999 -0.092231290534800003
v 0.35574848658500002 0.22069613800499999 0.092230453867599996
v -0.35574848658500002 0.22069613800499999 0.092230453867599996
v -0.35574848658500002 0.22069613800499999 -0.092231290534800003
v 0.395276003243 0.23387197689100001 0.19763800162199999
v 0.395276003243 0.23387197689100001 0.19763800162199999
v 0.395276003243 0.23387197689100001 0.19763800162199999
v 0.395276003243 0.23387197689100001 -0.19763800162199999
v 0.395276003243 0.23387197689100001 -0.19763800162199999
v 0.395276003243 0.23387197689100001 -0.19763800162199999
v -0.395276003243 0.23387197689100001 -0.19763800162199999
v -0.395276003243 0.23387197689100001 -0.19763800162199999
v -0.395276003243 0.23387197689100001 -0.19763800162199999
v -0.395276003243 0.23387197689100001 -4.1833372128300002E-07
v -0.395276003243 0.23387197689100001 -4.1833372128300002E-07
v -0.395276003243 0.23387197689100001 0.19763800162199999
v -0.395276003243 0.23387197689100001 0.19763800162199999
vt -0.78740197420120239 18.897600173950195
vt -0.78740197420120239 4.7244100570678711
vt -46.456699371337891 4.7244100570678711
vt -46.456699371337891 18.897600173950195
vt -47.244098663330078 23.621999740600586
vt 23.621999740600586 27.165399551391602
vt -47.244098663330078 27.165399551391602
vt 0 23.621999740600586
vt 0 27.165399551391602
vt -23.621999740600586 27.165399551391602
vt 0 0
vt 0 27.165399551391602
vt -47.244098663330078 0
vt 0 27.165399551391602
vt 47.244098663330078 27.165399551391602
vt -44.881900787353516 17.322799682617188
vt -44.881900787353516 6.2992100715637207
vt -2.3622000217437744 6.2992100715637207
vt -2.3622000217437744 17.322799682617188
vt 0 27.952800750732422
vt 47.244098663330078 27.952800750732422
vt 47.244098663330078 0
vt 23.621999740600586 27.952800750732422
vt -47.244098663330078 27.952800750732422
vt 47.244098663330078 23.621999740600586
vt 0 23.621999740600586
vt 0 27.952800750732422
vt -23.621999740600586 27.952800750732422
vt -11.810999870300293 27.952800750732422
vt 0 11.810999870300293
vt 0 0
vt 0 27.952800750732422
vn 0 -1 0
vn 0 -1 0
vn 0 -1 0
vn 0 -1 0
vn 0 -1 0
vn 1 0 0
vn 0 0 -1
vn 0 -1 0
vn 0 0 -1
vn -1 0 0
vn 0 -1 0
vn -0.70710676908493042 0 0.70710676908493042
vn 0 -1 0
vn 1 0 0
vn 0 0 1
vn 0 -1 0
vn 0 -1 0
vn 0 -1 0
vn 0 -1 0
vn 1 0 0
vn 0 0 1
vn 0 1 0
vn 1 0 0
vn 0 0 -1
vn 0 1 0
vn 0 1 0
vn 0 0 -1
vn -1 0 0
vn -1 0 0
vn 0 1 0
vn 0 1 0
vn -0.70710676908493042 0 0.70710676908493042
f 1/1/1 5/5/5 4/4/4
f 1/1/1 8/8/8 5/5/5
f 8/8/8 1/1/1 11/11/11
f 2/2/2 11/11/11 1/1/1
f 11/11/11 2/2/2 13/13/13
f 13/13/13 2/2/2 3/3/3
f 3/3/3 5/5/5 13/13/13
f 4/4/4 5/5/5 3/3/3
f 16/16/16 18/18/18 19/19/19
f 18/18/18 16/16/16 17/17/17
f 6/6/6 20/20/20 14/14/14
f 20/20/20 6/6/6 23/23/23
f 7/7/7 27/27/27 24/24/24
f 27/27/27 7/7/7 9/9/9
f 10/10/10 29/29/29 28/28/28
f 12/12/12 29/29/29 10/10/10
f 29/29/29 12/12/12 32/32/32
f 12/12/12 21/21/21 32/32/32
f 21/21/21 12/12/12 15/15/15
f 22/22/22 30/30/30 31/31/31
f 30/30/30 22/22/22 26/26/26
f 26/26/26 22/22/22 25/25/25
