# Rhino

v -0.27589430186500002 0.209556951523 -0.17846785174800001
v -0.27589430186500002 0.209556951523 -0.17846785174800001
v -0.27589430186500002 0.209556951523 -0.17846785174800001
v 0.27589430186500002 0.209556951523 -0.174218617183
v 0.27589430186500002 0.209556951523 -0.174218617183
v 0.27589430186500002 0.209556951523 -0.174218617183
v 0.27589430186500002 0.209556951523 -0.174218617183
v -0.27589430186500002 0.209556951523 -0.174218617183
v -0.27589430186500002 0.209556951523 -0.174218617183
v -0.27589430186500002 0.209556951523 -0.174218617183
v -0.27589430186500002 0.209556951523 -0.174218617183
v 0.27589430186500002 0.209556951523 -0.17846785174800001
v 0.27589430186500002 0.209556951523 -0.17846785174800001
v 0.27589430186500002 0.209556951523 -0.17846785174800001
v 0.27589430186500002 0.30650068859200003 -0.17846785174800001
v 0.27589430186500002 0.30650068859200003 -0.17846785174800001
v 0.27589430186500002 0.30650068859200003 -0.17846785174800001
v -0.27589430186500002 0.30650068859200003 -0.17846785174800001
v -0.27589430186500002 0.30650068859200003 -0.17846785174800001
v -0.27589430186500002 0.30650068859200003 -0.17846785174800001
v -0.27589430186500002 0.30650068859200003 -0.174218617183
v -0.27589430186500002 0.30650068859200003 -0.174218617183
v -0.27589430186500002 0.30650068859200003 -0.174218617183
v -0.27589430186500002 0.209556951523 -0.13142032664
v -0.27589430186500002 0.209556951523 -0.13142032664
v -0.27589430186500002 0.209556951523 -0.13142032664
v -0.27589430186500002 0.30650068859200003 -0.13142032664
v -0.27589430186500002 0.30650068859200003 -0.13142032664
v -0.27589430186500002 0.30650068859200003 -0.13142032664
v 0.27589430186500002 0.30650068859200003 -0.13142032664
v 0.27589430186500002 0.30650068859200003 -0.13142032664
v 0.27589430186500002 0.30650068859200003 -0.13142032664
v 0.27589430186500002 0.209556951523 -0.13142032664
v 0.27589430186500002 0.209556951523 -0.13142032664
v 0.27589430186500002 0.209556951523 -0.13142032664
v 0.27589430186500002 0.30650068859200003 -0.174218617183
v 0.27589430186500002 0.30650068859200003 -0.174218617183
v 0.27589430186500002 0.30650068859200003 -0.174218617183
v 0.27589430186500002 0.30650068859200003 -0.174218617183
vt 0 2.1795299053192139
vt 0 0
vt -2.1795299053192139 0
vt -25.562200546264648 1.9826799631118774
vt 25.562200546264648 0
vt 1.9826799631118774 0
vt 1.9826799631118774 0
vt 0 1.9826799631118774
vt -1.9826799631118774 0
vt -1.9826799631118774 0
vt 0 0
vt -25.562200546264648 2.1795299053192139
vt -25.562200546264648 0
vt 2.1795299053192139 0
vt -25.562200546264648 5.5444598197937012
vt 2.1795299053192139 5.5444598197937012
vt 25.562200546264648 2.1795299053192139
vt 0 5.5444598197937012
vt -2.1795299053192139 5.5444598197937012
vt 0 2.1795299053192139
vt -1.9826799631118774 5.5444598197937012
vt 0 5.5444598197937012
vt 0 1.9826799631118774
vt 0 0
vt 0 0
vt 0 0
vt 0 5.5444598197937012
vt 0 5.5444598197937012
vt 0 0
vt 25.562200546264648 5.5444598197937012
vt 25.562200546264648 0
vt 0 5.5444598197937012
vt 25.562200546264648 0
vt -25.562200546264648 0
vt 0 0
vt 25.562200546264648 5.5444598197937012
vt 25.562200546264648 1.9826799631118774
vt 1.9826799631118774 5.5444598197937012
vt 1.9826799631118774 5.5444598197937012
vn 0 -1 0
vn 0 0 -1
vn -1 0 0
vn 0 -1 0
vn 0 0 1
vn 1 0 0
vn 1 0 0
vn 0 -1 0
vn -1 0 0
vn -1 0 0
vn 0 0 1
vn 0 -1 0
vn 0 0 -1
vn 1 0 0
vn 0 0 -1
vn 1 0 0
vn 0 1 0
vn 0 0 -1
vn -1 0 0
vn 0 1 0
vn -1 0 0
vn 0 0 1
vn 0 1 0
vn -1 0 0
vn 0 0 1
vn 0 -1 0
vn -1 0 0
vn 0 0 1
vn 0 1 0
vn 0 0 1
vn 0 1 0
vn 1 0 0
vn 0 0 1
vn 0 -1 0
vn 1 0 0
vn 0 0 1
vn 0 1 0
vn 1 0 0
vn 1 0 0
f 1/1/1 4/4/4 8/8/8
f 4/4/4 1/1/1 12/12/12
f 2/2/2 15/15/15 13/13/13
f 15/15/15 2/2/2 18/18/18
f 9/9/9 19/19/19 3/3/3
f 19/19/19 9/9/9 21/21/21
f 24/24/24 21/21/21 10/10/10
f 21/21/21 24/24/24 27/27/27
f 25/25/25 30/30/30 28/28/28
f 30/30/30 25/25/25 33/33/33
f 8/8/8 34/34/34 26/26/26
f 34/34/34 8/8/8 4/4/4
f 36/36/36 11/11/11 5/5/5
f 11/11/11 36/36/36 22/22/22
f 23/23/23 31/31/31 37/37/37
f 31/31/31 23/23/23 29/29/29
f 32/32/32 6/6/6 38/38/38
f 6/6/6 32/32/32 35/35/35
f 14/14/14 39/39/39 7/7/7
f 39/39/39 14/14/14 16/16/16
f 20/20/20 37/37/37 17/17/17
f 37/37/37 20/20/20 23/23/23
