# Rhino

v -0.0067714348992300001 -0.159128720132 -0.18134528721199999
v -0.0067714348992300001 -0.159128720132 -0.18134528721199999
v -0.0067714348992300001 -0.159128720132 -0.18134528721199999
v 0.0013535990006799999 -0.159128720132 -0.15561314661600001
v 0.0013535990006799999 -0.159128720132 -0.15561314661600001
v -0.0067714348992300001 -0.159128720132 -0.15561314661600001
v -0.0067714348992300001 -0.159128720132 -0.15561314661600001
v -0.0067714348992300001 -0.159128720132 -0.15561314661600001
v 0.0094803528485099993 -0.159128720132 -0.15561314661600001
v 0.0094803528485099993 -0.159128720132 -0.15561314661600001
v 0.0094803528485099993 -0.159128720132 -0.15561314661600001
v 0.0094803528485099993 -0.15912872013099999 -0.169833675888
v 0.0094803528485099993 -0.15912872013099999 -0.169833675888
v 0.0094803528485099993 -0.159128720132 -0.18134528721199999
v 0.0094803528485099993 -0.159128720132 -0.18134528721199999
v 0.0094803528485099993 -0.159128720132 -0.18134528721199999
v 0.0013535990006799999 -0.159128720132 -0.18134528721199999
v 0.0013535990006799999 -0.159128720132 -0.18134528721199999
v -0.0067714348992300001 0.14480843388100001 -0.196241756011
v -0.0067714348992300001 0.14480843388100001 -0.196241756011
v -0.0067714348992300001 0.14480843388100001 -0.196241756011
v 0.0094803528485099993 0.14480843388100001 -0.196241756011
v 0.0094803528485099993 0.14480843388100001 -0.196241756011
v 0.0094803528485099993 0.14480843388100001 -0.196241756011
v 0.0094803528485099993 0.119346325105 -0.15561314661600001
v 0.0094803528485099993 0.119346325105 -0.15561314661600001
v 0.0094803528485099993 0.14480843388100001 -0.15561314661600001
v 0.0094803528485099993 0.14480843388100001 -0.15561314661600001
v 0.0094803528485099993 0.14480843388100001 -0.15561314661600001
v 0.0052785201183000001 0.14480843388100001 -0.181986827781
v 0.0052785201183000001 0.14480843388100001 -0.181986827781
v 0.0048726124128900001 0.14480843388100001 -0.18100645747499999
v 0.0048726124128900001 0.14480843388100001 -0.18100645747499999
v -0.0067714348992300001 0.14480843388100001 -0.15561314661600001
v -0.0067714348992300001 0.14480843388100001 -0.15561314661600001
v -0.0067714348992300001 0.14480843388100001 -0.15561314661600001
v 0.00422763194877 0.14480843388100001 -0.18016540294899999
v 0.00422763194877 0.14480843388100001 -0.18016540294899999
v -0.00151871399949 0.14480843388100001 -0.18016540294899999
v -0.00151871399949 0.14480843388100001 -0.18016540294899999
v -0.00067765947429399996 0.14480843388100001 -0.17951870253800001
v -0.00067765947429399996 0.14480843388100001 -0.17951870253800001
v 0.0033865774235699998 0.14480843388100001 -0.17951870253800001
v 0.0033865774235699998 0.14480843388100001 -0.17951870253800001
v 0.00030271083115699998 0.14480843388100001 -0.17911279483199999
v 0.00030271083115699998 0.14480843388100001 -0.17911279483199999
v 0.0024062071181199999 0.14480843388100001 -0.17911279483199999
v 0.0024062071181199999 0.14480843388100001 -0.17911279483199999
v 0.0013535990006799999 0.14480843388100001 -0.178975198999
v 0.0013535990006799999 0.14480843388100001 -0.178975198999
v -0.0021636944636100001 0.14480843388100001 -0.18100645747499999
v -0.0021636944636100001 0.14480843388100001 -0.18100645747499999
v -0.0025696021690299999 0.14480843388100001 -0.181986827781
v -0.0025696021690299999 0.14480843388100001 -0.181986827781
v -0.0027089179492700002 0.14480843388100001 -0.18303771595000001
v -0.0027089179492700002 0.14480843388100001 -0.18303771595000001
v 0.0054178358985500002 0.14480843388100001 -0.18303771595000001
v 0.0054178358985500002 0.14480843388100001 -0.18303771595000001
v 0.0052785201183000001 0.14480843388100001 -0.18408860411899999
v 0.0052785201183000001 0.14480843388100001 -0.18408860411899999
v 0.0048726124128900001 0.14480843388100001 -0.185068974425
v 0.0048726124128900001 0.14480843388100001 -0.185068974425
v 0.00422763194877 0.14480843388100001 -0.18591002895
v 0.00422763194877 0.14480843388100001 -0.18591002895
v 0.0033865774235699998 0.14480843388100001 -0.18655672936199999
v 0.0033865774235699998 0.14480843388100001 -0.18655672936199999
v 0.0024062071181199999 0.14480843388100001 -0.186962637067
v 0.0024062071181199999 0.14480843388100001 -0.186962637067
v 0.0013535990006799999 0.14480843388100001 -0.1871002329
v 0.0013535990006799999 0.14480843388100001 -0.1871002329
v 0.00030271083115699998 0.14480843388100001 -0.186962637067
v 0.00030271083115699998 0.14480843388100001 -0.186962637067
v -0.00067765947429399996 0.14480843388100001 -0.18655672936199999
v -0.00067765947429399996 0.14480843388100001 -0.18655672936199999
v -0.00151871399949 0.14480843388100001 -0.18591002895
v -0.00151871399949 0.14480843388100001 -0.18591002895
v -0.0021636944636100001 0.14480843388100001 -0.185068974425
v -0.0021636944636100001 0.14480843388100001 -0.185068974425
v -0.0025696021690299999 0.14480843388100001 -0.18408860411899999
v -0.0025696021690299999 0.14480843388100001 -0.18408860411899999
v -0.0067714348992300001 0.119346325105 -0.15561314661600001
v -0.0067714348992300001 0.119346325105 -0.15561314661600001
vt -0.18999999761581421 0.085279196500778198
vt -0.18999999761581421 0
vt 0.11999999731779099 0.0051803998649120331
vt 0 0.042639598250389099
vt -0.059999998658895493 0
vt 0 0.085279196500778198
vt 0 0
vt -0.11999999731779099 0
vt 0 0
vt 0 0
vt 0 0
vt 0.10499999672174454 0
vt -0.10499999672174454 0
vt -0.18999999761581421 0
vt 0.18999999761581421 0
vt 0 0.0051803998649120331
vt -0.18999999761581421 0.042639598250389099
vt 0.059999998658895493 0.0051803998649120331
vt 0.11999999731779099 2.0427200794219971
vt 0.30000001192092896 0.085279196500778198
vt -0.30000001192092896 2.0360400676727295
vt 0.30000001192092896 2.0360400676727295
vt 0.30000001192092896 0
vt 0 2.0427200794219971
vt 0 1.8654799461364746
vt 0 1.8654799461364746
vt 0 2.0360400676727295
vt 0 0
vt 0 2.0360400676727295
vt 0.19473500549793243 0.022046299651265144
vt 0.19473500549793243 0.022046299651265144
vt 0.1875 0.024176100268959999
vt 0.1875 0.024176100268959999
vt 0 0.085279196500778198
vt 0 2.0360400676727295
vt -0.11999999731779099 2.0360400676727295
vt 0.1812870055437088 0.027564199641346931
vt 0.1812870055437088 0.027564199641346931
vt 0.1812870055437088 0.057714998722076416
vt 0.1812870055437088 0.057714998722076416
vt 0.1765190064907074 0.053299501538276672
vt 0.1765190064907074 0.053299501538276672
vt 0.1765190064907074 0.031979698687791824
vt 0.1765190064907074 0.031979698687791824
vt 0.17352199554443359 0.048157598823308945
vt 0.17352199554443359 0.048157598823308945
vt 0.17352199554443359 0.037121601402759552
vt 0.17352199554443359 0.037121601402759552
vt 0.17249999940395355 0.042639598250389099
vt 0.17249999940395355 0.042639598250389099
vt 0.1875 0.061103101819753647
vt 0.1875 0.061103101819753647
vt 0.19473500549793243 0.063232898712158203
vt 0.19473500549793243 0.063232898712158203
vt 0.20250000059604645 0.063959397375583649
vt 0.20250000059604645 0.063959397375583649
vt 0.20250000059604645 0.02131979912519455
vt 0.20250000059604645 0.02131979912519455
vt 0.21026499569416046 0.022046299651265144
vt 0.21026499569416046 0.022046299651265144
vt 0.2175000011920929 0.024176100268959999
vt 0.2175000011920929 0.024176100268959999
vt 0.22371299564838409 0.027564199641346931
vt 0.22371299564838409 0.027564199641346931
vt 0.2284809947013855 0.031979698687791824
vt 0.2284809947013855 0.031979698687791824
vt 0.2314780056476593 0.037121601402759552
vt 0.2314780056476593 0.037121601402759552
vt 0.23250000178813934 0.042639598250389099
vt 0.23250000178813934 0.042639598250389099
vt 0.2314780056476593 0.048157598823308945
vt 0.2314780056476593 0.048157598823308945
vt 0.2284809947013855 0.053299501538276672
vt 0.2284809947013855 0.053299501538276672
vt 0.22371299564838409 0.057714998722076416
vt 0.22371299564838409 0.057714998722076416
vt 0.2175000011920929 0.061103101819753647
vt 0.2175000011920929 0.061103101819753647
vt 0.21026499569416046 0.063232898712158203
vt 0.21026499569416046 0.063232898712158203
vt 0 1.8654799461364746
vt -0.11999999731779099 1.8654799461364746
vn 0 -1 0
vn -1 0 0
vn 0 -0.048952914774417877 -0.99880111217498779
vn 0 -1 0
vn 0 0 1
vn 0 -1 0
vn -1 0 0
vn 0 0 1
vn 1 0 0
vn 0 -1 0
vn 0 0 1
vn 1 0 0
vn 0 -1 0
vn 0 -1 0
vn 1 0 0
vn 0 -0.048952914774417877 -0.99880111217498779
vn 0 0 1
vn 0 -0.048952918499708176 -0.99880111217498779
vn 0 -0.048952914774417877 -0.99880111217498779
vn 0 1 0
vn -1 0 0
vn 1 0 0
vn 0 1 0
vn 0 -0.048952914774417877 -0.99880111217498779
vn 1 0 0
vn 0 0 1
vn 1 0 0
vn 0 1 0
vn 0 0 1
vn 0 1 0
vn 0 1 0
vn 0 1 0
vn 0 1 0
vn 0 1 0
vn -1 0 0
vn 0 0 1
vn 0 1 0
vn 0 1 0
vn 0 1 0
vn 0 1 0
vn 0 1 0
vn 0 1 0
vn 0 1 0
vn 0 1 0
vn 0 1 0
vn 0 1 0
vn 0 1 0
vn 0 1 0
vn 0 1 0
vn 0 1 0
vn 0 1 0
vn 0 1 0
vn 0 1 0
vn 0 1 0
vn 0 1 0
vn 0 1 0
vn 0 1 0
vn 0 1 0
vn 0 1 0
vn 0 1 0
vn 0 1 0
vn 0 1 0
vn 0 1 0
vn 0 1 0
vn 0 1 0
vn 0 1 0
vn 0 1 0
vn 0 1 0
vn 0 1 0
vn 0 1 0
vn 0 1 0
vn 0 1 0
vn 0 1 0
vn 0 1 0
vn 0 1 0
vn 0 1 0
vn 0 1 0
vn 0 1 0
vn 0 1 0
vn 0 1 0
vn -1 0 0
vn 0 0 1
f 1/1/1 4/4/4 6/6/6
f 4/4/4 1/1/1 10/10/10
f 10/10/10 1/1/1 13/13/13
f 13/13/13 1/1/1 14/14/14
f 14/14/14 1/1/1 17/17/17
f 19/19/19 18/18/18 3/3/3
f 24/24/24 18/18/18 19/19/19
f 18/18/18 24/24/24 16/16/16
f 22/22/22 12/12/12 15/15/15
f 12/12/12 22/22/22 25/25/25
f 25/25/25 22/22/22 27/27/27
f 30/30/30 28/28/28 23/23/23
f 32/32/32 28/28/28 30/30/30
f 28/28/28 32/32/32 34/34/34
f 34/34/34 32/32/32 37/37/37
f 39/39/39 38/38/38 33/33/33
f 41/41/41 38/38/38 39/39/39
f 41/41/41 43/43/43 38/38/38
f 45/45/45 43/43/43 41/41/41
f 45/45/45 47/47/47 43/43/43
f 47/47/47 45/45/45 49/49/49
f 46/46/46 34/34/34 50/50/50
f 42/42/42 34/34/34 46/46/46
f 40/40/40 34/34/34 42/42/42
f 51/51/51 34/34/34 40/40/40
f 53/53/53 34/34/34 51/51/51
f 34/34/34 53/53/53 20/20/20
f 20/20/20 53/53/53 55/55/55
f 54/54/54 57/57/57 56/56/56
f 54/54/54 31/31/31 57/57/57
f 52/52/52 31/31/31 54/54/54
f 52/52/52 33/33/33 31/31/31
f 39/39/39 33/33/33 52/52/52
f 30/30/30 23/23/23 58/58/58
f 58/58/58 23/23/23 59/59/59
f 59/59/59 23/23/23 61/61/61
f 61/61/61 23/23/23 63/63/63
f 63/63/63 23/23/23 65/65/65
f 65/65/65 23/23/23 67/67/67
f 67/67/67 23/23/23 69/69/69
f 20/20/20 69/69/69 23/23/23
f 20/20/20 71/71/71 69/69/69
f 20/20/20 73/73/73 71/71/71
f 20/20/20 75/75/75 73/73/73
f 20/20/20 77/77/77 75/75/75
f 20/20/20 79/79/79 77/77/77
f 20/20/20 55/55/55 79/79/79
f 56/56/56 60/60/60 80/80/80
f 56/56/56 57/57/57 60/60/60
f 80/80/80 60/60/60 62/62/62
f 80/80/80 62/62/62 78/78/78
f 78/78/78 62/62/62 64/64/64
f 78/78/78 64/64/64 76/76/76
f 76/76/76 64/64/64 66/66/66
f 76/76/76 66/66/66 74/74/74
f 74/74/74 66/66/66 68/68/68
f 74/74/74 68/68/68 72/72/72
f 72/72/72 68/68/68 70/70/70
f 21/21/21 81/81/81 35/35/35
f 21/21/21 7/7/7 81/81/81
f 7/7/7 21/21/21 2/2/2
f 8/8/8 5/5/5 82/82/82
f 5/5/5 36/36/36 82/82/82
f 5/5/5 29/29/29 36/36/36
f 11/11/11 29/29/29 5/5/5
f 29/29/29 11/11/11 26/26/26
f 25/25/25 9/9/9 12/12/12
f 34/34/34 48/48/48 50/50/50
f 34/34/34 44/44/44 48/48/48
f 34/34/34 37/37/37 44/44/44
