# Rhino

v -0.34534476008499998 0.16444988575399999 -0.151293894894
v -0.34534476008499998 0.16444988575399999 -0.151293894894
v -0.34534476008499998 0.16444988575399999 -0.151293894894
v -0.34534476008499998 0.23022984005700001 -0.177605876616
v -0.34534476008499998 0.23022984005700001 -0.177605876616
v -0.34534476008499998 0.23022984005700001 -0.177605876616
v -0.371656741806 0.23022984005700001 -0.151293894894
v -0.371656741806 0.23022984005700001 -0.151293894894
v -0.371656741806 0.23022984005700001 -0.151293894894
v -0.34534476008499998 0.23022984005700001 -0.151293894894
v -0.34534476008499998 0.23022984005700001 -0.151293894894
v -0.34534476008499998 0.23022984005700001 -0.151293894894
v -0.371656741806 0.23022984005700001 -0.177605876616
v -0.371656741806 0.23022984005700001 -0.177605876616
v -0.371656741806 0.23022984005700001 -0.177605876616
v -0.34534476008499998 0.16444988575399999 -0.177605876616
v -0.34534476008499998 0.16444988575399999 -0.177605876616
v -0.34534476008499998 0.16444988575399999 -0.177605876616
v -0.371656741806 0.16444988575399999 -0.177605876616
v -0.371656741806 0.16444988575399999 -0.177605876616
v -0.371656741806 0.16444988575399999 -0.177605876616
v -0.371656741806 0.16444988575399999 -0.151293894894
v -0.371656741806 0.16444988575399999 -0.151293894894
v -0.371656741806 0.16444988575399999 -0.151293894894
vt -0.019250599667429924 0.11313699930906296
vt -0.066387802362442017 2.4800000190734863
vt -0.093612201511859894 2.4800000190734863
vt 0.13238799571990967 0
vt 0.093612201511859894 2.880000114440918
vt 0.093612201511859894 2.880000114440918
vt 0.13238799571990967 0.22627399861812592
vt -0.25361201167106628 2.880000114440918
vt 0.066387802362442017 2.880000114440918
vt 0.019250599667429924 0.11313699930906296
vt -0.066387802362442017 2.880000114440918
vt -0.093612201511859894 2.880000114440918
vt 0.24552500247955322 0.11313699930906296
vt 0.25361201167106628 2.880000114440918
vt -0.093612201511859894 2.880000114440918
vt 0.093612201511859894 2.4800000190734863
vt -0.13238799571990967 0
vt 0.093612201511859894 2.4800000190734863
vt 0.25361201167106628 2.4800000190734863
vt -0.24552500247955322 0.11313699930906296
vt -0.093612201511859894 2.4800000190734863
vt -0.25361201167106628 2.4800000190734863
vt -0.13238799571990967 0.22627399861812592
vt 0.066387802362442017 2.4800000190734863
vn 0 -1 0
vn 1 0 0
vn 0 0 1
vn 0 1 0
vn 0 0 -1
vn 1 0 0
vn 0 1 0
vn 0 0 1
vn -1 0 0
vn 0 1 0
vn 1 0 0
vn 0 0 1
vn 0 1 0
vn 0 0 -1
vn -1 0 0
vn 0 0 -1
vn 0 -1 0
vn 1 0 0
vn 0 0 -1
vn 0 -1 0
vn -1 0 0
vn 0 0 1
vn 0 -1 0
vn -1 0 0
f 4/4/4 7/7/7 10/10/10
f 7/7/7 4/4/4 13/13/13
f 16/16/16 14/14/14 5/5/5
f 14/14/14 16/16/16 19/19/19
f 17/17/17 23/23/23 20/20/20
f 23/23/23 17/17/17 1/1/1
f 18/18/18 11/11/11 2/2/2
f 11/11/11 18/18/18 6/6/6
f 12/12/12 22/22/22 3/3/3
f 22/22/22 12/12/12 8/8/8
f 15/15/15 24/24/24 9/9/9
f 24/24/24 15/15/15 21/21/21
