# Rhino

mtllib BedSet_07_04.mtl
usemtl Default
v 0.35930600388399991 0.30826547113899999 0.21818708903900008
v 0.35458585764299988 0.36749129383900003 0.21818708903900008
v 0.35458585764299988 0.30826547113899999 0.21818708903900008
v 0.35930600388399991 0.36749129383900003 0.21818708903900008
v 0.35930600388399991 0.36749129383900003 0.21818708903900008
v 0.35930600388399991 0.30826547113899999 0.22279433472799992
v 0.35930600388399991 0.30826547113899999 0.21818708903900008
v 0.35930600388399991 0.36749129383900003 0.22279433472799992
v 0.35930600388399991 0.36749129383900003 0.21818708903900008
v 0.35458585764299988 0.36749129383900003 0.22279433472799992
v 0.35930600388399991 0.36749129383900003 0.22279433472799992
v 0.35458585764299988 0.36749129383900003 0.21818708903900008
v 0.35458585764299988 0.30826547113899999 0.22279433472799992
v 0.35458585764299988 0.36749129383900003 0.21818708903900008
v 0.35458585764299988 0.36749129383900003 0.22279433472799992
v 0.35458585764299988 0.30826547113899999 0.21818708903900008
v 0.35930600388399991 0.36749129383900003 0.22279433472799992
v 0.35458585764299988 0.30826547113899999 0.22279433472799992
v 0.35458585764299988 0.36749129383900003 0.22279433472799992
v 0.35930600388399991 0.30826547113899999 0.22279433472799992
v 0.35458585764299988 0.30826547113899999 0.22279433472799992
v 0.35458585764299988 0.30826547113899999 0.21818708903900008
v 0.35694593076349967 0.30826547113899999 0.2204907118835
v 0.35930600388399991 0.30826547113899999 0.22279433472799992
v 0.35930600388399991 0.30826547113899999 0.21818708903900008
vt -1.865399956703186 6.6458301544189453
vt -2.4118399620056152 6.6022801399230957
vt -1.865399956703186 6.6022801399230957
vt -2.4118399620056152 6.6458301544189453
vt -13.673299789428711 3.3906300067901611
vt -13.715800285339355 2.8441898822784424
vt -13.673299789428711 2.8441898822784424
vt -13.715800285339355 3.3906300067901611
vt -13.715800285339355 3.3481199741363525
vt -13.672300338745117 3.3906199932098389
vt -13.715800285339355 3.3906199932098389
vt -13.672300338745117 3.3481199741363525
vt -2.3693299293518066 7.1487197875976562
vt -2.4118399620056152 6.6022801399230957
vt -2.3693299293518066 6.6022801399230957
vt -2.4118399620056152 7.1487197875976562
vt -2.3693299293518066 6.6458301544189453
vt -2.9157700538635254 6.6022801399230957
vt -2.3693299293518066 6.6022801399230957
vt -2.9157700538635254 6.6458301544189453
vt 0 0
vt 0 1
vt 0.5 0.5
vt 1 0
vt 1 1
vn 0 0 -1
vn 0 0 -1
vn 0 0 -1
vn 0 0 -1
vn 1 0 0
vn 1 0 0
vn 1 0 0
vn 1 0 0
vn 0 1 0
vn 0 1 0
vn 0 1 0
vn 0 1 0
vn -1 0 0
vn -1 0 0
vn -1 0 0
vn -1 0 0
vn 0 0 1
vn 0 0 1
vn 0 0 1
vn 0 0 1
vn 0 -1 0
vn 0 -1 0
vn 0 -1 0
vn 0 -1 0
vn 0 -1 0
f 1/1/1 3/3/3 2/2/2
f 2/2/2 4/4/4 1/1/1
f 5/5/5 6/6/6 7/7/7
f 6/6/6 5/5/5 8/8/8
f 9/9/9 10/10/10 11/11/11
f 10/10/10 9/9/9 12/12/12
f 13/13/13 15/15/15 14/14/14
f 14/14/14 16/16/16 13/13/13
f 17/17/17 19/19/19 18/18/18
f 18/18/18 20/20/20 17/17/17
f 23/23/23 21/21/21 22/22/22
f 25/25/25 24/24/24 23/23/23
f 21/21/21 23/23/23 24/24/24
f 22/22/22 25/25/25 23/23/23
