# Rhino

mtllib BedSet_06_05.mtl
usemtl Default
v 0.41092480910200013 0.1287867539061 0.027903319872400023
v 0.41757879419199995 0.1287867539061 0.19317928943399998
v 0.41757879419199995 0.1287867539061 0.027903319872400023
v 0.41092480910200013 0.1287867539061 0.19317928943399998
v 0.41092480910200013 0.1287867539061 0.027903319872400023
v 0.41092480910200013 0.081565168520499984 0.19317928943399998
v 0.41092480910200013 0.1287867539061 0.19317928943399998
v 0.41092480910200013 0.081565168520499984 -0.19317928943400009
v 0.41092480910200013 0.1287867539061 0.015025317621400025
v 0.41092480910200013 0.1287867539061 0.015025317621400025
v 0.41757879419199995 0.1287867539061 0.015025317621400025
v 0.41757879419199995 0.1287867539061 0.027903319872400023
v 0.41757879419199995 0.081565168520499984 -0.19317928943400009
v 0.41757879419199995 0.1287867539061 0.015025317621400025
v 0.41757879419199995 0.1287867539061 0.19317928943399998
v 0.41757879419199995 0.081565168520499984 0.19317928943399998
v 0.41092480910200013 0.081565168520499984 0.19317928943399998
v 0.41757879419199995 0.081565168520499984 -0.19317928943400009
v 0.41757879419199995 0.081565168520499984 0.19317928943399998
v 0.41092480910200013 0.081565168520499984 -0.19317928943400009
v 0.41092480910200013 0.1287867539061 -0.19317928943400009
v 0.41757879419199995 0.1287867539061 -0.027903319872399912
v 0.41757879419199995 0.1287867539061 -0.19317928943400009
v 0.41092480910200013 0.1287867539061 -0.027903319872399912
v 0.41092480910200013 0.1287867539061 -0.027903319872399912
v 0.41092480910200013 0.1287867539061 -0.19317928943400009
v 0.41092480910200013 0.1287867539061 -0.015025317621399914
v 0.41092480910200013 0.1287867539061 -0.0064394218377499257
v 0.41092480910200013 0.1287867539061 0.0064394218377500367
v 0.41092480910200013 0.1287867539061 0.0064394218377500367
v 0.41757879419199995 0.1287867539061 0.0064394218377500367
v 0.41757879419199995 0.1287867539061 0.0064394218377500367
v 0.41757879419199995 0.1287867539061 -0.0064394218377499257
v 0.41757879419199995 0.1287867539061 -0.015025317621399914
v 0.41757879419199995 0.1287867539061 -0.027903319872399912
v 0.41757879419199995 0.1287867539061 -0.19317928943400009
v 0.41757879419199995 0.1287867539061 -0.015025317621399914
v 0.41092480910200013 0.1287867539061 -0.015025317621399914
v 0.41757879419199995 0.1287867539061 -0.0064394218377499257
v 0.41092480910200013 0.1287867539061 -0.0064394218377499257
v 0.41092480910200013 0.081565168520499984 0.19317928943399998
v 0.41092480910200013 0.1287867539061 0.19317928943399998
v 0.41425180164700004 0.1051759612133 0.19317928943399998
v 0.41757879419199995 0.081565168520499984 0.19317928943399998
v 0.41757879419199995 0.1287867539061 0.19317928943399998
v 0.41092480910200013 0.081565168520499984 -0.19317928943400009
v 0.41092480910200013 0.1287867539061 -0.19317928943400009
v 0.41425180164700004 0.1051759612133 -0.19317928943400009
v 0.41757879419199995 0.081565168520499984 -0.19317928943400009
v 0.41757879419199995 0.1287867539061 -0.19317928943400009
vt 3.4077999591827393 -9.3900003433227539
vt 3.4128999710083008 -9.7058000564575195
vt 3.4128999710083008 -9.3900003433227539
vt 3.4077999591827393 -9.7058000564575195
vt 3.7560000419616699 -0.36090001463890076
vt 3.8822999000549316 -0.45109999179840088
vt 3.8822999000549316 -0.36090001463890076
vt 3.5871000289916992 -0.45109999179840088
vt 3.7462000846862793 -0.36090001463890076
vt 3.4077999591827393 -9.3654003143310547
vt 3.4128999710083008 -9.3654003143310547
vt -3.7560000419616699 -0.36090001463890076
vt -3.5871000289916992 -0.45109999179840088
vt -3.7462000846862793 -0.36090001463890076
vt -3.8822999000549316 -0.36090001463890076
vt -3.8822999000549316 -0.45109999179840088
vt -3.4077999591827393 -9.7058000564575195
vt -3.4128999710083008 -8.9675998687744141
vt -3.4128999710083008 -9.7058000564575195
vt -3.4077999591827393 -8.9675998687744141
vt 3.4077999591827393 -8.9675998687744141
vt 3.4128999710083008 -9.2833995819091797
vt 3.4128999710083008 -8.9675998687744141
vt 3.4077999591827393 -9.2833995819091797
vt 3.7133998870849609 -0.36090001463890076
vt 3.5871000289916992 -0.36090001463890076
vt 3.7232000827789307 -0.36090001463890076
vt 3.7297999858856201 -0.36090001463890076
vt 3.7395999431610107 -0.36090001463890076
vt 3.4077999591827393 -9.3489999771118164
vt 3.4128999710083008 -9.3489999771118164
vt -3.7395999431610107 -0.36090001463890076
vt -3.7297999858856201 -0.36090001463890076
vt -3.7232000827789307 -0.36090001463890076
vt -3.7133998870849609 -0.36090001463890076
vt -3.5871000289916992 -0.36090001463890076
vt 3.4128999710083008 -9.3079996109008789
vt 3.4077999591827393 -9.3079996109008789
vt 3.4128999710083008 -9.3243999481201172
vt 3.4077999591827393 -9.3243999481201172
vt 1 1
vt 1 0
vt 0.5 0.5
vt 0 1
vt 0 0
vt 0 0
vt 0 1
vt 0.5 0.5
vt 1 0
vt 1 1
vn 0 1 0
vn 0 1 0
vn 0 1 0
vn 0 1 0
vn -1 0 0
vn -1 0 0
vn -1 0 0
vn -1 0 0
vn -1 0 0
vn 0 1 0
vn 0 1 0
vn 1 0 0
vn 1 0 0
vn 1 0 0
vn 1 0 0
vn 1 0 0
vn 0 -1 0
vn 0 -1 0
vn 0 -1 0
vn 0 -1 0
vn 0 1 0
vn 0 1 0
vn 0 1 0
vn 0 1 0
vn -1 0 0
vn -1 0 0
vn -1 0 0
vn -1 0 0
vn -1 0 0
vn 0 1 0
vn 0 1 0
vn 1 0 0
vn 1 0 0
vn 1 0 0
vn 1 0 0
vn 1 0 0
vn 0 1 0
vn 0 1 0
vn 0 1 0
vn 0 1 0
vn 0 0 1
vn 0 0 1
vn 0 0 1
vn 0 0 1
vn 0 0 1
vn 0 0 -1
vn 0 0 -1
vn 0 0 -1
vn 0 0 -1
vn 0 0 -1
f 1/1/1 2/2/2 3/3/3
f 2/2/2 1/1/1 4/4/4
f 5/5/5 6/6/6 7/7/7
f 6/6/6 5/5/5 8/8/8
f 8/8/8 5/5/5 9/9/9
f 3/3/3 10/10/10 1/1/1
f 10/10/10 3/3/3 11/11/11
f 12/12/12 13/13/13 14/14/14
f 15/15/15 13/13/13 12/12/12
f 13/13/13 15/15/15 16/16/16
f 17/17/17 18/18/18 19/19/19
f 18/18/18 17/17/17 20/20/20
f 21/21/21 22/22/22 23/23/23
f 22/22/22 21/21/21 24/24/24
f 8/8/8 25/25/25 26/26/26
f 8/8/8 27/27/27 25/25/25
f 8/8/8 28/28/28 27/27/27
f 8/8/8 29/29/29 28/28/28
f 8/8/8 9/9/9 29/29/29
f 11/11/11 30/30/30 10/10/10
f 30/30/30 11/11/11 31/31/31
f 14/14/14 13/13/13 32/32/32
f 32/32/32 13/13/13 33/33/33
f 33/33/33 13/13/13 34/34/34
f 34/34/34 13/13/13 35/35/35
f 35/35/35 13/13/13 36/36/36
f 37/37/37 24/24/24 38/38/38
f 24/24/24 37/37/37 22/22/22
f 38/38/38 39/39/39 37/37/37
f 39/39/39 38/38/38 40/40/40
f 31/31/31 40/40/40 30/30/30
f 40/40/40 31/31/31 39/39/39
f 43/43/43 44/44/44 45/45/45
f 41/41/41 43/43/43 42/42/42
f 45/45/45 42/42/42 43/43/43
f 44/44/44 43/43/43 41/41/41
f 48/48/48 46/46/46 47/47/47
f 50/50/50 49/49/49 48/48/48
f 46/46/46 48/48/48 49/49/49
f 47/47/47 50/50/50 48/48/48
