# Rhino

mtllib BedSet_19_20.mtl
usemtl Default
v 0.27017819313299984 0.23025336556459997 -0.29467340584100032
v 0.27017819313299984 0.21022748128409996 -0.28895163484400044
v 0.27017819313299984 0.23025336556459997 -0.28895163484400044
v 0.27017819313299984 0.21022748128409996 -0.29467340584100032
v 0.27017819313299984 0.23025336556459997 -0.29467340584100032
v -0.13683736311400008 0.21022748128409996 -0.29467340584100032
v 0.27017819313299984 0.21022748128409996 -0.29467340584100032
v -0.14179246078700025 0.21022748128409996 -0.29467340584100032
v -0.14179246078700025 0.23025336556459997 -0.29467340584100032
v -0.13607068979000037 0.23025336556459997 -0.29467340584100032
v 0.27017819313299984 0.23025336556459997 -0.28895163484400044
v -0.13607068979000037 0.23025336556459997 -0.29467340584100032
v 0.27017819313299984 0.23025336556459997 -0.29467340584100032
v -0.13683736311400008 0.23025336556459997 -0.28895163484400044
v -0.14179246078700025 0.23025336556459997 -0.28895163484400044
v -0.14179246078700025 0.23025336556459997 -0.29181283455300022
v -0.14179246078700025 0.23025336556459997 -0.29467340584100032
v -0.13683736311400008 0.21022748128409996 -0.28895163484400044
v -0.14179246078700025 0.23025336556459997 -0.28895163484400044
v -0.13683736311400008 0.23025336556459997 -0.28895163484400044
v -0.14179246078700025 0.21022748128409996 -0.28895163484400044
v -0.13683736311400008 0.21022748128409996 -0.28895163484400044
v -0.14179246078700025 0.21022748128409996 -0.29467340584100032
v -0.14179246078700025 0.21022748128409996 -0.28895163484400044
v -0.13683736311400008 0.21022748128409996 -0.29467340584100032
v 0.27017819313299984 0.21022748128409996 -0.28895163484400044
v 0.27017819313299984 0.21022748128409996 -0.28895163484400044
v 0.27017819313299984 0.23025336556459997 -0.28895163484400044
v 0.27017819313299984 0.21022748128409996 -0.29467340584100032
v -0.14179246078700025 0.21022748128409996 -0.28895163484400044
v -0.14179246078700025 0.23025336556459997 -0.28895163484400044
v -0.14179246078700025 0.22024042342434996 -0.29181252034249994
v -0.14179246078700025 0.23025336556459997 -0.29181283455300022
v -0.14179246078700025 0.21022748128409996 -0.29467340584100032
v -0.14179246078700025 0.23025336556459997 -0.29467340584100032
vt -81.496101379394531 31.686100006103516
vt -80.708702087402344 28.930200576782227
vt -80.708702087402344 31.686100006103516
vt -81.496101379394531 28.930200576782227
vt 75.148002624511719 31.686100006103516
vt 19.136999130249023 28.930200576782227
vt 75.148002624511719 28.930200576782227
vt 18.454999923706055 28.930200576782227
vt 18.454999923706055 31.686100006103516
vt 19.242399215698242 31.686100006103516
vt -75.148002624511719 80.708702087402344
vt -19.242399215698242 81.496101379394531
vt -75.148002624511719 81.496101379394531
vt -19.136999130249023 80.708702087402344
vt -18.454999923706055 80.708702087402344
vt -18.454999923706055 81.102401733398438
vt -18.454999923706055 81.496101379394531
vt -19.136999130249023 28.930200576782227
vt -18.454999923706055 31.686100006103516
vt -19.136999130249023 31.686100006103516
vt -18.454999923706055 28.930200576782227
vt 19.136999130249023 80.708702087402344
vt 18.454999923706055 81.496101379394531
vt 18.454999923706055 80.708702087402344
vt 19.136999130249023 81.496101379394531
vt 75.148002624511719 80.708702087402344
vt -75.148002624511719 28.930200576782227
vt -75.148002624511719 31.686100006103516
vt 75.148002624511719 81.496101379394531
vt 0 0
vt 0 1
vt 0.5 0.5
vt 0.50005489587783813 1
vt 1 0
vt 1 1
vn 1 0 0
vn 1 0 0
vn 1 0 0
vn 1 0 0
vn 0 0 -1
vn 0 0 -1
vn 0 0 -1
vn 0 0 -1
vn 0 0 -1
vn 0 0 -1
vn 0 1 0
vn 0 1 0
vn 0 1 0
vn 0 1 0
vn 0 1 0
vn 0 1 0
vn 0 1 0
vn 0 0 1
vn 0 0 1
vn 0 0 1
vn 0 0 1
vn 0 -1 0
vn 0 -1 0
vn 0 -1 0
vn 0 -1 0
vn 0 -1 0
vn 0 0 1
vn 0 0 1
vn 0 -1 0
vn -1 0 0
vn -1 0 0
vn -1 0 0
vn -1 0 0
vn -1 0 0
vn -1 0 0
f 1/1/1 3/3/3 2/2/2
f 2/2/2 4/4/4 1/1/1
f 5/5/5 7/7/7 6/6/6
f 6/6/6 8/8/8 5/5/5
f 8/8/8 9/9/9 5/5/5
f 9/9/9 10/10/10 5/5/5
f 11/11/11 13/13/13 12/12/12
f 14/14/14 11/11/11 12/12/12
f 15/15/15 14/14/14 12/12/12
f 16/16/16 15/15/15 12/12/12
f 12/12/12 17/17/17 16/16/16
f 18/18/18 20/20/20 19/19/19
f 19/19/19 21/21/21 18/18/18
f 22/22/22 24/24/24 23/23/23
f 23/23/23 25/25/25 22/22/22
f 25/25/25 26/26/26 22/22/22
f 20/20/20 18/18/18 27/27/27
f 27/27/27 28/28/28 20/20/20
f 25/25/25 29/29/29 26/26/26
f 31/31/31 32/32/32 30/30/30
f 34/34/34 30/30/30 32/32/32
f 33/33/33 32/32/32 31/31/31
f 33/33/33 35/35/35 32/32/32
f 34/34/34 32/32/32 35/35/35
