# Rhino

mtllib BedSet_10_23.mtl
usemtl Default
v 0.3502033266779998 0.148245338738 0.13733692318800017
v 0.34975500624299993 0.30338565985490001 0.137395555206
v 0.34975500624299993 0.148245338738 0.137395555206
v 0.34975500624299993 0.30683279353159998 0.137395555206
v 0.3502033266779998 0.30683279353159998 0.13733692318800017
v 0.35061732593100015 0.148245338738 0.13716460225499993
v 0.3502033266779998 0.30683279353159998 0.13733692318800017
v 0.3502033266779998 0.148245338738 0.13733692318800017
v 0.35061732593100015 0.30683279353159998 0.13716460225499993
v 0.35097555326399998 0.148245338738 0.13689217787599972
v 0.35061732593100015 0.30683279353159998 0.13716460225499993
v 0.35061732593100015 0.148245338738 0.13716460225499993
v 0.35097555326399998 0.30683279353159998 0.13689217787599972
v 0.35097555326399998 0.148245338738 0.13689217787599972
v 0.3512479776430002 0.30683279353159998 0.13653395054300077
v 0.35097555326399998 0.30683279353159998 0.13689217787599972
v 0.3512479776430002 0.148245338738 0.13653395054300077
v 0.34826274986799977 0.148245338738 0.13653395054300077
v 0.3512479776430002 0.148245338738 0.13653395054300077
v 0.35097555326399998 0.148245338738 0.13689217787599972
v 0.34809042893600006 0.148245338738 0.13611995129000043
v 0.3514202985749999 0.148245338738 0.13611995129000043
v 0.34803179691700015 0.148245338738 0.13567163085500056
v 0.35147893059399982 0.148245338738 0.13567163085500056
v 0.34809042893600006 0.148245338738 0.1352268855440002
v 0.3514202985749999 0.148245338738 0.1352268855440002
v 0.34826274986799977 0.148245338738 0.13481002619199955
v 0.3512479776430002 0.148245338738 0.13481002619199955
v 0.34853803434599984 0.148245338738 0.13445465895799913
v 0.35097555326399998 0.148245338738 0.13445465895799913
v 0.34889340157999982 0.148245338738 0.13417937448100048
v 0.35061732593100015 0.148245338738 0.13417937448100048
v 0.34931026093099993 0.148245338738 0.13400705354800024
v 0.3502033266779998 0.148245338738 0.13400705354800024
v 0.34975500624299993 0.148245338738 0.13394842152900033
v 0.34931026093099993 0.148245338738 0.13400705354800024
v 0.34975500624299993 0.30683279353159998 0.13394842152900033
v 0.34975500624299993 0.148245338738 0.13394842152900033
v 0.34931026093099993 0.30683279353159998 0.13400705354800024
v 0.34889340157999982 0.148245338738 0.13417937448100048
v 0.34931026093099993 0.30683279353159998 0.13400705354800024
v 0.34931026093099993 0.148245338738 0.13400705354800024
v 0.34889340157999982 0.30683279353159998 0.13417937448100048
v 0.34853803434599984 0.148245338738 0.13445465895799913
v 0.34889340157999982 0.30683279353159998 0.13417937448100048
v 0.34889340157999982 0.148245338738 0.13417937448100048
v 0.34853803434599984 0.30683279353159998 0.13445465895799913
v 0.34853803434599984 0.148245338738 0.13445465895799913
v 0.34826274986799977 0.30683279353159998 0.13481002619199955
v 0.34853803434599984 0.30683279353159998 0.13445465895799913
v 0.34826274986799977 0.148245338738 0.13481002619199955
v 0.34826274986799977 0.148245338738 0.13481002619199955
v 0.34809042893600006 0.30683279353159998 0.1352268855440002
v 0.34826274986799977 0.30683279353159998 0.13481002619199955
v 0.34809042893600006 0.148245338738 0.1352268855440002
v 0.34809042893600006 0.148245338738 0.1352268855440002
v 0.34803179691700015 0.30683279353159998 0.13567163085500056
v 0.34809042893600006 0.30683279353159998 0.1352268855440002
v 0.34803179691700015 0.148245338738 0.13567163085500056
v 0.34809042893600006 0.30683279353159998 0.13611995129000043
v 0.34809042893600006 0.148245338738 0.13611995129000043
v 0.34809042893600006 0.148245338738 0.13611995129000043
v 0.34826274986799977 0.30683279353159998 0.13653395054300077
v 0.34809042893600006 0.30683279353159998 0.13611995129000043
v 0.34826274986799977 0.148245338738 0.13653395054300077
v 0.34826274986799977 0.148245338738 0.13653395054300077
v 0.34853803434599984 0.30683279353159998 0.13689217787599972
v 0.34826274986799977 0.30683279353159998 0.13653395054300077
v 0.34853803434599984 0.148245338738 0.13689217787599972
v 0.34853803434599984 0.148245338738 0.13689217787599972
v 0.35061732593100015 0.148245338738 0.13716460225499993
v 0.34889340157999982 0.148245338738 0.13716460225499993
v 0.3502033266779998 0.148245338738 0.13733692318800017
v 0.34931026093099993 0.148245338738 0.13733692318800017
v 0.34975500624299993 0.148245338738 0.137395555206
v 0.34975500624299993 0.148245338738 0.137395555206
v 0.34931026093099993 0.30683279353159998 0.13733692318800017
v 0.34931026093099993 0.148245338738 0.13733692318800017
v 0.34975500624299993 0.30683279353159998 0.137395555206
v 0.34975500624299993 0.30338565985490001 0.137395555206
v 0.3502033266779998 0.30683279353159998 0.13733692318800017
v 0.34931026093099993 0.30683279353159998 0.13733692318800017
v 0.34975500624299993 0.30683279353159998 0.137395555206
v 0.35061732593100015 0.30683279353159998 0.13716460225499993
v 0.34889340157999982 0.30683279353159998 0.13716460225499993
v 0.35097555326399998 0.30683279353159998 0.13689217787599972
v 0.34853803434599984 0.30683279353159998 0.13689217787599972
v 0.34826274986799977 0.30683279353159998 0.13653395054300077
v 0.3512479776430002 0.30683279353159998 0.13653395054300077
v 0.3514202985749999 0.30683279353159998 0.13611995129000043
v 0.34809042893600006 0.30683279353159998 0.13611995129000043
v 0.35147893059399982 0.30683279353159998 0.13567163085500056
v 0.34803179691700015 0.30683279353159998 0.13567163085500056
v 0.3514202985749999 0.30683279353159998 0.1352268855440002
v 0.34809042893600006 0.30683279353159998 0.1352268855440002
v 0.34826274986799977 0.30683279353159998 0.13481002619199955
v 0.3512479776430002 0.30683279353159998 0.13481002619199955
v 0.35097555326399998 0.30683279353159998 0.13445465895799913
v 0.34853803434599984 0.30683279353159998 0.13445465895799913
v 0.35061732593100015 0.30683279353159998 0.13417937448100048
v 0.34889340157999982 0.30683279353159998 0.13417937448100048
v 0.3502033266779998 0.30683279353159998 0.13400705354800024
v 0.34931026093099993 0.30683279353159998 0.13400705354800024
v 0.34975500624299993 0.30683279353159998 0.13394842152900033
v 0.3502033266779998 0.30683279353159998 0.13400705354800024
v 0.34975500624299993 0.30338565985490001 0.13394842152900033
v 0.3502033266779998 0.148245338738 0.13400705354800024
v 0.35061732593100015 0.30683279353159998 0.13417937448100048
v 0.3502033266779998 0.148245338738 0.13400705354800024
v 0.3502033266779998 0.30683279353159998 0.13400705354800024
v 0.35061732593100015 0.148245338738 0.13417937448100048
v 0.35097555326399998 0.30683279353159998 0.13445465895799913
v 0.35061732593100015 0.148245338738 0.13417937448100048
v 0.35061732593100015 0.30683279353159998 0.13417937448100048
v 0.35097555326399998 0.148245338738 0.13445465895799913
v 0.35097555326399998 0.30683279353159998 0.13445465895799913
v 0.3512479776430002 0.148245338738 0.13481002619199955
v 0.35097555326399998 0.148245338738 0.13445465895799913
v 0.3512479776430002 0.30683279353159998 0.13481002619199955
v 0.3512479776430002 0.30683279353159998 0.13481002619199955
v 0.3514202985749999 0.148245338738 0.1352268855440002
v 0.3512479776430002 0.148245338738 0.13481002619199955
v 0.3514202985749999 0.30683279353159998 0.1352268855440002
v 0.3514202985749999 0.30683279353159998 0.1352268855440002
v 0.35147893059399982 0.148245338738 0.13567163085500056
v 0.3514202985749999 0.148245338738 0.1352268855440002
v 0.35147893059399982 0.30683279353159998 0.13567163085500056
v 0.35147893059399982 0.30683279353159998 0.13567163085500056
v 0.3514202985749999 0.148245338738 0.13611995129000043
v 0.35147893059399982 0.148245338738 0.13567163085500056
v 0.3514202985749999 0.30683279353159998 0.13611995129000043
v 0.3514202985749999 0.30683279353159998 0.13611995129000043
v 0.3512479776430002 0.148245338738 0.13653395054300077
v 0.3514202985749999 0.148245338738 0.13611995129000043
v 0.3512479776430002 0.30683279353159998 0.13653395054300077
v 0.34853803434599984 0.30683279353159998 0.13689217787599972
v 0.34889340157999982 0.148245338738 0.13716460225499993
v 0.34889340157999982 0.30683279353159998 0.13716460225499993
v 0.34853803434599984 0.148245338738 0.13689217787599972
v 0.34931026093099993 0.148245338738 0.13733692318800017
v 0.34889340157999982 0.30683279353159998 0.13716460225499993
v 0.34889340157999982 0.148245338738 0.13716460225499993
v 0.34931026093099993 0.30683279353159998 0.13733692318800017
vt 0.19519999623298645 0
vt 0.14380000531673431 17.716499328613281
vt 0.14380000531673431 0
vt 0.14380000531673431 18.110200881958008
vt 0.19519999623298645 18.110200881958008
vt 0.13220000267028809 0
vt 0.080799996852874756 18.110200881958008
vt 0.080799996852874756 0
vt 0.13220000267028809 18.110200881958008
vt 0.061999998986721039 0
vt 0.010599999688565731 18.110200881958008
vt 0.010599999688565731 0
vt 0.061999998986721039 18.110200881958008
vt -0.061999998986721039 0
vt -0.010599999688565731 18.110200881958008
vt -0.061999998986721039 18.110200881958008
vt -0.010599999688565731 0
vt -0.29530000686645508 0.026399999856948853
vt -0.29530000686645508 0.36730000376701355
vt -0.335999995470047 0.335999995470047
vt -0.24779999256134033 0.0066999997943639755
vt -0.24779999256134033 0.38699999451637268
vt -0.19689999520778656 0
vt -0.19689999520778656 0.3937000036239624
vt -0.14589999616146088 0.0066999997943639755
vt -0.14589999616146088 0.38699999451637268
vt -0.098399996757507324 0.026399999856948853
vt -0.098399996757507324 0.36730000376701355
vt -0.057700000703334808 0.057700000703334808
vt -0.057700000703334808 0.335999995470047
vt -0.026399999856948853 0.098399996757507324
vt -0.026399999856948853 0.29530000686645508
vt -0.0066999997943639755 0.14589999616146088
vt -0.0066999997943639755 0.24779999256134033
vt 0 0.19689999520778656
vt -0.14380000531673431 0
vt -0.19519999623298645 18.110200881958008
vt -0.19519999623298645 0
vt -0.14380000531673431 18.110200881958008
vt -0.080799996852874756 0
vt -0.13220000267028809 18.110200881958008
vt -0.13220000267028809 0
vt -0.080799996852874756 18.110200881958008
vt -0.010599999688565731 0
vt -0.061999998986721039 18.110200881958008
vt -0.061999998986721039 0
vt -0.010599999688565731 18.110200881958008
vt 0.010599999688565731 0
vt 0.061999998986721039 18.110200881958008
vt 0.010599999688565731 18.110200881958008
vt 0.061999998986721039 0
vt 0.080799996852874756 0
vt 0.13220000267028809 18.110200881958008
vt 0.080799996852874756 18.110200881958008
vt 0.13220000267028809 0
vt 0.14380000531673431 0
vt 0.19519999623298645 18.110200881958008
vt 0.14380000531673431 18.110200881958008
vt 0.19519999623298645 0
vt 0.24660000205039978 18.110200881958008
vt 0.24660000205039978 0
vt 0.23149999976158142 0
vt 0.28290000557899475 18.110200881958008
vt 0.23149999976158142 18.110200881958008
vt 0.28290000557899475 0
vt 0.25029999017715454 0
vt 0.30169999599456787 18.110200881958008
vt 0.25029999017715454 18.110200881958008
vt 0.30169999599456787 0
vt -0.335999995470047 0.057700000703334808
vt -0.36730000376701355 0.29530000686645508
vt -0.36730000376701355 0.098399996757507324
vt -0.38699999451637268 0.24779999256134033
vt -0.38699999451637268 0.14589999616146088
vt -0.3937000036239624 0.19689999520778656
vt 0.24660000205039978 0
vt 0.19519999623298645 18.110200881958008
vt 0.19519999623298645 0
vt 0.24660000205039978 18.110200881958008
vt 0.24660000205039978 17.716499328613281
vt 0.38699999451637268 0.24779999256134033
vt 0.38699999451637268 0.14589999616146088
vt 0.3937000036239624 0.19689999520778656
vt 0.36730000376701355 0.29530000686645508
vt 0.36730000376701355 0.098399996757507324
vt 0.335999995470047 0.335999995470047
vt 0.335999995470047 0.057700000703334808
vt 0.29530000686645508 0.026399999856948853
vt 0.29530000686645508 0.36730000376701355
vt 0.24779999256134033 0.38699999451637268
vt 0.24779999256134033 0.0066999997943639755
vt 0.19689999520778656 0.3937000036239624
vt 0.19689999520778656 0
vt 0.14589999616146088 0.38699999451637268
vt 0.14589999616146088 0.0066999997943639755
vt 0.098399996757507324 0.026399999856948853
vt 0.098399996757507324 0.36730000376701355
vt 0.057700000703334808 0.335999995470047
vt 0.057700000703334808 0.057700000703334808
vt 0.026399999856948853 0.29530000686645508
vt 0.026399999856948853 0.098399996757507324
vt 0.0066999997943639755 0.24779999256134033
vt 0.0066999997943639755 0.14589999616146088
vt 0 0.19689999520778656
vt -0.24660000205039978 18.110200881958008
vt -0.19519999623298645 17.716499328613281
vt -0.24660000205039978 0
vt -0.28290000557899475 18.110200881958008
vt -0.23149999976158142 0
vt -0.23149999976158142 18.110200881958008
vt -0.28290000557899475 0
vt -0.30169999599456787 18.110200881958008
vt -0.25029999017715454 0
vt -0.25029999017715454 18.110200881958008
vt -0.30169999599456787 0
vt -0.25029999017715454 18.110200881958008
vt -0.30169999599456787 0
vt -0.25029999017715454 0
vt -0.30169999599456787 18.110200881958008
vt -0.23149999976158142 18.110200881958008
vt -0.28290000557899475 0
vt -0.23149999976158142 0
vt -0.28290000557899475 18.110200881958008
vt -0.19519999623298645 18.110200881958008
vt -0.24660000205039978 0
vt -0.19519999623298645 0
vt -0.24660000205039978 18.110200881958008
vt -0.14380000531673431 18.110200881958008
vt -0.19519999623298645 0
vt -0.14380000531673431 0
vt -0.19519999623298645 18.110200881958008
vt -0.080799996852874756 18.110200881958008
vt -0.13220000267028809 0
vt -0.080799996852874756 0
vt -0.13220000267028809 18.110200881958008
vt 0.25029999017715454 18.110200881958008
vt 0.30169999599456787 0
vt 0.30169999599456787 18.110200881958008
vt 0.25029999017715454 0
vt 0.28290000557899475 0
vt 0.23149999976158142 18.110200881958008
vt 0.23149999976158142 0
vt 0.28290000557899475 18.110200881958008
vn 0.12967720627784729 0 0.99155628681182861
vn 0.12967720627784729 0 0.99155628681182861
vn 0.12967720627784729 0 0.99155628681182861
vn 0.12967720627784729 0 0.99155628681182861
vn 0.12967720627784729 0 0.99155628681182861
vn 0.38427570462226868 0 0.92321836948394775
vn 0.38427570462226868 0 0.92321836948394775
vn 0.38427570462226868 0 0.92321836948394775
vn 0.38427570462226868 0 0.92321836948394775
vn 0.60532492399215698 0 0.79597848653793335
vn 0.60532492399215698 0 0.79597848653793335
vn 0.60532492399215698 0 0.79597848653793335
vn 0.60532492399215698 0 0.79597848653793335
vn 0.79597848653793335 0 0.60532492399215698
vn 0.79597848653793335 0 0.60532492399215698
vn 0.79597848653793335 0 0.60532492399215698
vn 0.79597848653793335 0 0.60532492399215698
vn 0 -1 0
vn 0 -1 0
vn 0 -1 0
vn 0 -1 0
vn 0 -1 0
vn 0 -1 0
vn 0 -1 0
vn 0 -1 0
vn 0 -1 0
vn 0 -1 0
vn 0 -1 0
vn 0 -1 0
vn 0 -1 0
vn 0 -1 0
vn 0 -1 0
vn 0 -1 0
vn 0 -1 0
vn 0 -1 0
vn -0.13070189952850342 0 -0.99142169952392578
vn -0.13070189952850342 0 -0.99142169952392578
vn -0.13070189952850342 0 -0.99142169952392578
vn -0.13070189952850342 0 -0.99142169952392578
vn -0.3820250928401947 0 -0.9241519570350647
vn -0.3820250928401947 0 -0.9241519570350647
vn -0.3820250928401947 0 -0.9241519570350647
vn -0.3820250928401947 0 -0.9241519570350647
vn -0.61239773035049438 0 -0.79054981470108032
vn -0.61239773035049438 0 -0.79054981470108032
vn -0.61239773035049438 0 -0.79054981470108032
vn -0.61239773035049438 0 -0.79054981470108032
vn -0.79054981470108032 0 -0.61239773035049438
vn -0.79054981470108032 0 -0.61239773035049438
vn -0.79054981470108032 0 -0.61239773035049438
vn -0.79054981470108032 0 -0.61239773035049438
vn -0.9241519570350647 0 -0.3820250928401947
vn -0.9241519570350647 0 -0.3820250928401947
vn -0.9241519570350647 0 -0.3820250928401947
vn -0.9241519570350647 0 -0.3820250928401947
vn -0.99142169952392578 0 -0.13070189952850342
vn -0.99142169952392578 0 -0.13070189952850342
vn -0.99142169952392578 0 -0.13070189952850342
vn -0.99142169952392578 0 -0.13070189952850342
vn -0.99142169952392578 0 -0.13070189952850342
vn -0.99142169952392578 0 -0.13070189952850342
vn -0.92321836948394775 0 0.38427570462226868
vn -0.92321836948394775 0 0.38427570462226868
vn -0.92321836948394775 0 0.38427570462226868
vn -0.92321836948394775 0 0.38427570462226868
vn -0.79291808605194092 0 0.60932826995849609
vn -0.79291808605194092 0 0.60932826995849609
vn -0.79291808605194092 0 0.60932826995849609
vn -0.79291808605194092 0 0.60932826995849609
vn 0 -1 0
vn 0 -1 0
vn 0 -1 0
vn 0 -1 0
vn 0 -1 0
vn 0 -1 0
vn -0.13070189952850342 0 0.99142169952392578
vn -0.13070189952850342 0 0.99142169952392578
vn -0.13070189952850342 0 0.99142169952392578
vn -0.13070189952850342 0 0.99142169952392578
vn -0.13070189952850342 0 0.99142169952392578
vn 0 1 0
vn 0 1 0
vn 0 1 0
vn 0 1 0
vn 0 1 0
vn 0 1 0
vn 0 1 0
vn 0 1 0
vn 0 1 0
vn 0 1 0
vn 0 1 0
vn 0 1 0
vn 0 1 0
vn 0 1 0
vn 0 1 0
vn 0 1 0
vn 0 1 0
vn 0 1 0
vn 0 1 0
vn 0 1 0
vn 0 1 0
vn 0 1 0
vn 0 1 0
vn 0 1 0
vn -0.13070189952850342 0 -0.99142169952392578
vn -0.13070189952850342 0 -0.99142169952392578
vn -0.13070189952850342 0 -0.99142169952392578
vn 0.38427570462226868 0 -0.92321836948394775
vn 0.38427570462226868 0 -0.92321836948394775
vn 0.38427570462226868 0 -0.92321836948394775
vn 0.38427570462226868 0 -0.92321836948394775
vn 0.60932826995849609 0 -0.79291808605194092
vn 0.60932826995849609 0 -0.79291808605194092
vn 0.60932826995849609 0 -0.79291808605194092
vn 0.60932826995849609 0 -0.79291808605194092
vn 0.79363209009170532 0 -0.60839802026748657
vn 0.79363209009170532 0 -0.60839802026748657
vn 0.79363209009170532 0 -0.60839802026748657
vn 0.79363209009170532 0 -0.60839802026748657
vn 0.9241519570350647 0 -0.3820250928401947
vn 0.9241519570350647 0 -0.3820250928401947
vn 0.9241519570350647 0 -0.3820250928401947
vn 0.9241519570350647 0 -0.3820250928401947
vn 0.99142169952392578 0 -0.13070189952850342
vn 0.99142169952392578 0 -0.13070189952850342
vn 0.99142169952392578 0 -0.13070189952850342
vn 0.99142169952392578 0 -0.13070189952850342
vn 0.99155628681182861 0 0.12967722117900848
vn 0.99155628681182861 0 0.12967722117900848
vn 0.99155628681182861 0 0.12967722117900848
vn 0.99155628681182861 0 0.12967722117900848
vn 0.92321836948394775 0 0.38427570462226868
vn 0.92321836948394775 0 0.38427570462226868
vn 0.92321836948394775 0 0.38427570462226868
vn 0.92321836948394775 0 0.38427570462226868
vn -0.60839802026748657 0 0.79363209009170532
vn -0.60839802026748657 0 0.79363209009170532
vn -0.60839802026748657 0 0.79363209009170532
vn -0.60839802026748657 0 0.79363209009170532
vn -0.3820250928401947 0 0.9241519570350647
vn -0.3820250928401947 0 0.9241519570350647
vn -0.3820250928401947 0 0.9241519570350647
vn -0.3820250928401947 0 0.9241519570350647
f 1/1/1 2/2/2 3/3/3
f 2/2/2 1/1/1 4/4/4
f 4/4/4 1/1/1 5/5/5
f 6/6/6 7/7/7 8/8/8
f 7/7/7 6/6/6 9/9/9
f 10/10/10 11/11/11 12/12/12
f 11/11/11 10/10/10 13/13/13
f 14/14/14 15/15/15 16/16/16
f 15/15/15 14/14/14 17/17/17
f 18/18/18 19/19/19 20/20/20
f 21/21/21 19/19/19 18/18/18
f 21/21/21 22/22/22 19/19/19
f 23/23/23 22/22/22 21/21/21
f 23/23/23 24/24/24 22/22/22
f 25/25/25 24/24/24 23/23/23
f 25/25/25 26/26/26 24/24/24
f 27/27/27 26/26/26 25/25/25
f 27/27/27 28/28/28 26/26/26
f 29/29/29 28/28/28 27/27/27
f 29/29/29 30/30/30 28/28/28
f 31/31/31 30/30/30 29/29/29
f 31/31/31 32/32/32 30/30/30
f 33/33/33 32/32/32 31/31/31
f 33/33/33 34/34/34 32/32/32
f 34/34/34 33/33/33 35/35/35
f 36/36/36 37/37/37 38/38/38
f 37/37/37 36/36/36 39/39/39
f 40/40/40 41/41/41 42/42/42
f 41/41/41 40/40/40 43/43/43
f 44/44/44 45/45/45 46/46/46
f 45/45/45 44/44/44 47/47/47
f 48/48/48 49/49/49 50/50/50
f 49/49/49 48/48/48 51/51/51
f 52/52/52 53/53/53 54/54/54
f 53/53/53 52/52/52 55/55/55
f 56/56/56 57/57/57 58/58/58
f 57/57/57 56/56/56 59/59/59
f 59/59/59 60/60/60 57/57/57
f 60/60/60 59/59/59 61/61/61
f 62/62/62 63/63/63 64/64/64
f 63/63/63 62/62/62 65/65/65
f 66/66/66 67/67/67 68/68/68
f 67/67/67 66/66/66 69/69/69
f 18/18/18 20/20/20 70/70/70
f 70/70/70 20/20/20 71/71/71
f 70/70/70 71/71/71 72/72/72
f 72/72/72 71/71/71 73/73/73
f 72/72/72 73/73/73 74/74/74
f 74/74/74 73/73/73 75/75/75
f 76/76/76 77/77/77 78/78/78
f 77/77/77 76/76/76 79/79/79
f 79/79/79 76/76/76 80/80/80
f 81/81/81 82/82/82 83/83/83
f 84/84/84 82/82/82 81/81/81
f 84/84/84 85/85/85 82/82/82
f 86/86/86 85/85/85 84/84/84
f 86/86/86 87/87/87 85/85/85
f 86/86/86 88/88/88 87/87/87
f 89/89/89 88/88/88 86/86/86
f 90/90/90 88/88/88 89/89/89
f 90/90/90 91/91/91 88/88/88
f 92/92/92 91/91/91 90/90/90
f 92/92/92 93/93/93 91/91/91
f 94/94/94 93/93/93 92/92/92
f 94/94/94 95/95/95 93/93/93
f 94/94/94 96/96/96 95/95/95
f 97/97/97 96/96/96 94/94/94
f 98/98/98 96/96/96 97/97/97
f 98/98/98 99/99/99 96/96/96
f 100/100/100 99/99/99 98/98/98
f 100/100/100 101/101/101 99/99/99
f 102/102/102 101/101/101 100/100/100
f 102/102/102 103/103/103 101/101/101
f 103/103/103 102/102/102 104/104/104
f 105/105/105 106/106/106 37/37/37
f 106/106/106 105/105/105 38/38/38
f 38/38/38 105/105/105 107/107/107
f 108/108/108 109/109/109 110/110/110
f 109/109/109 108/108/108 111/111/111
f 112/112/112 113/113/113 114/114/114
f 113/113/113 112/112/112 115/115/115
f 116/116/116 117/117/117 118/118/118
f 117/117/117 116/116/116 119/119/119
f 120/120/120 121/121/121 122/122/122
f 121/121/121 120/120/120 123/123/123
f 124/124/124 125/125/125 126/126/126
f 125/125/125 124/124/124 127/127/127
f 128/128/128 129/129/129 130/130/130
f 129/129/129 128/128/128 131/131/131
f 132/132/132 133/133/133 134/134/134
f 133/133/133 132/132/132 135/135/135
f 38/38/38 37/37/37 106/106/106
f 136/136/136 137/137/137 138/138/138
f 137/137/137 136/136/136 139/139/139
f 140/140/140 141/141/141 142/142/142
f 141/141/141 140/140/140 143/143/143
