# Rhino

mtllib BedSet_16_26.mtl
usemtl Default
v 0.39689826714100018 0.099824051998900001 0.27567836739500007
v -0.39689910705000031 0.099824051998900001 0.23558698007799994
v 0.39689826714100018 0.099824051998900001 0.23558698007799994
v -0.39689910705000031 0.099824051998900001 0.27567836739500007
v 0.40411560716199979 0.1070405521106 0.27567836739500007
v -0.39689910705000031 0.099824051998900001 0.27567836739500007
v 0.39689826714100018 0.099824051998900001 0.27567836739500007
v -0.40411476725299966 0.1070405521106 0.27567836739500007
v 0.40331265393700022 0.10784182551679999 0.27567836739500007
v 0.40411560716199979 0.1070405521106 0.23959670674599998
v -0.40331265393700022 0.10784182551679999 0.23959670674599998
v 0.40331265393700022 0.10784182551679999 0.23959670674599998
v -0.40411476725299966 0.1070405521106 0.23959670674599998
v 0.40090799380899966 0.1038329387578 0.23959670674599998
v -0.40090799380899966 0.1038329387578 0.23959670674599998
v 0.40090799380899966 0.1038329387578 0.23959670674599998
v -0.40090799380899966 0.1038329387578 0.23558698007799994
v -0.40090799380899966 0.1038329387578 0.23959670674599998
v 0.40090799380899966 0.1038329387578 0.23558698007799994
v -0.39689910705000031 0.099824051998900001 0.23558698007799994
v 0.40090799380899966 0.1038329387578 0.23558698007799994
v 0.39689826714100018 0.099824051998900001 0.23558698007799994
v -0.40090799380899966 0.1038329387578 0.23558698007799994
v 0.40331265393700022 0.10784182551679999 0.27567836739500007
v -0.40331265393700022 0.10784182551679999 0.23959670674599998
v -0.40331265393700022 0.10784182551679999 0.27567836739500007
v 0.40331265393700022 0.10784182551679999 0.23959670674599998
v -0.40331265393700022 0.10784182551679999 0.27567836739500007
vt -0.7874000072479248 18.897600173950195
vt -78.740196228027344 14.960599899291992
vt -0.7874000072479248 14.960599899291992
vt -78.740196228027344 18.897600173950195
vt -0.078699998557567596 0.70870000123977661
vt -78.740196228027344 0
vt -0.7874000072479248 0
vt -79.448799133300781 0.70870000123977661
vt -0.1574999988079071 0.7874000072479248
vt 0.078699998557567596 0.70870000123977661
vt 79.370101928710938 0.7874000072479248
vt 0.1574999988079071 0.7874000072479248
vt 79.448799133300781 0.70870000123977661
vt 0.3937000036239624 0.3937000036239624
vt 79.133903503417969 0.3937000036239624
vt 0.3937000036239624 15.354299545288086
vt 79.133903503417969 14.960599899291992
vt 79.133903503417969 15.354299545288086
vt 0.3937000036239624 14.960599899291992
vt 78.740196228027344 0
vt 0.3937000036239624 0.3937000036239624
vt 0.7874000072479248 0
vt 79.133903503417969 0.3937000036239624
vt 0.1574999988079071 18.897600173950195
vt 79.370101928710938 15.354299545288086
vt 79.370101928710938 18.897600173950195
vt 0.1574999988079071 15.354299545288086
vt -79.370101928710938 0.7874000072479248
vn 0 -1 0
vn 0 -1 0
vn 0 -1 0
vn 0 -1 0
vn 0 0 1
vn 0 0 1
vn 0 0 1
vn 0 0 1
vn 0 0 1
vn 0 0 -1
vn 0 0 -1
vn 0 0 -1
vn 0 0 -1
vn 0 0 -1
vn 0 0 -1
vn 0 1 0
vn 0 1 0
vn 0 1 0
vn 0 1 0
vn 0 0 -1
vn 0 0 -1
vn 0 0 -1
vn 0 0 -1
vn 0 1 0
vn 0 1 0
vn 0 1 0
vn 0 1 0
vn 0 0 1
f 1/1/1 2/2/2 3/3/3
f 2/2/2 1/1/1 4/4/4
f 5/5/5 6/6/6 7/7/7
f 6/6/6 5/5/5 8/8/8
f 8/8/8 5/5/5 9/9/9
f 10/10/10 11/11/11 12/12/12
f 10/10/10 13/13/13 11/11/11
f 14/14/14 13/13/13 10/10/10
f 13/13/13 14/14/14 15/15/15
f 16/16/16 17/17/17 18/18/18
f 17/17/17 16/16/16 19/19/19
f 20/20/20 21/21/21 22/22/22
f 21/21/21 20/20/20 23/23/23
f 24/24/24 25/25/25 26/26/26
f 25/25/25 24/24/24 27/27/27
f 8/8/8 9/9/9 28/28/28
