# Rhino

mtllib BedSet_07_15.mtl
usemtl Default
v 0.35930600388399991 0.30826547113899999 0.15024263418100015
v 0.359870506639 0.30826547113899999 0.27144905302700018
v 0.35930600388399991 0.30826547113899999 0.15484987986999998
v 0.35930600388399991 0.30826547113899999 0.12087765244100002
v 0.35930600388399991 0.30826547113899999 0.11627040675200018
v 0.35930600388399991 0.30826547113899999 0.086905425012299808
v 0.35930600388399991 0.30826547113899999 0.082298179323000209
v 0.35930600388399991 0.30826547113899999 0.05293319758329984
v 0.35930600388399991 0.30826547113899999 0.048325951893899877
v 0.35930600388399991 0.30826547113899999 0.018960970154399792
v 0.35930600388399991 0.30826547113899999 0.014353724464999829
v 0.35930600388399991 0.30826547113899999 -0.015011257274600176
v 0.35930600388399991 0.30826547113899999 -0.01961850296390022
v 0.35930600388399991 0.30826547113899999 -0.048983484703500224
v 0.35930600388399991 0.30826547113899999 -0.053589827188500028
v 0.35930600388399991 0.30826547113899999 -0.082954808928199952
v 0.35930600388399991 0.30826547113899999 -0.087562054617499996
v 0.35930600388399991 0.30826547113899999 -0.11692703635700008
v 0.35930600388399991 0.30826547113899999 -0.12153428204599992
v 0.35930600388399991 0.30826547113899999 -0.15089926378600005
v 0.35930600388399991 0.30826547113899999 -0.15550650947499989
v 0.35930600388399991 0.30826547113899999 -0.18487149121399993
v 0.35930600388399991 0.30826547113899999 -0.18947873690399986
v 0.35930600388399991 0.30826547113899999 -0.21884398960499984
v 0.35930600388399991 0.30826547113899999 -0.22345123529400013
v 0.35930600388399991 0.30826547113899999 -0.25281621703399981
v 0.35930600388399991 0.30826547113899999 -0.25742337240300017
v 0.359870506639 0.30826547113899999 -0.27210586327199993
v 0.35402135488700015 0.30826547113899999 -0.27210586327199993
v 0.35458585764299988 0.30826547113899999 -0.25742337240300017
v 0.35402135488700015 0.30826547113899999 0.27144905302700018
v 0.35458585764299988 0.30826547113899999 -0.25281621703399981
v 0.35458585764299988 0.30826547113899999 -0.22345123529400013
v 0.35458585764299988 0.30826547113899999 -0.21884398960499984
v 0.35458585764299988 0.30826547113899999 -0.18947873690399986
v 0.35458585764299988 0.30826547113899999 -0.18487149121399993
v 0.35458585764299988 0.30826547113899999 -0.15550650947499989
v 0.35458585764299988 0.30826547113899999 -0.15089926378600005
v 0.35458585764299988 0.30826547113899999 -0.12153428204599992
v 0.35458585764299988 0.30826547113899999 -0.11692703635700008
v 0.35458585764299988 0.30826547113899999 -0.087562054617499996
v 0.35458585764299988 0.30826547113899999 -0.082954808928199952
v 0.35458585764299988 0.30826547113899999 -0.053589827188500028
v 0.35458585764299988 0.30826547113899999 -0.048983484703500224
v 0.35458585764299988 0.30826547113899999 -0.01961850296390022
v 0.35458585764299988 0.30826547113899999 -0.015011257274600176
v 0.35458585764299988 0.30826547113899999 0.014353724464999829
v 0.35458585764299988 0.30826547113899999 0.018960970154399792
v 0.35458585764299988 0.30826547113899999 0.048325951893899877
v 0.35458585764299988 0.30826547113899999 0.05293319758329984
v 0.35458585764299988 0.30826547113899999 0.082298179323000209
v 0.35458585764299988 0.30826547113899999 0.086905425012299808
v 0.35458585764299988 0.30826547113899999 0.11627040675200018
v 0.35458585764299988 0.30826547113899999 0.12087765244100002
v 0.35458585764299988 0.30826547113899999 0.15024263418100015
v 0.35458585764299988 0.30826547113899999 0.15484987986999998
v 0.35458585764299988 0.30826547113899999 0.18421486160900002
v 0.35930600388399991 0.30826547113899999 0.18421486160900002
v 0.35930600388399991 0.30826547113899999 0.18882210729899995
v 0.35930600388399991 0.30826547113899999 0.21818708903900008
v 0.35930600388399991 0.30826547113899999 0.22279433472799992
v 0.35930600388399991 0.30826547113899999 0.25215931646800005
v 0.35930600388399991 0.30826547113899999 0.25676656215699989
v 0.35458585764299988 0.30826547113899999 0.25676656215699989
v 0.35458585764299988 0.30826547113899999 0.25215931646800005
v 0.35458585764299988 0.30826547113899999 0.22279433472799992
v 0.35458585764299988 0.30826547113899999 0.21818708903900008
v 0.35458585764299988 0.30826547113899999 0.18882210729899995
v 0.35289234937699998 0.12210420402859999 0.27144905302700018
v 0.35402135488700015 0.12210420402859999 -0.27210586327199993
v 0.35289234937699998 0.12210420402859999 -0.27210586327199993
v 0.35648981253700018 0.12210420402859999 -0.26779821048500008
v 0.35648981253700018 0.12210420402859999 0.26714167120100019
v 0.35402135488700015 0.12210420402859999 0.27144905302700018
v 0.35402135488700015 0.12210420402859999 0.27144905302700018
v 0.35648981253700018 0.28815201215899999 0.26714167120100019
v 0.35402135488700015 0.29245939398479998 0.27144905302700018
v 0.35648981253700018 0.12210420402859999 0.26714167120100019
v 0.35648981253700018 0.28815201215899999 -0.26779821048500008
v 0.35648981253700018 0.28815201215899999 0.26714167120100019
v 0.35648981253700018 0.12210420402859999 -0.26779821048500008
v 0.35648981253700018 0.12210420402859999 -0.26779821048500008
v 0.35402135488700015 0.29245939398479998 -0.27210586327199993
v 0.35648981253700018 0.28815201215899999 -0.26779821048500008
v 0.359870506639 0.043531833212999999 0.27144905302700018
v 0.359870506639 0.29245939398479998 -0.27210586327199993
v 0.359870506639 0.29245939398479998 0.27144905302700018
v 0.359870506639 0.043531833212999999 -0.27210586327199993
v 0.35402135488700015 0.29245939398479998 0.27144905302700018
v 0.35402135488700015 0.29245939398479998 -0.27210586327199993
v 0.359870506639 0.30826547113899999 -0.27210586327199993
v 0.35648981253700018 0.28815201215899999 0.26714167120100019
v 0.35458585764299988 0.30826547113899999 0.15484987986999998
v 0.35458585764299988 0.30826547113899999 0.15024263418100015
v 0.35694593076349967 0.30826547113899999 0.15254625702550006
v 0.35930600388399991 0.30826547113899999 0.15484987986999998
v 0.35930600388399991 0.30826547113899999 0.15024263418100015
v 0.35458585764299988 0.30826547113899999 0.18882210729899995
v 0.35458585764299988 0.30826547113899999 0.18421486160900002
v 0.35694593076349967 0.30826547113899999 0.18651848445399999
v 0.35930600388399991 0.30826547113899999 0.18882210729899995
v 0.35930600388399991 0.30826547113899999 0.18421486160900002
v 0.35458585764299988 0.30826547113899999 0.22279433472799992
v 0.35458585764299988 0.30826547113899999 0.21818708903900008
v 0.35694593076349967 0.30826547113899999 0.2204907118835
v 0.35930600388399991 0.30826547113899999 0.22279433472799992
v 0.35930600388399991 0.30826547113899999 0.21818708903900008
v 0.35458585764299988 0.30826547113899999 0.25676656215699989
v 0.35458585764299988 0.30826547113899999 0.25215931646800005
v 0.35694593076349967 0.30826547113899999 0.25446293931249997
v 0.35930600388399991 0.30826547113899999 0.25676656215699989
v 0.35930600388399991 0.30826547113899999 0.25215931646800005
v 0.35458585764299988 0.30826547113899999 0.12087765244100002
v 0.35458585764299988 0.30826547113899999 0.11627040675200018
v 0.35694593076349967 0.30826547113899999 0.1185740295965001
v 0.35930600388399991 0.30826547113899999 0.12087765244100002
v 0.35930600388399991 0.30826547113899999 0.11627040675200018
v 0.35458585764299988 0.30826547113899999 0.086905425012299808
v 0.35458585764299988 0.30826547113899999 0.082298179323000209
v 0.35694593076349967 0.30826547113899999 0.084601802167649787
v 0.35930600388399991 0.30826547113899999 0.086905425012299808
v 0.35930600388399991 0.30826547113899999 0.082298179323000209
v 0.35458585764299988 0.30826547113899999 0.05293319758329984
v 0.35458585764299988 0.30826547113899999 0.048325951893899877
v 0.35694593076349967 0.30826547113899999 0.050629574738599636
v 0.35930600388399991 0.30826547113899999 0.05293319758329984
v 0.35930600388399991 0.30826547113899999 0.048325951893899877
v 0.35458585764299988 0.30826547113899999 0.018960970154399792
v 0.35458585764299988 0.30826547113899999 0.014353724464999829
v 0.35694593076349967 0.30826547113899999 0.016657347309699588
v 0.35930600388399991 0.30826547113899999 0.018960970154399792
v 0.35930600388399991 0.30826547113899999 0.014353724464999829
v 0.35458585764299988 0.30826547113899999 -0.015011257274600176
v 0.35458585764299988 0.30826547113899999 -0.01961850296390022
v 0.35694593076349967 0.30826547113899999 -0.017314880119250198
v 0.35930600388399991 0.30826547113899999 -0.015011257274600176
v 0.35930600388399991 0.30826547113899999 -0.01961850296390022
v 0.35458585764299988 0.30826547113899999 -0.048983484703500224
v 0.35458585764299988 0.30826547113899999 -0.053589827188500028
v 0.35694593076349967 0.30826547113899999 -0.051286655945999904
v 0.35930600388399991 0.30826547113899999 -0.048983484703500224
v 0.35930600388399991 0.30826547113899999 -0.053589827188500028
v 0.35458585764299988 0.30826547113899999 -0.082954808928199952
v 0.35458585764299988 0.30826547113899999 -0.087562054617499996
v 0.35694593076349967 0.30826547113899999 -0.085258431772849974
v 0.35930600388399991 0.30826547113899999 -0.082954808928199952
v 0.35930600388399991 0.30826547113899999 -0.087562054617499996
v 0.35458585764299988 0.30826547113899999 -0.11692703635700008
v 0.35458585764299988 0.30826547113899999 -0.12153428204599992
v 0.35694593076349967 0.30826547113899999 -0.1192306592015
v 0.35930600388399991 0.30826547113899999 -0.11692703635700008
v 0.35930600388399991 0.30826547113899999 -0.12153428204599992
v 0.35458585764299988 0.30826547113899999 -0.15089926378600005
v 0.35458585764299988 0.30826547113899999 -0.15550650947499989
v 0.35694593076349967 0.30826547113899999 -0.15320288663049997
v 0.35930600388399991 0.30826547113899999 -0.15089926378600005
v 0.35930600388399991 0.30826547113899999 -0.15550650947499989
v 0.35458585764299988 0.30826547113899999 -0.18487149121399993
v 0.35458585764299988 0.30826547113899999 -0.18947873690399986
v 0.35694593076349967 0.30826547113899999 -0.18717511405899989
v 0.35930600388399991 0.30826547113899999 -0.18487149121399993
v 0.35930600388399991 0.30826547113899999 -0.18947873690399986
v 0.35458585764299988 0.30826547113899999 -0.21884398960499984
v 0.35458585764299988 0.30826547113899999 -0.22345123529400013
v 0.35694593076349967 0.30826547113899999 -0.22114761244950021
v 0.35930600388399991 0.30826547113899999 -0.21884398960499984
v 0.35930600388399991 0.30826547113899999 -0.22345123529400013
v 0.35458585764299988 0.30826547113899999 -0.25281621703399981
v 0.35458585764299988 0.30826547113899999 -0.25742337240300017
v 0.35694593076349967 0.30826547113899999 -0.25511979471849999
v 0.35930600388399991 0.30826547113899999 -0.25281621703399981
v 0.35930600388399991 0.30826547113899999 -0.25742337240300017
v 0.359870506639 0.30826547113899999 0.27144905302700018
v 0.35402135488700015 0.30826547113899999 0.27144905302700018
v 0.35402135488700015 0.30826547113899999 -0.27210586327199993
v 0.35402135488700015 0.12210420402859999 -0.27210586327199993
v 0.35648981253700018 0.12210420402859999 0.26714167120100019
v 0.35648981253700018 0.28815201215899999 0.26714167120100019
v 0.35402135488700015 0.29245939398479998 0.27144905302700018
v 0.35402135488700015 0.29245939398479998 -0.27210586327199993
v 0.35648981253700018 0.28815201215899999 -0.26779821048500008
v 0.35402135488700015 0.29245939398479998 -0.27210586327199993
vt 0.64536201953887939 2.8929500579833984
vt -0.47293698787689209 2.8981599807739258
vt 0.60285401344299316 2.8929500579833984
vt 0.91629499197006226 2.8929500579833984
vt 0.95880299806594849 2.8929500579833984
vt 1.2297400236129761 2.8929500579833984
vt 1.2722400426864624 2.8929500579833984
vt 1.543179988861084 2.8929500579833984
vt 1.5856900215148926 2.8929500579833984
vt 1.8566199541091919 2.8929500579833984
vt 1.8991299867630005 2.8929500579833984
vt 2.1700599193572998 2.8929500579833984
vt 2.2125699520111084 2.8929500579833984
vt 2.4835000038146973 2.8929500579833984
vt 2.5260100364685059 2.8929500579833984
vt 2.7969400882720947 2.8929500579833984
vt 2.8394498825073242 2.8929500579833984
vt 3.1103799343109131 2.8929500579833984
vt 3.1528899669647217 2.8929500579833984
vt 3.4238300323486328 2.8929500579833984
vt 3.4663300514221191 2.8929500579833984
vt 3.7372701168060303 2.8929500579833984
vt 3.7797799110412598 2.8929500579833984
vt 4.0507102012634277 2.8929500579833984
vt 4.0932202339172363 2.8929500579833984
vt 4.3641500473022461 2.8929500579833984
vt 4.4066600799560547 2.8929500579833984
vt 4.5421199798583984 2.8981599807739258
vt 4.5421199798583984 2.8441898822784424
vt 4.4066600799560547 2.8494000434875488
vt -0.47293698787689209 2.8441898822784424
vt 4.3641500473022461 2.8494000434875488
vt 4.0932202339172363 2.8494000434875488
vt 4.0507102012634277 2.8494000434875488
vt 3.7797799110412598 2.8494000434875488
vt 3.7372701168060303 2.8494000434875488
vt 3.4663300514221191 2.8494000434875488
vt 3.4238300323486328 2.8494000434875488
vt 3.1528899669647217 2.8494000434875488
vt 3.1103799343109131 2.8494000434875488
vt 2.8394498825073242 2.8494000434875488
vt 2.7969400882720947 2.8494000434875488
vt 2.5260100364685059 2.8494000434875488
vt 2.4835000038146973 2.8494000434875488
vt 2.2125699520111084 2.8494000434875488
vt 2.1700599193572998 2.8494000434875488
vt 1.8991299867630005 2.8494000434875488
vt 1.8566199541091919 2.8494000434875488
vt 1.5856900215148926 2.8494000434875488
vt 1.543179988861084 2.8494000434875488
vt 1.2722400426864624 2.8494000434875488
vt 1.2297400236129761 2.8494000434875488
vt 0.95880299806594849 2.8494000434875488
vt 0.91629499197006226 2.8494000434875488
vt 0.64536201953887939 2.8494000434875488
vt 0.60285401344299316 2.8494000434875488
vt 0.33192101120948792 2.8494000434875488
vt 0.33192101120948792 2.8929500579833984
vt 0.2894119918346405 2.8929500579833984
vt 0.018479200080037117 2.8929500579833984
vt -0.024028899148106575 2.8929500579833984
vt -0.29496198892593384 2.8929500579833984
vt -0.33746999502182007 2.8929500579833984
vt -0.33746999502182007 2.8494000434875488
vt -0.29496198892593384 2.8494000434875488
vt -0.024028899148106575 2.8494000434875488
vt 0.018479200080037117 2.8494000434875488
vt 0.2894119918346405 2.8494000434875488
vt -12.203100204467773 1.1265900135040283
vt -7.1880497932434082 1.1161700487136841
vt -7.1880497932434082 1.1265900135040283
vt -7.2277998924255371 1.0934000015258789
vt -12.163399696350098 1.0934000015258789
vt -12.203100204467773 1.1161700487136841
vt -0.47293698787689209 1.1265900135040283
vt -0.42712900042533875 2.6586101055145264
vt -0.47293698787689209 2.6983499526977539
vt -12.179800033569336 1.1265900135040283
vt -7.2442798614501953 2.6586101055145264
vt -12.179800033569336 2.6586101055145264
vt -7.2442798614501953 1.1265900135040283
vt -7.2442798614501953 1.1265900135040283
vt -7.1984701156616211 2.6983499526977539
vt -7.2442798614501953 2.6586101055145264
vt -12.288299560546875 0.40164300799369812
vt -7.2732701301574707 2.6983499526977539
vt -12.288299560546875 2.6983499526977539
vt -7.2732701301574707 0.40164300799369812
vt -0.47293698787689209 2.6983499526977539
vt 4.5421199798583984 2.6983499526977539
vt -7.2732701301574707 2.8441898822784424
vt -0.43319201469421387 2.6525499820709229
vt 1 0
vt 1 1
vt 0.5 0.5
vt 0 0
vt 0 1
vt 0 0
vt 1 0
vt 0.5 0.5
vt 0 1
vt 1 1
vt 1 0
vt 1 1
vt 0.5 0.5
vt 0 0
vt 0 1
vt 1 0
vt 1 1
vt 0.5 0.5
vt 0 0
vt 0 1
vt 0 0
vt 0 1
vt 0.5 0.5
vt 1 0
vt 1 1
vt 0 0
vt 0 1
vt 0.5 0.5
vt 1 0
vt 1 1
vt 0 0
vt 0 1
vt 0.5 0.5
vt 1 0
vt 1 1
vt 0 0
vt 0 1
vt 0.5 0.5
vt 1 0
vt 1 1
vt 0 0
vt 0 1
vt 0.5 0.5
vt 1 0
vt 1 1
vt 0 0
vt 0 1
vt 0.5 0.5
vt 1 0
vt 1 1
vt 0 0
vt 0 1
vt 0.5 0.5
vt 1 0
vt 1 1
vt 0 0
vt 0 1
vt 0.5 0.5
vt 1 0
vt 1 1
vt 0 0
vt 0 1
vt 0.5 0.5
vt 1 0
vt 1 1
vt 0 0
vt 0 1
vt 0.5 0.5
vt 1 0
vt 1 1
vt 0 0
vt 0 1
vt 0.5 0.5
vt 1 0
vt 1 1
vt 0 0
vt 0 1
vt 0.5 0.5
vt 1 0
vt 1 1
vt -0.47293698787689209 2.8981599807739258
vt -0.47293698787689209 2.8441898822784424
vt 4.5421199798583984 2.8441898822784424
vt -7.1880497932434082 1.1161700487136841
vt -12.163399696350098 1.0934000015258789
vt -0.42712900042533875 2.6586101055145264
vt -0.47293698787689209 2.6983499526977539
vt -7.1984701156616211 2.6983499526977539
vt -7.2442798614501953 2.6586101055145264
vt 4.5421199798583984 2.6983499526977539
vn 0 -1 0
vn -1 0 0
vn 0 -1 0
vn 0 -1 0
vn 0 -1 0
vn 0 -1 0
vn 0 -1 0
vn 0 -1 0
vn 0 -1 0
vn 0 -1 0
vn 0 -1 0
vn 0 -1 0
vn 0 -1 0
vn 0 -1 0
vn 0 -1 0
vn 0 -1 0
vn 0 -1 0
vn 0 -1 0
vn 0 -1 0
vn 0 -1 0
vn 0 -1 0
vn 0 -1 0
vn 0 -1 0
vn 0 -1 0
vn 0 -1 0
vn 0 -1 0
vn 0 -1 0
vn 0 -1 0
vn 1 0 0
vn 0 -1 0
vn 1 0 0
vn 0 -1 0
vn 0 -1 0
vn 0 -1 0
vn 0 -1 0
vn 0 -1 0
vn 0 -1 0
vn 0 -1 0
vn 0 -1 0
vn 0 -1 0
vn 0 -1 0
vn 0 -1 0
vn 0 -1 0
vn 0 -1 0
vn 0 -1 0
vn 0 -1 0
vn 0 -1 0
vn 0 -1 0
vn 0 -1 0
vn 0 -1 0
vn 0 -1 0
vn 0 -1 0
vn 0 -1 0
vn 0 -1 0
vn 0 -1 0
vn 0 -1 0
vn 0 -1 0
vn 0 -1 0
vn 0 -1 0
vn 0 -1 0
vn 0 -1 0
vn 0 -1 0
vn 0 -1 0
vn 0 -1 0
vn 0 -1 0
vn 0 -1 0
vn 0 -1 0
vn 0 -1 0
vn 0 -1 0
vn 0.86764019727706909 0 -0.49719259142875671
vn 0 -1 0
vn 0 -1 0
vn 0.86762672662734985 0 0.49721613526344299
vn 0 -1 0
vn 0.86762672662734985 0 0.49721613526344299
vn 0.86762672662734985 0 0.49721613526344299
vn 0.86762672662734985 0 0.49721613526344299
vn 1 0 0
vn 1 0 0
vn 1 0 0
vn 1 0 0
vn 0.86764019727706909 0 -0.49719259142875671
vn 0.86764019727706909 0 -0.49719259142875671
vn 0.86764019727706909 0 -0.49719259142875671
vn -1 0 0
vn -1 0 0
vn -1 0 0
vn -1 0 0
vn 1 0 0
vn 1 0 0
vn -1 0 0
vn 0.86762672662734985 0.49721613526344299 0
vn 0 -1 0
vn 0 -1 0
vn 0 -1 0
vn 0 -1 0
vn 0 -1 0
vn 0 -1 0
vn 0 -1 0
vn 0 -1 0
vn 0 -1 0
vn 0 -1 0
vn 0 -1 0
vn 0 -1 0
vn 0 -1 0
vn 0 -1 0
vn 0 -1 0
vn 0 -1 0
vn 0 -1 0
vn 0 -1 0
vn 0 -1 0
vn 0 -1 0
vn 0 -1 0
vn 0 -1 0
vn 0 -1 0
vn 0 -1 0
vn 0 -1 0
vn 0 -1 0
vn 0 -1 0
vn 0 -1 0
vn 0 -1 0
vn 0 -1 0
vn 0 -1 0
vn 0 -1 0
vn 0 -1 0
vn 0 -1 0
vn 0 -1 0
vn 0 -1 0
vn 0 -1 0
vn 0 -1 0
vn 0 -1 0
vn 0 -1 0
vn 0 -1 0
vn 0 -1 0
vn 0 -1 0
vn 0 -1 0
vn 0 -1 0
vn 0 -1 0
vn 0 -1 0
vn 0 -1 0
vn 0 -1 0
vn 0 -1 0
vn 0 -1 0
vn 0 -1 0
vn 0 -1 0
vn 0 -1 0
vn 0 -1 0
vn 0 -1 0
vn 0 -1 0
vn 0 -1 0
vn 0 -1 0
vn 0 -1 0
vn 0 -1 0
vn 0 -1 0
vn 0 -1 0
vn 0 -1 0
vn 0 -1 0
vn 0 -1 0
vn 0 -1 0
vn 0 -1 0
vn 0 -1 0
vn 0 -1 0
vn 0 -1 0
vn 0 -1 0
vn 0 -1 0
vn 0 -1 0
vn 0 -1 0
vn 0 -1 0
vn 0 -1 0
vn 0 -1 0
vn 0 -1 0
vn 0 -1 0
vn 0 -1 0
vn 0 -1 0
vn 0 -1 0
vn 0 -1 0
vn 0 -1 0
vn 0.86762672662734985 0 0.49721613526344299
vn 0.86762672662734985 0 0.49721613526344299
vn 0.86764019727706909 0 -0.49719259142875671
vn 0.86764019727706909 0 -0.49719259142875671
vn 1 0 0
f 1/1/1 173/173/173 3/3/3
f 4/4/4 173/173/173 1/1/1
f 5/5/5 173/173/173 4/4/4
f 6/6/6 173/173/173 5/5/5
f 7/7/7 173/173/173 6/6/6
f 8/8/8 173/173/173 7/7/7
f 9/9/9 173/173/173 8/8/8
f 10/10/10 173/173/173 9/9/9
f 11/11/11 173/173/173 10/10/10
f 12/12/12 173/173/173 11/11/11
f 13/13/13 173/173/173 12/12/12
f 14/14/14 173/173/173 13/13/13
f 15/15/15 173/173/173 14/14/14
f 16/16/16 173/173/173 15/15/15
f 17/17/17 173/173/173 16/16/16
f 18/18/18 173/173/173 17/17/17
f 19/19/19 173/173/173 18/18/18
f 20/20/20 173/173/173 19/19/19
f 21/21/21 173/173/173 20/20/20
f 22/22/22 173/173/173 21/21/21
f 23/23/23 173/173/173 22/22/22
f 24/24/24 173/173/173 23/23/23
f 25/25/25 173/173/173 24/24/24
f 26/26/26 173/173/173 25/25/25
f 27/27/27 173/173/173 26/26/26
f 27/27/27 28/28/28 173/173/173
f 28/28/28 27/27/27 175/175/175
f 30/30/30 175/175/175 27/27/27
f 175/175/175 30/30/30 174/174/174
f 174/174/174 30/30/30 32/32/32
f 26/26/26 25/25/25 32/32/32
f 33/33/33 32/32/32 25/25/25
f 174/174/174 32/32/32 33/33/33
f 174/174/174 33/33/33 34/34/34
f 24/24/24 23/23/23 34/34/34
f 35/35/35 34/34/34 23/23/23
f 174/174/174 34/34/34 35/35/35
f 174/174/174 35/35/35 36/36/36
f 22/22/22 21/21/21 36/36/36
f 37/37/37 36/36/36 21/21/21
f 174/174/174 36/36/36 37/37/37
f 174/174/174 37/37/37 38/38/38
f 20/20/20 19/19/19 38/38/38
f 39/39/39 38/38/38 19/19/19
f 174/174/174 38/38/38 39/39/39
f 174/174/174 39/39/39 40/40/40
f 18/18/18 17/17/17 40/40/40
f 41/41/41 40/40/40 17/17/17
f 174/174/174 40/40/40 41/41/41
f 174/174/174 41/41/41 42/42/42
f 16/16/16 15/15/15 42/42/42
f 43/43/43 42/42/42 15/15/15
f 174/174/174 42/42/42 43/43/43
f 174/174/174 43/43/43 44/44/44
f 14/14/14 13/13/13 44/44/44
f 45/45/45 44/44/44 13/13/13
f 174/174/174 44/44/44 45/45/45
f 174/174/174 45/45/45 46/46/46
f 12/12/12 11/11/11 46/46/46
f 47/47/47 46/46/46 11/11/11
f 174/174/174 46/46/46 47/47/47
f 174/174/174 47/47/47 48/48/48
f 10/10/10 9/9/9 48/48/48
f 49/49/49 48/48/48 9/9/9
f 174/174/174 48/48/48 49/49/49
f 174/174/174 49/49/49 50/50/50
f 8/8/8 7/7/7 50/50/50
f 51/51/51 50/50/50 7/7/7
f 174/174/174 50/50/50 51/51/51
f 174/174/174 51/51/51 52/52/52
f 6/6/6 5/5/5 52/52/52
f 53/53/53 52/52/52 5/5/5
f 174/174/174 52/52/52 53/53/53
f 174/174/174 53/53/53 54/54/54
f 4/4/4 1/1/1 54/54/54
f 55/55/55 54/54/54 1/1/1
f 174/174/174 54/54/54 55/55/55
f 174/174/174 55/55/55 56/56/56
f 174/174/174 56/56/56 57/57/57
f 57/57/57 56/56/56 58/58/58
f 3/3/3 58/58/58 56/56/56
f 3/3/3 173/173/173 58/58/58
f 58/58/58 173/173/173 59/59/59
f 59/59/59 173/173/173 60/60/60
f 60/60/60 173/173/173 61/61/61
f 61/61/61 173/173/173 62/62/62
f 62/62/62 173/173/173 63/63/63
f 63/63/63 173/173/173 64/64/64
f 174/174/174 64/64/64 173/173/173
f 174/174/174 65/65/65 64/64/64
f 174/174/174 66/66/66 65/65/65
f 174/174/174 67/67/67 66/66/66
f 174/174/174 68/68/68 67/67/67
f 174/174/174 57/57/57 68/68/68
f 59/59/59 60/60/60 68/68/68
f 67/67/67 68/68/68 60/60/60
f 61/61/61 62/62/62 66/66/66
f 65/65/65 66/66/66 62/62/62
f 69/69/69 71/71/71 176/176/176
f 176/176/176 72/72/72 69/69/69
f 72/72/72 177/177/177 69/69/69
f 177/177/177 74/74/74 69/69/69
f 75/75/75 178/178/178 179/179/179
f 178/178/178 75/75/75 73/73/73
f 78/78/78 79/79/79 80/80/80
f 79/79/79 78/78/78 81/81/81
f 82/82/82 180/180/180 181/181/181
f 180/180/180 82/82/82 70/70/70
f 85/85/85 87/87/87 86/86/86
f 86/86/86 88/88/88 85/85/85
f 29/29/29 89/89/89 182/182/182
f 89/89/89 29/29/29 31/31/31
f 87/87/87 2/2/2 91/91/91
f 91/91/91 86/86/86 87/87/87
f 76/76/76 90/90/90 77/77/77
f 83/83/83 92/92/92 84/84/84
f 95/95/95 97/97/97 96/96/96
f 94/94/94 95/95/95 93/93/93
f 96/96/96 93/93/93 95/95/95
f 97/97/97 95/95/95 94/94/94
f 100/100/100 101/101/101 98/98/98
f 102/102/102 100/100/100 99/99/99
f 98/98/98 99/99/99 100/100/100
f 101/101/101 100/100/100 102/102/102
f 105/105/105 107/107/107 106/106/106
f 104/104/104 105/105/105 103/103/103
f 106/106/106 103/103/103 105/105/105
f 107/107/107 105/105/105 104/104/104
f 110/110/110 112/112/112 111/111/111
f 109/109/109 110/110/110 108/108/108
f 111/111/111 108/108/108 110/110/110
f 112/112/112 110/110/110 109/109/109
f 115/115/115 113/113/113 114/114/114
f 117/117/117 116/116/116 115/115/115
f 113/113/113 115/115/115 116/116/116
f 114/114/114 117/117/117 115/115/115
f 120/120/120 118/118/118 119/119/119
f 122/122/122 121/121/121 120/120/120
f 118/118/118 120/120/120 121/121/121
f 119/119/119 122/122/122 120/120/120
f 125/125/125 123/123/123 124/124/124
f 127/127/127 126/126/126 125/125/125
f 123/123/123 125/125/125 126/126/126
f 124/124/124 127/127/127 125/125/125
f 130/130/130 128/128/128 129/129/129
f 132/132/132 131/131/131 130/130/130
f 128/128/128 130/130/130 131/131/131
f 129/129/129 132/132/132 130/130/130
f 135/135/135 133/133/133 134/134/134
f 137/137/137 136/136/136 135/135/135
f 133/133/133 135/135/135 136/136/136
f 134/134/134 137/137/137 135/135/135
f 140/140/140 138/138/138 139/139/139
f 142/142/142 141/141/141 140/140/140
f 138/138/138 140/140/140 141/141/141
f 139/139/139 142/142/142 140/140/140
f 145/145/145 143/143/143 144/144/144
f 147/147/147 146/146/146 145/145/145
f 143/143/143 145/145/145 146/146/146
f 144/144/144 147/147/147 145/145/145
f 150/150/150 148/148/148 149/149/149
f 152/152/152 151/151/151 150/150/150
f 148/148/148 150/150/150 151/151/151
f 149/149/149 152/152/152 150/150/150
f 155/155/155 153/153/153 154/154/154
f 157/157/157 156/156/156 155/155/155
f 153/153/153 155/155/155 156/156/156
f 154/154/154 157/157/157 155/155/155
f 160/160/160 158/158/158 159/159/159
f 162/162/162 161/161/161 160/160/160
f 158/158/158 160/160/160 161/161/161
f 159/159/159 162/162/162 160/160/160
f 165/165/165 163/163/163 164/164/164
f 167/167/167 166/166/166 165/165/165
f 163/163/163 165/165/165 166/166/166
f 164/164/164 167/167/167 165/165/165
f 170/170/170 168/168/168 169/169/169
f 172/172/172 171/171/171 170/170/170
f 168/168/168 170/170/170 171/171/171
f 169/169/169 172/172/172 170/170/170
