# Rhino

mtllib BedSet_06_03.mtl
usemtl Default
v 0.41757879419199995 0.081565168520499984 0.19317928943399998
v 0.41092480910200013 0.1287867539061 0.19317928943399998
v 0.41757879419199995 0.1287867539061 0.19317928943399998
v 0.41092480910200013 0.081565168520499984 0.19317928943399998
v 0.42071225909799992 0 0.19317928943399998
v 0.40783341542200002 0.081565168520499984 0.19317928943399998
v 0.40783341542200002 0 0.19317928943399998
v 0.42071225909799992 0 0.19317928943399998
v 0.40783341542200002 0 0.21035108100199995
v 0.40783341542200002 0 0.19317928943399998
v 0.42071225909799992 0 0.21035108100199995
v 0.42071225909799992 0 0.19317928943399998
v 0.42071225909799992 0.33913699348299997 0.21035108100199995
v 0.42071225909799992 0 0.21035108100199995
v 0.42071225909799992 0.33913699348299997 0.19317928943399998
v 0.42071225909799992 0.31767309544900002 0.19317928943399998
v 0.40783341542200002 0.17415047395556998 0.19317928943399998
v 0.40783341542200002 0.1287774982364 0.19317928943399998
v 0.40783341542200002 0.1287774982364 0.19631275434000006
v 0.40783341542200002 0.33913699348299997 0.19317928943399998
v 0.40783341542200002 0.081565168520499984 0.19631275434000006
v 0.40783341542200002 0.1287774982364 0.20725968732200006
v 0.40783341542200002 0.33913699348299997 0.21035108100199995
v 0.40783341542200002 0 0.21035108100199995
v 0.40783341542200002 0.081565168520499984 0.20725968732200006
v 0.40783341542200002 0 0.19317928943399998
v 0.40783341542200002 0.33913699348299997 0.19317928943399998
v 0.42071225909799992 0.33484488701600001 0.19317928943399998
v 0.40783341542200002 0.33484488701600001 0.19317928943399998
v 0.42071225909799992 0.33913699348299997 0.19317928943399998
v 0.40783341542200002 0.33913699348299997 0.19317928943399998
v 0.42071225909799992 0.33913699348299997 0.21035108100199995
v 0.42071225909799992 0.33913699348299997 0.19317928943399998
v 0.40783341542200002 0.33913699348299997 0.21035108100199995
v 0.40783341542200002 0 0.21035108100199995
v 0.42071225909799992 0.33913699348299997 0.21035108100199995
v 0.40783341542200002 0.33913699348299997 0.21035108100199995
v 0.42071225909799992 0 0.21035108100199995
v 0.42071225909799992 0.33484488701600001 0.19317928943399998
v 0.40783341542200002 0.31767309544900002 0.19317928943399998
v 0.42071225909799992 0.31767309544900002 0.19317928943399998
v 0.40783341542200002 0.33484488701600001 0.19317928943399998
v 0.40783341542200002 0.17599908362205 0.19317928943399998
v 0.40783341542200002 0.31767309544900002 0.19317928943399998
v 0.40783341542200002 0.081565168520499984 0.19317928943399998
v 0.40783341542200002 0.1287774982364 0.19317928943399998
v 0.41092480910200013 0.081565168520499984 0.19317928943399998
v 0.41092480910200013 0.1287867539061 0.19317928943399998
v 0.40783341542200002 0.081565168520499984 0.20725968732200006
v 0.40783341542200002 0.1287774982364 0.20725968732200006
v 0.40783341542200002 0.10517133337845 0.20178622083100006
v 0.40783341542200002 0.081565168520499984 0.19631275434000006
v 0.40783341542200002 0.1287774982364 0.19631275434000006
vt -3.4128999710083008 -0.45109999179840088
vt -3.4077999591827393 -0.36090001463890076
vt -3.4128999710083008 -0.36090001463890076
vt -3.4077999591827393 -0.45109999179840088
vt -3.4152998924255371 -0.60699999332427979
vt -3.4054000377655029 -0.45109999179840088
vt -3.4054000377655029 -0.60699999332427979
vt -3.4152998924255371 -9.7058000564575195
vt -3.4054000377655029 -9.7385997772216797
vt -3.4054000377655029 -9.7058000564575195
vt -3.4152998924255371 -9.7385997772216797
vt -3.8822999000549316 -0.60699999332427979
vt -3.8954999446868896 0.041000001132488251
vt -3.8954999446868896 -0.60699999332427979
vt -3.8822999000549316 0.041000001132488251
vt -3.4152998924255371 0
vt -3.4054000377655029 -0.27419999241828918
vt -3.4054000377655029 -0.36090001463890076
vt 3.8847000598907471 -0.36090001463890076
vt 3.8822999000549316 0.041000001132488251
vt 3.8847000598907471 -0.45109999179840088
vt 3.8931000232696533 -0.36090001463890076
vt 3.8954999446868896 0.041000001132488251
vt 3.8954999446868896 -0.60699999332427979
vt 3.8931000232696533 -0.45109999179840088
vt 3.8822999000549316 -0.60699999332427979
vt -3.4054000377655029 0.041000001132488251
vt -3.4152998924255371 0.032800000160932541
vt -3.4054000377655029 0.032800000160932541
vt -3.4152998924255371 0.041000001132488251
vt 3.4054000377655029 -9.7058000564575195
vt 3.4152998924255371 -9.7385997772216797
vt 3.4152998924255371 -9.7058000564575195
vt 3.4054000377655029 -9.7385997772216797
vt 3.4054000377655029 -0.60699999332427979
vt 3.4152998924255371 0.041000001132488251
vt 3.4054000377655029 0.041000001132488251
vt 3.4152998924255371 -0.60699999332427979
vt 3.4152998924255371 0.032800000160932541
vt 3.4054000377655029 0
vt 3.4152998924255371 0
vt 3.4054000377655029 0.032800000160932541
vt -3.4054000377655029 -0.27070000767707825
vt -3.4054000377655029 0
vt 1 0.75949198007583618
vt 1 0.62027883529663086
vt 0.68278360366821289 0.75949198007583618
vt 0.68278360366821289 0.62025153636932373
vt 0 0
vt 1 0
vt 0.5 0.5
vt 0 1
vt 1 1
vn 0 0 -1
vn 0 0 -1
vn 0 0 -1
vn 0 0 -1
vn 0 0 -1
vn 0 0 -1
vn 0 0 -1
vn 0 -1 0
vn 0 -1 0
vn 0 -1 0
vn 0 -1 0
vn 1 0 0
vn 1 0 0
vn 1 0 0
vn 1 0 0
vn 0 0 -1
vn 0 0 -1
vn 0 0 -1
vn -1 0 0
vn -1 0 0
vn -1 0 0
vn -1 0 0
vn -1 0 0
vn -1 0 0
vn -1 0 0
vn -1 0 0
vn 0 0 -1
vn 0 0 -1
vn 0 0 -1
vn 0 0 -1
vn 0 1 0
vn 0 1 0
vn 0 1 0
vn 0 1 0
vn 0 0 1
vn 0 0 1
vn 0 0 1
vn 0 0 1
vn 0 0 -1
vn 0 0 -1
vn 0 0 -1
vn 0 0 -1
vn 0 0 -1
vn 0 0 -1
vn 0 0 -1
vn 0 0 -1
vn 0 0 -1
vn 0 0 -1
vn -1 0 0
vn -1 0 0
vn -1 0 0
vn -1 0 0
vn -1 0 0
f 1/1/1 2/2/2 3/3/3
f 2/2/2 1/1/1 4/4/4
f 5/5/5 6/6/6 1/1/1
f 6/6/6 5/5/5 7/7/7
f 8/8/8 9/9/9 10/10/10
f 9/9/9 8/8/8 11/11/11
f 12/12/12 13/13/13 14/14/14
f 13/13/13 12/12/12 15/15/15
f 5/5/5 1/1/1 16/16/16
f 16/16/16 1/1/1 3/3/3
f 16/16/16 3/3/3 17/17/17
f 2/2/2 17/17/17 3/3/3
f 17/17/17 2/2/2 18/18/18
f 19/19/19 20/20/20 21/21/21
f 22/22/22 20/20/20 19/19/19
f 22/22/22 23/23/23 20/20/20
f 23/23/23 22/22/22 24/24/24
f 25/25/25 24/24/24 22/22/22
f 24/24/24 25/25/25 26/26/26
f 26/26/26 25/25/25 21/21/21
f 26/26/26 21/21/21 20/20/20
f 27/27/27 28/28/28 29/29/29
f 28/28/28 27/27/27 30/30/30
f 31/31/31 32/32/32 33/33/33
f 32/32/32 31/31/31 34/34/34
f 35/35/35 36/36/36 37/37/37
f 36/36/36 35/35/35 38/38/38
f 39/39/39 41/41/41 40/40/40
f 40/40/40 42/42/42 39/39/39
f 16/16/16 43/43/43 44/44/44
f 16/16/16 17/17/17 43/43/43
f 45/45/45 46/46/46 48/48/48 47/47/47
f 51/51/51 52/52/52 49/49/49
f 53/53/53 51/51/51 50/50/50
f 49/49/49 50/50/50 51/51/51
f 52/52/52 51/51/51 53/53/53
