# Rhino

mtllib BedSet_05_05.mtl
usemtl Default
v 0.36327410041499997 0.0899193317858 -0.0071935465428598633
v 0.36327410041499997 0.082725785242999991 -0.28594347507799966
v 0.36327410041499997 0.0899193317858 0.0071935465428598633
v 0.36327410041499997 0.1186935179572 -0.28594347507799966
v 0.36327410041499997 0.097112878328699997 -0.0071935465428598633
v 0.36327410041499997 0.1186935179572 0.28594347507799966
v 0.36327410041499997 0.097112878328699997 0.0071935465428598633
v 0.36327410041499997 0.082725785242999991 0.28594347507799966
v 0.36327410041499997 0.082725785242999991 -0.28594347507799966
v 0.37046764695799994 0.082725785242999991 0.28594347507799966
v 0.36327410041499997 0.082725785242999991 0.28594347507799966
v 0.37046764695799994 0.082725785242999991 -0.28594347507799966
v 0.36327410041499997 0.1186935179572 -0.13667738431399989
v 0.37046764695799994 0.1186935179572 -0.28594347507799966
v 0.36327410041499997 0.1186935179572 -0.28594347507799966
v 0.36687087368600002 0.1186935179572 -0.13667738431399989
v 0.36327410041499997 0.1186935179572 0.28594347507799966
v 0.36687087368600002 0.1186935179572 0.11869351795700034
v 0.36327410041499997 0.1186935179572 0.11869351795700034
v 0.37046764695799994 0.1186935179572 0.28594347507799966
v 0.36687087368600002 0.1186935179572 0.1079031981429992
v 0.36687087368600002 0.1186935179572 0.10070965160000078
v 0.36687087368600002 0.1186935179572 0.08991933178590017
v 0.36687087368600002 0.1186935179572 0.082725785242800498
v 0.36687087368600002 0.1186935179572 0.071935465428600409
v 0.36687087368600002 0.1186935179572 -0.08991933178590017
v 0.36687087368600002 0.1186935179572 -0.10070965160000078
v 0.36687087368600002 0.1186935179572 -0.1079031981429992
v 0.36687087368600002 0.1186935179572 -0.11869351795700034
v 0.36687087368600002 0.1186935179572 -0.12588706450000053
v 0.37046764695799994 0.082725785242999991 0.28594347507799966
v 0.37046764695799994 0.1186935179572 -0.28594347507799966
v 0.37046764695799994 0.1186935179572 0.28594347507799966
v 0.37046764695799994 0.082725785242999991 -0.28594347507799966
v 0.36327410041499997 0.1186935179572 0.071935465428600409
v 0.36327410041499997 0.1186935179572 -0.08991933178590017
v 0.36687087368600002 0.1186935179572 -0.10070965160000078
v 0.36327410041499997 0.1186935179572 -0.08991933178590017
v 0.36687087368600002 0.1186935179572 -0.08991933178590017
v 0.36327410041499997 0.1186935179572 -0.10070965160000078
v 0.36327410041499997 0.1186935179572 -0.10070965160000078
v 0.36327410041499997 0.1186935179572 -0.1079031981429992
v 0.36687087368600002 0.1186935179572 -0.11869351795700034
v 0.36327410041499997 0.1186935179572 -0.1079031981429992
v 0.36687087368600002 0.1186935179572 -0.1079031981429992
v 0.36327410041499997 0.1186935179572 -0.11869351795700034
v 0.36327410041499997 0.1186935179572 -0.11869351795700034
v 0.36327410041499997 0.1186935179572 -0.12588706450000053
v 0.36687087368600002 0.1186935179572 -0.13667738431399989
v 0.36327410041499997 0.1186935179572 -0.12588706450000053
v 0.36687087368600002 0.1186935179572 -0.12588706450000053
v 0.36327410041499997 0.1186935179572 -0.13667738431399989
v 0.36327410041499997 0.1186935179572 0.08991933178590017
v 0.36327410041499997 0.1186935179572 0.082725785242800498
v 0.36327410041499997 0.1186935179572 0.10070965160000078
v 0.36687087368600002 0.1186935179572 0.08991933178590017
v 0.36327410041499997 0.1186935179572 0.08991933178590017
v 0.36687087368600002 0.1186935179572 0.10070965160000078
v 0.36327410041499997 0.1186935179572 0.1079031981429992
v 0.36327410041499997 0.1186935179572 0.10070965160000078
v 0.36327410041499997 0.1186935179572 0.11869351795700034
v 0.36687087368600002 0.1186935179572 0.1079031981429992
v 0.36327410041499997 0.1186935179572 0.1079031981429992
v 0.36687087368600002 0.1186935179572 0.11869351795700034
v 0.36327410041499997 0.0899193317858 0.0071935465428598633
v 0.36327410041499997 0.097112878328699997 0.0071935465428598633
v 0.36327410041499997 0.093516105057249999 0
v 0.36327410041499997 0.0899193317858 -0.0071935465428598633
v 0.36327410041499997 0.097112878328699997 -0.0071935465428598633
vt 32.086601257324219 9.8425197601318359
vt 1.5748000144958496 9.0551204681396484
vt 33.661399841308594 9.8425197601318359
vt 1.5748000144958496 12.992099761962891
vt 32.086601257324219 10.629899978637695
vt 64.173202514648438 12.992099761962891
vt 33.661399841308594 10.629899978637695
vt 64.173202514648438 9.0551204681396484
vt -1.5748000144958496 80.511802673339844
vt -64.173202514648438 81.299201965332031
vt -64.173202514648438 80.511802673339844
vt -1.5748000144958496 81.299201965332031
vt 17.913400650024414 80.511802673339844
vt 1.5748000144958496 81.299201965332031
vt 1.5748000144958496 80.511802673339844
vt 17.913400650024414 80.905502319335938
vt 64.173202514648438 80.511802673339844
vt 45.866100311279297 80.905502319335938
vt 45.866100311279297 80.511802673339844
vt 64.173202514648438 81.299201965332031
vt 44.685001373291016 80.905502319335938
vt 43.897598266601562 80.905502319335938
vt 42.716499328613281 80.905502319335938
vt 41.929100036621094 80.905502319335938
vt 40.748001098632812 80.905502319335938
vt 23.031499862670898 80.905502319335938
vt 21.850400924682617 80.905502319335938
vt 21.062999725341797 80.905502319335938
vt 19.881900787353516 80.905502319335938
vt 19.094499588012695 80.905502319335938
vt -64.173202514648438 9.0551204681396484
vt -1.5748000144958496 12.992099761962891
vt -64.173202514648438 12.992099761962891
vt -1.5748000144958496 9.0551204681396484
vt 40.748001098632812 80.511802673339844
vt 23.031499862670898 80.511802673339844
vt 21.850400924682617 80.905502319335938
vt 23.031499862670898 80.511802673339844
vt 23.031499862670898 80.905502319335938
vt 21.850400924682617 80.511802673339844
vt 21.850400924682617 80.511802673339844
vt 21.062999725341797 80.511802673339844
vt 19.881900787353516 80.905502319335938
vt 21.062999725341797 80.511802673339844
vt 21.062999725341797 80.905502319335938
vt 19.881900787353516 80.511802673339844
vt 19.881900787353516 80.511802673339844
vt 19.094499588012695 80.511802673339844
vt 17.913400650024414 80.905502319335938
vt 19.094499588012695 80.511802673339844
vt 19.094499588012695 80.905502319335938
vt 17.913400650024414 80.511802673339844
vt 42.716499328613281 80.511802673339844
vt 41.929100036621094 80.511802673339844
vt 43.897598266601562 80.511802673339844
vt 42.716499328613281 80.905502319335938
vt 42.716499328613281 80.511802673339844
vt 43.897598266601562 80.905502319335938
vt 44.685001373291016 80.511802673339844
vt 43.897598266601562 80.511802673339844
vt 45.866100311279297 80.511802673339844
vt 44.685001373291016 80.905502319335938
vt 44.685001373291016 80.511802673339844
vt 45.866100311279297 80.905502319335938
vt 1 1
vt 0 1
vt 0.5 0.5
vt 1 0
vt 0 0
vn -1 0 0
vn -1 0 0
vn -1 0 0
vn -1 0 0
vn -1 0 0
vn -1 0 0
vn -1 0 0
vn -1 0 0
vn 0 -1 0
vn 0 -1 0
vn 0 -1 0
vn 0 -1 0
vn 0 1 0
vn 0 1 0
vn 0 1 0
vn 0 1 0
vn 0 1 0
vn 0 1 0
vn 0 1 0
vn 0 1 0
vn 0 1 0
vn 0 1 0
vn 0 1 0
vn 0 1 0
vn 0 1 0
vn 0 1 0
vn 0 1 0
vn 0 1 0
vn 0 1 0
vn 0 1 0
vn 1 0 0
vn 1 0 0
vn 1 0 0
vn 1 0 0
vn 0 1 0
vn 0 1 0
vn 0 1 0
vn 0 1 0
vn 0 1 0
vn 0 1 0
vn 0 1 0
vn 0 1 0
vn 0 1 0
vn 0 1 0
vn 0 1 0
vn 0 1 0
vn 0 1 0
vn 0 1 0
vn 0 1 0
vn 0 1 0
vn 0 1 0
vn 0 1 0
vn 0 1 0
vn 0 1 0
vn 0 1 0
vn 0 1 0
vn 0 1 0
vn 0 1 0
vn 0 1 0
vn 0 1 0
vn 0 1 0
vn 0 1 0
vn 0 1 0
vn 0 1 0
vn -1 0 0
vn -1 0 0
vn -1 0 0
vn -1 0 0
vn -1 0 0
f 1/1/1 2/2/2 3/3/3
f 2/2/2 1/1/1 4/4/4
f 4/4/4 1/1/1 5/5/5
f 3/3/3 6/6/6 7/7/7
f 3/3/3 8/8/8 6/6/6
f 8/8/8 3/3/3 2/2/2
f 9/9/9 10/10/10 11/11/11
f 10/10/10 9/9/9 12/12/12
f 13/13/13 14/14/14 15/15/15
f 14/14/14 13/13/13 16/16/16
f 4/4/4 5/5/5 6/6/6
f 7/7/7 6/6/6 5/5/5
f 17/17/17 18/18/18 19/19/19
f 20/20/20 18/18/18 17/17/17
f 20/20/20 21/21/21 18/18/18
f 20/20/20 22/22/22 21/21/21
f 20/20/20 23/23/23 22/22/22
f 20/20/20 24/24/24 23/23/23
f 20/20/20 25/25/25 24/24/24
f 20/20/20 26/26/26 25/25/25
f 20/20/20 27/27/27 26/26/26
f 20/20/20 28/28/28 27/27/27
f 20/20/20 29/29/29 28/28/28
f 20/20/20 30/30/30 29/29/29
f 20/20/20 16/16/16 30/30/30
f 14/14/14 16/16/16 20/20/20
f 31/31/31 32/32/32 33/33/33
f 32/32/32 31/31/31 34/34/34
f 25/25/25 26/26/26 35/35/35
f 35/35/35 26/26/26 36/36/36
f 37/37/37 38/38/38 39/39/39
f 38/38/38 37/37/37 40/40/40
f 27/27/27 28/28/28 41/41/41
f 41/41/41 28/28/28 42/42/42
f 43/43/43 44/44/44 45/45/45
f 44/44/44 43/43/43 46/46/46
f 29/29/29 30/30/30 47/47/47
f 47/47/47 30/30/30 48/48/48
f 49/49/49 50/50/50 51/51/51
f 50/50/50 49/49/49 52/52/52
f 53/53/53 24/24/24 54/54/54
f 23/23/23 24/24/24 53/53/53
f 55/55/55 56/56/56 57/57/57
f 56/56/56 55/55/55 58/58/58
f 59/59/59 22/22/22 60/60/60
f 21/21/21 22/22/22 59/59/59
f 61/61/61 62/62/62 63/63/63
f 62/62/62 61/61/61 64/64/64
f 67/67/67 66/66/66 69/69/69
f 65/65/65 67/67/67 68/68/68
f 69/69/69 68/68/68 67/67/67
f 66/66/66 67/67/67 65/65/65
