# Rhino

mtllib BedSet_11_40.mtl
usemtl Default
v 0.054601295226500035 0.10333100173899999 -0.012973385188999931
v 0.054601295226500035 0.11048801697199999 0.00065902477887302968
v 0.054601295226500035 0.10333100173899999 -0.01978959017289994
v 0.054601295226500035 0.10333100173899999 0.00065902477887302968
v 0.054601295226500035 0.10333100173899999 -0.012973385188999931
v 0.075049910178599966 0.10333100173899999 0.00065902477887302968
v 0.054601295226500035 0.10333100173899999 0.00065902477887302968
v 0.075049910178599966 0.10333100173899999 -0.012973385188999931
v 0.054601295226500035 0.10333100173899999 -0.01978959017289994
v 0.075049910178599966 0.10333100173899999 -0.01978959017289994
v 0.054601295226500035 0.10333100173899999 -0.25154059370799997
v 0.075049910178599966 0.10333100173899999 -0.25154059370799997
v 0.054601295226500035 0.10333100173899999 -0.25835679869200012
v 0.075049910178599966 0.10333100173899999 -0.25835679869200012
v 0.075049910178599966 0.10333100173899999 -0.27198920865999998
v 0.054601295226500035 0.10333100173899999 -0.27198920865999998
v 0.054601295226500035 0.10333100173899999 -0.25835679869200012
v 0.054601295226500035 0.10333100173899999 -0.27198920865999998
v 0.054601295226500035 0.10333100173899999 -0.25154059370799997
v 0.054601295226500035 0.11048801697199999 -0.27198920865999998
v 0.054601295226500035 0.11048801697199999 0.00065902477887302968
v 0.075049910178599966 0.11048801697199999 -0.27198920865999998
v 0.054601295226500035 0.11048801697199999 -0.27198920865999998
v 0.075049910178599966 0.11048801697199999 0.00065902477887302968
v 0.075049910178599966 0.10333100173899999 0.00065902477887302968
v 0.075049910178599966 0.11048801697199999 -0.27198920865999998
v 0.075049910178599966 0.11048801697199999 0.00065902477887302968
v 0.075049910178599966 0.10333100173899999 -0.012973385188999931
v 0.075049910178599966 0.10333100173899999 -0.01978959017289994
v 0.075049910178599966 0.10333100173899999 -0.25154059370799997
v 0.075049910178599966 0.10333100173899999 -0.25835679869200012
v 0.075049910178599966 0.10333100173899999 -0.27198920865999998
v 0.054601295226500035 0.10333100173899999 -0.27198920865999998
v 0.075049910178599966 0.11048801697199999 -0.27198920865999998
v 0.075049910178599966 0.10333100173899999 -0.27198920865999998
v 0.054601295226500035 0.11048801697199999 -0.27198920865999998
vt 0.63558602333068848 0.62899601459503174
vt 0.66183298826217651 0.65655601024627686
vt 0.62246298789978027 0.62899601459503174
vt 0.66183298826217651 0.62899601459503174
vt -0.63558602333068848 1.1671600341796875
vt -0.66183298826217651 1.24590003490448
vt -0.66183298826217651 1.1671600341796875
vt -0.63558602333068848 1.24590003490448
vt -0.62246298789978027 1.1671600341796875
vt -0.62246298789978027 1.24590003490448
vt -0.17626799643039703 1.1671600341796875
vt -0.17626799643039703 1.24590003490448
vt -0.16314500570297241 1.1671600341796875
vt -0.16314500570297241 1.24590003490448
vt -0.13689799606800079 1.24590003490448
vt -0.13689799606800079 1.1671600341796875
vt 0.16314500570297241 0.62899601459503174
vt 0.13689799606800079 0.62899601459503174
vt 0.17626799643039703 0.62899601459503174
vt 0.13689799606800079 0.65655601024627686
vt 0.66183298826217651 1.1671600341796875
vt 0.13689799606800079 1.24590003490448
vt 0.13689799606800079 1.1671600341796875
vt 0.66183298826217651 1.24590003490448
vt -0.66183298826217651 0.62899601459503174
vt -0.13689799606800079 0.65655601024627686
vt -0.66183298826217651 0.65655601024627686
vt -0.63558602333068848 0.62899601459503174
vt -0.62246298789978027 0.62899601459503174
vt -0.17626799643039703 0.62899601459503174
vt -0.16314500570297241 0.62899601459503174
vt -0.13689799606800079 0.62899601459503174
vt -0.58358001708984375 0.62899601459503174
vt -0.62295001745223999 0.65655601024627686
vt -0.62295001745223999 0.62899601459503174
vt -0.58358001708984375 0.65655601024627686
vn -1 0 0
vn -1 0 0
vn -1 0 0
vn -1 0 0
vn 0 -1 0
vn 0 -1 0
vn 0 -1 0
vn 0 -1 0
vn 0 -1 0
vn 0 -1 0
vn 0 -1 0
vn 0 -1 0
vn 0 -1 0
vn 0 -1 0
vn 0 -1 0
vn 0 -1 0
vn -1 0 0
vn -1 0 0
vn -1 0 0
vn -1 0 0
vn 0 1 0
vn 0 1 0
vn 0 1 0
vn 0 1 0
vn 1 0 0
vn 1 0 0
vn 1 0 0
vn 1 0 0
vn 1 0 0
vn 1 0 0
vn 1 0 0
vn 1 0 0
vn 0 0 -1
vn 0 0 -1
vn 0 0 -1
vn 0 0 -1
f 1/1/1 2/2/2 3/3/3
f 2/2/2 1/1/1 4/4/4
f 5/5/5 6/6/6 7/7/7
f 5/5/5 8/8/8 6/6/6
f 9/9/9 8/8/8 5/5/5
f 9/9/9 10/10/10 8/8/8
f 11/11/11 10/10/10 9/9/9
f 11/11/11 12/12/12 10/10/10
f 13/13/13 12/12/12 11/11/11
f 13/13/13 14/14/14 12/12/12
f 13/13/13 15/15/15 14/14/14
f 15/15/15 13/13/13 16/16/16
f 17/17/17 2/2/2 18/18/18
f 19/19/19 2/2/2 17/17/17
f 3/3/3 2/2/2 19/19/19
f 18/18/18 2/2/2 20/20/20
f 21/21/21 22/22/22 23/23/23
f 22/22/22 21/21/21 24/24/24
f 25/25/25 26/26/26 27/27/27
f 28/28/28 26/26/26 25/25/25
f 29/29/29 26/26/26 28/28/28
f 30/30/30 26/26/26 29/29/29
f 31/31/31 26/26/26 30/30/30
f 26/26/26 31/31/31 32/32/32
f 33/33/33 34/34/34 35/35/35
f 34/34/34 33/33/33 36/36/36
