# Rhino

mtllib BedSet_02_22.mtl
usemtl Default
v 0.30138485772399992 0 0.27273783345700009
v 0.30138485772399992 0.1457920581237 0.22162027141300022
v 0.30138485772399992 0 0.22162027141300022
v 0.29316548813599996 0 0.27273783345700009
v 0.29316548813599996 0.1457920581237 0.22162027141300022
v 0.29316548813599996 0 0.22162027141300022
v 0.30138485772399992 0.30670458805400003 0.22162027141300022
v 0.29316548813599996 0.30670458805400003 0.22162027141300022
v 0.30138485772399992 0.354627253458 0.27273783345700009
v 0.29316548813599996 0.354627253458 0.27273783345700009
v 0.30138485772399992 0.354627253458 -0.25760638262500013
v 0.29316548813599996 0.354627253458 -0.25760638262500013
v 0.30138485772399992 0.099040227449100002 0.22162027141300022
v 0.29316548813599996 0.099040227449100002 0.22162027141300022
v 0.30138485772399992 0.1457920581237 0.023539816515199874
v 0.29316548813599996 0.1457920581237 0.023539816515199874
v 0.30138485772399992 0.30670458805400003 0.023539816515199874
v 0.29316548813599996 0.30670458805400003 0.023539816515199874
v 0.30138485772399992 0.30670458805400003 -0.0084083656819498032
v 0.29316548813599996 0.30670458805400003 -0.0084083656819498032
v 0.30138485772399992 0.30670458805400003 -0.20648882058000018
v 0.29316548813599996 0.30670458805400003 -0.20648882058000018
v 0.30138485772399992 0.1457920581237 -0.20648882058000018
v 0.29316548813599996 0.1457920581237 -0.20648882058000018
v 0.30138485772399992 0 -0.25760638262500013
v 0.29316548813599996 0 -0.25760638262500013
v 0.30138485772399992 0 -0.20648882058000018
v 0.29316548813599996 0 -0.20648882058000018
v 0.30138485772399992 0.099040227449100002 -0.20648882058000018
v 0.29316548813599996 0.099040227449100002 -0.20648882058000018
v 0.30138485772399992 0.1457920581237 -0.0084083656819498032
v 0.29316548813599996 0.1457920581237 -0.0084083656819498032
v 0.29316548813599996 0 0.22162027141300022
v 0.29316548813599996 0 0.27273783345700009
v 0.30138485772399992 0 0.27273783345700009
v 0.30138485772399992 0 0.22162027141300022
v 0.29316548813599996 0 0.27273783345700009
v 0.29316548813599996 0.354627253458 0.27273783345700009
v 0.30138485772399992 0.354627253458 0.27273783345700009
v 0.30138485772399992 0 0.27273783345700009
v 0.29316548813599996 0.30670458805400003 0.22162027141300022
v 0.29316548813599996 0.1457920581237 0.22162027141300022
v 0.30138485772399992 0.1457920581237 0.22162027141300022
v 0.30138485772399992 0.30670458805400003 0.22162027141300022
v 0.29316548813599996 0.1457920581237 0.22162027141300022
v 0.29316548813599996 0.1457920581237 0.023539816515199874
v 0.30138485772399992 0.1457920581237 0.023539816515199874
v 0.30138485772399992 0.1457920581237 0.22162027141300022
v 0.29316548813599996 0.099040227449100002 0.22162027141300022
v 0.29316548813599996 0 0.22162027141300022
v 0.30138485772399992 0 0.22162027141300022
v 0.30138485772399992 0.099040227449100002 0.22162027141300022
v 0.29316548813599996 0.30670458805400003 0.023539816515199874
v 0.29316548813599996 0.30670458805400003 0.22162027141300022
v 0.30138485772399992 0.30670458805400003 0.22162027141300022
v 0.30138485772399992 0.30670458805400003 0.023539816515199874
v 0.29316548813599996 0.354627253458 0.27273783345700009
v 0.29316548813599996 0.354627253458 -0.25760638262500013
v 0.30138485772399992 0.354627253458 -0.25760638262500013
v 0.30138485772399992 0.354627253458 0.27273783345700009
v 0.29316548813599996 0.354627253458 -0.25760638262500013
v 0.29316548813599996 0 -0.25760638262500013
v 0.30138485772399992 0 -0.25760638262500013
v 0.30138485772399992 0.354627253458 -0.25760638262500013
v 0.29316548813599996 0.099040227449100002 -0.20648882058000018
v 0.29316548813599996 0.099040227449100002 0.22162027141300022
v 0.30138485772399992 0.099040227449100002 0.22162027141300022
v 0.30138485772399992 0.099040227449100002 -0.20648882058000018
v 0.29316548813599996 0.1457920581237 0.023539816515199874
v 0.29316548813599996 0.30670458805400003 0.023539816515199874
v 0.30138485772399992 0.30670458805400003 0.023539816515199874
v 0.30138485772399992 0.1457920581237 0.023539816515199874
v 0.29316548813599996 0.30670458805400003 -0.20648882058000018
v 0.29316548813599996 0.30670458805400003 -0.0084083656819498032
v 0.30138485772399992 0.30670458805400003 -0.0084083656819498032
v 0.30138485772399992 0.30670458805400003 -0.20648882058000018
v 0.29316548813599996 0.30670458805400003 -0.0084083656819498032
v 0.29316548813599996 0.1457920581237 -0.0084083656819498032
v 0.30138485772399992 0.1457920581237 -0.0084083656819498032
v 0.30138485772399992 0.30670458805400003 -0.0084083656819498032
v 0.29316548813599996 0.1457920581237 -0.20648882058000018
v 0.29316548813599996 0.30670458805400003 -0.20648882058000018
v 0.30138485772399992 0.30670458805400003 -0.20648882058000018
v 0.30138485772399992 0.1457920581237 -0.20648882058000018
v 0.29316548813599996 0.1457920581237 -0.0084083656819498032
v 0.29316548813599996 0.1457920581237 -0.20648882058000018
v 0.30138485772399992 0.1457920581237 -0.20648882058000018
v 0.30138485772399992 0.1457920581237 -0.0084083656819498032
v 0.29316548813599996 0 -0.25760638262500013
v 0.29316548813599996 0 -0.20648882058000018
v 0.30138485772399992 0 -0.20648882058000018
v 0.30138485772399992 0 -0.25760638262500013
v 0.29316548813599996 0 -0.20648882058000018
v 0.29316548813599996 0.099040227449100002 -0.20648882058000018
v 0.30138485772399992 0.099040227449100002 -0.20648882058000018
v 0.30138485772399992 0 -0.20648882058000018
vt 0.96787154674530029 0.068518951535224915
vt 0.91967886686325073 0.27407580614089966
vt 0.91967886686325073 0.068518951535224915
vt 1 0
vt 0.9036145806312561 0.41111373901367188
vt 0.9036145806312561 0
vt 0.91967886686325073 0.64509570598602295
vt 0.9036145806312561 0.86486512422561646
vt 0.98393577337265015 0.81081086397171021
vt 1 1
vt 0.31726908683776855 0.9774775505065918
vt 0 1
vt 0.9036145806312561 0.25470471382141113
vt 0.9036145806312561 0.27927863597869873
vt 0.65461796522140503 0.38914120197296143
vt 0.53011965751647949 0.41111373901367188
vt 0.50401556491851807 0.88738763332366943
vt 0.53011965751647949 0.86486512422561646
vt 0.40160584449768066 0.88738763332366943
vt 0.46987882256507874 0.86486512422561646
vt 0.14257009327411652 0.88738763332366943
vt 0.096385419368743896 0.86486512422561646
vt 0.080321185290813446 0.58488667011260986
vt 0.096385419368743896 0.41111373901367188
vt 0.016064237803220749 0.23518562316894531
vt 0 0
vt 0.080321185290813446 0.068518951535224915
vt 0.096385419368743896 0
vt 0.096385419368743896 0.25470471382141113
vt 0.096385419368743896 0.27927863597869873
vt 0.34538102149963379 0.38914120197296143
vt 0.46987882256507874 0.41111373901367188
vt 0.9036145806312561 0
vt 1 0
vt 0.96787154674530029 0.068518951535224915
vt 0.91967886686325073 0.068518951535224915
vt 1 0
vt 1 1
vt 0.98393577337265015 0.81081086397171021
vt 0.96787154674530029 0.068518951535224915
vt 0.9036145806312561 0.86486512422561646
vt 0.9036145806312561 0.41111373901367188
vt 0.91967886686325073 0.27407580614089966
vt 0.91967886686325073 0.64509570598602295
vt 0.9036145806312561 0.41111373901367188
vt 0.53011965751647949 0.41111373901367188
vt 0.65461796522140503 0.38914120197296143
vt 0.91967886686325073 0.27407580614089966
vt 0.9036145806312561 0.27927863597869873
vt 0.9036145806312561 0
vt 0.91967886686325073 0.068518951535224915
vt 0.9036145806312561 0.25470471382141113
vt 0.53011965751647949 0.86486512422561646
vt 0.9036145806312561 0.86486512422561646
vt 0.91967886686325073 0.64509570598602295
vt 0.50401556491851807 0.88738763332366943
vt 1 1
vt 0 1
vt 0.31726908683776855 0.9774775505065918
vt 0.98393577337265015 0.81081086397171021
vt 0 1
vt 0 0
vt 0.016064237803220749 0.23518562316894531
vt 0.31726908683776855 0.9774775505065918
vt 0.096385419368743896 0.27927863597869873
vt 0.9036145806312561 0.27927863597869873
vt 0.9036145806312561 0.25470471382141113
vt 0.096385419368743896 0.25470471382141113
vt 0.53011965751647949 0.41111373901367188
vt 0.53011965751647949 0.86486512422561646
vt 0.50401556491851807 0.88738763332366943
vt 0.65461796522140503 0.38914120197296143
vt 0.096385419368743896 0.86486512422561646
vt 0.46987882256507874 0.86486512422561646
vt 0.40160584449768066 0.88738763332366943
vt 0.14257009327411652 0.88738763332366943
vt 0.46987882256507874 0.86486512422561646
vt 0.46987882256507874 0.41111373901367188
vt 0.34538102149963379 0.38914120197296143
vt 0.40160584449768066 0.88738763332366943
vt 0.096385419368743896 0.41111373901367188
vt 0.096385419368743896 0.86486512422561646
vt 0.14257009327411652 0.88738763332366943
vt 0.080321185290813446 0.58488667011260986
vt 0.46987882256507874 0.41111373901367188
vt 0.096385419368743896 0.41111373901367188
vt 0.080321185290813446 0.58488667011260986
vt 0.34538102149963379 0.38914120197296143
vt 0 0
vt 0.096385419368743896 0
vt 0.080321185290813446 0.068518951535224915
vt 0.016064237803220749 0.23518562316894531
vt 0.096385419368743896 0
vt 0.096385419368743896 0.27927863597869873
vt 0.096385419368743896 0.25470471382141113
vt 0.080321185290813446 0.068518951535224915
vn 1 0 0
vn 1 0 0
vn 1 0 0
vn -1 0 0
vn -1 0 0
vn -1 0 0
vn 1 0 0
vn -1 0 0
vn 1 0 0
vn -1 0 0
vn 1 0 0
vn -1 0 0
vn 1 0 0
vn -1 0 0
vn 1 0 0
vn -1 0 0
vn 1 0 0
vn -1 0 0
vn 1 0 0
vn -1 0 0
vn 1 0 0
vn -1 0 0
vn 1 0 0
vn -1 0 0
vn 1 0 0
vn -1 0 0
vn 1 0 0
vn -1 0 0
vn 1 0 0
vn -1 0 0
vn 1 0 0
vn -1 0 0
vn 0 -1 0
vn 0 -1 0
vn 0 -1 0
vn 0 -1 0
vn 0 0 1
vn 0 0 1
vn 0 0 1
vn 0 0 1
vn 0 0 -1
vn 0 0 -1
vn 0 0 -1
vn 0 0 -1
vn 0 1 0
vn 0 1 0
vn 0 1 0
vn 0 1 0
vn 0 0 -1
vn 0 0 -1
vn 0 0 -1
vn 0 0 -1
vn 0 -1 0
vn 0 -1 0
vn 0 -1 0
vn 0 -1 0
vn 0 1 0
vn 0 1 0
vn 0 1 0
vn 0 1 0
vn 0 0 -1
vn 0 0 -1
vn 0 0 -1
vn 0 0 -1
vn 0 -1 0
vn 0 -1 0
vn 0 -1 0
vn 0 -1 0
vn 0 0 1
vn 0 0 1
vn 0 0 1
vn 0 0 1
vn 0 -1 0
vn 0 -1 0
vn 0 -1 0
vn 0 -1 0
vn 0 0 -1
vn 0 0 -1
vn 0 0 -1
vn 0 0 -1
vn 0 0 1
vn 0 0 1
vn 0 0 1
vn 0 0 1
vn 0 1 0
vn 0 1 0
vn 0 1 0
vn 0 1 0
vn 0 -1 0
vn 0 -1 0
vn 0 -1 0
vn 0 -1 0
vn 0 0 1
vn 0 0 1
vn 0 0 1
vn 0 0 1
f 1/1/1 3/3/3 2/2/2
f 4/4/4 5/5/5 6/6/6
f 2/2/2 7/7/7 1/1/1
f 5/5/5 4/4/4 8/8/8
f 9/9/9 1/1/1 7/7/7
f 10/10/10 8/8/8 4/4/4
f 7/7/7 11/11/11 9/9/9
f 8/8/8 10/10/10 12/12/12
f 3/3/3 13/13/13 2/2/2
f 6/6/6 5/5/5 14/14/14
f 13/13/13 15/15/15 2/2/2
f 14/14/14 5/5/5 16/16/16
f 7/7/7 17/17/17 11/11/11
f 8/8/8 12/12/12 18/18/18
f 17/17/17 19/19/19 11/11/11
f 18/18/18 12/12/12 20/20/20
f 19/19/19 21/21/21 11/11/11
f 20/20/20 12/12/12 22/22/22
f 21/21/21 23/23/23 11/11/11
f 22/22/22 12/12/12 24/24/24
f 25/25/25 11/11/11 23/23/23
f 26/26/26 24/24/24 12/12/12
f 27/27/27 25/25/25 23/23/23
f 28/28/28 24/24/24 26/26/26
f 29/29/29 27/27/27 23/23/23
f 30/30/30 24/24/24 28/28/28
f 29/29/29 23/23/23 31/31/31
f 30/30/30 32/32/32 24/24/24
f 29/29/29 31/31/31 15/15/15
f 30/30/30 16/16/16 32/32/32
f 13/13/13 29/29/29 15/15/15
f 14/14/14 16/16/16 30/30/30
f 31/31/31 19/19/19 15/15/15
f 32/32/32 16/16/16 20/20/20
f 17/17/17 15/15/15 19/19/19
f 18/18/18 20/20/20 16/16/16
f 33/33/33 36/36/36 35/35/35 34/34/34
f 37/37/37 40/40/40 39/39/39 38/38/38
f 41/41/41 44/44/44 43/43/43 42/42/42
f 45/45/45 48/48/48 47/47/47 46/46/46
f 49/49/49 52/52/52 51/51/51 50/50/50
f 53/53/53 56/56/56 55/55/55 54/54/54
f 57/57/57 60/60/60 59/59/59 58/58/58
f 61/61/61 64/64/64 63/63/63 62/62/62
f 65/65/65 68/68/68 67/67/67 66/66/66
f 69/69/69 72/72/72 71/71/71 70/70/70
f 73/73/73 76/76/76 75/75/75 74/74/74
f 77/77/77 80/80/80 79/79/79 78/78/78
f 81/81/81 84/84/84 83/83/83 82/82/82
f 85/85/85 88/88/88 87/87/87 86/86/86
f 89/89/89 92/92/92 91/91/91 90/90/90
f 93/93/93 96/96/96 95/95/95 94/94/94
