# Rhino

mtllib BedSet_04_18.mtl
usemtl Default
v 0.039573565016000067 0.12147455165980002 -0.25512797780500041
v 0.039573565016000067 0.10430047214230001 -0.24737191680700032
v 0.039573565016000067 0.12147455165980002 -0.24737191680700032
v 0.039573565016000067 0.10430047214230001 -0.25512797780500041
v 0.039573565016000067 0.12147455165980002 -0.25512797780500041
v 0.22295583989500001 0.10430047214230001 -0.25512797780500041
v 0.039573565016000067 0.10430047214230001 -0.25512797780500041
v 0.22295583989500001 0.12147455165980002 -0.25512797780500041
v 0.039573565016000067 0.12147455165980002 -0.25512797780500041
v 0.22295583989500001 0.12147455165980002 -0.24737191680700032
v 0.22295583989500001 0.12147455165980002 -0.25512797780500041
v 0.039573565016000067 0.12147455165980002 -0.24737191680700032
v 0.22295583989500001 0.12147455165980002 -0.24737191680700032
v 0.22295583989500001 0.10430047214230001 -0.25512797780500041
v 0.22295583989500001 0.12147455165980002 -0.25512797780500041
v 0.22295583989500001 0.10430047214230001 -0.24737191680700032
v 0.039573565016000067 0.10430047214230001 -0.24737191680700032
v 0.22295583989500001 0.10430047214230001 -0.25512797780500041
v 0.22295583989500001 0.10430047214230001 -0.24737191680700032
v 0.039573565016000067 0.10430047214230001 -0.25512797780500041
v 0.039573565016000067 0.10430047214230001 -0.24737191680700032
v 0.039573565016000067 0.12147455165980002 -0.24737191680700032
v 0.13126470245550004 0.11288751190105001 -0.24737191680700032
v 0.22295583989500001 0.10430047214230001 -0.24737191680700032
v 0.22295583989500001 0.12147455165980002 -0.24737191680700032
vt 0 13.703700065612793
vt 0.875 11.766200065612793
vt 0.875 13.703700065612793
vt 0 11.766200065612793
vt 39.402500152587891 13.703700065612793
vt 18.715000152587891 11.766200065612793
vt 39.402500152587891 11.766200065612793
vt 18.715000152587891 13.703700065612793
vt 39.402500152587891 0
vt 18.715000152587891 0.875
vt 18.715000152587891 0
vt 39.402500152587891 0.875
vt -0.875 13.703700065612793
vt 0 11.766200065612793
vt 0 13.703700065612793
vt -0.875 11.766200065612793
vt -39.402500152587891 0.875
vt -18.715000152587891 0
vt -18.715000152587891 0.875
vt -39.402500152587891 0
vt 0 1
vt 0 0
vt 0.5 0.5
vt 1 1
vt 1 0
vn -1 0 0
vn -1 0 0
vn -1 0 0
vn -1 0 0
vn 0 0 -1
vn 0 0 -1
vn 0 0 -1
vn 0 0 -1
vn 0 1 0
vn 0 1 0
vn 0 1 0
vn 0 1 0
vn 1 0 0
vn 1 0 0
vn 1 0 0
vn 1 0 0
vn 0 -1 0
vn 0 -1 0
vn 0 -1 0
vn 0 -1 0
vn 0 0 1
vn 0 0 1
vn 0 0 1
vn 0 0 1
vn 0 0 1
f 1/1/1 2/2/2 3/3/3
f 2/2/2 1/1/1 4/4/4
f 5/5/5 6/6/6 7/7/7
f 6/6/6 5/5/5 8/8/8
f 9/9/9 10/10/10 11/11/11
f 10/10/10 9/9/9 12/12/12
f 13/13/13 14/14/14 15/15/15
f 14/14/14 13/13/13 16/16/16
f 17/17/17 18/18/18 19/19/19
f 18/18/18 17/17/17 20/20/20
f 23/23/23 22/22/22 21/21/21
f 24/24/24 25/25/25 23/23/23
f 22/22/22 23/23/23 25/25/25
f 21/21/21 24/24/24 23/23/23
