# Rhino

mtllib BedSet_11_21.mtl
usemtl Default
v 0.34551692394100009 0.13932567620809999 0.089369206163099957
v 0.34291313363799958 0.13932567620809999 0.089369206163099957
v 0.34421502878899979 0.13932567620809999 0.088990906786099999
v 0.34632123612900045 0.13932567620809999 0.090350739680500003
v 0.34551692394100009 0.44306599459999996 0.089369206163099957
v 0.34632123612900045 0.13932567620809999 0.090350739680500003
v 0.34551692394100009 0.13932567620809999 0.089369206163099957
v 0.34632123612900045 0.44306599459999996 0.090350739680500003
v 0.34551692394100009 0.44306599459999996 0.089369206163099957
v 0.3421088214500001 0.44306599459999996 0.090350739680500003
v 0.34632123612900045 0.44306599459999996 0.090350739680500003
v 0.34291313363799958 0.44306599459999996 0.089369206163099957
v 0.34421502878899979 0.44306599459999996 0.088990906786099999
v 0.34551692394100009 0.44306599459999996 0.089369206163099957
v 0.34421502878899979 0.13932567620809999 0.088990906786099999
v 0.34421502878899979 0.44306599459999996 0.088990906786099999
v 0.34551692394100009 0.13932567620809999 0.089369206163099957
v 0.34291313363799958 0.13932567620809999 0.089369206163099957
v 0.34421502878899979 0.44306599459999996 0.088990906786099999
v 0.34421502878899979 0.13932567620809999 0.088990906786099999
v 0.34291313363799958 0.44306599459999996 0.089369206163099957
v 0.34291313363799958 0.13932567620809999 0.089369206163099957
v 0.3421088214500001 0.44306599459999996 0.090350739680500003
v 0.34291313363799958 0.44306599459999996 0.089369206163099957
v 0.3421088214500001 0.13932567620809999 0.090350739680500003
v 0.3421088214500001 0.13932567620809999 0.090350739680500003
v 0.34632123612900045 0.13932567620809999 0.091570840373000006
v 0.34632123612900045 0.44306599459999996 0.090350739680500003
v 0.34632123612900045 0.13932567620809999 0.091570840373000006
v 0.34632123612900045 0.13932567620809999 0.090350739680500003
v 0.34632123612900045 0.44306599459999996 0.091570840373000006
v 0.3421088214500001 0.44306599459999996 0.091570840373000006
v 0.34632123612900045 0.44306599459999996 0.091570840373000006
v 0.3421088214500001 0.13932567620809999 0.090350739680500003
v 0.3421088214500001 0.44306599459999996 0.091570840373000006
v 0.3421088214500001 0.44306599459999996 0.090350739680500003
v 0.3421088214500001 0.13932567620809999 0.091570840373000006
v 0.3421088214500001 0.13932567620809999 0.091570840373000006
v 0.34551692394100009 0.13932567620809999 0.092552373890499973
v 0.34632123612900045 0.44306599459999996 0.091570840373000006
v 0.34551692394100009 0.13932567620809999 0.092552373890499973
v 0.34632123612900045 0.13932567620809999 0.091570840373000006
v 0.34551692394100009 0.44306599459999996 0.092552373890499973
v 0.34291313363799958 0.44306599459999996 0.092552373890499973
v 0.34551692394100009 0.44306599459999996 0.092552373890499973
v 0.3421088214500001 0.13932567620809999 0.091570840373000006
v 0.34291313363799958 0.44306599459999996 0.092552373890499973
v 0.3421088214500001 0.44306599459999996 0.091570840373000006
v 0.34291313363799958 0.13932567620809999 0.092552373890499973
v 0.34291313363799958 0.13932567620809999 0.092552373890499973
v 0.34421502878899979 0.13932567620809999 0.092930673266700015
v 0.34551692394100009 0.13932567620809999 0.092552373890499973
v 0.34421502878899979 0.44306599459999996 0.092930673266700015
v 0.34421502878899979 0.13932567620809999 0.092930673266700015
v 0.34551692394100009 0.44306599459999996 0.092552373890499973
v 0.34421502878899979 0.44306599459999996 0.092930673266700015
v 0.34291313363799958 0.44306599459999996 0.092552373890499973
v 0.34421502878899979 0.13932567620809999 0.092930673266700015
v 0.34421502878899979 0.44306599459999996 0.092930673266700015
v 0.34291313363799958 0.13932567620809999 0.092552373890499973
vt -35.481899261474609 0.39379799365997314
vt -35.481899261474609 0.092963099479675293
vt -35.433101654052734 0.24338099360466003
vt -35.609901428222656 0.48676100373268127
vt -28.937000274658203 25.442100524902344
vt -29.095100402832031 -9.6456699371337891
vt -28.937000274658203 -9.6456699371337891
vt -29.095100402832031 25.442100524902344
vt 35.481899261474609 0.39379799365997314
vt 35.609901428222656 0
vt 35.609901428222656 0.48676100373268127
vt 35.481899261474609 0.092963099479675293
vt 35.433101654052734 0.24338099360466003
vt -11.33899974822998 25.442100524902344
vt -11.180899620056152 -9.6456699371337891
vt -11.180899620056152 25.442100524902344
vt -11.33899974822998 -9.6456699371337891
vt 10.876099586486816 -9.6456699371337891
vt 10.718000411987305 25.442100524902344
vt 10.718000411987305 -9.6456699371337891
vt 10.876099586486816 25.442100524902344
vt 28.650899887084961 -9.6456699371337891
vt 28.809000015258789 25.442100524902344
vt 28.650899887084961 25.442100524902344
vt 28.809000015258789 -9.6456699371337891
vt -35.609901428222656 0
vt -35.768100738525391 0.48676100373268127
vt -35.609901428222656 25.442100524902344
vt -35.768100738525391 -9.6456699371337891
vt -35.609901428222656 -9.6456699371337891
vt -35.768100738525391 25.442100524902344
vt 35.768100738525391 0
vt 35.768100738525391 0.48676100373268127
vt 35.609901428222656 -9.6456699371337891
vt 35.768100738525391 25.442100524902344
vt 35.609901428222656 25.442100524902344
vt 35.768100738525391 -9.6456699371337891
vt -35.768100738525391 0
vt -35.895999908447266 0.39379799365997314
vt -28.650899887084961 25.442100524902344
vt -28.809000015258789 -9.6456699371337891
vt -28.650899887084961 -9.6456699371337891
vt -28.809000015258789 25.442100524902344
vt 35.895999908447266 0.092963099479675293
vt 35.895999908447266 0.39379799365997314
vt 28.937000274658203 -9.6456699371337891
vt 29.095100402832031 25.442100524902344
vt 28.937000274658203 25.442100524902344
vt 29.095100402832031 -9.6456699371337891
vt -35.895999908447266 0.092963099479675293
vt -35.944900512695312 0.24338099360466003
vt -10.718000411987305 -9.6456699371337891
vt -10.876099586486816 25.442100524902344
vt -10.876099586486816 -9.6456699371337891
vt -10.718000411987305 25.442100524902344
vt 35.944900512695312 0.24338099360466003
vt 11.180899620056152 25.442100524902344
vt 11.33899974822998 -9.6456699371337891
vt 11.33899974822998 25.442100524902344
vt 11.180899620056152 -9.6456699371337891
vn 0 -1 0
vn 0 -1 0
vn 0 -1 0
vn 0 -1 0
vn 0.77347844839096069 0 -0.63382261991500854
vn 0.77347844839096069 0 -0.63382261991500854
vn 0.77347844839096069 0 -0.63382261991500854
vn 0.77347844839096069 0 -0.63382261991500854
vn 0 1 0
vn 0 1 0
vn 0 1 0
vn 0 1 0
vn 0 1 0
vn 0.27903455495834351 0 -0.96028107404708862
vn 0.27903455495834351 0 -0.96028107404708862
vn 0.27903455495834351 0 -0.96028107404708862
vn 0.27903455495834351 0 -0.96028107404708862
vn -0.27903455495834351 0 -0.96028107404708862
vn -0.27903455495834351 0 -0.96028107404708862
vn -0.27903455495834351 0 -0.96028107404708862
vn -0.27903455495834351 0 -0.96028107404708862
vn -0.77347844839096069 0 -0.63382261991500854
vn -0.77347844839096069 0 -0.63382261991500854
vn -0.77347844839096069 0 -0.63382261991500854
vn -0.77347844839096069 0 -0.63382261991500854
vn 0 -1 0
vn 0 -1 0
vn 1 0 0
vn 1 0 0
vn 1 0 0
vn 1 0 0
vn 0 1 0
vn 0 1 0
vn -1 0 0
vn -1 0 0
vn -1 0 0
vn -1 0 0
vn 0 -1 0
vn 0 -1 0
vn 0.77347844839096069 0 0.63382261991500854
vn 0.77347844839096069 0 0.63382261991500854
vn 0.77347844839096069 0 0.63382261991500854
vn 0.77347844839096069 0 0.63382261991500854
vn 0 1 0
vn 0 1 0
vn -0.77347844839096069 0 0.63382261991500854
vn -0.77347844839096069 0 0.63382261991500854
vn -0.77347844839096069 0 0.63382261991500854
vn -0.77347844839096069 0 0.63382261991500854
vn 0 -1 0
vn 0 -1 0
vn 0.27903455495834351 0 0.96028107404708862
vn 0.27903455495834351 0 0.96028107404708862
vn 0.27903455495834351 0 0.96028107404708862
vn 0.27903455495834351 0 0.96028107404708862
vn 0 1 0
vn -0.27903455495834351 0 0.96028107404708862
vn -0.27903455495834351 0 0.96028107404708862
vn -0.27903455495834351 0 0.96028107404708862
vn -0.27903455495834351 0 0.96028107404708862
f 1/1/1 2/2/2 3/3/3
f 2/2/2 1/1/1 4/4/4
f 5/5/5 6/6/6 7/7/7
f 6/6/6 5/5/5 8/8/8
f 9/9/9 10/10/10 11/11/11
f 9/9/9 12/12/12 10/10/10
f 12/12/12 9/9/9 13/13/13
f 14/14/14 15/15/15 16/16/16
f 15/15/15 14/14/14 17/17/17
f 18/18/18 19/19/19 20/20/20
f 19/19/19 18/18/18 21/21/21
f 22/22/22 23/23/23 24/24/24
f 23/23/23 22/22/22 25/25/25
f 2/2/2 4/4/4 26/26/26
f 26/26/26 4/4/4 27/27/27
f 28/28/28 29/29/29 30/30/30
f 29/29/29 28/28/28 31/31/31
f 11/11/11 32/32/32 33/33/33
f 11/11/11 10/10/10 32/32/32
f 34/34/34 35/35/35 36/36/36
f 35/35/35 34/34/34 37/37/37
f 26/26/26 27/27/27 38/38/38
f 38/38/38 27/27/27 39/39/39
f 40/40/40 41/41/41 42/42/42
f 41/41/41 40/40/40 43/43/43
f 33/33/33 44/44/44 45/45/45
f 33/33/33 32/32/32 44/44/44
f 46/46/46 47/47/47 48/48/48
f 47/47/47 46/46/46 49/49/49
f 38/38/38 39/39/39 50/50/50
f 50/50/50 39/39/39 51/51/51
f 52/52/52 53/53/53 54/54/54
f 53/53/53 52/52/52 55/55/55
f 45/45/45 44/44/44 56/56/56
f 57/57/57 58/58/58 59/59/59
f 58/58/58 57/57/57 60/60/60
