# Rhino

mtllib BedSet_19_24.mtl
usemtl Default
v 0.27303876442099995 0.20164451057749999 -0.29181283455300022
v 0.26731699342400006 0.18161799787599997 -0.29181283455300022
v 0.27303876442099995 0.18161799787599997 -0.29181283455300022
v 0.26731699342400006 0.20164451057749999 -0.29181283455300022
v 0.27017819313299984 0.20164451057749999 -0.29181283455300022
v 0.27017819313299984 0.20164451057749999 0.29181283455300022
v 0.27017819313299984 0.20164451057749999 -0.29181283455300022
v 0.27303876442099995 0.20164451057749999 -0.29181283455300022
v 0.26731699342400006 0.20164451057749999 -0.29181283455300022
v 0.26731699342400006 0.20164451057749999 0.29181283455300022
v 0.26731699342400006 0.20164451057749999 0.29181283455300022
v 0.26731699342400006 0.18161799787599997 -0.29181283455300022
v 0.26731699342400006 0.20164451057749999 -0.29181283455300022
v 0.26731699342400006 0.18161799787599997 0.29181283455300022
v 0.26731699342400006 0.20164451057749999 -0.29181283455300022
v 0.26731699342400006 0.18161799787599997 0.29181283455300022
v 0.26731699342400006 0.20164451057749999 0.29181283455300022
v 0.26731699342400006 0.18161799787599997 -0.29181283455300022
v 0.27303876442099995 0.18161799787599997 0.29181283455300022
v 0.26731699342400006 0.18161799787599997 -0.29181283455300022
v 0.26731699342400006 0.18161799787599997 0.29181283455300022
v 0.27303876442099995 0.18161799787599997 -0.29181283455300022
v 0.27303876442099995 0.18161799787599997 0.29181283455300022
v 0.27303876442099995 0.20164451057749999 -0.29181283455300022
v 0.27303876442099995 0.18161799787599997 -0.29181283455300022
v 0.27303876442099995 0.20164451057749999 0.29181283455300022
v 0.27303876442099995 0.18161799787599997 -0.29181283455300022
v 0.27303876442099995 0.20164451057749999 0.29181283455300022
v 0.27303876442099995 0.18161799787599997 0.29181283455300022
v 0.27303876442099995 0.20164451057749999 -0.29181283455300022
v 0.27303876442099995 0.20164451057749999 0.29181283455300022
vt 75.541702270507812 27.749099731445312
vt 74.754302978515625 24.993200302124023
vt 75.541702270507812 24.993200302124023
vt 74.754302978515625 27.749099731445312
vt 75.148002624511719 27.749099731445312
vt -75.148002624511719 0.7874000072479248
vt -75.148002624511719 81.102401733398438
vt -75.541702270507812 81.102401733398438
vt -74.754302978515625 81.102401733398438
vt -74.754302978515625 0.7874000072479248
vt 0.7874000072479248 27.749099731445312
vt 81.102401733398438 24.993200302124023
vt 81.102401733398438 27.749099731445312
vt 0.7874000072479248 24.993200302124023
vt -81.102401733398438 27.749099731445312
vt -0.7874000072479248 24.993200302124023
vt -0.7874000072479248 27.749099731445312
vt -81.102401733398438 24.993200302124023
vt 75.541702270507812 0.7874000072479248
vt 74.754302978515625 81.102401733398438
vt 74.754302978515625 0.7874000072479248
vt 75.541702270507812 81.102401733398438
vt -0.7874000072479248 24.993200302124023
vt -81.102401733398438 27.749099731445312
vt -81.102401733398438 24.993200302124023
vt -0.7874000072479248 27.749099731445312
vt 81.102401733398438 24.993200302124023
vt 0.7874000072479248 27.749099731445312
vt 0.7874000072479248 24.993200302124023
vt 81.102401733398438 27.749099731445312
vt -75.541702270507812 0.7874000072479248
vn 0 0 1
vn 0 0 1
vn 0 0 1
vn 0 0 1
vn 0 0 1
vn 0 -1 0
vn 0 -1 0
vn 0 -1 0
vn 0 -1 0
vn 0 -1 0
vn 1 0 0
vn 1 0 0
vn 1 0 0
vn 1 0 0
vn -1 0 0
vn -1 0 0
vn -1 0 0
vn -1 0 0
vn 0 1 0
vn 0 1 0
vn 0 1 0
vn 0 1 0
vn -1 0 0
vn -1 0 0
vn -1 0 0
vn -1 0 0
vn 1 0 0
vn 1 0 0
vn 1 0 0
vn 1 0 0
vn 0 -1 0
f 1/1/1 2/2/2 3/3/3
f 2/2/2 1/1/1 4/4/4
f 4/4/4 1/1/1 5/5/5
f 6/6/6 7/7/7 8/8/8
f 6/6/6 9/9/9 7/7/7
f 9/9/9 6/6/6 10/10/10
f 11/11/11 12/12/12 13/13/13
f 12/12/12 11/11/11 14/14/14
f 15/15/15 16/16/16 17/17/17
f 16/16/16 15/15/15 18/18/18
f 19/19/19 20/20/20 21/21/21
f 20/20/20 19/19/19 22/22/22
f 23/23/23 24/24/24 25/25/25
f 24/24/24 23/23/23 26/26/26
f 27/27/27 28/28/28 29/29/29
f 28/28/28 27/27/27 30/30/30
f 6/6/6 8/8/8 31/31/31
