# Rhino

mtllib BedSet_07_26.mtl
usemtl Default
v -0.359870506639 0.23969328921720001 0.27144905302700018
v -0.3529826969130001 0.24420931126129999 0.27144905302700018
v -0.35411170242399992 0.23969328921720001 0.27144905302700018
v -0.36099951214999981 0.24420931126129999 0.27144905302700018
v -0.36099951214999981 0 0.27144905302700018
v -0.359870506639 0.058112081342999999 0.27144905302700018
v -0.3529826969130001 0 0.27144905302700018
v -0.359870506639 0.043525239820000006 0.27144905302700018
v -0.3529826969130001 0.043525239820000006 0.27144905302700018
v -0.3529826969130001 0 0.28668611140300015
v -0.36099951214999981 0 0.27144905302700018
v -0.3529826969130001 0 0.27144905302700018
v -0.36099951214999981 0 0.28668611140300015
v -0.3529826969130001 0 0.28668611140300015
v -0.36099951214999981 0.24420931126129999 0.28668611140300015
v -0.36099951214999981 0 0.28668611140300015
v -0.3529826969130001 0.24420931126129999 0.28668611140300015
v -0.3529826969130001 0 0.28668611140300015
v -0.3529826969130001 0.043531833212999999 0.27765406731499986
v -0.3529826969130001 0 0.27144905302700018
v -0.3529826969130001 0.043525239820000006 0.27144905302700018
v -0.3529826969130001 0.12210420402859999 0.27765406731499986
v -0.3529826969130001 0.12210420402859999 0.27144905302700018
v -0.3529826969130001 0.19848458806486 0.27144905302700018
v -0.3529826969130001 0.12210420402859999 0.27144905302700018
v -0.35411170242399992 0.22445623084049998 0.27144905302700018
v -0.35524070793599982 0.12210420402859999 0.27144905302700018
v -0.35524070793599982 0.22445623084049998 0.27144905302700018
v -0.3529826969130001 0.24420931126129999 0.27144905302700018
v -0.3529826969130001 0.24420931126129999 0.27144905302700018
v -0.36099951214999981 0.24420931126129999 0.28668611140300015
v -0.3529826969130001 0.24420931126129999 0.28668611140300015
v -0.36099951214999981 0.24420931126129999 0.27144905302700018
v -0.36099951214999981 0 0.27144905302700018
v -0.36099951214999981 0.24420931126129999 0.28668611140300015
v -0.36099951214999981 0.24420931126129999 0.27144905302700018
v -0.36099951214999981 0 0.28668611140300015
v -0.3529826969130001 0.24420931126129999 0.28668611140300015
vt -6.9324898719787598 2.2115099430084229
vt -6.996039867401123 2.2531700134277344
vt -6.9856200218200684 2.2115099430084229
vt -6.9220800399780273 2.2531700134277344
vt -6.9220800399780273 0
vt -6.9324898719787598 0.53616601228713989
vt -6.996039867401123 0
vt -6.9324898719787598 0.40158200263977051
vt -6.996039867401123 0.40158200263977051
vt -6.996039867401123 0
vt -7.0700101852416992 -0.14058500528335571
vt -6.996039867401123 -0.14058500528335571
vt -7.0700101852416992 0
vt -6.996039867401123 0
vt -7.0700101852416992 2.2531700134277344
vt -7.0700101852416992 0
vt -6.996039867401123 2.2531700134277344
vt -6.996039867401123 0
vt -6.9127101898193359 0.40164300799369812
vt -6.8554601669311523 0
vt -6.8554601669311523 0.40158200263977051
vt -6.9127101898193359 1.1265900135040283
vt -6.8554601669311523 1.1265900135040283
vt -6.8554601669311523 1.8313000202178955
vt -6.996039867401123 1.1265900135040283
vt -6.9856200218200684 2.0709199905395508
vt -6.9752101898193359 1.1265900135040283
vt -6.9752101898193359 2.0709199905395508
vt -6.8554601669311523 2.2531700134277344
vt -6.996039867401123 2.3937599658966064
vt -7.0700101852416992 2.2531700134277344
vt -6.996039867401123 2.2531700134277344
vt -7.0700101852416992 2.3937599658966064
vt -1.9204200506210327 0
vt -1.7798399925231934 2.2531700134277344
vt -1.9204200506210327 2.2531700134277344
vt -1.7798399925231934 0
vt -6.996039867401123 2.2531700134277344
vn 0 0 -1
vn 0 0 -1
vn 0 0 -1
vn 0 0 -1
vn 0 0 -1
vn 0 0 -1
vn 0 0 -1
vn 0 0 -1
vn 0 0 -1
vn 0 -1 0
vn 0 -1 0
vn 0 -1 0
vn 0 -1 0
vn 0 0 1
vn 0 0 1
vn 0 0 1
vn 1 0 0
vn 1 0 0
vn 1 0 0
vn 1 0 0
vn 1 0 0
vn 1 0 0
vn 1 0 0
vn 1 0 0
vn 0 0 -1
vn 0 0 -1
vn 0 0 -1
vn 0 0 -1
vn 1 0 0
vn 0 1 0
vn 0 1 0
vn 0 1 0
vn 0 1 0
vn -1 0 0
vn -1 0 0
vn -1 0 0
vn -1 0 0
vn 0 0 1
f 1/1/1 2/2/2 3/3/3
f 1/1/1 4/4/4 2/2/2
f 4/4/4 1/1/1 5/5/5
f 5/5/5 1/1/1 6/6/6
f 7/7/7 8/8/8 9/9/9
f 5/5/5 8/8/8 7/7/7
f 8/8/8 5/5/5 6/6/6
f 10/10/10 11/11/11 12/12/12
f 11/11/11 10/10/10 13/13/13
f 14/14/14 15/15/15 16/16/16
f 15/15/15 14/14/14 38/38/38
f 18/18/18 19/19/19 17/17/17
f 19/19/19 18/18/18 20/20/20
f 19/19/19 20/20/20 21/21/21
f 17/17/17 19/19/19 22/22/22
f 17/17/17 22/22/22 23/23/23
f 17/17/17 23/23/23 24/24/24
f 25/25/25 3/3/3 2/2/2
f 25/25/25 26/26/26 3/3/3
f 27/27/27 26/26/26 25/25/25
f 26/26/26 27/27/27 28/28/28
f 17/17/17 24/24/24 29/29/29
f 30/30/30 31/31/31 32/32/32
f 31/31/31 30/30/30 33/33/33
f 34/34/34 35/35/35 36/36/36
f 35/35/35 34/34/34 37/37/37
