# Rhino

mtllib BedSet_07_25.mtl
usemtl Default
v -0.3529826969130001 0.043531833212999999 -0.27765406731499986
v -0.3529826969130001 0.24420931126129999 -0.28668611140300015
v -0.3529826969130001 0.12210420402859999 -0.27765406731499986
v -0.3529826969130001 0 -0.28668611140300015
v -0.3529826969130001 0.043531833212999999 -0.27210586327199993
v -0.3529826969130001 0 -0.27210586327199993
v -0.359870506639 0.043531833212999999 -0.27210586327199993
v -0.3529826969130001 0 -0.27210586327199993
v -0.3529826969130001 0.043531833212999999 -0.27210586327199993
v -0.36099951214999981 0 -0.27210586327199993
v -0.36099951214999981 0.24420931126129999 -0.27210586327199993
v -0.359870506639 0.058112081342999999 -0.27210586327199993
v -0.359870506639 0.23969328921720001 -0.27210586327199993
v -0.3529826969130001 0.24420931126129999 -0.27210586327199993
v -0.35411170242399992 0.23969328921720001 -0.27210586327199993
v -0.3529826969130001 0.12210420402859999 -0.27210586327199993
v -0.3529826969130001 0.19848458806486 -0.27210586327199993
v -0.3529826969130001 0.24420931126129999 -0.27210586327199993
v -0.36099951214999981 0.24420931126129999 -0.28668611140300015
v -0.3529826969130001 0.24420931126129999 -0.28668611140300015
v -0.36099951214999981 0.24420931126129999 -0.27210586327199993
v -0.36099951214999981 0 -0.28668611140300015
v -0.36099951214999981 0.24420931126129999 -0.27210586327199993
v -0.36099951214999981 0.24420931126129999 -0.28668611140300015
v -0.36099951214999981 0 -0.27210586327199993
v -0.36099951214999981 0 -0.28668611140300015
v -0.3529826969130001 0 -0.27210586327199993
v -0.36099951214999981 0 -0.27210586327199993
v -0.3529826969130001 0 -0.28668611140300015
v -0.36099951214999981 0 -0.28668611140300015
v -0.3529826969130001 0.24420931126129999 -0.28668611140300015
v -0.3529826969130001 0 -0.28668611140300015
v -0.36099951214999981 0.24420931126129999 -0.28668611140300015
v -0.35411170242399992 0.22445623084049998 -0.27210586327199993
v -0.3529826969130001 0.12210420402859999 -0.27210586327199993
v -0.35524070793599982 0.22445623084049998 -0.27210586327199993
v -0.35524070793599982 0.12210420402859999 -0.27210586327199993
v -0.3529826969130001 0.24420931126129999 -0.27210586327199993
vt -0.62417399883270264 0.40164300799369812
vt -0.5408400297164917 2.2531700134277344
vt -0.62417399883270264 1.1265900135040283
vt -0.5408400297164917 0
vt -0.67536300420761108 0.40164300799369812
vt -0.67536300420761108 0
vt -7.1844301223754883 0.40164300799369812
vt -7.120880126953125 0
vt -7.120880126953125 0.40164300799369812
vt -7.194849967956543 0
vt -7.194849967956543 2.2531700134277344
vt -7.1844301223754883 0.53616601228713989
vt -7.1844301223754883 2.2115099430084229
vt -7.120880126953125 2.2531700134277344
vt -7.1312999725341797 2.2115099430084229
vt -0.67536300420761108 1.1265900135040283
vt -0.67536300420761108 1.8313000202178955
vt -0.67536300420761108 2.2531700134277344
vt -0.5408400297164917 2.3271400928497314
vt -0.5408400297164917 2.2531700134277344
vt -0.67536300420761108 2.3271400928497314
vt -7.0700101852416992 0
vt -6.9354901313781738 2.2531700134277344
vt -7.0700101852416992 2.2531700134277344
vt -6.9354901313781738 0
vt -7.0700101852416992 0
vt -7.2045297622680664 0.07396639883518219
vt -7.2045297622680664 0
vt -7.0700101852416992 0.07396639883518219
vt -7.0700101852416992 0
vt -7.1439700126647949 2.2531700134277344
vt -7.1439700126647949 0
vt -7.0700101852416992 2.2531700134277344
vt -7.1312999725341797 2.0709199905395508
vt -7.120880126953125 1.1265900135040283
vt -7.1417098045349121 2.0709199905395508
vt -7.1417098045349121 1.1265900135040283
vt -0.67536300420761108 2.2531700134277344
vn 1 0 0
vn 1 0 0
vn 1 0 0
vn 1 0 0
vn 1 0 0
vn 1 0 0
vn 0 0 1
vn 0 0 1
vn 0 0 1
vn 0 0 1
vn 0 0 1
vn 0 0 1
vn 0 0 1
vn 0 0 1
vn 0 0 1
vn 1 0 0
vn 1 0 0
vn 0 1 0
vn 0 1 0
vn 0 1 0
vn 0 1 0
vn -1 0 0
vn -1 0 0
vn -1 0 0
vn -1 0 0
vn 0 -1 0
vn 0 -1 0
vn 0 -1 0
vn 0 -1 0
vn 0 0 -1
vn 0 0 -1
vn 0 0 -1
vn 0 0 -1
vn 0 0 1
vn 0 0 1
vn 0 0 1
vn 0 0 1
vn 1 0 0
f 1/1/1 2/2/2 3/3/3
f 1/1/1 4/4/4 2/2/2
f 5/5/5 4/4/4 1/1/1
f 4/4/4 5/5/5 6/6/6
f 7/7/7 8/8/8 9/9/9
f 7/7/7 10/10/10 8/8/8
f 10/10/10 7/7/7 11/11/11
f 12/12/12 11/11/11 7/7/7
f 13/13/13 11/11/11 12/12/12
f 11/11/11 13/13/13 14/14/14
f 14/14/14 13/13/13 15/15/15
f 3/3/3 2/2/2 16/16/16
f 16/16/16 2/2/2 17/17/17
f 17/17/17 2/2/2 38/38/38
f 19/19/19 18/18/18 20/20/20
f 18/18/18 19/19/19 21/21/21
f 22/22/22 23/23/23 24/24/24
f 23/23/23 22/22/22 25/25/25
f 26/26/26 27/27/27 28/28/28
f 27/27/27 26/26/26 29/29/29
f 30/30/30 31/31/31 32/32/32
f 31/31/31 30/30/30 33/33/33
f 14/14/14 34/34/34 35/35/35
f 14/14/14 15/15/15 34/34/34
f 35/35/35 36/36/36 37/37/37
f 36/36/36 35/35/35 34/34/34
