# Rhino

mtllib BedSet_07_17.mtl
usemtl Default
v -0.3529826969130001 0.043531833212999999 -0.27210586327199993
v -0.359870506639 0.043525239820000006 0.27144905302700018
v 0.35289234937699998 0.043531833212999999 -0.27210586327199993
v 0.359870506639 0.043531833212999999 -0.27210586327199993
v 0.359870506639 0.043531833212999999 0.27144905302700018
vt -6.9354801177978516 0.4651930034160614
vt -1.9204200506210327 0.40158200263977051
vt -6.9354000091552734 6.9778800010681152
vt -6.9354000091552734 7.0422701835632324
vt -1.9203399419784546 7.0422101020812988
vn 0 1 1.2130131835874636E-05
vn 0 1 1.2130131835874636E-05
vn 0 1 1.2130131835874636E-05
vn 0 1 1.2130131835874636E-05
vn 0 1 1.2130131835874636E-05
f 1/1/1 2/2/2 3/3/3
f 3/3/3 2/2/2 4/4/4
f 4/4/4 2/2/2 5/5/5
