# Rhino

mtllib BedSet_16_15.mtl
usemtl Default
v 0.011982984996899759 0.074067395524899993 -0.069101852151800092
v 0.011982984996899759 0.038086523983399997 -0.065092965392899993
v 0.011982984996899759 0.038086523983399997 -0.069101852151800092
v 0.011982984996899759 0.074067395524899993 -0.065092965392899993
v 0.011982984996899759 0.074331966932599997 -0.068833081197900103
v 0.011982984996899759 0.076072258858899997 -0.27757404252899986
v 0.011982984996899759 0.038086523983399997 -0.27757404252899986
v 0.011982984996899759 0.074067395524899993 -0.065092965392899993
v 0.011713374133799803 0.076335990357499994 -0.065092965392899993
v 0.011982984996899759 0.038086523983399997 -0.065092965392899993
v 0.011982984996899759 0.076072258858899997 -0.065092965392899993
v 0.011982984996899759 0.074331966932599997 -0.065362576255999949
v 0.011982984996899759 0.076072258858899997 -0.065092965392899993
v 0.011982984996899759 0.074555382788000002 -0.0656657834883001
v 0.011982984996899759 0.074555382788000002 -0.068528194147100097
v 0.011982984996899759 0.074734283454199996 -0.068196430000899921
v 0.011982984996899759 0.074864469384999993 -0.067842828214700113
v 0.011982984996899759 0.074943420852600001 -0.067473268153199983
v 0.011982984996899759 0.074970297948000003 -0.067097828727000097
v 0.011982984996899759 0.076072258858899997 -0.27757404252899986
v 0.011713374133799803 0.076335990357499994 -0.065092965392899993
v 0.011982984996899759 0.076072258858899997 -0.065092965392899993
v 0.011713374133799803 0.076335990357499994 -0.27757404252899986
v 0.011982984996899759 0.076072258858899997 -0.27757404252899986
v 0.011982984996899759 0.038086523983399997 -0.27757404252899986
v 0.011713374133799803 0.076335990357499994 -0.27757404252899986
v 0.011982984996899759 0.036883773964699995 -0.27757404252899986
v 0.011410166901399954 0.076560246122099995 -0.27757404252899986
v 0.011076722936800287 0.076738306879099993 -0.27757404252899986
v 0.010723961059800224 0.076868492809899991 -0.27757404252899986
v 0.010355240907499841 0.076948284186699994 -0.27757404252899986
v 0.0099781216628400671 0.076974321372900001 -0.27757404252899986
v 0.009602682236610427 0.076948284186699994 -0.27757404252899986
v 0.0092331221749804016 0.076868492809899991 -0.27757404252899986
v 0.0088795203888203389 0.076738306879099993 -0.27757404252899986
v 0.0085469163333602438 0.076560246122099995 -0.27757404252899986
v 0.0082428691917799668 0.076335990357499994 -0.27757404252899986
v 0.0079740982379297165 0.076072258858899997 -0.27757404252899986
v 0.0079740982379297165 0.036883773964699995 -0.27757404252899986
v 0.011982984996899759 0.036883773964699995 -0.065092965392899993
v 0.0079740982379297165 0.036883773964699995 -0.27757404252899986
v 0.011982984996899759 0.036883773964699995 -0.27757404252899986
v 0.0079740982379297165 0.036883773964699995 -0.065092965392899993
v 0.011982984996899759 0.036883773964699995 -0.065092965392899993
v 0.0079740982379297165 0.076072258858899997 -0.065092965392899993
v 0.0079740982379297165 0.036883773964699995 -0.065092965392899993
v 0.0082428691917799668 0.076335990357499994 -0.065092965392899993
v 0.0085469163333602438 0.076560246122099995 -0.065092965392899993
v 0.0088795203888203389 0.076738306879099993 -0.065092965392899993
v 0.0092331221749804016 0.076868492809899991 -0.065092965392899993
v 0.009602682236610427 0.076948284186699994 -0.065092965392899993
v 0.0099781216628400671 0.076974321372900001 -0.065092965392899993
v 0.010355240907499841 0.076948284186699994 -0.065092965392899993
v 0.010723961059800224 0.076868492809899991 -0.065092965392899993
v 0.011076722936800287 0.076738306879099993 -0.065092965392899993
v 0.011410166901399954 0.076560246122099995 -0.065092965392899993
v 0.011982984996899759 0.036883773964699995 -0.27757404252899986
v 0.011982984996899759 0.036883773964699995 -0.065092965392899993
v 0.011713374133799803 0.076335990357499994 -0.27757404252899986
v 0.011410166901399954 0.076560246122099995 -0.065092965392899993
v 0.011713374133799803 0.076335990357499994 -0.065092965392899993
v 0.011410166901399954 0.076560246122099995 -0.27757404252899986
v 0.011410166901399954 0.076560246122099995 -0.27757404252899986
v 0.011076722936800287 0.076738306879099993 -0.065092965392899993
v 0.011410166901399954 0.076560246122099995 -0.065092965392899993
v 0.011076722936800287 0.076738306879099993 -0.27757404252899986
v 0.010723961059800224 0.076868492809899991 -0.27757404252899986
v 0.011076722936800287 0.076738306879099993 -0.065092965392899993
v 0.011076722936800287 0.076738306879099993 -0.27757404252899986
v 0.010723961059800224 0.076868492809899991 -0.065092965392899993
v 0.010723961059800224 0.076868492809899991 -0.27757404252899986
v 0.010355240907499841 0.076948284186699994 -0.065092965392899993
v 0.010723961059800224 0.076868492809899991 -0.065092965392899993
v 0.010355240907499841 0.076948284186699994 -0.27757404252899986
v 0.010355240907499841 0.076948284186699994 -0.27757404252899986
v 0.0099781216628400671 0.076974321372900001 -0.065092965392899993
v 0.010355240907499841 0.076948284186699994 -0.065092965392899993
v 0.0099781216628400671 0.076974321372900001 -0.27757404252899986
v 0.009602682236610427 0.076948284186699994 -0.27757404252899986
v 0.0099781216628400671 0.076974321372900001 -0.065092965392899993
v 0.0099781216628400671 0.076974321372900001 -0.27757404252899986
v 0.009602682236610427 0.076948284186699994 -0.065092965392899993
v 0.009602682236610427 0.076948284186699994 -0.27757404252899986
v 0.0092331221749804016 0.076868492809899991 -0.065092965392899993
v 0.009602682236610427 0.076948284186699994 -0.065092965392899993
v 0.0092331221749804016 0.076868492809899991 -0.27757404252899986
v 0.0088795203888203389 0.076738306879099993 -0.27757404252899986
v 0.0092331221749804016 0.076868492809899991 -0.065092965392899993
v 0.0092331221749804016 0.076868492809899991 -0.27757404252899986
v 0.0088795203888203389 0.076738306879099993 -0.065092965392899993
v 0.0088795203888203389 0.076738306879099993 -0.27757404252899986
v 0.0085469163333602438 0.076560246122099995 -0.065092965392899993
v 0.0088795203888203389 0.076738306879099993 -0.065092965392899993
v 0.0085469163333602438 0.076560246122099995 -0.27757404252899986
v 0.0085469163333602438 0.076560246122099995 -0.27757404252899986
v 0.0082428691917799668 0.076335990357499994 -0.065092965392899993
v 0.0085469163333602438 0.076560246122099995 -0.065092965392899993
v 0.0082428691917799668 0.076335990357499994 -0.27757404252899986
v 0.0082428691917799668 0.076335990357499994 -0.27757404252899986
v 0.0079740982379297165 0.076072258858899997 -0.065092965392899993
v 0.0082428691917799668 0.076335990357499994 -0.065092965392899993
v 0.0079740982379297165 0.076072258858899997 -0.27757404252899986
v 0.0079740982379297165 0.036883773964699995 -0.27757404252899986
v 0.0079740982379297165 0.076072258858899997 -0.065092965392899993
v 0.0079740982379297165 0.076072258858899997 -0.27757404252899986
v 0.0079740982379297165 0.036883773964699995 -0.065092965392899993
v 0.011982984996899759 0.074943420852600001 -0.066720709482299911
v 0.011982984996899759 0.074864469384999993 -0.066351989329900052
v 0.011982984996899759 0.074734283454199996 -0.065998387543700021
vt -20.472400665283203 4.439000129699707
vt -20.866100311279297 0.90549999475479126
vt -20.472400665283203 0.90549999475479126
vt -20.866100311279297 4.439000129699707
vt -20.498899459838867 4.464900016784668
vt 0 4.6357998847961426
vt 0 0.90549999475479126
vt -13.527999877929688 4.439000129699707
vt -13.554400444030762 4.6616997718811035
vt -13.527999877929688 0.90549999475479126
vt -13.527999877929688 4.6357998847961426
vt -20.839700698852539 4.464900016784668
vt -20.866100311279297 4.6357998847961426
vt -20.809900283813477 4.4868001937866211
vt -20.52869987487793 4.4868001937866211
vt -20.561399459838867 4.5043997764587402
vt -20.596099853515625 4.5171999931335449
vt -20.632299423217773 4.5250000953674316
vt -20.669300079345703 4.5275998115539551
vt 0 12.905900001525879
vt -20.866100311279297 12.942899703979492
vt -20.866100311279297 12.905900001525879
vt 0 12.942899703979492
vt 13.527999877929688 4.6357998847961426
vt 13.527999877929688 0.90549999475479126
vt 13.554400444030762 4.6616997718811035
vt 13.527999877929688 0.7874000072479248
vt 13.58430004119873 4.6837000846862793
vt 13.616900444030762 4.701200008392334
vt 13.651700019836426 4.7140002250671387
vt 13.687899589538574 4.7217998504638672
vt 13.724800109863281 4.7244000434875488
vt 13.761799812316895 4.7217998504638672
vt 13.798000335693359 4.7140002250671387
vt 13.832799911499023 4.701200008392334
vt 13.865400314331055 4.6837000846862793
vt 13.895199775695801 4.6616997718811035
vt 13.921699523925781 4.6357998847961426
vt 13.921699523925781 0.7874000072479248
vt -20.866100311279297 -13.527999877929688
vt 0 -13.921699523925781
vt 0 -13.527999877929688
vt -20.866100311279297 -13.921699523925781
vt -13.527999877929688 0.7874000072479248
vt -13.921699523925781 4.6357998847961426
vt -13.921699523925781 0.7874000072479248
vt -13.895199775695801 4.6616997718811035
vt -13.865400314331055 4.6837000846862793
vt -13.832799911499023 4.701200008392334
vt -13.798000335693359 4.7140002250671387
vt -13.761799812316895 4.7217998504638672
vt -13.724800109863281 4.7244000434875488
vt -13.687899589538574 4.7217998504638672
vt -13.651700019836426 4.7140002250671387
vt -13.616900444030762 4.701200008392334
vt -13.58430004119873 4.6837000846862793
vt 0 0.7874000072479248
vt -20.866100311279297 0.7874000072479248
vt 0 13.680000305175781
vt -20.866100311279297 13.717000007629395
vt -20.866100311279297 13.680000305175781
vt 0 13.717000007629395
vt 0 14.182299613952637
vt -20.866100311279297 14.219300270080566
vt -20.866100311279297 14.182299613952637
vt 0 14.219300270080566
vt 0 14.439800262451172
vt -20.866100311279297 14.402700424194336
vt 0 14.402700424194336
vt -20.866100311279297 14.439800262451172
vt 0 14.336999893188477
vt -20.866100311279297 14.374099731445312
vt -20.866100311279297 14.336999893188477
vt 0 14.374099731445312
vt 0 13.986499786376953
vt -20.866100311279297 14.023500442504883
vt -20.866100311279297 13.986499786376953
vt 0 14.023500442504883
vt 0 -13.395000457763672
vt 20.866100311279297 -13.357999801635742
vt 0 -13.357999801635742
vt 20.866100311279297 -13.395000457763672
vt 0 -12.464099884033203
vt 20.866100311279297 -12.501099586486816
vt 20.866100311279297 -12.464099884033203
vt 0 -12.501099586486816
vt 0 -11.359499931335449
vt 20.866100311279297 -11.322500228881836
vt 0 -11.322500228881836
vt 20.866100311279297 -11.359499931335449
vt 0 -9.9558000564575195
vt 20.866100311279297 -9.9928998947143555
vt 20.866100311279297 -9.9558000564575195
vt 0 -9.9928998947143555
vt 0 -8.391200065612793
vt 20.866100311279297 -8.4282999038696289
vt 20.866100311279297 -8.391200065612793
vt 0 -8.4282999038696289
vt 0 -6.6598000526428223
vt 20.866100311279297 -6.6968002319335938
vt 20.866100311279297 -6.6598000526428223
vt 0 -6.6968002319335938
vt 0 0.7874000072479248
vt 20.866100311279297 4.6357998847961426
vt 0 4.6357998847961426
vt 20.866100311279297 0.7874000072479248
vt -20.706199645996094 4.5250000953674316
vt -20.742500305175781 4.5171999931335449
vt -20.777200698852539 4.5043997764587402
vn 1 0 0
vn 1 0 0
vn 1 0 0
vn 1 0 0
vn 1 0 0
vn 1 0 0
vn 1 0 0
vn 0 0 1
vn 0 0 1
vn 0 0 1
vn 0 0 1
vn 1 0 0
vn 1 0 0
vn 1 0 0
vn 1 0 0
vn 1 0 0
vn 1 0 0
vn 1 0 0
vn 1 0 0
vn 0.69926941394805908 0.71485823392868042 0
vn 0.69926941394805908 0.71485823392868042 0
vn 0.69926941394805908 0.71485823392868042 0
vn 0.69926941394805908 0.71485823392868042 0
vn 0 0 -1
vn 0 0 -1
vn 0 0 -1
vn 0 0 -1
vn 0 0 -1
vn 0 0 -1
vn 0 0 -1
vn 0 0 -1
vn 0 0 -1
vn 0 0 -1
vn 0 0 -1
vn 0 0 -1
vn 0 0 -1
vn 0 0 -1
vn 0 0 -1
vn 0 0 -1
vn 0 -1 0
vn 0 -1 0
vn 0 -1 0
vn 0 -1 0
vn 0 0 1
vn 0 0 1
vn 0 0 1
vn 0 0 1
vn 0 0 1
vn 0 0 1
vn 0 0 1
vn 0 0 1
vn 0 0 1
vn 0 0 1
vn 0 0 1
vn 0 0 1
vn 0 0 1
vn 1 0 0
vn 1 0 0
vn 0.59464150667190552 0.80399096012115479 0
vn 0.59464150667190552 0.80399096012115479 0
vn 0.59464150667190552 0.80399096012115479 0
vn 0.59464150667190552 0.80399096012115479 0
vn 0.47104945778846741 0.88210678100585938 0
vn 0.47104945778846741 0.88210678100585938 0
vn 0.47104945778846741 0.88210678100585938 0
vn 0.47104945778846741 0.88210678100585938 0
vn 0.34622287750244141 0.93815231323242188 0
vn 0.34622287750244141 0.93815231323242188 0
vn 0.34622287750244141 0.93815231323242188 0
vn 0.34622287750244141 0.93815231323242188 0
vn 0.21150524914264679 0.97737687826156616 0
vn 0.21150524914264679 0.97737687826156616 0
vn 0.21150524914264679 0.97737687826156616 0
vn 0.21150524914264679 0.97737687826156616 0
vn 0.068878345191478729 0.99762505292892456 0
vn 0.068878345191478729 0.99762505292892456 0
vn 0.068878345191478729 0.99762505292892456 0
vn 0.068878345191478729 0.99762505292892456 0
vn -0.069185055792331696 0.99760383367538452 0
vn -0.069185055792331696 0.99760383367538452 0
vn -0.069185055792331696 0.99760383367538452 0
vn -0.069185055792331696 0.99760383367538452 0
vn -0.21104598045349121 0.97747611999511719 0
vn -0.21104598045349121 0.97747611999511719 0
vn -0.21104598045349121 0.97747611999511719 0
vn -0.21104598045349121 0.97747611999511719 0
vn -0.34549877047538757 0.93841922283172607 0
vn -0.34549877047538757 0.93841922283172607 0
vn -0.34549877047538757 0.93841922283172607 0
vn -0.34549877047538757 0.93841922283172607 0
vn -0.47197428345680237 0.88161230087280273 0
vn -0.47197428345680237 0.88161230087280273 0
vn -0.47197428345680237 0.88161230087280273 0
vn -0.47197428345680237 0.88161230087280273 0
vn -0.59357815980911255 0.80477637052536011 0
vn -0.59357815980911255 0.80477637052536011 0
vn -0.59357815980911255 0.80477637052536011 0
vn -0.59357815980911255 0.80477637052536011 0
vn -0.70038354396820068 0.71376669406890869 0
vn -0.70038354396820068 0.71376669406890869 0
vn -0.70038354396820068 0.71376669406890869 0
vn -0.70038354396820068 0.71376669406890869 0
vn -1 0 0
vn -1 0 0
vn -1 0 0
vn -1 0 0
vn 1 0 0
vn 1 0 0
vn 1 0 0
f 1/1/1 2/2/2 3/3/3
f 2/2/2 1/1/1 4/4/4
f 4/4/4 1/1/1 5/5/5
f 1/1/1 6/6/6 5/5/5
f 1/1/1 7/7/7 6/6/6
f 7/7/7 1/1/1 3/3/3
f 8/8/8 9/9/9 10/10/10
f 9/9/9 8/8/8 11/11/11
f 12/12/12 13/13/13 4/4/4
f 13/13/13 12/12/12 14/14/14
f 12/12/12 15/15/15 14/14/14
f 12/12/12 5/5/5 15/15/15
f 4/4/4 5/5/5 12/12/12
f 5/5/5 6/6/6 15/15/15
f 15/15/15 6/6/6 16/16/16
f 16/16/16 6/6/6 17/17/17
f 17/17/17 6/6/6 18/18/18
f 18/18/18 6/6/6 19/19/19
f 19/19/19 6/6/6 13/13/13
f 20/20/20 21/21/21 22/22/22
f 21/21/21 20/20/20 23/23/23
f 24/24/24 25/25/25 26/26/26
f 27/27/27 26/26/26 25/25/25
f 27/27/27 28/28/28 26/26/26
f 27/27/27 29/29/29 28/28/28
f 27/27/27 30/30/30 29/29/29
f 27/27/27 31/31/31 30/30/30
f 27/27/27 32/32/32 31/31/31
f 27/27/27 33/33/33 32/32/32
f 27/27/27 34/34/34 33/33/33
f 27/27/27 35/35/35 34/34/34
f 27/27/27 36/36/36 35/35/35
f 27/27/27 37/37/37 36/36/36
f 27/27/27 38/38/38 37/37/37
f 38/38/38 27/27/27 39/39/39
f 40/40/40 41/41/41 42/42/42
f 41/41/41 40/40/40 43/43/43
f 44/44/44 45/45/45 46/46/46
f 45/45/45 44/44/44 47/47/47
f 47/47/47 44/44/44 48/48/48
f 48/48/48 44/44/44 49/49/49
f 49/49/49 44/44/44 50/50/50
f 50/50/50 44/44/44 51/51/51
f 51/51/51 44/44/44 52/52/52
f 52/52/52 44/44/44 53/53/53
f 53/53/53 44/44/44 54/54/54
f 54/54/54 44/44/44 55/55/55
f 55/55/55 44/44/44 56/56/56
f 56/56/56 44/44/44 9/9/9
f 9/9/9 44/44/44 10/10/10
f 57/57/57 2/2/2 58/58/58
f 2/2/2 57/57/57 3/3/3
f 7/7/7 3/3/3 57/57/57
f 59/59/59 60/60/60 61/61/61
f 60/60/60 59/59/59 62/62/62
f 63/63/63 64/64/64 65/65/65
f 64/64/64 63/63/63 66/66/66
f 67/67/67 68/68/68 69/69/69
f 68/68/68 67/67/67 70/70/70
f 71/71/71 72/72/72 73/73/73
f 72/72/72 71/71/71 74/74/74
f 75/75/75 76/76/76 77/77/77
f 76/76/76 75/75/75 78/78/78
f 79/79/79 80/80/80 81/81/81
f 80/80/80 79/79/79 82/82/82
f 83/83/83 84/84/84 85/85/85
f 84/84/84 83/83/83 86/86/86
f 87/87/87 88/88/88 89/89/89
f 88/88/88 87/87/87 90/90/90
f 91/91/91 92/92/92 93/93/93
f 92/92/92 91/91/91 94/94/94
f 95/95/95 96/96/96 97/97/97
f 96/96/96 95/95/95 98/98/98
f 99/99/99 100/100/100 101/101/101
f 100/100/100 99/99/99 102/102/102
f 103/103/103 104/104/104 105/105/105
f 104/104/104 103/103/103 106/106/106
f 13/13/13 107/107/107 19/19/19
f 13/13/13 108/108/108 107/107/107
f 13/13/13 109/109/109 108/108/108
f 13/13/13 14/14/14 109/109/109
f 14/14/14 16/16/16 109/109/109
f 14/14/14 15/15/15 16/16/16
f 109/109/109 16/16/16 17/17/17
f 109/109/109 17/17/17 108/108/108
f 108/108/108 17/17/17 18/18/18
f 108/108/108 18/18/18 107/107/107
f 107/107/107 18/18/18 19/19/19
