# Rhino

mtllib BedSet_19_21.mtl
usemtl Default
v -0.19248716329799986 0.32693212858829995 0.27750809284899969
v -0.18676539230099998 0.32693212858829995 0.17737615776199966
v -0.19248716329799986 0.32693212858829995 0.17737615776199966
v -0.18676539230099998 0.32693212858829995 0.27750809284899969
v -0.181043621303 0.32693212858829995 0.27750809284899969
v -0.181043621303 0.32693212858829995 0.17737615776199966
v -0.181043621303 0.32693212858829995 0.27750809284899969
v -0.181043621303 0.32407092887919997 0.17737615776199966
v -0.181043621303 0.32693212858829995 0.17737615776199966
v -0.181043621303 0.32407092887919997 0.27750809284899969
v -0.19248716329799986 0.32407092887919997 0.27750809284899969
v -0.181043621303 0.32407092887919997 0.17737615776199966
v -0.181043621303 0.32407092887919997 0.27750809284899969
v -0.19248716329799986 0.32407092887919997 0.17737615776199966
v -0.19248716329799986 0.32407092887919997 0.27750809284899969
v -0.19248716329799986 0.32693212858829995 0.17737615776199966
v -0.19248716329799986 0.32407092887919997 0.17737615776199966
v -0.19248716329799986 0.32693212858829995 0.27750809284899969
v -0.19248716329799986 0.32407092887919997 0.27750809284899969
v -0.19248716329799986 0.32693212858829995 0.27750809284899969
v -0.18676539230099998 0.32693212858829995 0.27750809284899969
v -0.18676539230049993 0.32550152873374993 0.27750809284899969
v -0.181043621303 0.32407092887919997 0.27750809284899969
v -0.181043621303 0.32693212858829995 0.27750809284899969
v -0.19248716329799986 0.32407092887919997 0.17737615776199966
v -0.19248716329799986 0.32693212858829995 0.17737615776199966
v -0.18676539230099998 0.32693212858829995 0.17737615776199966
v -0.18676539230049993 0.32550152873374993 0.17737615776199966
v -0.181043621303 0.32407092887919997 0.17737615776199966
v -0.181043621303 0.32693212858829995 0.17737615776199966
vt 11.478699684143066 2.7558999061584473
vt 12.26609992980957 16.535400390625
vt 11.478699684143066 16.535400390625
vt 12.26609992980957 2.7558999061584473
vt 13.053500175476074 2.7558999061584473
vt 13.053500175476074 16.535400390625
vt 2.7558999061584473 44.990501403808594
vt 16.535400390625 44.5968017578125
vt 16.535400390625 44.990501403808594
vt 2.7558999061584473 44.5968017578125
vt -11.478699684143066 2.7558999061584473
vt -13.053500175476074 16.535400390625
vt -13.053500175476074 2.7558999061584473
vt -11.478699684143066 16.535400390625
vt -2.7558999061584473 44.5968017578125
vt -16.535400390625 44.990501403808594
vt -16.535400390625 44.5968017578125
vt -2.7558999061584473 44.990501403808594
vt 0 0
vt 1 0
vt 1 0.5
vt 0.5 0.5
vt 0 1
vt 1 1
vt 0 0
vt 0 1
vt 0.5 1
vt 0.5 0.5
vt 1 0
vt 1 1
vn 0 1 0
vn 0 1 0
vn 0 1 0
vn 0 1 0
vn 0 1 0
vn 0 1 0
vn 1 0 0
vn 1 0 0
vn 1 0 0
vn 1 0 0
vn 0 -1 0
vn 0 -1 0
vn 0 -1 0
vn 0 -1 0
vn -1 0 0
vn -1 0 0
vn -1 0 0
vn -1 0 0
vn 0 0 1
vn 0 0 1
vn 0 0 1
vn 0 0 1
vn 0 0 1
vn 0 0 1
vn 0 0 -1
vn 0 0 -1
vn 0 0 -1
vn 0 0 -1
vn 0 0 -1
vn 0 0 -1
f 1/1/1 2/2/2 3/3/3
f 2/2/2 1/1/1 4/4/4
f 2/2/2 4/4/4 5/5/5
f 2/2/2 5/5/5 6/6/6
f 7/7/7 8/8/8 9/9/9
f 8/8/8 7/7/7 10/10/10
f 11/11/11 12/12/12 13/13/13
f 12/12/12 11/11/11 14/14/14
f 15/15/15 16/16/16 17/17/17
f 16/16/16 15/15/15 18/18/18
f 23/23/23 22/22/22 19/19/19
f 20/20/20 19/19/19 22/22/22
f 24/24/24 22/22/22 23/23/23
f 22/22/22 21/21/21 20/20/20
f 22/22/22 24/24/24 21/21/21
f 27/27/27 28/28/28 26/26/26
f 25/25/25 26/26/26 28/28/28
f 30/30/30 29/29/29 28/28/28
f 25/25/25 28/28/28 29/29/29
f 27/27/27 30/30/30 28/28/28
