# Rhino

mtllib BedSet_19_30.mtl
usemtl Default
v 0.27017819313299984 0.23051604544129997 0.28884668857700024
v 0.27017819313299984 0.21048953273979998 0.29456845957500022
v 0.27017819313299984 0.23051604544129997 0.29456845957500022
v 0.27017819313299984 0.21048953273979998 0.28884668857700024
v 0.27017819313299984 0.21048953273979998 0.28884668857700024
v -0.14179246078700025 0.23051604544129997 0.28884668857700024
v 0.27017819313299984 0.23051604544129997 0.28884668857700024
v -0.14179246078700025 0.21048953273979998 0.28884668857700024
v -0.14179246078700025 0.21048953273979998 0.28884668857700024
v 0.27017819313299984 0.21048953273979998 0.29456845957500022
v 0.27017819313299984 0.21048953273979998 0.28884668857700024
v -0.14179246078700025 0.21048953273979998 0.29456845957500022
v -0.14179246078700025 0.21048953273979998 0.28884668857700024
v -0.14179246078700025 0.23051604544129997 0.29456845957500022
v -0.14179246078700025 0.21048953273979998 0.29456845957500022
v -0.14179246078700025 0.23051604544129997 0.28884668857700024
v 0.27017819313299984 0.23051604544129997 0.28884668857700024
v -0.14179246078700025 0.23051604544129997 0.29456845957500022
v -0.14179246078700025 0.23051604544129997 0.28884668857700024
v 0.27017819313299984 0.23051604544129997 0.29456845957500022
v 0.27017819313299984 0.21048953273979998 0.29456845957500022
v -0.14179246078700025 0.23051604544129997 0.29456845957500022
v 0.27017819313299984 0.23051604544129997 0.29456845957500022
v -0.14179246078700025 0.21048953273979998 0.29456845957500022
vt -1.1956000328063965 31.722200393676758
vt -0.40819999575614929 28.966299057006836
vt -0.40819999575614929 31.722200393676758
vt -1.1956000328063965 28.966299057006836
vt -75.148002624511719 28.966299057006836
vt -18.454999923706055 31.722200393676758
vt -75.148002624511719 31.722200393676758
vt -18.454999923706055 28.966299057006836
vt 18.454999923706055 1.1956000328063965
vt 75.148002624511719 0.40819999575614929
vt 75.148002624511719 1.1956000328063965
vt 18.454999923706055 0.40819999575614929
vt 1.1956000328063965 28.966299057006836
vt 0.40819999575614929 31.722200393676758
vt 0.40819999575614929 28.966299057006836
vt 1.1956000328063965 31.722200393676758
vt -75.148002624511719 1.1956000328063965
vt -18.454999923706055 0.40819999575614929
vt -18.454999923706055 1.1956000328063965
vt -75.148002624511719 0.40819999575614929
vt -75.148002624511719 28.966299057006836
vt -18.454999923706055 31.722200393676758
vt -75.148002624511719 31.722200393676758
vt -18.454999923706055 28.966299057006836
vn -1 0 0
vn -1 0 0
vn -1 0 0
vn -1 0 0
vn 0 0 -1
vn 0 0 -1
vn 0 0 -1
vn 0 0 -1
vn 0 1 0
vn 0 1 0
vn 0 1 0
vn 0 1 0
vn 1 0 0
vn 1 0 0
vn 1 0 0
vn 1 0 0
vn 0 -1 0
vn 0 -1 0
vn 0 -1 0
vn 0 -1 0
vn 0 0 -1
vn 0 0 -1
vn 0 0 -1
vn 0 0 -1
f 1/1/1 2/2/2 3/3/3
f 2/2/2 1/1/1 4/4/4
f 5/5/5 6/6/6 7/7/7
f 6/6/6 5/5/5 8/8/8
f 9/9/9 10/10/10 11/11/11
f 10/10/10 9/9/9 12/12/12
f 13/13/13 14/14/14 15/15/15
f 14/14/14 13/13/13 16/16/16
f 17/17/17 18/18/18 19/19/19
f 18/18/18 17/17/17 20/20/20
f 21/21/21 22/22/22 23/23/23
f 22/22/22 21/21/21 24/24/24
