# Rhino

mtllib BedSet_05_09.mtl
usemtl Default
v 0.35967732714300005 0.27335476862899999 0.28594347507799966
v 0.36327410041499997 0.27335476862899999 0.082725785242800498
v 0.37046764695799994 0.27335476862899999 0.28594347507799966
v 0.36327410041499997 0.27335476862899999 0.071935465428600409
v 0.35967732714300005 0.27335476862899999 -0.28594347507799966
v 0.36687087368600002 0.27335476862899999 0.071935465428600409
v 0.37046764695799994 0.27335476862899999 -0.28594347507799966
v 0.37046764695799994 0.28774186171499999 -0.28594347507799966
v 0.37046764695799994 0.27335476862899999 0.28594347507799966
v 0.37046764695799994 0.27335476862899999 -0.28594347507799966
v 0.37046764695799994 0.28774186171499999 0.28594347507799966
v 0.37046764695799994 0.28774186171499999 -0.28594347507799966
v 0.35967732714300005 0.28774186171499999 0.28594347507799966
v 0.37046764695799994 0.28774186171499999 0.28594347507799966
v 0.35967732714300005 0.28774186171499999 -0.28594347507799966
v 0.35967732714300005 0.27335476862899999 -0.28594347507799966
v 0.35967732714300005 0.28774186171499999 0.28594347507799966
v 0.35967732714300005 0.28774186171499999 -0.28594347507799966
v 0.35967732714300005 0.27335476862899999 0.28594347507799966
v 0.36687087368600002 0.27335476862899999 0.082725785242800498
v 0.35967732714300005 0.27335476862899999 0.28594347507799966
v 0.35967732714300005 0.28774186171499999 0.28594347507799966
v 0.36507248705049999 0.28054831517199996 0.28594347507799966
v 0.37046764695799994 0.27335476862899999 0.28594347507799966
v 0.37046764695799994 0.28774186171499999 0.28594347507799966
v 0.36327410041499997 0.27335476862899999 0.082725785242800498
v 0.36327410041499997 0.27335476862899999 0.071935465428600409
v 0.36507248705049999 0.27335476862899999 0.077330625335701342
v 0.36687087368600002 0.27335476862899999 0.082725785242800498
v 0.36687087368600002 0.27335476862899999 0.071935465428600409
v 0.35967732714300005 0.27335476862899999 -0.28594347507799966
v 0.35967732714300005 0.28774186171499999 -0.28594347507799966
v 0.36507248705049999 0.28054831517199996 -0.28594347507799966
v 0.37046764695799994 0.27335476862899999 -0.28594347507799966
v 0.37046764695799994 0.28774186171499999 -0.28594347507799966
vt -64.173202514648438 80.11810302734375
vt -41.929100036621094 80.511802673339844
vt -64.173202514648438 81.299201965332031
vt -40.748001098632812 80.511802673339844
vt -1.5748000144958496 80.11810302734375
vt -40.748001098632812 80.905502319335938
vt -1.5748000144958496 81.299201965332031
vt -1.5748000144958496 31.496099472045898
vt -64.173202514648438 29.921300888061523
vt -1.5748000144958496 29.921300888061523
vt -64.173202514648438 31.496099472045898
vt 1.5748000144958496 81.299201965332031
vt 64.173202514648438 80.11810302734375
vt 64.173202514648438 81.299201965332031
vt 1.5748000144958496 80.11810302734375
vt 1.5748000144958496 29.921300888061523
vt 64.173202514648438 31.496099472045898
vt 1.5748000144958496 31.496099472045898
vt 64.173202514648438 29.921300888061523
vt -41.929100036621094 80.905502319335938
vt 1 1
vt 1 0
vt 0.5 0.5
vt 0 1
vt 0 0
vt 1 0
vt 1 1
vt 0.5 0.5
vt 0 0
vt 0 1
vt 1 1
vt 1 0
vt 0.5 0.5
vt 0 1
vt 0 0
vn 0 -1 0
vn 0 -1 0
vn 0 -1 0
vn 0 -1 0
vn 0 -1 0
vn 0 -1 0
vn 0 -1 0
vn 1 0 0
vn 1 0 0
vn 1 0 0
vn 1 0 0
vn 0 1 0
vn 0 1 0
vn 0 1 0
vn 0 1 0
vn -1 0 0
vn -1 0 0
vn -1 0 0
vn -1 0 0
vn 0 -1 0
vn 0 0 1
vn 0 0 1
vn 0 0 1
vn 0 0 1
vn 0 0 1
vn 0 -1 0
vn 0 -1 0
vn 0 -1 0
vn 0 -1 0
vn 0 -1 0
vn 0 0 -1
vn 0 0 -1
vn 0 0 -1
vn 0 0 -1
vn 0 0 -1
f 1/1/1 2/2/2 3/3/3
f 1/1/1 4/4/4 2/2/2
f 5/5/5 4/4/4 1/1/1
f 4/4/4 5/5/5 6/6/6
f 7/7/7 6/6/6 5/5/5
f 6/6/6 7/7/7 3/3/3
f 8/8/8 9/9/9 10/10/10
f 9/9/9 8/8/8 11/11/11
f 12/12/12 13/13/13 14/14/14
f 13/13/13 12/12/12 15/15/15
f 16/16/16 17/17/17 18/18/18
f 17/17/17 16/16/16 19/19/19
f 6/6/6 3/3/3 20/20/20
f 20/20/20 3/3/3 2/2/2
f 23/23/23 24/24/24 25/25/25
f 21/21/21 23/23/23 22/22/22
f 25/25/25 22/22/22 23/23/23
f 24/24/24 23/23/23 21/21/21
f 28/28/28 30/30/30 29/29/29
f 27/27/27 28/28/28 26/26/26
f 29/29/29 26/26/26 28/28/28
f 30/30/30 28/28/28 27/27/27
f 33/33/33 35/35/35 34/34/34
f 31/31/31 32/32/32 33/33/33
f 35/35/35 33/33/33 32/32/32
f 34/34/34 31/31/31 33/33/33
