# Rhino

mtllib BedSet_09_13.mtl
usemtl Default
v -0.17327567116800013 0.28480762668600001 0.41252527441200026
v -0.00034640183924716794 0.033505656933999997 0.41252527441200026
v -0.00034640183924716794 0.28486276257699999 0.41252527441200026
v -0.17327567116800013 0.28480762668600001 0.40974416586449713
v -0.00034640183924716794 0.033505656933999997 0.40974416586449713
v -0.00034640183924716794 0.28486276257699999 0.40974416586449713
v -0.17327567116800013 0.033505656933999997 0.41252527441200026
v -0.17327567116800013 0.033505656933999997 0.40974416586449713
v -0.00034640183924716794 0.28486276257699999 0.40974416586449713
v -0.17327567116800013 0.28480762668600001 0.40974416586449713
v -0.17327567116800013 0.28480762668600001 0.41252527441200026
v -0.00034640183924716794 0.28486276257699999 0.41252527441200026
v -0.17327567116800013 0.28480762668600001 0.40974416586449713
v -0.17327567116800013 0.033505656933999997 0.40974416586449713
v -0.17327567116800013 0.033505656933999997 0.41252527441200026
v -0.17327567116800013 0.28480762668600001 0.41252527441200026
v -0.00034640183924716794 0.033505656933999997 0.40974416586449713
v -0.00034640183924716794 0.28486276257699999 0.40974416586449713
v -0.00034640183924716794 0.28486276257699999 0.41252527441200026
v -0.00034640183924716794 0.033505656933999997 0.41252527441200026
v -0.17327567116800013 0.033505656933999997 0.40974416586449713
v -0.00034640183924716794 0.033505656933999997 0.40974416586449713
v -0.00034640183924716794 0.033505656933999997 0.41252527441200026
v -0.17327567116800013 0.033505656933999997 0.41252527441200026
vt 0.49146413803100586 0.54955291748046875
vt 0.50540351867675781 0.52165967226028442
vt 0.50540351867675781 0.54955899715423584
vt 0.48217120766639709 0.55884861946105957
vt 0.51004999876022339 0.50306212902069092
vt 0.51004999876022339 0.55886083841323853
vt 0.48681765794754028 0.5123598575592041
vt 0.48217120766639709 0.50306212902069092
vt 0.51004999876022339 0.55886083841323853
vt 0.48217120766639709 0.55884861946105957
vt 0.49146413803100586 0.54955291748046875
vt 0.50540351867675781 0.54955899715423584
vt 0.48217120766639709 0.55884861946105957
vt 0.48217120766639709 0.50306212902069092
vt 0.48681765794754028 0.5123598575592041
vt 0.49146413803100586 0.54955291748046875
vt 0.51004999876022339 0.50306212902069092
vt 0.51004999876022339 0.55886083841323853
vt 0.50540351867675781 0.54955899715423584
vt 0.50540351867675781 0.52165967226028442
vt 0.48217120766639709 0.50306212902069092
vt 0.51004999876022339 0.50306212902069092
vt 0.50540351867675781 0.52165967226028442
vt 0.48681765794754028 0.5123598575592041
vn 0 0 1
vn 0 0 1
vn 0 0 1
vn 0 0 -1
vn 0 0 -1
vn 0 0 -1
vn 0 0 1
vn 0 0 -1
vn -0.00031883490737527609 0.99999994039535522 0
vn -0.00031883490737527609 0.99999994039535522 0
vn -0.00031883490737527609 0.99999994039535522 0
vn -0.00031883490737527609 0.99999994039535522 0
vn -1 0 0
vn -1 0 0
vn -1 0 0
vn -1 0 0
vn 1 0 0
vn 1 0 0
vn 1 0 0
vn 1 0 0
vn 0 -1 0
vn 0 -1 0
vn 0 -1 0
vn 0 -1 0
f 1/1/1 2/2/2 3/3/3
f 4/4/4 6/6/6 5/5/5
f 2/2/2 1/1/1 7/7/7
f 5/5/5 8/8/8 4/4/4
f 9/9/9 10/10/10 11/11/11 12/12/12
f 13/13/13 14/14/14 15/15/15 16/16/16
f 17/17/17 18/18/18 19/19/19 20/20/20
f 21/21/21 22/22/22 23/23/23 24/24/24
