# Rhino

mtllib BedSet_02_23.mtl
usemtl Default
v -0.22805437290899999 0.081468295921600001 -0.25691391975400002
v -0.22805437290899999 0.081865109299300007 -0.26103575989800021
v -0.22805437290899999 0.078926651342500001 -0.26103575989800021
v -0.22805437290899999 0.086260640883700002 -0.25441148598299979
v -0.22805437290899999 0.081468295921600001 -0.25052412647099986
v -0.22805437290899999 0.081468295921600001 -0.25691391975400002
v -0.16415722429800006 0.081468295921600001 -0.25052412647099986
v -0.22805437290899999 0.081468295921600001 -0.25052412647099986
v -0.16415722429800006 0.081468295921600001 -0.25691391975400002
v -0.22805437290899999 0.081468295921600001 -0.25691391975400002
v -0.16415722429800006 0.078926651342500001 -0.26103575989800021
v -0.16415722429800006 0.081468295921600001 -0.25691391975400002
v -0.22805437290899999 0.078926651342500001 -0.26103575989800021
v -0.22805437290899999 0.081865109299300007 -0.26103575989800021
v -0.16415722429800006 0.078926651342500001 -0.26103575989800021
v -0.22805437290899999 0.078926651342500001 -0.26103575989800021
v -0.16415722429800006 0.081865109299300007 -0.26103575989800021
v -0.22805437290899999 0.081865109299300007 -0.26103575989800021
v -0.16415722429800006 0.086260640883700002 -0.25441148598299979
v -0.16415722429800006 0.081865109299300007 -0.26103575989800021
v -0.22805437290899999 0.086260640883700002 -0.25441148598299979
v -0.22805437290899999 0.086260640883700002 -0.25441148598299979
v -0.16415722429800006 0.086260640883700002 -0.25052412647099986
v -0.16415722429800006 0.086260640883700002 -0.25441148598299979
v -0.22805437290899999 0.086260640883700002 -0.25052412647099986
v -0.22805437290899999 0.086260640883700002 -0.25052412647099986
v -0.16415722429800006 0.081468295921600001 -0.25052412647099986
v -0.16415722429800006 0.086260640883700002 -0.25441148598299979
v -0.16415722429800006 0.086260640883700002 -0.25052412647099986
v -0.16415722429800006 0.081468295921600001 -0.25691391975400002
v -0.16415722429800006 0.078926651342500001 -0.26103575989800021
v -0.16415722429800006 0.081865109299300007 -0.26103575989800021
v -0.22805437290899999 0.081468295921600001 -0.25052412647099986
v -0.22805437290899999 0.086260640883700002 -0.25052412647099986
v -0.19610579860349997 0.083864468402649994 -0.25052412647099986
v -0.16415722429800006 0.081468295921600001 -0.25052412647099986
v -0.16415722429800006 0.086260640883700002 -0.25052412647099986
vt 6.7287001609802246 10.039400100708008
vt 6.2207999229431152 10.088299751281738
vt 6.2207999229431152 9.7262001037597656
vt 7.0370998382568359 10.629899978637695
vt 7.5160999298095703 10.039400100708008
vt -75.25360107421875 6.7287001609802246
vt -67.379600524902344 7.5160999298095703
vt -75.25360107421875 7.5160999298095703
vt -67.379600524902344 6.7287001609802246
vt -75.25360107421875 10.996600151062012
vt -67.379600524902344 10.399900436401367
vt -67.379600524902344 10.996600151062012
vt -75.25360107421875 10.399900436401367
vt 75.25360107421875 10.088299751281738
vt 67.379600524902344 9.7262001037597656
vt 75.25360107421875 9.7262001037597656
vt 67.379600524902344 10.088299751281738
vt 75.25360107421875 10.761199951171875
vt 67.379600524902344 11.740799903869629
vt 67.379600524902344 10.761199951171875
vt 75.25360107421875 11.740799903869629
vt 75.25360107421875 7.0370998382568359
vt 67.379600524902344 7.5160999298095703
vt 67.379600524902344 7.0370998382568359
vt 75.25360107421875 7.5160999298095703
vt 7.5160999298095703 10.629899978637695
vt -7.5160999298095703 10.039400100708008
vt -7.0370998382568359 10.629899978637695
vt -7.5160999298095703 10.629899978637695
vt -6.7287001609802246 10.039400100708008
vt -6.2207999229431152 9.7262001037597656
vt -6.2207999229431152 10.088299751281738
vt 1 0
vt 0 0
vt 0.5 0.5
vt 1 1
vt 0 1
vn -1 0 0
vn -1 0 0
vn -1 0 0
vn -1 0 0
vn -1 0 0
vn 0 -1 0
vn 0 -1 0
vn 0 -1 0
vn 0 -1 0
vn 0 -0.85118532180786133 0.52486521005630493
vn 0 -0.85118532180786133 0.52486521005630493
vn 0 -0.85118532180786133 0.52486521005630493
vn 0 -0.85118532180786133 0.52486521005630493
vn 0 0 -1
vn 0 0 -1
vn 0 0 -1
vn 0 0 -1
vn 0 0.83324724435806274 -0.55290055274963379
vn 0 0.83324724435806274 -0.55290055274963379
vn 0 0.83324724435806274 -0.55290055274963379
vn 0 0.83324724435806274 -0.55290055274963379
vn 0 1 0
vn 0 1 0
vn 0 1 0
vn 0 1 0
vn -1 0 0
vn 1 0 0
vn 1 0 0
vn 1 0 0
vn 1 0 0
vn 1 0 0
vn 1 0 0
vn 0 0 1
vn 0 0 1
vn 0 0 1
vn 0 0 1
vn 0 0 1
f 1/1/1 2/2/2 3/3/3
f 2/2/2 1/1/1 4/4/4
f 4/4/4 1/1/1 5/5/5
f 6/6/6 7/7/7 8/8/8
f 7/7/7 6/6/6 9/9/9
f 10/10/10 11/11/11 12/12/12
f 11/11/11 10/10/10 13/13/13
f 14/14/14 15/15/15 16/16/16
f 15/15/15 14/14/14 17/17/17
f 18/18/18 19/19/19 20/20/20
f 19/19/19 18/18/18 21/21/21
f 22/22/22 23/23/23 24/24/24
f 23/23/23 22/22/22 25/25/25
f 4/4/4 5/5/5 26/26/26
f 27/27/27 28/28/28 29/29/29
f 30/30/30 28/28/28 27/27/27
f 31/31/31 28/28/28 30/30/30
f 28/28/28 31/31/31 32/32/32
f 35/35/35 37/37/37 34/34/34
f 36/36/36 35/35/35 33/33/33
f 34/34/34 33/33/33 35/35/35
f 37/37/37 35/35/35 36/36/36
