# Rhino

mtllib BedSet_04_12.mtl
usemtl Default
v 0.27855247968700003 0.11930634936383752 0.2328140399559997
v -0.375196437188 0.11930634936383752 -0.23478319131000003
v -0.375196437188 0.11930634936383752 0.2328140399559997
v 0.27855247968700003 0.12465536881450001 0.2328140399559997
v -0.375196437188 0.12465536881450001 -0.23478319131000003
v -0.375196437188 0.12465536881450001 0.2328140399559997
v 0.27855247968700003 0.11930634936383752 -0.23478319131000003
v 0.27855247968700003 0.12465536881450001 -0.23478319131000003
v -0.375196437188 0.12465536881450001 0.2328140399559997
v 0.27855247968700003 0.12465536881450001 0.2328140399559997
v 0.27855247968700003 0.11930634936383752 0.2328140399559997
v -0.375196437188 0.11930634936383752 0.2328140399559997
v 0.27855247968700003 0.12465536881450001 0.2328140399559997
v 0.27855247968700003 0.12465536881450001 -0.23478319131000003
v 0.27855247968700003 0.11930634936383752 -0.23478319131000003
v 0.27855247968700003 0.11930634936383752 0.2328140399559997
v -0.375196437188 0.12465536881450001 -0.23478319131000003
v -0.375196437188 0.12465536881450001 0.2328140399559997
v -0.375196437188 0.11930634936383752 0.2328140399559997
v -0.375196437188 0.11930634936383752 -0.23478319131000003
v 0.27855247968700003 0.12465536881450001 -0.23478319131000003
v -0.375196437188 0.12465536881450001 -0.23478319131000003
v -0.375196437188 0.11930634936383752 -0.23478319131000003
v 0.27855247968700003 0.11930634936383752 -0.23478319131000003
vt 37.026432037353516 46.253532409667969
vt 73.901435852050781 19.878534317016602
vt 73.901435852050781 46.253532409667969
vt 12.443099975585938 55.045200347900391
vt 86.193099975585938 2.2952001094818115
vt 86.193099975585938 55.045200347900391
vt 24.734766006469727 11.08686637878418
vt 12.443099975585938 2.2952001094818115
vt 86.193099975585938 55.045200347900391
vt 12.443099975585938 55.045200347900391
vt 37.026432037353516 46.253532409667969
vt 73.901435852050781 46.253532409667969
vt 12.443099975585938 55.045200347900391
vt 12.443099975585938 2.2952001094818115
vt 24.734766006469727 11.08686637878418
vt 37.026432037353516 46.253532409667969
vt 86.193099975585938 2.2952001094818115
vt 86.193099975585938 55.045200347900391
vt 73.901435852050781 46.253532409667969
vt 73.901435852050781 19.878534317016602
vt 12.443099975585938 2.2952001094818115
vt 86.193099975585938 2.2952001094818115
vt 73.901435852050781 19.878534317016602
vt 24.734766006469727 11.08686637878418
vn 0 -1 0
vn 0 -1 0
vn 0 -1 0
vn 0 1 0
vn 0 1 0
vn 0 1 0
vn 0 -1 0
vn 0 1 0
vn 0 0 1
vn 0 0 1
vn 0 0 1
vn 0 0 1
vn 1 0 0
vn 1 0 0
vn 1 0 0
vn 1 0 0
vn -1 0 0
vn -1 0 0
vn -1 0 0
vn -1 0 0
vn 0 0 -1
vn 0 0 -1
vn 0 0 -1
vn 0 0 -1
f 1/1/1 3/3/3 2/2/2
f 4/4/4 5/5/5 6/6/6
f 2/2/2 7/7/7 1/1/1
f 5/5/5 4/4/4 8/8/8
f 9/9/9 12/12/12 11/11/11 10/10/10
f 13/13/13 16/16/16 15/15/15 14/14/14
f 17/17/17 20/20/20 19/19/19 18/18/18
f 21/21/21 24/24/24 23/23/23 22/22/22
