# Rhino

mtllib BedSet_02_06.mtl
usemtl Default
v -0.36189660658923872 0.099040227449100002 -0.20648882058000018
v -0.36189660658923872 0.051117562045000009 -0.0084083656819498032
v -0.36189660658923872 0.099040227449100002 -0.0084083656819498032
v -0.35985758314600003 0.099040227449100002 -0.20648882058000018
v -0.35985758314600003 0.051117562045000009 -0.0084083656819498032
v -0.35985758314600003 0.099040227449100002 -0.0084083656819498032
v -0.36189660658923872 0.051117562045000009 -0.20648882058000018
v -0.35985758314600003 0.051117562045000009 -0.20648882058000018
v -0.35985758314600003 0.099040227449100002 -0.0084083656819498032
v -0.35985758314600003 0.099040227449100002 -0.20648882058000018
v -0.36189660658923872 0.099040227449100002 -0.20648882058000018
v -0.36189660658923872 0.099040227449100002 -0.0084083656819498032
v -0.35985758314600003 0.099040227449100002 -0.20648882058000018
v -0.35985758314600003 0.051117562045000009 -0.20648882058000018
v -0.36189660658923872 0.051117562045000009 -0.20648882058000018
v -0.36189660658923872 0.099040227449100002 -0.20648882058000018
v -0.35985758314600003 0.051117562045000009 -0.0084083656819498032
v -0.35985758314600003 0.099040227449100002 -0.0084083656819498032
v -0.36189660658923872 0.099040227449100002 -0.0084083656819498032
v -0.36189660658923872 0.051117562045000009 -0.0084083656819498032
v -0.35985758314600003 0.051117562045000009 -0.20648882058000018
v -0.35985758314600003 0.051117562045000009 -0.0084083656819498032
v -0.36189660658923872 0.051117562045000009 -0.0084083656819498032
v -0.36189660658923872 0.051117562045000009 -0.20648882058000018
vt 21.079099655151367 11.220450401306152
vt 33.283851623535156 8.2677001953125
vt 33.283851623535156 11.220450401306152
vt 12.942600250244141 12.204700469970703
vt 37.352100372314453 6.2992000579833984
vt 37.352100372314453 12.204700469970703
vt 17.01085090637207 7.2834501266479492
vt 12.942600250244141 6.2992000579833984
vt 37.352100372314453 12.204700469970703
vt 12.942600250244141 12.204700469970703
vt 21.079099655151367 11.220450401306152
vt 33.283851623535156 11.220450401306152
vt 12.942600250244141 12.204700469970703
vt 12.942600250244141 6.2992000579833984
vt 17.01085090637207 7.2834501266479492
vt 21.079099655151367 11.220450401306152
vt 37.352100372314453 6.2992000579833984
vt 37.352100372314453 12.204700469970703
vt 33.283851623535156 11.220450401306152
vt 33.283851623535156 8.2677001953125
vt 12.942600250244141 6.2992000579833984
vt 37.352100372314453 6.2992000579833984
vt 33.283851623535156 8.2677001953125
vt 17.01085090637207 7.2834501266479492
vn -1 0 0
vn -1 0 0
vn -1 0 0
vn 1 0 0
vn 1 0 0
vn 1 0 0
vn -1 0 0
vn 1 0 0
vn 0 1 0
vn 0 1 0
vn 0 1 0
vn 0 1 0
vn 0 0 -1
vn 0 0 -1
vn 0 0 -1
vn 0 0 -1
vn 0 0 1
vn 0 0 1
vn 0 0 1
vn 0 0 1
vn 0 -1 0
vn 0 -1 0
vn 0 -1 0
vn 0 -1 0
f 1/1/1 2/2/2 3/3/3
f 4/4/4 6/6/6 5/5/5
f 2/2/2 1/1/1 7/7/7
f 5/5/5 8/8/8 4/4/4
f 9/9/9 10/10/10 11/11/11 12/12/12
f 13/13/13 14/14/14 15/15/15 16/16/16
f 17/17/17 18/18/18 19/19/19 20/20/20
f 21/21/21 22/22/22 23/23/23 24/24/24
