# Rhino

mtllib BedSet_16_10.mtl
usemtl Default
v 0.011982984996899759 0.038086523983399997 0.059188403499800035
v 0.38727626699200002 0.038086523983399997 0.059188403499800035
v 0.011982984996899759 0.074067395524899993 0.059188403499800035
v 0.38727626699200002 0.038086523983399997 0.059188403499800035
v 0.011982984996899759 0.038086523983399997 0.059188403499800035
v 0.011982984996899759 0.038086523983399997 0.055179516740800016
v 0.38727626699200002 0.038086523983399997 0.055179516740800016
v 0.011982984996899759 0.038086523983399997 0.055179516740800016
v 0.38727626699200002 0.038086523983399997 0.055179516740800016
v 0.011982984996899759 0.036883773964699995 0.055179516740800016
v 0.011982984996899759 0.074067395524899993 0.055179516740800016
v 0.011982984996899759 0.074555382788000002 0.05861474549510004
v 0.38727626699200002 0.074555382788000002 0.05861474549510004
v 0.011982984996899759 0.074734283454199996 0.058282981348899976
v 0.38727626699200002 0.074555382788000002 0.05861474549510004
v 0.011982984996899759 0.074555382788000002 0.05861474549510004
v 0.38727626699200002 0.074331966932599997 0.058918792636699968
v 0.011982984996899759 0.074331966932599997 0.058918792636699968
v 0.38727626699200002 0.074331966932599997 0.058918792636699968
v 0.011982984996899759 0.074331966932599997 0.058918792636699968
v 0.38727626699200002 0.074067395524899993 0.059188403499800035
v 0.011982984996899759 0.074067395524899993 0.059188403499800035
v 0.38727626699200002 0.074067395524899993 0.059188403499800035
v 0.38727626699200002 0.074067395524899993 0.055179516740800016
v 0.011982984996899759 0.074067395524899993 0.055179516740800016
v 0.38727626699200002 0.074331966932599997 0.055448287694700005
v 0.38727626699200002 0.074067395524899993 0.055179516740800016
v 0.38727626699200002 0.074331966932599997 0.055448287694700005
v 0.011982984996899759 0.074331966932599997 0.055448287694700005
v 0.38727626699200002 0.074555382788000002 0.055752334836300044
v 0.011982984996899759 0.074331966932599997 0.055448287694700005
v 0.011982984996899759 0.074555382788000002 0.055752334836300044
v 0.38727626699200002 0.074555382788000002 0.055752334836300044
v 0.011982984996899759 0.074555382788000002 0.055752334836300044
v 0.38727626699200002 0.074734283454199996 0.056084938891699965
v 0.011982984996899759 0.074734283454199996 0.056084938891699965
v 0.38727626699200002 0.074734283454199996 0.056084938891699965
v 0.011982984996899759 0.074734283454199996 0.056084938891699965
v 0.38727626699200002 0.074864469384999993 0.056438540677899995
v 0.011982984996899759 0.074864469384999993 0.056438540677899995
v 0.38727626699200002 0.074864469384999993 0.056438540677899995
v 0.011982984996899759 0.074864469384999993 0.056438540677899995
v 0.38727626699200002 0.074943420852600001 0.056807260830200046
v 0.011982984996899759 0.074943420852600001 0.056807260830200046
v 0.38727626699200002 0.074943420852600001 0.056807260830200046
v 0.011982984996899759 0.074943420852600001 0.056807260830200046
v 0.38727626699200002 0.074970297948000003 0.057183540165700042
v 0.011982984996899759 0.074970297948000003 0.057183540165700042
v 0.38727626699200002 0.074970297948000003 0.057183540165700042
v 0.011982984996899759 0.074970297948000003 0.057183540165700042
v 0.38727626699200002 0.074943420852600001 0.057559819501100007
v 0.011982984996899759 0.074943420852600001 0.057559819501100007
v 0.38727626699200002 0.074943420852600001 0.057559819501100007
v 0.011982984996899759 0.074943420852600001 0.057559819501100007
v 0.38727626699200002 0.074864469384999993 0.057928539653499977
v 0.011982984996899759 0.074864469384999993 0.057928539653499977
v 0.38727626699200002 0.074864469384999993 0.057928539653499977
v 0.011982984996899759 0.074864469384999993 0.057928539653499977
v 0.38727626699200002 0.074734283454199996 0.058282981348899976
v 0.011982984996899759 0.074734283454199996 0.058282981348899976
v 0.38727626699200002 0.074734283454199996 0.058282981348899976
v 0.38727626699200002 0.036883773964699995 0.055179516740800016
vt 13.527999877929688 0.90549999475479126
vt -23.326799392700195 0.90549999475479126
vt 13.527999877929688 4.439000129699707
vt 20.472400665283203 23.326799392700195
vt 20.472400665283203 -13.527999877929688
vt 20.866100311279297 -13.527999877929688
vt 20.866100311279297 23.326799392700195
vt -13.527999877929688 0.90549999475479126
vt 23.326799392700195 0.90549999475479126
vt -13.527999877929688 0.7874000072479248
vt -13.527999877929688 4.439000129699707
vt 13.527999877929688 20.204999923706055
vt -23.326799392700195 20.204999923706055
vt 13.527999877929688 20.242099761962891
vt -23.326799392700195 19.193500518798828
vt 13.527999877929688 19.193500518798828
vt -23.326799392700195 19.156400680541992
vt 13.527999877929688 19.156400680541992
vt -23.326799392700195 17.764400482177734
vt 13.527999877929688 17.764400482177734
vt -23.326799392700195 17.727300643920898
vt 13.527999877929688 17.727300643920898
vt -23.326799392700195 4.439000129699707
vt 23.326799392700195 -11.793899536132812
vt -13.527999877929688 -11.793899536132812
vt 23.326799392700195 -11.756799697875977
vt 23.326799392700195 4.439000129699707
vt 23.326799392700195 -14.138099670410156
vt -13.527999877929688 -14.138099670410156
vt 23.326799392700195 -14.10099983215332
vt -13.527999877929688 -11.756799697875977
vt -13.527999877929688 -14.10099983215332
vt 23.326799392700195 -16.20210075378418
vt -13.527999877929688 -16.20210075378418
vt 23.326799392700195 -16.16510009765625
vt -13.527999877929688 -16.16510009765625
vt 23.326799392700195 -17.944999694824219
vt -13.527999877929688 -17.944999694824219
vt 23.326799392700195 -17.908000946044922
vt -13.527999877929688 -17.908000946044922
vt 23.326799392700195 -19.332199096679688
vt -13.527999877929688 -19.332199096679688
vt 23.326799392700195 -19.295099258422852
vt -13.527999877929688 -19.295099258422852
vt 23.326799392700195 -20.336099624633789
vt -13.527999877929688 -20.336099624633789
vt 23.326799392700195 -20.299100875854492
vt -13.527999877929688 -20.299100875854492
vt -23.326799392700195 20.936899185180664
vt 13.527999877929688 20.936899185180664
vt -23.326799392700195 20.899799346923828
vt 13.527999877929688 20.899799346923828
vt -23.326799392700195 21.122499465942383
vt 13.527999877929688 21.122499465942383
vt -23.326799392700195 21.085500717163086
vt 13.527999877929688 21.085500717163086
vt -23.326799392700195 20.889400482177734
vt 13.527999877929688 20.889400482177734
vt -23.326799392700195 20.852300643920898
vt 13.527999877929688 20.852300643920898
vt -23.326799392700195 20.242099761962891
vt 23.326799392700195 0.7874000072479248
vn 0 0 1
vn 0 0 1
vn 0 0 1
vn 0 1 0
vn 0 1 0
vn 0 1 0
vn 0 1 0
vn 0 0 -1
vn 0 0 -1
vn 0 0 -1
vn 0 0 -1
vn 0 0.88018471002578735 0.47463124990463257
vn 0 0.88018471002578735 0.47463124990463257
vn 0 0.88018471002578735 0.47463124990463257
vn 0 0.80583846569061279 0.59213542938232422
vn 0 0.80583846569061279 0.59213542938232422
vn 0 0.80583846569061279 0.59213542938232422
vn 0 0.80583846569061279 0.59213542938232422
vn 0 0.7137458324432373 0.7004048228263855
vn 0 0.7137458324432373 0.7004048228263855
vn 0 0.7137458324432373 0.7004048228263855
vn 0 0.7137458324432373 0.7004048228263855
vn 0 0 1
vn 0 0.71265244483947754 -0.70151728391647339
vn 0 0.71265244483947754 -0.70151728391647339
vn 0 0.71265244483947754 -0.70151728391647339
vn 0 0 -1
vn 0 0.80583846569061279 -0.59213542938232422
vn 0 0.80583846569061279 -0.59213542938232422
vn 0 0.80583846569061279 -0.59213542938232422
vn 0 0.71265244483947754 -0.70151728391647339
vn 0 0.80583846569061279 -0.59213542938232422
vn 0 0.88068526983261108 -0.47370192408561707
vn 0 0.88068526983261108 -0.47370192408561707
vn 0 0.88068526983261108 -0.47370192408561707
vn 0 0.88068526983261108 -0.47370192408561707
vn 0 0.93841922283172607 -0.34549877047538757
vn 0 0.93841922283172607 -0.34549877047538757
vn 0 0.93841922283172607 -0.34549877047538757
vn 0 0.93841922283172607 -0.34549877047538757
vn 0 0.97783499956130981 -0.2093769758939743
vn 0 0.97783499956130981 -0.2093769758939743
vn 0 0.97783499956130981 -0.2093769758939743
vn 0 0.97783499956130981 -0.2093769758939743
vn 0 0.99745869636535645 -0.071247048676013947
vn 0 0.99745869636535645 -0.071247048676013947
vn 0 0.99745869636535645 -0.071247048676013947
vn 0 0.99745869636535645 -0.071247048676013947
vn 0 0.99745869636535645 0.071247048676013947
vn 0 0.99745869636535645 0.071247048676013947
vn 0 0.99745869636535645 0.071247048676013947
vn 0 0.99745869636535645 0.071247048676013947
vn 0 0.97783499956130981 0.2093769758939743
vn 0 0.97783499956130981 0.2093769758939743
vn 0 0.97783499956130981 0.2093769758939743
vn 0 0.97783499956130981 0.2093769758939743
vn 0 0.93868446350097656 0.34477746486663818
vn 0 0.93868446350097656 0.34477746486663818
vn 0 0.93868446350097656 0.34477746486663818
vn 0 0.93868446350097656 0.34477746486663818
vn 0 0.88018471002578735 0.47463124990463257
vn 0 0 -1
f 1/1/1 2/2/2 3/3/3
f 5/5/5 4/4/4 6/6/6
f 7/7/7 6/6/6 4/4/4
f 8/8/8 9/9/9 10/10/10
f 8/8/8 11/11/11 9/9/9
f 12/12/12 13/13/13 14/14/14
f 15/15/15 16/16/16 17/17/17
f 18/18/18 17/17/17 16/16/16
f 19/19/19 20/20/20 21/21/21
f 22/22/22 21/21/21 20/20/20
f 23/23/23 3/3/3 2/2/2
f 24/24/24 25/25/25 26/26/26
f 27/27/27 9/9/9 11/11/11
f 28/28/28 29/29/29 30/30/30
f 31/31/31 26/26/26 25/25/25
f 32/32/32 30/30/30 29/29/29
f 33/33/33 34/34/34 35/35/35
f 36/36/36 35/35/35 34/34/34
f 37/37/37 38/38/38 39/39/39
f 40/40/40 39/39/39 38/38/38
f 41/41/41 42/42/42 43/43/43
f 44/44/44 43/43/43 42/42/42
f 45/45/45 46/46/46 47/47/47
f 48/48/48 47/47/47 46/46/46
f 49/49/49 50/50/50 51/51/51
f 52/52/52 51/51/51 50/50/50
f 53/53/53 54/54/54 55/55/55
f 56/56/56 55/55/55 54/54/54
f 57/57/57 58/58/58 59/59/59
f 60/60/60 59/59/59 58/58/58
f 61/61/61 14/14/14 13/13/13
f 62/62/62 10/10/10 9/9/9
