# Rhino

mtllib BedSet_05_06.mtl
usemtl Default
v -0.37046764695799994 0.082725785242999991 -0.28594347507799966
v -0.37046764695799994 0.1186935179572 0.28594347507799966
v -0.37046764695799994 0.1186935179572 -0.28594347507799966
v -0.37046764695799994 0.082725785242999991 0.28594347507799966
v -0.37046764695799994 0.082725785242999991 -0.28594347507799966
v -0.36327410041499997 0.082725785242999991 0.28594347507799966
v -0.37046764695799994 0.082725785242999991 0.28594347507799966
v -0.36327410041499997 0.082725785242999991 -0.28594347507799966
v -0.36327410041499997 0.0899193317858 -0.0071935465428598633
v -0.36327410041499997 0.1186935179572 -0.28594347507799966
v -0.36327410041499997 0.097112878328699997 -0.0071935465428598633
v -0.36327410041499997 0.082725785242999991 -0.28594347507799966
v -0.36327410041499997 0.082725785242999991 0.28594347507799966
v -0.36327410041499997 0.0899193317858 0.0071935465428598633
v -0.36327410041499997 0.1186935179572 0.28594347507799966
v -0.36327410041499997 0.097112878328699997 0.0071935465428598633
v -0.36327410041499997 0.1186935179572 -0.28594347507799966
v -0.37046764695799994 0.1186935179572 0.28594347507799966
v -0.36327410041499997 0.1186935179572 0.28594347507799966
v -0.37046764695799994 0.1186935179572 -0.28594347507799966
v -0.37046764695799994 0.082725785242999991 -0.28594347507799966
v -0.37046764695799994 0.1186935179572 -0.28594347507799966
v -0.36687087368649995 0.10070965160009999 -0.28594347507799966
v -0.36327410041499997 0.082725785242999991 -0.28594347507799966
v -0.36327410041499997 0.1186935179572 -0.28594347507799966
v -0.37046764695799994 0.082725785242999991 0.28594347507799966
v -0.37046764695799994 0.1186935179572 0.28594347507799966
v -0.36687087368649995 0.10070965160009999 0.28594347507799966
v -0.36327410041499997 0.082725785242999991 0.28594347507799966
v -0.36327410041499997 0.1186935179572 0.28594347507799966
v -0.36327410041499997 0.0899193317858 0.0071935465428598633
v -0.36327410041499997 0.097112878328699997 0.0071935465428598633
v -0.36327410041499997 0.093516105057249999 0
v -0.36327410041499997 0.0899193317858 -0.0071935465428598633
v -0.36327410041499997 0.097112878328699997 -0.0071935465428598633
vt 1.5748000144958496 9.0551204681396484
vt 64.173202514648438 12.992099761962891
vt 1.5748000144958496 12.992099761962891
vt 64.173202514648438 9.0551204681396484
vt -1.5748000144958496 0.1968500018119812
vt -64.173202514648438 0.98425197601318359
vt -64.173202514648438 0.1968500018119812
vt -1.5748000144958496 0.98425197601318359
vt -32.086601257324219 9.8425197601318359
vt -1.5748000144958496 12.992099761962891
vt -32.086601257324219 10.629899978637695
vt -1.5748000144958496 9.0551204681396484
vt -64.173202514648438 9.0551204681396484
vt -33.661399841308594 9.8425197601318359
vt -64.173202514648438 12.992099761962891
vt -33.661399841308594 10.629899978637695
vt 1.5748000144958496 0.98425197601318359
vt 64.173202514648438 0.1968500018119812
vt 64.173202514648438 0.98425197601318359
vt 1.5748000144958496 0.1968500018119812
vt 0 1
vt 0 0
vt 0.5 0.5
vt 1 1
vt 1 0
vt 1 0
vt 0 0
vt 0.5 0.5
vt 1 1
vt 0 1
vt 0 0
vt 0 1
vt 0.5 0.5
vt 1 0
vt 1 1
vn -1 0 0
vn -1 0 0
vn -1 0 0
vn -1 0 0
vn 0 -1 0
vn 0 -1 0
vn 0 -1 0
vn 0 -1 0
vn 1 0 0
vn 1 0 0
vn 1 0 0
vn 1 0 0
vn 1 0 0
vn 1 0 0
vn 1 0 0
vn 1 0 0
vn 0 1 0
vn 0 1 0
vn 0 1 0
vn 0 1 0
vn 0 0 -1
vn 0 0 -1
vn 0 0 -1
vn 0 0 -1
vn 0 0 -1
vn 0 0 1
vn 0 0 1
vn 0 0 1
vn 0 0 1
vn 0 0 1
vn 1 0 0
vn 1 0 0
vn 1 0 0
vn 1 0 0
vn 1 0 0
f 1/1/1 2/2/2 3/3/3
f 2/2/2 1/1/1 4/4/4
f 5/5/5 6/6/6 7/7/7
f 6/6/6 5/5/5 8/8/8
f 9/9/9 10/10/10 11/11/11
f 9/9/9 12/12/12 10/10/10
f 12/12/12 9/9/9 13/13/13
f 14/14/14 13/13/13 9/9/9
f 13/13/13 14/14/14 15/15/15
f 15/15/15 14/14/14 16/16/16
f 11/11/11 10/10/10 16/16/16
f 15/15/15 16/16/16 10/10/10
f 17/17/17 18/18/18 19/19/19
f 18/18/18 17/17/17 20/20/20
f 23/23/23 21/21/21 22/22/22
f 24/24/24 23/23/23 25/25/25
f 22/22/22 25/25/25 23/23/23
f 21/21/21 23/23/23 24/24/24
f 28/28/28 30/30/30 27/27/27
f 29/29/29 28/28/28 26/26/26
f 27/27/27 26/26/26 28/28/28
f 30/30/30 28/28/28 29/29/29
f 33/33/33 32/32/32 31/31/31
f 35/35/35 33/33/33 34/34/34
f 31/31/31 34/34/34 33/33/33
f 32/32/32 33/33/33 35/35/35
