# Rhino

mtllib BedSet_15_01.mtl
usemtl Default
v -0.33471389012300001 0.082004937724599991 -0.32969348762100026
v 0.33471440022699994 0.082004937724599991 -0.32969348762100026
v -0.33471389012300001 0.082004937724599991 -0.30124242884600072
v 0.33471440022699994 0.082004937724599991 -0.30124242884600072
v -0.33471389012300001 0.1004140012529 -0.30124242884600072
v 0.33471440022699994 0.1004140012529 -0.30124242884600072
v -0.33471389012300001 0.1004140012529 -0.32969348762100026
v 0.33471440022699994 0.1004140012529 -0.32969348762100026
v -0.33471389012300001 0.082004937724599991 -0.30124242884600072
v 0.33471440022699994 0.082004937724599991 -0.30124242884600072
v -0.33471389012300001 0.1004140012529 -0.30124242884600072
v 0.33471440022699994 0.1004140012529 -0.30124242884600072
v 0.33471440022699994 0.082004937724599991 -0.30124242884600072
v 0.33471440022699994 0.082004937724599991 -0.32969348762100026
v 0.33471440022699994 0.1004140012529 -0.30124242884600072
v 0.33471440022699994 0.1004140012529 -0.32969348762100026
v 0.33471440022699994 0.082004937724599991 -0.32969348762100026
v -0.33471389012300001 0.082004937724599991 -0.32969348762100026
v 0.33471440022699994 0.1004140012529 -0.32969348762100026
v -0.33471389012300001 0.1004140012529 -0.32969348762100026
v -0.33471389012300001 0.082004937724599991 -0.32969348762100026
v -0.33471389012300001 0.082004937724599991 -0.30124242884600072
v -0.33471389012300001 0.1004140012529 -0.32969348762100026
v -0.33471389012300001 0.1004140012529 -0.30124242884600072
vt 0 0
vt 1 0
vt 0 1
vt 1 1
vt 0 0
vt 1 0
vt 0 1
vt 1 1
vt 0 0
vt 1 0
vt 0 1
vt 1 1
vt 0 0
vt 1 0
vt 0 1
vt 1 1
vt 0 0
vt 1 0
vt 0 1
vt 1 1
vt 0 0
vt 1 0
vt 0 1
vt 1 1
vn 0 -1 0
vn 0 -1 0
vn 0 -1 0
vn 0 -1 0
vn 0 1 0
vn 0 1 0
vn 0 1 0
vn 0 1 0
vn 0 0 1
vn 0 0 1
vn 0 0 1
vn 0 0 1
vn 1 0 0
vn 1 0 0
vn 1 0 0
vn 1 0 0
vn 0 0 -1
vn 0 0 -1
vn 0 0 -1
vn 0 0 -1
vn -1 0 0
vn -1 0 0
vn -1 0 0
vn -1 0 0
f 1/1/1 2/2/2 4/4/4 3/3/3
f 5/5/5 6/6/6 8/8/8 7/7/7
f 9/9/9 10/10/10 12/12/12 11/11/11
f 13/13/13 14/14/14 16/16/16 15/15/15
f 17/17/17 18/18/18 20/20/20 19/19/19
f 21/21/21 22/22/22 24/24/24 23/23/23
