# Rhino

mtllib BedSet_08_23.mtl
usemtl Default
v 0.3353397202870001 0.10074784934599999 0.25238595609199965
v 0.3353397202870001 0.101272577728 0.25238595609199965
v 0.3353397202870001 0.101272577728 0.25868269667699995
v 0.3353397202870001 0.10074784934599999 0.25920742505900041
v 0.3353397202870001 0.10966823184039999 0.25920742505900041
v 0.3353397202870001 0.10966823184039999 0.25868269667699995
v 0.3353397202870001 0.10966823184039999 0.25920742505900041
v 0.3353397202870001 0.10966823184039999 0.25868269667699995
v -0.33523133239199998 0.10966823184039999 0.25868269667699995
v -0.33523133239199998 0.10966823184039999 0.25920742505900041
v 0.3353397202870001 0.10966823184039999 0.25920742505900041
v -0.33523133239199998 0.10966823184039999 0.25920742505900041
v -0.33523133239199998 0.10074784934599999 0.25920742505900041
v 0.3353397202870001 0.10074784934599999 0.25920742505900041
v 0.3353397202870001 0.10074784934599999 0.25238595609199965
v 0.3353397202870001 0.10074784934599999 0.25920742505900041
v -0.33523133239199998 0.10074784934599999 0.25920742505900041
v -0.33523133239199998 0.10074784934599999 0.25238595609199965
v 0.3353397202870001 0.10074784934599999 0.25238595609199965
v -0.33523133239199998 0.10074784934599999 0.25238595609199965
v -0.33523133239199998 0.101272577728 0.25238595609199965
v 0.3353397202870001 0.101272577728 0.25238595609199965
v 0.3353397202870001 0.101272577728 0.25868269667699995
v 0.3353397202870001 0.101272577728 0.25238595609199965
v -0.33523133239199998 0.101272577728 0.25238595609199965
v -0.33523133239199998 0.101272577728 0.25868269667699995
v 0.3353397202870001 0.101272577728 0.25868269667699995
v -0.33523133239199998 0.101272577728 0.25868269667699995
v -0.33523133239199998 0.10966823184039999 0.25868269667699995
v 0.3353397202870001 0.10966823184039999 0.25868269667699995
v -0.33523133239199998 0.10966823184039999 0.25920742505900041
v -0.33523133239199998 0.10966823184039999 0.25868269667699995
v -0.33523133239199998 0.101272577728 0.25868269667699995
v -0.33523133239199998 0.10074784934599999 0.25920742505900041
v -0.33523133239199998 0.101272577728 0.25238595609199965
v -0.33523133239199998 0.10074784934599999 0.25238595609199965
vt -0.0057870401069521904 0.015046300366520882
vt -0.0046296301297843456 0.015046300366520882
vt -0.0046296301297843456 0.0011574099771678448
vt -0.0057870401069521904 0
vt 0.01388890016824007 0
vt 0.01388890016824007 0.0011574099771678448
vt -1.5596400499343872 0
vt -1.5596400499343872 0.0011574099771678448
vt 0 0.0011574099771678448
vt 0 0
vt 1.5596400499343872 -0.01388890016824007
vt 0 -0.01388890016824007
vt 0 0.0057870401069521904
vt 1.5596400499343872 0.0057870401069521904
vt 1.5596400499343872 0.015046300366520882
vt 1.5596400499343872 0
vt 0 0
vt 0 0.015046300366520882
vt -1.5596400499343872 0.0057870401069521904
vt 0 0.0057870401069521904
vt 0 0.0046296301297843456
vt -1.5596400499343872 0.0046296301297843456
vt -1.5596400499343872 0.0011574099771678448
vt -1.5596400499343872 0.015046300366520882
vt 0 0.015046300366520882
vt 0 0.0011574099771678448
vt -1.5596400499343872 0.0046296301297843456
vt 0 0.0046296301297843456
vt 0 -0.01388890016824007
vt -1.5596400499343872 -0.01388890016824007
vt -0.01388890016824007 0
vt -0.01388890016824007 0.0011574099771678448
vt 0.0046296301297843456 0.0011574099771678448
vt 0.0057870401069521904 0
vt 0.0046296301297843456 0.015046300366520882
vt 0.0057870401069521904 0.015046300366520882
vn 1 0 0
vn 1 0 0
vn 1 0 0
vn 1 0 0
vn 1 0 0
vn 1 0 0
vn 0 1 0
vn 0 1 0
vn 0 1 0
vn 0 1 0
vn 0 0 1
vn 0 0 1
vn 0 0 1
vn 0 0 1
vn 0 -1 0
vn 0 -1 0
vn 0 -1 0
vn 0 -1 0
vn 0 0 -1
vn 0 0 -1
vn 0 0 -1
vn 0 0 -1
vn 0 1 0
vn 0 1 0
vn 0 1 0
vn 0 1 0
vn 0 0 -1
vn 0 0 -1
vn 0 0 -1
vn 0 0 -1
vn -1 0 0
vn -1 0 0
vn -1 0 0
vn -1 0 0
vn -1 0 0
vn -1 0 0
f 1/1/1 2/2/2 3/3/3
f 4/4/4 1/1/1 3/3/3
f 5/5/5 4/4/4 3/3/3
f 3/3/3 6/6/6 5/5/5
f 7/7/7 8/8/8 9/9/9
f 9/9/9 10/10/10 7/7/7
f 11/11/11 12/12/12 13/13/13
f 13/13/13 14/14/14 11/11/11
f 15/15/15 16/16/16 17/17/17
f 17/17/17 18/18/18 15/15/15
f 19/19/19 20/20/20 21/21/21
f 21/21/21 22/22/22 19/19/19
f 23/23/23 24/24/24 25/25/25
f 25/25/25 26/26/26 23/23/23
f 27/27/27 28/28/28 29/29/29
f 29/29/29 30/30/30 27/27/27
f 31/31/31 32/32/32 33/33/33
f 33/33/33 34/34/34 31/31/31
f 33/33/33 35/35/35 34/34/34
f 35/35/35 36/36/36 34/34/34
