# Rhino

mtllib BedSet_07_20.mtl
usemtl Default
v 0.35458585764299988 0.36749129383900003 0.014353724464999829
v 0.35458585764299988 0.30826547113899999 0.018960970154399792
v 0.35458585764299988 0.30826547113899999 0.014353724464999829
v 0.35458585764299988 0.36749129383900003 0.018960970154399792
v 0.35930600388399991 0.36749129383900003 0.018960970154399792
v 0.35458585764299988 0.30826547113899999 0.018960970154399792
v 0.35458585764299988 0.36749129383900003 0.018960970154399792
v 0.35930600388399991 0.30826547113899999 0.018960970154399792
v 0.35930600388399991 0.30826547113899999 0.018960970154399792
v 0.35930600388399991 0.36749129383900003 0.014353724464999829
v 0.35930600388399991 0.36749129383900003 0.018960970154399792
v 0.35930600388399991 0.30826547113899999 0.014353724464999829
vt -9.8039703369140625 3.3906199932098389
vt -9.8464803695678711 2.8441898822784424
vt -9.8039703369140625 2.8441898822784424
vt -9.8464803695678711 3.3906199932098389
vt -9.890040397644043 3.3906199932098389
vt -9.8464803695678711 2.8441898822784424
vt -9.8464803695678711 3.3906199932098389
vt -9.890040397644043 2.8441898822784424
vt -13.715800285339355 2.8441898822784424
vt -13.673299789428711 3.3906300067901611
vt -13.715800285339355 3.3906300067901611
vt -13.673299789428711 2.8441898822784424
vn 1 0 0
vn 1 0 0
vn 1 0 0
vn 1 0 0
vn 0 0 -1
vn 0 0 -1
vn 0 0 -1
vn 0 0 -1
vn 1 0 0
vn 1 0 0
vn 1 0 0
vn 1 0 0
f 1/1/1 2/2/2 3/3/3
f 2/2/2 1/1/1 4/4/4
f 5/5/5 6/6/6 7/7/7
f 6/6/6 5/5/5 8/8/8
f 9/9/9 10/10/10 11/11/11
f 10/10/10 9/9/9 12/12/12
