# Rhino

mtllib BedSet_11_41.mtl
usemtl Default
v 0.010295962830800143 0.10333100173899999 -0.25835679869200012
v 0.030744577782700233 0.10333100173899999 -0.25154059370799997
v 0.010295962830800143 0.10333100173899999 -0.25154059370799997
v 0.030744577782700233 0.10333100173899999 -0.25835679869200012
v 0.030744577782700233 0.10333100173899999 -0.27198920865999998
v 0.010295962830800143 0.10333100173899999 -0.27198920865999998
v 0.010295962830800143 0.10333100173899999 -0.25835679869200012
v 0.010295962830800143 0.11048801697199999 0.00065902477887302968
v 0.010295962830800143 0.10333100173899999 -0.27198920865999998
v 0.010295962830800143 0.10333100173899999 -0.25154059370799997
v 0.010295962830800143 0.10333100173899999 -0.01978959017289994
v 0.010295962830800143 0.10333100173899999 -0.012973385188999931
v 0.010295962830800143 0.10333100173899999 0.00065902477887302968
v 0.010295962830800143 0.10333100173899999 -0.012973385188999931
v 0.030744577782700233 0.10333100173899999 0.00065902477887302968
v 0.010295962830800143 0.10333100173899999 0.00065902477887302968
v 0.030744577782700233 0.10333100173899999 -0.012973385188999931
v 0.010295962830800143 0.10333100173899999 -0.01978959017289994
v 0.030744577782700233 0.10333100173899999 -0.01978959017289994
v 0.030744577782700233 0.10333100173899999 -0.25154059370799997
v 0.030744577782700233 0.11048801697199999 -0.27198920865999998
v 0.030744577782700233 0.10333100173899999 -0.01978959017289994
v 0.030744577782700233 0.10333100173899999 -0.25835679869200012
v 0.030744577782700233 0.10333100173899999 -0.27198920865999998
v 0.010295962830800143 0.10333100173899999 -0.27198920865999998
v 0.030744577782700233 0.11048801697199999 -0.27198920865999998
v 0.030744577782700233 0.10333100173899999 -0.27198920865999998
v 0.010295962830800143 0.11048801697199999 -0.27198920865999998
v 0.010295962830800143 0.11048801697199999 -0.27198920865999998
v 0.010295962830800143 0.11048801697199999 0.00065902477887302968
v 0.030744577782700233 0.11048801697199999 -0.27198920865999998
v 0.010295962830800143 0.11048801697199999 -0.27198920865999998
v 0.030744577782700233 0.11048801697199999 0.00065902477887302968
v 0.030744577782700233 0.10333100173899999 0.00065902477887302968
v 0.030744577782700233 0.11048801697199999 0.00065902477887302968
v 0.030744577782700233 0.10333100173899999 -0.012973385188999931
vt -0.16314500570297241 0.99655598402023315
vt -0.17626799643039703 1.0752999782562256
vt -0.17626799643039703 0.99655598402023315
vt -0.16314500570297241 1.0752999782562256
vt -0.13689799606800079 1.0752999782562256
vt -0.13689799606800079 0.99655598402023315
vt 0.16314500570297241 0.62899601459503174
vt 0.66183298826217651 0.65655601024627686
vt 0.13689799606800079 0.62899601459503174
vt 0.17626799643039703 0.62899601459503174
vt 0.62246298789978027 0.62899601459503174
vt 0.63558602333068848 0.62899601459503174
vt 0.66183298826217651 0.62899601459503174
vt -0.63558602333068848 0.99655598402023315
vt -0.66183298826217651 1.0752999782562256
vt -0.66183298826217651 0.99655598402023315
vt -0.63558602333068848 1.0752999782562256
vt -0.62246298789978027 0.99655598402023315
vt -0.62246298789978027 1.0752999782562256
vt -0.17626799643039703 0.62899601459503174
vt -0.13689799606800079 0.65655601024627686
vt -0.62246298789978027 0.62899601459503174
vt -0.16314500570297241 0.62899601459503174
vt -0.13689799606800079 0.62899601459503174
vt -0.49827799201011658 0.62899601459503174
vt -0.53764802217483521 0.65655601024627686
vt -0.53764802217483521 0.62899601459503174
vt -0.49827799201011658 0.65655601024627686
vt 0.13689799606800079 0.65655601024627686
vt 0.66183298826217651 0.99655598402023315
vt 0.13689799606800079 1.0752999782562256
vt 0.13689799606800079 0.99655598402023315
vt 0.66183298826217651 1.0752999782562256
vt -0.66183298826217651 0.62899601459503174
vt -0.66183298826217651 0.65655601024627686
vt -0.63558602333068848 0.62899601459503174
vn 0 -1 0
vn 0 -1 0
vn 0 -1 0
vn 0 -1 0
vn 0 -1 0
vn 0 -1 0
vn -1 0 0
vn -1 0 0
vn -1 0 0
vn -1 0 0
vn -1 0 0
vn -1 0 0
vn -1 0 0
vn 0 -1 0
vn 0 -1 0
vn 0 -1 0
vn 0 -1 0
vn 0 -1 0
vn 0 -1 0
vn 1 0 0
vn 1 0 0
vn 1 0 0
vn 1 0 0
vn 1 0 0
vn 0 0 -1
vn 0 0 -1
vn 0 0 -1
vn 0 0 -1
vn -1 0 0
vn 0 1 0
vn 0 1 0
vn 0 1 0
vn 0 1 0
vn 1 0 0
vn 1 0 0
vn 1 0 0
f 1/1/1 2/2/2 3/3/3
f 1/1/1 4/4/4 2/2/2
f 1/1/1 5/5/5 4/4/4
f 5/5/5 1/1/1 6/6/6
f 7/7/7 8/8/8 9/9/9
f 10/10/10 8/8/8 7/7/7
f 11/11/11 8/8/8 10/10/10
f 12/12/12 8/8/8 11/11/11
f 8/8/8 12/12/12 13/13/13
f 14/14/14 15/15/15 16/16/16
f 14/14/14 17/17/17 15/15/15
f 18/18/18 17/17/17 14/14/14
f 18/18/18 19/19/19 17/17/17
f 3/3/3 19/19/19 18/18/18
f 3/3/3 2/2/2 19/19/19
f 20/20/20 21/21/21 22/22/22
f 23/23/23 21/21/21 20/20/20
f 21/21/21 23/23/23 24/24/24
f 25/25/25 26/26/26 27/27/27
f 26/26/26 25/25/25 28/28/28
f 9/9/9 8/8/8 29/29/29
f 30/30/30 31/31/31 32/32/32
f 31/31/31 30/30/30 33/33/33
f 34/34/34 21/21/21 35/35/35
f 36/36/36 21/21/21 34/34/34
f 22/22/22 21/21/21 36/36/36
