# Rhino

mtllib BedSet_09_10.mtl
usemtl Default
v 0.20060504798599998 0.28492638091299999 -0.4124507077062729
v 0.19704242117300019 0.033505656933999997 -0.4124507077062729
v 0.20060504798599998 0.033505656933999997 -0.4124507077062729
v 0.20060504798599998 0.28492638091299999 -0.40966959915876977
v 0.19704242117300019 0.033505656933999997 -0.40966959915876977
v 0.20060504798599998 0.033505656933999997 -0.40966959915876977
v 0.028371869283600137 0.033505656933999997 -0.4124507077062729
v 0.028371869283600137 0.033505656933999997 -0.40966959915876977
v 0.028139768387899888 0.28487124502200001 -0.4124507077062729
v 0.028139768387899888 0.28487124502200001 -0.40966959915876977
v 0.20060504798599998 0.033505656933999997 -0.40966959915876977
v 0.20060504798599998 0.28492638091299999 -0.40966959915876977
v 0.20060504798599998 0.28492638091299999 -0.4124507077062729
v 0.20060504798599998 0.033505656933999997 -0.4124507077062729
v 0.20060504798599998 0.28492638091299999 -0.40966959915876977
v 0.028139768387899888 0.28487124502200001 -0.40966959915876977
v 0.028139768387899888 0.28487124502200001 -0.4124507077062729
v 0.20060504798599998 0.28492638091299999 -0.4124507077062729
v 0.19704242117300019 0.033505656933999997 -0.40966959915876977
v 0.20060504798599998 0.033505656933999997 -0.40966959915876977
v 0.20060504798599998 0.033505656933999997 -0.4124507077062729
v 0.19704242117300019 0.033505656933999997 -0.4124507077062729
v 0.028371869283600137 0.033505656933999997 -0.40966959915876977
v 0.19704242117300019 0.033505656933999997 -0.40966959915876977
v 0.19704242117300019 0.033505656933999997 -0.4124507077062729
v 0.028371869283600137 0.033505656933999997 -0.4124507077062729
v 0.028139768387899888 0.28487124502200001 -0.40966959915876977
v 0.028371869283600137 0.033505656933999997 -0.40966959915876977
v 0.028371869283600137 0.033505656933999997 -0.4124507077062729
v 0.028139768387899888 0.28487124502200001 -0.4124507077062729
vt 0.54235053062438965 0.54027074575424194
vt 0.54206329584121704 0.51236426830291748
vt 0.54235053062438965 0.51236426830291748
vt 0.54244625568389893 0.55887508392333984
vt 0.54187184572219849 0.50306212902069092
vt 0.54244625568389893 0.50306212902069092
vt 0.52383947372436523 0.51236426830291748
vt 0.51467972993850708 0.50306212902069092
vt 0.51928251981735229 0.54956483840942383
vt 0.51464229822158813 0.55886292457580566
vt 0.54244625568389893 0.50306212902069092
vt 0.54244625568389893 0.55887508392333984
vt 0.54235053062438965 0.54027074575424194
vt 0.54235053062438965 0.51236426830291748
vt 0.54244625568389893 0.55887508392333984
vt 0.51464229822158813 0.55886292457580566
vt 0.51928251981735229 0.54956483840942383
vt 0.54235053062438965 0.54027074575424194
vt 0.54187184572219849 0.50306212902069092
vt 0.54244625568389893 0.50306212902069092
vt 0.54235053062438965 0.51236426830291748
vt 0.54206329584121704 0.51236426830291748
vt 0.51467972993850708 0.50306212902069092
vt 0.54187184572219849 0.50306212902069092
vt 0.54206329584121704 0.51236426830291748
vt 0.52383947372436523 0.51236426830291748
vt 0.51464229822158813 0.55886292457580566
vt 0.51467972993850708 0.50306212902069092
vt 0.52383947372436523 0.51236426830291748
vt 0.51928251981735229 0.54956483840942383
vn 0 0 -1
vn 0 0 -1
vn 0 0 -1
vn 0 0 1
vn 0 0 1
vn 0 0 1
vn 0 0 -1
vn 0 0 1
vn 0 0 -1
vn 0 0 1
vn 1 0 0
vn 1 0 0
vn 1 0 0
vn 1 0 0
vn -0.0003196926845703274 0.99999994039535522 0
vn -0.0003196926845703274 0.99999994039535522 0
vn -0.0003196926845703274 0.99999994039535522 0
vn -0.0003196926845703274 0.99999994039535522 0
vn 0 -1 0
vn 0 -1 0
vn 0 -1 0
vn 0 -1 0
vn 0 -1 0
vn 0 -1 0
vn 0 -1 0
vn 0 -1 0
vn -0.99999958276748657 -0.00092335947556421161 0
vn -0.99999958276748657 -0.00092335947556421161 0
vn -0.99999958276748657 -0.00092335947556421161 0
vn -0.99999958276748657 -0.00092335947556421161 0
f 1/1/1 3/3/3 2/2/2
f 4/4/4 5/5/5 6/6/6
f 1/1/1 2/2/2 7/7/7
f 4/4/4 8/8/8 5/5/5
f 7/7/7 9/9/9 1/1/1
f 8/8/8 4/4/4 10/10/10
f 11/11/11 14/14/14 13/13/13 12/12/12
f 15/15/15 18/18/18 17/17/17 16/16/16
f 19/19/19 22/22/22 21/21/21 20/20/20
f 23/23/23 26/26/26 25/25/25 24/24/24
f 27/27/27 30/30/30 29/29/29 28/28/28
