# Rhino

mtllib BedSet_16_19.mtl
usemtl Default
v -0.011982145087600315 0.038086523983399997 -0.069101852151800092
v -0.011982145087600315 0.038086523983399997 -0.065092965392899993
v -0.011982145087600315 0.074067395524899993 -0.069101852151800092
v -0.011982145087600315 0.036883773964699995 -0.27757404252899986
v -0.011982145087600315 0.038086523983399997 -0.27757404252899986
v -0.011982145087600315 0.074067395524899993 -0.065092965392899993
v -0.011982145087600315 0.074331966932599997 -0.068833081197900103
v -0.011982145087600315 0.076072258858899997 -0.27757404252899986
v -0.011982145087600315 0.074555382788000002 -0.068528194147100097
v -0.011982145087600315 0.074734283454199996 -0.068196430000899921
v -0.011982145087600315 0.074864469384999993 -0.067842828214700113
v -0.011982145087600315 0.074943420852600001 -0.067473268153199983
v -0.011982145087600315 0.074970297948000003 -0.067097828727000097
v -0.011982145087600315 0.076072258858899997 -0.065092965392899993
v -0.011982145087600315 0.076072258858899997 -0.065092965392899993
v -0.011713374133799803 0.076335990357499994 -0.065092965392899993
v -0.011982145087600315 0.076072258858899997 -0.27757404252899986
v -0.011982145087600315 0.076072258858899997 -0.065092965392899993
v -0.011982145087600315 0.074067395524899993 -0.065092965392899993
v -0.011713374133799803 0.076335990357499994 -0.065092965392899993
v -0.011982145087600315 0.074331966932599997 -0.065362576255999949
v -0.011982145087600315 0.074555382788000002 -0.0656657834883001
v -0.011982145087600315 0.038086523983399997 -0.27757404252899986
v -0.011713374133799803 0.076335990357499994 -0.27757404252899986
v -0.011982145087600315 0.036883773964699995 -0.27757404252899986
v -0.011982145087600315 0.076072258858899997 -0.27757404252899986
v -0.011713374133799803 0.076335990357499994 -0.27757404252899986
v -0.011713374133799803 0.076335990357499994 -0.065092965392899993
v -0.011409326992199986 0.076560246122099995 -0.065092965392899993
v -0.011713374133799803 0.076335990357499994 -0.27757404252899986
v -0.011982145087600315 0.036883773964699995 -0.065092965392899993
v -0.011409326992199986 0.076560246122099995 -0.065092965392899993
v -0.011982145087600315 0.038086523983399997 -0.065092965392899993
v -0.011982145087600315 0.036883773964699995 -0.065092965392899993
v -0.011982145087600315 0.036883773964699995 -0.27757404252899986
v -0.0079732583287004388 0.036883773964699995 -0.27757404252899986
v -0.011982145087600315 0.036883773964699995 -0.065092965392899993
v -0.0079732583287004388 0.036883773964699995 -0.27757404252899986
v -0.0079732583287004388 0.076072258858899997 -0.27757404252899986
v -0.0082428691917799668 0.076335990357499994 -0.27757404252899986
v -0.0079732583287004388 0.076072258858899997 -0.27757404252899986
v -0.0082428691917799668 0.076335990357499994 -0.27757404252899986
v -0.0079732583287004388 0.076072258858899997 -0.065092965392899993
v -0.0082428691917799668 0.076335990357499994 -0.065092965392899993
v -0.0082428691917799668 0.076335990357499994 -0.065092965392899993
v -0.0079732583287004388 0.076072258858899997 -0.065092965392899993
v -0.0085469163333602438 0.076560246122099995 -0.065092965392899993
v -0.0088786804796203711 0.076738306879099993 -0.065092965392899993
v -0.0092331221749804016 0.076868492809899991 -0.065092965392899993
v -0.009601842327399801 0.076948284186699994 -0.065092965392899993
v -0.0099781216628400671 0.076974321372900001 -0.065092965392899993
v -0.010354400998299873 0.076948284186699994 -0.065092965392899993
v -0.010723121150600257 0.076868492809899991 -0.065092965392899993
v -0.011077562846000255 0.076738306879099993 -0.065092965392899993
v -0.011409326992199986 0.076560246122099995 -0.065092965392899993
v -0.011077562846000255 0.076738306879099993 -0.065092965392899993
v -0.011409326992199986 0.076560246122099995 -0.27757404252899986
v -0.011077562846000255 0.076738306879099993 -0.27757404252899986
v -0.011409326992199986 0.076560246122099995 -0.27757404252899986
v -0.011077562846000255 0.076738306879099993 -0.27757404252899986
v -0.010723121150600257 0.076868492809899991 -0.27757404252899986
v -0.011077562846000255 0.076738306879099993 -0.27757404252899986
v -0.011077562846000255 0.076738306879099993 -0.065092965392899993
v -0.010723121150600257 0.076868492809899991 -0.27757404252899986
v -0.010723121150600257 0.076868492809899991 -0.065092965392899993
v -0.010723121150600257 0.076868492809899991 -0.065092965392899993
v -0.010354400998299873 0.076948284186699994 -0.065092965392899993
v -0.010723121150600257 0.076868492809899991 -0.27757404252899986
v -0.010354400998299873 0.076948284186699994 -0.27757404252899986
v -0.010354400998299873 0.076948284186699994 -0.27757404252899986
v -0.0099781216628400671 0.076974321372900001 -0.27757404252899986
v -0.0099781216628400671 0.076974321372900001 -0.27757404252899986
v -0.010354400998299873 0.076948284186699994 -0.27757404252899986
v -0.0099781216628400671 0.076974321372900001 -0.065092965392899993
v -0.010354400998299873 0.076948284186699994 -0.065092965392899993
v -0.0099781216628400671 0.076974321372900001 -0.27757404252899986
v -0.0099781216628400671 0.076974321372900001 -0.065092965392899993
v -0.009601842327399801 0.076948284186699994 -0.27757404252899986
v -0.009601842327399801 0.076948284186699994 -0.065092965392899993
v -0.009601842327399801 0.076948284186699994 -0.065092965392899993
v -0.0092331221749804016 0.076868492809899991 -0.065092965392899993
v -0.009601842327399801 0.076948284186699994 -0.27757404252899986
v -0.0092331221749804016 0.076868492809899991 -0.27757404252899986
v -0.009601842327399801 0.076948284186699994 -0.27757404252899986
v -0.0092331221749804016 0.076868492809899991 -0.27757404252899986
v -0.0088786804796203711 0.076738306879099993 -0.27757404252899986
v -0.0092331221749804016 0.076868492809899991 -0.27757404252899986
v -0.0092331221749804016 0.076868492809899991 -0.065092965392899993
v -0.0088786804796203711 0.076738306879099993 -0.27757404252899986
v -0.0088786804796203711 0.076738306879099993 -0.065092965392899993
v -0.0088786804796203711 0.076738306879099993 -0.065092965392899993
v -0.0085469163333602438 0.076560246122099995 -0.065092965392899993
v -0.0088786804796203711 0.076738306879099993 -0.27757404252899986
v -0.0085469163333602438 0.076560246122099995 -0.27757404252899986
v -0.0085469163333602438 0.076560246122099995 -0.27757404252899986
v -0.0082428691917799668 0.076335990357499994 -0.27757404252899986
v -0.0085469163333602438 0.076560246122099995 -0.27757404252899986
v -0.0082428691917799668 0.076335990357499994 -0.065092965392899993
v -0.0085469163333602438 0.076560246122099995 -0.065092965392899993
v -0.011409326992199986 0.076560246122099995 -0.27757404252899986
v -0.0079732583287004388 0.036883773964699995 -0.065092965392899993
v -0.0079732583287004388 0.036883773964699995 -0.065092965392899993
v -0.0079732583287004388 0.036883773964699995 -0.27757404252899986
v -0.0079732583287004388 0.076072258858899997 -0.065092965392899993
v -0.0079732583287004388 0.036883773964699995 -0.065092965392899993
v -0.0079732583287004388 0.076072258858899997 -0.27757404252899986
v -0.011982145087600315 0.074734283454199996 -0.065998387543700021
v -0.011982145087600315 0.074864469384999993 -0.066351989329900052
v -0.011982145087600315 0.074943420852600001 -0.066720709482299911
vt -20.472400665283203 0.90549999475479126
vt -20.866100311279297 0.90549999475479126
vt -20.472400665283203 4.439000129699707
vt 0 0.7874000072479248
vt 0 0.90549999475479126
vt -20.866100311279297 4.439000129699707
vt -20.498899459838867 4.464900016784668
vt 0 4.6357998847961426
vt -20.52869987487793 4.4868001937866211
vt -20.561399459838867 4.5043997764587402
vt -20.596099853515625 4.5171999931335449
vt -20.632299423217773 4.5250000953674316
vt -20.669300079345703 4.5275998115539551
vt -20.866100311279297 4.6357998847961426
vt -20.866100311279297 12.905900001525879
vt -20.866100311279297 12.942899703979492
vt 0 12.905900001525879
vt -13.527999877929688 4.6357998847961426
vt -13.527999877929688 4.439000129699707
vt -13.554400444030762 4.6616997718811035
vt -20.839700698852539 4.464900016784668
vt -20.809900283813477 4.4868001937866211
vt 13.527999877929688 0.90549999475479126
vt 13.554400444030762 4.6616997718811035
vt 13.527999877929688 0.7874000072479248
vt 13.527999877929688 4.6357998847961426
vt 0 12.942899703979492
vt -20.866100311279297 13.680000305175781
vt -20.866100311279297 13.717000007629395
vt 0 13.680000305175781
vt -13.527999877929688 0.7874000072479248
vt -13.58430004119873 4.6837000846862793
vt -13.527999877929688 0.90549999475479126
vt -20.866100311279297 0.7874000072479248
vt 0 -13.527999877929688
vt 0 -13.921699523925781
vt -20.866100311279297 -13.527999877929688
vt 13.921699523925781 0.7874000072479248
vt 13.921699523925781 4.6357998847961426
vt 13.895199775695801 4.6616997718811035
vt 0 -6.6968002319335938
vt 0 -6.6598000526428223
vt 20.866100311279297 -6.6968002319335938
vt 20.866100311279297 -6.6598000526428223
vt -13.895199775695801 4.6616997718811035
vt -13.921699523925781 4.6357998847961426
vt -13.865400314331055 4.6837000846862793
vt -13.832799911499023 4.701200008392334
vt -13.798000335693359 4.7140002250671387
vt -13.761799812316895 4.7217998504638672
vt -13.724800109863281 4.7244000434875488
vt -13.687899589538574 4.7217998504638672
vt -13.651700019836426 4.7140002250671387
vt -13.616900444030762 4.701200008392334
vt -20.866100311279297 14.182299613952637
vt -20.866100311279297 14.219300270080566
vt 0 14.182299613952637
vt 0 14.219300270080566
vt 13.58430004119873 4.6837000846862793
vt 13.616900444030762 4.701200008392334
vt 13.651700019836426 4.7140002250671387
vt 0 14.402700424194336
vt -20.866100311279297 14.402700424194336
vt 0 14.439800262451172
vt -20.866100311279297 14.439800262451172
vt -20.866100311279297 14.336999893188477
vt -20.866100311279297 14.374099731445312
vt 0 14.336999893188477
vt 0 14.374099731445312
vt 13.687899589538574 4.7217998504638672
vt 13.724800109863281 4.7244000434875488
vt 0 14.023500442504883
vt 0 13.986499786376953
vt -20.866100311279297 14.023500442504883
vt -20.866100311279297 13.986499786376953
vt 0 -13.357999801635742
vt 20.866100311279297 -13.357999801635742
vt 0 -13.395000457763672
vt 20.866100311279297 -13.395000457763672
vt 20.866100311279297 -12.464099884033203
vt 20.866100311279297 -12.501099586486816
vt 0 -12.464099884033203
vt 0 -12.501099586486816
vt 13.761799812316895 4.7217998504638672
vt 13.798000335693359 4.7140002250671387
vt 13.832799911499023 4.701200008392334
vt 0 -11.322500228881836
vt 20.866100311279297 -11.322500228881836
vt 0 -11.359499931335449
vt 20.866100311279297 -11.359499931335449
vt 20.866100311279297 -9.9558000564575195
vt 20.866100311279297 -9.9928998947143555
vt 0 -9.9558000564575195
vt 0 -9.9928998947143555
vt 13.865400314331055 4.6837000846862793
vt 0 -8.4282999038696289
vt 0 -8.391200065612793
vt 20.866100311279297 -8.4282999038696289
vt 20.866100311279297 -8.391200065612793
vt 0 13.717000007629395
vt -13.921699523925781 0.7874000072479248
vt 20.866100311279297 0.7874000072479248
vt 0 0.7874000072479248
vt 20.866100311279297 4.6357998847961426
vt -20.866100311279297 -13.921699523925781
vt 0 4.6357998847961426
vt -20.777200698852539 4.5043997764587402
vt -20.742500305175781 4.5171999931335449
vt -20.706199645996094 4.5250000953674316
vn -1 0 0
vn -1 0 0
vn -1 0 0
vn -1 0 0
vn -1 0 0
vn -1 0 0
vn -1 0 0
vn -1 0 0
vn -1 0 0
vn -1 0 0
vn -1 0 0
vn -1 0 0
vn -1 0 0
vn -1 0 0
vn -0.70038354396820068 0.71376669406890869 0
vn -0.70038354396820068 0.71376669406890869 0
vn -0.70038354396820068 0.71376669406890869 0
vn 0 0 1
vn 0 0 1
vn 0 0 1
vn -1 0 0
vn -1 0 0
vn 0 0 -1
vn 0 0 -1
vn 0 0 -1
vn 0 0 -1
vn -0.70038354396820068 0.71376669406890869 0
vn -0.59357815980911255 0.80477637052536011 0
vn -0.59357815980911255 0.80477637052536011 0
vn -0.59357815980911255 0.80477637052536011 0
vn 0 0 1
vn 0 0 1
vn 0 0 1
vn -1 0 0
vn 0 -1 0
vn 0 -1 0
vn 0 -1 0
vn 0 0 -1
vn 0 0 -1
vn 0 0 -1
vn 0.69926941394805908 0.71485823392868042 0
vn 0.69926941394805908 0.71485823392868042 0
vn 0.69926941394805908 0.71485823392868042 0
vn 0.69926941394805908 0.71485823392868042 0
vn 0 0 1
vn 0 0 1
vn 0 0 1
vn 0 0 1
vn 0 0 1
vn 0 0 1
vn 0 0 1
vn 0 0 1
vn 0 0 1
vn 0 0 1
vn -0.47290217876434326 0.8811149001121521 0
vn -0.47290217876434326 0.8811149001121521 0
vn -0.47290217876434326 0.8811149001121521 0
vn -0.47290217876434326 0.8811149001121521 0
vn 0 0 -1
vn 0 0 -1
vn 0 0 -1
vn -0.34477746486663818 0.93868446350097656 0
vn -0.34477746486663818 0.93868446350097656 0
vn -0.34477746486663818 0.93868446350097656 0
vn -0.34477746486663818 0.93868446350097656 0
vn -0.21150524914264679 0.97737687826156616 0
vn -0.21150524914264679 0.97737687826156616 0
vn -0.21150524914264679 0.97737687826156616 0
vn -0.21150524914264679 0.97737687826156616 0
vn 0 0 -1
vn 0 0 -1
vn -0.069031357765197754 0.99761450290679932 0
vn -0.069031357765197754 0.99761450290679932 0
vn -0.069031357765197754 0.99761450290679932 0
vn -0.069031357765197754 0.99761450290679932 0
vn 0.069031357765197754 0.99761450290679932 0
vn 0.069031357765197754 0.99761450290679932 0
vn 0.069031357765197754 0.99761450290679932 0
vn 0.069031357765197754 0.99761450290679932 0
vn 0.21150524914264679 0.97737687826156616 0
vn 0.21150524914264679 0.97737687826156616 0
vn 0.21150524914264679 0.97737687826156616 0
vn 0.21150524914264679 0.97737687826156616 0
vn 0 0 -1
vn 0 0 -1
vn 0 0 -1
vn 0.34477746486663818 0.93868446350097656 0
vn 0.34477746486663818 0.93868446350097656 0
vn 0.34477746486663818 0.93868446350097656 0
vn 0.34477746486663818 0.93868446350097656 0
vn 0.47290217876434326 0.8811149001121521 0
vn 0.47290217876434326 0.8811149001121521 0
vn 0.47290217876434326 0.8811149001121521 0
vn 0.47290217876434326 0.8811149001121521 0
vn 0 0 -1
vn 0.59357815980911255 0.80477637052536011 0
vn 0.59357815980911255 0.80477637052536011 0
vn 0.59357815980911255 0.80477637052536011 0
vn 0.59357815980911255 0.80477637052536011 0
vn -0.59357815980911255 0.80477637052536011 0
vn 0 0 1
vn 1 0 0
vn 1 0 0
vn 1 0 0
vn 0 -1 0
vn 1 0 0
vn -1 0 0
vn -1 0 0
vn -1 0 0
f 1/1/1 2/2/2 3/3/3
f 1/1/1 4/4/4 2/2/2
f 4/4/4 1/1/1 5/5/5
f 1/1/1 3/3/3 5/5/5
f 6/6/6 3/3/3 2/2/2
f 7/7/7 3/3/3 6/6/6
f 7/7/7 8/8/8 3/3/3
f 9/9/9 8/8/8 7/7/7
f 10/10/10 8/8/8 9/9/9
f 11/11/11 8/8/8 10/10/10
f 12/12/12 8/8/8 11/11/11
f 13/13/13 8/8/8 12/12/12
f 14/14/14 8/8/8 13/13/13
f 15/15/15 16/16/16 17/17/17
f 18/18/18 19/19/19 20/20/20
f 6/6/6 14/14/14 21/21/21
f 22/22/22 21/21/21 14/14/14
f 22/22/22 9/9/9 21/21/21
f 10/10/10 9/9/9 22/22/22
f 21/21/21 7/7/7 6/6/6
f 9/9/9 7/7/7 21/21/21
f 23/23/23 24/24/24 25/25/25
f 24/24/24 23/23/23 26/26/26
f 8/8/8 5/5/5 3/3/3
f 27/27/27 17/17/17 16/16/16
f 28/28/28 29/29/29 30/30/30
f 20/20/20 31/31/31 32/32/32
f 33/33/33 31/31/31 20/20/20
f 34/34/34 2/2/2 4/4/4
f 35/35/35 36/36/36 37/37/37
f 38/38/38 25/25/25 39/39/39
f 40/40/40 39/39/39 25/25/25
f 41/41/41 42/42/42 43/43/43
f 44/44/44 43/43/43 42/42/42
f 45/45/45 31/31/31 46/46/46
f 47/47/47 31/31/31 45/45/45
f 48/48/48 31/31/31 47/47/47
f 49/49/49 31/31/31 48/48/48
f 50/50/50 31/31/31 49/49/49
f 51/51/51 31/31/31 50/50/50
f 52/52/52 31/31/31 51/51/51
f 53/53/53 31/31/31 52/52/52
f 54/54/54 31/31/31 53/53/53
f 32/32/32 31/31/31 54/54/54
f 55/55/55 56/56/56 57/57/57
f 58/58/58 57/57/57 56/56/56
f 59/59/59 60/60/60 25/25/25
f 60/60/60 61/61/61 25/25/25
f 62/62/62 63/63/63 64/64/64
f 65/65/65 64/64/64 63/63/63
f 66/66/66 67/67/67 68/68/68
f 69/69/69 68/68/68 67/67/67
f 61/61/61 70/70/70 25/25/25
f 70/70/70 71/71/71 25/25/25
f 72/72/72 73/73/73 74/74/74
f 75/75/75 74/74/74 73/73/73
f 76/76/76 77/77/77 78/78/78
f 79/79/79 78/78/78 77/77/77
f 80/80/80 81/81/81 82/82/82
f 83/83/83 82/82/82 81/81/81
f 84/84/84 85/85/85 25/25/25
f 85/85/85 86/86/86 25/25/25
f 87/87/87 88/88/88 89/89/89
f 90/90/90 89/89/89 88/88/88
f 91/91/91 92/92/92 93/93/93
f 94/94/94 93/93/93 92/92/92
f 86/86/86 95/95/95 25/25/25
f 95/95/95 40/40/40 25/25/25
f 96/96/96 97/97/97 98/98/98
f 99/99/99 98/98/98 97/97/97
f 71/71/71 84/84/84 25/25/25
f 24/24/24 59/59/59 25/25/25
f 100/100/100 30/30/30 29/29/29
f 101/101/101 46/46/46 31/31/31
f 102/102/102 103/103/103 104/104/104
f 105/105/105 37/37/37 36/36/36
f 106/106/106 104/104/104 103/103/103
f 33/33/33 20/20/20 19/19/19
f 11/11/11 10/10/10 107/107/107
f 107/107/107 10/10/10 22/22/22
f 107/107/107 22/22/22 14/14/14
f 108/108/108 107/107/107 14/14/14
f 108/108/108 11/11/11 107/107/107
f 12/12/12 11/11/11 108/108/108
f 109/109/109 12/12/12 108/108/108
f 13/13/13 12/12/12 109/109/109
f 13/13/13 109/109/109 14/14/14
f 109/109/109 108/108/108 14/14/14
