# Rhino

mtllib BedSet_09_04.mtl
usemtl Default
v -0.20176184139599984 0.12328095513652915 0.39578576338299953
v 0.18775626473600004 0.12328095513652915 -0.39578514840600043
v -0.20176184139599984 0.12328095513652915 -0.39578514840600043
v -0.20176184139599984 0.13821083485139998 0.39578576338299953
v 0.18775626473600004 0.13821083485139998 -0.39578514840600043
v -0.20176184139599984 0.13821083485139998 -0.39578514840600043
v 0.18775626473600004 0.12328095513652915 0.39578576338299953
v 0.18775626473600004 0.13821083485139998 0.39578576338299953
v -0.20176184139599984 0.13821083485139998 -0.39578514840600043
v -0.20176184139599984 0.13821083485139998 0.39578576338299953
v -0.20176184139599984 0.12328095513652915 0.39578576338299953
v -0.20176184139599984 0.12328095513652915 -0.39578514840600043
v -0.20176184139599984 0.13821083485139998 0.39578576338299953
v 0.18775626473600004 0.13821083485139998 0.39578576338299953
v 0.18775626473600004 0.12328095513652915 0.39578576338299953
v -0.20176184139599984 0.12328095513652915 0.39578576338299953
v 0.18775626473600004 0.13821083485139998 -0.39578514840600043
v -0.20176184139599984 0.13821083485139998 -0.39578514840600043
v -0.20176184139599984 0.12328095513652915 -0.39578514840600043
v 0.18775626473600004 0.12328095513652915 -0.39578514840600043
v 0.18775626473600004 0.13821083485139998 0.39578576338299953
v 0.18775626473600004 0.13821083485139998 -0.39578514840600043
v 0.18775626473600004 0.12328095513652915 -0.39578514840600043
v 0.18775626473600004 0.12328095513652915 0.39578576338299953
vt 0.66666668653488159 0.1666666716337204
vt 0.1666666716337204 0.66666668653488159
vt 0.1666666716337204 0.1666666716337204
vt 1 0
vt 0 1
vt 0 0
vt 0.83333331346511841 0.83333331346511841
vt 1 1
vt 0 0
vt 1 0
vt 0.66666668653488159 0.1666666716337204
vt 0.1666666716337204 0.1666666716337204
vt 1 0
vt 1 1
vt 0.83333331346511841 0.83333331346511841
vt 0.66666668653488159 0.1666666716337204
vt 0 1
vt 0 0
vt 0.1666666716337204 0.1666666716337204
vt 0.1666666716337204 0.66666668653488159
vt 1 1
vt 0 1
vt 0.1666666716337204 0.66666668653488159
vt 0.83333331346511841 0.83333331346511841
vn 0 -1 0
vn 0 -1 0
vn 0 -1 0
vn 0 1 0
vn 0 1 0
vn 0 1 0
vn 0 -1 0
vn 0 1 0
vn -1 0 0
vn -1 0 0
vn -1 0 0
vn -1 0 0
vn 0 0 1
vn 0 0 1
vn 0 0 1
vn 0 0 1
vn 0 0 -1
vn 0 0 -1
vn 0 0 -1
vn 0 0 -1
vn 1 0 0
vn 1 0 0
vn 1 0 0
vn 1 0 0
f 1/1/1 3/3/3 2/2/2
f 4/4/4 5/5/5 6/6/6
f 2/2/2 7/7/7 1/1/1
f 5/5/5 4/4/4 8/8/8
f 9/9/9 12/12/12 11/11/11 10/10/10
f 13/13/13 16/16/16 15/15/15 14/14/14
f 17/17/17 20/20/20 19/19/19 18/18/18
f 21/21/21 24/24/24 23/23/23 22/22/22
