# Rhino

mtllib BedSet_07_18.mtl
usemtl Default
v -0.359870506639 0.058112081342999999 0.27144905302700018
v -0.359870506639 0.2251128604457 0.27144905302700018
v -0.35874150112800018 0.058112081342999999 0.27144905302700018
v -0.35874150112800018 0.2251128604457 0.27144905302700018
v -0.359870506639 0.2251128604457 -0.27210586327199993
v -0.35874150112800018 0.058112081342999999 -0.27210586327199993
v -0.35874150112800018 0.2251128604457 -0.27210586327199993
v -0.359870506639 0.058112081342999999 -0.27210586327199993
v -0.359870506639 0.23969328921720001 0.27144905302700018
v -0.35411170242399992 0.23969328921720001 -0.27210586327199993
v -0.359870506639 0.23969328921720001 -0.27210586327199993
v -0.35411170242399992 0.23969328921720001 0.27144905302700018
v -0.359870506639 0.2251128604457 -0.27210586327199993
v -0.35874150112800018 0.2251128604457 0.27144905302700018
v -0.359870506639 0.2251128604457 0.27144905302700018
v -0.35874150112800018 0.2251128604457 -0.27210586327199993
v -0.359870506639 0.058112081342999999 0.27144905302700018
v -0.35874150112800018 0.058112081342999999 -0.27210586327199993
v -0.359870506639 0.058112081342999999 -0.27210586327199993
v -0.35874150112800018 0.058112081342999999 0.27144905302700018
v -0.36099951214999981 0.068397863470999992 0.26116336121899986
v -0.36099951214999981 0.068397863470999992 -0.26182008114500022
v -0.36099951214999981 0.214827168638 0.26116336121899986
v -0.36099951214999981 0.068397863470999992 -0.26182008114500022
v -0.36099951214999981 0.068397863470999992 0.26116336121899986
v -0.36099951214999981 0.214827168638 -0.26182008114500022
v -0.36099951214999981 0.214827168638 -0.26182008114500022
v -0.36099951214999981 0.214827168638 0.26116336121899986
v -0.35874150112800018 0.2251128604457 -0.27210586327199993
v -0.36099951214999981 0.068397863470999992 0.26116336121899986
v -0.35874150112800018 0.058112081342999999 0.27144905302700018
v -0.359870506639 0.043531833212999999 -0.27210586327199993
v -0.359870506639 0.043525239820000006 0.27144905302700018
v -0.3529826969130001 0.043531833212999999 -0.27210586327199993
v -0.359870506639 0.043531833212999999 -0.27210586327199993
v -0.35524070793599982 0.12210420402859999 0.27144905302700018
v -0.3529826969130001 0.19848458806486 0.26116336121899986
v -0.35524070793599982 0.22445623084049998 0.27144905302700018
v -0.3529826969130001 0.12210420402859999 0.26116336121899986
v -0.3529826969130001 0.12210420402859999 0.27144905302700018
v -0.3529826969130001 0.12210420402859999 0.27144905302700018
v -0.3529826969130001 0.19848458806486 0.27144905302700018
v -0.35411170242399992 0.22445623084049998 0.27144905302700018
v -0.35411170242399992 0.22445623084049998 -0.27210586327199993
v -0.35524070793599982 0.22445623084049998 -0.27210586327199993
v -0.3529826969130001 0.21417053903280001 0.26116336121899986
v -0.3529826969130001 0.21417053903280001 -0.26182008114500022
v -0.3529826969130001 0.19848458806486 0.26116336121899986
v -0.3529826969130001 0.21417053903280001 -0.26182008114500022
v -0.3529826969130001 0.21417053903280001 0.26116336121899986
v -0.3529826969130001 0.19848458806486 -0.26182008114500022
v -0.3529826969130001 0.19848458806486 -0.26182008114500022
v -0.3529826969130001 0.12210420402859999 -0.26182008114500022
v -0.35524070793599982 0.12210420402859999 -0.27210586327199993
v -0.3529826969130001 0.12210420402859999 -0.27210586327199993
v -0.3529826969130001 0.19848458806486 -0.27210586327199993
v -0.3529826969130001 0.19848458806486 -0.26182008114500022
v -0.359870506639 0.23969328921720001 0.27144905302700018
v -0.35411170242399992 0.23969328921720001 -0.27210586327199993
v -0.359870506639 0.23969328921720001 -0.27210586327199993
v -0.35411170242399992 0.23969328921720001 0.27144905302700018
v -0.359870506639 0.2251128604457 -0.27210586327199993
v -0.35874150112800018 0.2251128604457 0.27144905302700018
v -0.359870506639 0.2251128604457 0.27144905302700018
v -0.35874150112800018 0.2251128604457 -0.27210586327199993
v -0.359870506639 0.058112081342999999 0.27144905302700018
v -0.35874150112800018 0.058112081342999999 -0.27210586327199993
v -0.359870506639 0.058112081342999999 -0.27210586327199993
v -0.35874150112800018 0.058112081342999999 0.27144905302700018
v -0.36099951214999981 0.068397863470999992 0.26116336121899986
v -0.35874150112800018 0.058112081342999999 -0.27210586327199993
v -0.36099951214999981 0.068397863470999992 -0.26182008114500022
v -0.35874150112800018 0.2251128604457 0.27144905302700018
v -0.36099951214999981 0.214827168638 -0.26182008114500022
v -0.36099951214999981 0.214827168638 0.26116336121899986
v -0.35874150112800018 0.2251128604457 -0.27210586327199993
v -0.359870506639 0.043525239820000006 0.27144905302700018
v -0.35524070793599982 0.12210420402859999 0.27144905302700018
v -0.3529826969130001 0.19848458806486 0.26116336121899986
v -0.35524070793599982 0.22445623084049998 0.27144905302700018
v -0.3529826969130001 0.12210420402859999 0.26116336121899986
v -0.3529826969130001 0.21417053903280001 0.26116336121899986
v -0.3529826969130001 0.12210420402859999 0.26116336121899986
v -0.35411170242399992 0.22445623084049998 0.27144905302700018
v -0.35411170242399992 0.22445623084049998 -0.27210586327199993
v -0.35524070793599982 0.22445623084049998 -0.27210586327199993
v -0.35524070793599982 0.22445623084049998 0.27144905302700018
v -0.35524070793599982 0.22445623084049998 -0.27210586327199993
v -0.3529826969130001 0.21417053903280001 -0.26182008114500022
v -0.3529826969130001 0.12210420402859999 -0.26182008114500022
v -0.35524070793599982 0.12210420402859999 -0.27210586327199993
v -0.3529826969130001 0.12210420402859999 -0.26182008114500022
v -0.3529826969130001 0.12210420402859999 -0.27210586327199993
vt -6.9324898719787598 0.53616601228713989
vt -6.9324898719787598 2.0769801139831543
vt -6.9429101943969727 0.53616601228713989
vt -6.9429101943969727 2.0769801139831543
vt -7.1844301223754883 2.0769801139831543
vt -7.1740097999572754 0.53616601228713989
vt -7.1740097999572754 2.0769801139831543
vt -7.1844301223754883 0.53616601228713989
vt -1.9204200506210327 0.010416699573397636
vt -6.9354901313781738 0.063549801707267761
vt -6.9354901313781738 0.010416699573397636
vt -1.9204200506210327 0.063549801707267761
vt -6.9354901313781738 2.0769801139831543
vt -1.9204200506210327 2.0665700435638428
vt -1.9204200506210327 2.0769801139831543
vt -6.9354901313781738 2.0665700435638428
vt -1.9204200506210327 0.53616601228713989
vt -6.9354901313781738 0.54658299684524536
vt -6.9354901313781738 0.53616601228713989
vt -1.9204200506210327 0.54658299684524536
vt -2.0153200626373291 0.61638897657394409
vt -6.8405799865722656 0.61638897657394409
vt -2.0153200626373291 1.9820799827575684
vt -6.8405799865722656 0.63106697797775269
vt -2.0153200626373291 0.63106697797775269
vt -6.8405799865722656 1.9820799827575684
vt -6.8405799865722656 1.935979962348938
vt -2.0153200626373291 1.935979962348938
vt -7.1740097999572754 2.0769801139831543
vt -7.0400700569152832 0.63106697797775269
vt -1.9204200506210327 0.51922798156738281
vt -6.9354901313781738 0.40164300799369812
vt -1.9204200506210327 0.40158200263977051
vt -6.9354801177978516 0.4651930034160614
vt -6.9354901313781738 0.40164300799369812
vt -6.9752101898193359 1.1265900135040283
vt -6.8780498504638672 1.8313000202178955
vt -6.9752101898193359 2.0709199905395508
vt -6.8780498504638672 1.1265900135040283
vt -6.9707398414611816 1.1062400341033936
vt -12.086199760437012 1.1265900135040283
vt -12.086199760437012 1.8313000202178955
vt -1.9204200506210327 0.20413500070571899
vt -6.9354901313781738 0.20413500070571899
vt -6.9354901313781738 0.21455100178718567
vt -12.062800407409668 2.0895600318908691
vt -7.2388801574707031 1.9760199785232544
vt -6.8780498504638672 1.8313000202178955
vt -2.0527899265289307 1.9760199785232544
vt -6.8780498504638672 1.9760199785232544
vt -2.0527899265289307 1.8313000202178955
vt -7.2388801574707031 1.8313000202178955
vt -7.2388801574707031 1.1265900135040283
vt -7.1417098045349121 1.1265900135040283
vt -7.1461801528930664 1.1062400341033936
vt -7.215050220489502 1.8313000202178955
vt -7.309959888458252 1.8313000202178955
vt -1.9204200506210327 0.010416699573397636
vt -6.9354901313781738 0.063549801707267761
vt -6.9354901313781738 0.010416699573397636
vt -1.9204200506210327 0.063549801707267761
vt -6.9354901313781738 2.0769801139831543
vt -1.9204200506210327 2.0665700435638428
vt -1.9204200506210327 2.0769801139831543
vt -6.9354901313781738 2.0665700435638428
vt -1.9204200506210327 0.53616601228713989
vt -6.9354901313781738 0.54658299684524536
vt -6.9354901313781738 0.53616601228713989
vt -1.9204200506210327 0.54658299684524536
vt -2.0153200626373291 0.61638897657394409
vt -6.9354901313781738 0.54658299684524536
vt -6.8405799865722656 0.61638897657394409
vt -1.9204200506210327 2.0665700435638428
vt -6.8405799865722656 1.935979962348938
vt -2.0153200626373291 1.935979962348938
vt -6.9354901313781738 2.0665700435638428
vt -1.9204200506210327 0.40158200263977051
vt -6.9752101898193359 1.1265900135040283
vt -6.8780498504638672 1.8313000202178955
vt -6.9752101898193359 2.0709199905395508
vt -6.8780498504638672 1.1265900135040283
vt -12.062800407409668 2.0895600318908691
vt -6.8780498504638672 1.1265900135040283
vt -1.9204200506210327 0.20413500070571899
vt -6.9354901313781738 0.20413500070571899
vt -6.9354901313781738 0.21455100178718567
vt -6.9752101898193359 2.0709199905395508
vt -6.9354901313781738 0.21455100178718567
vt -7.2388801574707031 1.9760199785232544
vt -7.2388801574707031 1.1265900135040283
vt -7.1417098045349121 1.1265900135040283
vt -7.2388801574707031 1.1265900135040283
vt -7.1461801528930664 1.1062400341033936
vn 0 0 -1
vn 0 0 -1
vn 0 0 -1
vn 0 0 -1
vn 0 0 1
vn 0 0 1
vn 0 0 1
vn 0 0 1
vn -1 0 0
vn 1 0 0
vn -1 0 0
vn 1 0 0
vn -1 0 0
vn 0 -1 0
vn -1 0 0
vn 0 -1 0
vn -1 0 0
vn 0 1 0
vn -1 0 0
vn -0.9767412543296814 -0.21442146599292755 0
vn -0.9767412543296814 -0.21442146599292755 0
vn -0.9767412543296814 -0.21442146599292755 0
vn -1 0 0
vn -1 0 0
vn -1 0 0
vn -1 0 0
vn -0.97674083709716797 0.21442325413227081 0
vn -0.97674083709716797 0.21442325413227081 0
vn -0.9767412543296814 0 -0.21442146599292755
vn -0.97674083709716797 0 0.21442325413227081
vn -0.9767412543296814 -0.21442146599292755 0
vn -1 0 0
vn -1 0 0
vn 0 1 6.0650659179373179E-06
vn 0 1 1.2130131835874636E-05
vn 0.97674083709716797 0 0.21442325413227081
vn 1 0 0
vn 0.97674083709716797 0.21442325413227081 0
vn 0.97674083709716797 0 0.21442325413227081
vn 0 1 0
vn 1 0 0
vn 1 0 0
vn 0 -1 0
vn 0 -1 0
vn 0.9767412543296814 0 -0.21442146599292755
vn 0.97674083709716797 0.21442325413227081 0
vn 0.9767412543296814 0 -0.21442146599292755
vn 1 0 0
vn 1 0 0
vn 1 0 0
vn 1 0 0
vn 0.9767412543296814 0 -0.21442146599292755
vn 0.9767412543296814 0 -0.21442146599292755
vn 0.9767412543296814 0 -0.21442146599292755
vn 0 1 0
vn 1 0 0
vn 1 0 0
vn 0 1 0
vn 0 1 0
vn 0 1 0
vn 0 1 0
vn 0 -1 0
vn 0 -1 0
vn 0 -1 0
vn 0 -1 0
vn 0 1 0
vn 0 1 0
vn 0 1 0
vn 0 1 0
vn -0.9767412543296814 -0.21442146599292755 0
vn -0.9767412543296814 -0.21442146599292755 0
vn -0.9767412543296814 -0.21442146599292755 0
vn -0.97674083709716797 0.21442325413227081 0
vn -0.97674083709716797 0.21442325413227081 0
vn -0.97674083709716797 0.21442325413227081 0
vn -0.97674083709716797 0.21442325413227081 0
vn -1 0 0
vn 0.97674083709716797 0 0.21442325413227081
vn 0.97674083709716797 0 0.21442325413227081
vn 0.97674083709716797 0 0.21442325413227081
vn 0.97674083709716797 0 0.21442325413227081
vn 0.97674083709716797 0 0.21442325413227081
vn 1 0 0
vn 1 0 0
vn 1 0 0
vn 0 -1 0
vn 0 -1 0
vn 0.97674083709716797 0.21442325413227081 0
vn 0.97674083709716797 0.21442325413227081 0
vn 0.9767412543296814 0 -0.21442146599292755
vn 0.9767412543296814 0 -0.21442146599292755
vn 1 0 0
vn 1 0 0
f 1/1/1 2/2/2 3/3/3
f 3/3/3 2/2/2 4/4/4
f 5/5/5 6/6/6 7/7/7
f 6/6/6 5/5/5 8/8/8
f 58/58/58 59/59/59 60/60/60
f 59/59/59 58/58/58 61/61/61
f 62/62/62 63/63/63 64/64/64
f 63/63/63 62/62/62 65/65/65
f 13/13/13 9/9/9 11/11/11
f 9/9/9 13/13/13 15/15/15
f 66/66/66 67/67/67 68/68/68
f 67/67/67 66/66/66 69/69/69
f 70/70/70 71/71/71 20/20/20
f 71/71/71 70/70/70 72/72/72
f 23/23/23 24/24/24 25/25/25
f 24/24/24 23/23/23 26/26/26
f 73/73/73 74/74/74 75/75/75
f 74/74/74 73/73/73 76/76/76
f 16/16/16 22/22/22 27/27/27
f 22/22/22 29/29/29 18/18/18
f 30/30/30 14/14/14 28/28/28
f 14/14/14 21/21/21 31/31/31
f 32/32/32 17/17/17 19/19/19
f 17/17/17 32/32/32 77/77/77
f 33/33/33 34/34/34 35/35/35
f 78/78/78 79/79/79 80/80/80
f 79/79/79 78/78/78 81/81/81
f 40/40/40 39/39/39 36/36/36
f 37/37/37 41/41/41 83/83/83
f 41/41/41 37/37/37 42/42/42
f 10/10/10 84/84/84 85/85/85
f 84/84/84 10/10/10 12/12/12
f 43/43/43 86/86/86 44/44/44
f 86/86/86 43/43/43 87/87/87
f 46/46/46 88/88/88 38/38/38
f 88/88/88 46/46/46 89/89/89
f 48/48/48 49/49/49 50/50/50
f 49/49/49 48/48/48 51/51/51
f 52/52/52 45/45/45 47/47/47
f 90/90/90 45/45/45 52/52/52
f 45/45/45 90/90/90 91/91/91
f 53/53/53 55/55/55 54/54/54
f 56/56/56 92/92/92 93/93/93
f 92/92/92 56/56/56 57/57/57
f 80/80/80 79/79/79 82/82/82
