# Rhino

mtllib BedSet_11_05.mtl
usemtl Default
v -0.32029168294199994 0.10333100173899999 0.020222896323800033
v -0.32369978543400002 0.10333100173899999 0.013406691339900023
v -0.32029168294199994 0.10333100173899999 0.013406691339900023
v -0.32369978543400002 0.10333100173899999 0.020222896323800033
v -0.32029168294199994 0.10333100173899999 0.25197318415699999
v -0.3407402978940004 0.10333100173899999 0.020222896323800033
v -0.3407402978940004 0.10333100173899999 0.25197318415699999
v -0.32369978543400002 0.10333100173899999 0.25197318415699999
v -0.32029168294199994 0.10333100173899999 0.258789389142
v -0.32369978543400002 0.10333100173899999 0.258789389142
v -0.32029168294199994 0.10333100173899999 0.272421799109
v -0.3407402978940004 0.10333100173899999 0.258789389142
v -0.3407402978940004 0.10333100173899999 0.272421799109
v -0.3407402978940004 0.11048801697199999 0.272421799109
v -0.3407402978940004 0.10333100173899999 0.258789389142
v -0.3407402978940004 0.10333100173899999 0.272421799109
v -0.3407402978940004 0.10333100173899999 0.25197318415699999
v -0.3407402978940004 0.10333100173899999 0.020222896323800033
v -0.3407402978940004 0.10333100173899999 0.013406691339900023
v -0.3407402978940004 0.10333100173899999 -0.00022571862804299236
v -0.3407402978940004 0.11048801697199999 -0.00022571862804299236
v -0.3407402978940004 0.11048801697199999 0.272421799109
v -0.32029168294199994 0.11048801697199999 -0.00022571862804299236
v -0.3407402978940004 0.11048801697199999 -0.00022571862804299236
v -0.32029168294199994 0.11048801697199999 0.272421799109
v -0.32029168294199994 0.10333100173899999 0.272421799109
v -0.32029168294199994 0.11048801697199999 -0.00022571862804299236
v -0.32029168294199994 0.11048801697199999 0.272421799109
v -0.32029168294199994 0.10333100173899999 0.258789389142
v -0.32029168294199994 0.10333100173899999 0.25197318415699999
v -0.32029168294199994 0.10333100173899999 0.020222896323800033
v -0.32029168294199994 0.10333100173899999 0.013406691339900023
v -0.32029168294199994 0.10333100173899999 -0.00022571862804299236
v -0.3407402978940004 0.10333100173899999 0.013406691339900023
v -0.32029168294199994 0.10333100173899999 -0.00022571862804299236
v -0.3407402978940004 0.10333100173899999 -0.00022571862804299236
vt -0.17626799643039703 -0.27641001343727112
vt -0.16314500570297241 -0.28953298926353455
vt -0.16314500570297241 -0.27641001343727112
vt -0.17626799643039703 -0.28953298926353455
vt -0.62246298789978027 -0.27641001343727112
vt -0.17626799643039703 -0.3551500141620636
vt -0.62246298789978027 -0.3551500141620636
vt -0.62246298789978027 -0.28953298926353455
vt -0.63558602333068848 -0.27641001343727112
vt -0.63558602333068848 -0.28953298926353455
vt -0.66183298826217651 -0.27641001343727112
vt -0.63558602333068848 -0.3551500141620636
vt -0.66183298826217651 -0.3551500141620636
vt 0.66183298826217651 0.65655601024627686
vt 0.63558602333068848 0.62899601459503174
vt 0.66183298826217651 0.62899601459503174
vt 0.62246298789978027 0.62899601459503174
vt 0.17626799643039703 0.62899601459503174
vt 0.16314500570297241 0.62899601459503174
vt 0.13689799606800079 0.62899601459503174
vt 0.13689799606800079 0.65655601024627686
vt 0.66183298826217651 -0.3551500141620636
vt 0.13689799606800079 -0.27641001343727112
vt 0.13689799606800079 -0.3551500141620636
vt 0.66183298826217651 -0.27641001343727112
vt -0.66183298826217651 0.62899601459503174
vt -0.13689799606800079 0.65655601024627686
vt -0.66183298826217651 0.65655601024627686
vt -0.63558602333068848 0.62899601459503174
vt -0.62246298789978027 0.62899601459503174
vt -0.17626799643039703 0.62899601459503174
vt -0.16314500570297241 0.62899601459503174
vt -0.13689799606800079 0.62899601459503174
vt -0.16314500570297241 -0.3551500141620636
vt -0.13689799606800079 -0.27641001343727112
vt -0.13689799606800079 -0.3551500141620636
vn 0 -1 0
vn 0 -1 0
vn 0 -1 0
vn 0 -1 0
vn 0 -1 0
vn 0 -1 0
vn 0 -1 0
vn 0 -1 0
vn 0 -1 0
vn 0 -1 0
vn 0 -1 0
vn 0 -1 0
vn 0 -1 0
vn -1 0 0
vn -1 0 0
vn -1 0 0
vn -1 0 0
vn -1 0 0
vn -1 0 0
vn -1 0 0
vn -1 0 0
vn 0 1 0
vn 0 1 0
vn 0 1 0
vn 0 1 0
vn 1 0 0
vn 1 0 0
vn 1 0 0
vn 1 0 0
vn 1 0 0
vn 1 0 0
vn 1 0 0
vn 1 0 0
vn 0 -1 0
vn 0 -1 0
vn 0 -1 0
f 1/1/1 2/2/2 3/3/3
f 2/2/2 1/1/1 4/4/4
f 5/5/5 4/4/4 1/1/1
f 4/4/4 5/5/5 6/6/6
f 6/6/6 5/5/5 7/7/7
f 7/7/7 5/5/5 8/8/8
f 9/9/9 8/8/8 5/5/5
f 8/8/8 9/9/9 10/10/10
f 11/11/11 10/10/10 9/9/9
f 10/10/10 11/11/11 12/12/12
f 12/12/12 11/11/11 13/13/13
f 14/14/14 15/15/15 16/16/16
f 15/15/15 14/14/14 17/17/17
f 17/17/17 14/14/14 18/18/18
f 18/18/18 14/14/14 19/19/19
f 19/19/19 14/14/14 20/20/20
f 20/20/20 14/14/14 21/21/21
f 22/22/22 23/23/23 24/24/24
f 23/23/23 22/22/22 25/25/25
f 26/26/26 27/27/27 28/28/28
f 29/29/29 27/27/27 26/26/26
f 30/30/30 27/27/27 29/29/29
f 31/31/31 27/27/27 30/30/30
f 32/32/32 27/27/27 31/31/31
f 27/27/27 32/32/32 33/33/33
f 34/34/34 35/35/35 3/3/3
f 35/35/35 34/34/34 36/36/36
f 34/34/34 3/3/3 2/2/2
f 34/34/34 2/2/2 4/4/4
f 34/34/34 4/4/4 6/6/6
f 7/7/7 10/10/10 12/12/12
f 7/7/7 8/8/8 10/10/10
