# Rhino

mtllib BedSet_05_12.mtl
usemtl Default
v 0.36687087368600002 0.1186935179572 -0.1079031981429992
v 0.36327410041499997 0.27335476862899999 -0.1079031981429992
v 0.36327410041499997 0.1186935179572 -0.1079031981429992
v 0.36687087368600002 0.27335476862899999 -0.1079031981429992
v 0.36687087368600002 0.1186935179572 -0.1079031981429992
v 0.36687087368600002 0.27335476862899999 -0.11869351795700034
v 0.36687087368600002 0.27335476862899999 -0.1079031981429992
v 0.36687087368600002 0.1186935179572 -0.11869351795700034
v 0.36327410041499997 0.1186935179572 -0.11869351795700034
v 0.36687087368600002 0.27335476862899999 -0.11869351795700034
v 0.36687087368600002 0.1186935179572 -0.11869351795700034
v 0.36327410041499997 0.27335476862899999 -0.11869351795700034
v 0.36327410041499997 0.1186935179572 -0.11869351795700034
v 0.36327410041499997 0.27335476862899999 -0.1079031981429992
v 0.36327410041499997 0.27335476862899999 -0.11869351795700034
v 0.36327410041499997 0.1186935179572 -0.1079031981429992
v 0.36327410041499997 0.1186935179572 -0.1079031981429992
v 0.36327410041499997 0.1186935179572 -0.11869351795700034
v 0.36507248705049999 0.1186935179572 -0.11329835804999888
v 0.36687087368600002 0.1186935179572 -0.1079031981429992
v 0.36687087368600002 0.1186935179572 -0.11869351795700034
v 0.36327410041499997 0.27335476862899999 -0.1079031981429992
v 0.36327410041499997 0.27335476862899999 -0.11869351795700034
v 0.36507248705049999 0.27335476862899999 -0.11329835804999888
v 0.36687087368600002 0.27335476862899999 -0.1079031981429992
v 0.36687087368600002 0.27335476862899999 -0.11869351795700034
vt 80.905502319335938 12.992099761962891
vt 80.511802673339844 29.921300888061523
vt 80.511802673339844 12.992099761962891
vt 80.905502319335938 29.921300888061523
vt -21.062999725341797 12.992099761962891
vt -19.881900787353516 29.921300888061523
vt -21.062999725341797 29.921300888061523
vt -19.881900787353516 12.992099761962891
vt -80.511802673339844 12.992099761962891
vt -80.905502319335938 29.921300888061523
vt -80.905502319335938 12.992099761962891
vt -80.511802673339844 29.921300888061523
vt 19.881900787353516 12.992099761962891
vt 21.062999725341797 29.921300888061523
vt 19.881900787353516 29.921300888061523
vt 21.062999725341797 12.992099761962891
vt 1 1
vt 0 1
vt 0.5 0.5
vt 1 0
vt 0 0
vt 0 1
vt 1 1
vt 0.5 0.5
vt 0 0
vt 1 0
vn 0 0 1
vn 0 0 1
vn 0 0 1
vn 0 0 1
vn 1 0 0
vn 1 0 0
vn 1 0 0
vn 1 0 0
vn 0 0 -1
vn 0 0 -1
vn 0 0 -1
vn 0 0 -1
vn -1 0 0
vn -1 0 0
vn -1 0 0
vn -1 0 0
vn 0 -1 0
vn 0 -1 0
vn 0 -1 0
vn 0 -1 0
vn 0 -1 0
vn 0 1 0
vn 0 1 0
vn 0 1 0
vn 0 1 0
vn 0 1 0
f 1/1/1 2/2/2 3/3/3
f 2/2/2 1/1/1 4/4/4
f 5/5/5 6/6/6 7/7/7
f 6/6/6 5/5/5 8/8/8
f 9/9/9 10/10/10 11/11/11
f 10/10/10 9/9/9 12/12/12
f 13/13/13 14/14/14 15/15/15
f 14/14/14 13/13/13 16/16/16
f 19/19/19 18/18/18 21/21/21
f 17/17/17 19/19/19 20/20/20
f 21/21/21 20/20/20 19/19/19
f 18/18/18 19/19/19 17/17/17
f 24/24/24 22/22/22 25/25/25
f 23/23/23 24/24/24 26/26/26
f 25/25/25 26/26/26 24/24/24
f 22/22/22 24/24/24 23/23/23
