# Rhino

mtllib BedSet_11_04.mtl
usemtl Default
v 0.34463081729299994 0.14053964231569999 0.27252745028699998
v -0.34166928869499991 0.1413613358261 0.27282736330599999
v 0.34463081729299994 0.1413613358261 0.27282736330599999
v -0.34166928869499991 0.14053964231569999 0.27252745028699998
v 0.34463081729299994 0.14053964231569999 0.27252745028699998
v -0.34166928869499991 0.13965728458019999 0.272421799109
v -0.34166928869499991 0.14053964231569999 0.27252745028699998
v 0.34463081729299994 0.13965728458019999 0.272421799109
v 0.34463081729299994 0.13965728458019999 0.27848140533999999
v 0.34463081729299994 0.13965728458019999 0.272421799109
v 0.34463081729299994 0.14053964231569999 0.27252745028699998
v 0.34463081729299994 0.10216815716899999 0.27848140533999999
v 0.34463081729299994 0.10216815716899999 0.272421799109
v 0.34463081729299994 0.10128614024399998 0.27252745028699998
v 0.34463081729299994 0.10128614024399998 0.27837916226600001
v 0.34463081729299994 0.10046410592199999 0.27282736330599999
v 0.34463081729299994 0.10046410592199999 0.27807584114400008
v 0.34463081729299994 0.099758287895999984 0.27331131385899998
v 0.34463081729299994 0.099758287895999984 0.27759529869200006
v 0.34463081729299994 0.09921674040999999 0.27393840471800002
v 0.34463081729299994 0.09921674040999999 0.276968207834
v 0.34463081729299994 0.098876270971999983 0.27466773865100003
v 0.34463081729299994 0.098876270971999983 0.27623546579799996
v 0.34463081729299994 0.098760054675999992 0.275451602224
v 0.34463081729299994 0.098876270971999983 0.27623546579799996
v -0.34166928869499991 0.098760054675999992 0.275451602224
v 0.34463081729299994 0.098760054675999992 0.275451602224
v -0.34166928869499991 0.098876270971999983 0.27623546579799996
v 0.34463081729299994 0.09921674040999999 0.276968207834
v -0.34166928869499991 0.098876270971999983 0.27623546579799996
v 0.34463081729299994 0.098876270971999983 0.27623546579799996
v -0.34166928869499991 0.09921674040999999 0.276968207834
v 0.34463081729299994 0.099758287895999984 0.27759529869200006
v -0.34166928869499991 0.09921674040999999 0.276968207834
v 0.34463081729299994 0.09921674040999999 0.276968207834
v -0.34166928869499991 0.099758287895999984 0.27759529869200006
v 0.34463081729299994 0.099758287895999984 0.27759529869200006
v -0.34166928869499991 0.10046410592199999 0.27807584114400008
v -0.34166928869499991 0.099758287895999984 0.27759529869200006
v 0.34463081729299994 0.10046410592199999 0.27807584114400008
v 0.34463081729299994 0.10046410592199999 0.27807584114400008
v -0.34166928869499991 0.10128614024399998 0.27837916226600001
v -0.34166928869499991 0.10046410592199999 0.27807584114400008
v 0.34463081729299994 0.10128614024399998 0.27837916226600001
v 0.34463081729299994 0.10216815716899999 0.27848140533999999
v -0.34166928869499991 0.10128614024399998 0.27837916226600001
v 0.34463081729299994 0.10128614024399998 0.27837916226600001
v -0.34166928869499991 0.10216815716899999 0.27848140533999999
v 0.34463081729299994 0.10216815716899999 0.27848140533999999
v -0.34166928869499991 0.13965728458019999 0.27848140533999999
v -0.34166928869499991 0.10216815716899999 0.27848140533999999
v 0.34463081729299994 0.13965728458019999 0.27848140533999999
v 0.34463081729299994 0.13965728458019999 0.27848140533999999
v -0.34166928869499991 0.14053964231569999 0.27837916226600001
v -0.34166928869499991 0.13965728458019999 0.27848140533999999
v 0.34463081729299994 0.14053964231569999 0.27837916226600001
v 0.34463081729299994 0.14053964231569999 0.27837916226600001
v 0.34463081729299994 0.1413613358261 0.27282736330599999
v 0.34463081729299994 0.1413613358261 0.27807584114400008
v 0.34463081729299994 0.142067494663 0.27331131385899998
v 0.34463081729299994 0.1413613358261 0.27282736330599999
v -0.34166928869499991 0.142067494663 0.27331131385899998
v 0.34463081729299994 0.142067494663 0.27331131385899998
v -0.34166928869499991 0.1413613358261 0.27282736330599999
v -0.34166928869499991 0.1413613358261 0.27282736330599999
v -0.34166928869499991 0.1413613358261 0.27807584114400008
v -0.34166928869499991 0.142067494663 0.27331131385899998
v -0.34166928869499991 0.14053964231569999 0.27837916226600001
v -0.34166928869499991 0.14053964231569999 0.27252745028699998
v -0.34166928869499991 0.13965728458019999 0.272421799109
v -0.34166928869499991 0.13965728458019999 0.27848140533999999
v -0.34166928869499991 0.10216815716899999 0.272421799109
v -0.34166928869499991 0.10216815716899999 0.27848140533999999
v -0.34166928869499991 0.10128614024399998 0.27252745028699998
v -0.34166928869499991 0.10128614024399998 0.27837916226600001
v -0.34166928869499991 0.10046410592199999 0.27282736330599999
v -0.34166928869499991 0.10046410592199999 0.27807584114400008
v -0.34166928869499991 0.099758287895999984 0.27331131385899998
v -0.34166928869499991 0.099758287895999984 0.27759529869200006
v -0.34166928869499991 0.09921674040999999 0.27393840471800002
v -0.34166928869499991 0.09921674040999999 0.276968207834
v -0.34166928869499991 0.098876270971999983 0.27466773865100003
v -0.34166928869499991 0.098876270971999983 0.27623546579799996
v -0.34166928869499991 0.098760054675999992 0.275451602224
v -0.34166928869499991 0.098876270971999983 0.27466773865100003
v 0.34463081729299994 0.098760054675999992 0.275451602224
v -0.34166928869499991 0.098760054675999992 0.275451602224
v 0.34463081729299994 0.098876270971999983 0.27466773865100003
v -0.34166928869499991 0.09921674040999999 0.27393840471800002
v 0.34463081729299994 0.098876270971999983 0.27466773865100003
v -0.34166928869499991 0.098876270971999983 0.27466773865100003
v 0.34463081729299994 0.09921674040999999 0.27393840471800002
v -0.34166928869499991 0.099758287895999984 0.27331131385899998
v 0.34463081729299994 0.09921674040999999 0.27393840471800002
v -0.34166928869499991 0.09921674040999999 0.27393840471800002
v 0.34463081729299994 0.099758287895999984 0.27331131385899998
v -0.34166928869499991 0.099758287895999984 0.27331131385899998
v 0.34463081729299994 0.10046410592199999 0.27282736330599999
v 0.34463081729299994 0.099758287895999984 0.27331131385899998
v -0.34166928869499991 0.10046410592199999 0.27282736330599999
v -0.34166928869499991 0.10046410592199999 0.27282736330599999
v 0.34463081729299994 0.10128614024399998 0.27252745028699998
v 0.34463081729299994 0.10046410592199999 0.27282736330599999
v -0.34166928869499991 0.10128614024399998 0.27252745028699998
v -0.34166928869499991 0.10216815716899999 0.272421799109
v 0.34463081729299994 0.10128614024399998 0.27252745028699998
v -0.34166928869499991 0.10128614024399998 0.27252745028699998
v 0.34463081729299994 0.10216815716899999 0.272421799109
v -0.34166928869499991 0.10216815716899999 0.272421799109
v 0.34463081729299994 0.13965728458019999 0.272421799109
v 0.34463081729299994 0.10216815716899999 0.272421799109
v -0.34166928869499991 0.13965728458019999 0.272421799109
v -0.34166928869499991 0.14053964231569999 0.27837916226600001
v 0.34463081729299994 0.1413613358261 0.27807584114400008
v -0.34166928869499991 0.1413613358261 0.27807584114400008
v 0.34463081729299994 0.14053964231569999 0.27837916226600001
v 0.34463081729299994 0.142067494663 0.27759529869200006
v -0.34166928869499991 0.1413613358261 0.27807584114400008
v 0.34463081729299994 0.1413613358261 0.27807584114400008
v -0.34166928869499991 0.142067494663 0.27759529869200006
v 0.34463081729299994 0.142067494663 0.27759529869200006
v -0.34166928869499991 0.1426090421483 0.276968207834
v -0.34166928869499991 0.142067494663 0.27759529869200006
v 0.34463081729299994 0.1426090421483 0.276968207834
v 0.34463081729299994 0.142067494663 0.27759529869200006
v 0.34463081729299994 0.1426090421483 0.27393840471800002
v 0.34463081729299994 0.1426090421483 0.276968207834
v -0.34166928869499991 0.142067494663 0.27331131385899998
v 0.34463081729299994 0.1426090421483 0.27393840471800002
v 0.34463081729299994 0.142067494663 0.27331131385899998
v -0.34166928869499991 0.1426090421483 0.27393840471800002
v -0.34166928869499991 0.142067494663 0.27759529869200006
v -0.34166928869499991 0.1426090421483 0.27393840471800002
v -0.34166928869499991 0.1426090421483 0.276968207834
v -0.34166928869499991 0.14294951158749997 0.27466773865100003
v -0.34166928869499991 0.14294951158749997 0.27623546579799996
v 0.34463081729299994 0.1426090421483 0.276968207834
v -0.34166928869499991 0.14294951158749997 0.27623546579799996
v -0.34166928869499991 0.1426090421483 0.276968207834
v 0.34463081729299994 0.14294951158749997 0.27623546579799996
v 0.34463081729299994 0.14294951158749997 0.27466773865100003
v 0.34463081729299994 0.14294951158749997 0.27623546579799996
v -0.34166928869499991 0.1426090421483 0.27393840471800002
v 0.34463081729299994 0.14294951158749997 0.27466773865100003
v 0.34463081729299994 0.1426090421483 0.27393840471800002
v -0.34166928869499991 0.14294951158749997 0.27466773865100003
v -0.34166928869499991 0.14294951158749997 0.27466773865100003
v 0.34463081729299994 0.14306538707189997 0.275451602224
v 0.34463081729299994 0.14294951158749997 0.27466773865100003
v -0.34166928869499991 0.14306538707189997 0.275451602224
v -0.34166928869499991 0.14306538707189997 0.275451602224
v 0.34463081729299994 0.14294951158749997 0.27623546579799996
v -0.34166928869499991 0.14306538707189997 0.275451602224
v -0.34166928869499991 0.14294951158749997 0.27623546579799996
v 0.34463081729299994 0.14306538707189997 0.275451602224
v 0.34463081729299994 0.14306538707189997 0.275451602224
vt 0 4.1627302169799805
vt 79.280899047851562 4.265510082244873
vt 0 4.265510082244873
vt 79.280899047851562 4.1627302169799805
vt 0 4.6839900016784668
vt 79.280899047851562 4.5812101364135742
vt 79.280899047851562 4.6839900016784668
vt 0 4.5812101364135742
vt 0 4.7244100570678711
vt 0.78740197420120239 4.7244100570678711
vt 0.77398699522018433 4.8263101577758789
vt 0 0.3937009871006012
vt 0.78740197420120239 0.3937009871006012
vt 0.77398699522018433 0.2918039858341217
vt 0.013415000401437283 0.2918039858341217
vt 0.73465597629547119 0.1968500018119812
vt 0.052745901048183441 0.1968500018119812
vt 0.67208898067474365 0.11531200259923935
vt 0.11531200259923935 0.11531200259923935
vt 0.59055101871490479 0.052745901048183441
vt 0.1968500018119812 0.052745901048183441
vt 0.49559798836708069 0.013415000401437283
vt 0.2918039858341217 0.013415000401437283
vt 0.3937009871006012 0
vt 0 -0.287555992603302
vt -79.280899047851562 -0.39033299684524536
vt 0 -0.39033299684524536
vt -79.280899047851562 -0.287555992603302
vt 0 -0.16168099641799927
vt -79.280899047851562 -0.26445800065994263
vt 0 -0.26445800065994263
vt -79.280899047851562 -0.16168099641799927
vt 0 -0.021285699680447578
vt -79.280899047851562 -0.12406200170516968
vt 0 -0.12406200170516968
vt -79.280899047851562 -0.021285699680447578
vt 0 0.021285699680447578
vt -79.280899047851562 0.12406200170516968
vt -79.280899047851562 0.021285699680447578
vt 0 0.12406200170516968
vt 0 0.16168099641799927
vt -79.280899047851562 0.26445800065994263
vt -79.280899047851562 0.16168099641799927
vt 0 0.26445800065994263
vt 0 0.39033299684524536
vt -79.280899047851562 0.287555992603302
vt 0 0.287555992603302
vt -79.280899047851562 0.39033299684524536
vt 0 0.3937009871006012
vt -79.280899047851562 4.7244100570678711
vt -79.280899047851562 0.3937009871006012
vt 0 4.7244100570678711
vt 0 4.6839900016784668
vt -79.280899047851562 4.7867698669433594
vt -79.280899047851562 4.6839900016784668
vt 0 4.7867698669433594
vt 0.013415000401437283 4.8263101577758789
vt 0.73465597629547119 4.921259880065918
vt 0.052745901048183441 4.921259880065918
vt 0.67208898067474365 5.0027999877929688
vt 0 3.4570701122283936
vt 79.280899047851562 3.5598399639129639
vt 0 3.5598399639129639
vt 79.280899047851562 3.4570701122283936
vt -0.73465597629547119 4.921259880065918
vt -0.052745901048183441 4.921259880065918
vt -0.67208898067474365 5.0027999877929688
vt -0.013415000401437283 4.8263101577758789
vt -0.77398699522018433 4.8263101577758789
vt -0.78740197420120239 4.7244100570678711
vt 0 4.7244100570678711
vt -0.78740197420120239 0.3937009871006012
vt 0 0.3937009871006012
vt -0.77398699522018433 0.2918039858341217
vt -0.013415000401437283 0.2918039858341217
vt -0.73465597629547119 0.1968500018119812
vt -0.052745901048183441 0.1968500018119812
vt -0.67208898067474365 0.11531200259923935
vt -0.11531200259923935 0.11531200259923935
vt -0.59055101871490479 0.052745901048183441
vt -0.1968500018119812 0.052745901048183441
vt -0.49559798836708069 0.013415000401437283
vt -0.2918039858341217 0.013415000401437283
vt -0.3937009871006012 0
vt 79.280899047851562 0.49310898780822754
vt 0 0.39033299684524536
vt 79.280899047851562 0.39033299684524536
vt 0 0.49310898780822754
vt 79.280899047851562 0.56578302383422852
vt 0 0.46300700306892395
vt 79.280899047851562 0.46300700306892395
vt 0 0.56578302383422852
vt 79.280899047851562 0.60340201854705811
vt 0 0.50062501430511475
vt 79.280899047851562 0.50062501430511475
vt 0 0.60340201854705811
vt 79.280899047851562 0.50062501430511475
vt 0 0.60340201854705811
vt 0 0.50062501430511475
vt 79.280899047851562 0.60340201854705811
vt 79.280899047851562 0.46300700306892395
vt 0 0.56578302383422852
vt 0 0.46300700306892395
vt 79.280899047851562 0.56578302383422852
vt 79.280899047851562 0.49310898780822754
vt 0 0.39033299684524536
vt 79.280899047851562 0.39033299684524536
vt 0 0.49310898780822754
vt 79.280899047851562 0.3937009871006012
vt 0 4.7244100570678711
vt 0 0.3937009871006012
vt 79.280899047851562 4.7244100570678711
vt -79.280899047851562 4.4640598297119141
vt 0 4.5668401718139648
vt -79.280899047851562 4.5668401718139648
vt 0 4.4640598297119141
vt 0 4.039179801940918
vt -79.280899047851562 3.9364099502563477
vt 0 3.9364099502563477
vt -79.280899047851562 4.039179801940918
vt 0 3.1369900703430176
vt -79.280899047851562 3.2397699356079102
vt -79.280899047851562 3.1369900703430176
vt 0 3.2397699356079102
vt 0.11531200259923935 5.0027999877929688
vt 0.59055101871490479 5.0653600692749023
vt 0.1968500018119812 5.0653600692749023
vt 79.280899047851562 2.5123100280761719
vt 0 2.6150801181793213
vt 0 2.5123100280761719
vt 79.280899047851562 2.6150801181793213
vt -0.11531200259923935 5.0027999877929688
vt -0.59055101871490479 5.0653600692749023
vt -0.1968500018119812 5.0653600692749023
vt -0.49559798836708069 5.1047000885009766
vt -0.2918039858341217 5.1047000885009766
vt 0 2.1203000545501709
vt -79.280899047851562 2.2230699062347412
vt -79.280899047851562 2.1203000545501709
vt 0 2.2230699062347412
vt 0.49559798836708069 5.1047000885009766
vt 0.2918039858341217 5.1047000885009766
vt 79.280899047851562 1.3928300142288208
vt 0 1.4956099987030029
vt 0 1.3928300142288208
vt 79.280899047851562 1.4956099987030029
vt 79.280899047851562 0.17493799328804016
vt 0 0.27771499752998352
vt 0 0.17493799328804016
vt 79.280899047851562 0.27771499752998352
vt -0.3937009871006012 5.118110179901123
vt 0 0.95560401678085327
vt -79.280899047851562 1.0583800077438354
vt -79.280899047851562 0.95560401678085327
vt 0 1.0583800077438354
vt 0.3937009871006012 5.118110179901123
vn 0 0.34286904335021973 -0.93938320875167847
vn 0 0.34286904335021973 -0.93938320875167847
vn 0 0.34286904335021973 -0.93938320875167847
vn 0 0.34286904335021973 -0.93938320875167847
vn 0 0.11888813227415085 -0.99290764331817627
vn 0 0.11888813227415085 -0.99290764331817627
vn 0 0.11888813227415085 -0.99290764331817627
vn 0 0.11888813227415085 -0.99290764331817627
vn 1 0 0
vn 1 0 0
vn 1 0 0
vn 1 0 0
vn 1 0 0
vn 1 0 0
vn 1 0 0
vn 1 0 0
vn 1 0 0
vn 1 0 0
vn 1 0 0
vn 1 0 0
vn 1 0 0
vn 1 0 0
vn 1 0 0
vn 1 0 0
vn 0 -0.98918730020523071 0.14665776491165161
vn 0 -0.98918730020523071 0.14665776491165161
vn 0 -0.98918730020523071 0.14665776491165161
vn 0 -0.98918730020523071 0.14665776491165161
vn 0 -0.90688234567642212 0.42138394713401794
vn 0 -0.90688234567642212 0.42138394713401794
vn 0 -0.90688234567642212 0.42138394713401794
vn 0 -0.90688234567642212 0.42138394713401794
vn 0 -0.75684148073196411 0.65359842777252197
vn 0 -0.75684148073196411 0.65359842777252197
vn 0 -0.75684148073196411 0.65359842777252197
vn 0 -0.75684148073196411 0.65359842777252197
vn 0 -0.56277936697006226 0.82660716772079468
vn 0 -0.56277936697006226 0.82660716772079468
vn 0 -0.56277936697006226 0.82660716772079468
vn 0 -0.56277936697006226 0.82660716772079468
vn 0 -0.3461739718914032 0.93817031383514404
vn 0 -0.3461739718914032 0.93817031383514404
vn 0 -0.3461739718914032 0.93817031383514404
vn 0 -0.3461739718914032 0.93817031383514404
vn 0 -0.11514856666326523 0.99334830045700073
vn 0 -0.11514856666326523 0.99334830045700073
vn 0 -0.11514856666326523 0.99334830045700073
vn 0 -0.11514856666326523 0.99334830045700073
vn 0 0 1
vn 0 0 1
vn 0 0 1
vn 0 0 1
vn 0 0.11510467529296875 0.99335336685180664
vn 0 0.11510467529296875 0.99335336685180664
vn 0 0.11510467529296875 0.99335336685180664
vn 0 0.11510467529296875 0.99335336685180664
vn 1 0 0
vn 1 0 0
vn 1 0 0
vn 1 0 0
vn 0 0.5653117299079895 -0.82487738132476807
vn 0 0.5653117299079895 -0.82487738132476807
vn 0 0.5653117299079895 -0.82487738132476807
vn 0 0.5653117299079895 -0.82487738132476807
vn -1 0 0
vn -1 0 0
vn -1 0 0
vn -1 0 0
vn -1 0 0
vn -1 0 0
vn -1 0 0
vn -1 0 0
vn -1 0 0
vn -1 0 0
vn -1 0 0
vn -1 0 0
vn -1 0 0
vn -1 0 0
vn -1 0 0
vn -1 0 0
vn -1 0 0
vn -1 0 0
vn -1 0 0
vn -1 0 0
vn 0 -0.98918730020523071 -0.14665776491165161
vn 0 -0.98918730020523071 -0.14665776491165161
vn 0 -0.98918730020523071 -0.14665776491165161
vn 0 -0.98918730020523071 -0.14665776491165161
vn 0 -0.90612906217575073 -0.42300134897232056
vn 0 -0.90612906217575073 -0.42300134897232056
vn 0 -0.90612906217575073 -0.42300134897232056
vn 0 -0.90612906217575073 -0.42300134897232056
vn 0 -0.75684148073196411 -0.65359842777252197
vn 0 -0.75684148073196411 -0.65359842777252197
vn 0 -0.75684148073196411 -0.65359842777252197
vn 0 -0.75684148073196411 -0.65359842777252197
vn 0 -0.56549739837646484 -0.82475006580352783
vn 0 -0.56549739837646484 -0.82475006580352783
vn 0 -0.56549739837646484 -0.82475006580352783
vn 0 -0.56549739837646484 -0.82475006580352783
vn 0 -0.34274357557296753 -0.93942898511886597
vn 0 -0.34274357557296753 -0.93942898511886597
vn 0 -0.34274357557296753 -0.93942898511886597
vn 0 -0.34274357557296753 -0.93942898511886597
vn 0 -0.11893342435359955 -0.99290221929550171
vn 0 -0.11893342435359955 -0.99290221929550171
vn 0 -0.11893342435359955 -0.99290221929550171
vn 0 -0.11893342435359955 -0.99290221929550171
vn 0 0 -1
vn 0 0 -1
vn 0 0 -1
vn 0 0 -1
vn 0 0.34630033373832703 0.93812370300292969
vn 0 0.34630033373832703 0.93812370300292969
vn 0 0.34630033373832703 0.93812370300292969
vn 0 0.34630033373832703 0.93812370300292969
vn 0 0.56259375810623169 0.82673352956771851
vn 0 0.56259375810623169 0.82673352956771851
vn 0 0.56259375810623169 0.82673352956771851
vn 0 0.56259375810623169 0.82673352956771851
vn 0 0.75684148073196411 0.65359842777252197
vn 0 0.75684148073196411 0.65359842777252197
vn 0 0.75684148073196411 0.65359842777252197
vn 0 0.75684148073196411 0.65359842777252197
vn 1 0 0
vn 1 0 0
vn 1 0 0
vn 0 0.75684148073196411 -0.65359842777252197
vn 0 0.75684148073196411 -0.65359842777252197
vn 0 0.75684148073196411 -0.65359842777252197
vn 0 0.75684148073196411 -0.65359842777252197
vn -1 0 0
vn -1 0 0
vn -1 0 0
vn -1 0 0
vn -1 0 0
vn 0 0.90688234567642212 0.42138394713401794
vn 0 0.90688234567642212 0.42138394713401794
vn 0 0.90688234567642212 0.42138394713401794
vn 0 0.90688234567642212 0.42138394713401794
vn 1 0 0
vn 1 0 0
vn 0 0.90612906217575073 -0.42300134897232056
vn 0 0.90612906217575073 -0.42300134897232056
vn 0 0.90612906217575073 -0.42300134897232056
vn 0 0.90612906217575073 -0.42300134897232056
vn 0 0.989249587059021 -0.14623689651489258
vn 0 0.989249587059021 -0.14623689651489258
vn 0 0.989249587059021 -0.14623689651489258
vn 0 0.989249587059021 -0.14623689651489258
vn -1 0 0
vn 0 0.989249587059021 0.14623689651489258
vn 0 0.989249587059021 0.14623689651489258
vn 0 0.989249587059021 0.14623689651489258
vn 0 0.989249587059021 0.14623689651489258
vn 1 0 0
f 1/1/1 2/2/2 3/3/3
f 2/2/2 1/1/1 4/4/4
f 5/5/5 6/6/6 7/7/7
f 6/6/6 5/5/5 8/8/8
f 9/9/9 10/10/10 11/11/11
f 12/12/12 10/10/10 9/9/9
f 12/12/12 13/13/13 10/10/10
f 12/12/12 14/14/14 13/13/13
f 15/15/15 14/14/14 12/12/12
f 15/15/15 16/16/16 14/14/14
f 17/17/17 16/16/16 15/15/15
f 17/17/17 18/18/18 16/16/16
f 19/19/19 18/18/18 17/17/17
f 19/19/19 20/20/20 18/18/18
f 21/21/21 20/20/20 19/19/19
f 21/21/21 22/22/22 20/20/20
f 23/23/23 22/22/22 21/21/21
f 22/22/22 23/23/23 24/24/24
f 25/25/25 26/26/26 27/27/27
f 26/26/26 25/25/25 28/28/28
f 29/29/29 30/30/30 31/31/31
f 30/30/30 29/29/29 32/32/32
f 33/33/33 34/34/34 35/35/35
f 34/34/34 33/33/33 36/36/36
f 37/37/37 38/38/38 39/39/39
f 38/38/38 37/37/37 40/40/40
f 41/41/41 42/42/42 43/43/43
f 42/42/42 41/41/41 44/44/44
f 45/45/45 46/46/46 47/47/47
f 46/46/46 45/45/45 48/48/48
f 49/49/49 50/50/50 51/51/51
f 50/50/50 49/49/49 52/52/52
f 53/53/53 54/54/54 55/55/55
f 54/54/54 53/53/53 56/56/56
f 9/9/9 11/11/11 57/57/57
f 57/57/57 11/11/11 58/58/58
f 57/57/57 58/58/58 59/59/59
f 59/59/59 58/58/58 60/60/60
f 61/61/61 62/62/62 63/63/63
f 62/62/62 61/61/61 64/64/64
f 65/65/65 66/66/66 67/67/67
f 65/65/65 68/68/68 66/66/66
f 69/69/69 68/68/68 65/65/65
f 70/70/70 68/68/68 69/69/69
f 70/70/70 71/71/71 68/68/68
f 72/72/72 71/71/71 70/70/70
f 72/72/72 73/73/73 71/71/71
f 74/74/74 73/73/73 72/72/72
f 74/74/74 75/75/75 73/73/73
f 76/76/76 75/75/75 74/74/74
f 76/76/76 77/77/77 75/75/75
f 78/78/78 77/77/77 76/76/76
f 78/78/78 79/79/79 77/77/77
f 80/80/80 79/79/79 78/78/78
f 80/80/80 81/81/81 79/79/79
f 82/82/82 81/81/81 80/80/80
f 82/82/82 83/83/83 81/81/81
f 83/83/83 82/82/82 84/84/84
f 85/85/85 86/86/86 87/87/87
f 86/86/86 85/85/85 88/88/88
f 89/89/89 90/90/90 91/91/91
f 90/90/90 89/89/89 92/92/92
f 93/93/93 94/94/94 95/95/95
f 94/94/94 93/93/93 96/96/96
f 97/97/97 98/98/98 99/99/99
f 98/98/98 97/97/97 100/100/100
f 101/101/101 102/102/102 103/103/103
f 102/102/102 101/101/101 104/104/104
f 105/105/105 106/106/106 107/107/107
f 106/106/106 105/105/105 108/108/108
f 109/109/109 110/110/110 111/111/111
f 110/110/110 109/109/109 112/112/112
f 113/113/113 114/114/114 115/115/115
f 114/114/114 113/113/113 116/116/116
f 117/117/117 118/118/118 119/119/119
f 118/118/118 117/117/117 120/120/120
f 121/121/121 122/122/122 123/123/123
f 122/122/122 121/121/121 124/124/124
f 125/125/125 126/126/126 127/127/127
f 125/125/125 60/60/60 126/126/126
f 59/59/59 60/60/60 125/125/125
f 128/128/128 129/129/129 130/130/130
f 129/129/129 128/128/128 131/131/131
f 67/67/67 132/132/132 133/133/133
f 67/67/67 66/66/66 132/132/132
f 133/133/133 132/132/132 134/134/134
f 133/133/133 134/134/134 135/135/135
f 135/135/135 134/134/134 136/136/136
f 137/137/137 138/138/138 139/139/139
f 138/138/138 137/137/137 140/140/140
f 127/127/127 141/141/141 142/142/142
f 127/127/127 126/126/126 141/141/141
f 143/143/143 144/144/144 145/145/145
f 144/144/144 143/143/143 146/146/146
f 147/147/147 148/148/148 149/149/149
f 148/148/148 147/147/147 150/150/150
f 135/135/135 136/136/136 151/151/151
f 152/152/152 153/153/153 154/154/154
f 153/153/153 152/152/152 155/155/155
f 142/142/142 141/141/141 156/156/156
