# Rhino

mtllib BedSet_07_05.mtl
usemtl Default
v 0.35458585764299988 0.36749129383900003 0.18421486160900002
v 0.35458585764299988 0.30826547113899999 0.18882210729899995
v 0.35458585764299988 0.30826547113899999 0.18421486160900002
v 0.35458585764299988 0.36749129383900003 0.18882210729899995
v 0.35458585764299988 0.36749129383900003 0.18882210729899995
v 0.35930600388399991 0.36749129383900003 0.18421486160900002
v 0.35458585764299988 0.36749129383900003 0.18421486160900002
v 0.35930600388399991 0.36749129383900003 0.18882210729899995
v 0.35930600388399991 0.36749129383900003 0.18882210729899995
v 0.35458585764299988 0.30826547113899999 0.18882210729899995
v 0.35458585764299988 0.36749129383900003 0.18882210729899995
v 0.35930600388399991 0.30826547113899999 0.18882210729899995
v 0.35930600388399991 0.30826547113899999 0.18882210729899995
v 0.35930600388399991 0.36749129383900003 0.18421486160900002
v 0.35930600388399991 0.36749129383900003 0.18882210729899995
v 0.35930600388399991 0.30826547113899999 0.18421486160900002
v 0.35458585764299988 0.36749129383900003 0.18421486160900002
v 0.35930600388399991 0.30826547113899999 0.18421486160900002
v 0.35930600388399991 0.36749129383900003 0.18421486160900002
v 0.35458585764299988 0.30826547113899999 0.18421486160900002
v 0.35458585764299988 0.30826547113899999 0.18882210729899995
v 0.35458585764299988 0.30826547113899999 0.18421486160900002
v 0.35694593076349967 0.30826547113899999 0.18651848445399999
v 0.35930600388399991 0.30826547113899999 0.18882210729899995
v 0.35930600388399991 0.30826547113899999 0.18421486160900002
vt -11.371199607849121 3.3906199932098389
vt -11.413700103759766 2.8441898822784424
vt -11.371199607849121 2.8441898822784424
vt -11.413700103759766 3.3906199932098389
vt -13.672300338745117 3.3906300067901611
vt -13.715800285339355 3.3481199741363525
vt -13.672300338745117 3.3481199741363525
vt -13.715800285339355 3.3906300067901611
vt -11.457200050354004 3.3906199932098389
vt -11.413700103759766 2.8441898822784424
vt -11.413700103759766 3.3906199932098389
vt -11.457200050354004 2.8441898822784424
vt -13.715800285339355 2.8441898822784424
vt -13.673299789428711 3.3906300067901611
vt -13.715800285339355 3.3906300067901611
vt -13.673299789428711 2.8441898822784424
vt -11.371199607849121 3.3906199932098389
vt -11.32759952545166 2.8441898822784424
vt -11.32759952545166 3.3906199932098389
vt -11.371199607849121 2.8441898822784424
vt 0 0
vt 1 0
vt 0.5 0.5
vt 0 1
vt 1 1
vn -1 0 0
vn -1 0 0
vn -1 0 0
vn -1 0 0
vn 0 1 0
vn 0 1 0
vn 0 1 0
vn 0 1 0
vn 0 0 1
vn 0 0 1
vn 0 0 1
vn 0 0 1
vn 1 0 0
vn 1 0 0
vn 1 0 0
vn 1 0 0
vn 0 0 -1
vn 0 0 -1
vn 0 0 -1
vn 0 0 -1
vn 0 -1 0
vn 0 -1 0
vn 0 -1 0
vn 0 -1 0
vn 0 -1 0
f 1/1/1 3/3/3 2/2/2
f 2/2/2 4/4/4 1/1/1
f 5/5/5 6/6/6 7/7/7
f 6/6/6 5/5/5 8/8/8
f 9/9/9 11/11/11 10/10/10
f 10/10/10 12/12/12 9/9/9
f 13/13/13 14/14/14 15/15/15
f 14/14/14 13/13/13 16/16/16
f 17/17/17 19/19/19 18/18/18
f 18/18/18 20/20/20 17/17/17
f 23/23/23 24/24/24 21/21/21
f 25/25/25 23/23/23 22/22/22
f 21/21/21 22/22/22 23/23/23
f 24/24/24 23/23/23 25/25/25
