# Rhino

mtllib BedSet_06_06.mtl
usemtl Default
v 0.42071225909799992 0.31767309544900002 -0.19317928943400009
v 0.42071225909799992 0.33484488701600001 0.19317928943399998
v 0.42071225909799992 0.31767309544900002 0.19317928943399998
v 0.42071225909799992 0.33484488701600001 -0.19317928943400009
v 0.41092480910200013 0.31767309544900002 -0.027903319872399912
v 0.40783341542200002 0.31767309544900002 -0.19317928943400009
v 0.42071225909799992 0.31767309544900002 -0.19317928943400009
v 0.40783341542200002 0.31767309544900002 0.19317928943399998
v 0.41092480910200013 0.31767309544900002 0.027903319872400023
v 0.42071225909799992 0.31767309544900002 0.19317928943399998
v 0.41757879419199995 0.31767309544900002 0.027903319872400023
v 0.41757879419199995 0.31767309544900002 0.0064394218377500367
v 0.41092480910200013 0.31767309544900002 0.015025317621400025
v 0.41092480910200013 0.31767309544900002 0.0064394218377500367
v 0.41757879419199995 0.31767309544900002 0.015025317621400025
v 0.41757879419199995 0.31767309544900002 -0.0064394218377499257
v 0.41757879419199995 0.31767309544900002 -0.015025317621399914
v 0.41757879419199995 0.31767309544900002 -0.027903319872399912
v 0.41092480910200013 0.31767309544900002 -0.0064394218377499257
v 0.41092480910200013 0.31767309544900002 -0.015025317621399914
v 0.42071225909799992 0.33484488701600001 0.19317928943399998
v 0.40783341542200002 0.33484488701600001 -0.19317928943400009
v 0.40783341542200002 0.33484488701600001 0.19317928943399998
v 0.42071225909799992 0.33484488701600001 -0.19317928943400009
v 0.40783341542200002 0.31767309544900002 0.19317928943399998
v 0.40783341542200002 0.33484488701600001 -0.19317928943400009
v 0.40783341542200002 0.31767309544900002 -0.19317928943400009
v 0.40783341542200002 0.33484488701600001 0.19317928943399998
v 0.40783341542200002 0.31767309544900002 -0.19317928943400009
v 0.40783341542200002 0.33484488701600001 -0.19317928943400009
v 0.41427283725999997 0.32625899123250002 -0.19317928943400009
v 0.42071225909799992 0.31767309544900002 -0.19317928943400009
v 0.42071225909799992 0.33484488701600001 -0.19317928943400009
v 0.40783341542200002 0.31767309544900002 0.19317928943399998
v 0.40783341542200002 0.33484488701600001 0.19317928943399998
v 0.41427283725999997 0.32625899123250002 0.19317928943399998
v 0.42071225909799992 0.31767309544900002 0.19317928943399998
v 0.42071225909799992 0.33484488701600001 0.19317928943399998
v 0.41092480910200013 0.31767309544900002 0.027903319872400023
v 0.41092480910200013 0.31767309544900002 0.015025317621400025
v 0.41092480910200013 0.31767309544900002 0.0064394218377500367
v 0.41092480910200013 0.31767309544900002 -0.0064394218377499257
v 0.41092480910200013 0.31767309544900002 -0.015025317621399914
v 0.41092480910200013 0.31767309544900002 -0.027903319872399912
v 0.41757879419199995 0.31767309544900002 0.027903319872400023
v 0.41757879419199995 0.31767309544900002 0.015025317621400025
v 0.41757879419199995 0.31767309544900002 0.0064394218377500367
v 0.41757879419199995 0.31767309544900002 -0.0064394218377499257
v 0.41757879419199995 0.31767309544900002 -0.015025317621399914
v 0.41757879419199995 0.31767309544900002 -0.027903319872399912
vt -3.5871000289916992 0
vt -3.8822999000549316 0.032800000160932541
vt -3.8822999000549316 0
vt -3.5871000289916992 0.032800000160932541
vt -3.4077999591827393 -9.2833995819091797
vt -3.4054000377655029 -8.9675998687744141
vt -3.4152998924255371 -8.9675998687744141
vt -3.4054000377655029 -9.7058000564575195
vt -3.4077999591827393 -9.3900003433227539
vt -3.4152998924255371 -9.7058000564575195
vt -3.4128999710083008 -9.3900003433227539
vt -3.4128999710083008 -9.3489999771118164
vt -3.4077999591827393 -9.3654003143310547
vt -3.4077999591827393 -9.3489999771118164
vt -3.4128999710083008 -9.3654003143310547
vt -3.4128999710083008 -9.3243999481201172
vt -3.4128999710083008 -9.3079996109008789
vt -3.4128999710083008 -9.2833995819091797
vt -3.4077999591827393 -9.3243999481201172
vt -3.4077999591827393 -9.3079996109008789
vt 3.4152998924255371 -9.7058000564575195
vt 3.4054000377655029 -8.9675998687744141
vt 3.4054000377655029 -9.7058000564575195
vt 3.4152998924255371 -8.9675998687744141
vt 3.8822999000549316 0
vt 3.5871000289916992 0.032800000160932541
vt 3.5871000289916992 0
vt 3.8822999000549316 0.032800000160932541
vt 1 0
vt 0 0
vt 0.5 0.5
vt 1 1
vt 0 1
vt 0 1
vt 0 0
vt 0.5 0.5
vt 1 1
vt 1 0
vt 0 0
vt 0 0.23076111078262329
vt 0 0.38461190462112427
vt 0 0.61538809537887573
vt 0 0.76923888921737671
vt 0 1
vt 1 0
vt 1 0.23076111078262329
vt 1 0.38461190462112427
vt 1 0.61538809537887573
vt 1 0.76923888921737671
vt 1 1
vn 1 0 0
vn 1 0 0
vn 1 0 0
vn 1 0 0
vn 0 -1 0
vn 0 -1 0
vn 0 -1 0
vn 0 -1 0
vn 0 -1 0
vn 0 -1 0
vn 0 -1 0
vn 0 -1 0
vn 0 -1 0
vn 0 -1 0
vn 0 -1 0
vn 0 -1 0
vn 0 -1 0
vn 0 -1 0
vn 0 -1 0
vn 0 -1 0
vn 0 1 0
vn 0 1 0
vn 0 1 0
vn 0 1 0
vn -1 0 0
vn -1 0 0
vn -1 0 0
vn -1 0 0
vn 0 0 -1
vn 0 0 -1
vn 0 0 -1
vn 0 0 -1
vn 0 0 -1
vn 0 0 1
vn 0 0 1
vn 0 0 1
vn 0 0 1
vn 0 0 1
vn 0 -1 0
vn 0 -1 0
vn 0 -1 0
vn 0 -1 0
vn 0 -1 0
vn 0 -1 0
vn 0 -1 0
vn 0 -1 0
vn 0 -1 0
vn 0 -1 0
vn 0 -1 0
vn 0 -1 0
f 1/1/1 2/2/2 3/3/3
f 2/2/2 1/1/1 4/4/4
f 5/5/5 6/6/6 7/7/7
f 6/6/6 5/5/5 8/8/8
f 9/9/9 8/8/8 5/5/5
f 8/8/8 9/9/9 10/10/10
f 10/10/10 9/9/9 11/11/11
f 12/12/12 13/13/13 14/14/14
f 13/13/13 12/12/12 15/15/15
f 12/12/12 7/7/7 15/15/15
f 16/16/16 7/7/7 12/12/12
f 17/17/17 7/7/7 16/16/16
f 18/18/18 7/7/7 17/17/17
f 5/5/5 7/7/7 18/18/18
f 19/19/19 17/17/17 16/16/16
f 17/17/17 19/19/19 20/20/20
f 15/15/15 7/7/7 11/11/11
f 10/10/10 11/11/11 7/7/7
f 21/21/21 22/22/22 23/23/23
f 22/22/22 21/21/21 24/24/24
f 25/25/25 26/26/26 27/27/27
f 26/26/26 25/25/25 28/28/28
f 31/31/31 30/30/30 33/33/33
f 32/32/32 29/29/29 31/31/31
f 30/30/30 31/31/31 29/29/29
f 33/33/33 32/32/32 31/31/31
f 36/36/36 35/35/35 34/34/34
f 37/37/37 38/38/38 36/36/36
f 35/35/35 36/36/36 38/38/38
f 34/34/34 37/37/37 36/36/36
f 45/45/45 39/39/39 40/40/40
f 49/49/49 43/43/43 44/44/44
f 42/42/42 47/47/47 41/41/41
f 40/40/40 46/46/46 45/45/45
f 44/44/44 50/50/50 49/49/49
f 42/42/42 48/48/48 47/47/47
