# Rhino

mtllib BedSet_05_01.mtl
usemtl Default
v 0.35787894050699998 0.10430642487149999 -0.29133863498599943
v 0.32191120779299998 0.10430642487149999 0.29133863498599943
v 0.35787894050699998 0.10430642487149999 -0.28594347507799966
v 0.32191120779299998 0.10430642487149999 -0.29133863498599943
v 0.35787894050699998 0.10430642487149999 -0.28594347507799966
v 0.35787894050699998 0.097112878328699997 -0.0071935465428598633
v 0.35787894050699998 0.097112878328699997 -0.28594347507799966
v 0.35787894050699998 0.097112878328699997 0.0071935465428598633
v 0.35787894050699998 0.097112878328699997 0.28594347507799966
v 0.35787894050699998 0.10430642487149999 0.28594347507799966
v 0.35787894050699998 0.10430642487149999 0.28594347507799966
v 0.35787894050699998 0.10430642487149999 0.29133863498599943
v 0.32191120779299998 0.10430642487149999 0.29133863498599943
v 0.32191120779299998 0.097112878328699997 0.0071935465428598633
v 0.32191120779299998 0.097112878328699997 0.29133863498599943
v 0.32191120779299998 0.097112878328699997 -0.0071935465428598633
v 0.32191120779299998 0.097112878328699997 -0.29133863498599943
v 0.32191120779299998 0.10430642487149999 -0.29133863498599943
v 0.35787894050699998 0.097112878328699997 0.28594347507799966
v 0.32191120779299998 0.097112878328699997 0.29133863498599943
v 0.35787894050699998 0.097112878328699997 0.29133863498599943
v 0.35787894050699998 0.097112878328699997 0.0071935465428598633
v 0.32191120779299998 0.097112878328699997 0.0071935465428598633
v 0.32191120779299998 0.097112878328699997 -0.0071935465428598633
v 0.35787894050699998 0.097112878328699997 -0.29133863498599943
v 0.32191120779299998 0.097112878328699997 -0.29133863498599943
v 0.35787894050699998 0.097112878328699997 -0.28594347507799966
v 0.35787894050699998 0.097112878328699997 -0.0071935465428598633
v 0.32191120779299998 0.097112878328699997 0.0071935465428598633
v 0.32191120779299998 0.097112878328699997 -0.0071935465428598633
v 0.33989507414999998 0.097112878328699997 0
v 0.35787894050699998 0.097112878328699997 0.0071935465428598633
v 0.35787894050699998 0.097112878328699997 -0.0071935465428598633
vt 0.25 20.299999237060547
vt 16.450000762939453 19.299999237060547
vt 0.40000000596046448 20.299999237060547
vt 0.25 19.299999237060547
vt -0.40000000596046448 2.9000000953674316
vt -8.1499996185302734 2.7000000476837158
vt -0.40000000596046448 2.7000000476837158
vt -8.5500001907348633 2.7000000476837158
vt -16.299999237060547 2.7000000476837158
vt -16.299999237060547 2.9000000953674316
vt 16.299999237060547 20.299999237060547
vt 16.450000762939453 20.299999237060547
vt 16.450000762939453 2.9000000953674316
vt 8.5500001907348633 2.7000000476837158
vt 16.450000762939453 2.7000000476837158
vt 8.1499996185302734 2.7000000476837158
vt 0.25 2.7000000476837158
vt 0.25 2.9000000953674316
vt 16.299999237060547 20.299999237060547
vt 16.450000762939453 19.299999237060547
vt 16.450000762939453 20.299999237060547
vt 8.5500001907348633 20.299999237060547
vt 8.5500001907348633 19.299999237060547
vt 32.086601257324219 75.984298706054688
vt 0.98425197601318359 79.921302795410156
vt 0.98425197601318359 75.984298706054688
vt 1.5748000144958496 79.921302795410156
vt 32.086601257324219 79.921302795410156
vt 1 1
vt 0 1
vt 0.5 0.5
vt 1 0
vt 0 0
vn 0 1 0
vn 0 1 0
vn 0 1 0
vn 0 1 0
vn 1 0 0
vn 1 0 0
vn 1 0 0
vn 1 0 0
vn 1 0 0
vn 1 0 0
vn 0 1 0
vn 0 1 0
vn -1 0 0
vn -1 0 0
vn -1 0 0
vn -1 0 0
vn -1 0 0
vn -1 0 0
vn 0 -1 0
vn 0 -1 0
vn 0 -1 0
vn 0 -1 0
vn 0 -1 0
vn 0 -1 0
vn 0 -1 0
vn 0 -1 0
vn 0 -1 0
vn 0 -1 0
vn 0 -1 0
vn 0 -1 0
vn 0 -1 0
vn 0 -1 0
vn 0 -1 0
f 1/1/1 2/2/2 3/3/3
f 2/2/2 1/1/1 4/4/4
f 5/5/5 6/6/6 7/7/7
f 6/6/6 5/5/5 8/8/8
f 8/8/8 5/5/5 9/9/9
f 9/9/9 5/5/5 10/10/10
f 3/3/3 2/2/2 11/11/11
f 11/11/11 2/2/2 12/12/12
f 13/13/13 14/14/14 15/15/15
f 14/14/14 13/13/13 16/16/16
f 16/16/16 13/13/13 17/17/17
f 17/17/17 13/13/13 18/18/18
f 19/19/19 21/21/21 20/20/20
f 22/22/22 19/19/19 20/20/20
f 20/20/20 23/23/23 22/22/22
f 24/24/24 26/26/26 25/25/25
f 25/25/25 27/27/27 24/24/24
f 27/27/27 28/28/28 24/24/24
f 31/31/31 30/30/30 33/33/33
f 29/29/29 31/31/31 32/32/32
f 33/33/33 32/32/32 31/31/31
f 30/30/30 31/31/31 29/29/29
