# Rhino

mtllib BedSet_16_23.mtl
usemtl Default
v 0.39689826714100018 0.028063887131399998 -0.28559265595600003
v -0.39689910705000031 0.028063887131399998 -0.28559265595600003
v 0.39689826714100018 0.028063887131399998 -0.24550210854800003
v 0.39689826714100018 0.028063887131399998 -0.28559265595600003
v 0.40411560716199979 0.020847387019700001 -0.28559265595600003
v -0.39689910705000031 0.028063887131399998 -0.28559265595600003
v 0.39689826714100018 0.028063887131399998 -0.24550210854800003
v -0.39689910705000031 0.028063887131399998 -0.24550210854800003
v 0.40411560716199979 0.020847387019700001 -0.24550210854800003
v -0.39689910705000031 0.028063887131399998 -0.24550210854800003
v -0.40331265393700022 0.020045273704199992 -0.24550210854800003
v -0.40331265393700022 0.020045273704199992 -0.28559265595600003
v 0.40331265393700022 0.020045273704199992 -0.24550210854800003
v 0.40331265393700022 0.020045273704199992 -0.28559265595600003
v 0.40331265393700022 0.020045273704199992 -0.28559265595600003
v -0.40331265393700022 0.020045273704199992 -0.28559265595600003
v -0.40411476725299966 0.020847387019700001 -0.28559265595600003
v 0.40331265393700022 0.020045273704199992 -0.24550210854800003
v -0.40411476725299966 0.020847387019700001 -0.24550210854800003
v -0.40331265393700022 0.020045273704199992 -0.24550210854800003
vt -0.7874000072479248 14.960599899291992
vt -78.740196228027344 14.960599899291992
vt -0.7874000072479248 18.897600173950195
vt 0.7874000072479248 0
vt 0.078699998557567596 0.70870000123977661
vt 78.740196228027344 0
vt -0.7874000072479248 0
vt -78.740196228027344 0
vt -0.078699998557567596 0.70870000123977661
vt -78.740196228027344 18.897600173950195
vt 79.370101928710938 18.897600173950195
vt 79.370101928710938 14.960599899291992
vt 0.1574999988079071 18.897600173950195
vt 0.1574999988079071 14.960599899291992
vt 0.1574999988079071 0.7874000072479248
vt 79.370101928710938 0.7874000072479248
vt 79.448799133300781 0.70870000123977661
vt -0.1574999988079071 0.7874000072479248
vt -79.448799133300781 0.70870000123977661
vt -79.370101928710938 0.7874000072479248
vn 0 1 0
vn 0 1 0
vn 0 1 0
vn 0 0 -1
vn 0 0 -1
vn 0 0 -1
vn 0 0 1
vn 0 0 1
vn 0 0 1
vn 0 1 0
vn 0 -1 0
vn 0 -1 0
vn 0 -1 0
vn 0 -1 0
vn 0 0 -1
vn 0 0 -1
vn 0 0 -1
vn 0 0 1
vn 0 0 1
vn 0 0 1
f 1/1/1 2/2/2 3/3/3
f 4/4/4 5/5/5 6/6/6
f 7/7/7 8/8/8 9/9/9
f 10/10/10 3/3/3 2/2/2
f 11/11/11 12/12/12 13/13/13
f 14/14/14 13/13/13 12/12/12
f 15/15/15 16/16/16 5/5/5
f 16/16/16 17/17/17 5/5/5
f 17/17/17 6/6/6 5/5/5
f 18/18/18 9/9/9 19/19/19
f 19/19/19 9/9/9 8/8/8
f 20/20/20 18/18/18 19/19/19
