# Rhino

mtllib BedSet_08_24.mtl
usemtl Default
v -0.28371224049899979 0.08216373314299999 -0.0288575423142996
v 0.28955771467399982 0.086361896024999996 -0.0288575423142996
v 0.28955771467399982 0.08216373314299999 -0.0288575423142996
v -0.28371224049899979 0.086361896024999996 -0.0288575423142996
v -0.33148519152699985 0.098955377192999988 -0.0288575423142996
v 0.33733024592100014 0.098955377192999988 -0.0288575423142996
v 0.33733024592100014 0.096856463664999989 -0.0288575423142996
v 0.33733024592100014 0.098955377192999988 -0.0288575423142996
v 0.33733024592100014 0.096856463664999989 -0.02256080173019992
v 0.33733024592100014 0.096856463664999989 -0.0288575423142996
v 0.33733024592100014 0.096856463664999989 -0.0087079724451397666
v 0.33733024592100014 0.098955377192999988 -0.0024112318610098882
v 0.33733024592100014 0.096856463664999989 -0.0024112318610098882
v -0.33148519152699985 0.098955377192999988 -0.0024112318610098882
v 0.33733024592100014 0.096856463664999989 -0.0024112318610098882
v 0.33733024592100014 0.098955377192999988 -0.0024112318610098882
v 0.28955771467399982 0.086361896024999996 -0.0024112318610098882
v 0.28955771467399982 0.08216373314299999 -0.0024112318610098882
v -0.28371224049899979 0.086361896024999996 -0.0024112318610098882
v -0.33148519152699985 0.096856463664999989 -0.0024112318610098882
v -0.33148519152699985 0.098955377192999988 -0.0024112318610098882
v -0.33148519152699985 0.096856463664999989 -0.0087079724451397666
v -0.33148519152699985 0.096856463664999989 -0.0024112318610098882
v -0.33148519152699985 0.096856463664999989 -0.02256080173019992
v -0.33148519152699985 0.098955377192999988 -0.0288575423142996
v -0.33148519152699985 0.096856463664999989 -0.0288575423142996
v -0.33148519152699985 0.096856463664999989 -0.0288575423142996
v -0.28371224049899979 0.086361896024999996 -0.02256080173019992
v -0.33148519152699985 0.096856463664999989 -0.0288575423142996
v -0.28371224049899979 0.086361896024999996 -0.0288575423142996
v -0.33148519152699985 0.096856463664999989 -0.02256080173019992
v -0.28371224049899979 0.08216373314299999 -0.0288575423142996
v -0.28371224049899979 0.086361896024999996 -0.02256080173019992
v -0.28371224049899979 0.086361896024999996 -0.0288575423142996
v -0.28371224049899979 0.08216373314299999 -0.02256080173019992
v -0.28371224049899979 0.08216373314299999 -0.0288575423142996
v 0.28955771467399982 0.08216373314299999 -0.02256080173019992
v -0.28371224049899979 0.08216373314299999 -0.02256080173019992
v 0.28955771467399982 0.08216373314299999 -0.0288575423142996
v 0.28955771467399982 0.086361896024999996 -0.0288575423142996
v 0.28955771467399982 0.08216373314299999 -0.02256080173019992
v 0.28955771467399982 0.08216373314299999 -0.0288575423142996
v 0.28955771467399982 0.086361896024999996 -0.02256080173019992
v 0.28955771467399982 0.086361896024999996 -0.0288575423142996
v 0.33733024592100014 0.096856463664999989 -0.02256080173019992
v 0.28955771467399982 0.086361896024999996 -0.02256080173019992
v 0.33733024592100014 0.096856463664999989 -0.0288575423142996
v -0.28371224049899979 0.086361896024999996 -0.02256080173019992
v 0.28955771467399982 0.08216373314299999 -0.02256080173019992
v 0.28955771467399982 0.086361896024999996 -0.02256080173019992
v -0.28371224049899979 0.08216373314299999 -0.02256080173019992
v -0.33148519152699985 0.098955377192999988 -0.0024112318610098882
v 0.33733024592100014 0.098955377192999988 -0.0288575423142996
v -0.33148519152699985 0.098955377192999988 -0.0288575423142996
v 0.33733024592100014 0.098955377192999988 -0.0024112318610098882
v -0.33148519152699985 0.096856463664999989 -0.0087079724451397666
v -0.28371224049899979 0.086361896024999996 -0.0024112318610098882
v -0.33148519152699985 0.096856463664999989 -0.0024112318610098882
v -0.28371224049899979 0.086361896024999996 -0.0087079724451397666
v -0.28371224049899979 0.08216373314299999 -0.0087079724451397666
v -0.28371224049899979 0.086361896024999996 -0.0024112318610098882
v -0.28371224049899979 0.086361896024999996 -0.0087079724451397666
v -0.28371224049899979 0.08216373314299999 -0.0024112318610098882
v -0.28371224049899979 0.08216373314299999 -0.0087079724451397666
v 0.28955771467399982 0.08216373314299999 -0.0024112318610098882
v -0.28371224049899979 0.08216373314299999 -0.0024112318610098882
v 0.28955771467399982 0.08216373314299999 -0.0087079724451397666
v -0.28371224049899979 0.08216373314299999 -0.0087079724451397666
v 0.28955771467399982 0.086361896024999996 -0.0087079724451397666
v 0.28955771467399982 0.08216373314299999 -0.0087079724451397666
v -0.28371224049899979 0.086361896024999996 -0.0087079724451397666
v 0.28955771467399982 0.086361896024999996 -0.0087079724451397666
v 0.28955771467399982 0.08216373314299999 -0.0024112318610098882
v 0.28955771467399982 0.08216373314299999 -0.0087079724451397666
v 0.28955771467399982 0.086361896024999996 -0.0024112318610098882
v 0.28955771467399982 0.086361896024999996 -0.0087079724451397666
v 0.33733024592100014 0.096856463664999989 -0.0024112318610098882
v 0.28955771467399982 0.086361896024999996 -0.0024112318610098882
v 0.33733024592100014 0.096856463664999989 -0.0087079724451397666
v -0.28371224049899979 0.08216373314299999 -0.0024112318610098882
vt 1.4444400072097778 0
vt 0.11111100018024445 0.0092592602595686913
vt 0.11111100018024445 0
vt 1.4444400072097778 0.0092592602595686913
vt 1.5555599927902222 0.037037000060081482
vt 0 0.037037000060081482
vt 0 0.032407399266958237
vt 0.07777780294418335 0.037037000060081482
vt 0.05925929918885231 0.032407399266958237
vt 0.07777780294418335 0.032407399266958237
vt 0.018518500030040741 0.032407399266958237
vt 0 0.037037000060081482
vt 0 0.032407399266958237
vt -1.5555599927902222 0.037037000060081482
vt 0 0.032407399266958237
vt 0 0.037037000060081482
vt -0.11111100018024445 0.0092592602595686913
vt -0.11111100018024445 0
vt -1.4444400072097778 0.0092592602595686913
vt -1.5555599927902222 0.032407399266958237
vt 0 0.037037000060081482
vt -0.018518500030040741 0.032407399266958237
vt 0 0.032407399266958237
vt -0.05925929918885231 0.032407399266958237
vt -0.07777780294418335 0.037037000060081482
vt -0.07777780294418335 0.032407399266958237
vt 1.5555599927902222 0.032407399266958237
vt -0.05925929918885231 1.4159699678421021
vt -0.07777780294418335 1.5294699668884277
vt -0.07777780294418335 1.4159699678421021
vt -0.05925929918885231 1.5294699668884277
vt -0.07777780294418335 0
vt -0.05925929918885231 0.0092592602595686913
vt -0.07777780294418335 0.0092592602595686913
vt -0.05925929918885231 0
vt -0.07777780294418335 1.4444400072097778
vt -0.05925929918885231 0.11111100018024445
vt -0.05925929918885231 1.4444400072097778
vt -0.07777780294418335 0.11111100018024445
vt 0.07777780294418335 0.0092592602595686913
vt 0.05925929918885231 0
vt 0.07777780294418335 0
vt 0.05925929918885231 0.0092592602595686913
vt 0.07777780294418335 -0.10688699781894684
vt 0.05925929918885231 0.0066096298396587372
vt 0.05925929918885231 -0.10688699781894684
vt 0.07777780294418335 0.0066096298396587372
vt -1.4444400072097778 0.0092592602595686913
vt -0.11111100018024445 0
vt -0.11111100018024445 0.0092592602595686913
vt -1.4444400072097778 0
vt 0 1.5555599927902222
vt 0.07777780294418335 0
vt 0.07777780294418335 1.5555599927902222
vt 0 0
vt -0.018518500030040741 1.5294699668884277
vt 0 1.4159699678421021
vt 0 1.5294699668884277
vt -0.018518500030040741 1.4159699678421021
vt -0.018518500030040741 0
vt 0 0.0092592602595686913
vt -0.018518500030040741 0.0092592602595686913
vt 0 0
vt -0.018518500030040741 1.4444400072097778
vt 0 0.11111100018024445
vt 0 1.4444400072097778
vt -0.018518500030040741 0.11111100018024445
vt 1.4444400072097778 0
vt 0.11111100018024445 0.0092592602595686913
vt 0.11111100018024445 0
vt 1.4444400072097778 0.0092592602595686913
vt 0.018518500030040741 0.0092592602595686913
vt 0 0
vt 0.018518500030040741 0
vt 0 0.0092592602595686913
vt 0.018518500030040741 -0.10688699781894684
vt 0 0.0066096298396587372
vt 0 -0.10688699781894684
vt 0.018518500030040741 0.0066096298396587372
vt -1.4444400072097778 0
vn 0 0 -1
vn 0 0 -1
vn 0 0 -1
vn 0 0 -1
vn 0 0 -1
vn 0 0 -1
vn 0 0 -1
vn 1 0 0
vn 1 0 0
vn 1 0 0
vn 1 0 0
vn 1 0 0
vn 1 0 0
vn 0 0 1
vn 0 0 1
vn 0 0 1
vn 0 0 1
vn 0 0 1
vn 0 0 1
vn 0 0 1
vn -1 0 0
vn -1 0 0
vn -1 0 0
vn -1 0 0
vn -1 0 0
vn -1 0 0
vn 0 0 -1
vn -0.21455986797809601 -0.97671085596084595 0
vn -0.21455986797809601 -0.97671085596084595 0
vn -0.21455986797809601 -0.97671085596084595 0
vn -0.21455986797809601 -0.97671085596084595 0
vn -1 0 0
vn -1 0 0
vn -1 0 0
vn -1 0 0
vn 0 -1 0
vn 0 -1 0
vn 0 -1 0
vn 0 -1 0
vn 1 0 0
vn 1 0 0
vn 1 0 0
vn 1 0 0
vn 0.21456167101860046 -0.97671043872833252 0
vn 0.21456167101860046 -0.97671043872833252 0
vn 0.21456167101860046 -0.97671043872833252 0
vn 0.21456167101860046 -0.97671043872833252 0
vn 0 0 1
vn 0 0 1
vn 0 0 1
vn 0 0 1
vn 0 1 0
vn 0 1 0
vn 0 1 0
vn 0 1 0
vn -0.21455986797809601 -0.97671085596084595 0
vn -0.21455986797809601 -0.97671085596084595 0
vn -0.21455986797809601 -0.97671085596084595 0
vn -0.21455986797809601 -0.97671085596084595 0
vn -1 0 0
vn -1 0 0
vn -1 0 0
vn -1 0 0
vn 0 -1 0
vn 0 -1 0
vn 0 -1 0
vn 0 -1 0
vn 0 0 -1
vn 0 0 -1
vn 0 0 -1
vn 0 0 -1
vn 1 0 0
vn 1 0 0
vn 1 0 0
vn 1 0 0
vn 0.21456167101860046 -0.97671043872833252 0
vn 0.21456167101860046 -0.97671043872833252 0
vn 0.21456167101860046 -0.97671043872833252 0
vn 0.21456167101860046 -0.97671043872833252 0
vn 0 0 1
f 1/1/1 2/2/2 3/3/3
f 4/4/4 2/2/2 1/1/1
f 5/5/5 2/2/2 4/4/4
f 6/6/6 2/2/2 5/5/5
f 2/2/2 6/6/6 7/7/7
f 8/8/8 9/9/9 10/10/10
f 9/9/9 8/8/8 11/11/11
f 12/12/12 11/11/11 8/8/8
f 11/11/11 12/12/12 13/13/13
f 14/14/14 15/15/15 16/16/16
f 15/15/15 14/14/14 17/17/17
f 17/17/17 14/14/14 18/18/18
f 18/18/18 14/14/14 19/19/19
f 19/19/19 14/14/14 20/20/20
f 21/21/21 22/22/22 23/23/23
f 22/22/22 21/21/21 24/24/24
f 25/25/25 24/24/24 21/21/21
f 24/24/24 25/25/25 26/26/26
f 5/5/5 4/4/4 27/27/27
f 28/28/28 29/29/29 30/30/30
f 29/29/29 28/28/28 31/31/31
f 32/32/32 33/33/33 34/34/34
f 33/33/33 32/32/32 35/35/35
f 36/36/36 37/37/37 38/38/38
f 37/37/37 36/36/36 39/39/39
f 40/40/40 41/41/41 42/42/42
f 41/41/41 40/40/40 43/43/43
f 44/44/44 45/45/45 46/46/46
f 45/45/45 44/44/44 47/47/47
f 48/48/48 49/49/49 50/50/50
f 49/49/49 48/48/48 51/51/51
f 52/52/52 53/53/53 54/54/54
f 53/53/53 52/52/52 55/55/55
f 56/56/56 57/57/57 58/58/58
f 57/57/57 56/56/56 59/59/59
f 60/60/60 61/61/61 62/62/62
f 61/61/61 60/60/60 63/63/63
f 64/64/64 65/65/65 66/66/66
f 65/65/65 64/64/64 67/67/67
f 68/68/68 69/69/69 70/70/70
f 69/69/69 68/68/68 71/71/71
f 72/72/72 73/73/73 74/74/74
f 73/73/73 72/72/72 75/75/75
f 76/76/76 77/77/77 78/78/78
f 77/77/77 76/76/76 79/79/79
f 80/80/80 18/18/18 19/19/19
