# Rhino

mtllib BedSet_16_04.mtl
usemtl Default
v -0.011982145087600315 0.036883773964699995 0.055179516740800016
v -0.38727710690100015 0.036883773964699995 0.26765975396800001
v -0.38727710690100015 0.036883773964699995 0.055179516740800016
v -0.011982145087600315 0.036883773964699995 0.26765975396800001
v -0.011982145087600315 0.038086523983399997 0.059188403499800035
v -0.38727710690100015 0.038086523983399997 0.26765975396800001
v -0.011982145087600315 0.038086523983399997 0.26765975396800001
v -0.38727710690100015 0.038086523983399997 0.059188403499800035
v -0.011982145087600315 0.036883773964699995 0.26765975396800001
v -0.38727710690100015 0.038086523983399997 0.26765975396800001
v -0.38727710690100015 0.036883773964699995 0.26765975396800001
v -0.011982145087600315 0.038086523983399997 0.26765975396800001
vt -20.866100311279297 -13.527999877929688
vt 0 23.326799392700195
vt -20.866100311279297 23.326799392700195
vt 0 -13.527999877929688
vt 20.472400665283203 -13.527999877929688
vt 0 23.326799392700195
vt 0 -13.527999877929688
vt 20.472400665283203 23.326799392700195
vt 13.527999877929688 0.7874000072479248
vt -23.326799392700195 0.90549999475479126
vt -23.326799392700195 0.7874000072479248
vt 13.527999877929688 0.90549999475479126
vn 0 -1 0
vn 0 -1 0
vn 0 -1 0
vn 0 -1 0
vn 0 1 0
vn 0 1 0
vn 0 1 0
vn 0 1 0
vn 0 0 1
vn 0 0 1
vn 0 0 1
vn 0 0 1
f 1/1/1 2/2/2 3/3/3
f 2/2/2 1/1/1 4/4/4
f 5/5/5 6/6/6 7/7/7
f 6/6/6 5/5/5 8/8/8
f 9/9/9 10/10/10 11/11/11
f 10/10/10 9/9/9 12/12/12
