# Rhino

mtllib BedSet_10_20.mtl
usemtl Default
v -0.35147893059399982 0.30384756575720001 0.24650044643099989
v -0.35219252516100008 0.3043952746136 -0.24650044643099989
v -0.35147893059399982 0.30384756575720001 -0.24650044643099989
v -0.35219252516100008 0.3043952746136 0.24650044643099989
v -0.35219252516100008 0.30927102747430002 0.24650044643099989
v -0.35219252516100008 0.3043952746136 0.24650044643099989
v -0.35147893059399982 0.30384756575720001 0.24650044643099989
v -0.35274094904199993 0.30855671788229999 0.24650044643099989
v -0.35274094904199993 0.30510958420560003 0.24650044643099989
v -0.35308559090699987 0.30772514425320002 0.24650044643099989
v -0.35308559090699987 0.30594115783469999 0.24650044643099989
v -0.35320285494400006 0.30683279353159998 0.24650044643099989
v -0.35308559090699987 0.30772514425320002 0.24650044643099989
v -0.35320285494400006 0.30683279353159998 -0.24650044643099989
v -0.35320285494400006 0.30683279353159998 0.24650044643099989
v -0.35308559090699987 0.30772514425320002 -0.24650044643099989
v -0.35274094904199993 0.30855671788229999 0.24650044643099989
v -0.35308559090699987 0.30772514425320002 -0.24650044643099989
v -0.35308559090699987 0.30772514425320002 0.24650044643099989
v -0.35274094904199993 0.30855671788229999 -0.24650044643099989
v -0.35219252516100008 0.30927102747430002 0.24650044643099989
v -0.35274094904199993 0.30855671788229999 -0.24650044643099989
v -0.35274094904199993 0.30855671788229999 0.24650044643099989
v -0.35219252516100008 0.30927102747430002 -0.24650044643099989
v -0.35219252516100008 0.30927102747430002 0.24650044643099989
v -0.35147893059399982 0.30981873633060003 -0.24650044643099989
v -0.35219252516100008 0.30927102747430002 -0.24650044643099989
v -0.35147893059399982 0.30981873633060003 0.24650044643099989
v -0.35147893059399982 0.30981873633060003 0.24650044643099989
v -0.35064807198900017 0.30350292389200001 0.24650044643099989
v -0.35147893059399982 0.30384756575720001 -0.24650044643099989
v -0.35064807198900017 0.30350292389200001 0.24650044643099989
v -0.35147893059399982 0.30384756575720001 0.24650044643099989
v -0.35064807198900017 0.30350292389200001 -0.24650044643099989
v -0.35147893059399982 0.30384756575720001 -0.24650044643099989
v -0.35064807198900017 0.31016337819580003 -0.24650044643099989
v -0.35064807198900017 0.30350292389200001 -0.24650044643099989
v -0.35147893059399982 0.30981873633060003 -0.24650044643099989
v -0.35219252516100008 0.3043952746136 -0.24650044643099989
v -0.35219252516100008 0.30927102747430002 -0.24650044643099989
v -0.35274094904199993 0.30510958420560003 -0.24650044643099989
v -0.35274094904199993 0.30855671788229999 -0.24650044643099989
v -0.35308559090699987 0.30594115783469999 -0.24650044643099989
v -0.35308559090699987 0.30772514425320002 -0.24650044643099989
v -0.35320285494400006 0.30683279353159998 -0.24650044643099989
v -0.35308559090699987 0.30594115783469999 -0.24650044643099989
v -0.35308559090699987 0.30594115783469999 0.24650044643099989
v -0.35274094904199993 0.30510958420560003 -0.24650044643099989
v -0.35308559090699987 0.30594115783469999 0.24650044643099989
v -0.35308559090699987 0.30594115783469999 -0.24650044643099989
v -0.35274094904199993 0.30510958420560003 0.24650044643099989
v -0.35219252516100008 0.3043952746136 -0.24650044643099989
v -0.35274094904199993 0.30510958420560003 0.24650044643099989
v -0.35274094904199993 0.30510958420560003 -0.24650044643099989
v -0.35219252516100008 0.3043952746136 0.24650044643099989
v -0.35147893059399982 0.30981873633060003 0.24650044643099989
v -0.35064807198900017 0.31016337819580003 -0.24650044643099989
v -0.35147893059399982 0.30981873633060003 -0.24650044643099989
v -0.35064807198900017 0.31016337819580003 0.24650044643099989
v -0.35064807198900017 0.31016337819580003 0.24650044643099989
v -0.34975500624299993 0.30338565985490001 0.24650044643099989
v -0.35064807198900017 0.30350292389200001 0.24650044643099989
v -0.34975500624299993 0.30338565985490001 -0.24132938840400087
v -0.34975500624299993 0.30338565985490001 0.24650044643099989
v -0.35064807198900017 0.30350292389200001 -0.24650044643099989
v -0.34975500624299993 0.30338565985490001 -0.24650044643099989
v -0.34975500624299993 0.31028064223290003 -0.24650044643099989
v -0.34975500624299993 0.30338565985490001 -0.24650044643099989
v -0.35064807198900017 0.31016337819580003 0.24650044643099989
v -0.34975500624299993 0.31028064223290003 -0.24650044643099989
v -0.35064807198900017 0.31016337819580003 -0.24650044643099989
v -0.34975500624299993 0.31028064223290003 -0.24132938840400087
v -0.34975500624299993 0.31028064223290003 0.24650044643099989
v -0.34975500624299993 0.31028064223290003 0.24650044643099989
v -0.34886265552100015 0.30350292389200001 0.24650044643099989
v -0.34975500624299993 0.30338565985490001 -0.24132938840400087
v -0.34886265552100015 0.30350292389200001 0.24650044643099989
v -0.34975500624299993 0.30338565985490001 0.24650044643099989
v -0.34886265552100015 0.30350292389200001 -0.24132938840400087
v -0.34975500624299993 0.30338565985490001 -0.24132938840400087
v -0.34886265552100015 0.31016337819580003 -0.24132938840400087
v -0.34886265552100015 0.30350292389200001 -0.24132938840400087
v -0.34975500624299993 0.31028064223290003 -0.24132938840400087
v -0.34975500624299993 0.30338565985490001 -0.24132938840400087
v -0.34975500624299993 0.31028064223290003 -0.24650044643099989
v -0.34975500624299993 0.31028064223290003 -0.24132938840400087
v -0.34975500624299993 0.30338565985490001 -0.24650044643099989
v -0.34975500624299993 0.31028064223290003 0.24650044643099989
v -0.34886265552100015 0.31016337819580003 -0.24132938840400087
v -0.34975500624299993 0.31028064223290003 -0.24132938840400087
v -0.34886265552100015 0.31016337819580003 0.24650044643099989
v -0.34886265552100015 0.31016337819580003 0.24650044643099989
v -0.34803179691700015 0.30384756575720001 0.24650044643099989
v -0.34886265552100015 0.30350292389200001 -0.24132938840400087
v -0.34803179691700015 0.30384756575720001 0.24650044643099989
v -0.34886265552100015 0.30350292389200001 0.24650044643099989
v -0.34803179691700015 0.30384756575720001 -0.24132938840400087
v -0.34803179691700015 0.30981873633060003 -0.24132938840400087
v -0.34803179691700015 0.30384756575720001 -0.24132938840400087
v -0.34886265552100015 0.31016337819580003 0.24650044643099989
v -0.34803179691700015 0.30981873633060003 -0.24132938840400087
v -0.34886265552100015 0.31016337819580003 -0.24132938840400087
v -0.34803179691700015 0.30981873633060003 0.24650044643099989
v -0.34803179691700015 0.30981873633060003 0.24650044643099989
v -0.34731820234999988 0.3043952746136 0.24650044643099989
v -0.34803179691700015 0.30384756575720001 -0.24132938840400087
v -0.34731820234999988 0.3043952746136 0.24650044643099989
v -0.34803179691700015 0.30384756575720001 0.24650044643099989
v -0.34731820234999988 0.3043952746136 -0.24132938840400087
v -0.34731820234999988 0.30927102747430002 -0.24132938840400087
v -0.34731820234999988 0.3043952746136 -0.24132938840400087
v -0.34803179691700015 0.30981873633060003 0.24650044643099989
v -0.34731820234999988 0.30927102747430002 -0.24132938840400087
v -0.34803179691700015 0.30981873633060003 -0.24132938840400087
v -0.34731820234999988 0.30927102747430002 0.24650044643099989
v -0.34731820234999988 0.30927102747430002 0.24650044643099989
v -0.34676977846900003 0.30510958420560003 0.24650044643099989
v -0.34731820234999988 0.3043952746136 0.24650044643099989
v -0.34676977846900003 0.30510958420560003 -0.24132938840400087
v -0.34676977846900003 0.30510958420560003 0.24650044643099989
v -0.34731820234999988 0.3043952746136 -0.24132938840400087
v -0.34676977846900003 0.30855671788229999 -0.24132938840400087
v -0.34676977846900003 0.30510958420560003 -0.24132938840400087
v -0.34731820234999988 0.30927102747430002 -0.24132938840400087
v -0.34676977846900003 0.30855671788229999 0.24650044643099989
v -0.34676977846900003 0.30855671788229999 -0.24132938840400087
v -0.34731820234999988 0.30927102747430002 0.24650044643099989
v -0.34676977846900003 0.30855671788229999 0.24650044643099989
v -0.34642513660300001 0.30594115783469999 0.24650044643099989
v -0.34676977846900003 0.30510958420560003 0.24650044643099989
v -0.34642513660300001 0.30594115783469999 -0.24132938840400087
v -0.34642513660300001 0.30594115783469999 0.24650044643099989
v -0.34676977846900003 0.30510958420560003 -0.24132938840400087
v -0.34642513660300001 0.30772514425320002 -0.24132938840400087
v -0.34642513660300001 0.30594115783469999 -0.24132938840400087
v -0.34676977846900003 0.30855671788229999 -0.24132938840400087
v -0.34642513660300001 0.30772514425320002 0.24650044643099989
v -0.34642513660300001 0.30772514425320002 -0.24132938840400087
v -0.34676977846900003 0.30855671788229999 0.24650044643099989
v -0.34642513660300001 0.30772514425320002 0.24650044643099989
v -0.34630787256599982 0.30683279353159998 0.24650044643099989
v -0.34642513660300001 0.30594115783469999 0.24650044643099989
v -0.34630787256599982 0.30683279353159998 -0.24132938840400087
v -0.34630787256599982 0.30683279353159998 0.24650044643099989
v -0.34642513660300001 0.30594115783469999 -0.24132938840400087
v -0.34630787256599982 0.30683279353159998 -0.24132938840400087
v -0.34642513660300001 0.30772514425320002 -0.24132938840400087
v -0.34630787256599982 0.30683279353159998 0.24650044643099989
v -0.34630787256599982 0.30683279353159998 -0.24132938840400087
v -0.34642513660300001 0.30772514425320002 0.24650044643099989
vt 55.708698272705078 -0.12409999966621399
vt -0.59060001373291016 -0.021299999207258224
vt -0.59060001373291016 -0.12409999966621399
vt 55.708698272705078 -0.021299999207258224
vt 0.11529999971389771 0.6721000075340271
vt 0.11529999971389771 0.11529999971389771
vt 0.19689999520778656 0.052700001746416092
vt 0.052700001746416092 0.59060001373291016
vt 0.052700001746416092 0.19689999520778656
vt 0.013399999588727951 0.49559998512268066
vt 0.013399999588727951 0.29179999232292175
vt 0 0.3937000036239624
vt 55.708698272705078 0.49309998750686646
vt -0.59060001373291016 0.39030000567436218
vt 55.708698272705078 0.39030000567436218
vt -0.59060001373291016 0.49309998750686646
vt 55.708698272705078 0.5658000111579895
vt -0.59060001373291016 0.46299999952316284
vt 55.708698272705078 0.46299999952316284
vt -0.59060001373291016 0.5658000111579895
vt 55.708698272705078 0.60339999198913574
vt -0.59060001373291016 0.50059998035430908
vt 55.708698272705078 0.50059998035430908
vt -0.59060001373291016 0.60339999198913574
vt 55.708698272705078 0.50059998035430908
vt -0.59060001373291016 0.60339999198913574
vt -0.59060001373291016 0.50059998035430908
vt 55.708698272705078 0.60339999198913574
vt 0.19689999520778656 0.73470002412796021
vt 0.29179999232292175 0.013399999588727951
vt -0.59060001373291016 -0.16169999539852142
vt 55.708698272705078 -0.26449999213218689
vt 55.708698272705078 -0.16169999539852142
vt -0.59060001373291016 -0.26449999213218689
vt -0.19689999520778656 0.052700001746416092
vt -0.29179999232292175 0.77399998903274536
vt -0.29179999232292175 0.013399999588727951
vt -0.19689999520778656 0.73470002412796021
vt -0.11529999971389771 0.11529999971389771
vt -0.11529999971389771 0.6721000075340271
vt -0.052700001746416092 0.19689999520778656
vt -0.052700001746416092 0.59060001373291016
vt -0.013399999588727951 0.29179999232292175
vt -0.013399999588727951 0.49559998512268066
vt 0 0.3937000036239624
vt -0.59060001373291016 0.28760001063346863
vt 55.708698272705078 0.28760001063346863
vt -0.59060001373291016 0.16169999539852142
vt 55.708698272705078 0.26449999213218689
vt -0.59060001373291016 0.26449999213218689
vt 55.708698272705078 0.16169999539852142
vt -0.59060001373291016 0.021299999207258224
vt 55.708698272705078 0.12409999966621399
vt -0.59060001373291016 0.12409999966621399
vt 55.708698272705078 0.021299999207258224
vt 55.708698272705078 0.46299999952316284
vt -0.59060001373291016 0.5658000111579895
vt -0.59060001373291016 0.46299999952316284
vt 55.708698272705078 0.5658000111579895
vt 0.29179999232292175 0.77399998903274536
vt 0.3937000036239624 0
vt 55.708698272705078 -0.28760001063346863
vt 0 -0.39030000567436218
vt 55.708698272705078 -0.39030000567436218
vt -0.59060001373291016 -0.28760001063346863
vt -0.59060001373291016 -0.39030000567436218
vt -0.3937000036239624 0.7874000072479248
vt -0.3937000036239624 0
vt 55.708698272705078 0.39030000567436218
vt -0.59060001373291016 0.49309998750686646
vt -0.59060001373291016 0.39030000567436218
vt 0 0.49309998750686646
vt 55.708698272705078 0.49309998750686646
vt 0.3937000036239624 0.7874000072479248
vt 0.49559998512268066 0.013399999588727951
vt 0 0.39030000567436218
vt -55.708698272705078 0.49309998750686646
vt -55.708698272705078 0.39030000567436218
vt 0 0.49309998750686646
vt -0.3937000036239624 0
vt -0.49559998512268066 0.77399998903274536
vt -0.49559998512268066 0.013399999588727951
vt -0.3937000036239624 0.7874000072479248
vt 0 0
vt 0.59060001373291016 0.7874000072479248
vt 0 0.7874000072479248
vt 0.59060001373291016 0
vt -55.708698272705078 -0.28760001063346863
vt 0 -0.39030000567436218
vt 0 -0.28760001063346863
vt -55.708698272705078 -0.39030000567436218
vt 0.49559998512268066 0.77399998903274536
vt 0.59060001373291016 0.052700001746416092
vt 0 0.46299999952316284
vt -55.708698272705078 0.5658000111579895
vt -55.708698272705078 0.46299999952316284
vt 0 0.5658000111579895
vt -0.59060001373291016 0.73470002412796021
vt -0.59060001373291016 0.052700001746416092
vt -55.708698272705078 -0.16169999539852142
vt 0 -0.26449999213218689
vt 0 -0.16169999539852142
vt -55.708698272705078 -0.26449999213218689
vt 0.59060001373291016 0.73470002412796021
vt 0.6721000075340271 0.11529999971389771
vt 0 0.50059998035430908
vt -55.708698272705078 0.60339999198913574
vt -55.708698272705078 0.50059998035430908
vt 0 0.60339999198913574
vt -0.6721000075340271 0.6721000075340271
vt -0.6721000075340271 0.11529999971389771
vt -55.708698272705078 -0.021299999207258224
vt 0 -0.12409999966621399
vt 0 -0.021299999207258224
vt -55.708698272705078 -0.12409999966621399
vt 0.6721000075340271 0.6721000075340271
vt 0.73470002412796021 0.19689999520778656
vt -55.708698272705078 0.50059998035430908
vt 0 0.60339999198913574
vt -55.708698272705078 0.60339999198913574
vt 0 0.50059998035430908
vt -0.73470002412796021 0.59060001373291016
vt -0.73470002412796021 0.19689999520778656
vt 0 0.12409999966621399
vt -55.708698272705078 0.021299999207258224
vt 0 0.021299999207258224
vt -55.708698272705078 0.12409999966621399
vt 0.73470002412796021 0.59060001373291016
vt 0.77399998903274536 0.29179999232292175
vt -55.708698272705078 0.46299999952316284
vt 0 0.5658000111579895
vt -55.708698272705078 0.5658000111579895
vt 0 0.46299999952316284
vt -0.77399998903274536 0.49559998512268066
vt -0.77399998903274536 0.29179999232292175
vt 0 0.26449999213218689
vt -55.708698272705078 0.16169999539852142
vt 0 0.16169999539852142
vt -55.708698272705078 0.26449999213218689
vt 0.77399998903274536 0.49559998512268066
vt 0.7874000072479248 0.3937000036239624
vt -55.708698272705078 0.39030000567436218
vt 0 0.49309998750686646
vt -55.708698272705078 0.49309998750686646
vt 0 0.39030000567436218
vt -0.7874000072479248 0.3937000036239624
vt 0 0.39030000567436218
vt -55.708698272705078 0.28760001063346863
vt 0 0.28760001063346863
vt -55.708698272705078 0.39030000567436218
vn -0.60886532068252563 -0.79327362775802612 0
vn -0.60886532068252563 -0.79327362775802612 0
vn -0.60886532068252563 -0.79327362775802612 0
vn -0.60886532068252563 -0.79327362775802612 0
vn 0 0 1
vn 0 0 1
vn 0 0 1
vn 0 0 1
vn 0 0 1
vn 0 0 1
vn 0 0 1
vn 0 0 1
vn -0.99147593975067139 0.13029010593891144 0
vn -0.99147593975067139 0.13029010593891144 0
vn -0.99147593975067139 0.13029010593891144 0
vn -0.99147593975067139 0.13029010593891144 0
vn -0.92380380630493164 0.38286623358726501 0
vn -0.92380380630493164 0.38286623358726501 0
vn -0.92380380630493164 0.38286623358726501 0
vn -0.92380380630493164 0.38286623358726501 0
vn -0.79318445920944214 0.6089814305305481 0
vn -0.79318445920944214 0.6089814305305481 0
vn -0.79318445920944214 0.6089814305305481 0
vn -0.79318445920944214 0.6089814305305481 0
vn -0.60886532068252563 0.79327362775802612 0
vn -0.60886532068252563 0.79327362775802612 0
vn -0.60886532068252563 0.79327362775802612 0
vn -0.60886532068252563 0.79327362775802612 0
vn 0 0 1
vn 0 0 1
vn -0.38314735889434814 -0.92368721961975098 0
vn -0.38314735889434814 -0.92368721961975098 0
vn -0.38314735889434814 -0.92368721961975098 0
vn -0.38314735889434814 -0.92368721961975098 0
vn 0 0 -1
vn 0 0 -1
vn 0 0 -1
vn 0 0 -1
vn 0 0 -1
vn 0 0 -1
vn 0 0 -1
vn 0 0 -1
vn 0 0 -1
vn 0 0 -1
vn 0 0 -1
vn -0.99147593975067139 0.13029010593891144 0
vn -0.99147593975067139 0.13029010593891144 0
vn -0.92380380630493164 -0.38286623358726501 0
vn -0.92380380630493164 -0.38286623358726501 0
vn -0.92380380630493164 -0.38286623358726501 0
vn -0.92380380630493164 -0.38286623358726501 0
vn -0.79318445920944214 -0.6089814305305481 0
vn -0.79318445920944214 -0.6089814305305481 0
vn -0.79318445920944214 -0.6089814305305481 0
vn -0.79318445920944214 -0.6089814305305481 0
vn -0.38314735889434814 0.92368721961975098 0
vn -0.38314735889434814 0.92368721961975098 0
vn -0.38314735889434814 0.92368721961975098 0
vn -0.38314735889434814 0.92368721961975098 0
vn 0 0 1
vn 0 0 1
vn -0.13018755614757538 -0.99148941040039062 0
vn -0.13018755614757538 -0.99148941040039062 0
vn -0.13018755614757538 -0.99148941040039062 0
vn -0.13018755614757538 -0.99148941040039062 0
vn -0.13018755614757538 -0.99148941040039062 0
vn 0 0 -1
vn 0 0 -1
vn -0.13018755614757538 0.99148941040039062 0
vn -0.13018755614757538 0.99148941040039062 0
vn -0.13018755614757538 0.99148941040039062 0
vn -0.13018755614757538 0.99148941040039062 0
vn -0.13018755614757538 0.99148941040039062 0
vn 0 0 1
vn 0 0 1
vn 0.13029010593891144 -0.99147593975067139 0
vn 0.13029010593891144 -0.99147593975067139 0
vn 0.13029010593891144 -0.99147593975067139 0
vn 0.13029010593891144 -0.99147593975067139 0
vn 0 0 -1
vn 0 0 -1
vn 0 0 -1
vn 0 0 -1
vn 1 0 0
vn 1 0 0
vn 1 0 0
vn 1 0 0
vn 0.13029010593891144 0.99147593975067139 0
vn 0.13029010593891144 0.99147593975067139 0
vn 0.13029010593891144 0.99147593975067139 0
vn 0.13029010593891144 0.99147593975067139 0
vn 0 0 1
vn 0 0 1
vn 0.38314735889434814 -0.92368721961975098 0
vn 0.38314735889434814 -0.92368721961975098 0
vn 0.38314735889434814 -0.92368721961975098 0
vn 0.38314735889434814 -0.92368721961975098 0
vn 0 0 -1
vn 0 0 -1
vn 0.38314735889434814 0.92368721961975098 0
vn 0.38314735889434814 0.92368721961975098 0
vn 0.38314735889434814 0.92368721961975098 0
vn 0.38314735889434814 0.92368721961975098 0
vn 0 0 1
vn 0 0 1
vn 0.60886532068252563 -0.79327362775802612 0
vn 0.60886532068252563 -0.79327362775802612 0
vn 0.60886532068252563 -0.79327362775802612 0
vn 0.60886532068252563 -0.79327362775802612 0
vn 0 0 -1
vn 0 0 -1
vn 0.60886532068252563 0.79327362775802612 0
vn 0.60886532068252563 0.79327362775802612 0
vn 0.60886532068252563 0.79327362775802612 0
vn 0.60886532068252563 0.79327362775802612 0
vn 0 0 1
vn 0 0 1
vn 0.79318445920944214 -0.6089814305305481 0
vn 0.79318445920944214 -0.6089814305305481 0
vn 0.79318445920944214 -0.6089814305305481 0
vn 0.79318445920944214 -0.6089814305305481 0
vn 0 0 -1
vn 0 0 -1
vn 0.79318445920944214 0.6089814305305481 0
vn 0.79318445920944214 0.6089814305305481 0
vn 0.79318445920944214 0.6089814305305481 0
vn 0.79318445920944214 0.6089814305305481 0
vn 0 0 1
vn 0 0 1
vn 0.92380380630493164 -0.38286623358726501 0
vn 0.92380380630493164 -0.38286623358726501 0
vn 0.92380380630493164 -0.38286623358726501 0
vn 0.92380380630493164 -0.38286623358726501 0
vn 0 0 -1
vn 0 0 -1
vn 0.92380380630493164 0.38286623358726501 0
vn 0.92380380630493164 0.38286623358726501 0
vn 0.92380380630493164 0.38286623358726501 0
vn 0.92380380630493164 0.38286623358726501 0
vn 0 0 1
vn 0 0 1
vn 0.99146240949630737 -0.13039280474185944 0
vn 0.99146240949630737 -0.13039280474185944 0
vn 0.99146240949630737 -0.13039280474185944 0
vn 0.99146240949630737 -0.13039280474185944 0
vn 0 0 -1
vn 0.99147593975067139 0.13029010593891144 0
vn 0.99147593975067139 0.13029010593891144 0
vn 0.99147593975067139 0.13029010593891144 0
vn 0.99147593975067139 0.13029010593891144 0
f 1/1/1 2/2/2 3/3/3
f 2/2/2 1/1/1 4/4/4
f 5/5/5 6/6/6 7/7/7
f 8/8/8 6/6/6 5/5/5
f 8/8/8 9/9/9 6/6/6
f 10/10/10 9/9/9 8/8/8
f 10/10/10 11/11/11 9/9/9
f 11/11/11 10/10/10 12/12/12
f 13/13/13 14/14/14 15/15/15
f 14/14/14 13/13/13 16/16/16
f 17/17/17 18/18/18 19/19/19
f 18/18/18 17/17/17 20/20/20
f 21/21/21 22/22/22 23/23/23
f 22/22/22 21/21/21 24/24/24
f 25/25/25 26/26/26 27/27/27
f 26/26/26 25/25/25 28/28/28
f 5/5/5 7/7/7 29/29/29
f 29/29/29 7/7/7 30/30/30
f 31/31/31 32/32/32 33/33/33
f 32/32/32 31/31/31 34/34/34
f 35/35/35 36/36/36 37/37/37
f 35/35/35 38/38/38 36/36/36
f 39/39/39 38/38/38 35/35/35
f 39/39/39 40/40/40 38/38/38
f 41/41/41 40/40/40 39/39/39
f 41/41/41 42/42/42 40/40/40
f 43/43/43 42/42/42 41/41/41
f 43/43/43 44/44/44 42/42/42
f 44/44/44 43/43/43 45/45/45
f 46/46/46 15/15/15 14/14/14
f 15/15/15 46/46/46 47/47/47
f 48/48/48 49/49/49 50/50/50
f 49/49/49 48/48/48 51/51/51
f 52/52/52 53/53/53 54/54/54
f 53/53/53 52/52/52 55/55/55
f 56/56/56 57/57/57 58/58/58
f 57/57/57 56/56/56 59/59/59
f 29/29/29 30/30/30 60/60/60
f 60/60/60 30/30/30 61/61/61
f 62/62/62 63/63/63 64/64/64
f 65/65/65 63/63/63 62/62/62
f 63/63/63 65/65/65 66/66/66
f 37/37/37 67/67/67 68/68/68
f 37/37/37 36/36/36 67/67/67
f 69/69/69 70/70/70 71/71/71
f 70/70/70 69/69/69 72/72/72
f 72/72/72 69/69/69 73/73/73
f 60/60/60 61/61/61 74/74/74
f 74/74/74 61/61/61 75/75/75
f 76/76/76 77/77/77 78/78/78
f 77/77/77 76/76/76 79/79/79
f 80/80/80 81/81/81 82/82/82
f 81/81/81 80/80/80 83/83/83
f 84/84/84 85/85/85 86/86/86
f 85/85/85 84/84/84 87/87/87
f 88/88/88 89/89/89 90/90/90
f 89/89/89 88/88/88 91/91/91
f 74/74/74 75/75/75 92/92/92
f 92/92/92 75/75/75 93/93/93
f 94/94/94 95/95/95 96/96/96
f 95/95/95 94/94/94 97/97/97
f 82/82/82 98/98/98 99/99/99
f 82/82/82 81/81/81 98/98/98
f 100/100/100 101/101/101 102/102/102
f 101/101/101 100/100/100 103/103/103
f 92/92/92 93/93/93 104/104/104
f 104/104/104 93/93/93 105/105/105
f 106/106/106 107/107/107 108/108/108
f 107/107/107 106/106/106 109/109/109
f 99/99/99 110/110/110 111/111/111
f 99/99/99 98/98/98 110/110/110
f 112/112/112 113/113/113 114/114/114
f 113/113/113 112/112/112 115/115/115
f 104/104/104 105/105/105 116/116/116
f 116/116/116 105/105/105 117/117/117
f 118/118/118 119/119/119 120/120/120
f 119/119/119 118/118/118 121/121/121
f 111/111/111 122/122/122 123/123/123
f 111/111/111 110/110/110 122/122/122
f 124/124/124 125/125/125 126/126/126
f 125/125/125 124/124/124 127/127/127
f 116/116/116 117/117/117 128/128/128
f 128/128/128 117/117/117 129/129/129
f 130/130/130 131/131/131 132/132/132
f 131/131/131 130/130/130 133/133/133
f 123/123/123 134/134/134 135/135/135
f 123/123/123 122/122/122 134/134/134
f 136/136/136 137/137/137 138/138/138
f 137/137/137 136/136/136 139/139/139
f 128/128/128 129/129/129 140/140/140
f 140/140/140 129/129/129 141/141/141
f 142/142/142 143/143/143 144/144/144
f 143/143/143 142/142/142 145/145/145
f 135/135/135 134/134/134 146/146/146
f 147/147/147 148/148/148 149/149/149
f 148/148/148 147/147/147 150/150/150
