# Rhino

mtllib BedSet_11_10.mtl
usemtl Default
v -0.10217312345499963 0.10333100173899999 0.013406691339900023
v -0.10217312345499963 0.11048801697199999 -0.00022571862804299236
v -0.10217312345499963 0.10333100173899999 0.020222896323800033
v -0.10217312345499963 0.10333100173899999 -0.00022571862804299236
v -0.12262173840700008 0.10333100173899999 0.013406691339900023
v -0.10217312345499963 0.10333100173899999 -0.00022571862804299236
v -0.10217312345499963 0.10333100173899999 0.013406691339900023
v -0.12262173840700008 0.10333100173899999 -0.00022571862804299236
v -0.12262173840700008 0.10333100173899999 0.013406691339900023
v -0.12262173840700008 0.11048801697199999 0.272421799109
v -0.12262173840700008 0.10333100173899999 -0.00022571862804299236
v -0.12262173840700008 0.10333100173899999 0.020222896323800033
v -0.12262173840700008 0.10333100173899999 0.25197318415699999
v -0.12262173840700008 0.10333100173899999 0.258789389142
v -0.12262173840700008 0.10333100173899999 0.272421799109
v -0.12262173840700008 0.10333100173899999 0.258789389142
v -0.10217312345499963 0.10333100173899999 0.272421799109
v -0.12262173840700008 0.10333100173899999 0.272421799109
v -0.10217312345499963 0.10333100173899999 0.258789389142
v -0.12262173840700008 0.10333100173899999 0.25197318415699999
v -0.10217312345499963 0.10333100173899999 0.25197318415699999
v -0.12262173840700008 0.10333100173899999 0.020222896323800033
v -0.10217312345499963 0.10333100173899999 0.020222896323800033
v -0.10217312345499963 0.10333100173899999 0.25197318415699999
v -0.10217312345499963 0.10333100173899999 0.258789389142
v -0.10217312345499963 0.10333100173899999 0.272421799109
v -0.10217312345499963 0.11048801697199999 0.272421799109
v -0.10217312345499963 0.11048801697199999 -0.00022571862804299236
v -0.12262173840700008 0.11048801697199999 0.272421799109
v -0.10217312345499963 0.11048801697199999 0.272421799109
v -0.12262173840700008 0.11048801697199999 -0.00022571862804299236
v -0.10217312345499963 0.11048801697199999 -0.00022571862804299236
v -0.12262173840700008 0.10333100173899999 -0.00022571862804299236
v -0.12262173840700008 0.11048801697199999 -0.00022571862804299236
v -0.10217312345499963 0.10333100173899999 -0.00022571862804299236
v -0.12262173840700008 0.11048801697199999 -0.00022571862804299236
vt -0.16314500570297241 0.62899601459503174
vt -0.13689799606800079 0.65655601024627686
vt -0.17626799643039703 0.62899601459503174
vt -0.13689799606800079 0.62899601459503174
vt -0.16314500570297241 0.48474499583244324
vt -0.13689799606800079 0.56348502635955811
vt -0.16314500570297241 0.56348502635955811
vt -0.13689799606800079 0.48474499583244324
vt 0.16314500570297241 0.62899601459503174
vt 0.66183298826217651 0.65655601024627686
vt 0.13689799606800079 0.62899601459503174
vt 0.17626799643039703 0.62899601459503174
vt 0.62246298789978027 0.62899601459503174
vt 0.63558602333068848 0.62899601459503174
vt 0.66183298826217651 0.62899601459503174
vt -0.63558602333068848 0.48474499583244324
vt -0.66183298826217651 0.56348502635955811
vt -0.66183298826217651 0.48474499583244324
vt -0.63558602333068848 0.56348502635955811
vt -0.62246298789978027 0.48474499583244324
vt -0.62246298789978027 0.56348502635955811
vt -0.17626799643039703 0.48474499583244324
vt -0.17626799643039703 0.56348502635955811
vt -0.62246298789978027 0.62899601459503174
vt -0.63558602333068848 0.62899601459503174
vt -0.66183298826217651 0.62899601459503174
vt -0.66183298826217651 0.65655601024627686
vt 0.13689799606800079 0.56348502635955811
vt 0.66183298826217651 0.48474499583244324
vt 0.66183298826217651 0.56348502635955811
vt 0.13689799606800079 0.48474499583244324
vt -0.28174299001693726 0.65655601024627686
vt -0.24237300455570221 0.62899601459503174
vt -0.24237300455570221 0.65655601024627686
vt -0.28174299001693726 0.62899601459503174
vt 0.13689799606800079 0.65655601024627686
vn 1 0 0
vn 1 0 0
vn 1 0 0
vn 1 0 0
vn 0 -1 0
vn 0 -1 0
vn 0 -1 0
vn 0 -1 0
vn -1 0 0
vn -1 0 0
vn -1 0 0
vn -1 0 0
vn -1 0 0
vn -1 0 0
vn -1 0 0
vn 0 -1 0
vn 0 -1 0
vn 0 -1 0
vn 0 -1 0
vn 0 -1 0
vn 0 -1 0
vn 0 -1 0
vn 0 -1 0
vn 1 0 0
vn 1 0 0
vn 1 0 0
vn 1 0 0
vn 0 1 0
vn 0 1 0
vn 0 1 0
vn 0 1 0
vn 0 0 -1
vn 0 0 -1
vn 0 0 -1
vn 0 0 -1
vn -1 0 0
f 1/1/1 2/2/2 3/3/3
f 2/2/2 1/1/1 4/4/4
f 5/5/5 6/6/6 7/7/7
f 6/6/6 5/5/5 8/8/8
f 9/9/9 10/10/10 11/11/11
f 12/12/12 10/10/10 9/9/9
f 13/13/13 10/10/10 12/12/12
f 14/14/14 10/10/10 13/13/13
f 10/10/10 14/14/14 15/15/15
f 16/16/16 17/17/17 18/18/18
f 16/16/16 19/19/19 17/17/17
f 20/20/20 19/19/19 16/16/16
f 20/20/20 21/21/21 19/19/19
f 22/22/22 21/21/21 20/20/20
f 22/22/22 23/23/23 21/21/21
f 5/5/5 23/23/23 22/22/22
f 5/5/5 7/7/7 23/23/23
f 3/3/3 2/2/2 24/24/24
f 24/24/24 2/2/2 25/25/25
f 25/25/25 2/2/2 26/26/26
f 26/26/26 2/2/2 27/27/27
f 28/28/28 29/29/29 30/30/30
f 29/29/29 28/28/28 31/31/31
f 32/32/32 33/33/33 34/34/34
f 33/33/33 32/32/32 35/35/35
f 11/11/11 10/10/10 36/36/36
