# Rhino

mtllib BedSet_07_22.mtl
usemtl Default
v 0.35458585764299988 0.36749129383900003 -0.15550650947499989
v 0.35458585764299988 0.30826547113899999 -0.15089926378600005
v 0.35458585764299988 0.30826547113899999 -0.15550650947499989
v 0.35458585764299988 0.36749129383900003 -0.15089926378600005
v 0.35930600388399991 0.36749129383900003 -0.15089926378600005
v 0.35458585764299988 0.30826547113899999 -0.15089926378600005
v 0.35458585764299988 0.36749129383900003 -0.15089926378600005
v 0.35930600388399991 0.30826547113899999 -0.15089926378600005
v 0.35930600388399991 0.30826547113899999 -0.15089926378600005
v 0.35930600388399991 0.36749129383900003 -0.15550650947499989
v 0.35930600388399991 0.36749129383900003 -0.15089926378600005
v 0.35930600388399991 0.30826547113899999 -0.15550650947499989
vt -8.2803201675415039 3.3906300067901611
vt -8.3228302001953125 2.8441898822784424
vt -8.2803201675415039 2.8441898822784424
vt -8.3228302001953125 3.3906300067901611
vt -8.3228302001953125 3.3906300067901611
vt -8.2792797088623047 2.8441898822784424
vt -8.2792797088623047 3.3906300067901611
vt -8.3228302001953125 2.8441898822784424
vt -8.3663797378540039 2.8441898822784424
vt -8.3238801956176758 3.3906300067901611
vt -8.3663797378540039 3.3906300067901611
vt -8.3238801956176758 2.8441898822784424
vn 1 0 0
vn 1 0 0
vn 1 0 0
vn 1 0 0
vn 0 0 -1
vn 0 0 -1
vn 0 0 -1
vn 0 0 -1
vn 1 0 0
vn 1 0 0
vn 1 0 0
vn 1 0 0
f 1/1/1 2/2/2 3/3/3
f 2/2/2 1/1/1 4/4/4
f 5/5/5 6/6/6 7/7/7
f 6/6/6 5/5/5 8/8/8
f 9/9/9 10/10/10 11/11/11
f 10/10/10 9/9/9 12/12/12
