# Rhino

mtllib BedSet_17_27.mtl
usemtl Default
v -0.34890965298400012 0 0.28120962613300016
v 0.34890965298400012 0.019170736474799999 0.28120962613300016
v -0.34890965298400012 0.019170736474799999 0.28120962613300016
v 0.34890965298400012 0 0.28120962613300016
v -0.34890965298400012 0 0.28120962613300016
v 0.34890965298400012 0 0.26587287630000001
v 0.34890965298400012 0 0.28120962613300016
v -0.34890965298400012 0 0.26587287630000001
v 0.34890965298400012 0.019170736474799999 0.28120962613300016
v -0.34890965298400012 0.019170736474799999 0.26587287630000001
v -0.34890965298400012 0.019170736474799999 0.28120962613300016
v 0.34890965298400012 0.019170736474799999 0.26587287630000001
v 0.34890965298400012 0 0.26587287630000001
v -0.34890965298400012 0.019170736474799999 0.26587287630000001
v 0.34890965298400012 0.019170736474799999 0.26587287630000001
v -0.34890965298400012 0 0.26587287630000001
v -0.34890965298400012 0 0.28120962613300016
v -0.34890965298400012 0.019170736474799999 0.28120962613300016
v -0.34890965298400012 0.0095853682373999993 0.27354125121649986
v -0.34890965298400012 0 0.26587287630000001
v -0.34890965298400012 0.019170736474799999 0.26587287630000001
v 0.34890965298400012 0 0.28120962613300016
v 0.34890965298400012 0.019170736474799999 0.28120962613300016
v 0.34890965298400012 0.0095853682373999993 0.27354125121649986
v 0.34890965298400012 0 0.26587287630000001
v 0.34890965298400012 0.019170736474799999 0.26587287630000001
vt 40.6864013671875 1.968500018119812
vt -30.967100143432617 0
vt 40.6864013671875 0
vt -30.967100143432617 1.968500018119812
vt 40.6864013671875 0
vt -30.967100143432617 1.5748000144958496
vt -30.967100143432617 0
vt 40.6864013671875 1.5748000144958496
vt 30.967100143432617 0
vt -40.6864013671875 1.5748000144958496
vt -40.6864013671875 0
vt 30.967100143432617 1.5748000144958496
vt 30.967100143432617 1.968500018119812
vt -40.6864013671875 0
vt 30.967100143432617 0
vt -40.6864013671875 1.968500018119812
vt 0 0
vt 1 0
vt 0.5 0.5
vt 0 1
vt 1 1
vt 0 0
vt 0 1
vt 0.5 0.5
vt 1 0
vt 1 1
vn 0 0 1
vn 0 0 1
vn 0 0 1
vn 0 0 1
vn 0 -1 0
vn 0 -1 0
vn 0 -1 0
vn 0 -1 0
vn 0 1 0
vn 0 1 0
vn 0 1 0
vn 0 1 0
vn 0 0 -1
vn 0 0 -1
vn 0 0 -1
vn 0 0 -1
vn -1 0 0
vn -1 0 0
vn -1 0 0
vn -1 0 0
vn -1 0 0
vn 1 0 0
vn 1 0 0
vn 1 0 0
vn 1 0 0
vn 1 0 0
f 1/1/1 2/2/2 3/3/3
f 2/2/2 1/1/1 4/4/4
f 5/5/5 6/6/6 7/7/7
f 6/6/6 5/5/5 8/8/8
f 9/9/9 10/10/10 11/11/11
f 10/10/10 9/9/9 12/12/12
f 13/13/13 14/14/14 15/15/15
f 14/14/14 13/13/13 16/16/16
f 19/19/19 20/20/20 17/17/17
f 21/21/21 19/19/19 18/18/18
f 17/17/17 18/18/18 19/19/19
f 20/20/20 19/19/19 21/21/21
f 24/24/24 23/23/23 22/22/22
f 26/26/26 24/24/24 25/25/25
f 22/22/22 25/25/25 24/24/24
f 23/23/23 24/24/24 26/26/26
