# Rhino

mtllib BedSet_16_42.mtl
usemtl Default
v -0.08718509789259965 0.1038329387578 0.23959670674599998
v -0.061126914004700161 0.1038329387578 0.23558698007799994
v -0.061126914004700161 0.1038329387578 0.23959670674599998
v -0.08718509789259965 0.1038329387578 0.23558698007799994
v -0.08718509789259965 0.10784182551679999 0.23959670674599998
v -0.08718509789259965 0.1038329387578 0.23558698007799994
v -0.08718509789259965 0.1038329387578 0.23959670674599998
v -0.08718509789259965 0.10383545848549999 -0.24550210854800003
v -0.08718509789259965 0.10383545848549999 -0.24951099530700005
v -0.08718509789259965 0.10784182551679999 -0.24951099530700005
v -0.061126914004700161 0.10784182551679999 0.23959670674599998
v -0.08718509789259965 0.10784182551679999 -0.24951099530700005
v -0.08718509789259965 0.10784182551679999 0.23959670674599998
v -0.061126914004700161 0.10784182551679999 -0.24951099530700005
v -0.061126914004700161 0.10784182551679999 0.23959670674599998
v -0.061126914004700161 0.10383545848549999 -0.24951099530700005
v -0.061126914004700161 0.10784182551679999 -0.24951099530700005
v -0.061126914004700161 0.10383545848549999 -0.24550210854800003
v -0.061126914004700161 0.1038329387578 0.23558698007799994
v -0.061126914004700161 0.1038329387578 0.23959670674599998
v -0.061126914004700161 0.10784182551679999 0.23959670674599998
v -0.08718509789259965 0.1038329387578 0.23959670674599998
v -0.061126914004700161 0.1038329387578 0.23959670674599998
v -0.08718509789259965 0.10784182551679999 0.23959670674599998
v -0.061126914004700161 0.1018280754237 0.23558698007799994
v -0.061126914004700161 0.1038329387578 0.23558698007799994
v -0.08718509789259965 0.1018280754237 0.23558698007799994
v -0.061126914004700161 0.1018280754237 0.23558698007799994
v -0.08718509789259965 0.1038329387578 0.23558698007799994
v -0.08718509789259965 0.1018280754237 0.23558698007799994
v -0.08718509789259965 0.1018280754237 -0.24550210854800003
v -0.08718509789259965 0.10383545848549999 -0.24550210854800003
v -0.061126914004700161 0.1018280754237 -0.24550210854800003
v -0.08718509789259965 0.1018280754237 -0.24550210854800003
v -0.061126914004700161 0.10383545848549999 -0.24550210854800003
v -0.08718509789259965 0.10383545848549999 -0.24550210854800003
v -0.061126914004700161 0.10383545848549999 -0.24951099530700005
v -0.061126914004700161 0.10383545848549999 -0.24550210854800003
v -0.08718509789259965 0.10383545848549999 -0.24951099530700005
v -0.08718509789259965 0.10784182551679999 -0.24951099530700005
v -0.08718509789259965 0.10383545848549999 -0.24951099530700005
v -0.061126914004700161 0.1018280754237 -0.24550210854800003
v -0.061126914004700161 0.1018280754237 0.23558698007799994
v -0.08718509789259965 0.1018280754237 -0.24550210854800003
v -0.061126914004700161 0.1018280754237 -0.24550210854800003
v -0.08718509789259965 0.1018280754237 0.23558698007799994
v -0.061126914004700161 0.10383545848549999 -0.24951099530700005
v -0.061126914004700161 0.10784182551679999 -0.24951099530700005
vt -2.5590999126434326 48.031501770019531
vt 0 47.637798309326172
vt 0 48.031501770019531
vt -2.5590999126434326 47.637798309326172
vt 48.031501770019531 0.3937000036239624
vt 47.637798309326172 0
vt 48.031501770019531 0
vt 0.3937000036239624 0.00019999999494757503
vt 0 0.00019999999494757503
vt 0 0.3937000036239624
vt 0 48.031501770019531
vt 2.5590999126434326 0
vt 2.5590999126434326 48.031501770019531
vt 0 0
vt -48.031501770019531 0.3937000036239624
vt 0 0.00019999999494757503
vt 0 0.3937000036239624
vt -0.3937000036239624 0.00019999999494757503
vt -47.637798309326172 0
vt -48.031501770019531 0
vt 0 0.3937000036239624
vt -2.5590999126434326 0
vt 0 0
vt -2.5590999126434326 0.3937000036239624
vt -47.637798309326172 -0.19689999520778656
vt 0 0
vt -2.5590999126434326 -0.19689999520778656
vt 0 -0.19689999520778656
vt -2.5590999126434326 0
vt 47.637798309326172 -0.19689999520778656
vt 0.3937000036239624 -0.19689999520778656
vt 2.5590999126434326 0.00019999999494757503
vt 0 -0.19689999520778656
vt 2.5590999126434326 -0.19689999520778656
vt 0 0.00019999999494757503
vt -2.5590999126434326 0.3937000036239624
vt 0 0
vt 0 0.3937000036239624
vt -2.5590999126434326 0
vt 2.5590999126434326 0.3937000036239624
vt 2.5590999126434326 0.00019999999494757503
vt -0.3937000036239624 -0.19689999520778656
vt 0 47.637798309326172
vt -2.5590999126434326 0.3937000036239624
vt 0 0.3937000036239624
vt -2.5590999126434326 47.637798309326172
vt 0 0.00019999999494757503
vt 0 0.3937000036239624
vn 0 -1 0
vn 0 -1 0
vn 0 -1 0
vn 0 -1 0
vn -1 0 0
vn -1 0 0
vn -1 0 0
vn -1 0 0
vn -1 0 0
vn -1 0 0
vn 0 1 0
vn 0 1 0
vn 0 1 0
vn 0 1 0
vn 1 0 0
vn 0 0 -1
vn 0 0 -1
vn 1 0 0
vn 1 0 0
vn 1 0 0
vn 0 0 1
vn 0 0 1
vn 0 0 1
vn 0 0 1
vn 1 0 0
vn 0 0 1
vn 0 0 1
vn 0 0 1
vn 0 0 1
vn -1 0 0
vn -1 0 0
vn 0 0 -1
vn 0 0 -1
vn 0 0 -1
vn 0 0 -1
vn 0 -1 0
vn 0 -1 0
vn 0 -1 0
vn 0 -1 0
vn 0 0 -1
vn 0 0 -1
vn 1 0 0
vn 0 -1 0
vn 0 -1 0
vn 0 -1 0
vn 0 -1 0
vn 1 0 0
vn 1 0 0
f 1/1/1 2/2/2 3/3/3
f 2/2/2 1/1/1 4/4/4
f 5/5/5 6/6/6 7/7/7
f 5/5/5 8/8/8 6/6/6
f 5/5/5 9/9/9 8/8/8
f 9/9/9 5/5/5 10/10/10
f 11/11/11 12/12/12 13/13/13
f 12/12/12 11/11/11 14/14/14
f 15/15/15 47/47/47 48/48/48
f 47/47/47 15/15/15 18/18/18
f 18/18/18 15/15/15 19/19/19
f 19/19/19 15/15/15 20/20/20
f 21/21/21 22/22/22 23/23/23
f 22/22/22 21/21/21 24/24/24
f 18/18/18 19/19/19 25/25/25
f 26/26/26 27/27/27 28/28/28
f 27/27/27 26/26/26 29/29/29
f 6/6/6 8/8/8 30/30/30
f 30/30/30 8/8/8 31/31/31
f 32/32/32 33/33/33 34/34/34
f 33/33/33 32/32/32 35/35/35
f 36/36/36 37/37/37 38/38/38
f 37/37/37 36/36/36 39/39/39
f 40/40/40 16/16/16 41/41/41
f 16/16/16 40/40/40 17/17/17
f 25/25/25 42/42/42 18/18/18
f 43/43/43 44/44/44 45/45/45
f 44/44/44 43/43/43 46/46/46
