# Rhino

mtllib BedSet_17_19.mtl
usemtl Default
v 0.37421496500267093 0.035274604942300003 0.093334641496400028
v 0.37395792001467143 0.073005596046500004 0.093334641496400028
v 0.37421496500267093 0.072753370652499996 0.093334641496400028
v 0.37421496500267093 0.035274604942300003 0.29654637596599986
v 0.37395792001467143 0.073005596046500004 0.29654637596599986
v 0.37421496500267093 0.072753370652499996 0.29654637596599986
v 0.3736663346076714 0.073220067957999999 0.093334641496400028
v 0.3736663346076714 0.073220067957999999 0.29654637596599986
v 0.37334904470067087 0.0733903602622 0.093334641496400028
v 0.37334904470067087 0.0733903602622 0.29654637596599986
v 0.37301006662367087 0.073514866428000009 0.093334641496400028
v 0.37301006662367087 0.073514866428000009 0.29654637596599986
v 0.3726574330316712 0.073591176658600002 0.093334641496400028
v 0.3726574330316712 0.073591176658600002 0.29654637596599986
v 0.37229837331467142 0.073616077891799997 0.093334641496400028
v 0.37229837331467142 0.073616077891799997 0.29654637596599986
v 0.37193770706667095 0.073591176658600002 0.093334641496400028
v 0.37193770706667095 0.073591176658600002 0.29654637596599986
v 0.37158507347467129 0.073514866428000009 0.093334641496400028
v 0.37158507347467129 0.073514866428000009 0.29654637596599986
v 0.37124609539667119 0.0733903602622 0.093334641496400028
v 0.37124609539667119 0.0733903602622 0.29654637596599986
v 0.37092880549067075 0.073220067957999999 0.093334641496400028
v 0.37092880549067075 0.073220067957999999 0.29654637596599986
v 0.37063882661367131 0.073005596046500004 0.093334641496400028
v 0.37063882661367131 0.073005596046500004 0.29654637596599986
v 0.37038097836067152 0.072753370652499996 0.093334641496400028
v 0.37038097836067152 0.035274604942300003 0.093334641496400028
v 0.37038097836067152 0.072753370652499996 0.29654637596599986
v 0.37038097836067152 0.035274604942300003 0.29654637596599986
v 0.37421496500267093 0.072753370652499996 0.29654637596599986
v 0.37421496500267093 0.035274604942300003 0.29654637596599986
v 0.37421496500267093 0.035274604942300003 0.093334641496400028
v 0.37421496500267093 0.072753370652499996 0.093334641496400028
v 0.37421496500267093 0.035274604942300003 0.29654637596599986
v 0.37038097836067152 0.035274604942300003 0.29654637596599986
v 0.37038097836067152 0.035274604942300003 0.093334641496400028
v 0.37421496500267093 0.035274604942300003 0.093334641496400028
v 0.37395792001467143 0.073005596046500004 0.29654637596599986
v 0.37421496500267093 0.072753370652499996 0.29654637596599986
v 0.37421496500267093 0.072753370652499996 0.093334641496400028
v 0.37395792001467143 0.073005596046500004 0.093334641496400028
v 0.3736663346076714 0.073220067957999999 0.29654637596599986
v 0.37395792001467143 0.073005596046500004 0.29654637596599986
v 0.37395792001467143 0.073005596046500004 0.093334641496400028
v 0.3736663346076714 0.073220067957999999 0.093334641496400028
v 0.37334904470067087 0.0733903602622 0.29654637596599986
v 0.3736663346076714 0.073220067957999999 0.29654637596599986
v 0.3736663346076714 0.073220067957999999 0.093334641496400028
v 0.37334904470067087 0.0733903602622 0.093334641496400028
v 0.37301006662367087 0.073514866428000009 0.29654637596599986
v 0.37334904470067087 0.0733903602622 0.29654637596599986
v 0.37334904470067087 0.0733903602622 0.093334641496400028
v 0.37301006662367087 0.073514866428000009 0.093334641496400028
v 0.3726574330316712 0.073591176658600002 0.29654637596599986
v 0.37301006662367087 0.073514866428000009 0.29654637596599986
v 0.37301006662367087 0.073514866428000009 0.093334641496400028
v 0.3726574330316712 0.073591176658600002 0.093334641496400028
v 0.37229837331467142 0.073616077891799997 0.29654637596599986
v 0.3726574330316712 0.073591176658600002 0.29654637596599986
v 0.3726574330316712 0.073591176658600002 0.093334641496400028
v 0.37229837331467142 0.073616077891799997 0.093334641496400028
v 0.37193770706667095 0.073591176658600002 0.29654637596599986
v 0.37229837331467142 0.073616077891799997 0.29654637596599986
v 0.37229837331467142 0.073616077891799997 0.093334641496400028
v 0.37193770706667095 0.073591176658600002 0.093334641496400028
v 0.37158507347467129 0.073514866428000009 0.29654637596599986
v 0.37193770706667095 0.073591176658600002 0.29654637596599986
v 0.37193770706667095 0.073591176658600002 0.093334641496400028
v 0.37158507347467129 0.073514866428000009 0.093334641496400028
v 0.37124609539667119 0.0733903602622 0.29654637596599986
v 0.37158507347467129 0.073514866428000009 0.29654637596599986
v 0.37158507347467129 0.073514866428000009 0.093334641496400028
v 0.37124609539667119 0.0733903602622 0.093334641496400028
v 0.37092880549067075 0.073220067957999999 0.29654637596599986
v 0.37124609539667119 0.0733903602622 0.29654637596599986
v 0.37124609539667119 0.0733903602622 0.093334641496400028
v 0.37092880549067075 0.073220067957999999 0.093334641496400028
v 0.37063882661367131 0.073005596046500004 0.29654637596599986
v 0.37092880549067075 0.073220067957999999 0.29654637596599986
v 0.37092880549067075 0.073220067957999999 0.093334641496400028
v 0.37063882661367131 0.073005596046500004 0.093334641496400028
v 0.37038097836067152 0.072753370652499996 0.29654637596599986
v 0.37063882661367131 0.073005596046500004 0.29654637596599986
v 0.37063882661367131 0.073005596046500004 0.093334641496400028
v 0.37038097836067152 0.072753370652499996 0.093334641496400028
v 0.37038097836067152 0.035274604942300003 0.29654637596599986
v 0.37038097836067152 0.072753370652499996 0.29654637596599986
v 0.37038097836067152 0.072753370652499996 0.093334641496400028
v 0.37038097836067152 0.035274604942300003 0.093334641496400028
vt 0.011218608357012272 0.32692825794219971
vt 0.044874433428049088 0.81896531581878662
vt 0.011218608357012272 0.81567603349685669
vt 0 0
vt 0.067311652004718781 0.98407411575317383
vt 0 0.97749549150466919
vt 0.10655497759580612 0.8237871527671814
vt 0.14300455152988434 0.98966217041015625
vt 0.17437370121479034 0.82768183946609497
vt 0.22580942511558533 0.99410718679428101
vt 0.24710167944431305 0.83059012889862061
vt 0.31420016288757324 0.99735844135284424
vt 0.32313129305839539 0.83245277404785156
vt 0.40614691376686096 0.9993395209312439
vt 0.40111008286476135 0.83322328329086304
vt 0.50012838840484619 1
vt 0.47925680875778198 0.8328930139541626
vt 0.59385311603546143 0.9993395209312439
vt 0.55617541074752808 0.83146220445632935
vt 0.68579983711242676 0.99735844135284424
vt 0.63042700290679932 0.82896453142166138
vt 0.77419060468673706 0.99410718679428101
vt 0.70036208629608154 0.82545930147171021
vt 0.85699546337127686 0.98966217041015625
vt 0.76479274034500122 0.82099312543869019
vt 0.93294024467468262 0.98407411575317383
vt 0.83333331346511841 0.65166366100311279
vt 0.83333331346511841 0.1629159152507782
vt 1 0.97749549150466919
vt 1 0
vt 0 0.97749549150466919
vt 0 0
vt 0.011218608357012272 0.32692825794219971
vt 0.011218608357012272 0.81567603349685669
vt 0 0
vt 1 0
vt 0.83333331346511841 0.1629159152507782
vt 0.011218608357012272 0.32692825794219971
vt 0.067311652004718781 0.98407411575317383
vt 0 0.97749549150466919
vt 0.011218608357012272 0.81567603349685669
vt 0.044874433428049088 0.81896531581878662
vt 0.14300455152988434 0.98966217041015625
vt 0.067311652004718781 0.98407411575317383
vt 0.044874433428049088 0.81896531581878662
vt 0.10655497759580612 0.8237871527671814
vt 0.22580942511558533 0.99410718679428101
vt 0.14300455152988434 0.98966217041015625
vt 0.10655497759580612 0.8237871527671814
vt 0.17437370121479034 0.82768183946609497
vt 0.31420016288757324 0.99735844135284424
vt 0.22580942511558533 0.99410718679428101
vt 0.17437370121479034 0.82768183946609497
vt 0.24710167944431305 0.83059012889862061
vt 0.40614691376686096 0.9993395209312439
vt 0.31420016288757324 0.99735844135284424
vt 0.24710167944431305 0.83059012889862061
vt 0.32313129305839539 0.83245277404785156
vt 0.50012838840484619 1
vt 0.40614691376686096 0.9993395209312439
vt 0.32313129305839539 0.83245277404785156
vt 0.40111008286476135 0.83322328329086304
vt 0.59385311603546143 0.9993395209312439
vt 0.50012838840484619 1
vt 0.40111008286476135 0.83322328329086304
vt 0.47925680875778198 0.8328930139541626
vt 0.68579983711242676 0.99735844135284424
vt 0.59385311603546143 0.9993395209312439
vt 0.47925680875778198 0.8328930139541626
vt 0.55617541074752808 0.83146220445632935
vt 0.77419060468673706 0.99410718679428101
vt 0.68579983711242676 0.99735844135284424
vt 0.55617541074752808 0.83146220445632935
vt 0.63042700290679932 0.82896453142166138
vt 0.85699546337127686 0.98966217041015625
vt 0.77419060468673706 0.99410718679428101
vt 0.63042700290679932 0.82896453142166138
vt 0.70036208629608154 0.82545930147171021
vt 0.93294024467468262 0.98407411575317383
vt 0.85699546337127686 0.98966217041015625
vt 0.70036208629608154 0.82545930147171021
vt 0.76479274034500122 0.82099312543869019
vt 1 0.97749549150466919
vt 0.93294024467468262 0.98407411575317383
vt 0.76479274034500122 0.82099312543869019
vt 0.83333331346511841 0.65166366100311279
vt 1 0
vt 1 0.97749549150466919
vt 0.83333331346511841 0.65166366100311279
vt 0.83333331346511841 0.1629159152507782
vn 0 0 -1
vn 0 0 -1
vn 0 0 -1
vn 0 0 1
vn 0 0 1
vn 0 0 1
vn 0 0 -1
vn 0 0 1
vn 0 0 -1
vn 0 0 1
vn 0 0 -1
vn 0 0 1
vn 0 0 -1
vn 0 0 1
vn 0 0 -1
vn 0 0 1
vn 0 0 -1
vn 0 0 1
vn 0 0 -1
vn 0 0 1
vn 0 0 -1
vn 0 0 1
vn 0 0 -1
vn 0 0 1
vn 0 0 -1
vn 0 0 1
vn 0 0 -1
vn 0 0 -1
vn 0 0 1
vn 0 0 1
vn 1 0 0
vn 1 0 0
vn 1 0 0
vn 1 0 0
vn 0 -1 0
vn 0 -1 0
vn 0 -1 0
vn 0 -1 0
vn 0.70038354396820068 0.71376669406890869 0
vn 0.70038354396820068 0.71376669406890869 0
vn 0.70038354396820068 0.71376669406890869 0
vn 0.70038354396820068 0.71376669406890869 0
vn 0.59251755475997925 0.80555754899978638 0
vn 0.59251755475997925 0.80555754899978638 0
vn 0.59251755475997925 0.80555754899978638 0
vn 0.59251755475997925 0.80555754899978638 0
vn 0.47290217876434326 0.8811149001121521 0
vn 0.47290217876434326 0.8811149001121521 0
vn 0.47290217876434326 0.8811149001121521 0
vn 0.47290217876434326 0.8811149001121521 0
vn 0.34477746486663818 0.93868446350097656 0
vn 0.34477746486663818 0.93868446350097656 0
vn 0.34477746486663818 0.93868446350097656 0
vn 0.34477746486663818 0.93868446350097656 0
vn 0.21150524914264679 0.97737687826156616 0
vn 0.21150524914264679 0.97737687826156616 0
vn 0.21150524914264679 0.97737687826156616 0
vn 0.21150524914264679 0.97737687826156616 0
vn 0.069185055792331696 0.99760383367538452 0
vn 0.069185055792331696 0.99760383367538452 0
vn 0.069185055792331696 0.99760383367538452 0
vn 0.069185055792331696 0.99760383367538452 0
vn -0.068878345191478729 0.99762505292892456 0
vn -0.068878345191478729 0.99762505292892456 0
vn -0.068878345191478729 0.99762505292892456 0
vn -0.068878345191478729 0.99762505292892456 0
vn -0.21150524914264679 0.97737687826156616 0
vn -0.21150524914264679 0.97737687826156616 0
vn -0.21150524914264679 0.97737687826156616 0
vn -0.21150524914264679 0.97737687826156616 0
vn -0.34477746486663818 0.93868446350097656 0
vn -0.34477746486663818 0.93868446350097656 0
vn -0.34477746486663818 0.93868446350097656 0
vn -0.34477746486663818 0.93868446350097656 0
vn -0.47290217876434326 0.8811149001121521 0
vn -0.47290217876434326 0.8811149001121521 0
vn -0.47290217876434326 0.8811149001121521 0
vn -0.47290217876434326 0.8811149001121521 0
vn -0.59464150667190552 0.80399096012115479 0
vn -0.59464150667190552 0.80399096012115479 0
vn -0.59464150667190552 0.80399096012115479 0
vn -0.59464150667190552 0.80399096012115479 0
vn -0.69926941394805908 0.71485823392868042 0
vn -0.69926941394805908 0.71485823392868042 0
vn -0.69926941394805908 0.71485823392868042 0
vn -0.69926941394805908 0.71485823392868042 0
vn -1 0 0
vn -1 0 0
vn -1 0 0
vn -1 0 0
f 1/1/1 2/2/2 3/3/3
f 4/4/4 6/6/6 5/5/5
f 1/1/1 7/7/7 2/2/2
f 4/4/4 5/5/5 8/8/8
f 1/1/1 9/9/9 7/7/7
f 4/4/4 8/8/8 10/10/10
f 1/1/1 11/11/11 9/9/9
f 4/4/4 10/10/10 12/12/12
f 1/1/1 13/13/13 11/11/11
f 4/4/4 12/12/12 14/14/14
f 1/1/1 15/15/15 13/13/13
f 4/4/4 14/14/14 16/16/16
f 1/1/1 17/17/17 15/15/15
f 4/4/4 16/16/16 18/18/18
f 1/1/1 19/19/19 17/17/17
f 4/4/4 18/18/18 20/20/20
f 1/1/1 21/21/21 19/19/19
f 4/4/4 20/20/20 22/22/22
f 1/1/1 23/23/23 21/21/21
f 4/4/4 22/22/22 24/24/24
f 1/1/1 25/25/25 23/23/23
f 4/4/4 24/24/24 26/26/26
f 27/27/27 1/1/1 28/28/28
f 29/29/29 30/30/30 4/4/4
f 25/25/25 1/1/1 27/27/27
f 26/26/26 29/29/29 4/4/4
f 31/31/31 32/32/32 33/33/33 34/34/34
f 35/35/35 36/36/36 37/37/37 38/38/38
f 39/39/39 40/40/40 41/41/41 42/42/42
f 43/43/43 44/44/44 45/45/45 46/46/46
f 47/47/47 48/48/48 49/49/49 50/50/50
f 51/51/51 52/52/52 53/53/53 54/54/54
f 55/55/55 56/56/56 57/57/57 58/58/58
f 59/59/59 60/60/60 61/61/61 62/62/62
f 63/63/63 64/64/64 65/65/65 66/66/66
f 67/67/67 68/68/68 69/69/69 70/70/70
f 71/71/71 72/72/72 73/73/73 74/74/74
f 75/75/75 76/76/76 77/77/77 78/78/78
f 79/79/79 80/80/80 81/81/81 82/82/82
f 83/83/83 84/84/84 85/85/85 86/86/86
f 87/87/87 88/88/88 89/89/89 90/90/90
