# Rhino

mtllib BedSet_10_22.mtl
usemtl Default
v -0.34841791021000024 0 -0.25149632342700023
v -0.35109281730100017 0 -0.25149632342700023
v -0.34975500624299993 0 -0.25167221948299989
v -0.34716947722899993 0 -0.2509793606299997
v -0.34841791021000024 0 -0.25149632342700023
v -0.34716947722899993 0.31786490834140002 -0.2509793606299997
v -0.34716947722899993 0 -0.2509793606299997
v -0.34841791021000024 0.31786490834140002 -0.25149632342700023
v -0.34975500624299993 0 -0.25167221948299989
v -0.34841791021000024 0.31786490834140002 -0.25149632342700023
v -0.34841791021000024 0 -0.25149632342700023
v -0.34975500624299993 0.31786490834140002 -0.25167221948299989
v -0.35109281730100017 0 -0.25149632342700023
v -0.35109281730100017 0.31786490834140002 -0.25149632342700023
v -0.35234125028099994 0 -0.2509793606299997
v -0.35109281730100017 0.31786490834140002 -0.25149632342700023
v -0.35109281730100017 0 -0.25149632342700023
v -0.35234125028099994 0.31786490834140002 -0.2509793606299997
v -0.35341307218200013 0 -0.25015851236999964
v -0.35234125028099994 0.31786490834140002 -0.2509793606299997
v -0.35234125028099994 0 -0.2509793606299997
v -0.35341307218200013 0.31786490834140002 -0.25015851236999964
v -0.35341307218200013 0 -0.25015851236999964
v -0.35423392044100011 0.31786490834140002 -0.24908669046899945
v -0.35341307218200013 0.31786490834140002 -0.25015851236999964
v -0.35423392044100011 0 -0.24908669046899945
v -0.35341307218200013 0 -0.25015851236999964
v -0.34527680706900021 0 -0.24908669046899945
v -0.35423392044100011 0 -0.24908669046899945
v -0.34609765532899983 0 -0.25015851236999964
v -0.35234125028099994 0 -0.2509793606299997
v -0.34716947722899993 0 -0.2509793606299997
v -0.34609765532899983 0.31786490834140002 -0.25015851236999964
v -0.34609765532899983 0 -0.25015851236999964
v -0.34716947722899993 0.31786490834140002 -0.2509793606299997
v -0.34716947722899993 0.31786490834140002 -0.2509793606299997
v -0.34975500624299993 0.31786490834140002 -0.24650044643099989
v -0.34609765532899983 0.31786490834140002 -0.25015851236999964
v -0.34841791021000024 0.31786490834140002 -0.25149632342700023
v -0.34975500624299993 0.31786490834140002 -0.25167221948299989
v -0.35109281730100017 0.31786490834140002 -0.25149632342700023
v -0.35234125028099994 0.31786490834140002 -0.2509793606299997
v -0.35341307218200013 0.31786490834140002 -0.25015851236999964
v -0.35423392044100011 0.31786490834140002 -0.24908669046899945
v -0.35475088323899984 0.31786490834140002 -0.24784183261199999
v -0.35423392044100011 0 -0.24908669046899945
v -0.35475088323899984 0.31786490834140002 -0.24784183261199999
v -0.35423392044100011 0.31786490834140002 -0.24908669046899945
v -0.35475088323899984 0 -0.24784183261199999
v -0.34475984427100004 0 -0.24784183261199999
v -0.35475088323899984 0 -0.24784183261199999
v -0.34527680706900021 0.31786490834140002 -0.24908669046899945
v -0.34475984427100004 0 -0.24784183261199999
v -0.34527680706900021 0 -0.24908669046899945
v -0.34475984427100004 0.31786490834140002 -0.24784183261199999
v -0.34527680706900021 0.31786490834140002 -0.24908669046899945
v -0.34475984427100004 0.31786490834140002 -0.24784183261199999
v -0.34527680706900021 0 -0.24908669046899945
v -0.34609765532899983 0.31786490834140002 -0.25015851236999964
v -0.34527680706900021 0.31786490834140002 -0.24908669046899945
v -0.34609765532899983 0 -0.25015851236999964
v -0.34458394821600002 0.31786490834140002 -0.24650044643099989
v -0.34975500624299993 0.31786490834140002 -0.24132938840400087
v -0.34475984427100004 0.31786490834140002 -0.24516335039800019
v -0.34527680706900021 0.31786490834140002 -0.24391491741699944
v -0.34609765532899983 0.31786490834140002 -0.24284667064000054
v -0.34716947722899993 0.31786490834140002 -0.24202224725699928
v -0.34841791021000024 0.31786490834140002 -0.24150528445900044
v -0.34975500624299993 0.31786490834140002 -0.24132938840400087
v -0.34841791021000024 0 -0.24150528445900044
v -0.34841791021000024 0.31786490834140002 -0.24150528445900044
v -0.34975500624299993 0 -0.24132938840400087
v -0.35109281730100017 0.31786490834140002 -0.24150528445900044
v -0.34975500624299993 0 -0.24132938840400087
v -0.34975500624299993 0.31786490834140002 -0.24132938840400087
v -0.35109281730100017 0 -0.24150528445900044
v -0.35234125028099994 0.31786490834140002 -0.24202224725699928
v -0.35109281730100017 0 -0.24150528445900044
v -0.35109281730100017 0.31786490834140002 -0.24150528445900044
v -0.35234125028099994 0 -0.24202224725699928
v -0.35341307218200013 0.31786490834140002 -0.24284667064000054
v -0.35234125028099994 0 -0.24202224725699928
v -0.35234125028099994 0.31786490834140002 -0.24202224725699928
v -0.35341307218200013 0 -0.24284667064000054
v -0.35341307218200013 0.31786490834140002 -0.24284667064000054
v -0.35423392044100011 0 -0.24391491741699944
v -0.35341307218200013 0 -0.24284667064000054
v -0.35423392044100011 0.31786490834140002 -0.24391491741699944
v -0.35423392044100011 0.31786490834140002 -0.24391491741699944
v -0.35341307218200013 0.31786490834140002 -0.24284667064000054
v -0.35475088323899984 0.31786490834140002 -0.24516335039800019
v -0.35492677929499994 0.31786490834140002 -0.24650044643099989
v -0.35475088323899984 0 -0.24784183261199999
v -0.35492677929499994 0.31786490834140002 -0.24650044643099989
v -0.35475088323899984 0.31786490834140002 -0.24784183261199999
v -0.35492677929499994 0 -0.24650044643099989
v -0.34458394821600002 0 -0.24650044643099989
v -0.35492677929499994 0 -0.24650044643099989
v -0.34475984427100004 0.31786490834140002 -0.24784183261199999
v -0.34458394821600002 0 -0.24650044643099989
v -0.34475984427100004 0 -0.24784183261199999
v -0.34458394821600002 0.31786490834140002 -0.24650044643099989
v -0.34458394821600002 0.31786490834140002 -0.24650044643099989
v -0.34475984427100004 0 -0.24516335039800019
v -0.34458394821600002 0 -0.24650044643099989
v -0.34475984427100004 0.31786490834140002 -0.24516335039800019
v -0.34475984427100004 0.31786490834140002 -0.24516335039800019
v -0.34527680706900021 0 -0.24391491741699944
v -0.34475984427100004 0 -0.24516335039800019
v -0.34527680706900021 0.31786490834140002 -0.24391491741699944
v -0.34527680706900021 0.31786490834140002 -0.24391491741699944
v -0.34609765532899983 0 -0.24284667064000054
v -0.34527680706900021 0 -0.24391491741699944
v -0.34609765532899983 0.31786490834140002 -0.24284667064000054
v -0.34716947722899993 0.31786490834140002 -0.24202224725699928
v -0.34609765532899983 0 -0.24284667064000054
v -0.34609765532899983 0.31786490834140002 -0.24284667064000054
v -0.34716947722899993 0 -0.24202224725699928
v -0.34841791021000024 0.31786490834140002 -0.24150528445900044
v -0.34716947722899993 0 -0.24202224725699928
v -0.34716947722899993 0.31786490834140002 -0.24202224725699928
v -0.34841791021000024 0 -0.24150528445900044
v -0.35234125028099994 0 -0.24202224725699928
v -0.34716947722899993 0 -0.24202224725699928
v -0.34841791021000024 0 -0.24150528445900044
v -0.35341307218200013 0 -0.24284667064000054
v -0.34609765532899983 0 -0.24284667064000054
v -0.35423392044100011 0 -0.24391491741699944
v -0.34527680706900021 0 -0.24391491741699944
v -0.35475088323899984 0 -0.24516335039800019
v -0.34475984427100004 0 -0.24516335039800019
v -0.35475088323899984 0.31786490834140002 -0.24516335039800019
v -0.35475088323899984 0 -0.24516335039800019
v -0.35475088323899984 0 -0.24516335039800019
v -0.35423392044100011 0.31786490834140002 -0.24391491741699944
v -0.35475088323899984 0.31786490834140002 -0.24516335039800019
v -0.35423392044100011 0 -0.24391491741699944
v -0.35109281730100017 0 -0.24150528445900044
v -0.34975500624299993 0 -0.24132938840400087
v -0.35234125028099994 0.31786490834140002 -0.24202224725699928
v -0.35109281730100017 0.31786490834140002 -0.24150528445900044
vt -0.020099999383091927 0.743399977684021
vt -0.020099999383091927 0.43770000338554382
vt 0 0.59060001373291016
vt -0.079099997878074646 0.88580000400543213
vt -0.69450002908706665 0
vt -0.84869998693466187 36.299198150634766
vt -0.84869998693466187 0
vt -0.69450002908706665 36.299198150634766
vt -0.58550000190734863 0
vt -0.73970001935958862 36.299198150634766
vt -0.73970001935958862 0
vt -0.58550000190734863 36.299198150634766
vt -0.43130001425743103 0
vt -0.43130001425743103 36.299198150634766
vt -0.24250000715255737 0
vt -0.39669999480247498 36.299198150634766
vt -0.39669999480247498 0
vt -0.24250000715255737 36.299198150634766
vt -0.03189999982714653 0
vt -0.18610000610351562 36.299198150634766
vt -0.18610000610351562 0
vt -0.03189999982714653 36.299198150634766
vt 0.03189999982714653 0
vt 0.18610000610351562 36.299198150634766
vt 0.03189999982714653 36.299198150634766
vt 0.18610000610351562 0
vt -0.17299999296665192 0.17299999296665192
vt -0.29530000686645508 1.1019999980926514
vt -0.29530000686645508 0.079099997878074646
vt -0.17299999296665192 1.0081000328063965
vt -0.079099997878074646 0.29530000686645508
vt -0.75089997053146362 0
vt -0.90509998798370361 36.299198150634766
vt -0.90509998798370361 0
vt -0.75089997053146362 36.299198150634766
vt 0.079099997878074646 0.88580000400543213
vt 0.59060001373291016 0.59060001373291016
vt 0.17299999296665192 1.0081000328063965
vt 0.020099999383091927 0.743399977684021
vt 0 0.59060001373291016
vt 0.020099999383091927 0.43770000338554382
vt 0.079099997878074646 0.29530000686645508
vt 0.17299999296665192 0.17299999296665192
vt 0.29530000686645508 0.079099997878074646
vt 0.43770000338554382 0.020099999383091927
vt 0.24250000715255737 0
vt 0.39669999480247498 36.299198150634766
vt 0.24250000715255737 36.299198150634766
vt 0.39669999480247498 0
vt -0.43770000338554382 1.1610000133514404
vt -0.43770000338554382 0.020099999383091927
vt -0.69450002908706665 36.299198150634766
vt -0.84869998693466187 0
vt -0.69450002908706665 0
vt -0.84869998693466187 36.299198150634766
vt 0.29530000686645508 1.1019999980926514
vt 0.43770000338554382 1.1610000133514404
vt -0.90509998798370361 0
vt -0.75089997053146362 36.299198150634766
vt -0.90509998798370361 36.299198150634766
vt -0.75089997053146362 0
vt 0.59060001373291016 1.1811000108718872
vt 1.1811000108718872 0.59060001373291016
vt 0.743399977684021 1.1610000133514404
vt 0.88580000400543213 1.1019999980926514
vt 1.0081000328063965 1.0081000328063965
vt 1.1019999980926514 0.88580000400543213
vt 1.1610000133514404 0.743399977684021
vt 0.43130001425743103 36.299198150634766
vt 0.58550000190734863 0
vt 0.58550000190734863 36.299198150634766
vt 0.43130001425743103 0
vt 0.58550000190734863 36.299198150634766
vt 0.73970001935958862 0
vt 0.73970001935958862 36.299198150634766
vt 0.58550000190734863 0
vt 0.69450002908706665 36.299198150634766
vt 0.84869998693466187 0
vt 0.84869998693466187 36.299198150634766
vt 0.69450002908706665 0
vt 0.75089997053146362 36.299198150634766
vt 0.90509998798370361 0
vt 0.90509998798370361 36.299198150634766
vt 0.75089997053146362 0
vt 0.90509998798370361 36.299198150634766
vt 0.75089997053146362 0
vt 0.90509998798370361 0
vt 0.75089997053146362 36.299198150634766
vt 0.88580000400543213 0.079099997878074646
vt 1.0081000328063965 0.17299999296665192
vt 0.743399977684021 0.020099999383091927
vt 0.59060001373291016 0
vt 0.43130001425743103 0
vt 0.58550000190734863 36.299198150634766
vt 0.43130001425743103 36.299198150634766
vt 0.58550000190734863 0
vt -0.59060001373291016 1.1811000108718872
vt -0.59060001373291016 0
vt -0.58550000190734863 36.299198150634766
vt -0.73970001935958862 0
vt -0.58550000190734863 0
vt -0.73970001935958862 36.299198150634766
vt -0.43130001425743103 36.299198150634766
vt -0.58550000190734863 0
vt -0.43130001425743103 0
vt -0.58550000190734863 36.299198150634766
vt -0.24250000715255737 36.299198150634766
vt -0.39669999480247498 0
vt -0.24250000715255737 0
vt -0.39669999480247498 36.299198150634766
vt -0.03189999982714653 36.299198150634766
vt -0.18610000610351562 0
vt -0.03189999982714653 0
vt -0.18610000610351562 36.299198150634766
vt 0.03189999982714653 36.299198150634766
vt 0.18610000610351562 0
vt 0.18610000610351562 36.299198150634766
vt 0.03189999982714653 0
vt 0.24250000715255737 36.299198150634766
vt 0.39669999480247498 0
vt 0.39669999480247498 36.299198150634766
vt 0.24250000715255737 0
vt -1.1019999980926514 0.29530000686645508
vt -1.1019999980926514 0.88580000400543213
vt -1.1610000133514404 0.743399977684021
vt -1.0081000328063965 0.17299999296665192
vt -1.0081000328063965 1.0081000328063965
vt -0.88580000400543213 0.079099997878074646
vt -0.88580000400543213 1.1019999980926514
vt -0.743399977684021 0.020099999383091927
vt -0.743399977684021 1.1610000133514404
vt 0.73970001935958862 36.299198150634766
vt 0.73970001935958862 0
vt 0.69450002908706665 0
vt 0.84869998693466187 36.299198150634766
vt 0.69450002908706665 36.299198150634766
vt 0.84869998693466187 0
vt -1.1610000133514404 0.43770000338554382
vt -1.1811000108718872 0.59060001373291016
vt 1.1019999980926514 0.29530000686645508
vt 1.1610000133514404 0.43770000338554382
vn 0 -1 0
vn 0 -1 0
vn 0 -1 0
vn 0 -1 0
vn 0.38258546590805054 0 -0.92392009496688843
vn 0.38258546590805054 0 -0.92392009496688843
vn 0.38258546590805054 0 -0.92392009496688843
vn 0.38258546590805054 0 -0.92392009496688843
vn 0.13042707741260529 0 -0.99145787954330444
vn 0.13042707741260529 0 -0.99145787954330444
vn 0.13042707741260529 0 -0.99145787954330444
vn 0.13042707741260529 0 -0.99145787954330444
vn 0.13042707741260529 0 -0.99145787954330444
vn 0.13042707741260529 0 -0.99145787954330444
vn -0.38258546590805054 0 -0.92392009496688843
vn -0.38258546590805054 0 -0.92392009496688843
vn -0.38258546590805054 0 -0.92392009496688843
vn -0.38258546590805054 0 -0.92392009496688843
vn -0.60802006721496582 0 -0.79392164945602417
vn -0.60802006721496582 0 -0.79392164945602417
vn -0.60802006721496582 0 -0.79392164945602417
vn -0.60802006721496582 0 -0.79392164945602417
vn -0.79392164945602417 0 -0.60802006721496582
vn -0.79392164945602417 0 -0.60802006721496582
vn -0.79392164945602417 0 -0.60802006721496582
vn -0.79392164945602417 0 -0.60802006721496582
vn 0 -1 0
vn 0 -1 0
vn 0 -1 0
vn 0 -1 0
vn 0 -1 0
vn 0.60802006721496582 0 -0.79392164945602417
vn 0.60802006721496582 0 -0.79392164945602417
vn 0.60802006721496582 0 -0.79392164945602417
vn 0.60802006721496582 0 -0.79392164945602417
vn 0 1 0
vn 0 1 0
vn 0 1 0
vn 0 1 0
vn 0 1 0
vn 0 1 0
vn 0 1 0
vn 0 1 0
vn 0 1 0
vn 0 1 0
vn -0.92353141307830811 0 -0.38352280855178833
vn -0.92353141307830811 0 -0.38352280855178833
vn -0.92353141307830811 0 -0.38352280855178833
vn -0.92353141307830811 0 -0.38352280855178833
vn 0 -1 0
vn 0 -1 0
vn 0.92353141307830811 0 -0.38352280855178833
vn 0.92353141307830811 0 -0.38352280855178833
vn 0.92353141307830811 0 -0.38352280855178833
vn 0.92353141307830811 0 -0.38352280855178833
vn 0 1 0
vn 0 1 0
vn 0.79392164945602417 0 -0.60802006721496582
vn 0.79392164945602417 0 -0.60802006721496582
vn 0.79392164945602417 0 -0.60802006721496582
vn 0.79392164945602417 0 -0.60802006721496582
vn 0 1 0
vn 0 1 0
vn 0 1 0
vn 0 1 0
vn 0 1 0
vn 0 1 0
vn 0 1 0
vn 0.13042707741260529 0 0.99145787954330444
vn 0.13042707741260529 0 0.99145787954330444
vn 0.13042707741260529 0 0.99145787954330444
vn 0.13042707741260529 0 0.99145787954330444
vn -0.13035856187343597 0 0.9914669394493103
vn -0.13035856187343597 0 0.9914669394493103
vn -0.13035856187343597 0 0.9914669394493103
vn -0.13035856187343597 0 0.9914669394493103
vn -0.38258546590805054 0 0.92392009496688843
vn -0.38258546590805054 0 0.92392009496688843
vn -0.38258546590805054 0 0.92392009496688843
vn -0.38258546590805054 0 0.92392009496688843
vn -0.60968518257141113 0 0.79264366626739502
vn -0.60968518257141113 0 0.79264366626739502
vn -0.60968518257141113 0 0.79264366626739502
vn -0.60968518257141113 0 0.79264366626739502
vn -0.79293960332870483 0 0.60930025577545166
vn -0.79293960332870483 0 0.60930025577545166
vn -0.79293960332870483 0 0.60930025577545166
vn -0.79293960332870483 0 0.60930025577545166
vn 0 1 0
vn 0 1 0
vn 0 1 0
vn 0 1 0
vn -0.9915117621421814 0 -0.1300169974565506
vn -0.9915117621421814 0 -0.1300169974565506
vn -0.9915117621421814 0 -0.1300169974565506
vn -0.9915117621421814 0 -0.1300169974565506
vn 0 -1 0
vn 0 -1 0
vn 0.9915117621421814 0 -0.1300169974565506
vn 0.9915117621421814 0 -0.1300169974565506
vn 0.9915117621421814 0 -0.1300169974565506
vn 0.9915117621421814 0 -0.1300169974565506
vn 0.99145787954330444 0 0.13042707741260529
vn 0.99145787954330444 0 0.13042707741260529
vn 0.99145787954330444 0 0.13042707741260529
vn 0.99145787954330444 0 0.13042707741260529
vn 0.92392009496688843 0 0.38258546590805054
vn 0.92392009496688843 0 0.38258546590805054
vn 0.92392009496688843 0 0.38258546590805054
vn 0.92392009496688843 0 0.38258546590805054
vn 0.79293954372406006 0 0.60930031538009644
vn 0.79293954372406006 0 0.60930031538009644
vn 0.79293954372406006 0 0.60930031538009644
vn 0.79293954372406006 0 0.60930031538009644
vn 0.60968518257141113 0 0.79264366626739502
vn 0.60968518257141113 0 0.79264366626739502
vn 0.60968518257141113 0 0.79264366626739502
vn 0.60968518257141113 0 0.79264366626739502
vn 0.38258546590805054 0 0.92392009496688843
vn 0.38258546590805054 0 0.92392009496688843
vn 0.38258546590805054 0 0.92392009496688843
vn 0.38258546590805054 0 0.92392009496688843
vn 0 -1 0
vn 0 -1 0
vn 0 -1 0
vn 0 -1 0
vn 0 -1 0
vn 0 -1 0
vn 0 -1 0
vn 0 -1 0
vn 0 -1 0
vn -0.9915117621421814 0 -0.1300169974565506
vn -0.9915117621421814 0 -0.1300169974565506
vn -0.92392009496688843 0 0.38258546590805054
vn -0.92392009496688843 0 0.38258546590805054
vn -0.92392009496688843 0 0.38258546590805054
vn -0.92392009496688843 0 0.38258546590805054
vn 0 -1 0
vn 0 -1 0
vn 0 1 0
vn 0 1 0
f 1/1/1 2/2/2 3/3/3
f 2/2/2 1/1/1 4/4/4
f 5/5/5 6/6/6 7/7/7
f 6/6/6 5/5/5 8/8/8
f 9/9/9 10/10/10 11/11/11
f 10/10/10 9/9/9 12/12/12
f 13/13/13 12/12/12 9/9/9
f 12/12/12 13/13/13 14/14/14
f 15/15/15 16/16/16 17/17/17
f 16/16/16 15/15/15 18/18/18
f 19/19/19 20/20/20 21/21/21
f 20/20/20 19/19/19 22/22/22
f 23/23/23 24/24/24 25/25/25
f 24/24/24 23/23/23 26/26/26
f 27/27/27 28/28/28 29/29/29
f 27/27/27 30/30/30 28/28/28
f 31/31/31 30/30/30 27/27/27
f 31/31/31 4/4/4 30/30/30
f 2/2/2 4/4/4 31/31/31
f 32/32/32 33/33/33 34/34/34
f 33/33/33 32/32/32 35/35/35
f 36/36/36 37/37/37 38/38/38
f 39/39/39 37/37/37 36/36/36
f 37/37/37 39/39/39 40/40/40
f 41/41/41 37/37/37 40/40/40
f 37/37/37 41/41/41 42/42/42
f 37/37/37 42/42/42 43/43/43
f 37/37/37 43/43/43 44/44/44
f 37/37/37 44/44/44 45/45/45
f 46/46/46 47/47/47 48/48/48
f 47/47/47 46/46/46 49/49/49
f 29/29/29 50/50/50 51/51/51
f 29/29/29 28/28/28 50/50/50
f 52/52/52 53/53/53 54/54/54
f 53/53/53 52/52/52 55/55/55
f 56/56/56 37/37/37 57/57/57
f 38/38/38 37/37/37 56/56/56
f 58/58/58 59/59/59 60/60/60
f 59/59/59 58/58/58 61/61/61
f 57/57/57 37/37/37 62/62/62
f 63/63/63 62/62/62 37/37/37
f 62/62/62 63/63/63 64/64/64
f 64/64/64 63/63/63 65/65/65
f 65/65/65 63/63/63 66/66/66
f 66/66/66 63/63/63 67/67/67
f 67/67/67 63/63/63 68/68/68
f 69/69/69 70/70/70 71/71/71
f 70/70/70 69/69/69 72/72/72
f 73/73/73 74/74/74 75/75/75
f 74/74/74 73/73/73 76/76/76
f 77/77/77 78/78/78 79/79/79
f 78/78/78 77/77/77 80/80/80
f 81/81/81 82/82/82 83/83/83
f 82/82/82 81/81/81 84/84/84
f 85/85/85 86/86/86 87/87/87
f 86/86/86 85/85/85 88/88/88
f 63/63/63 89/89/89 90/90/90
f 63/63/63 91/91/91 89/89/89
f 37/37/37 91/91/91 63/63/63
f 91/91/91 37/37/37 92/92/92
f 37/37/37 45/45/45 92/92/92
f 93/93/93 94/94/94 95/95/95
f 94/94/94 93/93/93 96/96/96
f 51/51/51 97/97/97 98/98/98
f 51/51/51 50/50/50 97/97/97
f 99/99/99 100/100/100 101/101/101
f 100/100/100 99/99/99 102/102/102
f 103/103/103 104/104/104 105/105/105
f 104/104/104 103/103/103 106/106/106
f 107/107/107 108/108/108 109/109/109
f 108/108/108 107/107/107 110/110/110
f 111/111/111 112/112/112 113/113/113
f 112/112/112 111/111/111 114/114/114
f 115/115/115 116/116/116 117/117/117
f 116/116/116 115/115/115 118/118/118
f 119/119/119 120/120/120 121/121/121
f 120/120/120 119/119/119 122/122/122
f 123/123/123 124/124/124 125/125/125
f 126/126/126 124/124/124 123/123/123
f 126/126/126 127/127/127 124/124/124
f 128/128/128 127/127/127 126/126/126
f 128/128/128 129/129/129 127/127/127
f 130/130/130 129/129/129 128/128/128
f 130/130/130 131/131/131 129/129/129
f 98/98/98 131/131/131 130/130/130
f 98/98/98 97/97/97 131/131/131
f 132/132/132 96/96/96 133/133/133
f 96/96/96 132/132/132 94/94/94
f 134/134/134 135/135/135 136/136/136
f 135/135/135 134/134/134 137/137/137
f 123/123/123 125/125/125 138/138/138
f 138/138/138 125/125/125 139/139/139
f 63/63/63 90/90/90 140/140/140
f 63/63/63 140/140/140 141/141/141
