# Rhino

mtllib BedSet_06_04.mtl
usemtl Default
v 0.42071225909799992 0.31767309544900002 -0.19317928943400009
v 0.40783341542200002 0.33484488701600001 -0.19317928943400009
v 0.42071225909799992 0.33484488701600001 -0.19317928943400009
v 0.40783341542200002 0.31767309544900002 -0.19317928943400009
v 0.41757879419199995 0.1287867539061 -0.19317928943400009
v 0.41092480910200013 0.081565168520499984 -0.19317928943400009
v 0.41757879419199995 0.081565168520499984 -0.19317928943400009
v 0.41092480910200013 0.1287867539061 -0.19317928943400009
v 0.42071225909799992 0.31767309544900002 -0.19317928943400009
v 0.42071225909799992 8.4142499998107745E-07 -0.19317928943400009
v 0.40783341542200002 8.4142499998107745E-07 -0.19317928943400009
v 0.40783341542200002 0.081565168520499984 -0.19317928943400009
v 0.40783341542200002 0.1287867539061 -0.19317928943400009
v 0.42071225909799992 0.33913783490799998 -0.19317928943400009
v 0.40783341542200002 0.33484488701600001 -0.19317928943400009
v 0.42071225909799992 0.33484488701600001 -0.19317928943400009
v 0.40783341542200002 0.33913783490799998 -0.19317928943400009
v 0.42071225909799992 0.33913783490799998 -0.19317928943400009
v 0.40783341542200002 0.33913783490799998 -0.21035108100199995
v 0.40783341542200002 0.33913783490799998 -0.19317928943400009
v 0.42071225909799992 0.33913783490799998 -0.21035108100199995
v 0.42071225909799992 0.33913783490799998 -0.19317928943400009
v 0.42071225909799992 8.4142499998107745E-07 -0.21035108100199995
v 0.42071225909799992 0.33913783490799998 -0.21035108100199995
v 0.42071225909799992 0.33484488701600001 -0.19317928943400009
v 0.42071225909799992 0.31767309544900002 -0.19317928943400009
v 0.42071225909799992 8.4142499998107745E-07 -0.19317928943400009
v 0.40783341542200002 8.4142499998107745E-07 -0.19317928943400009
v 0.42071225909799992 8.4142499998107745E-07 -0.21035108100199995
v 0.42071225909799992 8.4142499998107745E-07 -0.19317928943400009
v 0.40783341542200002 8.4142499998107745E-07 -0.21035108100199995
v 0.40783341542200002 8.4142499998107745E-07 -0.19317928943400009
v 0.40783341542200002 0.081565168520499984 -0.19626984168999995
v 0.40783341542200002 8.4142499998107745E-07 -0.21035108100199995
v 0.40783341542200002 0.1287867539061 -0.19626984168999995
v 0.40783341542200002 0.081565168520499984 -0.19317928943400009
v 0.40783341542200002 0.1287867539061 -0.19317928943400009
v 0.40783341542200002 0.33913783490799998 -0.21035108100199995
v 0.40783341542200002 0.17599908362205 -0.19317928943400009
v 0.40783341542200002 0.31767309544900002 -0.19317928943400009
v 0.40783341542200002 0.33484488701600001 -0.19317928943400009
v 0.40783341542200002 0.33913783490799998 -0.19317928943400009
v 0.40783341542200002 0.17599908362205 -0.19317928943400009
v 0.40783341542200002 0.31767309544900002 -0.19317928943400009
v 0.40783341542200002 0.17415047395556998 -0.19317928943400009
v 0.40783341542200002 0.1287867539061 -0.20721677467100008
v 0.40783341542200002 0.081565168520499984 -0.20721677467100008
v 0.40783341542200002 0.33913783490799998 -0.21035108100199995
v 0.42071225909799992 8.4142499998107745E-07 -0.21035108100199995
v 0.40783341542200002 8.4142499998107745E-07 -0.21035108100199995
v 0.42071225909799992 0.33913783490799998 -0.21035108100199995
v 0.40783341542200002 0.081565168520499984 -0.19626984168999995
v 0.40783341542200002 0.1287867539061 -0.19626984168999995
v 0.40783341542200002 0.1051759612133 -0.20174330818050001
v 0.40783341542200002 0.081565168520499984 -0.20721677467100008
v 0.40783341542200002 0.1287867539061 -0.20721677467100008
vt -3.4152998924255371 0
vt -3.4054000377655029 0.032800000160932541
vt -3.4152998924255371 0.032800000160932541
vt -3.4054000377655029 0
vt 3.4128999710083008 -0.36090001463890076
vt 3.4077999591827393 -0.45109999179840088
vt 3.4128999710083008 -0.45109999179840088
vt 3.4077999591827393 -0.36090001463890076
vt 3.4152998924255371 0
vt 3.4152998924255371 -0.60699999332427979
vt 3.4054000377655029 -0.60699999332427979
vt 3.4054000377655029 -0.45109999179840088
vt 3.4054000377655029 -0.36090001463890076
vt 3.4152998924255371 0.041000001132488251
vt 3.4054000377655029 0.032800000160932541
vt 3.4152998924255371 0.032800000160932541
vt 3.4054000377655029 0.041000001132488251
vt 3.4152998924255371 -8.9675998687744141
vt 3.4054000377655029 -8.9348001480102539
vt 3.4054000377655029 -8.9675998687744141
vt 3.4152998924255371 -8.9348001480102539
vt -3.5871000289916992 0.041000001132488251
vt -3.5738999843597412 -0.60699999332427979
vt -3.5738999843597412 0.041000001132488251
vt -3.5871000289916992 0.032800000160932541
vt -3.5871000289916992 0
vt -3.5871000289916992 -0.60699999332427979
vt -3.4054000377655029 -8.9675998687744141
vt -3.4152998924255371 -8.9348001480102539
vt -3.4152998924255371 -8.9675998687744141
vt -3.4054000377655029 -8.9348001480102539
vt 3.5871000289916992 -0.60699999332427979
vt 3.5847001075744629 -0.45109999179840088
vt 3.5738999843597412 -0.60699999332427979
vt 3.5847001075744629 -0.36090001463890076
vt 3.5871000289916992 -0.45109999179840088
vt 3.5871000289916992 -0.36090001463890076
vt 3.5738999843597412 0.041000001132488251
vt 3.5871000289916992 -0.27070000767707825
vt 3.5871000289916992 0
vt 3.5871000289916992 0.032800000160932541
vt 3.5871000289916992 0.041000001132488251
vt 3.4054000377655029 -0.27070000767707825
vt 3.4054000377655029 0
vt 3.4054000377655029 -0.27419999241828918
vt 3.5762999057769775 -0.36090001463890076
vt 3.5762999057769775 -0.45109999179840088
vt -3.4054000377655029 0.041000001132488251
vt -3.4152998924255371 -0.60699999332427979
vt -3.4054000377655029 -0.60699999332427979
vt -3.4152998924255371 0.041000001132488251
vt 0 0
vt 1 0
vt 0.5 0.5
vt 0 1
vt 1 1
vn 0 0 -1
vn 0 0 -1
vn 0 0 -1
vn 0 0 -1
vn 0 0 -1
vn 0 0 -1
vn 0 0 -1
vn 0 0 -1
vn 0 0 -1
vn 0 0 -1
vn 0 0 -1
vn 0 0 -1
vn 0 0 -1
vn 0 0 -1
vn 0 0 -1
vn 0 0 -1
vn 0 0 -1
vn 0 -1 0
vn 0 -1 0
vn 0 -1 0
vn 0 -1 0
vn -1 0 0
vn -1 0 0
vn -1 0 0
vn -1 0 0
vn -1 0 0
vn -1 0 0
vn 0 1 0
vn 0 1 0
vn 0 1 0
vn 0 1 0
vn 1 0 0
vn 1 0 0
vn 1 0 0
vn 1 0 0
vn 1 0 0
vn 1 0 0
vn 1 0 0
vn 1 0 0
vn 1 0 0
vn 1 0 0
vn 1 0 0
vn 0 0 -1
vn 0 0 -1
vn 0 0 -1
vn 1 0 0
vn 1 0 0
vn 0 0 1
vn 0 0 1
vn 0 0 1
vn 0 0 1
vn 1 0 0
vn 1 0 0
vn 1 0 0
vn 1 0 0
vn 1 0 0
f 1/1/1 2/2/2 3/3/3
f 2/2/2 1/1/1 4/4/4
f 5/5/5 7/7/7 6/6/6
f 6/6/6 8/8/8 5/5/5
f 7/7/7 5/5/5 9/9/9
f 7/7/7 9/9/9 10/10/10
f 10/10/10 11/11/11 7/7/7
f 7/7/7 11/11/11 12/12/12
f 8/8/8 6/6/6 12/12/12
f 12/12/12 13/13/13 8/8/8
f 14/14/14 16/16/16 15/15/15
f 15/15/15 17/17/17 14/14/14
f 18/18/18 20/20/20 19/19/19
f 19/19/19 21/21/21 18/18/18
f 22/22/22 24/24/24 23/23/23
f 25/25/25 22/22/22 23/23/23
f 26/26/26 25/25/25 23/23/23
f 23/23/23 27/27/27 26/26/26
f 28/28/28 30/30/30 29/29/29
f 29/29/29 31/31/31 28/28/28
f 32/32/32 34/34/34 33/33/33
f 32/32/32 33/33/33 35/35/35
f 36/36/36 32/32/32 35/35/35
f 35/35/35 37/37/37 36/36/36
f 37/37/37 35/35/35 38/38/38
f 39/39/39 37/37/37 38/38/38
f 40/40/40 39/39/39 38/38/38
f 41/41/41 40/40/40 38/38/38
f 38/38/38 42/42/42 41/41/41
f 43/43/43 44/44/44 9/9/9
f 45/45/45 43/43/43 9/9/9
f 13/13/13 45/45/45 9/9/9
f 8/8/8 13/13/13 9/9/9
f 5/5/5 8/8/8 9/9/9
f 35/35/35 46/46/46 38/38/38
f 46/46/46 47/47/47 38/38/38
f 34/34/34 38/38/38 47/47/47
f 34/34/34 47/47/47 33/33/33
f 48/48/48 50/50/50 49/49/49
f 49/49/49 51/51/51 48/48/48
f 54/54/54 52/52/52 55/55/55
f 56/56/56 53/53/53 54/54/54
f 52/52/52 54/54/54 53/53/53
f 55/55/55 56/56/56 54/54/54
