# Rhino

mtllib BedSet_02_05.mtl
usemtl Default
v 0.28999339518723888 0.099040227449100002 0.023539816515199874
v 0.28999339518723888 0.051117562045000009 0.22162027141300022
v 0.28999339518723888 0.099040227449100002 0.22162027141300022
v 0.28795437174400007 0.099040227449100002 0.023539816515199874
v 0.28795437174400007 0.051117562045000009 0.22162027141300022
v 0.28795437174400007 0.099040227449100002 0.22162027141300022
v 0.28999339518723888 0.051117562045000009 0.023539816515199874
v 0.28795437174400007 0.051117562045000009 0.023539816515199874
v 0.28795437174400007 0.099040227449100002 0.22162027141300022
v 0.28795437174400007 0.099040227449100002 0.023539816515199874
v 0.28999339518723888 0.099040227449100002 0.023539816515199874
v 0.28999339518723888 0.099040227449100002 0.22162027141300022
v 0.28795437174400007 0.099040227449100002 0.023539816515199874
v 0.28795437174400007 0.051117562045000009 0.023539816515199874
v 0.28999339518723888 0.051117562045000009 0.023539816515199874
v 0.28999339518723888 0.099040227449100002 0.023539816515199874
v 0.28795437174400007 0.051117562045000009 0.22162027141300022
v 0.28795437174400007 0.099040227449100002 0.22162027141300022
v 0.28999339518723888 0.099040227449100002 0.22162027141300022
v 0.28999339518723888 0.051117562045000009 0.22162027141300022
v 0.28795437174400007 0.051117562045000009 0.023539816515199874
v 0.28795437174400007 0.051117562045000009 0.22162027141300022
v 0.28999339518723888 0.051117562045000009 0.22162027141300022
v 0.28999339518723888 0.051117562045000009 0.023539816515199874
vt 49.425567626953125 11.220450401306152
vt 61.630268096923828 8.2677001953125
vt 61.630268096923828 11.220450401306152
vt 41.289100646972656 12.204700469970703
vt 65.698501586914062 6.2992000579833984
vt 65.698501586914062 12.204700469970703
vt 45.357334136962891 7.2834501266479492
vt 41.289100646972656 6.2992000579833984
vt 65.698501586914062 12.204700469970703
vt 41.289100646972656 12.204700469970703
vt 49.425567626953125 11.220450401306152
vt 61.630268096923828 11.220450401306152
vt 41.289100646972656 12.204700469970703
vt 41.289100646972656 6.2992000579833984
vt 45.357334136962891 7.2834501266479492
vt 49.425567626953125 11.220450401306152
vt 65.698501586914062 6.2992000579833984
vt 65.698501586914062 12.204700469970703
vt 61.630268096923828 11.220450401306152
vt 61.630268096923828 8.2677001953125
vt 41.289100646972656 6.2992000579833984
vt 65.698501586914062 6.2992000579833984
vt 61.630268096923828 8.2677001953125
vt 45.357334136962891 7.2834501266479492
vn 1 0 0
vn 1 0 0
vn 1 0 0
vn -1 0 0
vn -1 0 0
vn -1 0 0
vn 1 0 0
vn -1 0 0
vn 0 1 0
vn 0 1 0
vn 0 1 0
vn 0 1 0
vn 0 0 -1
vn 0 0 -1
vn 0 0 -1
vn 0 0 -1
vn 0 0 1
vn 0 0 1
vn 0 0 1
vn 0 0 1
vn 0 -1 0
vn 0 -1 0
vn 0 -1 0
vn 0 -1 0
f 1/1/1 3/3/3 2/2/2
f 4/4/4 5/5/5 6/6/6
f 2/2/2 7/7/7 1/1/1
f 5/5/5 4/4/4 8/8/8
f 9/9/9 12/12/12 11/11/11 10/10/10
f 13/13/13 16/16/16 15/15/15 14/14/14
f 17/17/17 20/20/20 19/19/19 18/18/18
f 21/21/21 24/24/24 23/23/23 22/22/22
