# Rhino

mtllib BedSet_04_20.mtl
usemtl Default
v 0.21871967582599994 0.12372445484530001 0.25235778936900033
v 0.21871967582599994 0.10654959762190001 0.24460172837000016
v 0.21871967582599994 0.12372445484530001 0.24460172837000016
v 0.21871967582599994 0.10654959762190001 0.25235856707500037
v 0.21871967582599994 0.12372445484530001 0.25235778936900033
v 0.044201692861300046 0.10654959762190001 0.25235856707500037
v 0.21871967582599994 0.10654959762190001 0.25235856707500037
v 0.044201692861300046 0.12372445484530001 0.25235778936900033
v 0.21871967582599994 0.12372445484530001 0.25235778936900033
v 0.044201692861300046 0.12372445484530001 0.24460172837000016
v 0.044201692861300046 0.12372445484530001 0.25235778936900033
v 0.21871967582599994 0.12372445484530001 0.24460172837000016
v 0.21871967582599994 0.10654959762190001 0.24460172837000016
v 0.044201692861300046 0.10654959762190001 0.25235856707500037
v 0.044201692861300046 0.10654959762190001 0.24460172837000016
v 0.21871967582599994 0.10654959762190001 0.25235856707500037
v 0.044201692861300046 0.10654959762190001 0.25235856707500037
v 0.044201692861300046 0.12372445484530001 0.24460172837000016
v 0.044201692861300046 0.10654959762190001 0.24460172837000016
v 0.044201692861300046 0.12372445484530001 0.25235778936900033
v 0.044201692861300046 0.10654959762190001 0.24460172837000016
v 0.044201692861300046 0.12372445484530001 0.24460172837000016
v 0.13146068434364988 0.1151370262336 0.24460172837000016
v 0.21871967582599994 0.10654959762190001 0.24460172837000016
v 0.21871967582599994 0.12372445484530001 0.24460172837000016
vt -57.25 13.957500457763672
vt -56.375 12.020000457763672
vt -56.375 13.957500457763672
vt -57.25 12.020000457763672
vt -19.192899703979492 13.957500457763672
vt -38.880401611328125 12.020000457763672
vt -19.192899703979492 12.020000457763672
vt -38.880401611328125 13.957500457763672
vt 19.192899703979492 57.25
vt 38.880401611328125 56.375
vt 38.880401611328125 57.25
vt 19.192899703979492 56.375
vt -19.192899703979492 56.375
vt -38.880401611328125 57.25
vt -38.880401611328125 56.375
vt -19.192899703979492 57.25
vt 57.25 12.020000457763672
vt 56.375 13.957500457763672
vt 56.375 12.020000457763672
vt 57.25 13.957500457763672
vt 0 0
vt 0 1
vt 0.5 0.5
vt 1 0
vt 1 1
vn 1 0 0
vn 1 0 0
vn 1 0 0
vn 1 0 0
vn 0 4.5281656639417633E-05 1
vn 0 4.5281656639417633E-05 1
vn 0 4.5281656639417633E-05 1
vn 0 4.5281656639417633E-05 1
vn 0 1 0
vn 0 1 0
vn 0 1 0
vn 0 1 0
vn 0 -1 0
vn 0 -1 0
vn 0 -1 0
vn 0 -1 0
vn -1 0 0
vn -1 0 0
vn -1 0 0
vn -1 0 0
vn 0 0 -1
vn 0 0 -1
vn 0 0 -1
vn 0 0 -1
vn 0 0 -1
f 1/1/1 2/2/2 3/3/3
f 2/2/2 1/1/1 4/4/4
f 5/5/5 6/6/6 7/7/7
f 6/6/6 5/5/5 8/8/8
f 9/9/9 10/10/10 11/11/11
f 10/10/10 9/9/9 12/12/12
f 13/13/13 14/14/14 15/15/15
f 14/14/14 13/13/13 16/16/16
f 17/17/17 18/18/18 19/19/19
f 18/18/18 17/17/17 20/20/20
f 23/23/23 21/21/21 22/22/22
f 25/25/25 24/24/24 23/23/23
f 21/21/21 23/23/23 24/24/24
f 22/22/22 25/25/25 23/23/23
