# Rhino

mtllib BedSet_17_16.mtl
usemtl Default
v 0.37038097836067152 0.035274606198072433 0.093334674835205078
v 0.37038097836067152 0.036424882709980011 0.097168684005737305
v 0.37038097836067152 0.036424882709980011 0.093334674835205078
v 0.011459386849608677 0.035274606198072433 0.093334674835205078
v 0.011459386849608677 0.036424882709980011 0.097168684005737305
v 0.011459386849608677 0.036424882709980011 0.093334674835205078
v 0.37038097836067152 0.036424882709980011 0.18033266067504883
v 0.011459386849608677 0.036424882709980011 0.18033266067504883
v 0.37038097836067152 0.035274606198072433 0.29654645919799805
v 0.37038097836067152 0.036424882709980011 0.29654645919799805
v 0.37038097836067152 0.036424882709980011 0.18621325492858887
v 0.011459386849608677 0.035274606198072433 0.29654645919799805
v 0.011459386849608677 0.036424882709980011 0.29654645919799805
v 0.011459386849608677 0.036424882709980011 0.18621325492858887
v 0.011459386849608677 0.035274606198072433 0.29654645919799805
v 0.011459386849608677 0.036424882709980011 0.29654645919799805
v 0.37038097836067152 0.036424882709980011 0.29654645919799805
v 0.37038097836067152 0.035274606198072433 0.29654645919799805
v 0.011459386849608677 0.036424882709980011 0.29654645919799805
v 0.011459386849608677 0.036424882709980011 0.18621325492858887
v 0.37038097836067152 0.036424882709980011 0.18621325492858887
v 0.37038097836067152 0.036424882709980011 0.29654645919799805
v 0.011459386849608677 0.035274606198072433 0.093334674835205078
v 0.011459386849608677 0.035274606198072433 0.29654645919799805
v 0.37038097836067152 0.035274606198072433 0.29654645919799805
v 0.37038097836067152 0.035274606198072433 0.093334674835205078
v 0.011459386849608677 0.036424882709980011 0.093334674835205078
v 0.011459386849608677 0.035274606198072433 0.093334674835205078
v 0.37038097836067152 0.035274606198072433 0.093334674835205078
v 0.37038097836067152 0.036424882709980011 0.093334674835205078
v 0.011459386849608677 0.036424882709980011 0.097168684005737305
v 0.011459386849608677 0.036424882709980011 0.093334674835205078
v 0.37038097836067152 0.036424882709980011 0.093334674835205078
v 0.37038097836067152 0.036424882709980011 0.097168684005737305
v 0.011459386849608677 0.036424882709980011 0.18033266067504883
v 0.011459386849608677 0.036424882709980011 0.097168684005737305
v 0.37038097836067152 0.036424882709980011 0.097168684005737305
v 0.37038097836067152 0.036424882709980011 0.18033266067504883
v 0.011459386849608677 0.036424882709980011 0.18621325492858887
v 0.011459386849608677 0.036424882709980011 0.18033266067504883
v 0.37038097836067152 0.036424882709980011 0.18033266067504883
v 0.37038097836067152 0.036424882709980011 0.18621325492858887
vt 0.66666668653488159 0.003144492395222187
vt 0.1666666716337204 0.012577969580888748
vt 0.1666666716337204 0.003144492395222187
vt 1 0
vt 0 0.018866954371333122
vt 0 0
vt 0.1666666716337204 0.28855478763580322
vt 0 0.42811542749404907
vt 0.75 0.80713170766830444
vt 0.25 0.80713170766830444
vt 0.25 0.53565853834152222
vt 1 1
vt 0 1
vt 0 0.45705366134643555
vt 1 1
vt 0 1
vt 0.25 0.80713170766830444
vt 0.75 0.80713170766830444
vt 0 1
vt 0 0.45705366134643555
vt 0.25 0.53565853834152222
vt 0.25 0.80713170766830444
vt 1 0
vt 1 1
vt 0.75 0.80713170766830444
vt 0.66666668653488159 0.003144492395222187
vt 0 0
vt 1 0
vt 0.66666668653488159 0.003144492395222187
vt 0.1666666716337204 0.003144492395222187
vt 0 0.018866954371333122
vt 0 0
vt 0.1666666716337204 0.003144492395222187
vt 0.1666666716337204 0.012577969580888748
vt 0 0.42811542749404907
vt 0 0.018866954371333122
vt 0.1666666716337204 0.012577969580888748
vt 0.1666666716337204 0.28855478763580322
vt 0 0.45705366134643555
vt 0 0.42811542749404907
vt 0.1666666716337204 0.28855478763580322
vt 0.25 0.53565853834152222
vn 1 0 0
vn 1 0 0
vn 1 0 0
vn -1 0 0
vn -1 0 0
vn -1 0 0
vn 1 0 0
vn -1 0 0
vn 1 0 0
vn 1 0 0
vn 1 0 0
vn -1 0 0
vn -1 0 0
vn -1 0 0
vn 0 0 1
vn 0 0 1
vn 0 0 1
vn 0 0 1
vn 0 1 0
vn 0 1 0
vn 0 1 0
vn 0 1 0
vn 0 -1 0
vn 0 -1 0
vn 0 -1 0
vn 0 -1 0
vn 0 0 -1
vn 0 0 -1
vn 0 0 -1
vn 0 0 -1
vn 0 1 0
vn 0 1 0
vn 0 1 0
vn 0 1 0
vn 0 1 0
vn 0 1 0
vn 0 1 0
vn 0 1 0
vn 0 1 0
vn 0 1 0
vn 0 1 0
vn 0 1 0
f 1/1/1 3/3/3 2/2/2
f 4/4/4 5/5/5 6/6/6
f 1/1/1 2/2/2 7/7/7
f 4/4/4 8/8/8 5/5/5
f 1/1/1 11/11/11 10/10/10 9/9/9
f 4/4/4 12/12/12 13/13/13 14/14/14
f 7/7/7 11/11/11 1/1/1
f 8/8/8 4/4/4 14/14/14
f 15/15/15 18/18/18 17/17/17 16/16/16
f 19/19/19 22/22/22 21/21/21 20/20/20
f 23/23/23 26/26/26 25/25/25 24/24/24
f 27/27/27 30/30/30 29/29/29 28/28/28
f 31/31/31 34/34/34 33/33/33 32/32/32
f 35/35/35 38/38/38 37/37/37 36/36/36
f 39/39/39 42/42/42 41/41/41 40/40/40
