# Rhino

mtllib BedSet_09_05.mtl
usemtl Default
v 0.22909121821400014 0.15496366331817998 0.16776939816100001
v 0.22909121821400014 0.28479808393599998 0.38082487258500031
v 0.22909121821400014 0.28479808393599998 0.16776939816100001
v 0.19202929630099996 0.15496366331817998 0.16776939816100001
v 0.19202929630099996 0.28479808393599998 0.38082487258500031
v 0.19202929630099996 0.28479808393599998 0.16776939816100001
v 0.22909121821400014 0.15496366331817998 0.38082487258500031
v 0.19202929630099996 0.15496366331817998 0.38082487258500031
v 0.19202929630099996 0.28479808393599998 0.16776939816100001
v 0.19202929630099996 0.15496366331817998 0.16776939816100001
v 0.22909121821400014 0.15496366331817998 0.16776939816100001
v 0.22909121821400014 0.28479808393599998 0.16776939816100001
v 0.19202929630099996 0.15496366331817998 0.16776939816100001
v 0.19202929630099996 0.15496366331817998 0.38082487258500031
v 0.22909121821400014 0.15496366331817998 0.38082487258500031
v 0.22909121821400014 0.15496366331817998 0.16776939816100001
v 0.19202929630099996 0.28479808393599998 0.38082487258500031
v 0.19202929630099996 0.28479808393599998 0.16776939816100001
v 0.22909121821400014 0.28479808393599998 0.16776939816100001
v 0.22909121821400014 0.28479808393599998 0.38082487258500031
v 0.19202929630099996 0.15496366331817998 0.38082487258500031
v 0.19202929630099996 0.28479808393599998 0.38082487258500031
v 0.22909121821400014 0.28479808393599998 0.38082487258500031
v 0.22909121821400014 0.15496366331817998 0.38082487258500031
vt 0.1666666716337204 0.3333333432674408
vt 0.66666668653488159 0.83333331346511841
vt 0.1666666716337204 0.83333331346511841
vt 0 0
vt 1 1
vt 0 1
vt 0.83333331346511841 0.1666666716337204
vt 1 0
vt 0 1
vt 0 0
vt 0.1666666716337204 0.3333333432674408
vt 0.1666666716337204 0.83333331346511841
vt 0 0
vt 1 0
vt 0.83333331346511841 0.1666666716337204
vt 0.1666666716337204 0.3333333432674408
vt 1 1
vt 0 1
vt 0.1666666716337204 0.83333331346511841
vt 0.66666668653488159 0.83333331346511841
vt 1 0
vt 1 1
vt 0.66666668653488159 0.83333331346511841
vt 0.83333331346511841 0.1666666716337204
vn 1 0 0
vn 1 0 0
vn 1 0 0
vn -1 0 0
vn -1 0 0
vn -1 0 0
vn 1 0 0
vn -1 0 0
vn 0 0 -1
vn 0 0 -1
vn 0 0 -1
vn 0 0 -1
vn 0 -1 0
vn 0 -1 0
vn 0 -1 0
vn 0 -1 0
vn 0 1 0
vn 0 1 0
vn 0 1 0
vn 0 1 0
vn 0 0 1
vn 0 0 1
vn 0 0 1
vn 0 0 1
f 1/1/1 3/3/3 2/2/2
f 4/4/4 5/5/5 6/6/6
f 2/2/2 7/7/7 1/1/1
f 5/5/5 4/4/4 8/8/8
f 9/9/9 12/12/12 11/11/11 10/10/10
f 13/13/13 16/16/16 15/15/15 14/14/14
f 17/17/17 20/20/20 19/19/19 18/18/18
f 21/21/21 24/24/24 23/23/23 22/22/22
