# Rhino

mtllib BedSet_05_17.mtl
usemtl Default
v 0 0 -0.0071935465428598633
v 0 0.0899193317858 0.0071935465428598633
v 0 0.0899193317858 -0.0071935465428598633
v 0 0 0.0071935465428598633
v 0 0 -0.0071935465428598633
v 0.0089919331785899281 0 0.0071935465428598633
v 0 0 0.0071935465428598633
v 0.0089919331785899281 0 -0.0071935465428598633
v 0 0 -0.0071935465428598633
v 0.0089919331785899281 0.0899193317858 -0.0071935465428598633
v 0.0089919331785899281 0 -0.0071935465428598633
v 0 0.0899193317858 -0.0071935465428598633
v 0 0.0899193317858 0.0071935465428598633
v 0.0089919331785899281 0 0.0071935465428598633
v 0.0089919331785899281 0.0899193317858 0.0071935465428598633
v 0 0 0.0071935465428598633
v 0.0089919331785899281 0 0.0071935465428598633
v 0.0089919331785899281 0.0899193317858 -0.0071935465428598633
v 0.0089919331785899281 0.0899193317858 0.0071935465428598633
v 0.0089919331785899281 0 -0.0071935465428598633
v 0 0.0899193317858 0.0071935465428598633
v 0 0.0899193317858 -0.0071935465428598633
v 0.0044959665892949641 0.0899193317858 0
v 0.0089919331785899281 0.0899193317858 0.0071935465428598633
v 0.0089919331785899281 0.0899193317858 -0.0071935465428598633
vt 32.086601257324219 0
vt 33.661399841308594 9.8425197601318359
vt 32.086601257324219 9.8425197601318359
vt 33.661399841308594 0
vt -32.086601257324219 40.748001098632812
vt -33.661399841308594 41.7322998046875
vt -33.661399841308594 40.748001098632812
vt -32.086601257324219 41.7322998046875
vt -40.748001098632812 0
vt -41.7322998046875 9.8425197601318359
vt -41.7322998046875 0
vt -40.748001098632812 9.8425197601318359
vt 40.748001098632812 9.8425197601318359
vt 41.7322998046875 0
vt 41.7322998046875 9.8425197601318359
vt 40.748001098632812 0
vt -33.661399841308594 0
vt -32.086601257324219 9.8425197601318359
vt -33.661399841308594 9.8425197601318359
vt -32.086601257324219 0
vt 1 0
vt 1 1
vt 0.5 0.5
vt 0 0
vt 0 1
vn -1 0 0
vn -1 0 0
vn -1 0 0
vn -1 0 0
vn 0 -1 0
vn 0 -1 0
vn 0 -1 0
vn 0 -1 0
vn 0 0 -1
vn 0 0 -1
vn 0 0 -1
vn 0 0 -1
vn 0 0 1
vn 0 0 1
vn 0 0 1
vn 0 0 1
vn 1 0 0
vn 1 0 0
vn 1 0 0
vn 1 0 0
vn 0 1 0
vn 0 1 0
vn 0 1 0
vn 0 1 0
vn 0 1 0
f 1/1/1 2/2/2 3/3/3
f 2/2/2 1/1/1 4/4/4
f 5/5/5 6/6/6 7/7/7
f 6/6/6 5/5/5 8/8/8
f 9/9/9 10/10/10 11/11/11
f 10/10/10 9/9/9 12/12/12
f 13/13/13 14/14/14 15/15/15
f 14/14/14 13/13/13 16/16/16
f 17/17/17 18/18/18 19/19/19
f 18/18/18 17/17/17 20/20/20
f 23/23/23 24/24/24 25/25/25
f 22/22/22 21/21/21 23/23/23
f 24/24/24 23/23/23 21/21/21
f 25/25/25 22/22/22 23/23/23
