# Rhino

mtllib BedSet_17_39.mtl
usemtl Default
v -0.37958315264999953 0.095471327954880003 -0.30925162773900006
v 0.37958234938400004 0.095471327954880003 -0.27091015479000013
v -0.37958315264999953 0.095471327954880003 -0.27091015479000013
v 0.37958234938400004 0.095471327954880003 -0.30925162773900006
v -0.38648481056500028 0.10237218260399999 -0.30925162773900006
v 0.37958234938400004 0.095471327954880003 -0.30925162773900006
v -0.37958315264999953 0.095471327954880003 -0.30925162773900006
v 0.3864832040330004 0.10237218260399999 -0.30925162773900006
v -0.38571688866499976 0.10314010450409999 -0.30925162773900006
v -0.38648481056500028 0.10237218260399999 -0.27474494469699984
v -0.38571688866499976 0.10314010450409999 -0.30925162773900006
v -0.38648481056500028 0.10237218260399999 -0.30925162773900006
v -0.38571688866499976 0.10314010450409999 -0.27474494469699984
v -0.38648481056500028 0.10237218260399999 -0.27474494469699984
v 0.38571688866499976 0.10314010450409999 -0.27474494469699984
v -0.38571688866499976 0.10314010450409999 -0.27474494469699984
v 0.3864832040330004 0.10237218260399999 -0.27474494469699984
v -0.38341713929199983 0.099305314596700001 -0.27474494469699984
v 0.38341713929199983 0.099305314596700001 -0.27474494469699984
v -0.38341713929199983 0.099305314596700001 -0.27474494469699984
v 0.38341713929199983 0.099305314596700001 -0.27091015479000013
v 0.38341713929199983 0.099305314596700001 -0.27474494469699984
v -0.38341713929199983 0.099305314596700001 -0.27091015479000013
v -0.38341713929199983 0.099305314596700001 -0.27474494469699984
v -0.37958315264999953 0.095471327954880003 -0.30925162773900006
v -0.38341713929199983 0.099305314596700001 -0.27091015479000013
v -0.38648481056500028 0.10237218260399999 -0.30925162773900006
v -0.38648481056500028 0.10237218260399999 -0.27474494469699984
v -0.37958315264999953 0.095471327954880003 -0.27091015479000013
v 0.37958234938400004 0.095471327954880003 -0.27091015479000013
v -0.38341713929199983 0.099305314596700001 -0.27091015479000013
v -0.37958315264999953 0.095471327954880003 -0.27091015479000013
v 0.38341713929199983 0.099305314596700001 -0.27091015479000013
v 0.38341713929199983 0.099305314596700001 -0.27091015479000013
v 0.37958234938400004 0.095471327954880003 -0.27091015479000013
v 0.38341713929199983 0.099305314596700001 -0.27474494469699984
v 0.3864832040330004 0.10237218260399999 -0.30925162773900006
v 0.37958234938400004 0.095471327954880003 -0.30925162773900006
v 0.3864832040330004 0.10237218260399999 -0.27474494469699984
v 0.38571688866499976 0.10314010450409999 -0.30925162773900006
v 0.3864832040330004 0.10237218260399999 -0.27474494469699984
v 0.3864832040330004 0.10237218260399999 -0.30925162773900006
v 0.38571688866499976 0.10314010450409999 -0.27474494469699984
v -0.38571688866499976 0.10314010450409999 -0.30925162773900006
v 0.38571688866499976 0.10314010450409999 -0.27474494469699984
v 0.38571688866499976 0.10314010450409999 -0.30925162773900006
v -0.38571688866499976 0.10314010450409999 -0.27474494469699984
v 0.38571688866499976 0.10314010450409999 -0.30925162773900006
vt -0.7874000072479248 18.897600173950195
vt -78.740196228027344 14.960599899291992
vt -0.7874000072479248 14.960599899291992
vt -78.740196228027344 18.897600173950195
vt -0.078699998557567596 0.70870000123977661
vt -78.740196228027344 0
vt -0.7874000072479248 0
vt -79.448799133300781 0.70870000123977661
vt -0.1574999988079071 0.7874000072479248
vt -15.354299545288086 0.55680000782012939
vt -18.897600173950195 0.66809999942779541
vt -18.897600173950195 0.55680000782012939
vt -15.354299545288086 0.66809999942779541
vt 0.078699998557567596 0.70870000123977661
vt 79.370101928710938 0.7874000072479248
vt 0.1574999988079071 0.7874000072479248
vt 79.448799133300781 0.70870000123977661
vt 0.3937000036239624 0.3937000036239624
vt 79.133903503417969 0.3937000036239624
vt 0.3937000036239624 15.354299545288086
vt 79.133903503417969 14.960599899291992
vt 79.133903503417969 15.354299545288086
vt 0.3937000036239624 14.960599899291992
vt -15.354299545288086 0
vt -18.897600173950195 -0.55680000782012939
vt -14.960599899291992 0
vt -18.897600173950195 0.44539999961853027
vt -15.354299545288086 0.44539999961853027
vt -14.960599899291992 -0.55680000782012939
vt 78.740196228027344 0
vt 0.3937000036239624 0.3937000036239624
vt 0.7874000072479248 0
vt 79.133903503417969 0.3937000036239624
vt 14.960599899291992 56.234500885009766
vt 14.960599899291992 55.677700042724609
vt 15.354299545288086 56.234500885009766
vt 18.897600173950195 56.679901123046875
vt 18.897600173950195 55.677700042724609
vt 15.354299545288086 56.679901123046875
vt 18.897600173950195 -55.566299438476562
vt 15.354299545288086 -55.677700042724609
vt 18.897600173950195 -55.677700042724609
vt 15.354299545288086 -55.566299438476562
vt 0.1574999988079071 18.897600173950195
vt 79.370101928710938 15.354299545288086
vt 79.370101928710938 18.897600173950195
vt 0.1574999988079071 15.354299545288086
vt -79.370101928710938 0.7874000072479248
vn 0 -1 0
vn 0 -1 0
vn 0 -1 0
vn 0 -1 0
vn 0 0 -1
vn 0 0 -1
vn 0 0 -1
vn 0 0 -1
vn 0 0 -1
vn -0.70710676908493042 0.70710676908493042 0
vn -0.70710676908493042 0.70710676908493042 0
vn -0.70710676908493042 0.70710676908493042 0
vn -0.70710676908493042 0.70710676908493042 0
vn 0 0 1
vn 0 0 1
vn 0 0 1
vn 0 0 1
vn 0 0 1
vn 0 0 1
vn 0 1 0
vn 0 1 0
vn 0 1 0
vn 0 1 0
vn -0.70710676908493042 -0.70710676908493042 0
vn -0.70710676908493042 -0.70710676908493042 0
vn -0.70710676908493042 -0.70710676908493042 0
vn -0.70710676908493042 -0.70710676908493042 0
vn -0.70710676908493042 -0.70710676908493042 0
vn -0.70710676908493042 -0.70710676908493042 0
vn 0 0 1
vn 0 0 1
vn 0 0 1
vn 0 0 1
vn 0.70703274011611938 -0.70718085765838623 0
vn 0.70703274011611938 -0.70718085765838623 0
vn 0.70703274011611938 -0.70718085765838623 0
vn 0.70703274011611938 -0.70718085765838623 0
vn 0.70703274011611938 -0.70718085765838623 0
vn 0.70703274011611938 -0.70718085765838623 0
vn 0.70784682035446167 0.70636594295501709 0
vn 0.70784682035446167 0.70636594295501709 0
vn 0.70784682035446167 0.70636594295501709 0
vn 0.70784682035446167 0.70636594295501709 0
vn 0 1 0
vn 0 1 0
vn 0 1 0
vn 0 1 0
vn 0 0 -1
f 1/1/1 2/2/2 3/3/3
f 2/2/2 1/1/1 4/4/4
f 5/5/5 6/6/6 7/7/7
f 6/6/6 5/5/5 8/8/8
f 8/8/8 5/5/5 9/9/9
f 10/10/10 11/11/11 12/12/12
f 11/11/11 10/10/10 13/13/13
f 14/14/14 15/15/15 16/16/16
f 14/14/14 17/17/17 15/15/15
f 18/18/18 17/17/17 14/14/14
f 17/17/17 18/18/18 19/19/19
f 20/20/20 21/21/21 22/22/22
f 21/21/21 20/20/20 23/23/23
f 24/24/24 25/25/25 26/26/26
f 24/24/24 27/27/27 25/25/25
f 27/27/27 24/24/24 28/28/28
f 26/26/26 25/25/25 29/29/29
f 30/30/30 31/31/31 32/32/32
f 31/31/31 30/30/30 33/33/33
f 34/34/34 35/35/35 36/36/36
f 35/35/35 37/37/37 36/36/36
f 37/37/37 35/35/35 38/38/38
f 36/36/36 37/37/37 39/39/39
f 40/40/40 41/41/41 42/42/42
f 41/41/41 40/40/40 43/43/43
f 44/44/44 45/45/45 46/46/46
f 45/45/45 44/44/44 47/47/47
f 8/8/8 9/9/9 48/48/48
