# Rhino

mtllib BedSet_11_11.mtl
usemtl Default
v 0.32043328960000039 0.10333100173899999 0.258789389142
v 0.32043328960000039 0.11048801697199999 0.272421799109
v 0.32043328960000039 0.10333100173899999 0.25197318415699999
v 0.32043328960000039 0.10333100173899999 0.272421799109
v 0.32043328960000039 0.10333100173899999 0.258789389142
v 0.34088190455199996 0.10333100173899999 0.272421799109
v 0.32043328960000039 0.10333100173899999 0.272421799109
v 0.32043328960000039 0.10333100173899999 0.25197318415699999
v 0.32043328960000039 0.10333100173899999 0.020222896323800033
v 0.32043328960000039 0.10333100173899999 0.013406691339900023
v 0.34088190455199996 0.10333100173899999 -0.00022571862804299236
v 0.32043328960000039 0.10333100173899999 -0.00022571862804299236
v 0.32043328960000039 0.10333100173899999 0.013406691339900023
v 0.32043328960000039 0.10333100173899999 -0.00022571862804299236
v 0.32043328960000039 0.10333100173899999 0.020222896323800033
v 0.32043328960000039 0.11048801697199999 -0.00022571862804299236
v 0.32043328960000039 0.11048801697199999 0.272421799109
v 0.34088190455199996 0.11048801697199999 -0.00022571862804299236
v 0.32043328960000039 0.11048801697199999 -0.00022571862804299236
v 0.34088190455199996 0.11048801697199999 0.272421799109
v 0.34088190455199996 0.10333100173899999 0.272421799109
v 0.34088190455199996 0.11048801697199999 -0.00022571862804299236
v 0.34088190455199996 0.11048801697199999 0.272421799109
v 0.34088190455199996 0.10333100173899999 -0.00022571862804299236
v 0.32043328960000039 0.10333100173899999 -0.00022571862804299236
v 0.34088190455199996 0.11048801697199999 -0.00022571862804299236
v 0.34088190455199996 0.10333100173899999 -0.00022571862804299236
v 0.32043328960000039 0.11048801697199999 -0.00022571862804299236
vt 0.63558602333068848 0.62899601459503174
vt 0.66183298826217651 0.65655601024627686
vt 0.62246298789978027 0.62899601459503174
vt 0.66183298826217651 0.62899601459503174
vt -0.63558602333068848 2.1907799243927002
vt -0.66183298826217651 2.2695200443267822
vt -0.66183298826217651 2.1907799243927002
vt -0.62246298789978027 2.1907799243927002
vt -0.17626799643039703 2.1907799243927002
vt -0.16314500570297241 2.1907799243927002
vt -0.13689799606800079 2.2695200443267822
vt -0.13689799606800079 2.1907799243927002
vt 0.16314500570297241 0.62899601459503174
vt 0.13689799606800079 0.62899601459503174
vt 0.17626799643039703 0.62899601459503174
vt 0.13689799606800079 0.65655601024627686
vt 0.66183298826217651 2.1907799243927002
vt 0.13689799606800079 2.2695200443267822
vt 0.13689799606800079 2.1907799243927002
vt 0.66183298826217651 2.2695200443267822
vt -0.66183298826217651 0.62899601459503174
vt -0.13689799606800079 0.65655601024627686
vt -0.66183298826217651 0.65655601024627686
vt -0.13689799606800079 0.62899601459503174
vt -1.0953899621963501 0.62899601459503174
vt -1.1347600221633911 0.65655601024627686
vt -1.1347600221633911 0.62899601459503174
vt -1.0953899621963501 0.65655601024627686
vn -1 0 0
vn -1 0 0
vn -1 0 0
vn -1 0 0
vn 0 -1 0
vn 0 -1 0
vn 0 -1 0
vn 0 -1 0
vn 0 -1 0
vn 0 -1 0
vn 0 -1 0
vn 0 -1 0
vn -1 0 0
vn -1 0 0
vn -1 0 0
vn -1 0 0
vn 0 1 0
vn 0 1 0
vn 0 1 0
vn 0 1 0
vn 1 0 0
vn 1 0 0
vn 1 0 0
vn 1 0 0
vn 0 0 -1
vn 0 0 -1
vn 0 0 -1
vn 0 0 -1
f 1/1/1 2/2/2 3/3/3
f 2/2/2 1/1/1 4/4/4
f 5/5/5 6/6/6 7/7/7
f 8/8/8 6/6/6 5/5/5
f 9/9/9 6/6/6 8/8/8
f 10/10/10 6/6/6 9/9/9
f 10/10/10 11/11/11 6/6/6
f 11/11/11 10/10/10 12/12/12
f 13/13/13 2/2/2 14/14/14
f 15/15/15 2/2/2 13/13/13
f 3/3/3 2/2/2 15/15/15
f 14/14/14 2/2/2 16/16/16
f 17/17/17 18/18/18 19/19/19
f 18/18/18 17/17/17 20/20/20
f 21/21/21 22/22/22 23/23/23
f 22/22/22 21/21/21 24/24/24
f 25/25/25 26/26/26 27/27/27
f 26/26/26 25/25/25 28/28/28
