# Rhino

mtllib BedSet_05_02.mtl
usemtl Default
v 0.35787894050699998 0.082725785242999991 0.29853218152899963
v 0.35787894050699998 0.29133863498599999 0.30033056816400006
v 0.35787894050699998 0.1186935179572 0.29853218152899963
v 0.35787894050699998 0 0.30033056816400006
v 0.35787894050699998 0 0.2895402483500007
v 0.35787894050699998 0.035967732714 0.28594347507799966
v 0.35787894050699998 0.082725785242999991 0.29133863498599943
v 0.35787894050699998 0.097112878328699997 0.28594347507799966
v 0.35787894050699998 0.097112878328699997 0.29133863498599943
v 0.35787894050699998 0.1186935179572 0.29133863498599943
v 0.35787894050699998 0.29133863498599999 0.28594347507799966
v 0.35787894050699998 0.10430642487149999 0.28594347507799966
v 0.35787894050699998 0.10430642487149999 0.29133863498599943
v 0.37046764695799994 0.1186935179572 0.28594347507799966
v 0.37226603359299992 0.29133863498599999 0.28594347507799966
v 0.37046764695799994 0.082725785242999991 0.28594347507799966
v 0.37046764695799994 0.27335476862899999 0.28594347507799966
v 0.37046764695799994 0.28774186171499999 0.28594347507799966
v 0.35967732714300005 0.28774186171499999 0.28594347507799966
v 0.35787894050699998 0.29133863498599999 0.28594347507799966
v 0.35787894050699998 0.10430642487149999 0.28594347507799966
v 0.35787894050699998 0.097112878328699997 0.28594347507799966
v 0.35787894050699998 0.035967732714 0.28594347507799966
v 0.35967732714300005 0.27335476862899999 0.28594347507799966
v 0.36327410041499997 0.082725785242999991 0.28594347507799966
v 0.37226603359299992 0.035967732714 0.28594347507799966
v 0.37226603359299992 0.29133863498599999 0.30033056816400006
v 0.37226603359299992 0.035967732714 0.28594347507799966
v 0.37226603359299992 0.29133863498599999 0.28594347507799966
v 0.37226603359299992 0 0.30033056816400006
v 0.37226603359299992 0 0.2895402483500007
v 0.37226603359299992 0 0.30033056816400006
v 0.35787894050699998 0 0.2895402483500007
v 0.37226603359299992 0 0.2895402483500007
v 0.35787894050699998 0 0.30033056816400006
v 0.37226603359299992 0 0.30033056816400006
v 0.35787894050699998 0.29133863498599999 0.30033056816400006
v 0.35787894050699998 0 0.30033056816400006
v 0.37226603359299992 0.29133863498599999 0.30033056816400006
v 0.37226603359299992 0.29133863498599999 0.28594347507799966
v 0.35787894050699998 0.29133863498599999 0.30033056816400006
v 0.37226603359299992 0.29133863498599999 0.30033056816400006
v 0.35787894050699998 0.29133863498599999 0.28594347507799966
v 0.35787894050699998 0 0.2895402483500007
v 0.37226603359299992 0.035967732714 0.28594347507799966
v 0.37226603359299992 0 0.2895402483500007
v 0.35787894050699998 0.035967732714 0.28594347507799966
v 0.36327410041499997 0.1186935179572 0.28594347507799966
v 0.35787894050699998 0.082725785242999991 0.29853218152899963
v 0.35787894050699998 0.1186935179572 0.29853218152899963
v 0.35787894050699998 0.10070965160009999 0.29493540825749953
v 0.35787894050699998 0.082725785242999991 0.29133863498599943
v 0.35787894050699998 0.097112878328699997 0.29133863498599943
v 0.35787894050699998 0.10430642487149999 0.29133863498599943
v 0.35787894050699998 0.1186935179572 0.29133863498599943
v 0.36327410041499997 0.082725785242999991 0.28594347507799966
v 0.36327410041499997 0.1186935179572 0.28594347507799966
v 0.36687087368650007 0.10070965160009999 0.28594347507799966
v 0.37046764695799994 0.082725785242999991 0.28594347507799966
v 0.37046764695799994 0.1186935179572 0.28594347507799966
v 0.35967732714300005 0.27335476862899999 0.28594347507799966
v 0.35967732714300005 0.28774186171499999 0.28594347507799966
v 0.36507248705049999 0.28054831517199996 0.28594347507799966
v 0.37046764695799994 0.27335476862899999 0.28594347507799966
v 0.37046764695799994 0.28774186171499999 0.28594347507799966
vt 65.551200866699219 9.0551204681396484
vt 65.748001098632812 31.889799118041992
vt 65.551200866699219 12.992099761962891
vt 65.748001098632812 0
vt 64.566902160644531 0
vt 64.173202514648438 3.9370100498199463
vt 64.763801574707031 9.0551204681396484
vt 64.173202514648438 10.629899978637695
vt 64.763801574707031 10.629899978637695
vt 64.763801574707031 12.992099761962891
vt 64.173202514648438 31.889799118041992
vt 64.173202514648438 11.417300224304199
vt 64.763801574707031 11.417300224304199
vt -81.299201965332031 12.992099761962891
vt -81.496101379394531 31.889799118041992
vt -81.299201965332031 9.0551204681396484
vt -81.299201965332031 29.921300888061523
vt -81.299201965332031 31.496099472045898
vt -80.11810302734375 31.496099472045898
vt -79.921302795410156 31.889799118041992
vt -79.921302795410156 11.417300224304199
vt -79.921302795410156 10.629899978637695
vt -79.921302795410156 3.9370100498199463
vt -80.11810302734375 29.921300888061523
vt -80.511802673339844 9.0551204681396484
vt -81.496101379394531 3.9370100498199463
vt -65.748001098632812 31.889799118041992
vt -64.173202514648438 3.9370100498199463
vt -64.173202514648438 31.889799118041992
vt -65.748001098632812 0
vt -64.566902160644531 0
vt -65.748001098632812 81.496101379394531
vt -64.566902160644531 79.921302795410156
vt -64.566902160644531 81.496101379394531
vt -65.748001098632812 79.921302795410156
vt 81.496101379394531 0
vt 79.921302795410156 31.889799118041992
vt 79.921302795410156 0
vt 81.496101379394531 31.889799118041992
vt 64.173202514648438 81.496101379394531
vt 65.748001098632812 79.921302795410156
vt 65.748001098632812 81.496101379394531
vt 64.173202514648438 79.921302795410156
vt -79.921302795410156 -6.4246501922607422
vt -81.496101379394531 -2.4680099487304688
vt -81.496101379394531 -6.4246501922607422
vt -79.921302795410156 -2.4680099487304688
vt -80.511802673339844 12.992099761962891
vt 0 0
vt 1 0
vt 0.5 0.5
vt 0 1
vt 0.40000000596046448 1
vt 0.60000002384185791 1
vt 1 1
vt 0 1
vt 0 0
vt 0.5 0.5
vt 1 1
vt 1 0
vt 0 0
vt 0 1
vt 0.5 0.5
vt 1 0
vt 1 1
vn -1 0 0
vn -1 0 0
vn -1 0 0
vn -1 0 0
vn -1 0 0
vn -1 0 0
vn -1 0 0
vn -1 0 0
vn -1 0 0
vn -1 0 0
vn -1 0 0
vn -1 0 0
vn -1 0 0
vn 0 0 -1
vn 0 0 -1
vn 0 0 -1
vn 0 0 -1
vn 0 0 -1
vn 0 0 -1
vn 0 0 -1
vn 0 0 -1
vn 0 0 -1
vn 0 0 -1
vn 0 0 -1
vn 0 0 -1
vn 0 0 -1
vn 1 0 0
vn 1 0 0
vn 1 0 0
vn 1 0 0
vn 1 0 0
vn 0 -1 0
vn 0 -1 0
vn 0 -1 0
vn 0 -1 0
vn 0 0 1
vn 0 0 1
vn 0 0 1
vn 0 0 1
vn 0 1 0
vn 0 1 0
vn 0 1 0
vn 0 1 0
vn 0 -0.099503718316555023 -0.99503719806671143
vn 0 -0.099503718316555023 -0.99503719806671143
vn 0 -0.099503718316555023 -0.99503719806671143
vn 0 -0.099503718316555023 -0.99503719806671143
vn 0 0 -1
vn -1 0 0
vn -1 0 0
vn -1 0 0
vn -1 0 0
vn -1 0 0
vn -1 0 0
vn -1 0 0
vn 0 0 -1
vn 0 0 -1
vn 0 0 -1
vn 0 0 -1
vn 0 0 -1
vn 0 0 -1
vn 0 0 -1
vn 0 0 -1
vn 0 0 -1
vn 0 0 -1
f 1/1/1 2/2/2 3/3/3
f 1/1/1 4/4/4 2/2/2
f 4/4/4 1/1/1 5/5/5
f 5/5/5 1/1/1 6/6/6
f 7/7/7 6/6/6 1/1/1
f 6/6/6 7/7/7 8/8/8
f 8/8/8 7/7/7 9/9/9
f 3/3/3 2/2/2 10/10/10
f 11/11/11 10/10/10 2/2/2
f 12/12/12 10/10/10 11/11/11
f 10/10/10 12/12/12 13/13/13
f 8/8/8 13/13/13 12/12/12
f 13/13/13 8/8/8 9/9/9
f 14/14/14 15/15/15 16/16/16
f 17/17/17 15/15/15 14/14/14
f 18/18/18 15/15/15 17/17/17
f 19/19/19 15/15/15 18/18/18
f 19/19/19 20/20/20 15/15/15
f 20/20/20 19/19/19 21/21/21
f 21/21/21 19/19/19 22/22/22
f 22/22/22 19/19/19 23/23/23
f 24/24/24 23/23/23 19/19/19
f 25/25/25 23/23/23 24/24/24
f 23/23/23 25/25/25 26/26/26
f 26/26/26 25/25/25 16/16/16
f 26/26/26 16/16/16 15/15/15
f 27/27/27 28/28/28 29/29/29
f 30/30/30 28/28/28 27/27/27
f 28/28/28 30/30/30 31/31/31
f 32/32/32 33/33/33 34/34/34
f 33/33/33 32/32/32 35/35/35
f 36/36/36 37/37/37 38/38/38
f 37/37/37 36/36/36 39/39/39
f 40/40/40 41/41/41 42/42/42
f 41/41/41 40/40/40 43/43/43
f 44/44/44 45/45/45 46/46/46
f 45/45/45 44/44/44 47/47/47
f 25/25/25 24/24/24 48/48/48
f 17/17/17 48/48/48 24/24/24
f 48/48/48 17/17/17 14/14/14
f 52/52/52 49/49/49 53/53/53
f 51/51/51 53/53/53 49/49/49
f 54/54/54 51/51/51 50/50/50
f 49/49/49 50/50/50 51/51/51
f 50/50/50 55/55/55 54/54/54
f 53/53/53 51/51/51 54/54/54
f 58/58/58 56/56/56 57/57/57
f 59/59/59 58/58/58 60/60/60
f 57/57/57 60/60/60 58/58/58
f 56/56/56 58/58/58 59/59/59
f 63/63/63 61/61/61 62/62/62
f 65/65/65 64/64/64 63/63/63
f 61/61/61 63/63/63 64/64/64
f 62/62/62 65/65/65 63/63/63
