# Rhino

mtllib BedSet_19_26.mtl
usemtl Default
v 0.26465060414899977 0.0013806404039999887 0.2932933938579998
v 0.26465060414899977 0.0013806404039999887 0.29033164682700008
v 0.26445642213499987 0.0013806404039999887 0.29181283455300022
v 0.26522309545999967 0.0013806404039999887 0.29467340584100032
v 0.26522309545999967 0.0013806404039999887 0.29467340584100032
v 0.26465060414899977 0.59072808050799996 0.2932933938579998
v 0.26465060414899977 0.0013806404039999887 0.2932933938579998
v 0.26522309545999967 0.59072808050799996 0.29467340584100032
v 0.26613304871700016 0.0013806404039999887 0.29585860738999958
v 0.26522309545999967 0.59072808050799996 0.29467340584100032
v 0.26522309545999967 0.0013806404039999887 0.29467340584100032
v 0.26613304871700016 0.59072808050799996 0.29585860738999958
v 0.26613304871700016 0.0013806404039999887 0.29585860738999958
v 0.26731699342400006 0.59072808050799996 0.2967679322260004
v 0.26613304871700016 0.59072808050799996 0.29585860738999958
v 0.26731699342400006 0.0013806404039999887 0.2967679322260004
v 0.26613304871700016 0.0013806404039999887 0.28776643329500029
v 0.26613304871700016 0.0013806404039999887 0.29585860738999958
v 0.26731699342400006 0.0013806404039999887 0.2967679322260004
v 0.26522309545999967 0.0013806404039999887 0.28895163484400044
v 0.26465060414899977 0.0013806404039999887 0.29033164682700008
v 0.26522309545999967 0.59072808050799996 0.28895163484400044
v 0.26522309545999967 0.0013806404039999887 0.28895163484400044
v 0.26465060414899977 0.59072808050799996 0.29033164682700008
v 0.26445642213499987 0.0013806404039999887 0.29181283455300022
v 0.26465060414899977 0.59072808050799996 0.29033164682700008
v 0.26465060414899977 0.0013806404039999887 0.29033164682700008
v 0.26445642213499987 0.59072808050799996 0.29181283455300022
v 0.26465060414899977 0.0013806404039999887 0.2932933938579998
v 0.26445642213499987 0.59072808050799996 0.29181283455300022
v 0.26445642213499987 0.0013806404039999887 0.29181283455300022
v 0.26465060414899977 0.59072808050799996 0.2932933938579998
v 0.26465060414899977 0.59072808050799996 0.2932933938579998
v 0.26465060414899977 0.59072808050799996 0.29033164682700008
v 0.26445642213499987 0.59072808050799996 0.29181283455300022
v 0.26522309545999967 0.59072808050799996 0.29467340584100032
v 0.26522309545999967 0.59072808050799996 0.28895163484400044
v 0.26613304871700016 0.59072808050799996 0.29585860738999958
v 0.26613304871700016 0.59072808050799996 0.28776643329500029
v 0.26731699342400006 0.59072808050799996 0.2967679322260004
v 0.26731699342400006 0.59072808050799996 0.28685773688000005
v 0.26869637698600002 0.59072808050799996 0.29733979511499964
v 0.26731699342400006 0.0013806404039999887 0.2967679322260004
v 0.26869637698600002 0.59072808050799996 0.29733979511499964
v 0.26731699342400006 0.59072808050799996 0.2967679322260004
v 0.26869637698600002 0.0013806404039999887 0.29733916669500005
v 0.26731699342400006 0.0013806404039999887 0.28685710845900037
v 0.26869637698600002 0.0013806404039999887 0.29733916669500005
v 0.26613304871700016 0.59072808050799996 0.28776643329500029
v 0.26731699342400006 0.0013806404039999887 0.28685710845900037
v 0.26613304871700016 0.0013806404039999887 0.28776643329500029
v 0.26731699342400006 0.59072808050799996 0.28685773688000005
v 0.26731699342400006 0.59072808050799996 0.28685773688000005
v 0.26869637698600002 0.0013806404039999887 0.28628587398999983
v 0.26731699342400006 0.0013806404039999887 0.28685710845900037
v 0.26869637698600002 0.59072808050799996 0.28628587398999983
v 0.26869637698600002 0.59072808050799996 0.28628587398999983
v 0.27017819313299984 0.59072808050799996 0.29753460555000011
v 0.26869637698600002 0.0013806404039999887 0.29733916669500005
v 0.27017819313299984 0.59072808050799996 0.29753460555000011
v 0.26869637698600002 0.59072808050799996 0.29733979511499964
v 0.27017819313299984 0.0013806404039999887 0.29753460555000011
v 0.26869637698600002 0.0013806404039999887 0.28628587398999983
v 0.27017819313299984 0.0013806404039999887 0.29753460555000011
v 0.27017819313299984 0.0013806404039999887 0.28609043513399968
v 0.27166000927899958 0.0013806404039999887 0.29733916669500005
v 0.27166000927899958 0.59072808050799996 0.29733979511499964
v 0.27166000927899958 0.0013806404039999887 0.29733916669500005
v 0.27017819313299984 0.59072808050799996 0.28609106355500025
v 0.27166000927899958 0.59072808050799996 0.29733979511499964
v 0.27017819313299984 0.0013806404039999887 0.28609043513399968
v 0.26869637698600002 0.59072808050799996 0.28628587398999983
v 0.27017819313299984 0.59072808050799996 0.28609106355500025
v 0.26869637698600002 0.0013806404039999887 0.28628587398999983
v 0.27017819313299984 0.59072808050799996 0.28609106355500025
v 0.27166000927899958 0.0013806404039999887 0.28628587398999983
v 0.27017819313299984 0.0013806404039999887 0.28609043513399968
v 0.27166000927899958 0.59072808050799996 0.28628587398999983
v 0.27166000927899958 0.59072808050799996 0.28628587398999983
v 0.27303876442099995 0.59072808050799996 0.2967679322260004
v 0.27166000927899958 0.0013806404039999887 0.29733916669500005
v 0.27303876442099995 0.59072808050799996 0.2967679322260004
v 0.27166000927899958 0.59072808050799996 0.29733979511499964
v 0.27303876442099995 0.0013806404039999887 0.2967679322260004
v 0.27166000927899958 0.0013806404039999887 0.28628587398999983
v 0.27303876442099995 0.0013806404039999887 0.2967679322260004
v 0.27303876442099995 0.0013806404039999887 0.28685710845900037
v 0.27422333754900041 0.0013806404039999887 0.29585860738999958
v 0.27422333754900041 0.59072808050799996 0.29585860738999958
v 0.27303876442099995 0.0013806404039999887 0.2967679322260004
v 0.27422333754900041 0.0013806404039999887 0.29585860738999958
v 0.27303876442099995 0.59072808050799996 0.2967679322260004
v 0.27303876442099995 0.59072808050799996 0.28685773688000005
v 0.27422333754900041 0.59072808050799996 0.29585860738999958
v 0.27303876442099995 0.0013806404039999887 0.28685710845900037
v 0.27166000927899958 0.59072808050799996 0.28628587398999983
v 0.27303876442099995 0.59072808050799996 0.28685773688000005
v 0.27166000927899958 0.0013806404039999887 0.28628587398999983
v 0.27303876442099995 0.59072808050799996 0.28685773688000005
v 0.27422333754900041 0.0013806404039999887 0.28776643329500029
v 0.27303876442099995 0.0013806404039999887 0.28685710845900037
v 0.27422333754900041 0.59072808050799996 0.28776643329500029
v 0.27422333754900041 0.59072808050799996 0.28776643329500029
v 0.27513329080600002 0.59072808050799996 0.29467340584100032
v 0.27422333754900041 0.59072808050799996 0.29585860738999958
v 0.27513329080600002 0.0013806404039999887 0.29467340584100032
v 0.27513329080600002 0.59072808050799996 0.29467340584100032
v 0.27422333754900041 0.0013806404039999887 0.29585860738999958
v 0.27422333754900041 0.0013806404039999887 0.28776643329500029
v 0.27513329080600002 0.0013806404039999887 0.29467340584100032
v 0.27513329080600002 0.0013806404039999887 0.28895163484400044
v 0.27570515369500015 0.0013806404039999887 0.2932933938579998
v 0.27570515369500015 0.0013806404039999887 0.2932933938579998
v 0.27513329080600002 0.59072808050799996 0.29467340584100032
v 0.27513329080600002 0.0013806404039999887 0.29467340584100032
v 0.27570515369500015 0.59072808050799996 0.2932933938579998
v 0.27589996412999973 0.0013806404039999887 0.29181283455300022
v 0.27570515369500015 0.59072808050799996 0.2932933938579998
v 0.27570515369500015 0.0013806404039999887 0.2932933938579998
v 0.27589996412999973 0.59072808050799996 0.29181283455300022
v 0.27570515369500015 0.0013806404039999887 0.29033164682700008
v 0.27589996412999973 0.59072808050799996 0.29181283455300022
v 0.27589996412999973 0.0013806404039999887 0.29181283455300022
v 0.27570515369500015 0.59072808050799996 0.29033164682700008
v 0.27513329080600002 0.0013806404039999887 0.28895163484400044
v 0.27570515369500015 0.59072808050799996 0.29033164682700008
v 0.27570515369500015 0.0013806404039999887 0.29033164682700008
v 0.27513329080600002 0.59072808050799996 0.28895163484400044
v 0.27422333754900041 0.0013806404039999887 0.28776643329500029
v 0.27513329080600002 0.59072808050799996 0.28895163484400044
v 0.27513329080600002 0.0013806404039999887 0.28895163484400044
v 0.27422333754900041 0.59072808050799996 0.28776643329500029
v 0.27513329080600002 0.59072808050799996 0.28895163484400044
v 0.27570515369500015 0.59072808050799996 0.2932933938579998
v 0.27570515369500015 0.59072808050799996 0.29033164682700008
v 0.27589996412999973 0.59072808050799996 0.29181283455300022
v 0.27570515369500015 0.0013806404039999887 0.29033164682700008
v 0.27589996412999973 0.0013806404039999887 0.29181283455300022
v 0.26522309545999967 0.0013806404039999887 0.28895163484400044
v 0.26613304871700016 0.59072808050799996 0.28776643329500029
v 0.26613304871700016 0.0013806404039999887 0.28776643329500029
v 0.26522309545999967 0.59072808050799996 0.28895163484400044
vt 74.387397766113281 0.58359998464584351
vt 74.387397766113281 0.99119997024536133
vt 74.360603332519531 0.7874000072479248
vt 74.46600341796875 0.3937000036239624
vt 28.133199691772461 0.18999999761581421
vt 27.927600860595703 81.292396545410156
vt 27.927600860595703 0.18999999761581421
vt 28.133199691772461 81.292396545410156
vt 45.225299835205078 0.18999999761581421
vt 45.019699096679688 81.292396545410156
vt 45.019699096679688 0.18999999761581421
vt 45.225299835205078 81.292396545410156
vt 59.036800384521484 0.18999999761581421
vt 59.242298126220703 81.292396545410156
vt 59.036800384521484 81.292396545410156
vt 59.242298126220703 0.18999999761581421
vt 74.591201782226562 1.3442000150680542
vt 74.591201782226562 0.23059999942779541
vt 74.754302978515625 0.1054999977350235
vt 74.46600341796875 1.1811000108718872
vt -29.382600784301758 0.18999999761581421
vt -29.588100433349609 81.292396545410156
vt -29.588100433349609 0.18999999761581421
vt -29.382600784301758 81.292396545410156
vt -10.486700057983398 0.18999999761581421
vt -10.69219970703125 81.292396545410156
vt -10.69219970703125 0.18999999761581421
vt -10.486700057983398 81.292396545410156
vt 9.1309003829956055 0.18999999761581421
vt 8.9252996444702148 81.292396545410156
vt 8.9252996444702148 0.18999999761581421
vt 9.1309003829956055 81.292396545410156
vt 74.387397766113281 0.58359998464584351
vt 74.387397766113281 0.99119997024536133
vt 74.360603332519531 0.7874000072479248
vt 74.46600341796875 0.3937000036239624
vt 74.46600341796875 1.1811000108718872
vt 74.591201782226562 0.23059999942779541
vt 74.591201782226562 1.3442000150680542
vt 74.754302978515625 0.1054999977350235
vt 74.754302978515625 1.4693000316619873
vt 74.944198608398438 0.026799999177455902
vt 69.023597717285156 0.18999999761581421
vt 69.229103088378906 81.292396545410156
vt 69.023597717285156 81.292396545410156
vt 69.229103088378906 0.18999999761581421
vt 74.754302978515625 1.4693000316619873
vt 74.944198608398438 0.026799999177455902
vt -59.995399475097656 81.292396545410156
vt -60.201000213623047 0.18999999761581421
vt -59.995399475097656 0.18999999761581421
vt -60.201000213623047 81.292396545410156
vt -69.626197814941406 81.292396545410156
vt -69.831802368164062 0.18999999761581421
vt -69.626197814941406 0.18999999761581421
vt -69.831802368164062 81.292396545410156
vt 74.944198608398438 1.5479999780654907
vt 75.148002624511719 0
vt 74.29949951171875 0.18999999761581421
vt 74.505096435546875 81.292396545410156
vt 74.29949951171875 81.292396545410156
vt 74.505096435546875 0.18999999761581421
vt 74.944198608398438 1.5479999780654907
vt 75.148002624511719 0
vt 75.148002624511719 1.5748000144958496
vt 75.351699829101562 0.026799999177455902
vt 74.710601806640625 81.292396545410156
vt 74.710601806640625 0.18999999761581421
vt 75.148002624511719 1.5748000144958496
vt 75.351699829101562 0.026799999177455902
vt -74.710601806640625 0.18999999761581421
vt -74.505096435546875 81.292396545410156
vt -74.710601806640625 81.292396545410156
vt -74.505096435546875 0.18999999761581421
vt -74.29949951171875 81.292396545410156
vt -74.505096435546875 0.18999999761581421
vt -74.29949951171875 0.18999999761581421
vt -74.505096435546875 81.292396545410156
vt 75.351699829101562 1.5479999780654907
vt 75.541702270507812 0.1054999977350235
vt 69.626197814941406 0.18999999761581421
vt 69.831802368164062 81.292396545410156
vt 69.626197814941406 81.292396545410156
vt 69.831802368164062 0.18999999761581421
vt 75.351699829101562 1.5479999780654907
vt 75.541702270507812 0.1054999977350235
vt 75.541702270507812 1.4693000316619873
vt 75.704696655273438 0.23059999942779541
vt 60.201000213623047 81.292396545410156
vt 59.995399475097656 0.18999999761581421
vt 60.201000213623047 0.18999999761581421
vt 59.995399475097656 81.292396545410156
vt 75.541702270507812 1.4693000316619873
vt 75.704696655273438 0.23059999942779541
vt -69.229103088378906 0.18999999761581421
vt -69.023597717285156 81.292396545410156
vt -69.229103088378906 81.292396545410156
vt -69.023597717285156 0.18999999761581421
vt -59.036800384521484 81.292396545410156
vt -59.242298126220703 0.18999999761581421
vt -59.036800384521484 0.18999999761581421
vt -59.242298126220703 81.292396545410156
vt 75.704696655273438 1.3442000150680542
vt 75.829902648925781 0.3937000036239624
vt 46.269100189208984 81.292396545410156
vt 46.474601745605469 0.18999999761581421
vt 46.474601745605469 81.292396545410156
vt 46.269100189208984 0.18999999761581421
vt 75.704696655273438 1.3442000150680542
vt 75.829902648925781 0.3937000036239624
vt 75.829902648925781 1.1811000108718872
vt 75.908500671386719 0.58359998464584351
vt 29.588100433349609 0.18999999761581421
vt 29.382600784301758 81.292396545410156
vt 29.382600784301758 0.18999999761581421
vt 29.588100433349609 81.292396545410156
vt 10.69219970703125 0.18999999761581421
vt 10.486700057983398 81.292396545410156
vt 10.486700057983398 0.18999999761581421
vt 10.69219970703125 81.292396545410156
vt -8.9252996444702148 0.18999999761581421
vt -9.1309003829956055 81.292396545410156
vt -9.1309003829956055 0.18999999761581421
vt -8.9252996444702148 81.292396545410156
vt -27.927600860595703 0.18999999761581421
vt -28.133199691772461 81.292396545410156
vt -28.133199691772461 0.18999999761581421
vt -27.927600860595703 81.292396545410156
vt -45.019699096679688 0.18999999761581421
vt -45.225299835205078 81.292396545410156
vt -45.225299835205078 0.18999999761581421
vt -45.019699096679688 81.292396545410156
vt 75.829902648925781 1.1811000108718872
vt 75.908500671386719 0.58359998464584351
vt 75.908500671386719 0.99119997024536133
vt 75.935401916503906 0.7874000072479248
vt 75.908500671386719 0.99119997024536133
vt 75.935401916503906 0.7874000072479248
vt -46.269100189208984 0.18999999761581421
vt -46.474601745605469 81.292396545410156
vt -46.474601745605469 0.18999999761581421
vt -46.269100189208984 81.292396545410156
vn 0 1 0
vn 0 1 0
vn 0 1 0
vn 0 1 0
vn -0.92367315292358398 0 0.38318133354187012
vn -0.92367315292358398 0 0.38318133354187012
vn -0.92367315292358398 0 0.38318133354187012
vn -0.92367315292358398 0 0.38318133354187012
vn -0.7931864857673645 0 0.60897880792617798
vn -0.7931864857673645 0 0.60897880792617798
vn -0.7931864857673645 0 0.60897880792617798
vn -0.7931864857673645 0 0.60897880792617798
vn -0.60912060737609863 0 0.79307758808135986
vn -0.60912060737609863 0 0.79307758808135986
vn -0.60912060737609863 0 0.79307758808135986
vn -0.60912060737609863 0 0.79307758808135986
vn 0 1 0
vn 0 1 0
vn 0 1 0
vn 0 1 0
vn -0.92367315292358398 0 -0.38318133354187012
vn -0.92367315292358398 0 -0.38318133354187012
vn -0.92367315292358398 0 -0.38318133354187012
vn -0.92367315292358398 0 -0.38318133354187012
vn -0.99151575565338135 0 -0.12998658418655396
vn -0.99151575565338135 0 -0.12998658418655396
vn -0.99151575565338135 0 -0.12998658418655396
vn -0.99151575565338135 0 -0.12998658418655396
vn -0.99150866270065308 0 0.13004082441329956
vn -0.99150866270065308 0 0.13004082441329956
vn -0.99150866270065308 0 0.13004082441329956
vn -0.99150866270065308 0 0.13004082441329956
vn 0 1 0
vn 0 1 0
vn 0 1 0
vn 0 1 0
vn 0 1 0
vn 0 1 0
vn 0 1 0
vn 0 1 0
vn 0 1 0
vn 0 1 0
vn -0.38297122716903687 0 0.92376029491424561
vn -0.38297122716903687 0 0.92376029491424561
vn -0.38297122716903687 0 0.92376029491424561
vn -0.38297122716903687 0 0.92376029491424561
vn 0 1 0
vn 0 1 0
vn -0.60912060737609863 0 -0.79307758808135986
vn -0.60912060737609863 0 -0.79307758808135986
vn -0.60912060737609863 0 -0.79307758808135986
vn -0.60912060737609863 0 -0.79307758808135986
vn -0.38261201977729797 9.8516397883940954E-07 -0.92390912771224976
vn -0.38261201977729797 9.8516397883940954E-07 -0.92390912771224976
vn -0.38261201977729797 9.8516397883940954E-07 -0.92390912771224976
vn -0.38261201977729797 9.8516397883940954E-07 -0.92390912771224976
vn 0 1 0
vn 0 1 0
vn -0.13034574687480927 -1.0572009614406852E-06 0.99146860837936401
vn -0.13034574687480927 -1.0572009614406852E-06 0.99146860837936401
vn -0.13034574687480927 -1.0572009614406852E-06 0.99146860837936401
vn -0.13034574687480927 -1.0572009614406852E-06 0.99146860837936401
vn 0 1 0
vn 0 1 0
vn 0 1 0
vn 0 1 0
vn -0.13034574687480927 -1.0572009614406852E-06 0.99146860837936401
vn -0.13034574687480927 -1.0572009614406852E-06 0.99146860837936401
vn 0 1 0
vn 0 1 0
vn -0.13034574687480927 1.057202666743251E-06 -0.99146860837936401
vn -0.13034574687480927 1.057202666743251E-06 -0.99146860837936401
vn -0.13034574687480927 1.057202666743251E-06 -0.99146860837936401
vn -0.13034574687480927 1.057202666743251E-06 -0.99146860837936401
vn 0.13075903058052063 1.057144686456013E-06 -0.99141418933868408
vn 0.13075903058052063 1.057144686456013E-06 -0.99141418933868408
vn 0.13075903058052063 1.057144686456013E-06 -0.99141418933868408
vn 0.13075903058052063 1.057144686456013E-06 -0.99141418933868408
vn 0 1 0
vn 0 1 0
vn 0.38312017917633057 -9.8493785571918124E-07 0.92369848489761353
vn 0.38312017917633057 -9.8493785571918124E-07 0.92369848489761353
vn 0.38312017917633057 -9.8493785571918124E-07 0.92369848489761353
vn 0.38312017917633057 -9.8493785571918124E-07 0.92369848489761353
vn 0 1 0
vn 0 1 0
vn 0 1 0
vn 0 1 0
vn 0.60891729593276978 0 0.79323369264602661
vn 0.60891729593276978 0 0.79323369264602661
vn 0.60891729593276978 0 0.79323369264602661
vn 0.60891729593276978 0 0.79323369264602661
vn 0 1 0
vn 0 1 0
vn 0.38312017917633057 9.8493944733490935E-07 -0.92369848489761353
vn 0.38312017917633057 9.8493944733490935E-07 -0.92369848489761353
vn 0.38312017917633057 9.8493944733490935E-07 -0.92369848489761353
vn 0.38312017917633057 9.8493944733490935E-07 -0.92369848489761353
vn 0.60891729593276978 8.4582484305428807E-07 -0.79323369264602661
vn 0.60891729593276978 8.4582484305428807E-07 -0.79323369264602661
vn 0.60891729593276978 8.4582484305428807E-07 -0.79323369264602661
vn 0.60891729593276978 8.4582484305428807E-07 -0.79323369264602661
vn 0 1 0
vn 0 1 0
vn 0.7931864857673645 0 0.60897880792617798
vn 0.7931864857673645 0 0.60897880792617798
vn 0.7931864857673645 0 0.60897880792617798
vn 0.7931864857673645 0 0.60897880792617798
vn 0 1 0
vn 0 1 0
vn 0 1 0
vn 0 1 0
vn 0.92382198572158813 0 0.38282239437103271
vn 0.92382198572158813 0 0.38282239437103271
vn 0.92382198572158813 0 0.38282239437103271
vn 0.92382198572158813 0 0.38282239437103271
vn 0.99145430326461792 0 0.13045451045036316
vn 0.99145430326461792 0 0.13045451045036316
vn 0.99145430326461792 0 0.13045451045036316
vn 0.99145430326461792 0 0.13045451045036316
vn 0.99146145582199097 0 -0.13040010631084442
vn 0.99146145582199097 0 -0.13040010631084442
vn 0.99146145582199097 0 -0.13040010631084442
vn 0.99146145582199097 0 -0.13040010631084442
vn 0.92382198572158813 0 -0.38282239437103271
vn 0.92382198572158813 0 -0.38282239437103271
vn 0.92382198572158813 0 -0.38282239437103271
vn 0.92382198572158813 0 -0.38282239437103271
vn 0.7931864857673645 0 -0.60897880792617798
vn 0.7931864857673645 0 -0.60897880792617798
vn 0.7931864857673645 0 -0.60897880792617798
vn 0.7931864857673645 0 -0.60897880792617798
vn 0 1 0
vn 0 1 0
vn 0 1 0
vn 0 1 0
vn 0 1 0
vn 0 1 0
vn -0.7931864857673645 0 -0.60897880792617798
vn -0.7931864857673645 0 -0.60897880792617798
vn -0.7931864857673645 0 -0.60897880792617798
vn -0.7931864857673645 0 -0.60897880792617798
f 1/1/1 2/2/2 3/3/3
f 2/2/2 1/1/1 4/4/4
f 5/5/5 6/6/6 7/7/7
f 6/6/6 5/5/5 8/8/8
f 9/9/9 10/10/10 11/11/11
f 10/10/10 9/9/9 12/12/12
f 13/13/13 14/14/14 15/15/15
f 14/14/14 13/13/13 16/16/16
f 17/17/17 18/18/18 19/19/19
f 20/20/20 18/18/18 17/17/17
f 20/20/20 4/4/4 18/18/18
f 2/2/2 4/4/4 20/20/20
f 21/21/21 22/22/22 23/23/23
f 22/22/22 21/21/21 24/24/24
f 25/25/25 26/26/26 27/27/27
f 26/26/26 25/25/25 28/28/28
f 29/29/29 30/30/30 31/31/31
f 30/30/30 29/29/29 32/32/32
f 33/33/33 34/34/34 35/35/35
f 34/34/34 33/33/33 36/36/36
f 34/34/34 36/36/36 37/37/37
f 37/37/37 36/36/36 38/38/38
f 37/37/37 38/38/38 39/39/39
f 39/39/39 38/38/38 40/40/40
f 39/39/39 40/40/40 41/41/41
f 41/41/41 40/40/40 42/42/42
f 43/43/43 44/44/44 45/45/45
f 44/44/44 43/43/43 46/46/46
f 47/47/47 19/19/19 48/48/48
f 17/17/17 19/19/19 47/47/47
f 49/49/49 50/50/50 51/51/51
f 50/50/50 49/49/49 52/52/52
f 53/53/53 54/54/54 55/55/55
f 54/54/54 53/53/53 56/56/56
f 41/41/41 42/42/42 57/57/57
f 57/57/57 42/42/42 58/58/58
f 59/59/59 60/60/60 61/61/61
f 60/60/60 59/59/59 62/62/62
f 63/63/63 48/48/48 64/64/64
f 47/47/47 48/48/48 63/63/63
f 63/63/63 64/64/64 65/65/65
f 65/65/65 64/64/64 66/66/66
f 67/67/67 62/62/62 68/68/68
f 62/62/62 67/67/67 60/60/60
f 69/69/69 58/58/58 70/70/70
f 57/57/57 58/58/58 69/69/69
f 71/71/71 72/72/72 73/73/73
f 72/72/72 71/71/71 74/74/74
f 75/75/75 76/76/76 77/77/77
f 76/76/76 75/75/75 78/78/78
f 69/69/69 70/70/70 79/79/79
f 79/79/79 70/70/70 80/80/80
f 81/81/81 82/82/82 83/83/83
f 82/82/82 81/81/81 84/84/84
f 85/85/85 66/66/66 86/86/86
f 65/65/65 66/66/66 85/85/85
f 85/85/85 86/86/86 87/87/87
f 87/87/87 86/86/86 88/88/88
f 89/89/89 90/90/90 91/91/91
f 90/90/90 89/89/89 92/92/92
f 93/93/93 80/80/80 94/94/94
f 79/79/79 80/80/80 93/93/93
f 95/95/95 96/96/96 97/97/97
f 96/96/96 95/95/95 98/98/98
f 99/99/99 100/100/100 101/101/101
f 100/100/100 99/99/99 102/102/102
f 93/93/93 94/94/94 103/103/103
f 103/103/103 94/94/94 104/104/104
f 105/105/105 106/106/106 107/107/107
f 106/106/106 105/105/105 108/108/108
f 109/109/109 88/88/88 110/110/110
f 87/87/87 88/88/88 109/109/109
f 109/109/109 110/110/110 111/111/111
f 111/111/111 110/110/110 112/112/112
f 113/113/113 114/114/114 115/115/115
f 114/114/114 113/113/113 116/116/116
f 117/117/117 118/118/118 119/119/119
f 118/118/118 117/117/117 120/120/120
f 121/121/121 122/122/122 123/123/123
f 122/122/122 121/121/121 124/124/124
f 125/125/125 126/126/126 127/127/127
f 126/126/126 125/125/125 128/128/128
f 129/129/129 130/130/130 131/131/131
f 130/130/130 129/129/129 132/132/132
f 103/103/103 104/104/104 133/133/133
f 133/133/133 104/104/104 134/134/134
f 133/133/133 134/134/134 135/135/135
f 135/135/135 134/134/134 136/136/136
f 111/111/111 112/112/112 137/137/137
f 137/137/137 112/112/112 138/138/138
f 139/139/139 140/140/140 141/141/141
f 140/140/140 139/139/139 142/142/142
