# Rhino

mtllib BedSet_16_45.mtl
usemtl Default
v -0.39689910705000031 0.099824051998900001 0.0010566058124400479
v -0.39689910705000031 0.077773914960699991 -0.010970894373699913
v -0.39689910705000031 0.077773914960699991 0.0010566058124400479
v -0.39689910705000031 0.099824051998900001 -0.010970894373699913
v -0.39689910705000031 0.099824051998900001 0.0010566058124400479
v -0.36383524026699998 0.099824051998900001 -0.010970894373699913
v -0.39689910705000031 0.099824051998900001 -0.010970894373699913
v -0.36383524026699998 0.099824051998900001 0.0010566058124400479
v -0.39689910705000031 0.077773914960699991 0.0010566058124400479
v -0.36383524026699998 0.099824051998900001 0.0010566058124400479
v -0.39689910705000031 0.099824051998900001 0.0010566058124400479
v 0.39689826714100018 0.077773914960699991 0.0010566058124400479
v -0.39689910705000031 0.077773914960699991 0.0010566058124400479
v 0.39689826714100018 0.077773914960699991 -0.010970894373699913
v 0.39689826714100018 0.077773914960699991 0.0010566058124400479
v -0.39689910705000031 0.077773914960699991 -0.010970894373699913
v -0.39689910705000031 0.077773914960699991 -0.010970894373699913
v 0.39689826714100018 0.099824051998900001 -0.010970894373699913
v 0.39689826714100018 0.077773914960699991 -0.010970894373699913
v 0.36383524026699998 0.099824051998900001 -0.010970894373699913
v -0.39689910705000031 0.099824051998900001 -0.010970894373699913
v -0.36383524026699998 0.099824051998900001 -0.010970894373699913
v -0.36383524026699998 0.1018280754237 -0.010970894373699913
v 0.36383524026699998 0.1018280754237 -0.010970894373699913
v -0.36383524026699998 0.1018280754237 0.0010566058124400479
v 0.36383524026699998 0.1018280754237 -0.010970894373699913
v -0.36383524026699998 0.1018280754237 -0.010970894373699913
v 0.36383524026699998 0.1018280754237 0.0010566058124400479
v -0.36383524026699998 0.1018280754237 0.0010566058124400479
v 0.36383524026699998 0.099824051998900001 0.0010566058124400479
v 0.36383524026699998 0.1018280754237 0.0010566058124400479
v -0.36383524026699998 0.1018280754237 -0.010970894373699913
v -0.36383524026699998 0.099824051998900001 0.0010566058124400479
v -0.36383524026699998 0.1018280754237 0.0010566058124400479
v -0.36383524026699998 0.099824051998900001 -0.010970894373699913
v 0.39689826714100018 0.099824051998900001 0.0010566058124400479
v 0.39689826714100018 0.077773914960699991 -0.010970894373699913
v 0.39689826714100018 0.099824051998900001 -0.010970894373699913
v 0.39689826714100018 0.099824051998900001 -0.010970894373699913
v 0.36383524026699998 0.099824051998900001 0.0010566058124400479
v 0.39689826714100018 0.099824051998900001 0.0010566058124400479
v 0.36383524026699998 0.099824051998900001 -0.010970894373699913
v 0.36383524026699998 0.1018280754237 -0.010970894373699913
v 0.36383524026699998 0.099824051998900001 0.0010566058124400479
v 0.36383524026699998 0.099824051998900001 -0.010970894373699913
v 0.36383524026699998 0.1018280754237 0.0010566058124400479
v 0.39689826714100018 0.077773914960699991 0.0010566058124400479
v 0.39689826714100018 0.099824051998900001 0.0010566058124400479
vt 0 0.19689999520778656
vt 1.1811000108718872 2.3622000217437744
vt 0 2.3622000217437744
vt 1.1811000108718872 0.19689999520778656
vt -77.952796936035156 0
vt -74.705902099609375 1.1811000108718872
vt -77.952796936035156 1.1811000108718872
vt -74.705902099609375 0
vt 77.952796936035156 2.3622000217437744
vt 74.705902099609375 0.19689999520778656
vt 77.952796936035156 0.19689999520778656
vt 0 2.3622000217437744
vt 77.952796936035156 0
vt 0 1.1811000108718872
vt 0 0
vt 77.952796936035156 1.1811000108718872
vt -77.952796936035156 2.3622000217437744
vt 0 0.19689999520778656
vt 0 2.3622000217437744
vt -3.2469000816345215 0.19689999520778656
vt -77.952796936035156 0.19689999520778656
vt -74.705902099609375 0.19689999520778656
vt -74.705902099609375 0
vt -3.2469000816345215 0
vt -74.705902099609375 0
vt -3.2469000816345215 1.1811000108718872
vt -74.705902099609375 1.1811000108718872
vt -3.2469000816345215 0
vt 74.705902099609375 0
vt 3.2469000816345215 0.19689999520778656
vt 3.2469000816345215 0
vt 1.1811000108718872 0
vt 0 0.19689999520778656
vt 0 0
vt 1.1811000108718872 0.19689999520778656
vt 0 0.19689999520778656
vt -1.1811000108718872 2.3622000217437744
vt -1.1811000108718872 0.19689999520778656
vt 0 1.1811000108718872
vt -3.2469000816345215 0
vt 0 0
vt -3.2469000816345215 1.1811000108718872
vt -1.1811000108718872 0
vt 0 0.19689999520778656
vt -1.1811000108718872 0.19689999520778656
vt 0 0
vt 0 2.3622000217437744
vt 0 0.19689999520778656
vn -1 0 0
vn -1 0 0
vn -1 0 0
vn -1 0 0
vn 0 1 0
vn 0 1 0
vn 0 1 0
vn 0 1 0
vn 0 0 1
vn 0 0 1
vn 0 0 1
vn 1 0 0
vn 0 -1 0
vn 0 -1 0
vn 0 -1 0
vn 0 -1 0
vn 0 0 -1
vn 0 0 -1
vn 0 0 -1
vn 0 0 -1
vn 0 0 -1
vn 0 0 -1
vn 0 0 -1
vn 0 0 -1
vn 0 1 0
vn 0 1 0
vn 0 1 0
vn 0 1 0
vn 0 0 1
vn 0 0 1
vn 0 0 1
vn -1 0 0
vn -1 0 0
vn -1 0 0
vn -1 0 0
vn 1 0 0
vn 1 0 0
vn 1 0 0
vn 0 1 0
vn 0 1 0
vn 0 1 0
vn 0 1 0
vn 1 0 0
vn 1 0 0
vn 1 0 0
vn 1 0 0
vn 0 0 1
vn 0 0 1
f 1/1/1 2/2/2 3/3/3
f 2/2/2 1/1/1 4/4/4
f 5/5/5 6/6/6 7/7/7
f 6/6/6 5/5/5 8/8/8
f 9/9/9 10/10/10 11/11/11
f 10/10/10 9/9/9 47/47/47
f 13/13/13 14/14/14 15/15/15
f 14/14/14 13/13/13 16/16/16
f 17/17/17 18/18/18 19/19/19
f 17/17/17 20/20/20 18/18/18
f 21/21/21 20/20/20 17/17/17
f 22/22/22 20/20/20 21/21/21
f 23/23/23 20/20/20 22/22/22
f 20/20/20 23/23/23 24/24/24
f 25/25/25 26/26/26 27/27/27
f 26/26/26 25/25/25 28/28/28
f 29/29/29 30/30/30 31/31/31
f 30/30/30 29/29/29 10/10/10
f 32/32/32 33/33/33 34/34/34
f 33/33/33 32/32/32 35/35/35
f 30/30/30 10/10/10 48/48/48
f 48/48/48 10/10/10 47/47/47
f 37/37/37 36/36/36 12/12/12
f 36/36/36 37/37/37 38/38/38
f 39/39/39 40/40/40 41/41/41
f 40/40/40 39/39/39 42/42/42
f 43/43/43 44/44/44 45/45/45
f 44/44/44 43/43/43 46/46/46
