# Rhino

mtllib BedSet_02_24.mtl
usemtl Default
v 0.15116354672099996 0.086260640883700002 -0.25441148598299979
v 0.087266398110199983 0.086260640883700002 -0.25052412647099986
v 0.15116354672099996 0.086260640883700002 -0.25052412647099986
v 0.087266398110199983 0.086260640883700002 -0.25441148598299979
v 0.15116354672099996 0.086260640883700002 -0.25441148598299979
v 0.087266398110199983 0.081865109299300007 -0.26103575989800021
v 0.087266398110199983 0.086260640883700002 -0.25441148598299979
v 0.15116354672099996 0.081865109299300007 -0.26103575989800021
v 0.15116354672099996 0.086260640883700002 -0.25441148598299979
v 0.15116354672099996 0.078926651342500001 -0.26103575989800021
v 0.15116354672099996 0.081865109299300007 -0.26103575989800021
v 0.15116354672099996 0.081468295921600001 -0.25691391975400002
v 0.15116354672099996 0.081468295921600001 -0.25052412647099986
v 0.15116354672099996 0.086260640883700002 -0.25052412647099986
v 0.087266398110199983 0.081468295921600001 -0.25052412647099986
v 0.15116354672099996 0.081468295921600001 -0.25691391975400002
v 0.15116354672099996 0.081468295921600001 -0.25052412647099986
v 0.087266398110199983 0.081468295921600001 -0.25691391975400002
v 0.087266398110199983 0.086260640883700002 -0.25441148598299979
v 0.087266398110199983 0.081468295921600001 -0.25691391975400002
v 0.087266398110199983 0.081468295921600001 -0.25052412647099986
v 0.087266398110199983 0.081865109299300007 -0.26103575989800021
v 0.087266398110199983 0.078926651342500001 -0.26103575989800021
v 0.087266398110199983 0.081865109299300007 -0.26103575989800021
v 0.15116354672099996 0.078926651342500001 -0.26103575989800021
v 0.087266398110199983 0.078926651342500001 -0.26103575989800021
v 0.15116354672099996 0.081865109299300007 -0.26103575989800021
v 0.15116354672099996 0.081468295921600001 -0.25691391975400002
v 0.087266398110199983 0.078926651342500001 -0.26103575989800021
v 0.15116354672099996 0.078926651342500001 -0.26103575989800021
v 0.087266398110199983 0.081468295921600001 -0.25691391975400002
v 0.087266398110199983 0.086260640883700002 -0.25052412647099986
v 0.087266398110199983 0.081468295921600001 -0.25052412647099986
v 0.087266398110199983 0.086260640883700002 -0.25052412647099986
v 0.11921497241559997 0.083864468402649994 -0.25052412647099986
v 0.15116354672099996 0.081468295921600001 -0.25052412647099986
v 0.15116354672099996 0.086260640883700002 -0.25052412647099986
vt 28.522600173950195 7.0370998382568359
vt 36.396598815917969 7.5160999298095703
vt 28.522600173950195 7.5160999298095703
vt 36.396598815917969 7.0370998382568359
vt 28.522600173950195 11.740799903869629
vt 36.396598815917969 10.761199951171875
vt 36.396598815917969 11.740799903869629
vt 28.522600173950195 10.761199951171875
vt -7.0370998382568359 10.629899978637695
vt -6.2207999229431152 9.7262001037597656
vt -6.2207999229431152 10.088299751281738
vt -6.7287001609802246 10.039400100708008
vt -7.5160999298095703 10.039400100708008
vt -7.5160999298095703 10.629899978637695
vt -36.396598815917969 7.5160999298095703
vt -28.522600173950195 6.7287001609802246
vt -28.522600173950195 7.5160999298095703
vt -36.396598815917969 6.7287001609802246
vt 7.0370998382568359 10.629899978637695
vt 6.7287001609802246 10.039400100708008
vt 7.5160999298095703 10.039400100708008
vt 6.2207999229431152 10.088299751281738
vt 6.2207999229431152 9.7262001037597656
vt 36.396598815917969 10.088299751281738
vt 28.522600173950195 9.7262001037597656
vt 36.396598815917969 9.7262001037597656
vt 28.522600173950195 10.088299751281738
vt -28.522600173950195 10.996600151062012
vt -36.396598815917969 10.399900436401367
vt -28.522600173950195 10.399900436401367
vt -36.396598815917969 10.996600151062012
vt 7.5160999298095703 10.629899978637695
vt 0 0
vt 1 0
vt 0.5 0.5
vt 0 1
vt 1 1
vn 0 1 0
vn 0 1 0
vn 0 1 0
vn 0 1 0
vn 0 0.83324724435806274 -0.55290055274963379
vn 0 0.83324724435806274 -0.55290055274963379
vn 0 0.83324724435806274 -0.55290055274963379
vn 0 0.83324724435806274 -0.55290055274963379
vn 1 0 0
vn 1 0 0
vn 1 0 0
vn 1 0 0
vn 1 0 0
vn 1 0 0
vn 0 -1 0
vn 0 -1 0
vn 0 -1 0
vn 0 -1 0
vn -1 0 0
vn -1 0 0
vn -1 0 0
vn -1 0 0
vn -1 0 0
vn 0 0 -1
vn 0 0 -1
vn 0 0 -1
vn 0 0 -1
vn 0 -0.85118532180786133 0.52486521005630493
vn 0 -0.85118532180786133 0.52486521005630493
vn 0 -0.85118532180786133 0.52486521005630493
vn 0 -0.85118532180786133 0.52486521005630493
vn -1 0 0
vn 0 0 1
vn 0 0 1
vn 0 0 1
vn 0 0 1
vn 0 0 1
f 1/1/1 2/2/2 3/3/3
f 2/2/2 1/1/1 4/4/4
f 5/5/5 6/6/6 7/7/7
f 6/6/6 5/5/5 8/8/8
f 9/9/9 10/10/10 11/11/11
f 10/10/10 9/9/9 12/12/12
f 12/12/12 9/9/9 13/13/13
f 13/13/13 9/9/9 14/14/14
f 15/15/15 16/16/16 17/17/17
f 16/16/16 15/15/15 18/18/18
f 19/19/19 20/20/20 21/21/21
f 22/22/22 20/20/20 19/19/19
f 20/20/20 22/22/22 23/23/23
f 24/24/24 25/25/25 26/26/26
f 25/25/25 24/24/24 27/27/27
f 28/28/28 29/29/29 30/30/30
f 29/29/29 28/28/28 31/31/31
f 19/19/19 21/21/21 32/32/32
f 35/35/35 33/33/33 36/36/36
f 37/37/37 34/34/34 35/35/35
f 33/33/33 35/35/35 34/34/34
f 36/36/36 37/37/37 35/35/35
