# Rhino

mtllib BedSet_06_07.mtl
usemtl Default
v 0.41757879419199995 0.1287867539061 -0.0064394218377499257
v 0.41757879419199995 0.31767309544900002 0.0064394218377500367
v 0.41757879419199995 0.1287867539061 0.0064394218377500367
v 0.41757879419199995 0.31767309544900002 -0.0064394218377499257
v 0.41757879419199995 0.1287867539061 -0.0064394218377499257
v 0.41092480910200013 0.31767309544900002 -0.0064394218377499257
v 0.41757879419199995 0.31767309544900002 -0.0064394218377499257
v 0.41092480910200013 0.1287867539061 -0.0064394218377499257
v 0.41092480910200013 0.1287867539061 0.0064394218377500367
v 0.41092480910200013 0.31767309544900002 -0.0064394218377499257
v 0.41092480910200013 0.1287867539061 -0.0064394218377499257
v 0.41092480910200013 0.31767309544900002 0.0064394218377500367
v 0.41092480910200013 0.1287867539061 0.0064394218377500367
v 0.41757879419199995 0.31767309544900002 0.0064394218377500367
v 0.41092480910200013 0.31767309544900002 0.0064394218377500367
v 0.41757879419199995 0.1287867539061 0.0064394218377500367
v 0.41092480910200013 0.1287867539061 0.0064394218377500367
v 0.41092480910200013 0.1287867539061 -0.0064394218377499257
v 0.41425180164700004 0.1287867539061 0
v 0.41757879419199995 0.1287867539061 0.0064394218377500367
v 0.41757879419199995 0.1287867539061 -0.0064394218377499257
v 0.41092480910200013 0.31767309544900002 0.0064394218377500367
v 0.41092480910200013 0.31767309544900002 -0.0064394218377499257
v 0.41425180164700004 0.31767309544900002 0
v 0.41757879419199995 0.31767309544900002 0.0064394218377500367
v 0.41757879419199995 0.31767309544900002 -0.0064394218377499257
vt -3.7297999858856201 -0.36090001463890076
vt -3.7395999431610107 0
vt -3.7395999431610107 -0.36090001463890076
vt -3.7297999858856201 0
vt -3.4128999710083008 -0.36090001463890076
vt -3.4077999591827393 0
vt -3.4128999710083008 0
vt -3.4077999591827393 -0.36090001463890076
vt 3.7395999431610107 -0.36090001463890076
vt 3.7297999858856201 0
vt 3.7297999858856201 -0.36090001463890076
vt 3.7395999431610107 0
vt 3.4077999591827393 -0.36090001463890076
vt 3.4128999710083008 0
vt 3.4077999591827393 0
vt 3.4128999710083008 -0.36090001463890076
vt 1 0
vt 1 1
vt 0.5 0.5
vt 0 0
vt 0 1
vt 1 1
vt 1 0
vt 0.5 0.5
vt 0 1
vt 0 0
vn 1 0 0
vn 1 0 0
vn 1 0 0
vn 1 0 0
vn 0 0 -1
vn 0 0 -1
vn 0 0 -1
vn 0 0 -1
vn -1 0 0
vn -1 0 0
vn -1 0 0
vn -1 0 0
vn 0 0 1
vn 0 0 1
vn 0 0 1
vn 0 0 1
vn 0 -1 0
vn 0 -1 0
vn 0 -1 0
vn 0 -1 0
vn 0 -1 0
vn 0 1 0
vn 0 1 0
vn 0 1 0
vn 0 1 0
vn 0 1 0
f 1/1/1 2/2/2 3/3/3
f 2/2/2 1/1/1 4/4/4
f 5/5/5 6/6/6 7/7/7
f 6/6/6 5/5/5 8/8/8
f 9/9/9 10/10/10 11/11/11
f 10/10/10 9/9/9 12/12/12
f 13/13/13 14/14/14 15/15/15
f 14/14/14 13/13/13 16/16/16
f 19/19/19 21/21/21 20/20/20
f 18/18/18 19/19/19 17/17/17
f 20/20/20 17/17/17 19/19/19
f 21/21/21 19/19/19 18/18/18
f 24/24/24 25/25/25 26/26/26
f 22/22/22 24/24/24 23/23/23
f 26/26/26 23/23/23 24/24/24
f 25/25/25 24/24/24 22/22/22
