# Rhino

mtllib BedSet_20_01.mtl
usemtl Default
v 0.32590608052100034 0.053628485295999992 0.26143061528400047
v 0.30115447192199962 0.12066409191669999 0.26143061528400047
v 0.32590608052100034 0.12066409191669999 0.26143061528400047
v 0.32590608052100034 0.053628485295999992 -0.26143057947600035
v 0.30115447192199962 0.12066409191669999 -0.26144711635600082
v 0.32590608052100034 0.12066409191669999 -0.26143057947600035
v 0.30080547424199988 0.053628485295999992 0.26143061528400047
v 0.30080547424199988 0.053628485295999992 -0.26144711635600082
v 0.32590608052100034 0.12066409191669999 -0.26143057947600035
v 0.32590608052100034 0.053628485295999992 -0.26143057947600035
v 0.32590608052100034 0.053628485295999992 0.26143061528400047
v 0.32590608052100034 0.12066409191669999 0.26143061528400047
v 0.32590608052100034 0.053628485295999992 -0.26143057947600035
v 0.30080547424199988 0.053628485295999992 -0.26144711635600082
v 0.30080547424199988 0.053628485295999992 0.26143061528400047
v 0.32590608052100034 0.053628485295999992 0.26143061528400047
v 0.30115447192199962 0.12066409191669999 -0.26144711635600082
v 0.32590608052100034 0.12066409191669999 -0.26143057947600035
v 0.32590608052100034 0.12066409191669999 0.26143061528400047
v 0.30115447192199962 0.12066409191669999 0.26143061528400047
v 0.30080547424199988 0.053628485295999992 -0.26144711635600082
v 0.30115447192199962 0.12066409191669999 -0.26144711635600082
v 0.30115447192199962 0.12066409191669999 0.26143061528400047
v 0.30080547424199988 0.053628485295999992 0.26143061528400047
vt 0.16434639692306519 0.3333333432674408
vt 0.65738558769226074 0.83333331346511841
vt 0.16434639692306519 0.83333331346511841
vt 0 0
vt 0.98607838153839111 1
vt 0 1
vt 0.83101308345794678 0.1666666716337204
vt 1 0
vt 0 1
vt 0 0
vt 0.16434639692306519 0.3333333432674408
vt 0.16434639692306519 0.83333331346511841
vt 0 0
vt 1 0
vt 0.83101308345794678 0.1666666716337204
vt 0.16434639692306519 0.3333333432674408
vt 0.98607838153839111 1
vt 0 1
vt 0.16434639692306519 0.83333331346511841
vt 0.65738558769226074 0.83333331346511841
vt 1 0
vt 0.98607838153839111 1
vt 0.65738558769226074 0.83333331346511841
vt 0.83101308345794678 0.1666666716337204
vn 0 0 1
vn 0 0 1
vn 0 0 1
vn 0.00066346849780529737 -1.7149690165751963E-06 -0.9999997615814209
vn 0.00066346849780529737 -1.7149690165751963E-06 -0.9999997615814209
vn 0.00066811317810788751 0 -0.9999997615814209
vn 0 0 1
vn 0.00065882375929504633 -3.4299380331503926E-06 -0.9999997615814209
vn 1 0 0
vn 1 0 0
vn 1 0 0
vn 1 0 0
vn 0 -1 0
vn 0 -1 0
vn 0 -1 0
vn 0 -1 0
vn 0 1 0
vn 0 1 0
vn 0 1 0
vn 0 1 0
vn -0.99998646974563599 0.0052060834132134914 0
vn -0.99998646974563599 0.0052060834132134914 0
vn -0.99998646974563599 0.0052060834132134914 0
vn -0.99998646974563599 0.0052060834132134914 0
f 1/1/1 3/3/3 2/2/2
f 4/4/4 5/5/5 6/6/6
f 2/2/2 7/7/7 1/1/1
f 5/5/5 4/4/4 8/8/8
f 9/9/9 12/12/12 11/11/11 10/10/10
f 13/13/13 16/16/16 15/15/15 14/14/14
f 17/17/17 20/20/20 19/19/19 18/18/18
f 21/21/21 24/24/24 23/23/23 22/22/22
