# Rhino

mtllib BedSet_18_02.mtl
usemtl Default
v 0.35649013519287109 0 -0.29119253158569336
v 0.37413787841796875 0 -0.29119253158569336
v 0.33884191513061523 0.141184002161026 -0.29119253158569336
v 0.37413787841796875 0.141184002161026 -0.29119253158569336
v 0.37413787841796875 0 -0.29119253158569336
v 0.37413787841796875 0 -0.2735443115234375
v 0.37413787841796875 0.141184002161026 -0.29119253158569336
v 0.37413787841796875 0.141184002161026 -0.25589609146118164
v 0.37413787841796875 0 -0.2735443115234375
v 0.35649013519287109 0 -0.2735443115234375
v 0.37413787841796875 0.141184002161026 -0.25589609146118164
v 0.33884191513061523 0.141184002161026 -0.25589609146118164
v 0.35649013519287109 0 -0.2735443115234375
v 0.35649013519287109 0 -0.29119253158569336
v 0.33884191513061523 0.141184002161026 -0.25589609146118164
v 0.33884191513061523 0.141184002161026 -0.29119253158569336
v 0.35649013519287109 0 -0.2735443115234375
v 0.35649013519287109 0 -0.29119253158569336
v 0.36531400680541992 0 -0.28236842155456543
v 0.37413787841796875 0 -0.2735443115234375
v 0.37413787841796875 0 -0.29119253158569336
v 0.33884191513061523 0.141184002161026 -0.25589609146118164
v 0.33884191513061523 0.141184002161026 -0.29119253158569336
v 0.35648989677429199 0.141184002161026 -0.2735443115234375
v 0.37413787841796875 0.141184002161026 -0.25589609146118164
v 0.37413787841796875 0.141184002161026 -0.29119253158569336
vt 0.49090364575386047 0
vt 0.24618424475193024 0
vt 0.49090364575386047 0.99239522218704224
vt 0.24618424475193024 0.99239522218704224
vt 0.24471940100193024 0
vt 0 0
vt 0.24471940100193024 0.99239522218704224
vt 0 0.99239522218704224
vt 0.98327213525772095 0
vt 0.7385527491569519 0
vt 0.98327213525772095 0.99853515625
vt 0.7385527491569519 0.99853515625
vt 0.7370879054069519 0
vt 0.49236848950386047 0
vt 0.7370879054069519 0.99853515625
vt 0.49236848950386047 0.99853515625
vt 1 0
vt 1 1
vt 0.5 0.5
vt 0 0
vt 0 1
vt 1 0
vt 1 1
vt 0.5 0.5
vt 0 0
vt 0 1
vn 0 0 -1
vn 0 0 -1
vn 0 0 -1
vn 0 0 -1
vn 1 0 0
vn 1 0 0
vn 1 0 0
vn 1 0 0
vn 0 -0.12403538078069687 0.99227780103683472
vn 0 -0.12403538078069687 0.99227780103683472
vn 0 -0.12403538078069687 0.99227780103683472
vn 0 -0.12403538078069687 0.99227780103683472
vn -0.99227780103683472 -0.12403538078069687 0
vn -0.99227780103683472 -0.12403538078069687 0
vn -0.99227780103683472 -0.12403538078069687 0
vn -0.99227780103683472 -0.12403538078069687 0
vn 0 -1 0
vn 0 -1 0
vn 0 -1 0
vn 0 -1 0
vn 0 -1 0
vn 0 1 0
vn 0 1 0
vn 0 1 0
vn 0 1 0
vn 0 1 0
f 2/2/2 1/1/1 3/3/3 4/4/4
f 6/6/6 5/5/5 7/7/7 8/8/8
f 10/10/10 9/9/9 11/11/11 12/12/12
f 14/14/14 13/13/13 15/15/15 16/16/16
f 19/19/19 21/21/21 20/20/20
f 18/18/18 19/19/19 17/17/17
f 20/20/20 17/17/17 19/19/19
f 21/21/21 19/19/19 18/18/18
f 24/24/24 25/25/25 26/26/26
f 23/23/23 22/22/22 24/24/24
f 25/25/25 24/24/24 22/22/22
f 26/26/26 23/23/23 24/24/24
