# Rhino

mtllib BedSet_05_19.mtl
usemtl Default
v 0.32191120779299998 0.10430642487149999 0.29133863498599943
v 0.35787894050699998 0.1186935179572 0.29133863498599943
v 0.35787894050699998 0.10430642487149999 0.29133863498599943
v -0.35787894050699998 0.082725785242999991 0.29133863498599943
v -0.35787894050699998 0.1186935179572 0.29133863498599943
v 0.35787894050699998 0.082725785242999991 0.29853218152899963
v -0.35787894050699998 0.1186935179572 0.29853218152899963
v -0.35787894050699998 0.082725785242999991 0.29853218152899963
v 0.35787894050699998 0.1186935179572 0.29853218152899963
v 0.35787894050699998 0.082725785242999991 0.29133863498599943
v 0.32191120779299998 0.097112878328699997 0.29133863498599943
v 0.35787894050699998 0.097112878328699997 0.29133863498599943
v -0.35787894050699998 0.1186935179572 0.29853218152899963
v 0.35787894050699998 0.1186935179572 0.29133863498599943
v -0.35787894050699998 0.1186935179572 0.29133863498599943
v 0.35787894050699998 0.1186935179572 0.29853218152899963
v -0.35787894050699998 0.082725785242999991 0.29133863498599943
v 0.35787894050699998 0.082725785242999991 0.29853218152899963
v -0.35787894050699998 0.082725785242999991 0.29853218152899963
v 0.35787894050699998 0.082725785242999991 0.29133863498599943
v 0.35787894050699998 0.082725785242999991 0.29853218152899963
v 0.35787894050699998 0.1186935179572 0.29853218152899963
v 0.35787894050699998 0.10070965160009999 0.29493540825749953
v 0.35787894050699998 0.082725785242999991 0.29133863498599943
v 0.35787894050699998 0.097112878328699997 0.29133863498599943
v 0.35787894050699998 0.10430642487149999 0.29133863498599943
v 0.35787894050699998 0.1186935179572 0.29133863498599943
v -0.35787894050699998 0.082725785242999991 0.29853218152899963
v -0.35787894050699998 0.1186935179572 0.29853218152899963
v -0.35787894050699998 0.10070965160009999 0.29493540825749953
v -0.35787894050699998 0.082725785242999991 0.29133863498599943
v -0.35787894050699998 0.1186935179572 0.29133863498599943
vt -75.984298706054688 11.417300224304199
vt -79.921302795410156 12.992099761962891
vt -79.921302795410156 11.417300224304199
vt -1.5748000144958496 9.0551204681396484
vt -1.5748000144958496 12.992099761962891
vt 79.921302795410156 9.0551204681396484
vt 1.5748000144958496 12.992099761962891
vt 1.5748000144958496 9.0551204681396484
vt 79.921302795410156 12.992099761962891
vt -79.921302795410156 9.0551204681396484
vt -75.984298706054688 10.629899978637695
vt -79.921302795410156 10.629899978637695
vt 65.551200866699219 1.5748000144958496
vt 64.763801574707031 79.921302795410156
vt 64.763801574707031 1.5748000144958496
vt 65.551200866699219 79.921302795410156
vt -64.763801574707031 1.5748000144958496
vt -65.551200866699219 79.921302795410156
vt -65.551200866699219 1.5748000144958496
vt -64.763801574707031 79.921302795410156
vt 0 0
vt 1 0
vt 0.5 0.5
vt 0 1
vt 0.40000000596046448 1
vt 0.60000002384185791 1
vt 1 1
vt 0 0
vt 0 1
vt 0.5 0.5
vt 1 0
vt 1 1
vn 0 0 -1
vn 0 0 -1
vn 0 0 -1
vn 0 0 -1
vn 0 0 -1
vn 0 0 1
vn 0 0 1
vn 0 0 1
vn 0 0 1
vn 0 0 -1
vn 0 0 -1
vn 0 0 -1
vn 0 1 0
vn 0 1 0
vn 0 1 0
vn 0 1 0
vn 0 -1 0
vn 0 -1 0
vn 0 -1 0
vn 0 -1 0
vn 1 0 0
vn 1 0 0
vn 1 0 0
vn 1 0 0
vn 1 0 0
vn 1 0 0
vn 1 0 0
vn -1 0 0
vn -1 0 0
vn -1 0 0
vn -1 0 0
vn -1 0 0
f 1/1/1 2/2/2 3/3/3
f 4/4/4 2/2/2 1/1/1
f 2/2/2 4/4/4 5/5/5
f 6/6/6 7/7/7 8/8/8
f 7/7/7 6/6/6 9/9/9
f 10/10/10 11/11/11 12/12/12
f 4/4/4 11/11/11 10/10/10
f 11/11/11 4/4/4 1/1/1
f 13/13/13 14/14/14 15/15/15
f 14/14/14 13/13/13 16/16/16
f 11/11/11 3/3/3 12/12/12
f 3/3/3 11/11/11 1/1/1
f 17/17/17 18/18/18 19/19/19
f 18/18/18 17/17/17 20/20/20
f 24/24/24 25/25/25 21/21/21
f 23/23/23 21/21/21 25/25/25
f 26/26/26 22/22/22 23/23/23
f 21/21/21 23/23/23 22/22/22
f 22/22/22 26/26/26 27/27/27
f 25/25/25 26/26/26 23/23/23
f 30/30/30 28/28/28 29/29/29
f 32/32/32 31/31/31 30/30/30
f 28/28/28 30/30/30 31/31/31
f 29/29/29 32/32/32 30/30/30
