# Rhino

mtllib BedSet_03_01.mtl
usemtl Default
v -0.38260627605399999 0 -0.30872007688200043
v -0.36772820005899998 0.18225643093060001 -0.30872007688200043
v -0.36772820005899998 0 -0.30872007688200043
v -0.38260627605399999 0.18225643093060001 -0.30872007688200043
v -0.38260627605399999 0 -0.30872007688200043
v -0.38260627605399999 0.049199937553800005 -0.26321548145399998
v -0.38260627605399999 0.18225643093060001 -0.30872007688200043
v -0.38260627605399999 0.047293684067000005 -0.011526789376699931
v -0.38260627605399999 0.047293684067000005 0.2566468109019997
v -0.38260627605399999 0 0.30872007688200043
v -0.38260627605399999 0.18225643093060001 0.30872007688200043
v -0.36772820005899998 0 0.30872007688200043
v -0.38260627605399999 0.18225643093060001 0.30872007688200043
v -0.38260627605399999 0 0.30872007688200043
v -0.36772820005899998 0.079969658469600011 0.30872007688200043
v -0.36772820005899998 0.18225643093060001 0.30872007688200043
v -0.36772820005899998 0.18225643093060001 -0.30872007688200043
v -0.36772820005899998 0.15993931693910002 0.30872007688200043
v -0.36772820005899998 0.15993931693910002 -0.30872007688200043
v -0.36772820005899998 0.18225643093060001 0.30872007688200043
v -0.36772820005899998 0.18225643093060001 -0.30872007688200043
v -0.38260627605399999 0.18225643093060001 0.30872007688200043
v -0.36772820005899998 0.18225643093060001 0.30872007688200043
v -0.38260627605399999 0.18225643093060001 -0.30872007688200043
v -0.38260627605399999 0.12168406403870001 -0.26321548145399998
v -0.37888675705599995 0.049199937553800005 -0.26321548145399998
v -0.38260627605399999 0.12168406403870001 -0.26321548145399998
v -0.38260627605399999 0.049199937553800005 -0.26321548145399998
v -0.37888675705599995 0.12168406403870001 -0.26321548145399998
v -0.37888675705599995 0.049199937553800005 -0.26321548145399998
v -0.37888675705599995 0.12168406403870001 -0.011526789376699931
v -0.37888675705599995 0.12168406403870001 -0.26321548145399998
v -0.37888675705599995 0.047293684067000005 -0.011526789376699931
v -0.37888675705599995 0.049199937553800005 -0.26321548145399998
v -0.38260627605399999 0.047293684067000005 -0.011526789376699931
v -0.37888675705599995 0.047293684067000005 -0.011526789376699931
v -0.38260627605399999 0.049199937553800005 -0.26321548145399998
v -0.38260627605399999 0.047293684067000005 -0.011526789376699931
v -0.37888675705599995 0.12168406403870001 -0.011526789376699931
v -0.37888675705599995 0.047293684067000005 -0.011526789376699931
v -0.38260627605399999 0.12168406403870001 -0.011526789376699931
v -0.38260627605399999 0.12168406403870001 0.012408315379300205
v -0.38260627605399999 0.12168406403870001 -0.011526789376699931
v -0.38260627605399999 0.047293684067000005 0.012408315379300205
v -0.38260627605399999 0.047293684067000005 0.2566468109019997
v -0.37516723805699992 0.047293684067000005 0.012408315379300205
v -0.38260627605399999 0.047293684067000005 0.012408315379300205
v -0.37516723805699992 0.047293684067000005 0.2566468109019997
v -0.38260627605399999 0.047293684067000005 0.2566468109019997
v -0.37516723805699992 0.12168406403870001 0.2566468109019997
v -0.37516723805699992 0.047293684067000005 0.2566468109019997
v -0.38260627605399999 0.12168406403870001 0.2566468109019997
v -0.38260627605399999 0.12168406403870001 0.2566468109019997
v -0.38260627605399999 0.12168406403870001 -0.26321548145399998
v -0.37888675705599995 0.12168406403870001 -0.011526789376699931
v -0.38260627605399999 0.12168406403870001 -0.011526789376699931
v -0.37888675705599995 0.12168406403870001 -0.26321548145399998
v -0.38260627605399999 0.12168406403870001 0.012408315379300205
v -0.37516723805699992 0.12168406403870001 0.2566468109019997
v -0.38260627605399999 0.12168406403870001 0.2566468109019997
v -0.37516723805699992 0.12168406403870001 0.012408315379300205
v -0.38260627605399999 0.12168406403870001 0.012408315379300205
v -0.37516723805699992 0.047293684067000005 0.012408315379300205
v -0.37516723805699992 0.12168406403870001 0.012408315379300205
v -0.38260627605399999 0.047293684067000005 0.012408315379300205
v -0.37516723805699992 0.047293684067000005 0.012408315379300205
v -0.37516723805699992 0.12168406403870001 0.2566468109019997
v -0.37516723805699992 0.12168406403870001 0.012408315379300205
v -0.37516723805699992 0.047293684067000005 0.2566468109019997
v -0.36772820005899998 0 -0.30872007688200043
v -0.36772820005899998 0.15993931693910002 -0.30872007688200043
v -0.36772820005899998 0.15993931693910002 0.30872007688200043
v -0.36772820005899998 0 0.30872007688200043
v -0.36772820005899998 0 0.30872007688200043
v -0.38260627605399999 0 0.30872007688200043
v -0.38260627605399999 0 -0.30872007688200043
v -0.36772820005899998 0 -0.30872007688200043
vn 0 0 -1
vn 0 0 -1
vn 0 0 -1
vn 0 0 -1
vn -1 0 0
vn -1 0 0
vn -1 0 0
vn -1 0 0
vn -1 0 0
vn -1 0 0
vn -1 0 0
vn 0 0 1
vn 0 0 1
vn 0 0 1
vn 0 0 1
vn 0 0 1
vn 1 0 0
vn 1 0 0
vn 1 0 0
vn 1 0 0
vn 0 1 0
vn 0 1 0
vn 0 1 0
vn 0 1 0
vn -1 0 0
vn 0 0 1
vn 0 0 1
vn 0 0 1
vn 0 0 1
vn -1 0 0
vn -1 0 0
vn -1 0 0
vn -1 0 0
vn 0 0.99997133016586304 0.0075736371800303459
vn 0 0.99997133016586304 0.0075736371800303459
vn 0 0.99997133016586304 0.0075736371800303459
vn 0 0.99997133016586304 0.0075736371800303459
vn 0 0 -1
vn 0 0 -1
vn 0 0 -1
vn 0 0 -1
vn -1 0 0
vn -1 0 0
vn -1 0 0
vn 0 1 0
vn 0 1 0
vn 0 1 0
vn 0 1 0
vn 0 0 -1
vn 0 0 -1
vn 0 0 -1
vn 0 0 -1
vn -1 0 0
vn 0 -1 0
vn 0 -1 0
vn 0 -1 0
vn 0 -1 0
vn 0 -1 0
vn 0 -1 0
vn 0 -1 0
vn 0 -1 0
vn 0 0 1
vn 0 0 1
vn 0 0 1
vn 0 0 1
vn -1 0 0
vn -1 0 0
vn -1 0 0
vn -1 0 0
vn 1 0 0
vn 1 0 0
vn 1 0 0
vn 1 0 0
vn 0 -1 0
vn 0 -1 0
vn 0 -1 0
vn 0 -1 0
f 1//1 2//2 3//3
f 2//2 1//1 4//4
f 5//5 6//6 7//7
f 6//6 5//5 8//8
f 8//8 5//5 9//9
f 10//10 9//9 5//5
f 9//9 10//10 11//11
f 12//12 13//13 14//14
f 13//13 12//12 15//15
f 13//13 15//15 16//16
f 17//17 18//18 19//19
f 18//18 17//17 20//20
f 21//21 22//22 23//23
f 22//22 21//21 24//24
f 7//7 25//25 11//11
f 7//7 6//6 25//25
f 26//26 27//27 28//28
f 27//27 26//26 29//29
f 30//30 31//31 32//32
f 31//31 30//30 33//33
f 34//34 35//35 36//36
f 35//35 34//34 37//37
f 38//38 39//39 40//40
f 39//39 38//38 41//41
f 8//8 42//42 43//43
f 42//42 8//8 44//44
f 45//45 46//46 47//47
f 46//46 45//45 48//48
f 49//49 50//50 51//51
f 50//50 49//49 52//52
f 9//9 11//11 53//53
f 53//53 11//11 42//42
f 42//42 11//11 43//43
f 43//43 11//11 25//25
f 54//54 55//55 56//56
f 55//55 54//54 57//57
f 58//58 59//59 60//60
f 59//59 58//58 61//61
f 62//62 63//63 64//64
f 63//63 62//62 65//65
f 66//66 67//67 68//68
f 67//67 66//66 69//69
f 70//70 71//71 72//72 73//73
f 74//74 75//75 76//76 77//77
