# Rhino

mtllib BedSet_11_30.mtl
usemtl Default
v -0.23508912064299992 0.10333100173899999 -0.25835679869200012
v -0.23508912064299992 0.11048801697199999 -0.27198920865999998
v -0.23508912064299992 0.10333100173899999 -0.25154059370799997
v -0.23508912064299992 0.10333100173899999 -0.27198920865999998
v -0.25553773559400028 0.10333100173899999 -0.25835679869200012
v -0.23508912064299992 0.10333100173899999 -0.27198920865999998
v -0.23508912064299992 0.10333100173899999 -0.25835679869200012
v -0.25553773559400028 0.10333100173899999 -0.27198920865999998
v -0.25553773559400028 0.10333100173899999 -0.25835679869200012
v -0.25553773559400028 0.11048801697199999 0.00065902477887302968
v -0.25553773559400028 0.10333100173899999 -0.27198920865999998
v -0.25553773559400028 0.10333100173899999 -0.25154059370799997
v -0.25553773559400028 0.10333100173899999 -0.01978959017289994
v -0.25553773559400028 0.10333100173899999 -0.012973385188999931
v -0.25553773559400028 0.10333100173899999 0.00065902477887302968
v -0.25553773559400028 0.10333100173899999 -0.012973385188999931
v -0.23508912064299992 0.10333100173899999 0.00065902477887302968
v -0.25553773559400028 0.10333100173899999 0.00065902477887302968
v -0.23508912064299992 0.10333100173899999 -0.012973385188999931
v -0.25553773559400028 0.10333100173899999 -0.01978959017289994
v -0.23508912064299992 0.10333100173899999 -0.01978959017289994
v -0.25553773559400028 0.10333100173899999 -0.25154059370799997
v -0.23508912064299992 0.10333100173899999 -0.25154059370799997
v -0.23508912064299992 0.10333100173899999 -0.01978959017289994
v -0.23508912064299992 0.10333100173899999 -0.012973385188999931
v -0.23508912064299992 0.10333100173899999 0.00065902477887302968
v -0.23508912064299992 0.11048801697199999 0.00065902477887302968
v -0.23508912064299992 0.11048801697199999 -0.27198920865999998
v -0.25553773559400028 0.11048801697199999 0.00065902477887302968
v -0.23508912064299992 0.11048801697199999 0.00065902477887302968
v -0.25553773559400028 0.11048801697199999 -0.27198920865999998
v -0.23508912064299992 0.11048801697199999 -0.27198920865999998
v -0.25553773559400028 0.10333100173899999 -0.27198920865999998
v -0.25553773559400028 0.11048801697199999 -0.27198920865999998
v -0.23508912064299992 0.10333100173899999 -0.27198920865999998
v -0.25553773559400028 0.11048801697199999 -0.27198920865999998
vt -0.16314500570297241 0.62899601459503174
vt -0.13689799606800079 0.65655601024627686
vt -0.17626799643039703 0.62899601459503174
vt -0.13689799606800079 0.62899601459503174
vt -0.16314500570297241 -0.027065899223089218
vt -0.13689799606800079 0.051674298942089081
vt -0.16314500570297241 0.051674298942089081
vt -0.13689799606800079 -0.027065899223089218
vt 0.16314500570297241 0.62899601459503174
vt 0.66183298826217651 0.65655601024627686
vt 0.13689799606800079 0.62899601459503174
vt 0.17626799643039703 0.62899601459503174
vt 0.62246298789978027 0.62899601459503174
vt 0.63558602333068848 0.62899601459503174
vt 0.66183298826217651 0.62899601459503174
vt -0.63558602333068848 -0.027065899223089218
vt -0.66183298826217651 0.051674298942089081
vt -0.66183298826217651 -0.027065899223089218
vt -0.63558602333068848 0.051674298942089081
vt -0.62246298789978027 -0.027065899223089218
vt -0.62246298789978027 0.051674298942089081
vt -0.17626799643039703 -0.027065899223089218
vt -0.17626799643039703 0.051674298942089081
vt -0.62246298789978027 0.62899601459503174
vt -0.63558602333068848 0.62899601459503174
vt -0.66183298826217651 0.62899601459503174
vt -0.66183298826217651 0.65655601024627686
vt 0.13689799606800079 0.051674298942089081
vt 0.66183298826217651 -0.027065899223089218
vt 0.66183298826217651 0.051674298942089081
vt 0.13689799606800079 -0.027065899223089218
vt -0.025837099179625511 0.65655601024627686
vt 0.013532900251448154 0.62899601459503174
vt 0.013532900251448154 0.65655601024627686
vt -0.025837099179625511 0.62899601459503174
vt 0.13689799606800079 0.65655601024627686
vn 1 0 0
vn 1 0 0
vn 1 0 0
vn 1 0 0
vn 0 -1 0
vn 0 -1 0
vn 0 -1 0
vn 0 -1 0
vn -1 0 0
vn -1 0 0
vn -1 0 0
vn -1 0 0
vn -1 0 0
vn -1 0 0
vn -1 0 0
vn 0 -1 0
vn 0 -1 0
vn 0 -1 0
vn 0 -1 0
vn 0 -1 0
vn 0 -1 0
vn 0 -1 0
vn 0 -1 0
vn 1 0 0
vn 1 0 0
vn 1 0 0
vn 1 0 0
vn 0 1 0
vn 0 1 0
vn 0 1 0
vn 0 1 0
vn 0 0 -1
vn 0 0 -1
vn 0 0 -1
vn 0 0 -1
vn -1 0 0
f 1/1/1 2/2/2 3/3/3
f 2/2/2 1/1/1 4/4/4
f 5/5/5 6/6/6 7/7/7
f 6/6/6 5/5/5 8/8/8
f 9/9/9 10/10/10 11/11/11
f 12/12/12 10/10/10 9/9/9
f 13/13/13 10/10/10 12/12/12
f 14/14/14 10/10/10 13/13/13
f 10/10/10 14/14/14 15/15/15
f 16/16/16 17/17/17 18/18/18
f 16/16/16 19/19/19 17/17/17
f 20/20/20 19/19/19 16/16/16
f 20/20/20 21/21/21 19/19/19
f 22/22/22 21/21/21 20/20/20
f 22/22/22 23/23/23 21/21/21
f 5/5/5 23/23/23 22/22/22
f 5/5/5 7/7/7 23/23/23
f 3/3/3 2/2/2 24/24/24
f 24/24/24 2/2/2 25/25/25
f 25/25/25 2/2/2 26/26/26
f 26/26/26 2/2/2 27/27/27
f 28/28/28 29/29/29 30/30/30
f 29/29/29 28/28/28 31/31/31
f 32/32/32 33/33/33 34/34/34
f 33/33/33 32/32/32 35/35/35
f 11/11/11 10/10/10 36/36/36
