# Rhino

mtllib BedSet_16_20.mtl
usemtl Default
v -0.36482549324999969 0 -0.24550210854800003
v -0.36482549324999969 0.020045273704199992 -0.26153765558400011
v -0.36482549324999969 0 -0.26153765558400011
v -0.36482549324999969 0.020045273704199992 -0.24550210854800003
v -0.36482549324999969 0 0.25162336702299992
v -0.36482549324999969 0.020045273704199992 0.23558698007799994
v -0.36482549324999969 0 0.23558698007799994
v -0.36482549324999969 0.020045273704199992 0.25162336702299992
v -0.38086272010500011 0 -0.26153765558400011
v -0.38086272010500011 0.020045273704199992 0.25162336702299992
v -0.38086272010500011 0.020045273704199992 -0.26153765558400011
v -0.38086272010500011 0 0.25162336702299992
v -0.38086272010500011 0 -0.26153765558400011
v -0.36482549324999969 0 0.25162336702299992
v -0.38086272010500011 0 0.25162336702299992
v -0.36482549324999969 0 -0.26153765558400011
v -0.38086272010500011 0 -0.26153765558400011
v -0.36482549324999969 0.020045273704199992 -0.26153765558400011
v -0.36482549324999969 0 -0.26153765558400011
v -0.38086272010500011 0.020045273704199992 -0.26153765558400011
v -0.38086272010500011 0.020045273704199992 0.25162336702299992
v -0.36482549324999969 0.020045273704199992 -0.26153765558400011
v -0.38086272010500011 0.020045273704199992 -0.26153765558400011
v -0.36482549324999969 0.020045273704199992 0.25162336702299992
v -0.38086272010500011 0.020045273704199992 0.25162336702299992
v -0.36482549324999969 0 0.25162336702299992
v -0.36482549324999969 0.020045273704199992 0.25162336702299992
v -0.38086272010500011 0 0.25162336702299992
v -0.36482549324999969 0 0.25162336702299992
v -0.36482549324999969 0.020045273704199992 -0.26153765558400011
v -0.36482549324999969 0.020045273704199992 0.25162336702299992
v -0.36482549324999969 0 -0.26153765558400011
vt 0 1.968500018119812
vt 1.5748000144958496 0
vt 1.5748000144958496 1.968500018119812
vt 0 0
vt 0 1.968500018119812
vt 1.5748000144958496 0
vt 1.5748000144958496 1.968500018119812
vt 0 0
vt 19.426599502563477 1.968500018119812
vt -30.967100143432617 0
vt 19.426599502563477 0
vt -30.967100143432617 1.968500018119812
vt 19.426599502563477 0
vt -30.967100143432617 1.5748000144958496
vt -30.967100143432617 0
vt 19.426599502563477 1.5748000144958496
vt 0 1.968500018119812
vt 1.5748000144958496 0
vt 1.5748000144958496 1.968500018119812
vt 0 0
vt 30.967100143432617 0
vt -19.426599502563477 1.5748000144958496
vt -19.426599502563477 0
vt 30.967100143432617 1.5748000144958496
vt 0 0
vt -1.5748000144958496 1.968500018119812
vt -1.5748000144958496 0
vt 0 1.968500018119812
vt 30.967100143432617 1.968500018119812
vt -19.426599502563477 0
vt 30.967100143432617 0
vt -19.426599502563477 1.968500018119812
vn -1 0 0
vn -1 0 0
vn -1 0 0
vn -1 0 0
vn -1 0 0
vn -1 0 0
vn -1 0 0
vn -1 0 0
vn -1 0 0
vn -1 0 0
vn -1 0 0
vn -1 0 0
vn 0 -1 0
vn 0 -1 0
vn 0 -1 0
vn 0 -1 0
vn 0 0 -1
vn 0 0 -1
vn 0 0 -1
vn 0 0 -1
vn 0 1 0
vn 0 1 0
vn 0 1 0
vn 0 1 0
vn 0 0 1
vn 0 0 1
vn 0 0 1
vn 0 0 1
vn 1 0 0
vn 1 0 0
vn 1 0 0
vn 1 0 0
f 1/1/1 2/2/2 3/3/3
f 2/2/2 1/1/1 4/4/4
f 5/5/5 6/6/6 7/7/7
f 6/6/6 5/5/5 8/8/8
f 9/9/9 10/10/10 11/11/11
f 10/10/10 9/9/9 12/12/12
f 13/13/13 14/14/14 15/15/15
f 14/14/14 13/13/13 16/16/16
f 17/17/17 18/18/18 19/19/19
f 18/18/18 17/17/17 20/20/20
f 21/21/21 22/22/22 23/23/23
f 22/22/22 21/21/21 24/24/24
f 25/25/25 26/26/26 27/27/27
f 26/26/26 25/25/25 28/28/28
f 29/29/29 30/30/30 31/31/31
f 30/30/30 29/29/29 32/32/32
