# Rhino

mtllib BedSet_11_50.mtl
usemtl Default
v -0.34730575514500028 0.10142655406599999 0.27252063408100002
v -0.34742188282899988 0.13979769840269998 0.27252063408100002
v -0.34742188282899988 0.10230857099099999 0.27252063408100002
v -0.34730575514500028 0.14067971532789997 0.27252063408100002
v -0.34696528229800006 0.10060451974499998 0.27252063408100002
v -0.34730575514500028 0.10142655406599999 0.27252063408100002
v -0.34696528229800006 0.10060451974499998 -0.27277153858699998
v -0.34696528229800006 0.10060451974499998 0.27252063408100002
v -0.34730575514500028 0.10142655406599999 -0.27277153858699998
v -0.34742188282899988 0.10230857099099999 0.27252063408100002
v -0.34730575514500028 0.10142655406599999 -0.27277153858699998
v -0.34730575514500028 0.10142655406599999 0.27252063408100002
v -0.34742188282899988 0.10230857099099999 -0.27277153858699998
v -0.34742188282899988 0.13979769840269998 0.27252063408100002
v -0.34742188282899988 0.10230857099099999 -0.27277153858699998
v -0.34742188282899988 0.10230857099099999 0.27252063408100002
v -0.34742188282899988 0.13979769840269998 -0.27277153858699998
v -0.34730575514500028 0.14067971532789997 0.27252063408100002
v -0.34742188282899988 0.13979769840269998 -0.27277153858699998
v -0.34742188282899988 0.13979769840269998 0.27252063408100002
v -0.34730575514500028 0.14067971532789997 -0.27277153858699998
v -0.34696528229800006 0.14150174964919998 0.27252063408100002
v -0.34730575514500028 0.14067971532789997 -0.27277153858699998
v -0.34730575514500028 0.14067971532789997 0.27252063408100002
v -0.34696528229800006 0.14150174964919998 -0.27277153858699998
v -0.346423673466 0.14220756767509998 0.27252063408100002
v -0.34696528229800006 0.14150174964919998 -0.27277153858699998
v -0.34696528229800006 0.14150174964919998 0.27252063408100002
v -0.346423673466 0.14220756767509998 -0.27277153858699998
v -0.346423673466 0.14220756767509998 0.27252063408100002
v -0.34571783158300029 0.14274945597139999 -0.27277153858699998
v -0.346423673466 0.14220756767509998 -0.27277153858699998
v -0.34571783158300029 0.14274945597139999 0.27252063408100002
v -0.346423673466 0.14220756767509998 0.27252063408100002
v -0.34571783158300029 0.099357154233999989 0.27252063408100002
v -0.34571783158300029 0.14274945597139999 0.27252063408100002
v -0.346423673466 0.099898701719999983 0.27252063408100002
v -0.34696528229800006 0.14150174964919998 0.27252063408100002
v -0.34696528229800006 0.10060451974499998 0.27252063408100002
v -0.346423673466 0.099898701719999983 -0.27277153858699998
v -0.346423673466 0.099898701719999983 0.27252063408100002
v -0.34696528229800006 0.10060451974499998 -0.27277153858699998
v -0.34696528229800006 0.10060451974499998 -0.27277153858699998
v -0.346423673466 0.14220756767509998 -0.27277153858699998
v -0.346423673466 0.099898701719999983 -0.27277153858699998
v -0.34696528229800006 0.14150174964919998 -0.27277153858699998
v -0.34730575514500028 0.10142655406599999 -0.27277153858699998
v -0.34730575514500028 0.14067971532789997 -0.27277153858699998
v -0.34742188282899988 0.10230857099099999 -0.27277153858699998
v -0.34742188282899988 0.13979769840269998 -0.27277153858699998
v -0.34571783158300029 0.14274945597139999 -0.27277153858699998
v -0.34571783158300029 0.099357154233999989 -0.27277153858699998
v -0.34489586201600009 0.14308992540989998 -0.27277153858699998
v -0.34571783158300029 0.14274945597139999 0.27252063408100002
v -0.34489586201600009 0.14308992540989998 -0.27277153858699998
v -0.34571783158300029 0.14274945597139999 -0.27277153858699998
v -0.34489586201600009 0.14308992540989998 0.27252063408100002
v -0.34489586201600009 0.099016684793999984 0.27252063408100002
v -0.34489586201600009 0.14308992540989998 0.27252063408100002
v -0.34571783158300029 0.099357154233999989 0.27252063408100002
v -0.34489586201600009 0.099016684793999984 -0.27277153858699998
v -0.34489586201600009 0.099016684793999984 0.27252063408100002
v -0.34571783158300029 0.099357154233999989 -0.27277153858699998
v -0.346423673466 0.099898701719999983 0.27252063408100002
v -0.34571783158300029 0.099357154233999989 -0.27277153858699998
v -0.34571783158300029 0.099357154233999989 0.27252063408100002
v -0.346423673466 0.099898701719999983 -0.27277153858699998
v -0.34489586201600009 0.099016684793999984 -0.27277153858699998
v -0.34401378033699981 0.14320580089509999 -0.27277153858699998
v -0.34489586201600009 0.14308992540989998 0.27252063408100002
v -0.34401378033699981 0.14320580089509999 -0.27277153858699998
v -0.34489586201600009 0.14308992540989998 -0.27277153858699998
v -0.34401378033699981 0.14320580089509999 0.27252063408100002
v -0.34401378033699981 0.098900468499999991 0.27252063408100002
v -0.34401378033699981 0.14320580089509999 0.27252063408100002
v -0.34489586201600009 0.099016684793999984 -0.27277153858699998
v -0.34401378033699981 0.098900468499999991 0.27252063408100002
v -0.34489586201600009 0.099016684793999984 0.27252063408100002
v -0.34401378033699981 0.098900468499999991 -0.27277153858699998
v -0.34401378033699981 0.098900468499999991 -0.27277153858699998
v -0.34313169865899962 0.14308992540989998 -0.27277153858699998
v -0.34401378033699981 0.14320580089509999 -0.27277153858699998
v -0.34313169865899962 0.14308992540989998 0.27252063408100002
v -0.34313169865899962 0.14308992540989998 -0.27277153858699998
v -0.34401378033699981 0.14320580089509999 0.27252063408100002
v -0.34313169865899962 0.099016684793999984 0.27252063408100002
v -0.34313169865899962 0.14308992540989998 0.27252063408100002
v -0.34401378033699981 0.098900468499999991 -0.27277153858699998
v -0.34313169865899962 0.099016684793999984 0.27252063408100002
v -0.34401378033699981 0.098900468499999991 0.27252063408100002
v -0.34313169865899962 0.099016684793999984 -0.27277153858699998
v -0.34313169865899962 0.099016684793999984 -0.27277153858699998
v -0.34230972909100021 0.14274945597139999 -0.27277153858699998
v -0.34313169865899962 0.14308992540989998 0.27252063408100002
v -0.34230972909100021 0.14274945597139999 -0.27277153858699998
v -0.34313169865899962 0.14308992540989998 -0.27277153858699998
v -0.34230972909100021 0.14274945597139999 0.27252063408100002
v -0.34230972909100021 0.099357154233999989 0.27252063408100002
v -0.34230972909100021 0.14274945597139999 0.27252063408100002
v -0.34313169865899962 0.099016684793999984 0.27252063408100002
v -0.34230972909100021 0.099357154233999989 -0.27277153858699998
v -0.34230972909100021 0.099357154233999989 0.27252063408100002
v -0.34313169865899962 0.099016684793999984 -0.27277153858699998
v -0.34230972909100021 0.099357154233999989 -0.27277153858699998
v -0.34160388720799961 0.14220756767509998 -0.27277153858699998
v -0.34230972909100021 0.14274945597139999 0.27252063408100002
v -0.34160388720799961 0.14220756767509998 -0.27277153858699998
v -0.34230972909100021 0.14274945597139999 -0.27277153858699998
v -0.34160388720799961 0.14220756767509998 0.27252063408100002
v -0.34160388720799961 0.099898701719999983 0.27252063408100002
v -0.34160388720799961 0.14220756767509998 0.27252063408100002
v -0.34230972909100021 0.099357154233999989 0.27252063408100002
v -0.34160388720799961 0.099898701719999983 -0.27277153858699998
v -0.34160388720799961 0.099898701719999983 0.27252063408100002
v -0.34230972909100021 0.099357154233999989 -0.27277153858699998
v -0.34160388720799961 0.099898701719999983 -0.27277153858699998
v -0.34106227837600045 0.14150174964919998 -0.27277153858699998
v -0.34160388720799961 0.14220756767509998 -0.27277153858699998
v -0.34106227837600045 0.14150174964919998 0.27252063408100002
v -0.34106227837600045 0.14150174964919998 -0.27277153858699998
v -0.34160388720799961 0.14220756767509998 0.27252063408100002
v -0.34106227837600045 0.10060451974499998 0.27252063408100002
v -0.34106227837600045 0.14150174964919998 0.27252063408100002
v -0.34160388720799961 0.099898701719999983 0.27252063408100002
v -0.34106227837600045 0.10060451974499998 -0.27277153858699998
v -0.34106227837600045 0.10060451974499998 0.27252063408100002
v -0.34160388720799961 0.099898701719999983 -0.27277153858699998
v -0.34106227837600045 0.10060451974499998 -0.27277153858699998
v -0.3407217918969998 0.14067971532789997 -0.27277153858699998
v -0.34106227837600045 0.14150174964919998 -0.27277153858699998
v -0.3407217918969998 0.14067971532789997 0.27252063408100002
v -0.3407217918969998 0.14067971532789997 -0.27277153858699998
v -0.34106227837600045 0.14150174964919998 0.27252063408100002
v -0.3407217918969998 0.10142655406599999 0.27252063408100002
v -0.3407217918969998 0.14067971532789997 0.27252063408100002
v -0.34106227837600045 0.10060451974499998 0.27252063408100002
v -0.3407217918969998 0.10142655406599999 -0.27277153858699998
v -0.3407217918969998 0.10142655406599999 0.27252063408100002
v -0.34106227837600045 0.10060451974499998 -0.27277153858699998
v -0.3407217918969998 0.10142655406599999 -0.27277153858699998
v -0.34060567784499973 0.13979769840269998 -0.27277153858699998
v -0.3407217918969998 0.14067971532789997 -0.27277153858699998
v -0.34060567784499973 0.13979769840269998 0.27252063408100002
v -0.34060567784499973 0.13979769840269998 -0.27277153858699998
v -0.3407217918969998 0.14067971532789997 0.27252063408100002
v -0.34060567784499973 0.10230857099099999 0.27252063408100002
v -0.34060567784499973 0.13979769840269998 0.27252063408100002
v -0.3407217918969998 0.10142655406599999 0.27252063408100002
v -0.34060567784499973 0.10230857099099999 -0.27277153858699998
v -0.34060567784499973 0.10230857099099999 0.27252063408100002
v -0.3407217918969998 0.10142655406599999 -0.27277153858699998
v -0.34060567784499973 0.10230857099099999 -0.27277153858699998
v -0.34060567784499973 0.13979769840269998 -0.27277153858699998
v -0.34060567784499973 0.10230857099099999 0.27252063408100002
v -0.34060567784499973 0.10230857099099999 -0.27277153858699998
v -0.34060567784499973 0.13979769840269998 0.27252063408100002
vt 0.013415000401437283 0.2918039858341217
vt 0 4.7244100570678711
vt 0 0.3937009871006012
vt 0.013415000401437283 4.8263101577758789
vt 0.052745901048183441 0.1968500018119812
vt 70.866096496582031 0.26445800065994263
vt 0 0.16168099641799927
vt 70.866096496582031 0.16168099641799927
vt 0 0.26445800065994263
vt 70.866096496582031 0.39033299684524536
vt 0 0.287555992603302
vt 70.866096496582031 0.287555992603302
vt 0 0.39033299684524536
vt 70.866096496582031 4.7244100570678711
vt 0 0.3937009871006012
vt 70.866096496582031 0.3937009871006012
vt 0 4.7244100570678711
vt 70.866096496582031 4.7867698669433594
vt 0 4.6839900016784668
vt 70.866096496582031 4.6839900016784668
vt 0 4.7867698669433594
vt 70.866096496582031 4.5668401718139648
vt 0 4.4640598297119141
vt 70.866096496582031 4.4640598297119141
vt 0 4.5668401718139648
vt 70.866096496582031 4.039179801940918
vt 0 3.9364099502563477
vt 70.866096496582031 3.9364099502563477
vt 0 4.039179801940918
vt 70.866096496582031 3.1369900703430176
vt 0 3.2397699356079102
vt 0 3.1369900703430176
vt 70.866096496582031 3.2397699356079102
vt 0.11531200259923935 5.0027999877929688
vt 0.1968500018119812 0.052745901048183441
vt 0.1968500018119812 5.0653600692749023
vt 0.11531200259923935 0.11531200259923935
vt 0.052745901048183441 4.921259880065918
vt 70.866096496582031 0.12406200170516968
vt 0 0.021285699680447578
vt 70.866096496582031 0.021285699680447578
vt 0 0.12406200170516968
vt -0.052745901048183441 0.1968500018119812
vt -0.11531200259923935 5.0027999877929688
vt -0.11531200259923935 0.11531200259923935
vt -0.052745901048183441 4.921259880065918
vt -0.013415000401437283 0.2918039858341217
vt -0.013415000401437283 4.8263101577758789
vt 0 0.3937009871006012
vt 0 4.7244100570678711
vt -0.1968500018119812 5.0653600692749023
vt -0.1968500018119812 0.052745901048183441
vt -0.2918039858341217 5.1047000885009766
vt 70.866096496582031 2.1203000545501709
vt 0 2.2230699062347412
vt 0 2.1203000545501709
vt 70.866096496582031 2.2230699062347412
vt 0.2918039858341217 0.013415000401437283
vt 0.2918039858341217 5.1047000885009766
vt 70.866096496582031 -0.16168099641799927
vt 0 -0.26445800065994263
vt 70.866096496582031 -0.26445800065994263
vt 0 -0.16168099641799927
vt 70.866096496582031 -0.021285699680447578
vt 0 -0.12406200170516968
vt 70.866096496582031 -0.12406200170516968
vt 0 -0.021285699680447578
vt -0.2918039858341217 0.013415000401437283
vt -0.3937009871006012 5.118110179901123
vt 70.866096496582031 0.95560401678085327
vt 0 1.0583800077438354
vt 0 0.95560401678085327
vt 70.866096496582031 1.0583800077438354
vt 0.3937009871006012 0
vt 0.3937009871006012 5.118110179901123
vt 0 -0.287555992603302
vt 70.866096496582031 -0.39033299684524536
vt 70.866096496582031 -0.287555992603302
vt 0 -0.39033299684524536
vt -0.3937009871006012 0
vt -0.49559798836708069 5.1047000885009766
vt 0 0.27771499752998352
vt -70.866096496582031 0.17493799328804016
vt 0 0.17493799328804016
vt -70.866096496582031 0.27771499752998352
vt 0.49559798836708069 0.013415000401437283
vt 0.49559798836708069 5.1047000885009766
vt 0 0.39033299684524536
vt -70.866096496582031 0.49310898780822754
vt -70.866096496582031 0.39033299684524536
vt 0 0.49310898780822754
vt -0.49559798836708069 0.013415000401437283
vt -0.59055101871490479 5.0653600692749023
vt -70.866096496582031 1.4956099987030029
vt 0 1.3928300142288208
vt 0 1.4956099987030029
vt -70.866096496582031 1.3928300142288208
vt 0.59055101871490479 0.052745901048183441
vt 0.59055101871490479 5.0653600692749023
vt -70.866096496582031 0.46300700306892395
vt 0 0.56578302383422852
vt -70.866096496582031 0.56578302383422852
vt 0 0.46300700306892395
vt -0.59055101871490479 0.052745901048183441
vt -0.67208898067474365 5.0027999877929688
vt -70.866096496582031 2.6150801181793213
vt 0 2.5123100280761719
vt 0 2.6150801181793213
vt -70.866096496582031 2.5123100280761719
vt 0.67208898067474365 0.11531200259923935
vt 0.67208898067474365 5.0027999877929688
vt -70.866096496582031 0.50062501430511475
vt 0 0.60340201854705811
vt -70.866096496582031 0.60340201854705811
vt 0 0.50062501430511475
vt -0.67208898067474365 0.11531200259923935
vt -0.73465597629547119 4.921259880065918
vt 0 3.5598399639129639
vt -70.866096496582031 3.4570701122283936
vt 0 3.4570701122283936
vt -70.866096496582031 3.5598399639129639
vt 0.73465597629547119 0.1968500018119812
vt 0.73465597629547119 4.921259880065918
vt -70.866096496582031 0.50062501430511475
vt 0 0.60340201854705811
vt -70.866096496582031 0.60340201854705811
vt 0 0.50062501430511475
vt -0.73465597629547119 0.1968500018119812
vt -0.77398699522018433 4.8263101577758789
vt 0 4.265510082244873
vt -70.866096496582031 4.1627302169799805
vt 0 4.1627302169799805
vt -70.866096496582031 4.265510082244873
vt 0.77398699522018433 0.2918039858341217
vt 0.77398699522018433 4.8263101577758789
vt -70.866096496582031 0.46300700306892395
vt 0 0.56578302383422852
vt -70.866096496582031 0.56578302383422852
vt 0 0.46300700306892395
vt -0.77398699522018433 0.2918039858341217
vt -0.78740197420120239 4.7244100570678711
vt 0 4.6839900016784668
vt -70.866096496582031 4.5812101364135742
vt 0 4.5812101364135742
vt -70.866096496582031 4.6839900016784668
vt 0.78740197420120239 0.3937009871006012
vt 0.78740197420120239 4.7244100570678711
vt -70.866096496582031 0.39033299684524536
vt 0 0.49310898780822754
vt -70.866096496582031 0.49310898780822754
vt 0 0.39033299684524536
vt -0.78740197420120239 0.3937009871006012
vt 0 4.7244100570678711
vt -70.866096496582031 0.3937009871006012
vt 0 0.3937009871006012
vt -70.866096496582031 4.7244100570678711
vn 0 0 1
vn 0 0 1
vn 0 0 1
vn 0 0 1
vn 0 0 1
vn -0.92388945817947388 -0.38265952467918396 0
vn -0.92388945817947388 -0.38265952467918396 0
vn -0.92388945817947388 -0.38265952467918396 0
vn -0.92388945817947388 -0.38265952467918396 0
vn -0.9914436936378479 -0.13053497672080994 0
vn -0.9914436936378479 -0.13053497672080994 0
vn -0.9914436936378479 -0.13053497672080994 0
vn -0.9914436936378479 -0.13053497672080994 0
vn -1 0 0
vn -1 0 0
vn -1 0 0
vn -1 0 0
vn -0.9914436936378479 0.13053497672080994 0
vn -0.9914436936378479 0.13053497672080994 0
vn -0.9914436936378479 0.13053497672080994 0
vn -0.9914436936378479 0.13053497672080994 0
vn -0.92388945817947388 0.38265952467918396 0
vn -0.92388945817947388 0.38265952467918396 0
vn -0.92388945817947388 0.38265952467918396 0
vn -0.92388945817947388 0.38265952467918396 0
vn -0.79334485530853271 0.60877245664596558 0
vn -0.79334485530853271 0.60877245664596558 0
vn -0.79334485530853271 0.60877245664596558 0
vn -0.79334485530853271 0.60877245664596558 0
vn -0.60895717144012451 0.79320311546325684 0
vn -0.60895717144012451 0.79320311546325684 0
vn -0.60895717144012451 0.79320311546325684 0
vn -0.60895717144012451 0.79320311546325684 0
vn 0 0 1
vn 0 0 1
vn 0 0 1
vn 0 0 1
vn 0 0 1
vn -0.79334485530853271 -0.60877245664596558 0
vn -0.79334485530853271 -0.60877245664596558 0
vn -0.79334485530853271 -0.60877245664596558 0
vn -0.79334485530853271 -0.60877245664596558 0
vn 0 0 -1
vn 0 0 -1
vn 0 0 -1
vn 0 0 -1
vn 0 0 -1
vn 0 0 -1
vn 0 0 -1
vn 0 0 -1
vn 0 0 -1
vn 0 0 -1
vn 0 0 -1
vn -0.38268199563026428 0.92388015985488892 0
vn -0.38268199563026428 0.92388015985488892 0
vn -0.38268199563026428 0.92388015985488892 0
vn -0.38268199563026428 0.92388015985488892 0
vn 0 0 1
vn 0 0 1
vn -0.38268199563026428 -0.92388010025024414 0
vn -0.38268199563026428 -0.92388010025024414 0
vn -0.38268199563026428 -0.92388010025024414 0
vn -0.38268199563026428 -0.92388010025024414 0
vn -0.60871613025665283 -0.79338812828063965 0
vn -0.60871613025665283 -0.79338812828063965 0
vn -0.60871613025665283 -0.79338812828063965 0
vn -0.60871613025665283 -0.79338812828063965 0
vn 0 0 -1
vn 0 0 -1
vn -0.13024690747261047 0.99148160219192505 0
vn -0.13024690747261047 0.99148160219192505 0
vn -0.13024690747261047 0.99148160219192505 0
vn -0.13024690747261047 0.99148160219192505 0
vn 0 0 1
vn 0 0 1
vn -0.130623459815979 -0.9914320707321167 0
vn -0.130623459815979 -0.9914320707321167 0
vn -0.130623459815979 -0.9914320707321167 0
vn -0.130623459815979 -0.9914320707321167 0
vn 0 0 -1
vn 0 0 -1
vn 0.13024690747261047 0.99148160219192505 0
vn 0.13024690747261047 0.99148160219192505 0
vn 0.13024690747261047 0.99148160219192505 0
vn 0.13024690747261047 0.99148160219192505 0
vn 0 0 1
vn 0 0 1
vn 0.130623459815979 -0.9914320707321167 0
vn 0.130623459815979 -0.9914320707321167 0
vn 0.130623459815979 -0.9914320707321167 0
vn 0.130623459815979 -0.9914320707321167 0
vn 0 0 -1
vn 0 0 -1
vn 0.38268199563026428 0.92388015985488892 0
vn 0.38268199563026428 0.92388015985488892 0
vn 0.38268199563026428 0.92388015985488892 0
vn 0.38268199563026428 0.92388015985488892 0
vn 0 0 1
vn 0 0 1
vn 0.38268199563026428 -0.92388010025024414 0
vn 0.38268199563026428 -0.92388010025024414 0
vn 0.38268199563026428 -0.92388010025024414 0
vn 0.38268199563026428 -0.92388010025024414 0
vn 0 0 -1
vn 0 0 -1
vn 0.60895717144012451 0.79320311546325684 0
vn 0.60895717144012451 0.79320311546325684 0
vn 0.60895717144012451 0.79320311546325684 0
vn 0.60895717144012451 0.79320311546325684 0
vn 0 0 1
vn 0 0 1
vn 0.60871613025665283 -0.79338812828063965 0
vn 0.60871613025665283 -0.79338812828063965 0
vn 0.60871613025665283 -0.79338812828063965 0
vn 0.60871613025665283 -0.79338812828063965 0
vn 0 0 -1
vn 0 0 -1
vn 0.79334485530853271 0.60877245664596558 0
vn 0.79334485530853271 0.60877245664596558 0
vn 0.79334485530853271 0.60877245664596558 0
vn 0.79334485530853271 0.60877245664596558 0
vn 0 0 1
vn 0 0 1
vn 0.79334485530853271 -0.60877245664596558 0
vn 0.79334485530853271 -0.60877245664596558 0
vn 0.79334485530853271 -0.60877245664596558 0
vn 0.79334485530853271 -0.60877245664596558 0
vn 0 0 -1
vn 0 0 -1
vn 0.92388403415679932 0.38267260789871216 0
vn 0.92388403415679932 0.38267260789871216 0
vn 0.92388403415679932 0.38267260789871216 0
vn 0.92388403415679932 0.38267260789871216 0
vn 0 0 1
vn 0 0 1
vn 0.92388403415679932 -0.38267260789871216 0
vn 0.92388403415679932 -0.38267260789871216 0
vn 0.92388403415679932 -0.38267260789871216 0
vn 0.92388403415679932 -0.38267260789871216 0
vn 0 0 -1
vn 0 0 -1
vn 0.99144566059112549 0.13051991164684296 0
vn 0.99144566059112549 0.13051991164684296 0
vn 0.99144566059112549 0.13051991164684296 0
vn 0.99144566059112549 0.13051991164684296 0
vn 0 0 1
vn 0 0 1
vn 0.99144566059112549 -0.13051991164684296 0
vn 0.99144566059112549 -0.13051991164684296 0
vn 0.99144566059112549 -0.13051991164684296 0
vn 0.99144566059112549 -0.13051991164684296 0
vn 0 0 -1
vn 1 0 0
vn 1 0 0
vn 1 0 0
vn 1 0 0
f 1/1/1 2/2/2 3/3/3
f 2/2/2 1/1/1 4/4/4
f 4/4/4 1/1/1 5/5/5
f 6/6/6 7/7/7 8/8/8
f 7/7/7 6/6/6 9/9/9
f 10/10/10 11/11/11 12/12/12
f 11/11/11 10/10/10 13/13/13
f 14/14/14 15/15/15 16/16/16
f 15/15/15 14/14/14 17/17/17
f 18/18/18 19/19/19 20/20/20
f 19/19/19 18/18/18 21/21/21
f 22/22/22 23/23/23 24/24/24
f 23/23/23 22/22/22 25/25/25
f 26/26/26 27/27/27 28/28/28
f 27/27/27 26/26/26 29/29/29
f 30/30/30 31/31/31 32/32/32
f 31/31/31 30/30/30 33/33/33
f 34/34/34 35/35/35 36/36/36
f 34/34/34 37/37/37 35/35/35
f 38/38/38 37/37/37 34/34/34
f 38/38/38 5/5/5 37/37/37
f 4/4/4 5/5/5 38/38/38
f 39/39/39 40/40/40 41/41/41
f 40/40/40 39/39/39 42/42/42
f 43/43/43 44/44/44 45/45/45
f 43/43/43 46/46/46 44/44/44
f 47/47/47 46/46/46 43/43/43
f 47/47/47 48/48/48 46/46/46
f 49/49/49 48/48/48 47/47/47
f 48/48/48 49/49/49 50/50/50
f 45/45/45 44/44/44 51/51/51
f 45/45/45 51/51/51 52/52/52
f 52/52/52 51/51/51 53/53/53
f 54/54/54 55/55/55 56/56/56
f 55/55/55 54/54/54 57/57/57
f 36/36/36 58/58/58 59/59/59
f 36/36/36 35/35/35 58/58/58
f 60/60/60 61/61/61 62/62/62
f 61/61/61 60/60/60 63/63/63
f 64/64/64 65/65/65 66/66/66
f 65/65/65 64/64/64 67/67/67
f 52/52/52 53/53/53 68/68/68
f 68/68/68 53/53/53 69/69/69
f 70/70/70 71/71/71 72/72/72
f 71/71/71 70/70/70 73/73/73
f 59/59/59 74/74/74 75/75/75
f 59/59/59 58/58/58 74/74/74
f 76/76/76 77/77/77 78/78/78
f 77/77/77 76/76/76 79/79/79
f 68/68/68 69/69/69 80/80/80
f 80/80/80 69/69/69 81/81/81
f 82/82/82 83/83/83 84/84/84
f 83/83/83 82/82/82 85/85/85
f 75/75/75 86/86/86 87/87/87
f 75/75/75 74/74/74 86/86/86
f 88/88/88 89/89/89 90/90/90
f 89/89/89 88/88/88 91/91/91
f 80/80/80 81/81/81 92/92/92
f 92/92/92 81/81/81 93/93/93
f 94/94/94 95/95/95 96/96/96
f 95/95/95 94/94/94 97/97/97
f 87/87/87 98/98/98 99/99/99
f 87/87/87 86/86/86 98/98/98
f 100/100/100 101/101/101 102/102/102
f 101/101/101 100/100/100 103/103/103
f 92/92/92 93/93/93 104/104/104
f 104/104/104 93/93/93 105/105/105
f 106/106/106 107/107/107 108/108/108
f 107/107/107 106/106/106 109/109/109
f 99/99/99 110/110/110 111/111/111
f 99/99/99 98/98/98 110/110/110
f 112/112/112 113/113/113 114/114/114
f 113/113/113 112/112/112 115/115/115
f 104/104/104 105/105/105 116/116/116
f 116/116/116 105/105/105 117/117/117
f 118/118/118 119/119/119 120/120/120
f 119/119/119 118/118/118 121/121/121
f 111/111/111 122/122/122 123/123/123
f 111/111/111 110/110/110 122/122/122
f 124/124/124 125/125/125 126/126/126
f 125/125/125 124/124/124 127/127/127
f 116/116/116 117/117/117 128/128/128
f 128/128/128 117/117/117 129/129/129
f 130/130/130 131/131/131 132/132/132
f 131/131/131 130/130/130 133/133/133
f 123/123/123 134/134/134 135/135/135
f 123/123/123 122/122/122 134/134/134
f 136/136/136 137/137/137 138/138/138
f 137/137/137 136/136/136 139/139/139
f 128/128/128 129/129/129 140/140/140
f 140/140/140 129/129/129 141/141/141
f 142/142/142 143/143/143 144/144/144
f 143/143/143 142/142/142 145/145/145
f 135/135/135 146/146/146 147/147/147
f 135/135/135 134/134/134 146/146/146
f 148/148/148 149/149/149 150/150/150
f 149/149/149 148/148/148 151/151/151
f 140/140/140 141/141/141 152/152/152
f 153/153/153 154/154/154 155/155/155
f 154/154/154 153/153/153 156/156/156
