# Rhino

mtllib BedSet_19_15.mtl
usemtl Default
v 0.26731699342400006 0.34469569814189999 0.29181283455300022
v 0.26731699342400006 0.32466918544039997 0.29181283455300022
v 0.27017819313299984 0.34469004235509998 0.29181283455300022
v 0.26731699342400006 0.34469569814189999 -0.29181283455300022
v 0.26731699342400006 0.32466918544039997 0.29181283455300022
v 0.26731699342400006 0.34469569814189999 0.29181283455300022
v 0.26731699342400006 0.32466918544039997 -0.29181283455300022
v 0.26731699342400006 0.34469569814189999 -0.29181283455300022
v 0.27303876442099995 0.32466918544039997 -0.29181283455300022
v 0.26731699342400006 0.32466918544039997 -0.29181283455300022
v 0.27303876442099995 0.34469569814189999 -0.29181283455300022
v 0.27017819313299984 0.34469569814189999 -0.29181283455300022
v 0.27303876442099995 0.34469569814189999 0.29181283455300022
v 0.27303876442099995 0.32466918544039997 -0.29181283455300022
v 0.27303876442099995 0.34469569814189999 -0.29181283455300022
v 0.27303876442099995 0.32466918544039997 0.29181283455300022
v 0.27303876442099995 0.34469569814189999 0.29181283455300022
v 0.27303876442099995 0.32466918544039997 0.29181283455300022
v 0.26731699342400006 0.32466918544039997 0.29181283455300022
v 0.27303876442099995 0.32466918544039997 -0.29181283455300022
v 0.27303876442099995 0.32466918544039997 0.29181283455300022
v 0.26731699342400006 0.32466918544039997 -0.29181283455300022
v 0.26731699342400006 0.34469569814189999 0.29181283455300022
v 0.26731699342400006 0.34469569814189999 -0.29181283455300022
v 0.27017787892249956 0.34469287024849998 0
v 0.27017819313299984 0.34469004235509998 0.29181283455300022
v 0.27017819313299984 0.34469569814189999 -0.29181283455300022
v 0.27303876442099995 0.34469569814189999 0.29181283455300022
v 0.27303876442099995 0.34469569814189999 -0.29181283455300022
vt 74.754302978515625 47.435001373291016
vt 74.754302978515625 44.679100036621094
vt 75.148002624511719 47.434101104736328
vt -81.102401733398438 47.435001373291016
vt -0.7874000072479248 44.679100036621094
vt -0.7874000072479248 47.435001373291016
vt -81.102401733398438 44.679100036621094
vt -74.754302978515625 47.435001373291016
vt -75.541702270507812 44.679100036621094
vt -74.754302978515625 44.679100036621094
vt -75.541702270507812 47.435001373291016
vt -75.148002624511719 47.435001373291016
vt 0.7874000072479248 47.435001373291016
vt 81.102401733398438 44.679100036621094
vt 81.102401733398438 47.435001373291016
vt 0.7874000072479248 44.679100036621094
vt 75.541702270507812 47.435001373291016
vt 75.541702270507812 44.679100036621094
vt -74.754302978515625 0.7874000072479248
vt -75.541702270507812 81.102401733398438
vt -75.541702270507812 0.7874000072479248
vt -74.754302978515625 81.102401733398438
vt 1 1
vt 1 0
vt 0.5 0.5
vt 0.49994507431983948 1
vt 0.49994507431983948 0
vt 0 1
vt 0 0
vn 0 0 1
vn 0 0 1
vn 0 0 1
vn -1 0 0
vn -1 0 0
vn -1 0 0
vn -1 0 0
vn 0 0 -1
vn 0 0 -1
vn 0 0 -1
vn 0 0 -1
vn 0 0 -1
vn 1 0 0
vn 1 0 0
vn 1 0 0
vn 1 0 0
vn 0 0 1
vn 0 0 1
vn 0 -1 0
vn 0 -1 0
vn 0 -1 0
vn 0 -1 0
vn -0.0019771489314734936 0.99999803304672241 9.6928879429469816E-06
vn -0.0019771489314734936 0.99999803304672241 9.6928879429469816E-06
vn -0.0019771489314734936 0.99999803304672241 9.6928879429469816E-06
vn -0.0019771489314734936 0.99999803304672241 9.6928879429469816E-06
vn -0.0019771489314734936 0.99999803304672241 9.6928879429469816E-06
vn -0.0019771489314734936 0.99999803304672241 9.6928879429469816E-06
vn -0.0019771489314734936 0.99999803304672241 9.6928879429469816E-06
f 1/1/1 2/2/2 3/3/3
f 4/4/4 5/5/5 6/6/6
f 5/5/5 4/4/4 7/7/7
f 8/8/8 9/9/9 10/10/10
f 9/9/9 8/8/8 11/11/11
f 11/11/11 8/8/8 12/12/12
f 13/13/13 14/14/14 15/15/15
f 14/14/14 13/13/13 16/16/16
f 17/17/17 2/2/2 18/18/18
f 2/2/2 17/17/17 3/3/3
f 19/19/19 20/20/20 21/21/21
f 20/20/20 19/19/19 22/22/22
f 26/26/26 28/28/28 25/25/25
f 29/29/29 25/25/25 28/28/28
f 25/25/25 27/27/27 24/24/24
f 26/26/26 25/25/25 23/23/23
f 24/24/24 23/23/23 25/25/25
f 29/29/29 27/27/27 25/25/25
