# Rhino

mtllib BedSet_11_12.mtl
usemtl Default
v 0.27612795720500038 0.10333100173899999 0.013406691339900023
v 0.29657657215699995 0.10333100173899999 0.020222896323800033
v 0.27612795720500038 0.10333100173899999 0.020222896323800033
v 0.29657657215699995 0.10333100173899999 0.013406691339900023
v 0.29657657215699995 0.10333100173899999 -0.00022571862804299236
v 0.27612795720500038 0.10333100173899999 -0.00022571862804299236
v 0.27612795720500038 0.10333100173899999 0.013406691339900023
v 0.27612795720500038 0.11048801697199999 0.272421799109
v 0.27612795720500038 0.10333100173899999 -0.00022571862804299236
v 0.27612795720500038 0.10333100173899999 0.020222896323800033
v 0.27612795720500038 0.10333100173899999 0.25197318415699999
v 0.27612795720500038 0.10333100173899999 0.258789389142
v 0.27612795720500038 0.10333100173899999 0.272421799109
v 0.27612795720500038 0.10333100173899999 0.258789389142
v 0.29657657215699995 0.10333100173899999 0.272421799109
v 0.27612795720500038 0.10333100173899999 0.272421799109
v 0.29657657215699995 0.10333100173899999 0.258789389142
v 0.27612795720500038 0.10333100173899999 0.25197318415699999
v 0.29657657215699995 0.10333100173899999 0.25197318415699999
v 0.29657657215699995 0.10333100173899999 0.020222896323800033
v 0.29657657215699995 0.11048801697199999 -0.00022571862804299236
v 0.29657657215699995 0.10333100173899999 0.25197318415699999
v 0.29657657215699995 0.10333100173899999 0.013406691339900023
v 0.29657657215699995 0.10333100173899999 -0.00022571862804299236
v 0.27612795720500038 0.10333100173899999 -0.00022571862804299236
v 0.29657657215699995 0.11048801697199999 -0.00022571862804299236
v 0.29657657215699995 0.10333100173899999 -0.00022571862804299236
v 0.27612795720500038 0.11048801697199999 -0.00022571862804299236
v 0.27612795720500038 0.11048801697199999 -0.00022571862804299236
v 0.27612795720500038 0.11048801697199999 0.272421799109
v 0.29657657215699995 0.11048801697199999 -0.00022571862804299236
v 0.27612795720500038 0.11048801697199999 -0.00022571862804299236
v 0.29657657215699995 0.11048801697199999 0.272421799109
v 0.29657657215699995 0.10333100173899999 0.272421799109
v 0.29657657215699995 0.11048801697199999 0.272421799109
v 0.29657657215699995 0.10333100173899999 0.258789389142
vt -0.16314500570297241 2.0201799869537354
vt -0.17626799643039703 2.0989201068878174
vt -0.17626799643039703 2.0201799869537354
vt -0.16314500570297241 2.0989201068878174
vt -0.13689799606800079 2.0989201068878174
vt -0.13689799606800079 2.0201799869537354
vt 0.16314500570297241 0.62899601459503174
vt 0.66183298826217651 0.65655601024627686
vt 0.13689799606800079 0.62899601459503174
vt 0.17626799643039703 0.62899601459503174
vt 0.62246298789978027 0.62899601459503174
vt 0.63558602333068848 0.62899601459503174
vt 0.66183298826217651 0.62899601459503174
vt -0.63558602333068848 2.0201799869537354
vt -0.66183298826217651 2.0989201068878174
vt -0.66183298826217651 2.0201799869537354
vt -0.63558602333068848 2.0989201068878174
vt -0.62246298789978027 2.0201799869537354
vt -0.62246298789978027 2.0989201068878174
vt -0.17626799643039703 0.62899601459503174
vt -0.13689799606800079 0.65655601024627686
vt -0.62246298789978027 0.62899601459503174
vt -0.16314500570297241 0.62899601459503174
vt -0.13689799606800079 0.62899601459503174
vt -1.0100899934768677 0.62899601459503174
vt -1.0494600534439087 0.65655601024627686
vt -1.0494600534439087 0.62899601459503174
vt -1.0100899934768677 0.65655601024627686
vt 0.13689799606800079 0.65655601024627686
vt 0.66183298826217651 2.0201799869537354
vt 0.13689799606800079 2.0989201068878174
vt 0.13689799606800079 2.0201799869537354
vt 0.66183298826217651 2.0989201068878174
vt -0.66183298826217651 0.62899601459503174
vt -0.66183298826217651 0.65655601024627686
vt -0.63558602333068848 0.62899601459503174
vn 0 -1 0
vn 0 -1 0
vn 0 -1 0
vn 0 -1 0
vn 0 -1 0
vn 0 -1 0
vn -1 0 0
vn -1 0 0
vn -1 0 0
vn -1 0 0
vn -1 0 0
vn -1 0 0
vn -1 0 0
vn 0 -1 0
vn 0 -1 0
vn 0 -1 0
vn 0 -1 0
vn 0 -1 0
vn 0 -1 0
vn 1 0 0
vn 1 0 0
vn 1 0 0
vn 1 0 0
vn 1 0 0
vn 0 0 -1
vn 0 0 -1
vn 0 0 -1
vn 0 0 -1
vn -1 0 0
vn 0 1 0
vn 0 1 0
vn 0 1 0
vn 0 1 0
vn 1 0 0
vn 1 0 0
vn 1 0 0
f 1/1/1 2/2/2 3/3/3
f 1/1/1 4/4/4 2/2/2
f 1/1/1 5/5/5 4/4/4
f 5/5/5 1/1/1 6/6/6
f 7/7/7 8/8/8 9/9/9
f 10/10/10 8/8/8 7/7/7
f 11/11/11 8/8/8 10/10/10
f 12/12/12 8/8/8 11/11/11
f 8/8/8 12/12/12 13/13/13
f 14/14/14 15/15/15 16/16/16
f 14/14/14 17/17/17 15/15/15
f 18/18/18 17/17/17 14/14/14
f 18/18/18 19/19/19 17/17/17
f 3/3/3 19/19/19 18/18/18
f 3/3/3 2/2/2 19/19/19
f 20/20/20 21/21/21 22/22/22
f 23/23/23 21/21/21 20/20/20
f 21/21/21 23/23/23 24/24/24
f 25/25/25 26/26/26 27/27/27
f 26/26/26 25/25/25 28/28/28
f 9/9/9 8/8/8 29/29/29
f 30/30/30 31/31/31 32/32/32
f 31/31/31 30/30/30 33/33/33
f 34/34/34 21/21/21 35/35/35
f 36/36/36 21/21/21 34/34/34
f 22/22/22 21/21/21 36/36/36
