# Rhino

mtllib BedSet_16_51.mtl
usemtl Default
v 0.23791436855699999 0.098222345095589997 0.27567836739500007
v 0.23791436855699999 0.098222345095589997 0.26765975396800001
v 0.0008021133154860749 0.098222345095589997 0.27567836739500007
v 0.23791436855699999 0.098222345095589997 0.26765975396800001
v 0.23791436855699999 0.098222345095589997 0.27567836739500007
v 0.23914399567000011 0.098121555987860001 0.26765975396800001
v 0.23914399567000011 0.098121555987860001 0.27567836739500007
v 0.23914399567000011 0.098121555987860001 0.26765975396800001
v 0.23914399567000011 0.098121555987860001 0.27567836739500007
v 0.24033918650599961 0.097821708392469994 0.26765975396800001
v 0.24033918650599961 0.097821708392469994 0.27567836739500007
v 0.24033918650599961 0.097821708392469994 0.26765975396800001
v 0.24033918650599961 0.097821708392469994 0.27567836739500007
v 0.24147054424000025 0.097331201401619993 0.26765975396800001
v 0.24147054424000025 0.097331201401619993 0.27567836739500007
v 0.24147054424000025 0.097331201401619993 0.26765975396800001
v 0.24147054424000025 0.097331201401619993 0.27567836739500007
v 0.24250615232099992 0.096662633653869998 0.26765975396800001
v 0.24250615232099992 0.096662633653869998 0.27567836739500007
v 0.24250615232099992 0.096662633653869998 0.26765975396800001
v 0.24250615232099992 0.096662633653869998 0.27567836739500007
v 0.24341997356500045 0.095833643242999991 0.26765975396800001
v 0.24341997356500045 0.095833643242999991 0.27567836739500007
v 0.24341997356500045 0.095833643242999991 0.27567836739500007
v 0.2441851308740004 0.094866907718250001 0.27567836739500007
v 0.24341997356500045 0.095833643242999991 0.26765975396800001
v 0.24341997356500045 0.095833643242999991 0.27567836739500007
v 0.0008021133154860749 0.098222345095589997 0.27567836739500007
v 0.2441851308740004 0.094866907718250001 0.27567836739500007
v 0.24250615232099992 0.096662633653869998 0.27567836739500007
v 0.24147054424000025 0.097331201401619993 0.27567836739500007
v 0.24033918650599961 0.097821708392469994 0.27567836739500007
v 0.23914399567000011 0.098121555987860001 0.27567836739500007
v 0.23791436855699999 0.098222345095589997 0.27567836739500007
v 0.24772870791900026 0.089551122196049993 0.27567836739500007
v 0.24849470513800043 0.08858438667130876 0.27567836739500007
v 0.24940768647099976 0.087756236169669002 0.27567836739500007
v 0.25044329455300041 0.087086828512659989 0.27567836739500007
v 0.25157465228700016 0.08659632152183 0.27567836739500007
v 0.25276984312299966 0.086296473926399997 0.27567836739500007
v 0.25399863032699965 0.086195684818699991 0.27567836739500007
v 0.0008021133154860749 0.028866000446799996 0.27567836739500007
v 0.39609699373500007 0.086195684818699991 0.27567836739500007
v 0.39609699373500007 0.028866000446799996 0.27567836739500007
v 0.39609699373500007 0.086195684818699991 0.27567836739500007
v 0.39609699373500007 0.028866000446799996 0.27567836739500007
v 0.39609699373500007 0.086195684818699991 0.26765975396800001
v 0.39609699373500007 0.028866000446799996 0.26765975396800001
v 0.39609699373500007 0.028866000446799996 0.26765975396800001
v 0.0008021133154860749 0.028866000446799996 0.26765975396800001
v 0.39609699373500007 0.086195684818699991 0.26765975396800001
v 0.39609699373500007 0.028866000446799996 0.26765975396800001
v 0.39609699373500007 0.028866000446799996 0.27567836739500007
v 0.0008021133154860749 0.028866000446799996 0.26765975396800001
v 0.0008021133154860749 0.028866000446799996 0.27567836739500007
v 0.0008021133154860749 0.028866000446799996 0.26765975396800001
v 0.0008021133154860749 0.028866000446799996 0.27567836739500007
v 0.0008021133154860749 0.098222345095589997 0.26765975396800001
v 0.0008021133154860749 0.098222345095589997 0.27567836739500007
v 0.0008021133154860749 0.098222345095589997 0.26765975396800001
v 0.23791436855699999 0.098222345095589997 0.26765975396800001
v 0.23914399567000011 0.098121555987860001 0.26765975396800001
v 0.0008021133154860749 0.098222345095589997 0.26765975396800001
v 0.24033918650599961 0.097821708392469994 0.26765975396800001
v 0.24147054424000025 0.097331201401619993 0.26765975396800001
v 0.24250615232099992 0.096662633653869998 0.26765975396800001
v 0.24341997356500045 0.095833643242999991 0.26765975396800001
v 0.2441851308740004 0.094866907718250001 0.26765975396800001
v 0.2441851308740004 0.094866907718250001 0.26765975396800001
v 0.2441851308740004 0.094866907718250001 0.27567836739500007
v 0.24772870791900026 0.089551122196049993 0.27567836739500007
v 0.2441851308740004 0.094866907718250001 0.26765975396800001
v 0.24772870791900026 0.089551122196049993 0.26765975396800001
v 0.24772870791900026 0.089551122196049993 0.26765975396800001
v 0.24849470513800043 0.08858438667130876 0.26765975396800001
v 0.24772870791900026 0.089551122196049993 0.26765975396800001
v 0.24772870791900026 0.089551122196049993 0.27567836739500007
v 0.24849470513800043 0.08858438667130876 0.26765975396800001
v 0.24849470513800043 0.08858438667130876 0.27567836739500007
v 0.24849470513800043 0.08858438667130876 0.27567836739500007
v 0.24940768647099976 0.087756236169669002 0.27567836739500007
v 0.24849470513800043 0.08858438667130876 0.26765975396800001
v 0.24940768647099976 0.087756236169669002 0.26765975396800001
v 0.24940768647099976 0.087756236169669002 0.26765975396800001
v 0.25044329455300041 0.087086828512659989 0.26765975396800001
v 0.25044329455300041 0.087086828512659989 0.26765975396800001
v 0.24940768647099976 0.087756236169669002 0.26765975396800001
v 0.25044329455300041 0.087086828512659989 0.27567836739500007
v 0.24940768647099976 0.087756236169669002 0.27567836739500007
v 0.25044329455300041 0.087086828512659989 0.27567836739500007
v 0.25157465228700016 0.08659632152183 0.27567836739500007
v 0.25044329455300041 0.087086828512659989 0.26765975396800001
v 0.25157465228700016 0.08659632152183 0.26765975396800001
v 0.25157465228700016 0.08659632152183 0.26765975396800001
v 0.25276984312299966 0.086296473926399997 0.26765975396800001
v 0.25276984312299966 0.086296473926399997 0.26765975396800001
v 0.25157465228700016 0.08659632152183 0.26765975396800001
v 0.25276984312299966 0.086296473926399997 0.27567836739500007
v 0.25157465228700016 0.08659632152183 0.27567836739500007
v 0.25276984312299966 0.086296473926399997 0.27567836739500007
v 0.25399863032699965 0.086195684818699991 0.27567836739500007
v 0.25276984312299966 0.086296473926399997 0.26765975396800001
v 0.25399863032699965 0.086195684818699991 0.26765975396800001
v 0.25399863032699965 0.086195684818699991 0.26765975396800001
v 0.25399863032699965 0.086195684818699991 0.26765975396800001
v 0.25399863032699965 0.086195684818699991 0.27567836739500007
v 0.39609699373500007 0.086195684818699991 0.26765975396800001
v 0.39609699373500007 0.086195684818699991 0.27567836739500007
vt 15.612600326538086 0
vt 15.612600326538086 0.7874000072479248
vt 38.897598266601562 0
vt -0.7874000072479248 16.117500305175781
vt 0 16.117500305175781
vt -0.7874000072479248 15.996399879455566
vt 0 15.996399879455566
vt -0.7874000072479248 16.680900573730469
vt 0 16.680900573730469
vt -0.7874000072479248 16.559799194335938
vt 0 16.559799194335938
vt -0.7874000072479248 16.79949951171875
vt 0 16.79949951171875
vt -0.7874000072479248 16.678400039672852
vt 0 16.678400039672852
vt -0.7874000072479248 16.469900131225586
vt 0 16.469900131225586
vt -0.7874000072479248 16.348800659179688
vt 0 16.348800659179688
vt -0.7874000072479248 15.701000213623047
vt 0 15.701000213623047
vt -0.7874000072479248 15.579899787902832
vt 0 15.579899787902832
vt 0 14.513500213623047
vt 0 14.392399787902832
vt -0.7874000072479248 14.513500213623047
vt 15.071999549865723 6.5763998031616211
vt 38.897598266601562 6.810999870300293
vt 14.996800422668457 6.4815001487731934
vt 15.161700248718262 6.6578001976013184
vt 15.263400077819824 6.7234997749328613
vt 15.374500274658203 6.7716999053955078
vt 15.491900444030762 6.8010997772216797
vt 15.612600326538086 6.810999870300293
vt 14.648799896240234 5.9594998359680176
vt 14.573599815368652 5.8646001815795898
vt 14.484000205993652 5.7831997871398926
vt 14.38230037689209 5.7175002098083496
vt 14.271200180053711 5.6693000793457031
vt 14.153800010681152 5.6398000717163086
vt 14.033100128173828 5.6298999786376953
vt 38.897598266601562 0
vt 0.078699998557567596 5.6298999786376953
vt 0.078699998557567596 0
vt 0 5.6298999786376953
vt 0 0
vt -0.7874000072479248 5.6298999786376953
vt -0.7874000072479248 0
vt -0.078699998557567596 0
vt -38.897598266601562 0
vt -0.078699998557567596 5.6298999786376953
vt -0.078699998557567596 0.7874000072479248
vt -0.078699998557567596 0
vt -38.897598266601562 0.7874000072479248
vt -38.897598266601562 0
vt 0.7874000072479248 0
vt 0 0
vt 0.7874000072479248 6.810999870300293
vt 0 6.810999870300293
vt 38.897598266601562 0.7874000072479248
vt -15.612600326538086 6.810999870300293
vt -15.491900444030762 6.8010997772216797
vt -38.897598266601562 6.810999870300293
vt -15.374500274658203 6.7716999053955078
vt -15.263400077819824 6.7234997749328613
vt -15.161700248718262 6.6578001976013184
vt -15.071999549865723 6.5763998031616211
vt -14.996800422668457 6.4815001487731934
vt -0.7874000072479248 14.392399787902832
vt 0 13.711700439453125
vt 0 13.08430004119873
vt -0.7874000072479248 13.711700439453125
vt -0.7874000072479248 13.08430004119873
vt -14.648799896240234 5.9594998359680176
vt -14.573599815368652 5.8646001815795898
vt -0.7874000072479248 13.76710033416748
vt 0 13.76710033416748
vt -0.7874000072479248 13.645999908447266
vt 0 13.645999908447266
vt 0 14.732500076293945
vt 0 14.61139965057373
vt -0.7874000072479248 14.732500076293945
vt -0.7874000072479248 14.61139965057373
vt -14.484000205993652 5.7831997871398926
vt -14.38230037689209 5.7175002098083496
vt -0.7874000072479248 15.184000015258789
vt -0.7874000072479248 15.305100440979004
vt 0 15.184000015258789
vt 0 15.305100440979004
vt 0 15.469599723815918
vt 0 15.34850025177002
vt -0.7874000072479248 15.469599723815918
vt -0.7874000072479248 15.34850025177002
vt -14.271200180053711 5.6693000793457031
vt -14.153800010681152 5.6398000717163086
vt -0.7874000072479248 15.100500106811523
vt -0.7874000072479248 15.221599578857422
vt 0 15.100500106811523
vt 0 15.221599578857422
vt 0 14.567700386047363
vt 0 14.446599960327148
vt -0.7874000072479248 14.567700386047363
vt -0.7874000072479248 14.446599960327148
vt -14.033100128173828 5.6298999786376953
vt 14.033100128173828 0.7874000072479248
vt 14.033100128173828 0
vt 0.078699998557567596 0.7874000072479248
vt 0.078699998557567596 0
vn 0 1 0
vn 0 1 0
vn 0 1 0
vn 0.081693239510059357 0.99665755033493042 0
vn 0.081693239510059357 0.99665755033493042 0
vn 0.081693239510059357 0.99665755033493042 0
vn 0.081693239510059357 0.99665755033493042 0
vn 0.24333745241165161 0.96994167566299438 0
vn 0.24333745241165161 0.96994167566299438 0
vn 0.24333745241165161 0.96994167566299438 0
vn 0.24333745241165161 0.96994167566299438 0
vn 0.39777946472167969 0.91748106479644775 0
vn 0.39777946472167969 0.91748106479644775 0
vn 0.39777946472167969 0.91748106479644775 0
vn 0.39777946472167969 0.91748106479644775 0
vn 0.54237514734268188 0.84013640880584717 0
vn 0.54237514734268188 0.84013640880584717 0
vn 0.54237514734268188 0.84013640880584717 0
vn 0.54237514734268188 0.84013640880584717 0
vn 0.67189311981201172 0.74064815044403076 0
vn 0.67189311981201172 0.74064815044403076 0
vn 0.67189311981201172 0.74064815044403076 0
vn 0.67189311981201172 0.74064815044403076 0
vn 0.78411489725112915 0.62061572074890137 0
vn 0.78411489725112915 0.62061572074890137 0
vn 0.78411489725112915 0.62061572074890137 0
vn 0 0 1
vn 0 0 1
vn 0 0 1
vn 0 0 1
vn 0 0 1
vn 0 0 1
vn 0 0 1
vn 0 0 1
vn 0 0 1
vn 0 0 1
vn 0 0 1
vn 0 0 1
vn 0 0 1
vn 0 0 1
vn 0 0 1
vn 0 0 1
vn 0 0 1
vn 0 0 1
vn 1 0 0
vn 1 0 0
vn 1 0 0
vn 1 0 0
vn 0 0 -1
vn 0 0 -1
vn 0 0 -1
vn 0 -1 0
vn 0 -1 0
vn 0 -1 0
vn 0 -1 0
vn -1 0 0
vn -1 0 0
vn -1 0 0
vn -1 0 0
vn 0 1 0
vn 0 0 -1
vn 0 0 -1
vn 0 0 -1
vn 0 0 -1
vn 0 0 -1
vn 0 0 -1
vn 0 0 -1
vn 0 0 -1
vn 0.78411489725112915 0.62061572074890137 0
vn 0.83207052946090698 0.55466985702514648 0
vn 0.83207052946090698 0.55466985702514648 0
vn 0.83207052946090698 0.55466985702514648 0
vn 0.83207052946090698 0.55466985702514648 0
vn 0 0 -1
vn 0 0 -1
vn 0.78378337621688843 0.62103426456451416 0
vn 0.78378337621688843 0.62103426456451416 0
vn 0.78378337621688843 0.62103426456451416 0
vn 0.78378337621688843 0.62103426456451416 0
vn 0.67185842990875244 0.74067962169647217 0
vn 0.67185842990875244 0.74067962169647217 0
vn 0.67185842990875244 0.74067962169647217 0
vn 0.67185842990875244 0.74067962169647217 0
vn 0 0 -1
vn 0 0 -1
vn 0.54285585880279541 0.83982586860656738 0
vn 0.54285585880279541 0.83982586860656738 0
vn 0.54285585880279541 0.83982586860656738 0
vn 0.54285585880279541 0.83982586860656738 0
vn 0.39777946472167969 0.91748106479644775 0
vn 0.39777946472167969 0.91748106479644775 0
vn 0.39777946472167969 0.91748106479644775 0
vn 0.39777946472167969 0.91748106479644775 0
vn 0 0 -1
vn 0 0 -1
vn 0.24333745241165161 0.96994167566299438 0
vn 0.24333745241165161 0.96994167566299438 0
vn 0.24333745241165161 0.96994167566299438 0
vn 0.24333745241165161 0.96994167566299438 0
vn 0.081748709082603455 0.99665296077728271 0
vn 0.081748709082603455 0.99665296077728271 0
vn 0.081748709082603455 0.99665296077728271 0
vn 0.081748709082603455 0.99665296077728271 0
vn 0 0 -1
vn 0 1 0
vn 0 1 0
vn 0 1 0
vn 0 1 0
f 1/1/1 2/2/2 3/3/3
f 4/4/4 5/5/5 6/6/6
f 7/7/7 6/6/6 5/5/5
f 8/8/8 9/9/9 10/10/10
f 11/11/11 10/10/10 9/9/9
f 12/12/12 13/13/13 14/14/14
f 15/15/15 14/14/14 13/13/13
f 16/16/16 17/17/17 18/18/18
f 19/19/19 18/18/18 17/17/17
f 20/20/20 21/21/21 22/22/22
f 23/23/23 22/22/22 21/21/21
f 24/24/24 25/25/25 26/26/26
f 27/27/27 28/28/28 29/29/29
f 30/30/30 28/28/28 27/27/27
f 31/31/31 28/28/28 30/30/30
f 32/32/32 28/28/28 31/31/31
f 33/33/33 28/28/28 32/32/32
f 34/34/34 28/28/28 33/33/33
f 29/29/29 28/28/28 35/35/35
f 35/35/35 28/28/28 36/36/36
f 36/36/36 28/28/28 37/37/37
f 37/37/37 28/28/28 38/38/38
f 38/38/38 28/28/28 39/39/39
f 39/39/39 28/28/28 40/40/40
f 40/40/40 28/28/28 41/41/41
f 42/42/42 41/41/41 28/28/28
f 41/41/41 42/42/42 43/43/43
f 44/44/44 43/43/43 42/42/42
f 45/45/45 46/46/46 47/47/47
f 48/48/48 47/47/47 46/46/46
f 49/49/49 50/50/50 51/51/51
f 52/52/52 53/53/53 54/54/54
f 55/55/55 54/54/54 53/53/53
f 56/56/56 57/57/57 58/58/58
f 59/59/59 58/58/58 57/57/57
f 60/60/60 3/3/3 2/2/2
f 61/61/61 62/62/62 63/63/63
f 62/62/62 64/64/64 63/63/63
f 64/64/64 65/65/65 63/63/63
f 65/65/65 66/66/66 63/63/63
f 66/66/66 67/67/67 63/63/63
f 67/67/67 68/68/68 63/63/63
f 69/69/69 26/26/26 25/25/25
f 70/70/70 71/71/71 72/72/72
f 73/73/73 72/72/72 71/71/71
f 68/68/68 74/74/74 63/63/63
f 74/74/74 75/75/75 63/63/63
f 76/76/76 77/77/77 78/78/78
f 79/79/79 78/78/78 77/77/77
f 80/80/80 81/81/81 82/82/82
f 83/83/83 82/82/82 81/81/81
f 75/75/75 84/84/84 63/63/63
f 84/84/84 85/85/85 63/63/63
f 86/86/86 87/87/87 88/88/88
f 89/89/89 88/88/88 87/87/87
f 90/90/90 91/91/91 92/92/92
f 93/93/93 92/92/92 91/91/91
f 85/85/85 94/94/94 63/63/63
f 94/94/94 95/95/95 63/63/63
f 96/96/96 97/97/97 98/98/98
f 99/99/99 98/98/98 97/97/97
f 100/100/100 101/101/101 102/102/102
f 103/103/103 102/102/102 101/101/101
f 95/95/95 104/104/104 63/63/63
f 50/50/50 63/63/63 104/104/104
f 104/104/104 51/51/51 50/50/50
f 105/105/105 106/106/106 107/107/107
f 108/108/108 107/107/107 106/106/106
