# Rhino

mtllib BedSet_07_24.mtl
usemtl Default
v 0.35402135488700015 0.30826547113899999 0.27144905302700018
v 0.359870506639 0.043531833212999999 0.27144905302700018
v 0.359870506639 0.30826547113899999 0.27144905302700018
v 0.35402135488700015 0.29245939398479998 0.27144905302700018
v 0.35402135488700015 0.12210420402859999 0.27144905302700018
v 0.35289234937699998 0.12210420402859999 0.27144905302700018
v 0.35289234937699998 0.043531833212999999 0.27144905302700018
v 0.35289234937699998 0.12210420402859999 0.27144905302700018
v 0.35289234937699998 0.043531833212999999 0.27765406731499986
v 0.35289234937699998 0.12210420402859999 0.27765406731499986
v 0.35402135488700015 0.12210420402859999 0.27144905302700018
v 0.35289234937699998 0.19848458806486 0.27144905302700018
v 0.35289234937699998 0.12210420402859999 0.27144905302700018
v 0.35289234937699998 0.29245939398479998 0.27144905302700018
v 0.35402135488700015 0.29245939398479998 0.27144905302700018
v 0.35289234937699998 0.38724889028199999 0.28668611140300015
v 0.35289234937699998 0.043531833212999999 0.27765406731499986
v 0.35289234937699998 0.12210420402859999 0.27765406731499986
v 0.35289234937699998 0 0.28668611140300015
v 0.35289234937699998 0.043531833212999999 0.27144905302700018
v 0.35289234937699998 0 0.27144905302700018
v 0.35289234937699998 0 0.27144905302700018
v 0.36099951214999981 0 0.28668611140300015
v 0.35289234937699998 0 0.28668611140300015
v 0.36099951214999981 0 0.27144905302700018
v 0.36099951214999981 0 0.27144905302700018
v 0.35289234937699998 0 0.27144905302700018
v 0.359870506639 0.043531833212999999 0.27144905302700018
v 0.36099951214999981 0.043531833212999999 0.27144905302700018
v 0.36099951214999981 0.043531833212999999 0.27144905302700018
v 0.36099951214999981 0 0.28668611140300015
v 0.36099951214999981 0 0.27144905302700018
v 0.36099951214999981 0.38724889028199999 0.28668611140300015
v 0.36099951214999981 0.29245939398479998 0.27144905302700018
v 0.359870506639 0.29245939398479998 0.27144905302700018
v 0.36099951214999981 0.043531833212999999 0.27144905302700018
v 0.36099951214999981 0.29245939398479998 0.27144905302700018
v 0.359870506639 0.043531833212999999 0.27144905302700018
v 0.35289234937699998 0.30826547113899999 0.27144905302700018
v 0.35402135488700015 0.29245939398479998 0.27144905302700018
v 0.35402135488700015 0.30826547113899999 0.27144905302700018
v 0.35289234937699998 0.29245939398479998 0.27144905302700018
v 0.35289234937699998 0.29245939398479998 0.27144905302700018
v 0.35289234937699998 0.30826547113899999 0.27144905302700018
v 0.35289234937699998 0.19848458806486 0.27144905302700018
v 0.35289234937699998 0.12210420402859999 0.27144905302700018
v 0.35289234937699998 0.36749129383900003 0.27144905302700018
v 0.35402135488700015 0.30826547113899999 0.27144905302700018
v 0.35289234937699998 0.36749129383900003 0.27144905302700018
v 0.35289234937699998 0.30826547113899999 0.27144905302700018
v 0.35402135488700015 0.36749129383900003 0.27144905302700018
v 0.359870506639 0.30826547113899999 0.27144905302700018
v 0.359870506639 0.36749129383900003 0.27144905302700018
v 0.36099951214999981 0.30826547113899999 0.27144905302700018
v 0.359870506639 0.30826547113899999 0.27144905302700018
v 0.36099951214999981 0.29245939398479998 0.27144905302700018
v 0.36099951214999981 0.30826547113899999 0.27144905302700018
v 0.359870506639 0.29245939398479998 0.27144905302700018
v 0.35402135488700015 0.38273286823800001 0.27144905302700018
v 0.359870506639 0.36749129383900003 0.27144905302700018
v 0.359870506639 0.38273286823800001 0.27144905302700018
v 0.35402135488700015 0.36749129383900003 0.27144905302700018
v 0.36099951214999981 0.36749129383900003 0.27144905302700018
v 0.359870506639 0.38273286823800001 0.27144905302700018
v 0.359870506639 0.36749129383900003 0.27144905302700018
v 0.36099951214999981 0.38273286823800001 0.27144905302700018
v 0.36099951214999981 0.36749129383900003 0.27144905302700018
v 0.36099951214999981 0.38273286823800001 0.27144905302700018
v 0.36099951214999981 0.30826547113899999 0.27144905302700018
v 0.36099951214999981 0.36749129383900003 0.27144905302700018
v 0.36099951214999981 0.38724889028199999 0.27144905302700018
v 0.36099951214999981 0.38724889028199999 0.27144905302700018
v 0.359870506639 0.38273286823800001 0.27144905302700018
v 0.36099951214999981 0.38273286823800001 0.27144905302700018
v 0.35402135488700015 0.38273286823800001 0.27144905302700018
v 0.35289234937699998 0.38724889028199999 0.27144905302700018
v 0.35289234937699998 0.38273286823800001 0.27144905302700018
v 0.35289234937699998 0.38273286823800001 0.27144905302700018
v 0.35289234937699998 0.38724889028199999 0.27144905302700018
v 0.35402135488700015 0.36749129383900003 0.27144905302700018
v 0.35289234937699998 0.38273286823800001 0.27144905302700018
v 0.35289234937699998 0.36749129383900003 0.27144905302700018
v 0.35402135488700015 0.38273286823800001 0.27144905302700018
v 0.35289234937699998 0.38724889028199999 0.28668611140300015
v 0.36099951214999981 0.38724889028199999 0.27144905302700018
v 0.35289234937699998 0.38724889028199999 0.27144905302700018
v 0.36099951214999981 0.38724889028199999 0.28668611140300015
v 0.35289234937699998 0.38724889028199999 0.28668611140300015
v 0.35289234937699998 0 0.28668611140300015
v 0.35289234937699998 0.043531833212999999 0.27144905302700018
v 0.35289234937699998 0.043531833212999999 0.27144905302700018
v 0.36099951214999981 0 0.28668611140300015
v 0.36099951214999981 0.38724889028199999 0.28668611140300015
vt -0.47293698787689209 2.8441898822784424
vt -0.41896599531173706 0.40164300799369812
vt -0.41896599531173706 2.8441898822784424
vt -0.47293698787689209 2.6983499526977539
vt -0.47293698787689209 1.1265900135040283
vt -0.48335400223731995 1.1265900135040283
vt -0.48335400223731995 0.40164300799369812
vt -0.48335400223731995 1.1265900135040283
vt -0.54060500860214233 0.40164300799369812
vt -0.54060500860214233 1.1265900135040283
vt -0.47293698787689209 1.1265900135040283
vt -0.48335400223731995 1.8313000202178955
vt -0.48335400223731995 1.1265900135040283
vt -0.48335400223731995 2.6983499526977539
vt -0.47293698787689209 2.6983499526977539
vt -0.62393802404403687 3.5729200839996338
vt -0.54060500860214233 0.40164300799369812
vt -0.54060500860214233 1.1265900135040283
vt -0.62393802404403687 0
vt -0.48335400223731995 0.40164300799369812
vt -0.48335400223731995 0
vt -0.48335400223731995 0
vt -0.62393802404403687 0.074803799390792847
vt -0.62393802404403687 0
vt -0.48335400223731995 0.074803799390792847
vt -0.40854999423027039 0
vt -0.48335400223731995 0
vt -0.41896599531173706 0.40164300799369812
vt -0.40854999423027039 0.40164300799369812
vt -0.40854999423027039 0.40164300799369812
vt -0.54913502931594849 0
vt -0.40854999423027039 0
vt -0.54913502931594849 3.5729200839996338
vt -0.40854999423027039 2.6983499526977539
vt -18.891500473022461 2.6983499526977539
vt -18.881099700927734 0.40164300799369812
vt -18.881099700927734 2.6983499526977539
vt -18.891500473022461 0.40164300799369812
vt -0.48335400223731995 2.8441898822784424
vt -0.47293698787689209 2.6983499526977539
vt -0.47293698787689209 2.8441898822784424
vt -0.48335400223731995 2.6983499526977539
vt -0.48335400223731995 2.6983499526977539
vt -0.48335400223731995 2.8441898822784424
vt -0.48335400223731995 1.8313000202178955
vt -0.48335400223731995 1.1265900135040283
vt -0.48335400223731995 3.3906199932098389
vt -0.47293698787689209 2.8441898822784424
vt -0.48335400223731995 3.3906199932098389
vt -0.48335400223731995 2.8441898822784424
vt -0.47293698787689209 3.3906199932098389
vt -0.41896599531173706 2.8441898822784424
vt -0.41896599531173706 3.3906199932098389
vt -0.40854999423027039 2.8441898822784424
vt -18.891500473022461 2.8441898822784424
vt -18.881099700927734 2.6983499526977539
vt -18.881099700927734 2.8441898822784424
vt -18.891500473022461 2.6983499526977539
vt -12.219599723815918 3.53125
vt -12.165599822998047 3.3906300067901611
vt -12.165599822998047 3.53125
vt -12.219599723815918 3.3906300067901611
vt -12.155200004577637 3.3906300067901611
vt -12.165599822998047 3.53125
vt -12.165599822998047 3.3906300067901611
vt -12.155200004577637 3.53125
vt -0.40854999423027039 3.3906199932098389
vt -0.40854999423027039 3.53125
vt -0.40854999423027039 2.8441898822784424
vt -0.40854999423027039 3.3906199932098389
vt -0.40854999423027039 3.5729200839996338
vt -1.9204200506210327 6.6614599227905273
vt -1.8787599802017212 6.6510400772094727
vt -1.8787599802017212 6.6614599227905273
vt -1.8787599802017212 6.5970702171325684
vt -1.9204200506210327 6.5866498947143555
vt -1.8787599802017212 6.5866498947143555
vt -0.48335400223731995 3.53125
vt -0.48335400223731995 3.5729200839996338
vt -0.47293698787689209 3.3906199932098389
vt -0.48335400223731995 3.53125
vt -0.48335400223731995 3.3906199932098389
vt -0.47293698787689209 3.53125
vt -0.62393802404403687 3.5729200839996338
vt -0.48335400223731995 3.4981100559234619
vt -0.48335400223731995 3.5729200839996338
vt -0.62393802404403687 3.4981100559234619
vt -0.62393802404403687 3.5729200839996338
vt -0.62393802404403687 0
vt -0.48335400223731995 0.40164300799369812
vt -0.48335400223731995 0.40164300799369812
vt -0.54913502931594849 0
vt -0.54913502931594849 3.5729200839996338
vn 0 0 1
vn 0 0 1
vn 0 0 1
vn 0 0 1
vn 0 0 1
vn 0 0 1
vn 1 0 0
vn 1 0 0
vn 1 0 0
vn 1 0 0
vn 0 0 1
vn 0 0 1
vn 0 0 1
vn 0 0 1
vn 0 0 1
vn 1 0 0
vn 1 0 0
vn 1 0 0
vn 1 0 0
vn 0 0 1
vn 1 0 0
vn 0 -1 0
vn 0 -1 0
vn 0 -1 0
vn 0 -1 0
vn 0 0 1
vn 0 0 1
vn 0 0 1
vn 0 0 1
vn 1 0 0
vn 0 0 1
vn 1 0 0
vn 0 0 1
vn 1 0 0
vn 0 0 1
vn 0 0 1
vn 0 0 1
vn 0 0 1
vn 0 0 1
vn 0 0 1
vn 0 0 1
vn 0 0 1
vn 1 0 0
vn 1 0 0
vn 1 0 0
vn 1 0 0
vn 1 0 0
vn 0 0 1
vn 0 0 1
vn 0 0 1
vn 0 0 1
vn 0 0 1
vn 0 0 1
vn 0 0 1
vn 0 0 1
vn 0 0 1
vn 0 0 1
vn 0 0 1
vn 0 0 1
vn 0 0 1
vn 0 0 1
vn 0 0 1
vn 0 0 1
vn 0 0 1
vn 0 0 1
vn 0 0 1
vn 1 0 0
vn 1 0 0
vn 1 0 0
vn 0 0 1
vn 1 0 0
vn 0 0 1
vn 0 0 1
vn 0 0 1
vn 0 0 1
vn 0 0 1
vn 0 0 1
vn 1 0 0
vn 1 0 0
vn 0 0 1
vn 0 0 1
vn 0 0 1
vn 0 0 1
vn 0 1 0
vn 0 1 0
vn 0 1 0
vn 0 1 0
vn 0 0 1
vn 0 0 1
vn 0 0 1
vn 1 0 0
vn 1 0 0
vn 1 0 0
f 1/1/1 2/2/2 3/3/3
f 4/4/4 2/2/2 1/1/1
f 5/5/5 2/2/2 4/4/4
f 6/6/6 2/2/2 5/5/5
f 2/2/2 6/6/6 90/90/90
f 8/8/8 9/9/9 7/7/7
f 9/9/9 8/8/8 10/10/10
f 11/11/11 12/12/12 13/13/13
f 12/12/12 11/11/11 14/14/14
f 14/14/14 11/11/11 15/15/15
f 16/16/16 17/17/17 18/18/18
f 19/19/19 17/17/17 16/16/16
f 19/19/19 91/91/91 17/17/17
f 91/91/91 19/19/19 21/21/21
f 22/22/22 23/23/23 24/24/24
f 23/23/23 22/22/22 25/25/25
f 26/26/26 20/20/20 27/27/27
f 20/20/20 26/26/26 28/28/28
f 28/28/28 26/26/26 29/29/29
f 30/30/30 92/92/92 32/32/32
f 92/92/92 30/30/30 93/93/93
f 93/93/93 30/30/30 34/34/34
f 35/35/35 36/36/36 37/37/37
f 36/36/36 35/35/35 38/38/38
f 39/39/39 40/40/40 41/41/41
f 40/40/40 39/39/39 42/42/42
f 16/16/16 43/43/43 44/44/44
f 16/16/16 45/45/45 43/43/43
f 16/16/16 18/18/18 45/45/45
f 45/45/45 18/18/18 46/46/46
f 16/16/16 44/44/44 47/47/47
f 48/48/48 49/49/49 50/50/50
f 49/49/49 48/48/48 51/51/51
f 51/51/51 48/48/48 52/52/52
f 51/51/51 52/52/52 53/53/53
f 53/53/53 52/52/52 54/54/54
f 55/55/55 56/56/56 57/57/57
f 56/56/56 55/55/55 58/58/58
f 59/59/59 60/60/60 61/61/61
f 60/60/60 59/59/59 62/62/62
f 63/63/63 64/64/64 65/65/65
f 64/64/64 63/63/63 66/66/66
f 93/93/93 67/67/67 68/68/68
f 93/93/93 69/69/69 67/67/67
f 93/93/93 34/34/34 69/69/69
f 53/53/53 54/54/54 70/70/70
f 93/93/93 68/68/68 71/71/71
f 72/72/72 73/73/73 74/74/74
f 72/72/72 75/75/75 73/73/73
f 76/76/76 75/75/75 72/72/72
f 75/75/75 76/76/76 77/77/77
f 16/16/16 78/78/78 79/79/79
f 16/16/16 47/47/47 78/78/78
f 80/80/80 81/81/81 82/82/82
f 81/81/81 80/80/80 83/83/83
f 84/84/84 85/85/85 86/86/86
f 85/85/85 84/84/84 87/87/87
f 88/88/88 31/31/31 33/33/33
f 31/31/31 88/88/88 89/89/89
