# Rhino

mtllib Cabinet_08_02.mtl
usemtl Default
v -193.22995076100051 0 -68.596632520100229
v -186.27367253400007 0 -68.596632520100229
v -193.22995076100051 0 68.59663252009932
v -186.27367253400007 0 68.59663252009932
v -193.22995076100051 912.04536758999996 68.59663252009932
v -186.27367253400007 912.04536758999996 68.59663252009932
v -193.22995076100051 912.04536758999996 -68.596632520100229
v -186.27367253400007 912.04536758999996 -68.596632520100229
v -193.22995076100051 0 68.59663252009932
v -186.27367253400007 0 68.59663252009932
v -193.22995076100051 912.04536758999996 68.59663252009932
v -186.27367253400007 912.04536758999996 68.59663252009932
v -186.27367253400007 0 68.59663252009932
v -186.27367253400007 0 -68.596632520100229
v -186.27367253400007 912.04536758999996 68.59663252009932
v -186.27367253400007 912.04536758999996 -68.596632520100229
v -186.27367253400007 0 -68.596632520100229
v -193.22995076100051 0 -68.596632520100229
v -186.27367253400007 912.04536758999996 -68.596632520100229
v -193.22995076100051 912.04536758999996 -68.596632520100229
v -193.22995076100051 0 -68.596632520100229
v -193.22995076100051 0 68.59663252009932
v -193.22995076100051 912.04536758999996 -68.596632520100229
v -193.22995076100051 912.04536758999996 68.59663252009932
vt 0 0
vt 1 0
vt 0 1
vt 1 1
vt 0 0
vt 1 0
vt 0 1
vt 1 1
vt 0 0
vt 1 0
vt 0 1
vt 1 1
vt 0 0
vt 1 0
vt 0 1
vt 1 1
vt 0 0
vt 1 0
vt 0 1
vt 1 1
vt 0 0
vt 1 0
vt 0 1
vt 1 1
vn 0 -1 0
vn 0 -1 0
vn 0 -1 0
vn 0 -1 0
vn 0 1 0
vn 0 1 0
vn 0 1 0
vn 0 1 0
vn 0 0 1
vn 0 0 1
vn 0 0 1
vn 0 0 1
vn 1 0 0
vn 1 0 0
vn 1 0 0
vn 1 0 0
vn 0 0 -1
vn 0 0 -1
vn 0 0 -1
vn 0 0 -1
vn -1 0 0
vn -1 0 0
vn -1 0 0
vn -1 0 0
f 1/1/1 2/2/2 4/4/4 3/3/3
f 5/5/5 6/6/6 8/8/8 7/7/7
f 9/9/9 10/10/10 12/12/12 11/11/11
f 13/13/13 14/14/14 16/16/16 15/15/15
f 17/17/17 18/18/18 20/20/20 19/19/19
f 21/21/21 22/22/22 24/24/24 23/23/23
