# Rhino

mtllib Cabinet_18_07.mtl
usemtl Default
v -69.509467961399878 364.50086857860003 -121.85348804199975
v -69.509467961399878 369.58692720990001 -116.76742940999975
v -69.509467961399878 428.07660147009994 -121.85348804199975
v -69.509467961399878 364.50086857860003 -100.66157707799994
v -64.423409330100185 364.50086857860003 -121.85348804199975
v -69.509467961399878 364.50086857860003 -100.66157707799994
v -69.509467961399878 364.50086857860003 -121.85348804199975
v -64.423409330100185 364.50086857860003 -100.66157707799994
v -64.423409330100185 369.58692720990001 -116.76742940999975
v -64.423409330100185 364.50086857860003 -100.66157707799994
v -64.423409330100185 422.99054283869998 -116.76742940999975
v -64.423409330100185 428.07660147009994 -121.85348804199975
v -64.423409330100185 428.07660147009994 -100.66157707799994
v -69.509467961399878 428.07660147009994 -121.85348804199975
v -64.423409330100185 428.07660147009994 -100.66157707799994
v -64.423409330100185 428.07660147009994 -121.85348804199975
v -69.509467961399878 428.07660147009994 -100.66157707799994
v -69.509467961399878 422.99054283869998 -116.76742940999975
v -69.509467961399878 428.07660147009994 -100.66157707799994
v -69.509467961399878 369.58692720990001 -116.76742940999975
v -64.423409330100185 422.99054283869998 -116.76742940999975
v -69.509467961399878 422.99054283869998 -116.76742940999975
v -64.423409330100185 369.58692720990001 -116.76742940999975
v -69.509467961399878 369.58692720990001 -116.76742940999975
v -64.423409330100185 369.58692720990001 -100.66157707799994
v -64.423409330100185 369.58692720990001 -116.76742940999975
v -69.509467961399878 369.58692720990001 -100.66157707799994
v -69.509467961399878 369.58692720990001 -100.66157707799994
v -64.423409330100185 369.58692720990001 -100.66157707799994
v -64.423409330100185 422.99054283869998 -116.76742940999975
v -69.509467961399878 422.99054283869998 -100.66157707799994
v -69.509467961399878 422.99054283869998 -116.76742940999975
v -64.423409330100185 422.99054283869998 -100.66157707799994
v -64.423409330100185 422.99054283869998 -100.66157707799994
v -69.509467961399878 422.99054283869998 -100.66157707799994
v -69.509467961399878 428.07660147009994 -121.85348804199975
v -69.509467961399878 364.50086857860003 -121.85348804199975
v -69.509467961399878 364.50086857860003 -100.66157707799994
v -69.509467961399878 369.58692720990001 -100.66157707799994
v -66.966438645749804 367.04389789424994 -100.66157707799994
v -64.423409330100185 364.50086857860003 -100.66157707799994
v -64.423409330100185 369.58692720990001 -100.66157707799994
v -69.509467961399878 422.99054283869998 -100.66157707799994
v -69.509467961399878 428.07660147009994 -100.66157707799994
v -66.966438645749804 425.53357215439996 -100.66157707799994
v -64.423409330100185 422.99054283869998 -100.66157707799994
v -64.423409330100185 428.07660147009994 -100.66157707799994
vt 0 0
vt 0.47244098782539368 0.47244098782539368
vt 0 5.9055099487304688
vt 1.968500018119812 0
vt 0 0
vt -0.47244098782539368 1.968500018119812
vt -0.47244098782539368 0
vt 0 1.968500018119812
vt -0.47244098782539368 0.47244098782539368
vt -1.968500018119812 0
vt -0.47244098782539368 5.433070182800293
vt 0 5.9055099487304688
vt -1.968500018119812 5.9055099487304688
vt 0.47244098782539368 0
vt 0 1.968500018119812
vt 0 0
vt 0.47244098782539368 1.968500018119812
vt 0.47244098782539368 5.433070182800293
vt 1.968500018119812 5.9055099487304688
vt -0.47244098782539368 0.47244098782539368
vt 0 5.433070182800293
vt -0.47244098782539368 5.433070182800293
vt 0 0.47244098782539368
vt 0.47244098782539368 0.47244098782539368
vt 0 1.968500018119812
vt 0 0.47244098782539368
vt 0.47244098782539368 1.968500018119812
vt 1.968500018119812 0.47244098782539368
vt -1.968500018119812 0.47244098782539368
vt 0 0.47244098782539368
vt -0.47244098782539368 1.968500018119812
vt -0.47244098782539368 0.47244098782539368
vt 0 1.968500018119812
vt -1.968500018119812 5.433070182800293
vt 1.968500018119812 5.433070182800293
vt 0.47244098782539368 5.9055099487304688
vt 0.47244098782539368 0
vt 0 0
vt 0 1
vt 0.5 0.5
vt 1 0
vt 1 1
vt 1 0
vt 0 0
vt 0.5 0.5
vt 1 1
vt 0 1
vn -1 0 0
vn -1 0 0
vn -1 0 0
vn -1 0 0
vn 0.72760689258575439 -0.48507124185562134 -0.48507124185562134
vn 0 -1 0
vn 0 -1 0
vn 0 -1 0
vn 1 0 0
vn 1 0 0
vn 1 0 0
vn 0.89442718029022217 0 -0.44721359014511108
vn 1 0 0
vn 0 1 0
vn 0 1 0
vn 0 1 0
vn 0 1 0
vn -1 0 0
vn -1 0 0
vn 0 0 1
vn 0 0 1
vn 0 0 1
vn 0 0 1
vn 0 1 0
vn 0 1 0
vn 0 1 0
vn 0 1 0
vn -1 0 0
vn 1 0 0
vn 0 -1 0
vn 0 -1 0
vn 0 -1 0
vn 0 -1 0
vn 1 0 0
vn -1 0 0
vn 0 0 -1
vn 0 0 -1
vn 0 0 1
vn 0 0 1
vn 0 0 1
vn 0 0 1
vn 0 0 1
vn 0 0 1
vn 0 0 1
vn 0 0 1
vn 0 0 1
vn 0 0 1
f 1/1/1 2/2/2 3/3/3
f 2/2/2 1/1/1 4/4/4
f 5/5/5 6/6/6 7/7/7
f 6/6/6 5/5/5 8/8/8
f 5/5/5 9/9/9 10/10/10
f 9/9/9 5/5/5 11/11/11
f 12/12/12 11/11/11 5/5/5
f 11/11/11 12/12/12 13/13/13
f 14/14/14 15/15/15 16/16/16
f 15/15/15 14/14/14 17/17/17
f 3/3/3 18/18/18 19/19/19
f 18/18/18 3/3/3 2/2/2
f 20/20/20 21/21/21 22/22/22
f 21/21/21 20/20/20 23/23/23
f 24/24/24 25/25/25 26/26/26
f 25/25/25 24/24/24 27/27/27
f 2/2/2 4/4/4 28/28/28
f 10/10/10 9/9/9 29/29/29
f 30/30/30 31/31/31 32/32/32
f 31/31/31 30/30/30 33/33/33
f 11/11/11 13/13/13 34/34/34
f 19/19/19 18/18/18 35/35/35
f 5/5/5 36/36/36 12/12/12
f 36/36/36 5/5/5 37/37/37
f 40/40/40 39/39/39 38/38/38
f 42/42/42 40/40/40 41/41/41
f 38/38/38 41/41/41 40/40/40
f 39/39/39 40/40/40 42/42/42
f 45/45/45 47/47/47 44/44/44
f 46/46/46 45/45/45 43/43/43
f 44/44/44 43/43/43 45/45/45
f 47/47/47 45/45/45 46/46/46
