# Rhino

mtllib Cabinet_06_04.mtl
usemtl Default
v 93.914476242500314 4.1617692940000284 79.777197997200346
v -93.915621541000291 4.1617692940000284 80.447606649500813
v -93.914517145999525 4.1617692940000284 79.547729263798828
v 93.913249136999184 4.1617692940000284 80.677075382800467
v 94.07809031259967 4.3253833640000128 79.777197997200346
v 93.913249136999184 4.1617692940000284 80.677075382800467
v 93.914476242500314 4.1617692940000284 79.777197997200346
v 94.076863207000315 4.3253833640000128 80.677075382800467
v 94.07809031259967 964.91397846699999 79.777197997200346
v 94.076863207000315 4.3253833640000128 80.677075382800467
v 94.07809031259967 4.3253833640000128 79.777197997200346
v 94.076863207000315 964.91397846699999 80.677075382800467
v 94.07809031259967 964.91397846699999 79.777197997200346
v 93.913249136999184 965.0775925370001 80.677075382800467
v 94.076863207000315 964.91397846699999 80.677075382800467
v 93.914476242500314 965.0775925370001 79.777197997200346
v 93.914476242500314 965.0775925370001 79.777197997200346
v 94.07809031259967 964.91397846699999 79.777197997200346
v 93.914476242500314 964.91397846699999 79.613583926999127
v 94.07809031259967 4.3253833640000128 79.777197997200346
v 93.914476242500314 964.91397846699999 79.613583926999127
v 94.07809031259967 964.91397846699999 79.777197997200346
v 93.914476242500314 4.3253833640000128 79.613583926999127
v 94.07809031259967 4.3253833640000128 79.777197997200346
v 93.914476242500314 4.1617692940000284 79.777197997200346
v 93.914476242500314 4.3253833640000128 79.613583926999127
v -93.914517145999525 4.1617692940000284 79.547729263798828
v 93.914476242500314 4.3253833640000128 79.613583926999127
v 93.914476242500314 4.1617692940000284 79.777197997200346
v -93.914353531899906 4.3253833640000128 79.384115193699472
v -93.914353531899906 4.3253833640000128 79.384115193699472
v -93.914517145999525 4.1617692940000284 79.547729263798828
v -94.078131216200745 4.3253833640000128 79.547729263798828
v -93.914517145999525 4.1617692940000284 79.547729263798828
v -94.079235611099648 4.3253833640000128 80.447606649500813
v -94.078131216200745 4.3253833640000128 79.547729263798828
v -93.915621541000291 4.1617692940000284 80.447606649500813
v -94.079235611099648 4.3253833640000128 80.447606649500813
v -93.915621541000291 4.1617692940000284 80.447606649500813
v -93.915826058600032 4.3253833640000128 80.611220719500125
v 93.913249136999184 4.1617692940000284 80.677075382800467
v -93.915826058600032 4.3253833640000128 80.611220719500125
v -93.915621541000291 4.1617692940000284 80.447606649500813
v 93.912840101800612 4.3253833640000128 80.840689452899824
v 94.076863207000315 4.3253833640000128 80.677075382800467
v 93.912840101800612 4.3253833640000128 80.840689452899824
v 93.913249136999184 4.1617692940000284 80.677075382800467
v 94.076863207000315 4.3253833640000128 80.677075382800467
v 93.912840101800612 964.91397846699999 80.840689452899824
v 93.912840101800612 4.3253833640000128 80.840689452899824
v 94.076863207000315 964.91397846699999 80.677075382800467
v 94.076863207000315 964.91397846699999 80.677075382800467
v 93.913249136999184 965.0775925370001 80.677075382800467
v 93.912840101800612 964.91397846699999 80.840689452899824
v 93.913249136999184 965.0775925370001 80.677075382800467
v -93.915826058600032 964.91397846699999 80.611220719500125
v 93.912840101800612 964.91397846699999 80.840689452899824
v -93.915621541000291 965.0775925370001 80.447606649500813
v 93.914476242500314 965.0775925370001 79.777197997200346
v -93.915621541000291 965.0775925370001 80.447606649500813
v 93.913249136999184 965.0775925370001 80.677075382800467
v -93.914517145999525 965.0775925370001 79.547729263798828
v 93.914476242500314 964.91397846699999 79.613583926999127
v -93.914517145999525 965.0775925370001 79.547729263798828
v 93.914476242500314 965.0775925370001 79.777197997200346
v -93.914353531899906 964.91397846699999 79.384115193699472
v 93.914476242500314 964.91397846699999 79.613583926999127
v -93.914353531899906 4.3253833640000128 79.384115193699472
v -93.914353531899906 964.91397846699999 79.384115193699472
v 93.914476242500314 4.3253833640000128 79.613583926999127
v -94.078131216200745 4.3253833640000128 79.547729263798828
v -93.914353531899906 964.91397846699999 79.384115193699472
v -93.914353531899906 4.3253833640000128 79.384115193699472
v -94.078131216200745 964.91397846699999 79.547729263798828
v -94.078131216200745 4.3253833640000128 79.547729263798828
v -94.079235611099648 964.91397846699999 80.447606649500813
v -94.078131216200745 964.91397846699999 79.547729263798828
v -94.079235611099648 4.3253833640000128 80.447606649500813
v -94.079235611099648 4.3253833640000128 80.447606649500813
v -93.915826058600032 964.91397846699999 80.611220719500125
v -94.079235611099648 964.91397846699999 80.447606649500813
v -93.915826058600032 4.3253833640000128 80.611220719500125
v 93.912840101800612 4.3253833640000128 80.840689452899824
v -93.915826058600032 964.91397846699999 80.611220719500125
v -93.915826058600032 4.3253833640000128 80.611220719500125
v 93.912840101800612 964.91397846699999 80.840689452899824
v -93.915621541000291 965.0775925370001 80.447606649500813
v -94.079235611099648 964.91397846699999 80.447606649500813
v -93.915826058600032 964.91397846699999 80.611220719500125
v -93.914517145999525 965.0775925370001 79.547729263798828
v -94.079235611099648 964.91397846699999 80.447606649500813
v -93.915621541000291 965.0775925370001 80.447606649500813
v -94.078131216200745 964.91397846699999 79.547729263798828
v -93.914353531899906 964.91397846699999 79.384115193699472
v -94.078131216200745 964.91397846699999 79.547729263798828
v -93.914517145999525 965.0775925370001 79.547729263798828
vt -0.037804901599884033 18.094600677490234
vt -0.10236199945211411 0.015747999772429466
vt -0.015747999772429466 0.015853699296712875
vt -0.12441900372505188 18.094499588012695
vt -0.015728700906038284 12.817099571228027
vt -0.10234300047159195 12.7947998046875
vt -0.015728700906038284 12.7947998046875
vt -0.10234300047159195 12.817099571228027
vt -0.015728700906038284 92.473396301269531
vt -0.10234300047159195 0.015747999772429466
vt -0.015728700906038284 0.015747999772429466
vt -0.10234300047159195 92.473396301269531
vt -0.015728700906038284 52.582599639892578
vt -0.10234300047159195 52.604900360107422
vt -0.10234300047159195 52.582599639892578
vt -0.015728700906038284 52.604900360107422
vt -12.805899620056152 68.136398315429688
vt -12.817099571228027 68.117103576660156
vt -12.7947998046875 68.117103576660156
vt -12.817099571228027 0.015747999772429466
vt -12.7947998046875 92.473396301269531
vt -12.817099571228027 92.473396301269531
vt -12.7947998046875 0.015747999772429466
vt -12.817099571228027 7.3999600410461426
vt -12.805899620056152 7.3806700706481934
vt -12.7947998046875 7.3999600410461426
vt -0.015872899442911148 -0.011121800169348717
vt -18.094600677490234 0.011149199679493904
vt -18.094600677490234 -0.011121800169348717
vt -0.015872899442911148 0.011149199679493904
vt -0.011237500235438347 0.0063860397785902023
vt -0.0001019850024022162 -0.012901299633085728
vt 0.011033600196242332 0.0063860397785902023
vt 0.015728700906038284 -0.011223799549043179
vt 0.10234300047159195 0.011047200299799442
vt 0.015728700906038284 0.011047200299799442
vt 0.10234300047159195 -0.011223799549043179
vt 0.072455599904060364 0.054588500410318375
vt 0.083591103553771973 0.035301201045513153
vt 0.094726696610450745 0.054588500410318375
vt 18.094600677490234 0.072367303073406219
vt 0.015872899442911148 0.0946383997797966
vt 0.015872899442911148 0.072367303073406219
vt 18.094600677490234 0.0946383997797966
vt 12.733599662780762 7.4481601715087891
vt 12.711299896240234 7.4481601715087891
vt 12.722499847412109 7.4288802146911621
vt 12.733599662780762 0.015747999772429466
vt 12.711299896240234 92.473396301269531
vt 12.711299896240234 0.015747999772429466
vt 12.733599662780762 92.473396301269531
vt 12.733599662780762 68.068901062011719
vt 12.722499847412109 68.088203430175781
vt 12.711299896240234 68.068901062011719
vt 18.094600677490234 65.327400207519531
vt 0.015872899442911148 65.305099487304688
vt 18.094600677490234 65.305099487304688
vt 0.015872899442911148 65.327400207519531
vt 0.037804901599884033 18.094600677490234
vt 0.10236199945211411 0.015747999772429466
vt 0.12441900372505188 18.094499588012695
vt 0.015747999772429466 0.015853699296712875
vt -18.094600677490234 65.388603210449219
vt -0.015872899442911148 65.410896301269531
vt -18.094600677490234 65.410896301269531
vt -0.015872899442911148 65.388603210449219
vt -18.094600677490234 92.473396301269531
vt -0.015872899442911148 0.015747999772429466
vt -0.015872899442911148 92.473396301269531
vt -18.094600677490234 0.015747999772429466
vt 0.011033600196242332 0.015747999772429466
vt -0.011237500235438347 92.473396301269531
vt -0.011237500235438347 0.015747999772429466
vt 0.011033600196242332 92.473396301269531
vt 0.015728700906038284 0.015747999772429466
vt 0.10234300047159195 92.473396301269531
vt 0.015728700906038284 92.473396301269531
vt 0.10234300047159195 0.015747999772429466
vt 0.072455599904060364 0.015747999772429466
vt 0.094726696610450745 92.473396301269531
vt 0.072455599904060364 92.473396301269531
vt 0.094726696610450745 0.015747999772429466
vt 18.094600677490234 0.015747999772429466
vt 0.015872899442911148 92.473396301269531
vt 0.015872899442911148 0.015747999772429466
vt 18.094600677490234 92.473396301269531
vt 0.083591103553771973 75.481796264648438
vt 0.072455599904060364 75.462501525878906
vt 0.094726696610450745 75.462501525878906
vt 0.015728700906038284 65.411003112792969
vt 0.10234300047159195 65.388702392578125
vt 0.10234300047159195 65.411003112792969
vt 0.015728700906038284 65.388702392578125
vt -0.011237500235438347 75.510696411132812
vt 0.011033600196242332 75.510696411132812
vt -0.0001019850024022162 75.529998779296875
vn 0 -1 0
vn 0 -1 0
vn 0 -1 0
vn 0 -1 0
vn 0.70710647106170654 -0.70710647106170654 0.00096423603827133775
vn 0.70710647106170654 -0.70710647106170654 0.00096423603827133775
vn 0.70710647106170654 -0.70710647106170654 0.00096423598006367683
vn 0.70710647106170654 -0.70710647106170654 0.00096423621289432049
vn 0.99999904632568359 0 0.0013636352960020304
vn 0.99999904632568359 0 0.0013636352960020304
vn 0.99999904632568359 0 0.0013636352960020304
vn 0.99999904632568359 0 0.0013636352960020304
vn 0.70710647106170654 0.70710647106170654 0.00096423603827133775
vn 0.70710647106170654 0.70710647106170654 0.00096423603827133775
vn 0.70710647106170654 0.70710647106170654 0.00096423621289432049
vn 0.70710647106170654 0.70710647106170654 0.00096423598006367683
vn 0.57735025882720947 0.57735025882720947 -0.57735025882720947
vn 0.57735025882720947 0.57735025882720947 -0.57735025882720947
vn 0.57735025882720947 0.57735025882720947 -0.57735025882720947
vn 0.70710676908493042 0 -0.70710676908493042
vn 0.70710676908493042 0 -0.70710676908493042
vn 0.70710676908493042 0 -0.70710676908493042
vn 0.70710676908493042 0 -0.70710676908493042
vn 0.57735025882720947 -0.57735025882720947 -0.57735025882720947
vn 0.57735025882720947 -0.57735025882720947 -0.57735025882720947
vn 0.57735025882720947 -0.57735025882720947 -0.57735025882720947
vn 0.00086386472685262561 -0.70710670948028564 -0.70710635185241699
vn 0.00086386472685262561 -0.70710670948028564 -0.70710635185241699
vn 0.00086386472685262561 -0.70710653066635132 -0.70710653066635132
vn 0.00086386490147560835 -0.70710694789886475 -0.70710611343383789
vn -0.57715779542922974 -0.57715779542922974 -0.57773500680923462
vn -0.57715779542922974 -0.57715779542922974 -0.57773500680923462
vn -0.57715779542922974 -0.57715779542922974 -0.57773500680923462
vn -0.70710653066635132 -0.70710653066635132 -0.00086781254503875971
vn -0.70710653066635132 -0.70710653066635132 -0.00086781254503875971
vn -0.70710653066635132 -0.70710653066635132 -0.00086781242862343788
vn -0.70710653066635132 -0.70710653066635132 -0.00086781254503875971
vn -0.57759082317352295 -0.57759082317352295 0.57686883211135864
vn -0.57759082317352295 -0.57759082317352295 0.57686883211135864
vn -0.57759082317352295 -0.57759082317352295 0.57686883211135864
vn -0.00086386478506028652 -0.70710736513137817 0.70710569620132446
vn -0.00086386478506028652 -0.70710736513137817 0.70710569620132446
vn -0.00086386461043730378 -0.7071070671081543 0.70710599422454834
vn -0.00086386490147560835 -0.70710760354995728 0.70710545778274536
vn 0.57686913013458252 -0.57686913013458252 0.57831132411956787
vn 0.57686913013458252 -0.57686913013458252 0.57831132411956787
vn 0.57686913013458252 -0.57686913013458252 0.57831132411956787
vn 0.70622342824935913 0 0.70798903703689575
vn 0.70622342824935913 0 0.70798903703689575
vn 0.70622342824935913 0 0.70798903703689575
vn 0.70622342824935913 0 0.70798903703689575
vn 0.57686913013458252 0.57686913013458252 0.57831132411956787
vn 0.57686913013458252 0.57686913013458252 0.57831132411956787
vn 0.57686913013458252 0.57686913013458252 0.57831132411956787
vn -0.00086386478506028652 0.70710736513137817 0.70710569620132446
vn -0.00086386478506028652 0.70710736513137817 0.70710569620132446
vn -0.00086386490147560835 0.70710760354995728 0.70710545778274536
vn -0.00086386461043730378 0.7071070671081543 0.70710599422454834
vn 0 1 0
vn 0 1 0
vn 0 1 0
vn 0 1 0
vn 0.00086386472685262561 0.70710670948028564 -0.70710635185241699
vn 0.00086386472685262561 0.70710670948028564 -0.70710635185241699
vn 0.00086386472685262561 0.70710653066635132 -0.70710653066635132
vn 0.00086386490147560835 0.70710694789886475 -0.70710611343383789
vn 0.0012216898612678051 0 -0.99999922513961792
vn 0.0012216898612678051 0 -0.99999922513961792
vn 0.0012216898612678051 0 -0.99999922513961792
vn 0.0012216898612678051 0 -0.99999922513961792
vn -0.70675331354141235 0 -0.70746004581451416
vn -0.70675331354141235 0 -0.70746004581451416
vn -0.70675331354141235 0 -0.70746004581451416
vn -0.70675331354141235 0 -0.70746004581451416
vn -0.99999922513961792 0 -0.0012272719759494066
vn -0.99999922513961792 0 -0.0012272719759494066
vn -0.99999922513961792 0 -0.0012272719759494066
vn -0.99999922513961792 0 -0.0012272719759494066
vn -0.70754885673522949 0 0.70666444301605225
vn -0.70754885673522949 0 0.70666444301605225
vn -0.70754885673522949 0 0.70666444301605225
vn -0.70754885673522949 0 0.70666444301605225
vn -0.0012216907925903797 0 0.99999922513961792
vn -0.0012216907925903797 0 0.99999922513961792
vn -0.0012216907925903797 0 0.99999922513961792
vn -0.0012216907925903797 0 0.99999922513961792
vn -0.57759082317352295 0.57759082317352295 0.57686883211135864
vn -0.57759082317352295 0.57759082317352295 0.57686883211135864
vn -0.57759082317352295 0.57759082317352295 0.57686883211135864
vn -0.70710653066635132 0.70710653066635132 -0.00086781254503875971
vn -0.70710653066635132 0.70710653066635132 -0.00086781254503875971
vn -0.70710653066635132 0.70710653066635132 -0.00086781254503875971
vn -0.70710653066635132 0.70710653066635132 -0.00086781242862343788
vn -0.57715779542922974 0.57715779542922974 -0.57773500680923462
vn -0.57715779542922974 0.57715779542922974 -0.57773500680923462
vn -0.57715779542922974 0.57715779542922974 -0.57773500680923462
f 1/1/1 2/2/2 3/3/3
f 2/2/2 1/1/1 4/4/4
f 5/5/5 6/6/6 7/7/7
f 6/6/6 5/5/5 8/8/8
f 9/9/9 10/10/10 11/11/11
f 10/10/10 9/9/9 12/12/12
f 13/13/13 14/14/14 15/15/15
f 14/14/14 13/13/13 16/16/16
f 17/17/17 18/18/18 19/19/19
f 20/20/20 21/21/21 22/22/22
f 21/21/21 20/20/20 23/23/23
f 24/24/24 25/25/25 26/26/26
f 27/27/27 28/28/28 29/29/29
f 28/28/28 27/27/27 30/30/30
f 31/31/31 32/32/32 33/33/33
f 34/34/34 35/35/35 36/36/36
f 35/35/35 34/34/34 37/37/37
f 38/38/38 39/39/39 40/40/40
f 41/41/41 42/42/42 43/43/43
f 42/42/42 41/41/41 44/44/44
f 45/45/45 46/46/46 47/47/47
f 48/48/48 49/49/49 50/50/50
f 49/49/49 48/48/48 51/51/51
f 52/52/52 53/53/53 54/54/54
f 55/55/55 56/56/56 57/57/57
f 56/56/56 55/55/55 58/58/58
f 59/59/59 60/60/60 61/61/61
f 60/60/60 59/59/59 62/62/62
f 63/63/63 64/64/64 65/65/65
f 64/64/64 63/63/63 66/66/66
f 67/67/67 68/68/68 69/69/69
f 68/68/68 67/67/67 70/70/70
f 71/71/71 72/72/72 73/73/73
f 72/72/72 71/71/71 74/74/74
f 75/75/75 76/76/76 77/77/77
f 76/76/76 75/75/75 78/78/78
f 79/79/79 80/80/80 81/81/81
f 80/80/80 79/79/79 82/82/82
f 83/83/83 84/84/84 85/85/85
f 84/84/84 83/83/83 86/86/86
f 87/87/87 88/88/88 89/89/89
f 90/90/90 91/91/91 92/92/92
f 91/91/91 90/90/90 93/93/93
f 94/94/94 95/95/95 96/96/96
