# Rhino

mtllib Cabinet_11_05.mtl
usemtl Default
v 76.834575259899793 343.30225268600003 45.773633691400391
v -76.834575259899793 317.145890576 45.773633691400391
v -76.834575259899793 343.30225268600003 -71.929995800699544
v -76.834575259899793 317.145890576 -71.929995800699544
v -76.834575259899793 343.30225268600003 -71.929995800699544
v 76.834575259899793 317.145890576 -71.929995800699544
v -76.834575259899793 317.145890576 -71.929995800699544
v 76.834575259899793 343.30225268600003 -71.929995800699544
v -76.834575259899793 343.30225268600003 -71.929995800699544
v 76.834575259899793 343.30225268600003 -71.929995800699544
v 76.834575259899793 317.145890576 -71.929995800699544
v -76.834575259899793 317.145890576 -71.929995800699544
v 76.834575259899793 317.145890576 -71.929995800699544
v 76.834575259899793 343.30225268600003 -71.929995800699544
v -76.834575259898884 343.30225268599997 45.773506164550781
v -76.834575259899793 317.14591891529994 45.773506164550781
v -76.834575259899793 317.14591891529994 45.773506164550781
v 76.834575259899793 343.30225268600003 45.773506164550781
v 76.834408765945227 343.3022526860002 45.773506164550781
v 76.834408765945227 343.3022526860002 45.773506164550781
v -76.834575259898884 343.30225268599997 45.773506164550781
v -76.834408765947046 317.145890576 45.773506164550781
v 76.834575259899793 317.145890576 45.773506164550781
v -76.834575259899793 317.14591891529994 45.773506164550781
v -76.834408765947046 317.145890576 45.773506164550781
v 76.834575259899793 343.30225268600003 45.773506164550781
v 76.834575259899793 317.145890576 45.773506164550781
v 76.834575259899793 343.30225268600003 45.773506164550781
vt 2 26.25
vt -2 24.25
vt -11 26.25
vt -11 24.25
vt 11.75 26.25
vt 0 24.25
vt 11.75 24.25
vt 0 26.25
vt 11.75 -11
vt 0 -11
vt 0 -11
vt -11.75 -11
vt 11 24.25
vt 11 26.25
vt -2.0000097751617432 26.25
vt -2.0000097751617432 24.250001907348633
vt -2.0000097751617432 24.250001907348633
vt 0 -2.0000097751617432
vt 1.2730622984236106E-05 -2.0000097751617432
vt 1.2730622984236106E-05 -2.0000097751617432
vt 11.75 -2.0000097751617432
vt -11.749987602233887 -2.0000097751617432
vt 0 -2.0000097751617432
vt -11.75 -2.0000097751617432
vt -11.749987602233887 -2.0000097751617432
vt 2.0000097751617432 26.25
vt 2.0000097751617432 24.25
vt 2.0000097751617432 26.25
vn 1 0 0
vn -1 0 0
vn -1 0 0
vn -1 0 0
vn 0 0 -1
vn 0 0 -1
vn 0 0 -1
vn 0 0 -1
vn 0 1 0
vn 0 1 0
vn 0 -1 0
vn 0 -1 0
vn 1 0 0
vn 1 0 0
vn -1 0 0
vn -1 0 0
vn -1 0 0
vn 0 1 0
vn 0 1 0
vn 0 1 0
vn 0 1 0
vn 0 -1 0
vn 0 -1 0
vn 0 -1 0
vn 0 -1 0
vn 1 0 0
vn 1 0 0
vn 1 0 0
f 5/5/5 6/6/6 7/7/7
f 6/6/6 5/5/5 8/8/8
f 16/16/16 15/15/15 3/3/3
f 4/4/4 2/2/2 17/17/17
f 17/17/17 3/3/3 4/4/4
f 19/19/19 10/10/10 9/9/9
f 10/10/10 19/19/19 18/18/18
f 20/20/20 9/9/9 21/21/21
f 11/11/11 23/23/23 22/22/22
f 25/25/25 12/12/12 11/11/11
f 12/12/12 25/25/25 24/24/24
f 26/26/26 27/27/27 13/13/13
f 13/13/13 28/28/28 1/1/1
f 28/28/28 13/13/13 14/14/14
