# Rhino

mtllib Cabinet_06_16.mtl
usemtl Default
v 81.397999879200142 507.2036173378001 -70.093208415499248
v -81.397999879200142 487.56992892474 -70.093208415499248
v -81.397999879200142 507.2036173378001 -70.093208415499248
v 81.397999879200142 487.56992892474 -70.093208415499248
v 81.397999879200142 507.2036173378001 -70.093208415499248
v 81.807035054399421 487.56992892474 -69.684173240300879
v 81.397999879200142 487.56992892474 -70.093208415499248
v 81.807035054399421 507.2036173378001 -69.684173240300879
v -81.397999879200142 487.56992892474 -70.093208415499248
v -81.807035054399421 507.2036173378001 -69.684173240300879
v -81.397999879200142 507.2036173378001 -70.093208415499248
v -81.807035054399421 487.56992892474 -69.684173240300879
v 81.397999879200142 507.6126525131001 -69.684173240300879
v -81.397999879200142 507.6126525131001 -62.321540085398738
v 81.397999879200142 507.6126525131001 -62.321540085398738
v -81.397999879200142 507.6126525131001 -69.684173240300879
v 81.397999879200142 507.2036173378001 -70.093208415499248
v -81.397999879200142 507.6126525131001 -69.684173240300879
v 81.397999879200142 507.6126525131001 -69.684173240300879
v -81.397999879200142 507.2036173378001 -70.093208415499248
v 81.397999879200142 507.6126525131001 -69.684173240300879
v 81.807035054399421 507.2036173378001 -69.684173240300879
v 81.397999879200142 507.2036173378001 -70.093208415499248
v 81.397999879200142 507.6126525131001 -69.684173240300879
v 81.807035054399421 507.2036173378001 -62.321540085398738
v 81.807035054399421 507.2036173378001 -69.684173240300879
v 81.397999879200142 507.6126525131001 -62.321540085398738
v 81.397999879200142 507.6126525131001 -62.321540085398738
v 81.397999879200142 507.2036173378001 -61.912504910102143
v 81.807035054399421 507.2036173378001 -62.321540085398738
v 81.397999879200142 507.6126525131001 -62.321540085398738
v -81.397999879200142 507.2036173378001 -61.912504910102143
v 81.397999879200142 507.2036173378001 -61.912504910102143
v -81.397999879200142 507.6126525131001 -62.321540085398738
v -81.397999879200142 507.6126525131001 -62.321540085398738
v -81.807035054399421 507.2036173378001 -62.321540085398738
v -81.397999879200142 507.2036173378001 -61.912504910102143
v -81.397999879200142 507.6126525131001 -62.321540085398738
v -81.807035054399421 507.2036173378001 -69.684173240300879
v -81.807035054399421 507.2036173378001 -62.321540085398738
v -81.397999879200142 507.6126525131001 -69.684173240300879
v -81.397999879200142 507.6126525131001 -69.684173240300879
v -81.397999879200142 507.2036173378001 -70.093208415499248
v -81.807035054399421 507.2036173378001 -69.684173240300879
v -81.397999879200142 487.56992892474 -70.093208415499248
v -81.397999879200142 487.16089374947001 -69.684173240300879
v -81.807035054399421 487.56992892474 -69.684173240300879
v -81.397999879200142 487.56992892474 -70.093208415499248
v 81.397999879200142 487.16089374947001 -69.684173240300879
v -81.397999879200142 487.16089374947001 -69.684173240300879
v 81.397999879200142 487.56992892474 -70.093208415499248
v 81.807035054399421 487.56992892474 -69.684173240300879
v 81.397999879200142 487.16089374947001 -69.684173240300879
v 81.397999879200142 487.56992892474 -70.093208415499248
v 81.807035054399421 487.56992892474 -69.684173240300879
v 81.397999879200142 487.16089374947001 -62.321540085398738
v 81.397999879200142 487.16089374947001 -69.684173240300879
v 81.807035054399421 487.56992892474 -62.321540085398738
v 81.807035054399421 507.2036173378001 -69.684173240300879
v 81.807035054399421 487.56992892474 -62.321540085398738
v 81.807035054399421 487.56992892474 -69.684173240300879
v 81.807035054399421 507.2036173378001 -62.321540085398738
v 81.807035054399421 507.2036173378001 -62.321540085398738
v 81.397999879200142 487.56992892474 -61.912504910102143
v 81.807035054399421 487.56992892474 -62.321540085398738
v 81.397999879200142 507.2036173378001 -61.912504910102143
v -81.397999879200142 507.2036173378001 -61.912504910102143
v 81.397999879200142 487.56992892474 -61.912504910102143
v 81.397999879200142 507.2036173378001 -61.912504910102143
v -81.397999879200142 487.56992892474 -61.912504910102143
v -81.397999879200142 507.2036173378001 -61.912504910102143
v -81.807035054399421 487.56992892474 -62.321540085398738
v -81.397999879200142 487.56992892474 -61.912504910102143
v -81.807035054399421 507.2036173378001 -62.321540085398738
v -81.807035054399421 507.2036173378001 -62.321540085398738
v -81.807035054399421 487.56992892474 -69.684173240300879
v -81.807035054399421 487.56992892474 -62.321540085398738
v -81.807035054399421 507.2036173378001 -69.684173240300879
v -81.397999879200142 487.16089374947001 -69.684173240300879
v -81.807035054399421 487.56992892474 -62.321540085398738
v -81.807035054399421 487.56992892474 -69.684173240300879
v -81.397999879200142 487.16089374947001 -62.321540085398738
v -81.397999879200142 487.16089374947001 -69.684173240300879
v 81.397999879200142 487.16089374947001 -62.321540085398738
v -81.397999879200142 487.16089374947001 -62.321540085398738
v 81.397999879200142 487.16089374947001 -69.684173240300879
v 81.397999879200142 487.56992892474 -61.912504910102143
v -81.397999879200142 487.16089374947001 -62.321540085398738
v 81.397999879200142 487.16089374947001 -62.321540085398738
v -81.397999879200142 487.56992892474 -61.912504910102143
v -81.807035054399421 487.56992892474 -62.321540085398738
v -81.397999879200142 487.16089374947001 -62.321540085398738
v -81.397999879200142 487.56992892474 -61.912504910102143
v 81.397999879200142 487.56992892474 -61.912504910102143
v 81.397999879200142 487.16089374947001 -62.321540085398738
v 81.807035054399421 487.56992892474 -62.321540085398738
v -81.807035054399421 487.56992892474 -69.684173240300879
v -81.807035054399421 507.2036173378001 -69.684173240300879
v -81.397999879200142 487.56992892474 -70.093208415499248
v -81.397999879200142 507.2036173378001 -70.093208415499248
v 81.397999879200142 487.56992892474 -70.093208415499248
v 81.397999879200142 507.2036173378001 -70.093208415499248
v 81.807035054399421 487.56992892474 -69.684173240300879
v 81.807035054399421 507.2036173378001 -69.684173240300879
vt 0.10754100233316422 0.020474100485444069
vt 0.88966798782348633 0.0019128000130876899
vt 0.88966798782348633 0.020474100485444069
vt 0.10754100233316422 0.0019128000130876899
vt 0.029698500409722328 0.021306600421667099
vt 0.026870099827647209 0.00043482799082994461
vt 0.029698500409722328 0.00043482799082994461
vt 0.026870099827647209 0.021306600421667099
vt 0.53598701953887939 0.00043482799082994461
vt 0.53881502151489258 0.021306600421667099
vt 0.53598701953887939 0.021306600421667099
vt 0.53881502151489258 0.00043482799082994461
vt 0.23585599660873413 0.0024999999441206455
vt 0.012413499876856804 0.99750000238418579
vt 0.012413499876856804 0.0024999999441206455
vt 0.23585599660873413 0.99750000238418579
vt 0.038869701325893402 0.16052399575710297
vt 15.508999824523926 0.1715950071811676
vt 0.038869701325893402 0.1715950071811676
vt 15.508999824523926 0.16052399575710297
vt 0.54970002174377441 0.26205700635910034
vt 0.52221500873565674 0.25246900320053101
vt 0.57718497514724731 0.25246900320053101
vt 0.73852401971817017 0.28230100870132446
vt 0.038869701325893402 0.27123001217842102
vt 0.73852401971817017 0.27123001217842102
vt 0.038869701325893402 0.28230100870132446
vt 0 0.32597300410270691
vt -0.027484999969601631 0.31638601422309875
vt 0.027484999969601631 0.31638601422309875
vt -0.038869701325893402 0.28230100870132446
vt -15.508999824523926 0.27123001217842102
vt -0.038869701325893402 0.27123001217842102
vt -15.508999824523926 0.28230100870132446
vt -10.994000434875488 -0.95235300064086914
vt -11.021499633789062 -0.96194100379943848
vt -10.966500282287598 -0.96194100379943848
vt -0.038869701325893402 -1.9318300485610962
vt -0.73852401971817017 -1.9428999423980713
vt -0.038869701325893402 -1.9428999423980713
vt -0.73852401971817017 -1.9318300485610962
vt 10.444299697875977 -1.0162700414657593
vt 10.416799545288086 -1.0258599519729614
vt 10.471799850463867 -1.0258599519729614
vt 10.416799545288086 1.3454400300979614
vt 10.444299697875977 1.3358500003814697
vt 10.471799850463867 1.3454400300979614
vt 15.508999824523926 0.11624199897050858
vt 0.038869701325893402 0.10517100244760513
vt 15.508999824523926 0.10517100244760513
vt 0.038869701325893402 0.11624199897050858
vt 0.52221500873565674 0.06711210310459137
vt 0.54970002174377441 0.057524699717760086
vt 0.57718497514724731 0.06711210310459137
vt 0.73852401971817017 0.0055353199131786823
vt 0.038869701325893402 -0.0055353199131786823
vt 0.73852401971817017 -0.0055353199131786823
vt 0.038869701325893402 0.0055353199131786823
vt 0.23585599660873413 -0.0024999999441206455
vt 0.012413499876856804 -0.12250000238418579
vt 0.23585599660873413 -0.12250000238418579
vt 0.012413499876856804 -0.0024999999441206455
vt 0.027484999969601631 0.38357800245285034
vt -0.027484999969601631 0.0078281201422214508
vt 0.027484999969601631 0.0078281201422214508
vt -0.027484999969601631 0.38357800245285034
vt -0.012413499876856804 0.99750000238418579
vt -0.60825997591018677 0.0024999999441206455
vt -0.012413499876856804 0.0024999999441206455
vt -0.60825997591018677 0.99750000238418579
vt -10.966500282287598 0.38357800245285034
vt -11.021499633789062 0.0078281201422214508
vt -10.966500282287598 0.0078281201422214508
vt -11.021499633789062 0.38357800245285034
vt 0.012413499876856804 1.002500057220459
vt 0.23585599660873413 1.122499942779541
vt 0.012413499876856804 1.122499942779541
vt 0.23585599660873413 1.002500057220459
vt -0.73852401971817017 2.208590030670166
vt -0.038869701325893402 2.2196600437164307
vt -0.73852401971817017 2.2196600437164307
vt -0.038869701325893402 2.208590030670166
vt 0.23585599660873413 -1.122499942779541
vt 0.012413499876856804 -0.12749999761581421
vt 0.012413499876856804 -1.122499942779541
vt 0.23585599660873413 -0.12749999761581421
vt -0.038869701325893402 0.0055353199131786823
vt -15.508999824523926 -0.0055353199131786823
vt -0.038869701325893402 -0.0055353199131786823
vt -15.508999824523926 0.0055353199131786823
vt -11.021499633789062 1.2815200090408325
vt -10.994000434875488 1.2719299793243408
vt -10.966500282287598 1.2815200090408325
vt -0.027484999969601631 0.0031958199106156826
vt 0 -0.0063916300423443317
vt 0.027484999969601631 0.0031958199106156826
vt 1 0
vt 3.9490474591730163E-05 5.1719485583134883E-08
vt 0.99996048212051392 0.0024994313716888428
vt 0 0.0024994832929223776
vt 0.99996048212051392 0.99749940633773804
vt 0 0.99749940633773804
vt 1 0.99999994039535522
vt 3.9490474591730163E-05 1
vn 0 0 1
vn 0 0 1
vn 0 0 1
vn 0 0 1
vn 0.70710676908493042 0 -0.70710676908493042
vn 0.70710676908493042 0 -0.70710676908493042
vn 0.70710676908493042 0 -0.70710676908493042
vn 0.70710676908493042 0 -0.70710676908493042
vn 0.70710676908493042 0 0.70710676908493042
vn 0.70710676908493042 0 0.70710676908493042
vn 0.70710676908493042 0 0.70710676908493042
vn 0.70710676908493042 0 0.70710676908493042
vn 0 -1 0
vn 0 -1 0
vn 0 -1 0
vn 0 -1 0
vn 0 -0.70710676908493042 0.70710676908493042
vn 0 -0.70710676908493042 0.70710676908493042
vn 0 -0.70710676908493042 0.70710676908493042
vn 0 -0.70710676908493042 0.70710676908493042
vn -0.57735025882720947 -0.57735025882720947 0.57735025882720947
vn -0.57735025882720947 -0.57735025882720947 0.57735025882720947
vn -0.57735025882720947 -0.57735025882720947 0.57735025882720947
vn -0.70710676908493042 -0.70710676908493042 0
vn -0.70710676908493042 -0.70710676908493042 0
vn -0.70710676908493042 -0.70710676908493042 0
vn -0.70710676908493042 -0.70710676908493042 0
vn -0.57735025882720947 -0.57735025882720947 -0.57735025882720947
vn -0.57735025882720947 -0.57735025882720947 -0.57735025882720947
vn -0.57735025882720947 -0.57735025882720947 -0.57735025882720947
vn 0 -0.70710676908493042 -0.70710676908493042
vn 0 -0.70710676908493042 -0.70710676908493042
vn 0 -0.70710676908493042 -0.70710676908493042
vn 0 -0.70710676908493042 -0.70710676908493042
vn 0.57735025882720947 -0.57735025882720947 -0.57735025882720947
vn 0.57735025882720947 -0.57735025882720947 -0.57735025882720947
vn 0.57735025882720947 -0.57735025882720947 -0.57735025882720947
vn 0.70710676908493042 -0.70710676908493042 0
vn 0.70710676908493042 -0.70710676908493042 0
vn 0.70710676908493042 -0.70710676908493042 0
vn 0.70710676908493042 -0.70710676908493042 0
vn 0.57735025882720947 -0.57735025882720947 0.57735025882720947
vn 0.57735025882720947 -0.57735025882720947 0.57735025882720947
vn 0.57735025882720947 -0.57735025882720947 0.57735025882720947
vn 0.57735025882720947 0.57735025882720947 0.57735025882720947
vn 0.57735025882720947 0.57735025882720947 0.57735025882720947
vn 0.57735025882720947 0.57735025882720947 0.57735025882720947
vn 0 0.70710676908493042 0.70710676908493042
vn 0 0.70710676908493042 0.70710676908493042
vn 0 0.70710676908493042 0.70710676908493042
vn 0 0.70710676908493042 0.70710676908493042
vn 0.57735025882720947 -0.57735025882720947 -0.57735025882720947
vn 0.57735025882720947 -0.57735025882720947 -0.57735025882720947
vn 0.57735025882720947 -0.57735025882720947 -0.57735025882720947
vn 0.70710676908493042 -0.70710676908493042 0
vn 0.70710676908493042 -0.70710676908493042 0
vn 0.70710676908493042 -0.70710676908493042 0
vn 0.70710676908493042 -0.70710676908493042 0
vn 1 0 0
vn 1 0 0
vn 1 0 0
vn -1 0 0
vn -0.70710676908493042 0 -0.70710676908493042
vn -0.70710676908493042 0 -0.70710676908493042
vn -0.70710676908493042 0 -0.70710676908493042
vn -0.70710676908493042 0 -0.70710676908493042
vn 0 0 -1
vn 0 0 -1
vn 0 0 -1
vn 0 0 -1
vn 0.70710676908493042 0 -0.70710676908493042
vn 0.70710676908493042 0 -0.70710676908493042
vn 0.70710676908493042 0 -0.70710676908493042
vn 0.70710676908493042 0 -0.70710676908493042
vn 1 0 0
vn 1 0 0
vn 1 0 0
vn 1 0 0
vn 0.70710676908493042 0.70710676908493042 0
vn 0.70710676908493042 0.70710676908493042 0
vn 0.70710676908493042 0.70710676908493042 0
vn 0.70710676908493042 0.70710676908493042 0
vn 0 1 0
vn 0 1 0
vn 0 1 0
vn 0 1 0
vn 0 0.70710676908493042 -0.70710676908493042
vn 0 0.70710676908493042 -0.70710676908493042
vn 0 0.70710676908493042 -0.70710676908493042
vn 0 0.70710676908493042 -0.70710676908493042
vn 0.57735025882720947 0.57735025882720947 -0.57735025882720947
vn 0.57735025882720947 0.57735025882720947 -0.57735025882720947
vn 0.57735025882720947 0.57735025882720947 -0.57735025882720947
vn 0.57735025882720947 -0.57735025882720947 0.57735025882720947
vn 0.57735025882720947 -0.57735025882720947 0.57735025882720947
vn 0.57735025882720947 -0.57735025882720947 0.57735025882720947
vn 0.70710676908493042 0 0.70710676908493042
vn 0.70710676908493042 0 0.70710676908493042
vn -0.50544941425323486 0 -0.86285620927810669
vn -0.25272473692893982 0 -0.96753823757171631
vn 0.3826833963394165 0 -0.92387956380844116
vn 0.3826833963394165 0 -0.92387956380844116
vn -0.70710676908493042 0 0.70710676908493042
vn 0.70710676908493042 0 -0.70710676908493042
f 1/1/1 3/3/3 2/2/2
f 2/2/2 4/4/4 1/1/1
f 5/5/5 6/6/6 7/7/7
f 6/6/6 5/5/5 8/8/8
f 9/9/9 11/11/11 10/10/10
f 10/10/10 12/12/12 9/9/9
f 13/13/13 15/15/15 14/14/14
f 14/14/14 16/16/16 13/13/13
f 17/17/17 19/19/19 18/18/18
f 18/18/18 20/20/20 17/17/17
f 21/21/21 23/23/23 22/22/22
f 24/24/24 26/26/26 25/25/25
f 25/25/25 27/27/27 24/24/24
f 28/28/28 30/30/30 29/29/29
f 31/31/31 33/33/33 32/32/32
f 32/32/32 34/34/34 31/31/31
f 35/35/35 37/37/37 36/36/36
f 38/38/38 40/40/40 39/39/39
f 39/39/39 41/41/41 38/38/38
f 42/42/42 44/44/44 43/43/43
f 45/45/45 47/47/47 46/46/46
f 48/48/48 50/50/50 49/49/49
f 49/49/49 51/51/51 48/48/48
f 52/52/52 53/53/53 54/54/54
f 55/55/55 56/56/56 57/57/57
f 56/56/56 55/55/55 58/58/58
f 59/59/59 60/60/60 61/61/61
f 60/60/60 62/62/62 59/59/59
f 63/63/63 65/65/65 64/64/64
f 64/64/64 66/66/66 63/63/63
f 67/67/67 69/69/69 68/68/68
f 68/68/68 70/70/70 67/67/67
f 71/71/71 73/73/73 72/72/72
f 72/72/72 74/74/74 71/71/71
f 75/75/75 77/77/77 76/76/76
f 76/76/76 78/78/78 75/75/75
f 79/79/79 81/81/81 80/80/80
f 80/80/80 82/82/82 79/79/79
f 83/83/83 85/85/85 84/84/84
f 84/84/84 86/86/86 83/83/83
f 87/87/87 89/89/89 88/88/88
f 88/88/88 90/90/90 87/87/87
f 91/91/91 93/93/93 92/92/92
f 94/94/94 95/95/95 96/96/96
f 101/101/101 100/100/100 102/102/102
f 102/102/102 104/104/104 101/101/101
f 98/98/98 99/99/99 100/100/100
f 98/98/98 97/97/97 99/99/99
f 104/104/104 101/101/101 103/103/103
f 100/100/100 101/101/101 99/99/99
