# Rhino

mtllib Cabinet_01_16.mtl
usemtl Default
v 180.96819074499945 19.916016164999995 -84.749853373800079
v 162.29451955900004 38.589687350999988 -84.749853373800079
v 18.650895052698615 38.589687350999988 -84.749853373800079
v 180.96819074499945 913.89061698399996 -84.749853373800079
v 180.96819074499945 19.916016164999995 -91.932034598599785
v 180.96819074499945 913.89061698399996 -91.932034598599785
v 180.96819074499945 19.916016164999995 -91.932034598599785
v 162.29451955900004 38.589687350999988 -91.932034598599785
v 180.96819074499945 913.89061698399996 -91.932034598599785
v 18.650895052698615 38.589687350999988 -91.932034598599785
v -0.022776133102524909 19.916016164999995 -91.932034598599785
v -0.022776133102524909 913.89061698399996 -91.932034598599785
v -0.022776133102524909 19.916016164999995 -84.749853373800079
v -0.022776133102524909 913.89061698399996 -91.932034598599785
v -0.022776133102524909 19.916016164999995 -91.932034598599785
v -0.022776133102524909 913.89061698399996 -84.749853373800079
v -0.022776133102524909 19.916016164999995 -84.749853373800079
v -0.022776133102524909 913.89061698399996 -84.749853373800079
v 180.96819074499945 19.916016164999995 -91.932034598599785
v 180.96819074499945 19.916016164999995 -84.749853373800079
v -0.022776133102524909 19.916016164999995 -91.932034598599785
v 18.650895052698615 457.56584894986804 -84.749853373800079
v 18.650895052698615 38.589687350999988 -91.932034598599785
v 18.650895052698615 457.56584894986804 -84.749853373800079
v 18.650895052698615 38.589687350999988 -84.749853373800079
v 18.650895052698615 457.56584894986804 -91.932034598599785
v 18.650895052698615 457.56584894986804 -91.932034598599785
v 18.650895052698615 476.23952013569999 -91.932034598599785
v 18.650895052698615 895.21694579799998 -91.932034598599785
v 162.29451955900004 895.21694579799998 -91.932034598599785
v 162.29451955900004 476.23952013569999 -91.932034598599785
v 162.29451955900004 457.56584894986804 -91.932034598599785
v 162.29451955900004 38.589687350999988 -84.749853373800079
v 162.29451955900004 457.56584894986804 -91.932034598599785
v 162.29451955900004 38.589687350999988 -91.932034598599785
v 162.29451955900004 457.56584894986804 -84.749853373800079
v 162.29451955900004 457.56584894986804 -84.749853373800079
v 162.29451955900004 476.23952013569999 -84.749853373800079
v 162.29451955900004 895.21694579799998 -84.749853373800079
v 18.650895052698615 895.21694579799998 -84.749853373800079
v 18.650895052698615 476.23952013569999 -84.749853373800079
v 18.650895052698615 457.56584894986804 -84.749853373800079
v 162.29451955900004 457.56584894986804 -91.932034598599785
v 162.29451955900004 457.56584894986804 -84.749853373800079
v 18.650895052698615 457.56584894986804 -91.932034598599785
v 18.650895052698615 476.23952013569999 -91.932034598599785
v 162.29451955900004 476.23952013569999 -84.749853373800079
v 162.29451955900004 476.23952013569999 -91.932034598599785
v 18.650895052698615 476.23952013569999 -84.749853373800079
v 18.650895052698615 476.23952013569999 -91.932034598599785
v 18.650895052698615 895.21694579799998 -84.749853373800079
v 18.650895052698615 476.23952013569999 -84.749853373800079
v 18.650895052698615 895.21694579799998 -91.932034598599785
v 162.29451955900004 895.21694579799998 -91.932034598599785
v 18.650895052698615 895.21694579799998 -84.749853373800079
v 18.650895052698615 895.21694579799998 -91.932034598599785
v 162.29451955900004 895.21694579799998 -84.749853373800079
v 162.29451955900004 895.21694579799998 -91.932034598599785
v 162.29451955900004 476.23952013569999 -84.749853373800079
v 162.29451955900004 895.21694579799998 -84.749853373800079
v 162.29451955900004 476.23952013569999 -91.932034598599785
v 162.29451955900004 38.589687350999988 -84.749853373800079
v 18.650895052698615 38.589687350999988 -91.932034598599785
v 18.650895052698615 38.589687350999988 -84.749853373800079
v 162.29451955900004 38.589687350999988 -91.932034598599785
v 180.96819074499945 913.89061698399996 -84.749853373800079
v -0.022776133102524909 913.89061698399996 -91.932034598599785
v -0.022776133102524909 913.89061698399996 -84.749853373800079
v 180.96819074499945 913.89061698399996 -91.932034598599785
vt 0 0
vt -1.625 1.625
vt -14.125 1.625
vt 0 77.794403076171875
vt 0.625 0
vt 0.625 77.794403076171875
vt 0 0
vt 1.625 1.625
vt 0 77.794403076171875
vt 14.125 1.625
vt 15.75 0
vt 15.75 77.794403076171875
vt 0 0
vt -0.625 77.794403076171875
vt -0.625 0
vt 0 77.794403076171875
vt -15.75 0
vt -15.75 77.794403076171875
vt 0 -0.625
vt 0 0
vt -15.75 -0.625
vt -14.125 38.084701538085938
vt 0.625 1.625
vt 0 38.084701538085938
vt 0 1.625
vt 0.625 38.084701538085938
vt 14.125 38.084701538085938
vt 14.125 39.709701538085938
vt 14.125 76.169403076171875
vt 1.625 76.169403076171875
vt 1.625 39.709701538085938
vt 1.625 38.084701538085938
vt 0 1.625
vt -0.625 38.084701538085938
vt -0.625 1.625
vt 0 38.084701538085938
vt -1.625 38.084701538085938
vt -1.625 39.709701538085938
vt -1.625 76.169403076171875
vt -14.125 76.169403076171875
vt -14.125 39.709701538085938
vt -14.125 0
vt -1.625 -0.625
vt -1.625 0
vt -14.125 -0.625
vt 14.125 -0.625
vt 1.625 0
vt 1.625 -0.625
vt 14.125 0
vt 0.625 39.709701538085938
vt 0 76.169403076171875
vt 0 39.709701538085938
vt 0.625 76.169403076171875
vt -1.625 -0.625
vt -14.125 0
vt -14.125 -0.625
vt -1.625 0
vt -0.625 76.169403076171875
vt 0 39.709701538085938
vt 0 76.169403076171875
vt -0.625 39.709701538085938
vt 1.625 0
vt 14.125 -0.625
vt 14.125 0
vt 1.625 -0.625
vt 0 0
vt 15.75 -0.625
vt 15.75 0
vt 0 -0.625
vn 0.31622773408889771 0 0.94868332147598267
vn 0 0 1
vn 0 0 1
vn 0.31622773408889771 0 0.94868332147598267
vn 1 0 0
vn 1 0 0
vn 0 0 -1
vn 0 0 -1
vn 0 0 -1
vn 0 0 -1
vn 0 0 -1
vn 0 0 -1
vn -1 0 0
vn -1 0 0
vn -1 0 0
vn -1 0 0
vn 0 -0.70710676908493042 0.70710676908493042
vn 0 0 1
vn 0 -1 0
vn 0 -1 0
vn 0 -1 0
vn 0 0 1
vn 1 0 0
vn 1 0 0
vn 1 0 0
vn 1 0 0
vn 0 0 -1
vn 0 0 -1
vn 0 0 -1
vn 0 0 -1
vn 0 0 -1
vn 0 0 -1
vn -1 0 0
vn -1 0 0
vn -1 0 0
vn -1 0 0
vn 0 0 1
vn 0 0 1
vn 0 0 1
vn 0 0 1
vn 0 0 1
vn 0 -1 0
vn 0 -1 0
vn 0 -1 0
vn 0 -1 0
vn 0 1 0
vn 0 1 0
vn 0 1 0
vn 0 1 0
vn 1 0 0
vn 1 0 0
vn 1 0 0
vn 1 0 0
vn 0 -1 0
vn 0 -1 0
vn 0 -1 0
vn 0 -1 0
vn -1 0 0
vn -1 0 0
vn -1 0 0
vn -1 0 0
vn 0 1 0
vn 0 1 0
vn 0 1 0
vn 0 1 0
vn 0 1 0
vn 0 1 0
vn 0 1 0
vn 0 1 0
f 1/1/1 2/2/2 3/3/3
f 2/2/2 1/1/1 4/4/4
f 5/5/5 4/4/4 1/1/1
f 4/4/4 5/5/5 6/6/6
f 7/7/7 8/8/8 9/9/9
f 8/8/8 7/7/7 10/10/10
f 11/11/11 10/10/10 7/7/7
f 10/10/10 11/11/11 12/12/12
f 13/13/13 14/14/14 15/15/15
f 14/14/14 13/13/13 16/16/16
f 17/17/17 3/3/3 18/18/18
f 3/3/3 17/17/17 1/1/1
f 17/17/17 19/19/19 20/20/20
f 19/19/19 17/17/17 21/21/21
f 18/18/18 3/3/3 22/22/22
f 23/23/23 24/24/24 25/25/25
f 24/24/24 23/23/23 26/26/26
f 10/10/10 12/12/12 27/27/27
f 27/27/27 12/12/12 28/28/28
f 28/28/28 12/12/12 29/29/29
f 29/29/29 12/12/12 30/30/30
f 9/9/9 30/30/30 12/12/12
f 9/9/9 31/31/31 30/30/30
f 9/9/9 32/32/32 31/31/31
f 9/9/9 8/8/8 32/32/32
f 33/33/33 34/34/34 35/35/35
f 34/34/34 33/33/33 36/36/36
f 2/2/2 4/4/4 37/37/37
f 37/37/37 4/4/4 38/38/38
f 38/38/38 4/4/4 39/39/39
f 39/39/39 4/4/4 40/40/40
f 18/18/18 40/40/40 4/4/4
f 18/18/18 41/41/41 40/40/40
f 18/18/18 22/22/22 41/41/41
f 41/41/41 22/22/22 38/38/38
f 37/37/37 38/38/38 22/22/22
f 42/42/42 43/43/43 44/44/44
f 43/43/43 42/42/42 45/45/45
f 27/27/27 28/28/28 32/32/32
f 31/31/31 32/32/32 28/28/28
f 46/46/46 47/47/47 48/48/48
f 47/47/47 46/46/46 49/49/49
f 50/50/50 51/51/51 52/52/52
f 51/51/51 50/50/50 53/53/53
f 54/54/54 55/55/55 56/56/56
f 55/55/55 54/54/54 57/57/57
f 58/58/58 59/59/59 60/60/60
f 59/59/59 58/58/58 61/61/61
f 62/62/62 63/63/63 64/64/64
f 63/63/63 62/62/62 65/65/65
f 66/66/66 67/67/67 68/68/68
f 67/67/67 66/66/66 69/69/69
