# Rhino

mtllib Cabinet_02_01.mtl
usemtl Default
v -166.91861148640783 887.98397768699999 -28.943781551201027
v -172.53876324440898 887.98397768699999 -28.943781551201027
v -166.91861148640783 887.98397768699999 27.257736023901089
v -172.53876324440898 887.98397768699999 27.257736023901089
v -166.91861148640783 927.32503999000005 27.257736023901089
v -172.53876324440898 927.32503999000005 27.257736023901089
v -166.91861148640783 927.32503999000005 -28.943781551201027
v -172.53876324440898 927.32503999000005 -28.943781551201027
v -166.91861148640783 887.98397768699999 27.257736023901089
v -172.53876324440898 887.98397768699999 27.257736023901089
v -166.91861148640783 927.32503999000005 27.257736023901089
v -172.53876324440898 927.32503999000005 27.257736023901089
v -172.53876324440898 887.98397768699999 27.257736023901089
v -172.53876324440898 887.98397768699999 -28.943781551201027
v -172.53876324440898 927.32503999000005 27.257736023901089
v -172.53876324440898 927.32503999000005 -28.943781551201027
v -172.53876324440898 887.98397768699999 -28.943781551201027
v -166.91861148640783 887.98397768699999 -28.943781551201027
v -172.53876324440898 927.32503999000005 -28.943781551201027
v -166.91861148640783 927.32503999000005 -28.943781551201027
v -166.91861148640783 887.98397768699999 -28.943781551201027
v -166.91861148640783 887.98397768699999 27.257736023901089
v -166.91861148640783 927.32503999000005 -28.943781551201027
v -166.91861148640783 927.32503999000005 27.257736023901089
vt 0 0
vt 1 0
vt 0 1
vt 1 1
vt 0 0
vt 1 0
vt 0 1
vt 1 1
vt 0 0
vt 1 0
vt 0 1
vt 1 1
vt 0 0
vt 1 0
vt 0 1
vt 1 1
vt 0 0
vt 1 0
vt 0 1
vt 1 1
vt 0 0
vt 1 0
vt 0 1
vt 1 1
vn 0 -1 0
vn 0 -1 0
vn 0 -1 0
vn 0 -1 0
vn 0 1 0
vn 0 1 0
vn 0 1 0
vn 0 1 0
vn 0 0 1
vn 0 0 1
vn 0 0 1
vn 0 0 1
vn -1 0 0
vn -1 0 0
vn -1 0 0
vn -1 0 0
vn 0 0 -1
vn 0 0 -1
vn 0 0 -1
vn 0 0 -1
vn 1 0 0
vn 1 0 0
vn 1 0 0
vn 1 0 0
f 1/1/1 3/3/3 4/4/4 2/2/2
f 5/5/5 7/7/7 8/8/8 6/6/6
f 9/9/9 11/11/11 12/12/12 10/10/10
f 13/13/13 15/15/15 16/16/16 14/14/14
f 17/17/17 19/19/19 20/20/20 18/18/18
f 21/21/21 23/23/23 24/24/24 22/22/22
