# Rhino

mtllib Cabinet_11_02.mtl
usemtl Default
v 76.834575259899793 660.44814326200003 45.773633691400391
v -76.834575259899793 634.291781152 45.773633691400391
v -76.834575259899793 634.291781152 45.773633691400391
v 76.834575259899793 634.291781152 -71.929995800699544
v -76.834575259899793 634.291781152 -71.929995800699544
v -76.834575259899793 660.44814326200003 -71.929995800699544
v -76.834575259899793 634.291781152 -71.929995800699544
v 76.834575259899793 634.291781152 -71.929995800699544
v 76.834575259899793 660.44814326200003 -71.929995800699544
v 76.834575259899793 634.291781152 -71.929995800699544
v -76.834575259899793 660.44814326200003 -71.929995800699544
v 76.834575259899793 660.44814326200003 -71.929995800699544
v -76.834575259899793 634.291781152 -71.929995800699544
v -76.834575259899793 660.44814326200003 -71.929995800699544
v 76.834575259899793 660.44814326200003 -71.929995800699544
v -76.834408765946137 634.29178115200023 45.773506164551691
v 12.841884887906417 634.29178115199988 45.773506164550781
v 76.834575259899793 634.29178115199988 45.773506164550781
v -76.834575259899793 634.29180949129989 45.773506164549872
v -76.834408765946137 634.29178115200023 45.773506164551691
v -76.834575259899793 634.29180949129989 45.773506164549872
v -76.834575259899793 660.44814326200003 45.773506164550781
v -76.834575259899793 634.29180949129989 45.773506164549872
v 76.834575259899793 660.44814326200003 45.773506164550781
v 76.834575259899793 634.29178115199988 45.773506164550781
v 76.834575259899793 660.44814326200003 45.773506164550781
v 76.834408765946137 660.44814326200003 45.773506164550781
v 76.834408765946137 660.44814326200003 45.773506164550781
v -16.902028762958253 660.44814326200003 45.773506164550781
v -76.834575259899793 660.44814326200003 45.773506164550781
vt 2 50.5
vt -2 48.5
vt -11.75 -2
vt 0 -11
vt -11.75 -11
vt -11 50.5
vt -11 48.5
vt 11 48.5
vt 11 50.5
vt 0 48.5
vt 11.75 50.5
vt 0 50.5
vt 11.75 48.5
vt 11.75 -11
vt 0 -11
vt -11.749987602233887 -2.0000097751617432
vt -4.893071174621582 -2.0000097751617432
vt 0 -2.0000097751617432
vt -11.75 -2.0000097751617432
vt -11.749987602233887 -2.0000097751617432
vt -2.0000097751617432 48.5
vt -2.0000097751617432 50.5
vt -2.0000097751617432 48.5
vt 2.0000097751617432 50.5
vt 2.0000097751617432 48.5
vt 0 -2.0000097751617432
vt 1.2730622984236106E-05 -2.0000097751617432
vt 1.2730622984236106E-05 -2.0000097751617432
vt 7.1673793792724609 -2.0000097751617432
vt 11.75 -2.0000097751617432
vn 1 0 0
vn -1 0 0
vn 0 -1 0
vn 0 -1 0
vn 0 -1 0
vn -1 0 0
vn -1 0 0
vn 1 0 0
vn 1 0 0
vn 0 0 -1
vn 0 0 -1
vn 0 0 -1
vn 0 0 -1
vn 0 1 0
vn 0 1 0
vn 0 -1 0
vn 0 -1 0
vn 0 -1 0
vn 0 -1 0
vn 0 -1 0
vn -1 0 0
vn -1 0 0
vn -1 0 0
vn 1 0 0
vn 1 0 0
vn 0 1 0
vn 0 1 0
vn 0 1 0
vn 0 1 0
vn 0 1 0
f 10/10/10 11/11/11 12/12/12
f 11/11/11 10/10/10 13/13/13
f 4/4/4 17/17/17 16/16/16
f 4/4/4 18/18/18 17/17/17
f 20/20/20 5/5/5 4/4/4
f 19/19/19 20/20/20 3/3/3
f 5/5/5 20/20/20 19/19/19
f 7/7/7 2/2/2 21/21/21
f 21/21/21 6/6/6 7/7/7
f 23/23/23 22/22/22 6/6/6
f 24/24/24 25/25/25 8/8/8
f 8/8/8 24/24/24 1/1/1
f 24/24/24 8/8/8 9/9/9
f 27/27/27 15/15/15 14/14/14
f 15/15/15 27/27/27 26/26/26
f 14/14/14 29/29/29 28/28/28
f 14/14/14 30/30/30 29/29/29
