# Rhino

mtllib Cabinet_06_13.mtl
usemtl Default
v -81.807035054399421 486.75185857419996 -61.912504910102143
v 82.216070229700563 278.14391918500002 -61.912504910102143
v 82.216070229700563 486.75185857419996 -61.912504910102143
v -81.807035054399421 278.14391918500002 -61.912504910102143
v -81.807035054399421 486.75185857419996 -61.912504910102143
v -81.807035054399421 278.14391918500002 -62.44425063790186
v -81.807035054399421 278.14391918500002 -61.912504910102143
v -81.807035054399421 487.16089374947001 -62.44425063790186
v -81.807035054399421 486.75185857419996 -61.912504910102143
v 82.216070229700563 487.16089374947001 -62.44425063790186
v -81.807035054399421 487.16089374947001 -62.44425063790186
v 82.216070229700563 486.75185857419996 -61.912504910102143
v 82.216070229700563 487.16089374947001 -62.44425063790186
v 82.216070229700563 278.14391918500002 -62.44425063790186
v -81.807035054399421 278.14391918500002 -62.44425063790186
v 82.216070229700563 278.14391918500002 -62.44425063790186
v -81.807035054399421 278.14391918500002 -61.912504910102143
v 77.84021192470027 482.37109184703002 -64.489426514299339
v -77.575770683799419 482.53061556538603 -64.429543764699702
v 77.985010376700302 482.53061556538603 -64.429543764699702
v -77.431135845899917 482.37109184703002 -64.489426514299339
v 77.84021192470027 482.37109184703002 -64.489426514299339
v -77.431135845899917 282.51977749000002 -64.489426514299339
v -77.431135845899917 482.37109184703002 -64.489426514299339
v 77.84021192470027 282.51977749000002 -64.489426514299339
v 77.985010376700302 482.53061556538603 -64.429543764699702
v 77.84021192470027 282.51977749000002 -64.489426514299339
v 77.84021192470027 482.37109184703002 -64.489426514299339
v 77.985010376700302 282.37538807400006 -64.429543764699702
v -77.431135845899917 482.37109184703002 -64.489426514299339
v -77.575770683799419 282.37538807400006 -64.429543764699702
v -77.575770683799419 482.53061556538603 -64.429543764699702
v -77.431135845899917 282.51977749000002 -64.489426514299339
v 77.84021192470027 282.51977749000002 -64.489426514299339
v -77.575770683799419 282.37538807400006 -64.429543764699702
v -77.431135845899917 282.51977749000002 -64.489426514299339
v 77.985010376700302 282.37538807400006 -64.429543764699702
v -77.575770683799419 282.37538807400006 -64.429543764699702
v -77.575770683799419 482.53061556538603 -64.429543764699702
v 0.20461984644953191 382.45300181969299 -64.429543764699702
v 77.985010376700302 282.37538807400006 -64.429543764699702
v 77.985010376700302 482.53061556538603 -64.429543764699702
v 78.044729512299455 282.32344060699995 -62.44425063790186
v 82.216070229700563 278.14391918500002 -62.44425063790186
v -81.807035054399421 278.14391918500002 -62.44425063790186
v 82.216070229700563 487.16089374947001 -62.44425063790186
v 78.044729512299455 482.98055425818507 -62.44425063790186
v -81.807035054399421 487.16089374947001 -62.44425063790186
v -77.635653433500011 482.98055425818507 -62.44425063790186
v 78.044729512299455 482.62060330394559 -64.28490892660011
v -77.635653433500011 482.98055425818507 -62.44425063790186
v 78.044729512299455 482.98055425818507 -62.44425063790186
v -77.635653433500011 482.62060330394559 -64.28490892660011
v 77.985010376700302 482.53061556538603 -64.429543764699702
v -77.635653433500011 482.62060330394559 -64.28490892660011
v 78.044729512299455 482.62060330394559 -64.28490892660011
v -77.575770683799419 482.53061556538603 -64.429543764699702
v 78.044729512299455 482.62060330394559 -64.28490892660011
v 77.985010376700302 282.37538807400006 -64.429543764699702
v 77.985010376700302 482.53061556538603 -64.429543764699702
v 78.044729512299455 282.31607797300001 -64.28490892660011
v 78.044729512299455 482.62060330394559 -64.28490892660011
v 78.044729512299455 282.32344060699995 -62.44425063790186
v 78.044729512299455 282.31607797300001 -64.28490892660011
v 78.044729512299455 482.98055425818507 -62.44425063790186
v 78.044729512299455 282.32344060699995 -62.44425063790186
v -77.635653433500011 282.31607797300001 -64.28490892660011
v 78.044729512299455 282.31607797300001 -64.28490892660011
v -77.635653433500011 282.32344060699995 -62.44425063790186
v -77.635653433500011 282.32344060699995 -62.44425063790186
v -77.635653433500011 482.62060330394559 -64.28490892660011
v -77.635653433500011 282.32344060699995 -62.44425063790186
v -77.635653433500011 482.98055425818507 -62.44425063790186
v -77.635653433500011 282.31607797300001 -64.28490892660011
v -77.635653433500011 482.62060330394559 -64.28490892660011
v -77.575770683799419 282.37538807400006 -64.429543764699702
v -77.635653433500011 282.31607797300001 -64.28490892660011
v -77.575770683799419 482.53061556538603 -64.429543764699702
v 78.044729512299455 282.31607797300001 -64.28490892660011
v -77.575770683799419 282.37538807400006 -64.429543764699702
v 77.985010376700302 282.37538807400006 -64.429543764699702
v -77.635653433500011 282.31607797300001 -64.28490892660011
v -81.807035054399421 278.14391918500002 -62.44425063790186
v -81.807035054399421 487.16089374947001 -62.44425063790186
v 0.20451758765011618 382.65240646723504 -62.44425063790186
v 82.216070229700563 278.14391918500002 -62.44425063790186
v 82.216070229700563 487.16089374947001 -62.44425063790186
v -77.575770683799419 282.37538807400006 -64.429543764699702
v -77.575770683799419 482.53061556538603 -64.429543764699702
v 0.20461984644953191 382.45300181969299 -64.429543764699702
v 77.985010376700302 282.37538807400006 -64.429543764699702
v 77.985010376700302 482.53061556538603 -64.429543764699702
vt -15.787400245666504 20.078699111938477
vt 0 0
vt 0 20.078699111938477
vt -15.787400245666504 0
vt 0 20.078699111938477
vt -0.051181100308895111 0
vt 0 0
vt -0.051181100308895111 20.118099212646484
vt -15.787400245666504 12.242199897766113
vt 0 12.30679988861084
vt -15.787400245666504 12.30679988861084
vt 0 12.242199897766113
vt 0.051181100308895111 20.118099212646484
vt 0.051181100308895111 0
vt -0.051181100308895111 15.787400245666504
vt -0.051181100308895111 0
vt 0 15.787400245666504
vt 0.021396100521087646 0.20221799612045288
vt 0.78131097555160522 0.20239900052547455
vt 0.020688999444246292 0.20239900052547455
vt 0.78060400485992432 0.20221799612045288
vt 0.13115200400352478 0.23875099420547485
vt 0.86725097894668579 0.028688900172710419
vt 0.86725097894668579 0.23875099420547485
vt 0.13115200400352478 0.028688900172710419
vt 0.023823900148272514 0.2172749936580658
vt 0.02458919957280159 0.0046518100425601006
vt 0.02458919957280159 0.21710599958896637
vt 0.023823900148272514 0.0044983299449086189
vt 0.71636199951171875 0.21710599958896637
vt 0.71712797880172729 0.0044983299449086189
vt 0.71712797880172729 0.2172749936580658
vt 0.71636199951171875 0.0046518100425601006
vt 0.021396100521087646 0.0053464798256754875
vt 0.78131097555160522 0.0051803099922835827
vt 0.78060400485992432 0.0053464798256754875
vt 0.020688999444246292 0.0051803099922835827
vt 0 0
vt 1 0
vt 0.5 0.5
vt 0 1
vt 1 1
vt 13.736300468444824 10.421199798583984
vt 13.609700202941895 10.395700454711914
vt 18.587499618530273 10.395700454711914
vt 13.609700202941895 11.670700073242188
vt 13.736300468444824 11.645199775695801
vt 18.587499618530273 11.670700073242188
vt 18.460899353027344 11.645199775695801
vt 13.723899841308594 8.8464899063110352
vt 18.44849967956543 8.8579502105712891
vt 13.723899841308594 8.8579502105712891
vt 18.44849967956543 8.8464899063110352
vt 0.40208700299263 2.0155999660491943
vt 15.190299987792969 2.0188601016998291
vt 0.3963949978351593 2.0188601016998291
vt 15.184700012207031 2.0155999660491943
vt 0.35997700691223145 3.9132800102233887
vt 0.37485200166702271 0.080982498824596405
vt 0.37485200166702271 3.9115700721740723
vt 0.35997700691223145 0.079847201704978943
vt 13.717700004577637 8.8454599380493164
vt 13.661800384521484 7.6212501525878906
vt 13.717700004577637 7.6212100982666016
vt 13.661800384521484 8.8476600646972656
vt 13.723899841308594 7.6086997985839844
vt 18.44849967956543 7.6199498176574707
vt 13.723899841308594 7.6199498176574707
vt 18.44849967956543 7.6086997985839844
vt 18.460899353027344 10.421199798583984
vt 18.454700469970703 8.8454599380493164
vt 18.510599136352539 7.6212501525878906
vt 18.510599136352539 8.8476600646972656
vt 18.454700469970703 7.6212100982666016
vt 5.6048102378845215 3.9132800102233887
vt 5.5899300575256348 0.080982498824596405
vt 5.6048102378845215 0.079847201704978943
vt 5.5899300575256348 3.9115700721740723
vt 0.3963949978351593 0.072310097515583038
vt 15.184700012207031 0.075301602482795715
vt 0.40208700299263 0.075301602482795715
vt 15.190299987792969 0.072310097515583038
vt 0 0
vt 1 0
vt 0.5 0.5
vt 0 1
vt 1 1
vt 1 0
vt 0 0
vt 0.5 0.5
vt 1 1
vt 0 1
vn 0 0 1
vn 0.57735025882720947 -0.57735025882720947 0.57735025882720947
vn 0.70710676908493042 0 0.70710676908493042
vn 0 0 1
vn -1 0 0
vn -1 0 0
vn -1 0 0
vn -1 0 0
vn 0 0.79262399673461914 0.60971075296401978
vn 0 0.79262399673461914 0.60971075296401978
vn 0 0.79262399673461914 0.60971075296401978
vn 0 0.79262399673461914 0.60971075296401978
vn 1 0 0
vn 1 0 0
vn 0 -1 0
vn 0 -1 0
vn 0 -1 0
vn 0 0.35143911838531494 -0.9362107515335083
vn 0 0.35143911838531494 -0.9362107515335083
vn 0 0.35143911838531494 -0.9362107515335083
vn 0 0.35143911838531494 -0.9362107515335083
vn 0 0 -1
vn 0 0 -1
vn 0 0 -1
vn 0 0 -1
vn 0.38216733932495117 0 -0.92409312725067139
vn 0.38216733932495117 0 -0.92409312725067139
vn 0.38216733932495117 0 -0.92409312725067139
vn 0.38216733932495117 0 -0.92409312725067139
vn -0.38253644108772278 0 -0.92394042015075684
vn -0.38253644108772278 0 -0.92394042015075684
vn -0.38253644108772278 0 -0.92394042015075684
vn -0.38253644108772278 0 -0.92394042015075684
vn 0 -0.3830912709236145 -0.92371046543121338
vn 0 -0.3830912709236145 -0.92371046543121338
vn 0 -0.3830912709236145 -0.92371046543121338
vn 0 -0.3830912709236145 -0.92371046543121338
vn 0 0 -1
vn 0 0 -1
vn 0 0 -1
vn 0 0 -1
vn 0 0 -1
vn 0 0 -1
vn 0 0 -1
vn 0 0 -1
vn 0 0 -1
vn 0 0 -1
vn 0 0 -1
vn 0 0 -1
vn 0 0.98141050338745117 -0.19192028045654297
vn 0 0.98141050338745117 -0.19192028045654297
vn 0 0.98141050338745117 -0.19192028045654297
vn 0 0.98141050338745117 -0.19192028045654297
vn 0 0.84907573461532593 -0.5282711386680603
vn 0 0.84907573461532593 -0.5282711386680603
vn 0 0.84907573461532593 -0.5282711386680603
vn 0 0.84907573461532593 -0.5282711386680603
vn 0.92430955171585083 0 -0.38164365291595459
vn 0.92430955171585083 0 -0.38164365291595459
vn 0.92430955171585083 0 -0.38164365291595459
vn 0.92430955171585083 0 -0.38164365291595459
vn 1 0 0
vn 1 0 0
vn 1 0 0
vn 1 0 0
vn 0 -0.9999920129776001 0.0039999685250222683
vn 0 -0.9999920129776001 0.0039999685250222683
vn 0 -0.9999920129776001 0.0039999685250222683
vn 0 -0.9999920129776001 0.0039999685250222683
vn 0 0 -1
vn -1 0 0
vn -1 0 0
vn -1 0 0
vn -1 0 0
vn -0.92394042015075684 0 -0.38253644108772278
vn -0.92394042015075684 0 -0.38253644108772278
vn -0.92394042015075684 0 -0.38253644108772278
vn -0.92394042015075684 0 -0.38253644108772278
vn 0 -0.92522984743118286 -0.37940704822540283
vn 0 -0.92522984743118286 -0.37940704822540283
vn 0 -0.92522984743118286 -0.37940704822540283
vn 0 -0.92522984743118286 -0.37940704822540283
vn 0 0 -1
vn 0 0 -1
vn 0 0 -1
vn 0 0 -1
vn 0 0 -1
vn 0 0 -1
vn 0 0 -1
vn 0 0 -1
vn 0 0 -1
vn 0 0 -1
f 1/1/1 2/2/2 3/3/3
f 2/2/2 1/1/1 4/4/4
f 5/5/5 6/6/6 7/7/7
f 6/6/6 5/5/5 8/8/8
f 9/9/9 10/10/10 11/11/11
f 10/10/10 9/9/9 12/12/12
f 2/2/2 13/13/13 3/3/3
f 13/13/13 2/2/2 14/14/14
f 2/2/2 15/15/15 16/16/16
f 15/15/15 2/2/2 17/17/17
f 18/18/18 19/19/19 20/20/20
f 19/19/19 18/18/18 21/21/21
f 22/22/22 23/23/23 24/24/24
f 23/23/23 22/22/22 25/25/25
f 26/26/26 27/27/27 28/28/28
f 27/27/27 26/26/26 29/29/29
f 30/30/30 31/31/31 32/32/32
f 31/31/31 30/30/30 33/33/33
f 34/34/34 35/35/35 36/36/36
f 35/35/35 34/34/34 37/37/37
f 40/40/40 41/41/41 38/38/38
f 42/42/42 40/40/40 39/39/39
f 38/38/38 39/39/39 40/40/40
f 41/41/41 40/40/40 42/42/42
f 43/43/43 44/44/44 45/45/45
f 44/44/44 43/43/43 46/46/46
f 47/47/47 46/46/46 43/43/43
f 46/46/46 47/47/47 48/48/48
f 48/48/48 47/47/47 49/49/49
f 50/50/50 51/51/51 52/52/52
f 51/51/51 50/50/50 53/53/53
f 54/54/54 55/55/55 56/56/56
f 55/55/55 54/54/54 57/57/57
f 58/58/58 59/59/59 60/60/60
f 59/59/59 58/58/58 61/61/61
f 62/62/62 63/63/63 64/64/64
f 63/63/63 62/62/62 65/65/65
f 66/66/66 67/67/67 68/68/68
f 67/67/67 66/66/66 69/69/69
f 43/43/43 45/45/45 70/70/70
f 70/70/70 45/45/45 49/49/49
f 48/48/48 49/49/49 45/45/45
f 71/71/71 72/72/72 73/73/73
f 72/72/72 71/71/71 74/74/74
f 75/75/75 76/76/76 77/77/77
f 76/76/76 75/75/75 78/78/78
f 79/79/79 80/80/80 81/81/81
f 80/80/80 79/79/79 82/82/82
f 85/85/85 86/86/86 83/83/83
f 87/87/87 85/85/85 84/84/84
f 83/83/83 84/84/84 85/85/85
f 86/86/86 85/85/85 87/87/87
f 90/90/90 89/89/89 92/92/92
f 91/91/91 88/88/88 90/90/90
f 89/89/89 90/90/90 88/88/88
f 92/92/92 91/91/91 90/90/90
