# Rhino

mtllib Cabinet_18_19.mtl
usemtl Default
v 148.76721496600021 364.50086857860003 -100.66157707799994
v 153.85327359799976 369.58692720990001 -100.66157707799994
v 148.76721496600021 369.58692720990001 -100.66157707799994
v 153.85327359799976 364.50086857860003 -100.66157707799994
vt -13.740200042724609 33.858299255371094
vt -13.2677001953125 34.330699920654297
vt -13.740200042724609 34.330699920654297
vt -13.2677001953125 33.858299255371094
vn 0 0 1
vn 0 0 1
vn 0 0 1
vn 0 0 1
f 1/1/1 2/2/2 3/3/3
f 2/2/2 1/1/1 4/4/4
