# Rhino

mtllib Cabinet_15_13.mtl
usemtl Default
v -295.98731161700016 765.19714973500015 113.96218848799981
v 284.19811970400042 765.19714973500015 113.96218848799981
v 295.98731161700016 765.19714973500015 -113.96218848799981
v 295.98731161700016 765.19714973500015 113.96218848799981
v 284.19811970400042 765.19714973500015 -102.17299657500007
v -295.98731161700016 765.19714973500015 -113.96218848799981
v 264.54946651699993 765.19714973500015 -102.17299657500007
v -284.19811970400042 765.19714973500015 -102.17299657500007
v -264.74202331800007 765.19714973500015 -102.17299657500007
v 295.98731161700016 765.19715785980225 -113.96195286873626
v 284.19811970400042 765.19714973500015 -82.524343387300178
v 284.19811970400042 765.19714973500015 94.313535300399963
v 295.98731161700016 765.19715785980225 -113.96195286873626
v 118.53904891736875 765.19717238951853 -113.96218848799981
v 123.39829151228059 765.19717109417456 -102.17299657499825
vt -5.5792598724365234 0.96666699647903442
vt -0.11111100018024445 0.96666699647903442
vt 0 0
vt 0 0.96666699647903442
vt -0.11111100018024445 0.05000000074505806
vt -5.5792598724365234 0
vt -0.29629600048065186 0.05000000074505806
vt -5.4681501388549805 0.05000000074505806
vt -5.2847700119018555 0.05000000074505806
vt 0 9.9930230135214515E-07
vt -0.11111100018024445 0.13333337008953094
vt -0.11111100018024445 0.88333368301391602
vt 0 9.9930230135214515E-07
vt -1.672419548034668 0
vt -1.6266195774078369 0.05000000074505806
vn 0 -1 0
vn 0 -1 0
vn 0 -1 0
vn 0 -1 0
vn 0 -1 0
vn 0 -1 0
vn 0 -1 0
vn 0 -1 0
vn 0 -1 0
vn 0 -1 0
vn 0 -1 0
vn 0 -1 0
vn 0 -1 0
vn 0 -1 0
vn 0 -1 0
f 10/10/10 4/4/4 2/2/2
f 2/2/2 3/3/3 10/10/10
f 5/5/5 3/3/3 13/13/13
f 11/11/11 5/5/5 13/13/13
f 11/11/11 13/13/13 12/12/12
f 2/2/2 12/12/12 13/13/13
f 14/14/14 3/3/3 5/5/5
f 14/14/14 5/5/5 6/6/6
f 7/7/7 6/6/6 5/5/5
f 6/6/6 8/8/8 1/1/1
f 8/8/8 6/6/6 9/9/9
f 15/15/15 9/9/9 6/6/6
f 6/6/6 7/7/7 15/15/15
