# Rhino

mtllib Cabinet_18_20.mtl
usemtl Default
v 153.85327359799976 428.07660147009994 -100.66157707799994
v 148.76721496600021 422.99054283869998 -100.66157707799994
v 153.85327359799976 422.99054283869998 -100.66157707799994
v 148.76721496600021 428.07660147009994 -100.66157707799994
vt -13.2677001953125 39.763801574707031
vt -13.740200042724609 39.291301727294922
vt -13.2677001953125 39.291301727294922
vt -13.740200042724609 39.763801574707031
vn 0 0 1
vn 0 0 1
vn 0 0 1
vn 0 0 1
f 1/1/1 2/2/2 3/3/3
f 2/2/2 1/1/1 4/4/4
