# Rhino

mtllib Cabinet_06_02.mtl
usemtl Default
v 81.397999879200142 278.14391918500002 -69.684173240300879
v -81.397999879200142 278.14391918500002 -62.321540085398738
v 81.397999879200142 278.14391918500002 -62.321540085398738
v -81.397999879200142 278.14391918500002 -69.684173240300879
v 81.397999879200142 277.73488401100002 -70.093208415499248
v -81.397999879200142 278.14391918500002 -69.684173240300879
v 81.397999879200142 278.14391918500002 -69.684173240300879
v -81.397999879200142 277.73488401100002 -70.093208415499248
v 81.397999879200142 277.73488401100002 -70.093208415499248
v -81.397999879200142 258.10119559700001 -70.093208415499248
v -81.397999879200142 277.73488401100002 -70.093208415499248
v 81.397999879200142 258.10119559700001 -70.093208415499248
v 81.397999879200142 277.73488401100002 -70.093208415499248
v 81.807035054399421 258.10119559700001 -69.684173240300879
v 81.397999879200142 258.10119559700001 -70.093208415499248
v 81.807035054399421 277.73488401100002 -69.684173240300879
v 81.397999879200142 278.14391918500002 -69.684173240300879
v 81.807035054399421 277.73488401100002 -69.684173240300879
v 81.397999879200142 277.73488401100002 -70.093208415499248
v 81.397999879200142 278.14391918500002 -69.684173240300879
v 81.807035054399421 277.73488401100002 -62.321540085398738
v 81.807035054399421 277.73488401100002 -69.684173240300879
v 81.397999879200142 278.14391918500002 -62.321540085398738
v 81.397999879200142 278.14391918500002 -62.321540085398738
v 81.397999879200142 277.73488401100002 -61.912504910102143
v 81.807035054399421 277.73488401100002 -62.321540085398738
v 81.397999879200142 278.14391918500002 -62.321540085398738
v -81.397999879200142 277.73488401100002 -61.912504910102143
v 81.397999879200142 277.73488401100002 -61.912504910102143
v -81.397999879200142 278.14391918500002 -62.321540085398738
v -81.397999879200142 278.14391918500002 -62.321540085398738
v -81.807035054399421 277.73488401100002 -62.321540085398738
v -81.397999879200142 277.73488401100002 -61.912504910102143
v -81.397999879200142 278.14391918500002 -62.321540085398738
v -81.807035054399421 277.73488401100002 -69.684173240300879
v -81.807035054399421 277.73488401100002 -62.321540085398738
v -81.397999879200142 278.14391918500002 -69.684173240300879
v -81.397999879200142 278.14391918500002 -69.684173240300879
v -81.397999879200142 277.73488401100002 -70.093208415499248
v -81.807035054399421 277.73488401100002 -69.684173240300879
v -81.397999879200142 258.10119559700001 -70.093208415499248
v -81.807035054399421 277.73488401100002 -69.684173240300879
v -81.397999879200142 277.73488401100002 -70.093208415499248
v -81.807035054399421 258.10119559700001 -69.684173240300879
v -81.397999879200142 258.10119559700001 -70.093208415499248
v -81.397999879200142 257.69216042200003 -69.684173240300879
v -81.807035054399421 258.10119559700001 -69.684173240300879
v -81.397999879200142 258.10119559700001 -70.093208415499248
v 81.397999879200142 257.69216042200003 -69.684173240300879
v -81.397999879200142 257.69216042200003 -69.684173240300879
v 81.397999879200142 258.10119559700001 -70.093208415499248
v 81.807035054399421 258.10119559700001 -69.684173240300879
v 81.397999879200142 257.69216042200003 -69.684173240300879
v 81.397999879200142 258.10119559700001 -70.093208415499248
v 81.807035054399421 258.10119559700001 -69.684173240300879
v 81.397999879200142 257.69216042200003 -62.321540085398738
v 81.397999879200142 257.69216042200003 -69.684173240300879
v 81.807035054399421 258.10119559700001 -62.321540085398738
v 81.807035054399421 277.73488401100002 -69.684173240300879
v 81.807035054399421 258.10119559700001 -62.321540085398738
v 81.807035054399421 258.10119559700001 -69.684173240300879
v 81.807035054399421 277.73488401100002 -62.321540085398738
v 81.807035054399421 277.73488401100002 -62.321540085398738
v 81.397999879200142 258.10119559700001 -61.912504910102143
v 81.807035054399421 258.10119559700001 -62.321540085398738
v 81.397999879200142 277.73488401100002 -61.912504910102143
v -81.397999879200142 277.73488401100002 -61.912504910102143
v 81.397999879200142 258.10119559700001 -61.912504910102143
v 81.397999879200142 277.73488401100002 -61.912504910102143
v -81.397999879200142 258.10119559700001 -61.912504910102143
v -81.397999879200142 277.73488401100002 -61.912504910102143
v -81.807035054399421 258.10119559700001 -62.321540085398738
v -81.397999879200142 258.10119559700001 -61.912504910102143
v -81.807035054399421 277.73488401100002 -62.321540085398738
v -81.807035054399421 277.73488401100002 -62.321540085398738
v -81.807035054399421 258.10119559700001 -69.684173240300879
v -81.807035054399421 258.10119559700001 -62.321540085398738
v -81.807035054399421 277.73488401100002 -69.684173240300879
v -81.397999879200142 257.69216042200003 -69.684173240300879
v -81.807035054399421 258.10119559700001 -62.321540085398738
v -81.807035054399421 258.10119559700001 -69.684173240300879
v -81.397999879200142 257.69216042200003 -62.321540085398738
v -81.397999879200142 257.69216042200003 -69.684173240300879
v 81.397999879200142 257.69216042200003 -62.321540085398738
v -81.397999879200142 257.69216042200003 -62.321540085398738
v 81.397999879200142 257.69216042200003 -69.684173240300879
v 81.397999879200142 258.10119559700001 -61.912504910102143
v -81.397999879200142 257.69216042200003 -62.321540085398738
v 81.397999879200142 257.69216042200003 -62.321540085398738
v -81.397999879200142 258.10119559700001 -61.912504910102143
v -81.807035054399421 258.10119559700001 -62.321540085398738
v -81.397999879200142 257.69216042200003 -62.321540085398738
v -81.397999879200142 258.10119559700001 -61.912504910102143
v 81.397999879200142 258.10119559700001 -61.912504910102143
v 81.397999879200142 257.69216042200003 -62.321540085398738
v 81.807035054399421 258.10119559700001 -62.321540085398738
vt 0.23585599660873413 0.0024999999441206455
vt 0.012413499876856804 0.99750000238418579
vt 0.012413499876856804 0.0024999999441206455
vt 0.23585599660873413 0.99750000238418579
vt 0.038869701325893402 0.16052399575710297
vt 15.508999824523926 0.1715950071811676
vt 0.038869701325893402 0.1715950071811676
vt 15.508999824523926 0.16052399575710297
vt 0.85653001070022583 -0.12749999761581421
vt 0.26068300008773804 -1.122499942779541
vt 0.85653001070022583 -1.122499942779541
vt 0.26068300008773804 -0.12749999761581421
vt 0.57718497514724731 0.38357800245285034
vt 0.52221500873565674 0.0078281201422214508
vt 0.57718497514724731 0.0078281201422214508
vt 0.52221500873565674 0.38357800245285034
vt 0.54970002174377441 0.26205700635910034
vt 0.52221500873565674 0.25246900320053101
vt 0.57718497514724731 0.25246900320053101
vt 0.73852401971817017 0.28230100870132446
vt 0.038869701325893402 0.27123001217842102
vt 0.73852401971817017 0.27123001217842102
vt 0.038869701325893402 0.28230100870132446
vt 0 0.32597300410270691
vt -0.027484999969601631 0.31638601422309875
vt 0.027484999969601631 0.31638601422309875
vt -0.038869701325893402 0.28230100870132446
vt -15.508999824523926 0.27123001217842102
vt -0.038869701325893402 0.27123001217842102
vt -15.508999824523926 0.28230100870132446
vt -10.994000434875488 -0.95235300064086914
vt -11.021499633789062 -0.96194100379943848
vt -10.966500282287598 -0.96194100379943848
vt -0.038869701325893402 -1.9318300485610962
vt -0.73852401971817017 -1.9428999423980713
vt -0.038869701325893402 -1.9428999423980713
vt -0.73852401971817017 -1.9318300485610962
vt 10.444299697875977 -1.0162700414657593
vt 10.416799545288086 -1.0258599519729614
vt 10.471799850463867 -1.0258599519729614
vt 10.416799545288086 0.0078281201422214508
vt 10.471799850463867 0.38357800245285034
vt 10.416799545288086 0.38357800245285034
vt 10.471799850463867 0.0078281201422214508
vt 10.416799545288086 1.3454400300979614
vt 10.444299697875977 1.3358500003814697
vt 10.471799850463867 1.3454400300979614
vt 15.508999824523926 0.11624199897050858
vt 0.038869701325893402 0.10517100244760513
vt 15.508999824523926 0.10517100244760513
vt 0.038869701325893402 0.11624199897050858
vt 0.52221500873565674 0.06711210310459137
vt 0.54970002174377441 0.057524699717760086
vt 0.57718497514724731 0.06711210310459137
vt 0.73852401971817017 0.0055353199131786823
vt 0.038869701325893402 -0.0055353199131786823
vt 0.73852401971817017 -0.0055353199131786823
vt 0.038869701325893402 0.0055353199131786823
vt 0.23585599660873413 -0.0024999999441206455
vt 0.012413499876856804 -0.12250000238418579
vt 0.23585599660873413 -0.12250000238418579
vt 0.012413499876856804 -0.0024999999441206455
vt 0.027484999969601631 0.38357800245285034
vt -0.027484999969601631 0.0078281201422214508
vt 0.027484999969601631 0.0078281201422214508
vt -0.027484999969601631 0.38357800245285034
vt -0.012413499876856804 0.99750000238418579
vt -0.60825997591018677 0.0024999999441206455
vt -0.012413499876856804 0.0024999999441206455
vt -0.60825997591018677 0.99750000238418579
vt -10.966500282287598 0.38357800245285034
vt -11.021499633789062 0.0078281201422214508
vt -10.966500282287598 0.0078281201422214508
vt -11.021499633789062 0.38357800245285034
vt 0.012413499876856804 1.002500057220459
vt 0.23585599660873413 1.122499942779541
vt 0.012413499876856804 1.122499942779541
vt 0.23585599660873413 1.002500057220459
vt -0.73852401971817017 2.208590030670166
vt -0.038869701325893402 2.2196600437164307
vt -0.73852401971817017 2.2196600437164307
vt -0.038869701325893402 2.208590030670166
vt 0.23585599660873413 -1.122499942779541
vt 0.012413499876856804 -0.12749999761581421
vt 0.012413499876856804 -1.122499942779541
vt 0.23585599660873413 -0.12749999761581421
vt -0.038869701325893402 0.0055353199131786823
vt -15.508999824523926 -0.0055353199131786823
vt -0.038869701325893402 -0.0055353199131786823
vt -15.508999824523926 0.0055353199131786823
vt -11.021499633789062 1.2815200090408325
vt -10.994000434875488 1.2719299793243408
vt -10.966500282287598 1.2815200090408325
vt -0.027484999969601631 0.0031958199106156826
vt 0 -0.0063916300423443317
vt 0.027484999969601631 0.0031958199106156826
vn 0 1 0
vn 0 1 0
vn 0 1 0
vn 0 1 0
vn 0 0.70710676908493042 -0.70710676908493042
vn 0 0.70710676908493042 -0.70710676908493042
vn 0 0.70710676908493042 -0.70710676908493042
vn 0 0.70710676908493042 -0.70710676908493042
vn 0 0 -1
vn 0 0 -1
vn 0 0 -1
vn 0 0 -1
vn 0.70710676908493042 0 -0.70710676908493042
vn 0.70710676908493042 0 -0.70710676908493042
vn 0.70710676908493042 0 -0.70710676908493042
vn 0.70710676908493042 0 -0.70710676908493042
vn 0.57735025882720947 0.57735025882720947 -0.57735025882720947
vn 0.57735025882720947 0.57735025882720947 -0.57735025882720947
vn 0.57735025882720947 0.57735025882720947 -0.57735025882720947
vn 0.70710676908493042 0.70710676908493042 0
vn 0.70710676908493042 0.70710676908493042 0
vn 0.70710676908493042 0.70710676908493042 0
vn 0.70710676908493042 0.70710676908493042 0
vn 0.57735025882720947 0.57735025882720947 0.57735025882720947
vn 0.57735025882720947 0.57735025882720947 0.57735025882720947
vn 0.57735025882720947 0.57735025882720947 0.57735025882720947
vn 0 0.70710676908493042 0.70710676908493042
vn 0 0.70710676908493042 0.70710676908493042
vn 0 0.70710676908493042 0.70710676908493042
vn 0 0.70710676908493042 0.70710676908493042
vn -0.57735025882720947 0.57735025882720947 0.57735025882720947
vn -0.57735025882720947 0.57735025882720947 0.57735025882720947
vn -0.57735025882720947 0.57735025882720947 0.57735025882720947
vn -0.70710676908493042 0.70710676908493042 0
vn -0.70710676908493042 0.70710676908493042 0
vn -0.70710676908493042 0.70710676908493042 0
vn -0.70710676908493042 0.70710676908493042 0
vn -0.57735025882720947 0.57735025882720947 -0.57735025882720947
vn -0.57735025882720947 0.57735025882720947 -0.57735025882720947
vn -0.57735025882720947 0.57735025882720947 -0.57735025882720947
vn -0.70710676908493042 0 -0.70710676908493042
vn -0.70710676908493042 0 -0.70710676908493042
vn -0.70710676908493042 0 -0.70710676908493042
vn -0.70710676908493042 0 -0.70710676908493042
vn -0.57735025882720947 -0.57735025882720947 -0.57735025882720947
vn -0.57735025882720947 -0.57735025882720947 -0.57735025882720947
vn -0.57735025882720947 -0.57735025882720947 -0.57735025882720947
vn 0 -0.70710676908493042 -0.70710676908493042
vn 0 -0.70710676908493042 -0.70710676908493042
vn 0 -0.70710676908493042 -0.70710676908493042
vn 0 -0.70710676908493042 -0.70710676908493042
vn 0.57735025882720947 -0.57735025882720947 -0.57735025882720947
vn 0.57735025882720947 -0.57735025882720947 -0.57735025882720947
vn 0.57735025882720947 -0.57735025882720947 -0.57735025882720947
vn 0.70710676908493042 -0.70710676908493042 0
vn 0.70710676908493042 -0.70710676908493042 0
vn 0.70710676908493042 -0.70710676908493042 0
vn 0.70710676908493042 -0.70710676908493042 0
vn 1 0 0
vn 1 0 0
vn 1 0 0
vn 1 0 0
vn 0.70710676908493042 0 0.70710676908493042
vn 0.70710676908493042 0 0.70710676908493042
vn 0.70710676908493042 0 0.70710676908493042
vn 0.70710676908493042 0 0.70710676908493042
vn 0 0 1
vn 0 0 1
vn 0 0 1
vn 0 0 1
vn -0.70710676908493042 0 0.70710676908493042
vn -0.70710676908493042 0 0.70710676908493042
vn -0.70710676908493042 0 0.70710676908493042
vn -0.70710676908493042 0 0.70710676908493042
vn -1 0 0
vn -1 0 0
vn -1 0 0
vn -1 0 0
vn -0.70710676908493042 -0.70710676908493042 0
vn -0.70710676908493042 -0.70710676908493042 0
vn -0.70710676908493042 -0.70710676908493042 0
vn -0.70710676908493042 -0.70710676908493042 0
vn 0 -1 0
vn 0 -1 0
vn 0 -1 0
vn 0 -1 0
vn 0 -0.70710676908493042 0.70710676908493042
vn 0 -0.70710676908493042 0.70710676908493042
vn 0 -0.70710676908493042 0.70710676908493042
vn 0 -0.70710676908493042 0.70710676908493042
vn -0.57735025882720947 -0.57735025882720947 0.57735025882720947
vn -0.57735025882720947 -0.57735025882720947 0.57735025882720947
vn -0.57735025882720947 -0.57735025882720947 0.57735025882720947
vn 0.57735025882720947 -0.57735025882720947 0.57735025882720947
vn 0.57735025882720947 -0.57735025882720947 0.57735025882720947
vn 0.57735025882720947 -0.57735025882720947 0.57735025882720947
f 1/1/1 2/2/2 3/3/3
f 2/2/2 1/1/1 4/4/4
f 5/5/5 6/6/6 7/7/7
f 6/6/6 5/5/5 8/8/8
f 9/9/9 10/10/10 11/11/11
f 10/10/10 9/9/9 12/12/12
f 13/13/13 14/14/14 15/15/15
f 14/14/14 13/13/13 16/16/16
f 17/17/17 18/18/18 19/19/19
f 20/20/20 21/21/21 22/22/22
f 21/21/21 20/20/20 23/23/23
f 24/24/24 25/25/25 26/26/26
f 27/27/27 28/28/28 29/29/29
f 28/28/28 27/27/27 30/30/30
f 31/31/31 32/32/32 33/33/33
f 34/34/34 35/35/35 36/36/36
f 35/35/35 34/34/34 37/37/37
f 38/38/38 39/39/39 40/40/40
f 41/41/41 42/42/42 43/43/43
f 42/42/42 41/41/41 44/44/44
f 45/45/45 46/46/46 47/47/47
f 48/48/48 49/49/49 50/50/50
f 49/49/49 48/48/48 51/51/51
f 52/52/52 53/53/53 54/54/54
f 55/55/55 56/56/56 57/57/57
f 56/56/56 55/55/55 58/58/58
f 59/59/59 60/60/60 61/61/61
f 60/60/60 59/59/59 62/62/62
f 63/63/63 64/64/64 65/65/65
f 64/64/64 63/63/63 66/66/66
f 67/67/67 68/68/68 69/69/69
f 68/68/68 67/67/67 70/70/70
f 71/71/71 72/72/72 73/73/73
f 72/72/72 71/71/71 74/74/74
f 75/75/75 76/76/76 77/77/77
f 76/76/76 75/75/75 78/78/78
f 79/79/79 80/80/80 81/81/81
f 80/80/80 79/79/79 82/82/82
f 83/83/83 84/84/84 85/85/85
f 84/84/84 83/83/83 86/86/86
f 87/87/87 88/88/88 89/89/89
f 88/88/88 87/87/87 90/90/90
f 91/91/91 92/92/92 93/93/93
f 94/94/94 95/95/95 96/96/96
