# Rhino

mtllib Cabinet_15_03.mtl
usemtl Default
v 108.14618714400012 723.93497804100002 -100.20813125600034
v 242.93594801100016 310.64520689469998 -100.20813125600034
v 108.14618714400012 310.64520689469998 -100.20813125600034
v 242.93594801100016 723.93497804100002 -100.20813125600034
v 108.14618714400012 723.93497804100002 -100.20813125600034
v 242.93594801100016 723.93497804100002 -102.17299657500007
v 242.93594801100016 723.93497804100002 -100.20813125600034
v 108.14618714400012 723.93497804100002 -102.17299657500007
v 108.14618714400012 723.93497804100002 -100.20813125600034
v 108.14618714400012 310.64520689469998 -102.17299657500007
v 108.14618714400012 723.93497804100002 -102.17299657500007
v 108.14618714400012 310.64520689469998 -100.20813125600034
v 242.93594801100016 310.64520689469998 -100.20813125600034
v 108.14618714400012 310.64520689469998 -102.17299657500007
v 108.14618714400012 310.64520689469998 -100.20813125600034
v 242.93594801100016 310.64520689469998 -102.17299657500007
v 242.93594801100016 310.64520689469998 -100.20813125600034
v 242.93594801100016 723.93497804100002 -102.17299657500007
v 242.93594801100016 310.64520689469998 -102.17299657500007
v 242.93594801100016 723.93497804100002 -100.20813125600034
v 262.5846011980002 743.58363122900005 -102.17299657500007
v 242.93594801100016 310.64520689469998 -102.17299657500007
v 242.93594801100016 723.93497804100002 -102.17299657500007
v 242.93594801100016 290.99655370699998 -102.17299657500007
v 242.93594801100016 88.418939344000023 -102.17299657500007
v 262.5846011980002 68.770286155999997 -102.17299657500007
v 242.93594801100016 68.770286155999997 -102.17299657500007
v 262.5846011980002 68.770286155999997 -102.17299657500007
v 88.497533956999632 68.770286155999997 -94.313535300399963
v 242.93594801100016 68.770286155999997 -102.17299657500007
v 262.5846011980002 68.770286155999997 -94.313535300399963
v 262.5846011980002 68.770286155999997 -102.17299657500007
v 262.5846011980002 743.58363122900005 -94.313535300399963
v 262.5846011980002 68.770286155999997 -94.313535300399963
v 262.5846011980002 743.58363122900005 -102.17299657500007
v 242.93594801100016 743.58363122900005 -102.17299657500007
v 262.5846011980002 743.58363122900005 -94.313535300399963
v 262.5846011980002 743.58363122900005 -102.17299657500007
v 88.497533956999632 743.58363122900005 -94.313535300399963
v 108.14618714400012 743.58363122900005 -102.17299657500007
v 242.93594801100016 723.93497804100002 -102.17299657500007
v 108.14618714400012 743.58363122900005 -102.17299657500007
v 242.93594801100016 743.58363122900005 -102.17299657500007
v 108.14618714400012 723.93497804100002 -102.17299657500007
v 108.14618714400012 723.93497804100002 -102.17299657500007
v 88.497533956999632 743.58363122900005 -102.17299657500007
v 108.14618714400012 743.58363122900005 -102.17299657500007
v 108.14618714400012 310.64520689469998 -102.17299657500007
v 108.14618714400012 290.99655370699998 -102.17299657500007
v 108.14618714400012 88.418939344000023 -102.17299657500007
v 108.14618714400012 68.770286155999997 -102.17299657500007
v 88.497533956999632 68.770286155999997 -102.17299657500007
v 108.14618714400012 68.770286155999997 -102.17299657500007
v 88.497533956999632 68.770286155999997 -102.17299657500007
v 108.14618714400012 88.418939344000023 -102.17299657500007
v 242.93594801100016 68.770286155999997 -102.17299657500007
v 108.14618714400012 68.770286155999997 -102.17299657500007
v 242.93594801100016 88.418939344000023 -102.17299657500007
v 108.14618714400012 88.418939344000023 -102.17299657500007
v 242.93594801100016 88.418939344000023 -100.20813125600034
v 242.93594801100016 88.418939344000023 -102.17299657500007
v 108.14618714400012 88.418939344000023 -100.20813125600034
v 108.14618714400012 88.418939344000023 -102.17299657500007
v 108.14618714400012 290.99655370699998 -100.20813125600034
v 108.14618714400012 88.418939344000023 -100.20813125600034
v 108.14618714400012 290.99655370699998 -102.17299657500007
v 242.93594801100016 290.99655370699998 -102.17299657500007
v 108.14618714400012 290.99655370699998 -100.20813125600034
v 108.14618714400012 290.99655370699998 -102.17299657500007
v 242.93594801100016 290.99655370699998 -100.20813125600034
v 242.93594801100016 290.99655370699998 -102.17299657500007
v 242.93594801100016 88.418939344000023 -100.20813125600034
v 242.93594801100016 290.99655370699998 -100.20813125600034
v 242.93594801100016 88.418939344000023 -102.17299657500007
v 242.93594801100016 88.418939344000023 -100.20813125600034
v 108.14618714400012 290.99655370699998 -100.20813125600034
v 242.93594801100016 290.99655370699998 -100.20813125600034
v 108.14618714400012 88.418939344000023 -100.20813125600034
v 108.14618714400012 310.64520689469998 -102.17299657500007
v 242.93594801100016 290.99655370699998 -102.17299657500007
v 108.14618714400012 290.99655370699998 -102.17299657500007
v 242.93594801100016 310.64520689469998 -102.17299657500007
v 88.497533956999632 68.770286155999997 -94.313535300399963
v 88.497533956999632 743.58363122900005 -102.17299657500007
v 88.497533956999632 68.770286155999997 -102.17299657500007
v 88.497533956999632 743.58363122900005 -94.313535300399963
v 262.5846011980002 68.770286155999997 -94.313535300399963
v 88.497533956999632 743.58363122900005 -94.313535300399963
v 88.497533956999632 68.770286155999997 -94.313535300399963
v 262.5846011980002 743.58363122900005 -94.313535300399963
v 88.497533956999632 743.58363122900005 -102.17299657500007
v 242.93594801100016 743.58363122900005 -102.17299657500007
vt -4.6998400688171387 -3.7526199817657471
vt -5.970210075378418 -1.9997800588607788
vt -4.6998400688171387 -1.9997800588607788
vt -5.970210075378418 -3.7526199817657471
vt -0.66771101951599121 -2.4089300632476807
vt -0.64919197559356689 -2.980600118637085
vt -0.66771101951599121 -2.980600118637085
vt -0.64919197559356689 -2.4089300632476807
vt -0.089074097573757172 2.778670072555542
vt -0.070555597543716431 1.0258300304412842
vt -0.070555597543716431 2.778670072555542
vt -0.089074097573757172 1.0258300304412842
vt 0.18518500030040741 0.040083300322294235
vt 1.4555599689483643 0.031750001013278961
vt 1.4555599689483643 0.040083300322294235
vt 0.18518500030040741 0.031750001013278961
vt 0.089074097573757172 1.0258300304412842
vt 0.070555597543716431 2.778670072555542
vt 0.070555597543716431 1.0258300304412842
vt 0.089074097573757172 2.778670072555542
vt 0 2.8619999885559082
vt 0.18518500030040741 1.0258300304412842
vt 0.18518500030040741 2.778670072555542
vt 0.18518500030040741 0.94249999523162842
vt 0.18518500030040741 0.083333298563957214
vt 0 0
vt 0.18518500030040741 0
vt 0 0.031750001013278961
vt -1.6407400369644165 0.065083302557468414
vt -0.18518500030040741 0.031750001013278961
vt 0 0.065083302557468414
vt -0.070555597543716431 0
vt -0.14462999999523163 2.8619999885559082
vt -0.14462999999523163 0
vt -0.070555597543716431 2.8619999885559082
vt 0.18518500030040741 0.031750001013278961
vt 0 0.065083302557468414
vt 0 0.031750001013278961
vt 1.6407400369644165 0.065083302557468414
vt 1.4555599689483643 0.031750001013278961
vt -0.64919197559356689 -2.980600118637085
vt -0.46400699019432068 -2.4089300632476807
vt -0.46400699019432068 -2.980600118637085
vt -0.64919197559356689 -2.4089300632476807
vt -5.9087400436401367 -3.957859992980957
vt -5.7235498428344727 -4.0412001609802246
vt -5.9087400436401367 -4.0412001609802246
vt -5.9087400436401367 -2.2050299644470215
vt -5.9087400436401367 -2.1217000484466553
vt -5.9087400436401367 -1.2625299692153931
vt -5.9087400436401367 -1.1792000532150269
vt -5.7235498428344727 -1.1792000532150269
vt -1.4555599689483643 0.031750001013278961
vt -1.6407400369644165 0.031750001013278961
vt -6.6388201713562012 -2.4089300632476807
vt -6.824009895324707 -2.980600118637085
vt -6.824009895324707 -2.4089300632476807
vt -6.6388201713562012 -2.980600118637085
vt 1.4555599689483643 0.031750001013278961
vt 0.18518500030040741 0.040083300322294235
vt 0.18518500030040741 0.031750001013278961
vt 1.4555599689483643 0.040083300322294235
vt -0.070555597543716431 0.083333298563957214
vt -0.089074097573757172 0.94249999523162842
vt -0.089074097573757172 0.083333298563957214
vt -0.070555597543716431 0.94249999523162842
vt -0.18518500030040741 0.031750001013278961
vt -1.4555599689483643 0.040083300322294235
vt -1.4555599689483643 0.031750001013278961
vt -0.18518500030040741 0.040083300322294235
vt 0.070555597543716431 0.94249999523162842
vt 0.089074097573757172 0.083333298563957214
vt 0.089074097573757172 0.94249999523162842
vt 0.070555597543716431 0.083333298563957214
vt 0.18518500030040741 0.083333298563957214
vt 1.4555599689483643 0.94249999523162842
vt 0.18518500030040741 0.94249999523162842
vt 1.4555599689483643 0.083333298563957214
vt -4.5443801879882812 -2.4089300632476807
vt -4.7295598983764648 -2.980600118637085
vt -4.7295598983764648 -2.4089300632476807
vt -4.5443801879882812 -2.980600118637085
vt 0.14462999999523163 0
vt 0.070555597543716431 2.8619999885559082
vt 0.070555597543716431 0
vt 0.14462999999523163 2.8619999885559082
vt 0 0
vt -1.6407400369644165 2.8619999885559082
vt -1.6407400369644165 0
vt 0 2.8619999885559082
vt 1.6407400369644165 0.031750001013278961
vt 0.18518500030040741 2.8619999885559082
vn 0 0 -1
vn 0 0 -1
vn 0 0 -1
vn 0 0 -1
vn 0 -1 0
vn 0 -1 0
vn 0 -1 0
vn 0 -1 0
vn 1 0 0
vn 1 0 0
vn 1 0 0
vn 1 0 0
vn 0 1 0
vn 0 1 0
vn 0 1 0
vn 0 1 0
vn -1 0 0
vn -1 0 0
vn -1 0 0
vn -1 0 0
vn 0 0 -1
vn 0 0 -1
vn 0 0 -1
vn 0 0 -1
vn 0 0 -1
vn 0 0 -1
vn 0 0 -1
vn 0 -1 0
vn 0 -1 0
vn 0 -1 0
vn 0 -1 0
vn 1 0 0
vn 1 0 0
vn 1 0 0
vn 1 0 0
vn 0 1 0
vn 0 1 0
vn 0 1 0
vn 0 1 0
vn 0 1 0
vn 0 0 -1
vn 0 0 -1
vn 0 0 -1
vn 0 0 -1
vn 0 0 -1
vn 0 0 -1
vn 0 0 -1
vn 0 0 -1
vn 0 0 -1
vn 0 0 -1
vn 0 0 -1
vn 0 0 -1
vn 0 -1 0
vn 0 -1 0
vn 0 0 -1
vn 0 0 -1
vn 0 0 -1
vn 0 0 -1
vn 0 1 0
vn 0 1 0
vn 0 1 0
vn 0 1 0
vn 1 0 0
vn 1 0 0
vn 1 0 0
vn 1 0 0
vn 0 -1 0
vn 0 -1 0
vn 0 -1 0
vn 0 -1 0
vn -1 0 0
vn -1 0 0
vn -1 0 0
vn -1 0 0
vn 0 0 -1
vn 0 0 -1
vn 0 0 -1
vn 0 0 -1
vn 0 0 -1
vn 0 0 -1
vn 0 0 -1
vn 0 0 -1
vn -1 0 0
vn -1 0 0
vn -1 0 0
vn -1 0 0
vn 0 0 1
vn 0 0 1
vn 0 0 1
vn 0 0 1
vn 0 1 0
vn 0 0 -1
f 1/1/1 2/2/2 3/3/3
f 2/2/2 1/1/1 4/4/4
f 5/5/5 6/6/6 7/7/7
f 6/6/6 5/5/5 8/8/8
f 9/9/9 10/10/10 11/11/11
f 10/10/10 9/9/9 12/12/12
f 13/13/13 14/14/14 15/15/15
f 14/14/14 13/13/13 16/16/16
f 17/17/17 18/18/18 19/19/19
f 18/18/18 17/17/17 20/20/20
f 21/21/21 22/22/22 23/23/23
f 21/21/21 24/24/24 22/22/22
f 21/21/21 25/25/25 24/24/24
f 26/26/26 25/25/25 21/21/21
f 25/25/25 26/26/26 27/27/27
f 28/28/28 29/29/29 30/30/30
f 29/29/29 28/28/28 31/31/31
f 32/32/32 33/33/33 34/34/34
f 33/33/33 32/32/32 35/35/35
f 36/36/36 37/37/37 38/38/38
f 37/37/37 36/36/36 39/39/39
f 39/39/39 36/36/36 40/40/40
f 41/41/41 42/42/42 43/43/43
f 42/42/42 41/41/41 44/44/44
f 45/45/45 46/46/46 47/47/47
f 48/48/48 46/46/46 45/45/45
f 49/49/49 46/46/46 48/48/48
f 50/50/50 46/46/46 49/49/49
f 51/51/51 46/46/46 50/50/50
f 46/46/46 51/51/51 52/52/52
f 53/53/53 29/29/29 54/54/54
f 30/30/30 29/29/29 53/53/53
f 55/55/55 56/56/56 57/57/57
f 56/56/56 55/55/55 58/58/58
f 59/59/59 60/60/60 61/61/61
f 60/60/60 59/59/59 62/62/62
f 63/63/63 64/64/64 65/65/65
f 64/64/64 63/63/63 66/66/66
f 67/67/67 68/68/68 69/69/69
f 68/68/68 67/67/67 70/70/70
f 71/71/71 72/72/72 73/73/73
f 72/72/72 71/71/71 74/74/74
f 75/75/75 76/76/76 77/77/77
f 76/76/76 75/75/75 78/78/78
f 79/79/79 80/80/80 81/81/81
f 80/80/80 79/79/79 82/82/82
f 83/83/83 84/84/84 85/85/85
f 84/84/84 83/83/83 86/86/86
f 87/87/87 88/88/88 89/89/89
f 88/88/88 87/87/87 90/90/90
f 39/39/39 40/40/40 91/91/91
f 21/21/21 23/23/23 92/92/92
