# Rhino

mtllib Cabinet_18_06.mtl
usemtl Default
v 148.76721496600021 364.50086857860003 -121.85348804199975
v 148.76721496600021 369.58692720990001 -116.76742940999975
v 148.76721496600021 428.07660147009994 -121.85348804199975
v 148.76721496600021 364.50086857860003 -100.66157707799994
v 153.85327359799976 364.50086857860003 -121.85348804199975
v 148.76721496600021 364.50086857860003 -100.66157707799994
v 148.76721496600021 364.50086857860003 -121.85348804199975
v 153.85327359799976 364.50086857860003 -100.66157707799994
v 153.85327359799976 364.50086857860003 -121.85348804199975
v 153.85327359799976 369.58692720990001 -116.76742940999975
v 153.85327359799976 364.50086857860003 -100.66157707799994
v 153.85327359799976 422.99054283869998 -116.76742940999975
v 153.85327359799976 428.07660147009994 -121.85348804199975
v 153.85327359799976 428.07660147009994 -100.66157707799994
v 148.76721496600021 428.07660147009994 -121.85348804199975
v 153.85327359799976 428.07660147009994 -100.66157707799994
v 153.85327359799976 428.07660147009994 -121.85348804199975
v 148.76721496600021 428.07660147009994 -100.66157707799994
v 148.76721496600021 422.99054283869998 -116.76742940999975
v 148.76721496600021 428.07660147009994 -100.66157707799994
v 148.76721496600021 369.58692720990001 -116.76742940999975
v 153.85327359799976 422.99054283869998 -116.76742940999975
v 148.76721496600021 422.99054283869998 -116.76742940999975
v 153.85327359799976 369.58692720990001 -116.76742940999975
v 148.76721496600021 369.58692720990001 -116.76742940999975
v 153.85327359799976 369.58692720990001 -100.66157707799994
v 153.85327359799976 369.58692720990001 -116.76742940999975
v 148.76721496600021 369.58692720990001 -100.66157707799994
v 148.76721496600021 369.58692720990001 -100.66157707799994
v 153.85327359799976 369.58692720990001 -100.66157707799994
v 153.85327359799976 422.99054283869998 -116.76742940999975
v 148.76721496600021 422.99054283869998 -100.66157707799994
v 148.76721496600021 422.99054283869998 -116.76742940999975
v 153.85327359799976 422.99054283869998 -100.66157707799994
v 153.85327359799976 422.99054283869998 -100.66157707799994
v 148.76721496600021 422.99054283869998 -100.66157707799994
v 153.85327359799976 364.50086857860003 -121.85348804199975
v 148.76721496600021 428.07660147009994 -121.85348804199975
v 153.85327359799976 428.07660147009994 -121.85348804199975
v 148.76721496600021 364.50086857860003 -121.85348804199975
v 148.76721496600021 364.50086857860003 -100.66157707799994
v 148.76721496600021 369.58692720990001 -100.66157707799994
v 151.31024428199999 367.04389789424994 -100.66157707799994
v 153.85327359799976 364.50086857860003 -100.66157707799994
v 153.85327359799976 369.58692720990001 -100.66157707799994
v 148.76721496600021 422.99054283869998 -100.66157707799994
v 148.76721496600021 428.07660147009994 -100.66157707799994
v 151.31024428199999 425.53357215439996 -100.66157707799994
v 153.85327359799976 422.99054283869998 -100.66157707799994
v 153.85327359799976 428.07660147009994 -100.66157707799994
vt -2.5590600967407227 33.858299255371094
vt -2.0866100788116455 34.330699920654297
vt -2.5590600967407227 39.763801574707031
vt -0.59055101871490479 33.858299255371094
vt -13.2677001953125 -2.5590600967407227
vt -13.740200042724609 -0.59055101871490479
vt -13.740200042724609 -2.5590600967407227
vt -13.2677001953125 -0.59055101871490479
vt 2.5590600967407227 33.858299255371094
vt 2.0866100788116455 34.330699920654297
vt 0.59055101871490479 33.858299255371094
vt 2.0866100788116455 39.291301727294922
vt 2.5590600967407227 39.763801574707031
vt 0.59055101871490479 39.763801574707031
vt 13.740200042724609 -2.5590600967407227
vt 13.2677001953125 -0.59055101871490479
vt 13.2677001953125 -2.5590600967407227
vt 13.740200042724609 -0.59055101871490479
vt -2.0866100788116455 39.291301727294922
vt -0.59055101871490479 39.763801574707031
vt -13.740200042724609 34.330699920654297
vt -13.2677001953125 39.291301727294922
vt -13.740200042724609 39.291301727294922
vt -13.2677001953125 34.330699920654297
vt 13.740200042724609 -2.0866100788116455
vt 13.2677001953125 -0.59055101871490479
vt 13.2677001953125 -2.0866100788116455
vt 13.740200042724609 -0.59055101871490479
vt -0.59055101871490479 34.330699920654297
vt 0.59055101871490479 34.330699920654297
vt -13.2677001953125 -2.0866100788116455
vt -13.740200042724609 -0.59055101871490479
vt -13.740200042724609 -2.0866100788116455
vt -13.2677001953125 -0.59055101871490479
vt 0.59055101871490479 39.291301727294922
vt -0.59055101871490479 39.291301727294922
vt 13.2677001953125 33.858299255371094
vt 13.740200042724609 39.763801574707031
vt 13.2677001953125 39.763801574707031
vt 13.740200042724609 33.858299255371094
vt 1 0
vt 0 0
vt 0.5 0.5
vt 1 1
vt 0 1
vt 0 0
vt 0 1
vt 0.5 0.5
vt 1 0
vt 1 1
vn -1 0 0
vn -1 0 0
vn -1 0 0
vn -1 0 0
vn 0 -1 0
vn 0 -1 0
vn 0 -1 0
vn 0 -1 0
vn 1 0 0
vn 1 0 0
vn 1 0 0
vn 1 0 0
vn 1 0 0
vn 1 0 0
vn 0 1 0
vn 0 1 0
vn 0 1 0
vn 0 1 0
vn -1 0 0
vn -1 0 0
vn 0 0 1
vn 0 0 1
vn 0 0 1
vn 0 0 1
vn 0 1 0
vn 0 1 0
vn 0 1 0
vn 0 1 0
vn -1 0 0
vn 1 0 0
vn 0 -1 0
vn 0 -1 0
vn 0 -1 0
vn 0 -1 0
vn 1 0 0
vn -1 0 0
vn 0 0 -1
vn 0 0 -1
vn 0 0 -1
vn 0 0 -1
vn 0 0 1
vn 0 0 1
vn 0 0 1
vn 0 0 1
vn 0 0 1
vn 0 0 1
vn 0 0 1
vn 0 0 1
vn 0 0 1
vn 0 0 1
f 1/1/1 2/2/2 3/3/3
f 2/2/2 1/1/1 4/4/4
f 5/5/5 6/6/6 7/7/7
f 6/6/6 5/5/5 8/8/8
f 9/9/9 10/10/10 11/11/11
f 10/10/10 9/9/9 12/12/12
f 13/13/13 12/12/12 9/9/9
f 12/12/12 13/13/13 14/14/14
f 15/15/15 16/16/16 17/17/17
f 16/16/16 15/15/15 18/18/18
f 3/3/3 19/19/19 20/20/20
f 19/19/19 3/3/3 2/2/2
f 21/21/21 22/22/22 23/23/23
f 22/22/22 21/21/21 24/24/24
f 25/25/25 26/26/26 27/27/27
f 26/26/26 25/25/25 28/28/28
f 2/2/2 4/4/4 29/29/29
f 11/11/11 10/10/10 30/30/30
f 31/31/31 32/32/32 33/33/33
f 32/32/32 31/31/31 34/34/34
f 12/12/12 14/14/14 35/35/35
f 20/20/20 19/19/19 36/36/36
f 37/37/37 38/38/38 39/39/39
f 38/38/38 37/37/37 40/40/40
f 43/43/43 45/45/45 42/42/42
f 44/44/44 43/43/43 41/41/41
f 42/42/42 41/41/41 43/43/43
f 45/45/45 43/43/43 44/44/44
f 48/48/48 47/47/47 46/46/46
f 50/50/50 48/48/48 49/49/49
f 46/46/46 49/49/49 48/48/48
f 47/47/47 48/48/48 50/50/50
