# Rhino

mtllib Cabinet_02_17.mtl
usemtl Default
v 174.2247044830001 859.88321890000009 68.284843853800339
v -174.2247044830001 760.12552520400004 68.284843853800339
v 174.2247044830001 760.12552520400004 68.284843853800339
v -174.2247044830001 859.88321890000009 68.284843853800339
v 174.2247044830001 859.88321890000009 68.284843853800339
v 165.79447684700244 859.88321890000009 66.5987983265004
v -174.2247044830001 859.88321890000009 68.284843853800339
v 174.2247044830001 859.88321890000009 66.5987983265004
v 174.2247044830001 859.88321890000009 68.284843853800339
v 174.2247044830001 760.12552520400004 66.5987983265004
v 174.2247044830001 859.88321890000009 66.5987983265004
v 174.2247044830001 760.12552520400004 68.284843853800339
v -174.2247044830001 760.12552520400004 68.284843853800339
v 174.2247044830001 760.12552520400004 66.5987983265004
v 174.2247044830001 760.12552520400004 68.284843853800339
v -174.2247044830001 760.12552520400004 66.5987983265004
v -174.2247044830001 760.12552520400004 68.284843853800339
v -174.2247044830001 859.88321890000009 66.5987983265004
v -174.2247044830001 760.12552520400004 66.5987983265004
v -174.2247044830001 859.88321890000009 68.284843853800339
v -165.79447684700244 859.88321890000009 66.5987983265004
v -174.2247044830001 859.88321890000009 66.5987983265004
v -165.79447684700244 859.88321890000009 66.5987983265004
v 165.79447684700244 859.88321890000009 66.5987983265004
v -174.2247044830001 859.88321890000009 66.5987983265004
v -174.2247044830001 760.12552520400004 66.5987983265004
vt 0 1.7999999523162842
vt -6.1999998092651367 0.02500000037252903
vt 0 0.02500000037252903
vt -6.1999998092651367 1.7999999523162842
vt 0 0.029999999329447746
vt 0.15000000596046448 0
vt 6.1999998092651367 0.029999999329447746
vt 0 0
vt -0.029999999329447746 1.7999999523162842
vt 0 0.02500000037252903
vt 0 1.7999999523162842
vt -0.029999999329447746 0.02500000037252903
vt -6.1999998092651367 0.029999999329447746
vt 0 0
vt 0 0.029999999329447746
vt -6.1999998092651367 0
vt 0.029999999329447746 0.02500000037252903
vt 0 1.7999999523162842
vt 0 0.02500000037252903
vt 0.029999999329447746 1.7999999523162842
vt 6.0500001907348633 0
vt 6.1999998092651367 0
vt 6.0500001907348633 1.7999999523162842
vt 0.15000000596046448 1.7999999523162842
vt 6.1999998092651367 1.7999999523162842
vt 6.1999998092651367 0.02500000037252903
vn 0 0 1
vn 0 0 1
vn 0 0 1
vn 0 0 1
vn 0 1 0
vn 0 1 0
vn 0 1 0
vn 0 1 0
vn 1 0 0
vn 0.70710676908493042 0 -0.70710676908493042
vn 0.70710676908493042 0 -0.70710676908493042
vn 1 0 0
vn 0 -1 0
vn 0 -1 0
vn 0 -1 0
vn 0 -1 0
vn -1 0 0
vn -1 0 0
vn -1 0 0
vn -1 0 0
vn 0 1 0
vn 0 1 0
vn 0 0 1
vn 0 0 1
vn 0 0 -1
vn 0 0 -1
f 1/1/1 2/2/2 3/3/3
f 2/2/2 1/1/1 4/4/4
f 5/5/5 6/6/6 7/7/7
f 6/6/6 5/5/5 8/8/8
f 9/9/9 10/10/10 11/11/11
f 10/10/10 9/9/9 12/12/12
f 13/13/13 14/14/14 15/15/15
f 14/14/14 13/13/13 16/16/16
f 17/17/17 18/18/18 19/19/19
f 18/18/18 17/17/17 20/20/20
f 7/7/7 21/21/21 22/22/22
f 7/7/7 6/6/6 21/21/21
f 11/11/11 23/23/23 24/24/24
f 11/11/11 25/25/25 23/23/23
f 10/10/10 25/25/25 11/11/11
f 25/25/25 10/10/10 26/26/26
