# Rhino

mtllib Cabinet_15_23.mtl
usemtl Default
v -284.3906765050001 47.156767649999985 -102.17299657500007
v 284.19811970400042 47.156767649999985 -102.17299657500007
v -284.3906765050001 47.156767649999985 113.96218848799981
v 284.19811970400042 47.156767649999985 113.96218848799981
v -284.3906765050001 66.805420838000003 113.96218848799981
v 284.19811970400042 66.805420838000003 113.96218848799981
v -284.3906765050001 66.805420838000003 -102.17299657500007
v 284.19811970400042 66.805420838000003 -102.17299657500007
v -284.3906765050001 47.156767649999985 113.96218848799981
v 284.19811970400042 47.156767649999985 113.96218848799981
v -284.3906765050001 66.805420838000003 113.96218848799981
v 284.19811970400042 66.805420838000003 113.96218848799981
v 284.19811970400042 47.156767649999985 113.96218848799981
v 284.19811970400042 47.156767649999985 -102.17299657500007
v 284.19811970400042 66.805420838000003 113.96218848799981
v 284.19811970400042 66.805420838000003 -102.17299657500007
v 284.19811970400042 47.156767649999985 -102.17299657500007
v -284.3906765050001 47.156767649999985 -102.17299657500007
v 284.19811970400042 66.805420838000003 -102.17299657500007
v -284.3906765050001 66.805420838000003 -102.17299657500007
v -284.3906765050001 47.156767649999985 -102.17299657500007
v -284.3906765050001 47.156767649999985 113.96218848799981
v -284.3906765050001 66.805420838000003 -102.17299657500007
v -284.3906765050001 66.805420838000003 113.96218848799981
vt 0 0
vt 1 0
vt 0 1
vt 1 1
vt 0 0
vt 1 0
vt 0 1
vt 1 1
vt 0 0
vt 1 0
vt 0 1
vt 1 1
vt 0 0
vt 1 0
vt 0 1
vt 1 1
vt 0 0
vt 1 0
vt 0 1
vt 1 1
vt 0 0
vt 1 0
vt 0 1
vt 1 1
vn 0 -1 0
vn 0 -1 0
vn 0 -1 0
vn 0 -1 0
vn 0 1 0
vn 0 1 0
vn 0 1 0
vn 0 1 0
vn 0 0 1
vn 0 0 1
vn 0 0 1
vn 0 0 1
vn 1 0 0
vn 1 0 0
vn 1 0 0
vn 1 0 0
vn 0 0 -1
vn 0 0 -1
vn 0 0 -1
vn 0 0 -1
vn -1 0 0
vn -1 0 0
vn -1 0 0
vn -1 0 0
f 1/1/1 2/2/2 4/4/4 3/3/3
f 5/5/5 6/6/6 8/8/8 7/7/7
f 9/9/9 10/10/10 12/12/12 11/11/11
f 13/13/13 14/14/14 16/16/16 15/15/15
f 17/17/17 18/18/18 20/20/20 19/19/19
f 21/21/21 22/22/22 24/24/24 23/23/23
