# Rhino

mtllib Cabinet_06_11.mtl
usemtl Default
v 77.431176749400038 940.49457850400006 -64.489426514299339
v -77.984805859100561 940.64183116699996 -64.429543764699702
v 77.57597520140007 940.64183116699996 -64.429543764699702
v -77.840171021199239 940.49457850400006 -64.489426514299339
v 77.431176749400038 940.49457850400006 -64.489426514299339
v -77.840171021199239 740.63999186499996 -64.489426514299339
v -77.840171021199239 940.49457850400006 -64.489426514299339
v 77.431176749400038 740.63999186499996 -64.489426514299339
v 77.57597520140007 940.64183116699996 -64.429543764699702
v 77.431176749400038 740.63999186499996 -64.489426514299339
v 77.431176749400038 940.49457850400006 -64.489426514299339
v 77.57597520140007 740.49273920300016 -64.429543764699702
v -77.840171021199239 940.49457850400006 -64.489426514299339
v -77.984805859100561 740.49273920300016 -64.429543764699702
v -77.984805859100561 940.64183116699996 -64.429543764699702
v -77.840171021199239 740.63999186499996 -64.489426514299339
v 77.431176749400038 740.63999186499996 -64.489426514299339
v -77.984805859100561 740.49273920300016 -64.429543764699702
v -77.840171021199239 740.63999186499996 -64.489426514299339
v 77.57597520140007 740.49273920300016 -64.429543764699702
v -77.984805859100561 740.49273920300016 -64.429543764699702
v -77.984805859100561 940.64183116699996 -64.429543764699702
v -0.20441532884979097 840.56728518499995 -64.429543764699702
v 77.57597520140007 740.49273920300016 -64.429543764699702
v 77.57597520140007 940.64183116699996 -64.429543764699702
v 77.635694337000132 740.4354742779999 -62.44425063790186
v 81.807035054399421 736.26331548999997 -62.44425063790186
v -82.216070229700563 736.26331548999997 -62.44425063790186
v 81.807035054399421 944.87125487900005 -62.44425063790186
v 77.635694337000132 940.699096091 -62.44425063790186
v -82.216070229700563 944.87125487900005 -62.44425063790186
v -78.044688608801152 940.699096091 -62.44425063790186
v 77.635694337000132 940.699096091 -64.28490892660011
v -78.044688608801152 940.699096091 -62.44425063790186
v 77.635694337000132 940.699096091 -62.44425063790186
v -78.044688608801152 940.699096091 -64.28490892660011
v 77.57597520140007 940.64183116699996 -64.429543764699702
v -78.044688608801152 940.699096091 -64.28490892660011
v 77.635694337000132 940.699096091 -64.28490892660011
v -77.984805859100561 940.64183116699996 -64.429543764699702
v 77.635694337000132 940.699096091 -64.28490892660011
v 77.57597520140007 740.49273920300016 -64.429543764699702
v 77.57597520140007 940.64183116699996 -64.429543764699702
v 77.635694337000132 740.4354742779999 -64.28490892660011
v 77.635694337000132 940.699096091 -64.28490892660011
v 77.635694337000132 740.4354742779999 -62.44425063790186
v 77.635694337000132 740.4354742779999 -64.28490892660011
v 77.635694337000132 940.699096091 -62.44425063790186
v 77.635694337000132 740.4354742779999 -62.44425063790186
v -78.044688608801152 740.4354742779999 -64.28490892660011
v 77.635694337000132 740.4354742779999 -64.28490892660011
v -78.044688608801152 740.4354742779999 -62.44425063790186
v -78.044688608801152 740.4354742779999 -62.44425063790186
v -78.044688608801152 940.699096091 -62.44425063790186
v -78.044688608801152 740.4354742779999 -64.28490892660011
v -78.044688608801152 740.4354742779999 -62.44425063790186
v -78.044688608801152 940.699096091 -64.28490892660011
v -78.044688608801152 940.699096091 -64.28490892660011
v -77.984805859100561 740.49273920300016 -64.429543764699702
v -78.044688608801152 740.4354742779999 -64.28490892660011
v -77.984805859100561 940.64183116699996 -64.429543764699702
v 77.635694337000132 740.4354742779999 -64.28490892660011
v -77.984805859100561 740.49273920300016 -64.429543764699702
v 77.57597520140007 740.49273920300016 -64.429543764699702
v -78.044688608801152 740.4354742779999 -64.28490892660011
v -82.216070229700563 736.26331548999997 -62.44425063790186
v -82.216070229700563 944.87125487900005 -62.44425063790186
v -0.20451758765011618 840.56728518449995 -62.44425063790186
v 81.807035054399421 736.26331548999997 -62.44425063790186
v 81.807035054399421 944.87125487900005 -62.44425063790186
v -77.984805859100561 740.49273920300016 -64.429543764699702
v -77.984805859100561 940.64183116699996 -64.429543764699702
v -0.20441532884979097 840.56728518499995 -64.429543764699702
v 77.57597520140007 740.49273920300016 -64.429543764699702
v 77.57597520140007 940.64183116699996 -64.429543764699702
v -82.216070229700563 944.87125487900005 -61.912504910102143
v -82.216070229700563 736.26331548999997 -62.44425063790186
v -82.216070229700563 736.26331548999997 -61.912504910102143
v -82.216070229700563 944.87125487900005 -62.44425063790186
v -82.216070229700563 944.87125487900005 -61.912504910102143
v 81.807035054399421 944.87125487900005 -62.44425063790186
v -82.216070229700563 944.87125487900005 -62.44425063790186
v 81.807035054399421 944.87125487900005 -61.912504910102143
v -82.216070229700563 944.87125487900005 -61.912504910102143
v 81.807035054399421 736.26331548999997 -61.912504910102143
v 81.807035054399421 944.87125487900005 -61.912504910102143
v -82.216070229700563 736.26331548999997 -61.912504910102143
v -82.216070229700563 736.26331548999997 -62.44425063790186
v -82.216070229700563 736.26331548999997 -61.912504910102143
v 81.807035054399421 736.26331548999997 -62.44425063790186
v 81.807035054399421 944.87125487900005 -62.44425063790186
v 81.807035054399421 736.26331548999997 -62.44425063790186
v -82.216070229700563 736.26331548999997 -62.44425063790186
v -82.216070229700563 944.87125487900005 -62.44425063790186
v -0.20451758765011618 840.56728518449995 -62.44425063790186
v 81.807035054399421 736.26331548999997 -62.44425063790186
v 81.807035054399421 944.87125487900005 -62.44425063790186
vt 0.021396100521087646 0.19953599572181702
vt 0.78131097555160522 0.19970199465751648
vt 0.020688999444246292 0.19970199465751648
vt 0.78060400485992432 0.19953599572181702
vt 0.13462799787521362 0.97154301404953003
vt 0.86440199613571167 0.76121097803115845
vt 0.86440199613571167 0.97154301404953003
vt 0.13462799787521362 0.76121097803115845
vt 0.023823900148272514 0.21726399660110474
vt 0.02458919957280159 0.0046518100425601006
vt 0.02458919957280159 0.21710999310016632
vt 0.023823900148272514 0.0044980798847973347
vt 0.71636199951171875 0.21710999310016632
vt 0.71712797880172729 0.0044980798847973347
vt 0.71712797880172729 0.21726399660110474
vt 0.71636199951171875 0.0046518100425601006
vt 0.021396100521087646 0.0053460397757589817
vt 0.78131097555160522 0.0051796399056911469
vt 0.78060400485992432 0.0053460397757589817
vt 0.020688999444246292 0.0051796399056911469
vt 0 1
vt 0 0
vt 0.5 0.5
vt 1 1
vt 1 0
vt 13.736300468444824 10.421199798583984
vt 13.609700202941895 10.395700454711914
vt 18.587499618530273 10.395700454711914
vt 13.609700202941895 11.670700073242188
vt 13.736300468444824 11.645199775695801
vt 18.587499618530273 11.670700073242188
vt 18.460899353027344 11.645199775695801
vt 0.071998201310634613 0.025495100766420364
vt 0.016137499362230301 0.9770050048828125
vt 0.016137499362230301 0.025495100766420364
vt 0.071998201310634613 0.9770050048828125
vt 0.40208700299263 1.4523099660873413
vt 15.190299987792969 1.4553099870681763
vt 0.3963949978351593 1.4553099870681763
vt 15.184700012207031 1.4523099660873413
vt 0.35997700691223145 3.9125099182128906
vt 0.37485200166702271 0.080977901816368103
vt 0.37485200166702271 3.9113600254058838
vt 0.35997700691223145 0.079831503331661224
vt 13.792200088500977 11.645199775695801
vt 13.736300468444824 10.421199798583984
vt 13.792200088500977 10.421199798583984
vt 13.736300468444824 11.645199775695801
vt 13.736300468444824 10.421199798583984
vt 18.460899353027344 10.432499885559082
vt 13.736300468444824 10.432499885559082
vt 18.460899353027344 10.421199798583984
vt 18.460899353027344 10.421199798583984
vt 18.460899353027344 11.645199775695801
vt 18.405099868774414 10.421199798583984
vt 18.460899353027344 10.421199798583984
vt 18.405099868774414 11.645199775695801
vt 5.6048102378845215 3.9125099182128906
vt 5.5899300575256348 0.080977901816368103
vt 5.6048102378845215 0.079831503331661224
vt 5.5899300575256348 3.9113600254058838
vt 0.3963949978351593 0.07249719649553299
vt 15.184700012207031 0.075492903590202332
vt 0.40208700299263 0.075492903590202332
vt 15.190299987792969 0.07249719649553299
vt 0 1
vt 0 0
vt 0.5 0.5
vt 1 1
vt 1 0
vt 1 0
vt 0 0
vt 0.5 0.5
vt 1 1
vt 0 1
vt 0 20.078699111938477
vt -0.051181100308895111 0
vt 0 0
vt -0.051181100308895111 20.078699111938477
vt 0 15.787400245666504
vt 0.051181100308895111 0
vt 0.051181100308895111 15.787400245666504
vt 0 0
vt -15.787400245666504 20.078699111938477
vt 0 0
vt 0 20.078699111938477
vt -15.787400245666504 0
vt -0.051181100308895111 15.787400245666504
vt 0 15.787400245666504
vt -0.051181100308895111 0
vt 0.051181100308895111 20.078699111938477
vt 0.051181100308895111 0
vt 0 0
vt 1 0
vt 0.5 0.5
vt 0 1
vt 1 1
vn 0 -0.37670835852622986 0.92633193731307983
vn 0 -0.37670835852622986 0.92633193731307983
vn 0 -0.37670835852622986 0.92633193731307983
vn 0 -0.37670835852622986 0.92633193731307983
vn 0 0 1
vn 0 0 1
vn 0 0 1
vn 0 0 1
vn -0.38216733932495117 0 0.92409312725067139
vn -0.38216733932495117 0 0.92409312725067139
vn -0.38216733932495117 0 0.92409312725067139
vn -0.38216733932495117 0 0.92409312725067139
vn 0.38253644108772278 0 0.92394042015075684
vn 0.38253644108772278 0 0.92394042015075684
vn 0.38253644108772278 0 0.92394042015075684
vn 0.38253644108772278 0 0.92394042015075684
vn 0 0.37670835852622986 0.92633193731307983
vn 0 0.37670835852622986 0.92633193731307983
vn 0 0.37670835852622986 0.92633193731307983
vn 0 0.37670835852622986 0.92633193731307983
vn 0 0 -1
vn 0 0 -1
vn 0 0 -1
vn 0 0 -1
vn 0 0 -1
vn 0 0 1
vn 0 0 1
vn 0 0 1
vn 0 0 1
vn 0 0 1
vn 0 0 1
vn 0 0 1
vn 0 -1 0
vn 0 -1 0
vn 0 -1 0
vn 0 -1 0
vn 0 -0.92977660894393921 0.36812424659729004
vn 0 -0.92977660894393921 0.36812424659729004
vn 0 -0.92977660894393921 0.36812424659729004
vn 0 -0.92977660894393921 0.36812424659729004
vn -0.92430955171585083 0 0.38164365291595459
vn -0.92430955171585083 0 0.38164365291595459
vn -0.92430955171585083 0 0.38164365291595459
vn -0.92430955171585083 0 0.38164365291595459
vn -1 0 0
vn -1 0 0
vn -1 0 0
vn -1 0 0
vn 0 1 0
vn 0 1 0
vn 0 1 0
vn 0 1 0
vn 0 0 1
vn 1 0 0
vn 1 0 0
vn 1 0 0
vn 1 0 0
vn 0.92394042015075684 0 0.38253644108772278
vn 0.92394042015075684 0 0.38253644108772278
vn 0.92394042015075684 0 0.38253644108772278
vn 0.92394042015075684 0 0.38253644108772278
vn 0 0.92977660894393921 0.36812424659729004
vn 0 0.92977660894393921 0.36812424659729004
vn 0 0.92977660894393921 0.36812424659729004
vn 0 0.92977660894393921 0.36812424659729004
vn 0 0 -1
vn 0 0 -1
vn 0 0 -1
vn 0 0 -1
vn 0 0 -1
vn 0 0 -1
vn 0 0 -1
vn 0 0 -1
vn 0 0 -1
vn 0 0 -1
vn 1 0 0
vn 1 0 0
vn 1 0 0
vn 1 0 0
vn 0 -1 0
vn 0 -1 0
vn 0 -1 0
vn 0 -1 0
vn 0 0 -1
vn -0.57735025882720947 0.57735025882720947 -0.57735025882720947
vn -0.70710676908493042 0 -0.70710676908493042
vn 0 0 -1
vn 0 1 0
vn 0 1 0
vn 0 1 0
vn -1 0 0
vn -1 0 0
vn 0 0 -1
vn 0 0 -1
vn 0 0 -1
vn 0 0 -1
vn 0 0 -1
f 1/1/1 3/3/3 2/2/2
f 2/2/2 4/4/4 1/1/1
f 5/5/5 7/7/7 6/6/6
f 6/6/6 8/8/8 5/5/5
f 9/9/9 11/11/11 10/10/10
f 10/10/10 12/12/12 9/9/9
f 13/13/13 15/15/15 14/14/14
f 14/14/14 16/16/16 13/13/13
f 17/17/17 19/19/19 18/18/18
f 18/18/18 20/20/20 17/17/17
f 23/23/23 21/21/21 22/22/22
f 24/24/24 23/23/23 25/25/25
f 22/22/22 25/25/25 23/23/23
f 21/21/21 23/23/23 24/24/24
f 26/26/26 28/28/28 27/27/27
f 27/27/27 29/29/29 26/26/26
f 30/30/30 26/26/26 29/29/29
f 29/29/29 31/31/31 30/30/30
f 31/31/31 32/32/32 30/30/30
f 33/33/33 35/35/35 34/34/34
f 34/34/34 36/36/36 33/33/33
f 37/37/37 39/39/39 38/38/38
f 38/38/38 40/40/40 37/37/37
f 41/41/41 43/43/43 42/42/42
f 42/42/42 44/44/44 41/41/41
f 45/45/45 47/47/47 46/46/46
f 46/46/46 48/48/48 45/45/45
f 49/49/49 51/51/51 50/50/50
f 50/50/50 52/52/52 49/49/49
f 26/26/26 53/53/53 28/28/28
f 53/53/53 32/32/32 28/28/28
f 31/31/31 28/28/28 32/32/32
f 54/54/54 56/56/56 55/55/55
f 55/55/55 57/57/57 54/54/54
f 58/58/58 60/60/60 59/59/59
f 59/59/59 61/61/61 58/58/58
f 62/62/62 64/64/64 63/63/63
f 63/63/63 65/65/65 62/62/62
f 68/68/68 66/66/66 67/67/67
f 69/69/69 68/68/68 70/70/70
f 67/67/67 70/70/70 68/68/68
f 66/66/66 68/68/68 69/69/69
f 73/73/73 72/72/72 75/75/75
f 74/74/74 71/71/71 73/73/73
f 72/72/72 73/73/73 71/71/71
f 75/75/75 74/74/74 73/73/73
f 76/76/76 78/78/78 77/77/77
f 77/77/77 79/79/79 76/76/76
f 80/80/80 82/82/82 81/81/81
f 81/81/81 83/83/83 80/80/80
f 84/84/84 86/86/86 85/85/85
f 85/85/85 87/87/87 84/84/84
f 88/88/88 89/89/89 85/85/85
f 85/85/85 90/90/90 88/88/88
f 91/91/91 92/92/92 85/85/85
f 85/85/85 86/86/86 91/91/91
f 95/95/95 96/96/96 93/93/93
f 97/97/97 95/95/95 94/94/94
f 93/93/93 94/94/94 95/95/95
f 96/96/96 95/95/95 97/97/97
