# Rhino

mtllib Cabinet_15_16.mtl
usemtl Default
v 295.98731161700016 773.05661100999998 113.96218848799981
v -295.98731161700016 765.19714973500015 113.96218848799981
v 284.19811970400042 765.19714973500015 113.96218848799981
v 295.98731161700016 765.19714973500015 113.96218848799981
v -295.98731161700016 765.19714973500015 113.96218848799981
v -295.98731161700016 773.05661100999998 -113.96218848799981
v -295.98731161700016 765.19714973500015 -113.96218848799981
v -295.98731161700016 773.05661100999998 113.96218848799981
v -295.98731161700016 773.05661100999998 113.96218848799981
v 295.98731161700016 773.05661100999998 -113.96218848799981
v -295.98731161700016 773.05661100999998 113.96218848799981
v 295.98731161700016 773.05661100999998 113.96218848799981
v -295.98731161700016 773.05661100999998 -113.96218848799981
v 295.98731161700016 765.19714973500015 -113.96218848799981
v -295.98731161700016 773.05661100999998 -113.96218848799981
v 295.98731161700016 773.05661100999998 -113.96218848799981
v -295.98731161700016 765.19714973500015 -113.96218848799981
v 295.98731161700016 773.05661100999998 113.96218848799981
v 295.98731161700016 765.19714973500015 -113.96218848799981
v 295.98731161700016 773.05661100999998 -113.96218848799981
v 295.98731161700016 765.19714973500015 113.96218848799981
v -284.19751993110413 765.19715785980225 113.96218848799981
v -295.98669965690078 765.19715785980225 113.96218848799981
v 212.48440574876849 765.19715785980225 113.96218848799981
v -284.19751993110413 765.19715785980225 113.96218848799981
v -295.98731161700016 765.19715785980225 113.96195286873626
v -295.98731161700016 765.19715785980225 113.96195286873626
v -295.98669965690078 765.19715785980225 113.96218848799981
v 295.98669965690078 765.19715785980225 -113.96218848799981
v 118.53904891736875 765.19717238951853 -113.96218848799981
v 295.98669965690078 765.19715785980225 -113.96218848799981
v 295.98731161700016 765.19715785980225 -113.96195286873626
v 295.98731161700016 765.19715785980225 -113.96195286873626
v -295.98731161700016 765.19714973500015 113.96218848799981
v -295.98731161700016 765.19715785980225 113.96195286873626
v -295.98731161700016 765.19714973500015 -113.96218848799981
v -295.98669965690078 765.19715785980225 113.96218848799981
v -284.19751993110413 765.19715785980225 113.96218848799981
v 118.53904891736875 765.19717238951853 -113.96218848799981
v 212.48440574876849 765.19715785980225 113.96218848799981
v 284.19811970400042 765.19714973500015 113.96218848799981
v 295.98669965690078 765.19715785980225 -113.96218848799981
v 295.98731161700016 765.19714973500015 113.96218848799981
v 295.98731161700016 765.19715785980225 -113.96195286873626
v 295.98731161700016 765.19714973500015 -113.96218848799981
vt -0.28015300631523132 2.5493800640106201
vt -0.35422700643539429 5.0600399971008301
vt -0.35422700643539429 2.5993800163269043
vt -0.35422700643539429 2.5493800640106201
vt -0.35422700643539429 5.0600399971008301
vt -0.28015300631523132 6.026710033416748
vt -0.35422700643539429 6.026710033416748
vt -0.28015300631523132 5.0600399971008301
vt -0.28015300631523132 5.0600399971008301
vt 8.897709846496582 -3.8389499187469482
vt 6.7495598793029785 -1.3282899856567383
vt 6.7495598793029785 -3.8389499187469482
vt 8.897709846496582 -1.3282899856567383
vt -0.35422700643539429 1.5827100276947021
vt -0.28015300631523132 -0.92795801162719727
vt -0.28015300631523132 1.5827100276947021
vt -0.35422700643539429 -0.92795801162719727
vt -0.28015300631523132 2.5493800640106201
vt -0.35422700643539429 1.5827100276947021
vt -0.28015300631523132 1.5827100276947021
vt -0.35422700643539429 2.5493800640106201
vt -0.35422694683074951 5.0100374221801758
vt -0.35422694683074951 5.0600376129150391
vt -0.35422694683074951 2.9035294055938721
vt -0.35422694683074951 5.0100374221801758
vt -0.35422694683074951 5.0600409507751465
vt -0.35422694683074951 5.0600409507751465
vt -0.35422694683074951 5.0600376129150391
vt -0.35422694683074951 1.5827075242996216
vt -0.35422679781913757 0.83012092113494873
vt -0.35422694683074951 1.5827075242996216
vt -0.35422694683074951 1.5827111005783081
vt -0.35422694683074951 1.5827111005783081
vt 0 1
vt 1.0337606681787292E-06 1
vt 1 1
vt 0 0.99999898672103882
vt 0 0.98008394241333008
vt 1 0.29975652694702148
vt 0 0.14105825126171112
vt 0 0.019915029406547546
vt 1 1.0337606681787292E-06
vt 0 0
vt 0.99999898672103882 0
vt 1 0
vn 0 0 1
vn 0 0 1
vn 0 0 1
vn 0 0 1
vn -1 0 0
vn -1 0 0
vn -1 0 0
vn -1 0 0
vn 0 0 1
vn 0 1 0
vn 0 1 0
vn 0 1 0
vn 0 1 0
vn 0 0 -1
vn 0 0 -1
vn 0 0 -1
vn 0 0 -1
vn 1 0 0
vn 1 0 0
vn 1 0 0
vn 1 0 0
vn 0 0 1
vn 0 0 1
vn 0 0 1
vn 0 0 1
vn -1 0 0
vn -1 0 0
vn 0 0 1
vn 0 0 -1
vn 0 0 -1
vn 0 0 -1
vn 1 0 0
vn 1 0 0
vn 0.013267633505165577 -0.99931800365447998 -0.034459248185157776
vn 0.0044232136569917202 -0.99992424249649048 -0.011488140560686588
vn 2.7325430806968143E-08 -1 3.423346583986131E-08
vn 0.006634947843849659 -0.99982947111129761 -0.017232561483979225
vn 1.3662715403484071E-08 -1 1.1797407495350853E-09
vn -9.0767109384159994E-09 -1 -2.0308716486283629E-08
vn -6.5058891607350233E-08 -1 -4.5084277644491522E-08
vn -3.3279345501568969E-08 -1 -3.7368192096209896E-08
vn -0.0033173772972077131 -0.9999573826789856 0.008615884929895401
vn 0 -1 -3.5646962714963593E-08
vn -0.0044232099317014217 -0.99992424249649048 0.011488130316138268
vn -0.013267633505165577 -0.99931800365447998 0.034459248185157776
f 10/10/10 11/11/11 12/12/12
f 11/11/11 10/10/10 13/13/13
f 23/23/23 22/22/22 1/1/1
f 1/1/1 24/24/24 3/3/3
f 25/25/25 24/24/24 1/1/1
f 4/4/4 1/1/1 3/3/3
f 26/26/26 6/6/6 7/7/7
f 27/27/27 8/8/8 6/6/6
f 8/8/8 27/27/27 5/5/5
f 9/9/9 2/2/2 28/28/28
f 28/28/28 1/1/1 9/9/9
f 16/16/16 14/14/14 29/29/29
f 29/29/29 15/15/15 16/16/16
f 30/30/30 17/17/17 15/15/15
f 15/15/15 31/31/31 30/30/30
f 32/32/32 20/20/20 18/18/18
f 20/20/20 32/32/32 19/19/19
f 33/33/33 18/18/18 21/21/21
f 44/44/44 43/43/43 41/41/41
f 42/42/42 41/41/41 40/40/40
f 35/35/35 38/38/38 37/37/37
f 35/35/35 37/37/37 34/34/34
f 38/38/38 39/39/39 40/40/40
f 42/42/42 45/45/45 44/44/44
f 40/40/40 39/39/39 42/42/42
f 35/35/35 36/36/36 38/38/38
f 36/36/36 39/39/39 38/38/38
f 42/42/42 44/44/44 41/41/41
