# Rhino

mtllib Cabinet_20_05.mtl
usemtl Default
v -190.22602203700001 662.55466090699997 132.88856262100035
v 190.22670739200021 662.55466090699997 -109.95316763999926
v 190.22670739200021 662.55466090699997 132.88856262100035
v -190.22602203700001 662.55466090699997 -109.95316763999926
v -190.22602203700001 662.55466090699997 132.88856262100035
v -190.22602203700001 674.69743277399994 -109.95316763999926
v -190.22602203700001 662.55466090699997 -109.95316763999926
v -190.22602203700001 674.69743277399994 132.88856262100035
v -190.22602203700001 662.55466090699997 132.88856262100035
v 190.22670739200021 674.69743277399994 132.88856262100035
v -190.22602203700001 674.69743277399994 132.88856262100035
v 190.22670739200021 662.55466090699997 132.88856262100035
v 190.22670739200021 662.55466090699997 -109.95316763999926
v 190.22670739200021 674.69743277399994 132.88856262100035
v 190.22670739200021 662.55466090699997 132.88856262100035
v 190.22670739200021 674.69743277399994 -109.95316763999926
v 190.22670739200021 662.55466090699997 -109.95316763999926
v -190.22602203700001 674.69743277399994 -109.95316763999926
v 190.22670739200021 674.69743277399994 -109.95316763999926
v -190.22602203700001 662.55466090699997 -109.95316763999926
v -190.22602203700001 674.69743277399994 132.88856262100035
v 190.22670739200021 674.69743277399994 -109.95316763999926
v -190.22602203700001 674.69743277399994 -109.95316763999926
v 190.22670739200021 674.69743277399994 132.88856262100035
vt -22.204700469970703 15.629899978637695
vt 0 1.4566899538040161
vt 0 15.629899978637695
vt -22.204700469970703 1.4566899538040161
vt 15.629899978637695 0
vt 1.4566899538040161 0.70866101980209351
vt 1.4566899538040161 0
vt 15.629899978637695 0.70866101980209351
vt -22.204700469970703 0
vt 0 0.70866101980209351
vt -22.204700469970703 0.70866101980209351
vt 0 0
vt -1.4566899538040161 0
vt -15.629899978637695 0.70866101980209351
vt -15.629899978637695 0
vt -1.4566899538040161 0.70866101980209351
vt 0 0
vt 22.204700469970703 0.70866101980209351
vt 0 0.70866101980209351
vt 22.204700469970703 0
vt 22.204700469970703 15.629899978637695
vt 0 1.4566899538040161
vt 22.204700469970703 1.4566899538040161
vt 0 15.629899978637695
vn 0 -1 0
vn 0 -1 0
vn 0 -1 0
vn 0 -1 0
vn -1 0 0
vn -1 0 0
vn -1 0 0
vn -1 0 0
vn 0 0 1
vn 0 0 1
vn 0 0 1
vn 0 0 1
vn 1 0 0
vn 1 0 0
vn 1 0 0
vn 1 0 0
vn 0 0 -1
vn 0 0 -1
vn 0 0 -1
vn 0 0 -1
vn 0 1 0
vn 0 1 0
vn 0 1 0
vn 0 1 0
f 1/1/1 2/2/2 3/3/3
f 2/2/2 1/1/1 4/4/4
f 5/5/5 6/6/6 7/7/7
f 6/6/6 5/5/5 8/8/8
f 9/9/9 10/10/10 11/11/11
f 10/10/10 9/9/9 12/12/12
f 13/13/13 14/14/14 15/15/15
f 14/14/14 13/13/13 16/16/16
f 17/17/17 18/18/18 19/19/19
f 18/18/18 17/17/17 20/20/20
f 21/21/21 22/22/22 23/23/23
f 22/22/22 21/21/21 24/24/24
