# Rhino

mtllib Cabinet_07_10.mtl
usemtl Default
v -19.276199068499409 38.552398137000012 -114.87844711966318
v -169.87150429099984 192.761990685 -114.87844711966318
v -19.276199068499409 192.761990685 -114.87844711966318
v -19.276199068499409 38.552398137000012 -113.24766952700156
v -169.87150429099984 192.761990685 -113.24766952700156
v -19.276199068499409 192.761990685 -113.24766952700156
v -169.87150429099984 38.552398137000012 -114.87844711966318
v -169.87150429099984 38.552398137000012 -113.24766952700156
v -19.276199068499409 192.761990685 -113.24766952700156
v -19.276199068499409 38.552398137000012 -113.24766952700156
v -19.276199068499409 38.552398137000012 -114.87844711966318
v -19.276199068499409 192.761990685 -114.87844711966318
v -19.276199068499409 38.552398137000012 -113.24766952700156
v -169.87150429099984 38.552398137000012 -113.24766952700156
v -169.87150429099984 38.552398137000012 -114.87844711966318
v -19.276199068499409 38.552398137000012 -114.87844711966318
v -169.87150429099984 192.761990685 -113.24766952700156
v -19.276199068499409 192.761990685 -113.24766952700156
v -19.276199068499409 192.761990685 -114.87844711966318
v -169.87150429099984 192.761990685 -114.87844711966318
v -169.87150429099984 38.552398137000012 -113.24766952700156
v -169.87150429099984 192.761990685 -113.24766952700156
v -169.87150429099984 192.761990685 -114.87844711966318
v -169.87150429099984 38.552398137000012 -114.87844711966318
vt 0.1666666716337204 0.3333333432674408
vt 0.66666668653488159 0.83333331346511841
vt 0.1666666716337204 0.83333331346511841
vt 0 0
vt 1 1
vt 0 1
vt 0.83333331346511841 0.1666666716337204
vt 1 0
vt 0 1
vt 0 0
vt 0.1666666716337204 0.3333333432674408
vt 0.1666666716337204 0.83333331346511841
vt 0 0
vt 1 0
vt 0.83333331346511841 0.1666666716337204
vt 0.1666666716337204 0.3333333432674408
vt 1 1
vt 0 1
vt 0.1666666716337204 0.83333331346511841
vt 0.66666668653488159 0.83333331346511841
vt 1 0
vt 1 1
vt 0.66666668653488159 0.83333331346511841
vt 0.83333331346511841 0.1666666716337204
vn 0 0 -1
vn 0 0 -1
vn 0 0 -1
vn 0 0 1
vn 0 0 1
vn 0 0 1
vn 0 0 -1
vn 0 0 1
vn 1 0 0
vn 1 0 0
vn 1 0 0
vn 1 0 0
vn 0 -1 0
vn 0 -1 0
vn 0 -1 0
vn 0 -1 0
vn 0 1 0
vn 0 1 0
vn 0 1 0
vn 0 1 0
vn -1 0 0
vn -1 0 0
vn -1 0 0
vn -1 0 0
f 1/1/1 2/2/2 3/3/3
f 4/4/4 6/6/6 5/5/5
f 2/2/2 1/1/1 7/7/7
f 5/5/5 8/8/8 4/4/4
f 9/9/9 10/10/10 11/11/11 12/12/12
f 13/13/13 14/14/14 15/15/15 16/16/16
f 17/17/17 18/18/18 19/19/19 20/20/20
f 21/21/21 22/22/22 23/23/23 24/24/24
