# Rhino

mtllib Cabinet_13_05.mtl
usemtl Default
v -157.41426871800013 930.52365108200001 67.893458507799551
v 157.41426871800104 930.52365108200001 68.988514290299918
v 157.41426871800104 930.52365108200001 67.893458507799551
v -157.41426871800013 930.52365108200001 68.988514290299918
v -157.41426871800013 930.52365108200001 67.893458507799551
v -157.41426871800013 12.231773089000031 68.988514290299918
v -157.41426871800013 930.52365108200001 68.988514290299918
v -157.41426871800013 12.231773089000031 67.893458507799551
v 157.41426871800104 930.52365108200001 67.893458507799551
v -157.41426871800013 12.231773089000031 67.893458507799551
v -157.41426871800013 930.52365108200001 67.893458507799551
v 157.41426871800104 12.231773089000031 67.893458507799551
v 157.41426871800104 930.52365108200001 68.988514290299918
v 157.41426871800104 930.52365108200001 67.893458507799551
v 157.41426871800104 12.231773089000031 68.988514290299918
v 157.41426871800104 930.52365108200001 68.988514290299918
v -157.41426871800013 12.231773089000031 68.988514290299918
v 157.41426871800104 12.231773089000031 68.988514290299918
v -157.41426871800013 930.52365108200001 68.988514290299918
v -157.41426871800013 12.231773089000031 68.988514290299918
v 157.41426871800104 12.231773089000031 68.988514290299918
v -157.41426871800013 12.231773089000031 67.893458507799551
vt 22.637800216674805 0
vt 0 0.078740201890468597
vt 0 0
vt 22.637800216674805 0.078740201890468597
vt 0 66.029899597167969
vt 0.078740201890468597 0
vt 0.078740201890468597 66.029899597167969
vt 0 0
vt 0 66.029899597167969
vt 22.637800216674805 0
vt 22.637800216674805 66.029899597167969
vt 0 0
vt -0.078740201890468597 66.029899597167969
vt 0 66.029899597167969
vt -0.078740201890468597 0
vt 0 66.029899597167969
vt -22.637800216674805 0
vt 0 0
vt -22.637800216674805 66.029899597167969
vt -22.637800216674805 0.078740201890468597
vt 0 0.078740201890468597
vt -22.637800216674805 0
vn 0 1 0
vn 0 1 0
vn 0 1 0
vn 0 1 0
vn -1 0 0
vn -1 0 0
vn -1 0 0
vn -1 0 0
vn 0 0 -1
vn 0 0 -1
vn 0 0 -1
vn 0.66666668653488159 -0.66666668653488159 -0.3333333432674408
vn 1 0 0
vn 1 0 0
vn 1 0 0
vn 0 0 1
vn 0 0 1
vn 0 0 1
vn 0 0 1
vn 0 -1 0
vn 0 -1 0
vn 0 -1 0
f 1/1/1 2/2/2 3/3/3
f 2/2/2 1/1/1 4/4/4
f 5/5/5 6/6/6 7/7/7
f 6/6/6 5/5/5 8/8/8
f 9/9/9 10/10/10 11/11/11
f 10/10/10 9/9/9 12/12/12
f 13/13/13 12/12/12 14/14/14
f 12/12/12 13/13/13 15/15/15
f 16/16/16 17/17/17 18/18/18
f 17/17/17 16/16/16 19/19/19
f 20/20/20 12/12/12 21/21/21
f 12/12/12 20/20/20 22/22/22
