# Rhino

mtllib Cabinet_11_07.mtl
usemtl Default
v -76.834575259899793 26.15636211 -71.929995800699544
v 76.834575259899793 26.15636211 45.773633691400391
v 76.834575259899793 26.15636211 -71.929995800699544
v -76.834575259899793 26.15636211 -71.929995800699544
v -76.834575259899793 0 45.773633691400391
v -76.834575259899793 0 -71.929995800699544
v -76.834575259899793 26.15636211 -71.929995800699544
v 76.834575259899793 0 -71.929995800699544
v -76.834575259899793 0 -71.929995800699544
v 76.834575259899793 26.15636211 -71.929995800699544
v 76.834575259899793 26.15636211 45.773633691400391
v 76.834575259899793 0 -71.929995800699544
v 76.834575259899793 26.15636211 -71.929995800699544
v 76.834575259899793 0 -71.929995800699544
v -76.834575259899793 0 -71.929995800699544
v 76.834575259899793 26.156362109999982 45.773506164550781
v 76.834408765947046 26.156362109999968 45.773506164548962
v 76.834408765947046 26.156362109999968 45.773506164548962
v -76.834575259899793 26.156362110000025 45.773506164550781
v -76.834575259899793 26.156362110000025 45.773506164550781
v -76.834575259899793 2.8339299948387797E-05 45.773506164551691
v -76.834575259899793 2.8339299948387797E-05 45.773506164551691
v 76.834575259899793 26.156362109999982 45.773506164550781
v 76.834575259899793 26.156362109999982 45.773506164550781
v 76.834575259899793 0 45.773506164550781
v -76.834408765946137 0 45.773506164550781
v 76.834575259899793 0 45.773506164550781
v -76.834575259899793 2.8339299948387797E-05 45.773506164551691
vt 11.75 -11
vt 0 -2
vt 0 -11
vt -11 2
vt -2 0
vt -11 0
vt 11.75 2
vt 0 0
vt 11.75 0
vt 0 2
vt 2 2
vt 11 0
vt 11 2
vt 0 -11
vt -11.75 -11
vt 0 -2.0000097751617432
vt 1.2730622984236106E-05 -2.0000097751617432
vt 1.2730622984236106E-05 -2.0000097751617432
vt 11.75 -2.0000097751617432
vt -2.0000097751617432 2
vt -2.0000097751617432 2.1669145553460112E-06
vt -2.0000097751617432 2.1669145553460112E-06
vt 2.0000097751617432 2
vt 2.0000097751617432 2
vt 2.0000097751617432 0
vt -11.749987602233887 -2.0000097751617432
vt 0 -2.0000097751617432
vt -11.75 -2.0000097751617432
vn 0 1 0
vn 0 1 0
vn 0 1 0
vn -1 0 0
vn -1 0 0
vn -1 0 0
vn 0 0 -1
vn 0 0 -1
vn 0 0 -1
vn 0 0 -1
vn 1 0 0
vn 1 0 0
vn 1 0 0
vn 0 -1 0
vn 0 -1 0
vn 0 1 0
vn 0 1 0
vn 0 1 0
vn 0 1 0
vn -1 0 0
vn -1 0 0
vn -1 0 0
vn 1 0 0
vn 1 0 0
vn 1 0 0
vn 0 -1 0
vn 0 -1 0
vn 0 -1 0
f 7/7/7 8/8/8 9/9/9
f 8/8/8 7/7/7 10/10/10
f 17/17/17 3/3/3 1/1/1
f 16/16/16 17/17/17 2/2/2
f 3/3/3 17/17/17 16/16/16
f 1/1/1 19/19/19 18/18/18
f 21/21/21 20/20/20 4/4/4
f 6/6/6 5/5/5 22/22/22
f 22/22/22 4/4/4 6/6/6
f 12/12/12 23/23/23 11/11/11
f 23/23/23 12/12/12 13/13/13
f 24/24/24 25/25/25 12/12/12
f 14/14/14 27/27/27 26/26/26
f 26/26/26 15/15/15 14/14/14
f 15/15/15 26/26/26 28/28/28
