# Rhino

mtllib Cabinet_20_10.mtl
usemtl Default
v 202.36879390500008 856.85443127100007 132.88856262100035
v 202.36879390500008 26.982414474000016 132.88856262100035
v 202.36879390500008 26.982414474000016 132.88856262100035
v 190.22670739200021 856.85443127100007 132.88856262100035
v 202.36879390500008 856.85443127100007 132.88856262100035
v 190.22670739200021 26.982414474000016 132.88856262100035
v 202.36879390500008 26.982414474000016 132.88856262100035
v -190.22602203700001 26.982414474000016 132.88856262100035
v 190.22670739200021 26.982414474000016 132.88856262100035
v -202.36879390500008 26.982414474000016 132.88856262100035
v 202.36879390500008 10.118422562000017 132.88856262100035
v -202.36879390500008 10.118422562000017 132.88856262100035
v 202.36879390500008 10.118422562000017 132.88856262100035
v -202.36879390500008 10.118422562000017 134.91207236700029
v -202.36879390500008 10.118422562000017 132.88856262100035
v 202.36879390500008 10.118422562000017 134.91207236700029
v 202.36879390500008 10.118422562000017 134.91207236700029
v 202.36879390500008 10.118422562000017 132.88856262100035
v 202.36879390500008 873.71758362399999 134.91207236700029
v 202.36879390500008 873.71758362399999 132.88856262100035
v 202.36879390500008 856.85443127100007 132.88856262100035
v -202.36879390500008 873.71758362399999 132.88856262100035
v 202.36879390500008 873.71758362399999 132.88856262100035
v 190.22670739200021 856.85443127100007 132.88856262100035
v -190.22602203700001 856.85443127100007 132.88856262100035
v -202.36879390500008 856.85443127100007 132.88856262100035
v -190.22602203700001 26.982414474000016 132.88856262100035
v -202.36879390500008 856.85443127100007 132.88856262100035
v -190.22602203700001 856.85443127100007 132.88856262100035
v -202.36879390500008 26.982414474000016 132.88856262100035
v -202.36879390500008 26.982414474000016 132.88856262100035
v -202.36879390500008 10.118422562000017 134.91207236700029
v -202.36879390500008 856.85443127100007 132.88856262100035
v -202.36879390500008 10.118422562000017 132.88856262100035
v -202.36879390500008 873.71758362399999 134.91207236700029
v -202.36879390500008 873.71758362399999 132.88856262100035
v 202.36879390500008 873.71758362399999 134.91207236700029
v -202.36879390500008 873.71758362399999 132.88856262100035
v -202.36879390500008 873.71758362399999 134.91207236700029
v 202.36879390500008 873.71758362399999 132.88856262100035
v -202.36879390500008 10.118422562000017 134.91207236700029
v 202.36879390500008 873.71758362399999 134.91207236700029
v -202.36879390500008 873.71758362399999 134.91207236700029
v 202.36879390500008 10.118422562000017 134.91207236700029
vt -15.629899978637695 50.0093994140625
vt -15.629899978637695 1.5748000144958496
vt 0 1.5748000144958496
vt 0.70866101980209351 50.0093994140625
vt 0 50.0093994140625
vt 0.70866101980209351 1.5748000144958496
vt 0 1.5748000144958496
vt 22.913400650024414 1.5748000144958496
vt 0.70866101980209351 1.5748000144958496
vt 23.621999740600586 1.5748000144958496
vt 0 0.59055101871490479
vt 23.621999740600586 0.59055101871490479
vt 0 15.629899978637695
vt -23.621999740600586 15.748000144958496
vt -23.621999740600586 15.629899978637695
vt 0 15.748000144958496
vt -15.748000144958496 0.59055101871490479
vt -15.629899978637695 0.59055101871490479
vt -15.748000144958496 50.993598937988281
vt -15.629899978637695 50.993598937988281
vt 0 50.0093994140625
vt 23.621999740600586 50.993598937988281
vt 0 50.993598937988281
vt 0.70866101980209351 50.0093994140625
vt 22.913400650024414 50.0093994140625
vt 23.621999740600586 50.0093994140625
vt 22.913400650024414 1.5748000144958496
vt 23.621999740600586 50.0093994140625
vt 22.913400650024414 50.0093994140625
vt 23.621999740600586 1.5748000144958496
vt 15.629899978637695 1.5748000144958496
vt 15.748000144958496 0.59055101871490479
vt 15.629899978637695 50.0093994140625
vt 15.629899978637695 0.59055101871490479
vt 15.748000144958496 50.993598937988281
vt 15.629899978637695 50.993598937988281
vt 0 15.748000144958496
vt 23.621999740600586 15.629899978637695
vt 23.621999740600586 15.748000144958496
vt 0 15.629899978637695
vt -23.621999740600586 0.59055101871490479
vt 0 50.993598937988281
vt -23.621999740600586 50.993598937988281
vt 0 0.59055101871490479
vn 1 0 0
vn 1 0 0
vn 0 0 -1
vn 0 0 -1
vn 0 0 -1
vn 0 0 -1
vn 0 0 -1
vn 0 0 -1
vn 0 0 -1
vn 0 0 -1
vn 0 0 -1
vn 0 0 -1
vn 0 -1 0
vn 0 -1 0
vn 0 -1 0
vn 0 -1 0
vn 1 0 0
vn 1 0 0
vn 1 0 0
vn 1 0 0
vn 0 0 -1
vn 0 0 -1
vn 0 0 -1
vn 0 0 -1
vn 0 0 -1
vn 0 0 -1
vn 0 0 -1
vn 0 0 -1
vn 0 0 -1
vn 0 0 -1
vn -1 0 0
vn -1 0 0
vn -1 0 0
vn -1 0 0
vn -1 0 0
vn -1 0 0
vn 0 1 0
vn 0 1 0
vn 0 1 0
vn 0 1 0
vn 0 0 1
vn 0 0 1
vn 0 0 1
vn 0 0 1
f 3/3/3 4/4/4 5/5/5
f 4/4/4 3/3/3 6/6/6
f 11/11/11 10/10/10 7/7/7
f 10/10/10 11/11/11 12/12/12
f 13/13/13 14/14/14 15/15/15
f 14/14/14 13/13/13 16/16/16
f 2/2/2 17/17/17 18/18/18
f 17/17/17 2/2/2 19/19/19
f 1/1/1 19/19/19 2/2/2
f 19/19/19 1/1/1 20/20/20
f 21/21/21 22/22/22 23/23/23
f 24/24/24 22/22/22 21/21/21
f 25/25/25 22/22/22 24/24/24
f 22/22/22 25/25/25 26/26/26
f 27/27/27 28/28/28 29/29/29
f 28/28/28 27/27/27 30/30/30
f 31/31/31 32/32/32 33/33/33
f 32/32/32 31/31/31 34/34/34
f 35/35/35 33/33/33 32/32/32
f 33/33/33 35/35/35 36/36/36
f 37/37/37 38/38/38 39/39/39
f 38/38/38 37/37/37 40/40/40
f 41/41/41 42/42/42 43/43/43
f 42/42/42 41/41/41 44/44/44
f 25/25/25 9/9/9 8/8/8
f 9/9/9 25/25/25 24/24/24
