# Rhino

mtllib Cabinet_06_10.mtl
usemtl Default
v -101.84975864300031 29.041497445000005 -70.093208415499248
v -82.216070229700563 964.91397846699999 -70.093208415499248
v -82.216070229700563 29.041497445000005 -70.093208415499248
v -101.84975864300031 964.91397846699999 -70.093208415499248
v -102.2587938179995 29.041497445000005 -69.684173240300879
v -101.84975864300031 964.91397846699999 -70.093208415499248
v -101.84975864300031 29.041497445000005 -70.093208415499248
v -102.2587938179995 964.91397846699999 -69.684173240300879
v -82.216070229700563 964.91397846699999 -70.093208415499248
v -81.807035054399421 29.041497445000005 -69.684173240300879
v -82.216070229700563 29.041497445000005 -70.093208415499248
v -81.807035054399421 964.91397846699999 -69.684173240300879
v -102.2587938179995 964.91397846699999 -62.321540085398738
v -102.2587938179995 29.041497445000005 -69.684173240300879
v -102.2587938179995 29.041497445000005 -62.321540085398738
v -102.2587938179995 964.91397846699999 -69.684173240300879
v -102.2587938179995 964.91397846699999 -62.321540085398738
v -101.84975864300031 965.32301364299997 -69.684173240300879
v -102.2587938179995 964.91397846699999 -69.684173240300879
v -101.84975864300031 965.32301364299997 -62.321540085398738
v -102.2587938179995 964.91397846699999 -62.321540085398738
v -101.84975864300031 964.91397846699999 -61.912504910102143
v -101.84975864300031 965.32301364299997 -62.321540085398738
v -102.2587938179995 964.91397846699999 -62.321540085398738
v -101.84975864300031 29.041497445000005 -61.912504910102143
v -101.84975864300031 964.91397846699999 -61.912504910102143
v -102.2587938179995 29.041497445000005 -62.321540085398738
v -101.84975864300031 28.632462270000048 -62.321540085398738
v -101.84975864300031 29.041497445000005 -61.912504910102143
v -102.2587938179995 29.041497445000005 -62.321540085398738
v -101.84975864300031 28.632462270000048 -62.321540085398738
v -82.216070229700563 29.041497445000005 -61.912504910102143
v -101.84975864300031 29.041497445000005 -61.912504910102143
v -82.216070229700563 28.632462270000048 -62.321540085398738
v -101.84975864300031 28.632462270000048 -69.684173240300879
v -82.216070229700563 28.632462270000048 -62.321540085398738
v -101.84975864300031 28.632462270000048 -62.321540085398738
v -82.216070229700563 28.632462270000048 -69.684173240300879
v -101.84975864300031 29.041497445000005 -70.093208415499248
v -82.216070229700563 28.632462270000048 -69.684173240300879
v -101.84975864300031 28.632462270000048 -69.684173240300879
v -82.216070229700563 29.041497445000005 -70.093208415499248
v -101.84975864300031 964.91397846699999 -70.093208415499248
v -102.2587938179995 964.91397846699999 -69.684173240300879
v -101.84975864300031 965.32301364299997 -69.684173240300879
v -101.84975864300031 965.32301364299997 -69.684173240300879
v -82.216070229700563 964.91397846699999 -70.093208415499248
v -101.84975864300031 964.91397846699999 -70.093208415499248
v -82.216070229700563 965.32301364299997 -69.684173240300879
v -101.84975864300031 965.32301364299997 -62.321540085398738
v -82.216070229700563 965.32301364299997 -69.684173240300879
v -101.84975864300031 965.32301364299997 -69.684173240300879
v -82.216070229700563 965.32301364299997 -62.321540085398738
v -101.84975864300031 964.91397846699999 -61.912504910102143
v -82.216070229700563 965.32301364299997 -62.321540085398738
v -101.84975864300031 965.32301364299997 -62.321540085398738
v -82.216070229700563 964.91397846699999 -61.912504910102143
v -101.84975864300031 964.91397846699999 -61.912504910102143
v -82.216070229700563 29.041497445000005 -61.912504910102143
v -82.216070229700563 964.91397846699999 -61.912504910102143
v -101.84975864300031 29.041497445000005 -61.912504910102143
v -82.216070229700563 29.041497445000005 -61.912504910102143
v -81.807035054399421 964.91397846699999 -62.321540085398738
v -82.216070229700563 964.91397846699999 -61.912504910102143
v -81.807035054399421 29.041497445000005 -62.321540085398738
v -82.216070229700563 29.041497445000005 -61.912504910102143
v -82.216070229700563 28.632462270000048 -62.321540085398738
v -81.807035054399421 29.041497445000005 -62.321540085398738
v -82.216070229700563 28.632462270000048 -62.321540085398738
v -81.807035054399421 29.041497445000005 -69.684173240300879
v -81.807035054399421 29.041497445000005 -62.321540085398738
v -82.216070229700563 28.632462270000048 -69.684173240300879
v -81.807035054399421 29.041497445000005 -69.684173240300879
v -82.216070229700563 28.632462270000048 -69.684173240300879
v -82.216070229700563 29.041497445000005 -70.093208415499248
v -82.216070229700563 965.32301364299997 -69.684173240300879
v -81.807035054399421 964.91397846699999 -69.684173240300879
v -82.216070229700563 964.91397846699999 -70.093208415499248
v -82.216070229700563 965.32301364299997 -69.684173240300879
v -81.807035054399421 964.91397846699999 -62.321540085398738
v -81.807035054399421 964.91397846699999 -69.684173240300879
v -82.216070229700563 965.32301364299997 -62.321540085398738
v -82.216070229700563 965.32301364299997 -62.321540085398738
v -82.216070229700563 964.91397846699999 -61.912504910102143
v -81.807035054399421 964.91397846699999 -62.321540085398738
v -81.807035054399421 29.041497445000005 -62.321540085398738
v -81.807035054399421 964.91397846699999 -69.684173240300879
v -81.807035054399421 964.91397846699999 -62.321540085398738
v -81.807035054399421 29.041497445000005 -69.684173240300879
v -101.84975864300031 29.041497445000005 -70.093208415499248
v -101.84975864300031 28.632462270000048 -69.684173240300879
v -102.2587938179995 29.041497445000005 -69.684173240300879
v -101.84975864300031 28.632462270000048 -62.321540085398738
v -102.2587938179995 29.041497445000005 -69.684173240300879
v -101.84975864300031 28.632462270000048 -69.684173240300879
v -102.2587938179995 29.041497445000005 -62.321540085398738
v -102.2587938179995 29.041497445000005 -69.684173240300879
v -102.2587938179995 964.91397846699999 -69.684173240300879
v -101.84975864300031 29.041497445000005 -70.093208415499248
v -101.84975864300031 964.91397846699999 -70.093208415499248
v -82.216070229700563 29.041497445000005 -70.093208415499248
v -82.216070229700563 964.91397846699999 -70.093208415499248
v -81.807035054399421 29.041497445000005 -69.684173240300879
v -81.807035054399421 964.91397846699999 -69.684173240300879
vt 0.99062401056289673 0.0020575700327754021
vt 0.90125900506973267 0.99736201763153076
vt 0.90125900506973267 0.0020575700327754021
vt 0.99062401056289673 0.99736201763153076
vt 0.043840598315000534 0.00043482799082994461
vt 0.041012201458215714 0.99532097578048706
vt 0.041012201458215714 0.00043482799082994461
vt 0.043840598315000534 0.99532097578048706
vt 0.029698500409722328 0.99532097578048706
vt 0.026870099827647209 0.00043482799082994461
vt 0.029698500409722328 0.00043482799082994461
vt 0.026870099827647209 0.99532097578048706
vt 0.038869701325893402 -15.478400230407715
vt 0.73852401971817017 2.4323298931121826
vt 0.038869701325893402 2.4323298931121826
vt 0.73852401971817017 -15.478400230407715
vt -0.038869701325893402 12.393600463867188
vt -0.73852401971817017 12.404600143432617
vt -0.73852401971817017 12.393600463867188
vt -0.038869701325893402 12.404600143432617
vt -1.4017399549484253 14.473899841308594
vt -1.3467700481414795 14.473899841308594
vt -1.374250054359436 14.483400344848633
vt -1.4017399549484253 17.918600082397461
vt -1.3467700481414795 0.0078281201422214508
vt -1.3467700481414795 17.918600082397461
vt -1.4017399549484253 0.0078281201422214508
vt -1.374250054359436 0.15339900553226471
vt -1.3467700481414795 0.16298699378967285
vt -1.4017399549484253 0.16298699378967285
vt -1.9046100378036499 -0.0055353199131786823
vt -0.038869701325893402 0.0055353199131786823
vt -1.9046100378036499 0.0055353199131786823
vt -0.038869701325893402 -0.0055353199131786823
vt 0.73852401971817017 -0.38357800245285034
vt 0.038869701325893402 -0.0078281201422214508
vt 0.038869701325893402 -0.38357800245285034
vt 0.73852401971817017 -0.0078281201422214508
vt 1.9046100378036499 0.11624199897050858
vt 0.038869701325893402 0.10517100244760513
vt 1.9046100378036499 0.10517100244760513
vt 0.038869701325893402 0.11624199897050858
vt 0.79706501960754395 14.409899711608887
vt 0.85203498601913452 14.409899711608887
vt 0.82454997301101685 14.419500350952148
vt 1.9046100378036499 12.570699691772461
vt 0.038869701325893402 12.559599876403809
vt 1.9046100378036499 12.559599876403809
vt 0.038869701325893402 12.570699691772461
vt 0.038869701325893402 -15.494099617004395
vt 0.73852401971817017 -15.869799613952637
vt 0.73852401971817017 -15.494099617004395
vt 0.038869701325893402 -15.869799613952637
vt -1.9046100378036499 12.670299530029297
vt -0.038869701325893402 12.681400299072266
vt -1.9046100378036499 12.681400299072266
vt -0.038869701325893402 12.670299530029297
vt -1.9046100378036499 17.918600082397461
vt -0.038869701325893402 0.0078281201422214508
vt -0.038869701325893402 17.918600082397461
vt -1.9046100378036499 0.0078281201422214508
vt -0.027484999969601631 0.0078281201422214508
vt 0.027484999969601631 17.918600082397461
vt -0.027484999969601631 17.918600082397461
vt 0.027484999969601631 0.0078281201422214508
vt -0.027484999969601631 0.0031958199106156826
vt 0 -0.0063916300423443317
vt 0.027484999969601631 0.0031958199106156826
vt 0.038869701325893402 -0.0055353199131786823
vt 0.73852401971817017 0.0055353199131786823
vt 0.038869701325893402 0.0055353199131786823
vt 0.73852401971817017 -0.0055353199131786823
vt 0.52221500873565674 0.06711210310459137
vt 0.54970002174377441 0.057524699717760086
vt 0.57718497514724731 0.06711210310459137
vt 0.54970002174377441 14.579299926757812
vt 0.52221500873565674 14.569700241088867
vt 0.57718497514724731 14.569700241088867
vt 0.73852401971817017 12.681400299072266
vt 0.038869701325893402 12.670299530029297
vt 0.73852401971817017 12.670299530029297
vt 0.038869701325893402 12.681400299072266
vt 0 14.643199920654297
vt -0.027484999969601631 14.633600234985352
vt 0.027484999969601631 14.633600234985352
vt 0.038869701325893402 0.0078281201422214508
vt 0.73852401971817017 17.918600082397461
vt 0.038869701325893402 17.918600082397461
vt 0.73852401971817017 0.0078281201422214508
vt 0.79706501960754395 0.22690300643444061
vt 0.82454997301101685 0.21731500327587128
vt 0.85203498601913452 0.22690300643444061
vt -0.038869701325893402 0.27123001217842102
vt -0.73852401971817017 0.28230100870132446
vt -0.73852401971817017 0.27123001217842102
vt -0.038869701325893402 0.28230100870132446
vt 0 1
vt 0 1.6315955253531911E-09
vt 0.020037723705172539 1
vt 0.020037723705172539 1.8899811493611196E-08
vt 0.98003774881362915 1
vt 0.98003774881362915 1.7333478652403755E-08
vt 1 1
vt 1 0
vn 0 0 1
vn 0 0 1
vn 0 0 1
vn 0 0 1
vn -0.70710676908493042 0 -0.70710676908493042
vn -0.70710676908493042 0 -0.70710676908493042
vn -0.70710676908493042 0 -0.70710676908493042
vn -0.70710676908493042 0 -0.70710676908493042
vn -0.70710676908493042 0 0.70710676908493042
vn -0.70710676908493042 0 0.70710676908493042
vn -0.70710676908493042 0 0.70710676908493042
vn -0.70710676908493042 0 0.70710676908493042
vn -1 0 0
vn -1 0 0
vn -1 0 0
vn -1 0 0
vn 0.70710676908493042 -0.70710676908493042 0
vn 0.70710676908493042 -0.70710676908493042 0
vn 0.70710676908493042 -0.70710676908493042 0
vn 0.70710676908493042 -0.70710676908493042 0
vn 0.57735025882720947 -0.57735025882720947 -0.57735025882720947
vn 0.57735025882720947 -0.57735025882720947 -0.57735025882720947
vn 0.57735025882720947 -0.57735025882720947 -0.57735025882720947
vn -0.70710676908493042 0 0.70710676908493042
vn -0.70710676908493042 0 0.70710676908493042
vn -0.70710676908493042 0 0.70710676908493042
vn -0.70710676908493042 0 0.70710676908493042
vn 0.57735025882720947 0.57735025882720947 -0.57735025882720947
vn 0.57735025882720947 0.57735025882720947 -0.57735025882720947
vn 0.57735025882720947 0.57735025882720947 -0.57735025882720947
vn 0 0.70710676908493042 -0.70710676908493042
vn 0 0.70710676908493042 -0.70710676908493042
vn 0 0.70710676908493042 -0.70710676908493042
vn 0 0.70710676908493042 -0.70710676908493042
vn 0 1 0
vn 0 1 0
vn 0 1 0
vn 0 1 0
vn 0 0.70710676908493042 0.70710676908493042
vn 0 0.70710676908493042 0.70710676908493042
vn 0 0.70710676908493042 0.70710676908493042
vn 0 0.70710676908493042 0.70710676908493042
vn 0.57735025882720947 -0.57735025882720947 0.57735025882720947
vn 0.57735025882720947 -0.57735025882720947 0.57735025882720947
vn 0.57735025882720947 -0.57735025882720947 0.57735025882720947
vn 0 -0.70710676908493042 0.70710676908493042
vn 0 -0.70710676908493042 0.70710676908493042
vn 0 -0.70710676908493042 0.70710676908493042
vn 0 -0.70710676908493042 0.70710676908493042
vn 0 -1 0
vn 0 -1 0
vn 0 -1 0
vn 0 -1 0
vn 0 -0.70710676908493042 -0.70710676908493042
vn 0 -0.70710676908493042 -0.70710676908493042
vn 0 -0.70710676908493042 -0.70710676908493042
vn 0 -0.70710676908493042 -0.70710676908493042
vn 0 0 -1
vn 0 0 -1
vn 0 0 -1
vn 0 0 -1
vn -0.70710676908493042 0 -0.70710676908493042
vn -0.70710676908493042 0 -0.70710676908493042
vn -0.70710676908493042 0 -0.70710676908493042
vn -0.70710676908493042 0 -0.70710676908493042
vn -0.57735025882720947 0.57735025882720947 -0.57735025882720947
vn -0.57735025882720947 0.57735025882720947 -0.57735025882720947
vn -0.57735025882720947 0.57735025882720947 -0.57735025882720947
vn -0.70710676908493042 0.70710676908493042 0
vn -0.70710676908493042 0.70710676908493042 0
vn -0.70710676908493042 0.70710676908493042 0
vn -0.70710676908493042 0.70710676908493042 0
vn -0.57735025882720947 0.57735025882720947 0.57735025882720947
vn -0.57735025882720947 0.57735025882720947 0.57735025882720947
vn -0.57735025882720947 0.57735025882720947 0.57735025882720947
vn -0.57735025882720947 -0.57735025882720947 0.57735025882720947
vn -0.57735025882720947 -0.57735025882720947 0.57735025882720947
vn -0.57735025882720947 -0.57735025882720947 0.57735025882720947
vn -0.70710676908493042 -0.70710676908493042 0
vn -0.70710676908493042 -0.70710676908493042 0
vn -0.70710676908493042 -0.70710676908493042 0
vn -0.70710676908493042 -0.70710676908493042 0
vn -0.57735025882720947 -0.57735025882720947 -0.57735025882720947
vn -0.57735025882720947 -0.57735025882720947 -0.57735025882720947
vn -0.57735025882720947 -0.57735025882720947 -0.57735025882720947
vn -1 0 0
vn -1 0 0
vn -1 0 0
vn -1 0 0
vn 0.57735025882720947 0.57735025882720947 0.57735025882720947
vn 0.57735025882720947 0.57735025882720947 0.57735025882720947
vn 0.57735025882720947 0.57735025882720947 0.57735025882720947
vn 0.70710676908493042 0.70710676908493042 0
vn 0.70710676908493042 0.70710676908493042 0
vn 0.70710676908493042 0.70710676908493042 0
vn 0.70710676908493042 0.70710676908493042 0
vn -0.70710676908493042 0 -0.70710676908493042
vn -0.70710676908493042 0 -0.70710676908493042
vn -0.3826833963394165 0 -0.92387956380844116
vn -0.3826833963394165 0 -0.92387956380844116
vn 0.25272473692893982 0 -0.96753823757171631
vn 0.50544941425323486 0 -0.86285620927810669
vn -0.70710676908493042 0 0.70710676908493042
vn -0.70710676908493042 0 0.70710676908493042
f 1/1/1 3/3/3 2/2/2
f 2/2/2 4/4/4 1/1/1
f 5/5/5 6/6/6 7/7/7
f 6/6/6 5/5/5 8/8/8
f 9/9/9 11/11/11 10/10/10
f 10/10/10 12/12/12 9/9/9
f 13/13/13 14/14/14 15/15/15
f 14/14/14 13/13/13 16/16/16
f 17/17/17 19/19/19 18/18/18
f 18/18/18 20/20/20 17/17/17
f 21/21/21 23/23/23 22/22/22
f 24/24/24 25/25/25 26/26/26
f 25/25/25 24/24/24 27/27/27
f 28/28/28 30/30/30 29/29/29
f 31/31/31 33/33/33 32/32/32
f 32/32/32 34/34/34 31/31/31
f 35/35/35 37/37/37 36/36/36
f 36/36/36 38/38/38 35/35/35
f 39/39/39 41/41/41 40/40/40
f 40/40/40 42/42/42 39/39/39
f 43/43/43 45/45/45 44/44/44
f 46/46/46 48/48/48 47/47/47
f 47/47/47 49/49/49 46/46/46
f 50/50/50 52/52/52 51/51/51
f 51/51/51 53/53/53 50/50/50
f 54/54/54 56/56/56 55/55/55
f 55/55/55 57/57/57 54/54/54
f 58/58/58 60/60/60 59/59/59
f 59/59/59 61/61/61 58/58/58
f 62/62/62 64/64/64 63/63/63
f 63/63/63 65/65/65 62/62/62
f 66/66/66 68/68/68 67/67/67
f 69/69/69 71/71/71 70/70/70
f 70/70/70 72/72/72 69/69/69
f 73/73/73 75/75/75 74/74/74
f 76/76/76 78/78/78 77/77/77
f 79/79/79 81/81/81 80/80/80
f 80/80/80 82/82/82 79/79/79
f 83/83/83 85/85/85 84/84/84
f 86/86/86 88/88/88 87/87/87
f 87/87/87 89/89/89 86/86/86
f 90/90/90 92/92/92 91/91/91
f 93/93/93 95/95/95 94/94/94
f 94/94/94 96/96/96 93/93/93
f 97/97/97 98/98/98 100/100/100
f 100/100/100 99/99/99 97/97/97
f 99/99/99 100/100/100 101/101/101
f 103/103/103 104/104/104 102/102/102
f 102/102/102 101/101/101 103/103/103
f 100/100/100 102/102/102 101/101/101
