# Rhino

mtllib Cabinet_20_12.mtl
usemtl Default
v -190.22602203700001 856.85443127100007 132.88856262100035
v -202.36879390500008 856.85443127100007 -134.91207236700029
v -202.36879390500008 856.85443127100007 132.88856262100035
v -190.22602203700001 856.85443127100007 -134.91207236700029
v -190.22602203700001 856.85443127100007 132.88856262100035
v -190.22602203700001 26.982414474000016 -134.91207236700029
v -190.22602203700001 856.85443127100007 -134.91207236700029
v -190.22602203700001 26.982414474000016 132.88856262100035
v -202.36879390500008 26.982414474000016 132.88856262100035
v -190.22602203700001 26.982414474000016 -134.91207236700029
v -190.22602203700001 26.982414474000016 132.88856262100035
v -202.36879390500008 26.982414474000016 -134.91207236700029
v -202.36879390500008 26.982414474000016 132.88856262100035
v -202.36879390500008 856.85443127100007 -134.91207236700029
v -202.36879390500008 26.982414474000016 -134.91207236700029
v -202.36879390500008 856.85443127100007 132.88856262100035
v -202.36879390500008 856.85443127100007 -134.91207236700029
v -190.22602203700001 26.982414474000016 -134.91207236700029
v -202.36879390500008 26.982414474000016 -134.91207236700029
v -190.22602203700001 856.85443127100007 -134.91207236700029
v -202.36879390500008 26.982414474000016 132.88856262100035
v -202.36879390500008 856.85443127100007 132.88856262100035
v -196.29740797099998 441.91842287250006 132.88856262100035
v -190.22602203700001 26.982414474000016 132.88856262100035
v -190.22602203700001 856.85443127100007 132.88856262100035
vt 22.913400650024414 15.629899978637695
vt 23.621999740600586 0
vt 23.621999740600586 15.629899978637695
vt 22.913400650024414 0
vt -15.629899978637695 50.0093994140625
vt 0 1.5748000144958496
vt 0 50.0093994140625
vt -15.629899978637695 1.5748000144958496
vt -23.621999740600586 15.629899978637695
vt -22.913400650024414 0
vt -22.913400650024414 15.629899978637695
vt -23.621999740600586 0
vt 15.629899978637695 1.5748000144958496
vt 0 50.0093994140625
vt 0 1.5748000144958496
vt 15.629899978637695 50.0093994140625
vt 23.621999740600586 50.0093994140625
vt 22.913400650024414 1.5748000144958496
vt 23.621999740600586 1.5748000144958496
vt 22.913400650024414 50.0093994140625
vt 1 0
vt 0 0
vt 0.5 0.5
vt 1 1
vt 0 1
vn 0 1 0
vn 0 1 0
vn 0 1 0
vn 0 1 0
vn 1 0 0
vn 1 0 0
vn 1 0 0
vn 1 0 0
vn 0 -1 0
vn 0 -1 0
vn 0 -1 0
vn 0 -1 0
vn -1 0 0
vn -1 0 0
vn -1 0 0
vn -1 0 0
vn 0 0 -1
vn 0 0 -1
vn 0 0 -1
vn 0 0 -1
vn 0 0 1
vn 0 0 1
vn 0 0 1
vn 0 0 1
vn 0 0 1
f 1/1/1 2/2/2 3/3/3
f 2/2/2 1/1/1 4/4/4
f 5/5/5 6/6/6 7/7/7
f 6/6/6 5/5/5 8/8/8
f 9/9/9 10/10/10 11/11/11
f 10/10/10 9/9/9 12/12/12
f 13/13/13 14/14/14 15/15/15
f 14/14/14 13/13/13 16/16/16
f 17/17/17 18/18/18 19/19/19
f 18/18/18 17/17/17 20/20/20
f 23/23/23 25/25/25 22/22/22
f 24/24/24 23/23/23 21/21/21
f 22/22/22 21/21/21 23/23/23
f 25/25/25 23/23/23 24/24/24
