# Rhino

mtllib Cabinet_14_06.mtl
usemtl Default
v -152.78780718399958 381.53509648490001 -75.798485094799844
v 153.14076928399936 381.53509648490001 -75.798485094799844
v -152.78780718399958 381.53509648490001 74.932216693699957
v 153.14076928399936 381.53509648490001 74.932216693699957
v -152.78780718399958 389.82078048689993 74.932216693699957
v 153.14076928399936 389.82078048689993 74.932216693699957
v -152.78780718399958 389.82078048689993 -75.798485094799844
v 153.14076928399936 389.82078048689993 -75.798485094799844
v -152.78780718399958 381.53509648490001 74.932216693699957
v 153.14076928399936 381.53509648490001 74.932216693699957
v -152.78780718399958 389.82078048689993 74.932216693699957
v 153.14076928399936 389.82078048689993 74.932216693699957
v 153.14076928399936 381.53509648490001 74.932216693699957
v 153.14076928399936 381.53509648490001 -75.798485094799844
v 153.14076928399936 389.82078048689993 74.932216693699957
v 153.14076928399936 389.82078048689993 -75.798485094799844
v 153.14076928399936 381.53509648490001 -75.798485094799844
v -152.78780718399958 381.53509648490001 -75.798485094799844
v 153.14076928399936 389.82078048689993 -75.798485094799844
v -152.78780718399958 389.82078048689993 -75.798485094799844
v -152.78780718399958 381.53509648490001 -75.798485094799844
v -152.78780718399958 381.53509648490001 74.932216693699957
v -152.78780718399958 389.82078048689993 -75.798485094799844
v -152.78780718399958 389.82078048689993 74.932216693699957
vt 0 0
vt 1 0
vt 0 1
vt 1 1
vt 0 0
vt 1 0
vt 0 1
vt 1 1
vt 0 0
vt 1 0
vt 0 1
vt 1 1
vt 0 0
vt 1 0
vt 0 1
vt 1 1
vt 0 0
vt 1 0
vt 0 1
vt 1 1
vt 0 0
vt 1 0
vt 0 1
vt 1 1
vn 0 -1 0
vn 0 -1 0
vn 0 -1 0
vn 0 -1 0
vn 0 1 0
vn 0 1 0
vn 0 1 0
vn 0 1 0
vn 0 0 1
vn 0 0 1
vn 0 0 1
vn 0 0 1
vn 1 0 0
vn 1 0 0
vn 1 0 0
vn 1 0 0
vn 0 0 -1
vn 0 0 -1
vn 0 0 -1
vn 0 0 -1
vn -1 0 0
vn -1 0 0
vn -1 0 0
vn -1 0 0
f 1/1/1 2/2/2 4/4/4 3/3/3
f 5/5/5 6/6/6 8/8/8 7/7/7
f 9/9/9 10/10/10 12/12/12 11/11/11
f 13/13/13 14/14/14 16/16/16 15/15/15
f 17/17/17 18/18/18 20/20/20 19/19/19
f 21/21/21 22/22/22 24/24/24 23/23/23
