# Rhino

mtllib Cabinet_06_12.mtl
usemtl Default
v 77.431176749400038 711.51668738600006 -64.489426514299339
v -77.984805859100561 711.66394004899996 -64.429543764699702
v 77.57597520140007 711.66394004899996 -64.429543764699702
v -77.840171021199239 711.51668738600006 -64.489426514299339
v 77.431176749400038 711.51668738600006 -64.489426514299339
v -77.840171021199239 511.66210074829996 -64.489426514299339
v -77.840171021199239 711.51668738600006 -64.489426514299339
v 77.431176749400038 511.66210074829996 -64.489426514299339
v 77.57597520140007 711.66394004899996 -64.429543764699702
v 77.431176749400038 511.66210074829996 -64.489426514299339
v 77.431176749400038 711.51668738600006 -64.489426514299339
v 77.57597520140007 511.51484808519996 -64.429543764699702
v -77.840171021199239 711.51668738600006 -64.489426514299339
v -77.984805859100561 511.51484808519996 -64.429543764699702
v -77.984805859100561 711.66394004899996 -64.429543764699702
v -77.840171021199239 511.66210074829996 -64.489426514299339
v 77.431176749400038 511.66210074829996 -64.489426514299339
v -77.984805859100561 511.51484808519996 -64.429543764699702
v -77.840171021199239 511.66210074829996 -64.489426514299339
v 77.57597520140007 511.51484808519996 -64.429543764699702
v -77.984805859100561 511.51484808519996 -64.429543764699702
v -77.984805859100561 711.66394004899996 -64.429543764699702
v -0.20441532884979097 611.58939406709999 -64.429543764699702
v 77.57597520140007 511.51484808519996 -64.429543764699702
v 77.57597520140007 711.66394004899996 -64.429543764699702
v 77.635694337000132 511.45758316069998 -62.44425063790186
v 81.807035054399421 507.28542437290002 -62.44425063790186
v -82.216070229700563 507.28542437290002 -62.44425063790186
v 81.807035054399421 715.89336376199992 -62.44425063790186
v 77.635694337000132 711.721204973 -62.44425063790186
v -82.216070229700563 715.89336376199992 -62.44425063790186
v -78.044688608801152 711.721204973 -62.44425063790186
v 77.635694337000132 711.721204973 -64.28490892660011
v -78.044688608801152 711.721204973 -62.44425063790186
v 77.635694337000132 711.721204973 -62.44425063790186
v -78.044688608801152 711.721204973 -64.28490892660011
v 77.57597520140007 711.66394004899996 -64.429543764699702
v -78.044688608801152 711.721204973 -64.28490892660011
v 77.635694337000132 711.721204973 -64.28490892660011
v -77.984805859100561 711.66394004899996 -64.429543764699702
v 77.635694337000132 711.721204973 -64.28490892660011
v 77.57597520140007 511.51484808519996 -64.429543764699702
v 77.57597520140007 711.66394004899996 -64.429543764699702
v 77.635694337000132 511.45758316069998 -64.28490892660011
v 77.635694337000132 711.721204973 -64.28490892660011
v 77.635694337000132 511.45758316069998 -62.44425063790186
v 77.635694337000132 511.45758316069998 -64.28490892660011
v 77.635694337000132 711.721204973 -62.44425063790186
v 77.635694337000132 511.45758316069998 -62.44425063790186
v -78.044688608801152 511.45758316069998 -64.28490892660011
v 77.635694337000132 511.45758316069998 -64.28490892660011
v -78.044688608801152 511.45758316069998 -62.44425063790186
v -78.044688608801152 511.45758316069998 -62.44425063790186
v -78.044688608801152 511.45758316069998 -64.28490892660011
v -78.044688608801152 711.721204973 -64.28490892660011
v -78.044688608801152 711.721204973 -64.28490892660011
v -77.984805859100561 511.51484808519996 -64.429543764699702
v -78.044688608801152 511.45758316069998 -64.28490892660011
v -77.984805859100561 711.66394004899996 -64.429543764699702
v 77.635694337000132 511.45758316069998 -64.28490892660011
v -77.984805859100561 511.51484808519996 -64.429543764699702
v 77.57597520140007 511.51484808519996 -64.429543764699702
v -78.044688608801152 511.45758316069998 -64.28490892660011
v -82.216070229700563 507.28542437290002 -62.44425063790186
v -82.216070229700563 715.89336376199992 -62.44425063790186
v -0.20451758765011618 611.58939406744992 -62.44425063790186
v 81.807035054399421 507.28542437290002 -62.44425063790186
v 81.807035054399421 715.89336376199992 -62.44425063790186
v -77.984805859100561 511.51484808519996 -64.429543764699702
v -77.984805859100561 711.66394004899996 -64.429543764699702
v -0.20441532884979097 611.58939406709999 -64.429543764699702
v 77.57597520140007 511.51484808519996 -64.429543764699702
v 77.57597520140007 711.66394004899996 -64.429543764699702
v -82.216070229700563 715.89336376199992 -61.912504910102143
v -82.216070229700563 507.28542437290002 -62.44425063790186
v -82.216070229700563 507.28542437290002 -61.912504910102143
v -82.216070229700563 715.89336376199992 -62.44425063790186
v -82.216070229700563 715.89336376199992 -61.912504910102143
v 81.807035054399421 715.89336376199992 -62.44425063790186
v -82.216070229700563 715.89336376199992 -62.44425063790186
v 81.807035054399421 715.89336376199992 -61.912504910102143
v -82.216070229700563 715.89336376199992 -61.912504910102143
v 81.807035054399421 507.28542437290002 -61.912504910102143
v 81.807035054399421 715.89336376199992 -61.912504910102143
v -82.216070229700563 507.28542437290002 -61.912504910102143
v -82.216070229700563 507.28542437290002 -62.44425063790186
v -82.216070229700563 507.28542437290002 -61.912504910102143
v 81.807035054399421 507.28542437290002 -62.44425063790186
v 81.807035054399421 715.89336376199992 -62.44425063790186
v 81.807035054399421 507.28542437290002 -62.44425063790186
v -82.216070229700563 507.28542437290002 -62.44425063790186
v -82.216070229700563 715.89336376199992 -62.44425063790186
v -0.20451758765011618 611.58939406744992 -62.44425063790186
v 81.807035054399421 507.28542437290002 -62.44425063790186
v 81.807035054399421 715.89336376199992 -62.44425063790186
vt 0.021396100521087646 0.19953599572181702
vt 0.78131097555160522 0.19970199465751648
vt 0.020688999444246292 0.19970199465751648
vt 0.78060400485992432 0.19953599572181702
vt 0.1310109943151474 0.72652000188827515
vt 0.86040902137756348 0.51810997724533081
vt 0.86040902137756348 0.72652000188827515
vt 0.1310109943151474 0.51810997724533081
vt 0.023823900148272514 0.21726399660110474
vt 0.02458919957280159 0.0046518100425601006
vt 0.02458919957280159 0.21710999310016632
vt 0.023823900148272514 0.0044980798847973347
vt 0.71636199951171875 0.21710999310016632
vt 0.71712797880172729 0.0044980798847973347
vt 0.71712797880172729 0.21726399660110474
vt 0.71636199951171875 0.0046518100425601006
vt 0.021396100521087646 0.0053460397757589817
vt 0.78131097555160522 0.0051796399056911469
vt 0.78060400485992432 0.0053460397757589817
vt 0.020688999444246292 0.0051796399056911469
vt 0 1
vt 0 0
vt 0.5 0.5
vt 1 1
vt 1 0
vt 13.736300468444824 10.421199798583984
vt 13.609700202941895 10.395700454711914
vt 18.587499618530273 10.395700454711914
vt 13.609700202941895 11.670700073242188
vt 13.736300468444824 11.645199775695801
vt 18.587499618530273 11.670700073242188
vt 18.460899353027344 11.645199775695801
vt 0.071998201310634613 0.025495100766420364
vt 0.016137499362230301 0.9770050048828125
vt 0.016137499362230301 0.025495100766420364
vt 0.071998201310634613 0.9770050048828125
vt 0.40208700299263 1.4523099660873413
vt 15.190299987792969 1.4553099870681763
vt 0.3963949978351593 1.4553099870681763
vt 15.184700012207031 1.4523099660873413
vt 0.35997700691223145 3.9125099182128906
vt 0.37485200166702271 0.080977901816368103
vt 0.37485200166702271 3.9113600254058838
vt 0.35997700691223145 0.079831503331661224
vt 0.071998201310634613 0.025495100766420364
vt 0.016137499362230301 -1.1985100507736206
vt 0.071998201310634613 -1.1985100507736206
vt 0.016137499362230301 0.025495100766420364
vt 13.736300468444824 10.421199798583984
vt 18.460899353027344 10.432499885559082
vt 13.736300468444824 10.432499885559082
vt 18.460899353027344 10.421199798583984
vt 18.460899353027344 10.421199798583984
vt 18.405099868774414 10.421199798583984
vt 18.405099868774414 11.645199775695801
vt 5.6048102378845215 3.9125099182128906
vt 5.5899300575256348 0.080977901816368103
vt 5.6048102378845215 0.079831503331661224
vt 5.5899300575256348 3.9113600254058838
vt 0.3963949978351593 0.07249719649553299
vt 15.184700012207031 0.075492903590202332
vt 0.40208700299263 0.075492903590202332
vt 15.190299987792969 0.07249719649553299
vt 0 1
vt 0 0
vt 0.5 0.5
vt 1 1
vt 1 0
vt 0 0
vt 0 1
vt 0.5 0.5
vt 1 0
vt 1 1
vt 0 20.078699111938477
vt -0.051181100308895111 0
vt 0 0
vt -0.051181100308895111 20.078699111938477
vt 0 15.787400245666504
vt 0.051181100308895111 0
vt 0.051181100308895111 15.787400245666504
vt 0 0
vt -15.787400245666504 20.078699111938477
vt 0 0
vt 0 20.078699111938477
vt -15.787400245666504 0
vt -0.051181100308895111 15.787400245666504
vt 0 15.787400245666504
vt -0.051181100308895111 0
vt 0.051181100308895111 20.078699111938477
vt 0.051181100308895111 0
vt 0 0
vt 1 0
vt 0.5 0.5
vt 0 1
vt 1 1
vn 0 -0.37670835852622986 0.92633193731307983
vn 0 -0.37670835852622986 0.92633193731307983
vn 0 -0.37670835852622986 0.92633193731307983
vn 0 -0.37670835852622986 0.92633193731307983
vn 0 0 1
vn 0 0 1
vn 0 0 1
vn 0 0 1
vn -0.38216733932495117 0 0.92409312725067139
vn -0.38216733932495117 0 0.92409312725067139
vn -0.38216733932495117 0 0.92409312725067139
vn -0.38216733932495117 0 0.92409312725067139
vn 0.38253644108772278 0 0.92394042015075684
vn 0.38253644108772278 0 0.92394042015075684
vn 0.38253644108772278 0 0.92394042015075684
vn 0.38253644108772278 0 0.92394042015075684
vn 0 0.37670835852622986 0.92633193731307983
vn 0 0.37670835852622986 0.92633193731307983
vn 0 0.37670835852622986 0.92633193731307983
vn 0 0.37670835852622986 0.92633193731307983
vn 0 0 -1
vn 0 0 -1
vn 0 0 -1
vn 0 0 -1
vn 0 0 -1
vn 0 0 1
vn 0 0 1
vn 0 0 1
vn 0 0 1
vn 0 0 1
vn 0 0 1
vn 0.55470019578933716 0 0.83205032348632812
vn 0 -1 0
vn 0 -1 0
vn 0 -1 0
vn 0 -1 0
vn 0 -0.92977660894393921 0.36812424659729004
vn 0 -0.92977660894393921 0.36812424659729004
vn 0 -0.92977660894393921 0.36812424659729004
vn 0 -0.92977660894393921 0.36812424659729004
vn -0.92430955171585083 0 0.38164365291595459
vn -0.92430955171585083 0 0.38164365291595459
vn -0.92430955171585083 0 0.38164365291595459
vn -0.92430955171585083 0 0.38164365291595459
vn -1 0 0
vn -1 0 0
vn -1 0 0
vn -1 0 0
vn 0 1 0
vn 0 1 0
vn 0 1 0
vn 0 1 0
vn 0.44721359014511108 0 0.89442718029022217
vn 1 0 0
vn 1 0 0
vn 0.92394042015075684 0 0.38253644108772278
vn 0.92394042015075684 0 0.38253644108772278
vn 0.92394042015075684 0 0.38253644108772278
vn 0.92394042015075684 0 0.38253644108772278
vn 0 0.92977660894393921 0.36812424659729004
vn 0 0.92977660894393921 0.36812424659729004
vn 0 0.92977660894393921 0.36812424659729004
vn 0 0.92977660894393921 0.36812424659729004
vn 0 0 -1
vn 0 0 -1
vn 0 0 -1
vn 0 0 -1
vn 0 0 -1
vn 0 0 -1
vn 0 0 -1
vn 0 0 -1
vn 0 0 -1
vn 0 0 -1
vn 1 0 0
vn 1 0 0
vn 1 0 0
vn 1 0 0
vn 0 -1 0
vn 0 -1 0
vn 0 -1 0
vn 0 -1 0
vn 0 0 -1
vn -0.57735025882720947 0.57735025882720947 -0.57735025882720947
vn -0.70710676908493042 0 -0.70710676908493042
vn 0 0 -1
vn 0 1 0
vn 0 1 0
vn 0 1 0
vn -1 0 0
vn -1 0 0
vn 0 0 -1
vn 0 0 -1
vn 0 0 -1
vn 0 0 -1
vn 0 0 -1
f 1/1/1 3/3/3 2/2/2
f 2/2/2 4/4/4 1/1/1
f 5/5/5 7/7/7 6/6/6
f 6/6/6 8/8/8 5/5/5
f 9/9/9 11/11/11 10/10/10
f 10/10/10 12/12/12 9/9/9
f 13/13/13 15/15/15 14/14/14
f 14/14/14 16/16/16 13/13/13
f 17/17/17 19/19/19 18/18/18
f 18/18/18 20/20/20 17/17/17
f 23/23/23 21/21/21 22/22/22
f 24/24/24 23/23/23 25/25/25
f 22/22/22 25/25/25 23/23/23
f 21/21/21 23/23/23 24/24/24
f 26/26/26 28/28/28 27/27/27
f 27/27/27 29/29/29 26/26/26
f 30/30/30 26/26/26 29/29/29
f 29/29/29 31/31/31 30/30/30
f 31/31/31 32/32/32 30/30/30
f 33/33/33 35/35/35 34/34/34
f 34/34/34 36/36/36 33/33/33
f 37/37/37 39/39/39 38/38/38
f 38/38/38 40/40/40 37/37/37
f 41/41/41 43/43/43 42/42/42
f 42/42/42 44/44/44 41/41/41
f 45/45/45 47/47/47 46/46/46
f 46/46/46 48/48/48 45/45/45
f 49/49/49 51/51/51 50/50/50
f 50/50/50 52/52/52 49/49/49
f 26/26/26 53/53/53 28/28/28
f 53/53/53 32/32/32 28/28/28
f 31/31/31 28/28/28 32/32/32
f 32/32/32 53/53/53 54/54/54
f 54/54/54 55/55/55 32/32/32
f 56/56/56 58/58/58 57/57/57
f 57/57/57 59/59/59 56/56/56
f 60/60/60 62/62/62 61/61/61
f 61/61/61 63/63/63 60/60/60
f 66/66/66 64/64/64 65/65/65
f 67/67/67 66/66/66 68/68/68
f 65/65/65 68/68/68 66/66/66
f 64/64/64 66/66/66 67/67/67
f 71/71/71 69/69/69 70/70/70
f 73/73/73 72/72/72 71/71/71
f 69/69/69 71/71/71 72/72/72
f 70/70/70 73/73/73 71/71/71
f 74/74/74 76/76/76 75/75/75
f 75/75/75 77/77/77 74/74/74
f 78/78/78 80/80/80 79/79/79
f 79/79/79 81/81/81 78/78/78
f 82/82/82 84/84/84 83/83/83
f 83/83/83 85/85/85 82/82/82
f 86/86/86 87/87/87 83/83/83
f 83/83/83 88/88/88 86/86/86
f 89/89/89 90/90/90 83/83/83
f 83/83/83 84/84/84 89/89/89
f 93/93/93 94/94/94 91/91/91
f 95/95/95 93/93/93 92/92/92
f 91/91/91 92/92/92 93/93/93
f 94/94/94 93/93/93 95/95/95
