# Rhino

mtllib Cabinet_14_09.mtl
usemtl Default
v -152.7115755650002 13.371635877000021 74.932216693699957
v 153.57781208699998 13.371635877000021 74.932216693699957
v -152.7115755650002 13.371635877000021 69.209857865290587
v 153.57781208699998 13.371635877000021 69.209857865290587
v -152.7115755650002 923.81911556400019 69.209857865290587
v 153.57781208699998 923.81911556400019 69.209857865290587
v -152.7115755650002 923.81911556400019 74.932216693699957
v 153.57781208699998 923.81911556400019 74.932216693699957
v -152.7115755650002 13.371635877000021 69.209857865290587
v 153.57781208699998 13.371635877000021 69.209857865290587
v -152.7115755650002 923.81911556400019 69.209857865290587
v 153.57781208699998 923.81911556400019 69.209857865290587
v 153.57781208699998 13.371635877000021 69.209857865290587
v 153.57781208699998 13.371635877000021 74.932216693699957
v 153.57781208699998 923.81911556400019 69.209857865290587
v 153.57781208699998 923.81911556400019 74.932216693699957
v 153.57781208699998 13.371635877000021 74.932216693699957
v -152.7115755650002 13.371635877000021 74.932216693699957
v 153.57781208699998 923.81911556400019 74.932216693699957
v -152.7115755650002 923.81911556400019 74.932216693699957
v -152.7115755650002 13.371635877000021 74.932216693699957
v -152.7115755650002 13.371635877000021 69.209857865290587
v -152.7115755650002 923.81911556400019 74.932216693699957
v -152.7115755650002 923.81911556400019 69.209857865290587
vt 0 0
vt 1 0
vt 0 1
vt 1 1
vt 0 0
vt 1 0
vt 0 1
vt 1 1
vt 0 0
vt 1 0
vt 0 1
vt 1 1
vt 0 0
vt 1 0
vt 0 1
vt 1 1
vt 0 0
vt 1 0
vt 0 1
vt 1 1
vt 0 0
vt 1 0
vt 0 1
vt 1 1
vn 0 -1 0
vn 0 -1 0
vn 0 -1 0
vn 0 -1 0
vn 0 1 0
vn 0 1 0
vn 0 1 0
vn 0 1 0
vn 0 0 -1
vn 0 0 -1
vn 0 0 -1
vn 0 0 -1
vn 1 0 0
vn 1 0 0
vn 1 0 0
vn 1 0 0
vn 0 0 1
vn 0 0 1
vn 0 0 1
vn 0 0 1
vn -1 0 0
vn -1 0 0
vn -1 0 0
vn -1 0 0
f 1/1/1 3/3/3 4/4/4 2/2/2
f 5/5/5 7/7/7 8/8/8 6/6/6
f 9/9/9 11/11/11 12/12/12 10/10/10
f 13/13/13 15/15/15 16/16/16 14/14/14
f 17/17/17 19/19/19 20/20/20 18/18/18
f 21/21/21 23/23/23 24/24/24 22/22/22
