# Rhino

mtllib Cabinet_06_07.mtl
usemtl Default
v -102.2587938179995 965.15939957300009 81.086110557998836
v -102.2587938179995 0.16361407000003991 -61.748890840000968
v -102.2587938179995 0.16361407000003991 81.086110557998836
v -102.2587938179995 965.15939957300009 -61.748890840000968
v -102.09517974799928 965.32301364299997 81.086110557998836
v -102.2587938179995 965.15939957300009 -61.748890840000968
v -102.2587938179995 965.15939957300009 81.086110557998836
v -102.09517974799928 965.32301364299997 -61.748890840000968
v -102.09517974799928 965.32301364299997 81.086110557998836
v -94.241704382700846 965.32301364299997 -61.748890840000968
v -102.09517974799928 965.32301364299997 -61.748890840000968
v -94.241704382700846 965.32301364299997 81.086110557998836
v -102.09517974799928 965.32301364299997 81.086110557998836
v -94.241704382700846 965.15939957300009 81.249724628100012
v -94.241704382700846 965.32301364299997 81.086110557998836
v -102.09517974799928 965.15939957300009 81.249724628100012
v -102.09517974799928 965.15939957300009 81.249724628100012
v -102.09517974799928 965.32301364299997 81.086110557998836
v -102.2587938179995 965.15939957300009 81.086110557998836
v -102.2587938179995 965.15939957300009 81.086110557998836
v -102.09517974799928 0.16361407000003991 81.249724628100012
v -102.09517974799928 965.15939957300009 81.249724628100012
v -102.2587938179995 0.16361407000003991 81.086110557998836
v -102.09517974799928 0.16361407000003991 81.249724628100012
v -102.2587938179995 0.16361407000003991 81.086110557998836
v -102.09517974799928 0 81.086110557998836
v -102.2587938179995 0.16361407000003991 81.086110557998836
v -102.09517974799928 0 -61.748890840000968
v -102.09517974799928 0 81.086110557998836
v -102.2587938179995 0.16361407000003991 -61.748890840000968
v -102.09517974799928 0 -61.748890840000968
v -102.2587938179995 0.16361407000003991 -61.748890840000968
v -102.09517974799928 0.16361407000003991 -61.912504910102143
v -102.2587938179995 0.16361407000003991 -61.748890840000968
v -102.09517974799928 965.15939957300009 -61.912504910102143
v -102.09517974799928 0.16361407000003991 -61.912504910102143
v -102.2587938179995 965.15939957300009 -61.748890840000968
v -102.09517974799928 965.15939957300009 -61.912504910102143
v -102.2587938179995 965.15939957300009 -61.748890840000968
v -102.09517974799928 965.32301364299997 -61.748890840000968
v -94.241704382700846 965.32301364299997 -61.748890840000968
v -102.09517974799928 965.15939957300009 -61.912504910102143
v -102.09517974799928 965.32301364299997 -61.748890840000968
v -94.241704382700846 965.15939957300009 -61.912504910102143
v -94.07809031259967 965.15939957300009 -61.748890840000968
v -94.241704382700846 965.15939957300009 -61.912504910102143
v -94.241704382700846 965.32301364299997 -61.748890840000968
v -94.07809031259967 965.15939957300009 -61.748890840000968
v -94.241704382700846 0.16361407000003991 -61.912504910102143
v -94.241704382700846 965.15939957300009 -61.912504910102143
v -94.07809031259967 0.16361407000003991 -61.748890840000968
v -94.07809031259967 965.15939957300009 -61.748890840000968
v -94.07809031259967 0.16361407000003991 81.086110557998836
v -94.07809031259967 0.16361407000003991 -61.748890840000968
v -94.07809031259967 965.15939957300009 81.086110557998836
v -94.241704382700846 965.32301364299997 -61.748890840000968
v -94.07809031259967 965.15939957300009 81.086110557998836
v -94.07809031259967 965.15939957300009 -61.748890840000968
v -94.241704382700846 965.32301364299997 81.086110557998836
v -94.241704382700846 965.32301364299997 81.086110557998836
v -94.241704382700846 965.15939957300009 81.249724628100012
v -94.07809031259967 965.15939957300009 81.086110557998836
v -94.241704382700846 965.15939957300009 81.249724628100012
v -94.07809031259967 0.16361407000003991 81.086110557998836
v -94.07809031259967 965.15939957300009 81.086110557998836
v -94.241704382700846 0.16361407000003991 81.249724628100012
v -102.09517974799928 965.15939957300009 81.249724628100012
v -94.241704382700846 0.16361407000003991 81.249724628100012
v -94.241704382700846 965.15939957300009 81.249724628100012
v -102.09517974799928 0.16361407000003991 81.249724628100012
v -102.09517974799928 0.16361407000003991 81.249724628100012
v -94.241704382700846 0 81.086110557998836
v -94.241704382700846 0.16361407000003991 81.249724628100012
v -102.09517974799928 0 81.086110557998836
v -102.09517974799928 0 -61.748890840000968
v -94.241704382700846 0 81.086110557998836
v -102.09517974799928 0 81.086110557998836
v -94.241704382700846 0 -61.748890840000968
v -102.09517974799928 0 -61.748890840000968
v -94.241704382700846 0.16361407000003991 -61.912504910102143
v -94.241704382700846 0 -61.748890840000968
v -102.09517974799928 0.16361407000003991 -61.912504910102143
v -102.09517974799928 0.16361407000003991 -61.912504910102143
v -94.241704382700846 965.15939957300009 -61.912504910102143
v -94.241704382700846 0.16361407000003991 -61.912504910102143
v -102.09517974799928 965.15939957300009 -61.912504910102143
v -94.07809031259967 0.16361407000003991 -61.748890840000968
v -94.241704382700846 0 -61.748890840000968
v -94.241704382700846 0.16361407000003991 -61.912504910102143
v -94.07809031259967 0.16361407000003991 -61.748890840000968
v -94.241704382700846 0 81.086110557998836
v -94.241704382700846 0 -61.748890840000968
v -94.07809031259967 0.16361407000003991 81.086110557998836
v -94.07809031259967 0.16361407000003991 81.086110557998836
v -94.241704382700846 0.16361407000003991 81.249724628100012
v -94.241704382700846 0 81.086110557998836
vt 13.763799667358398 92.897598266601562
vt 0.015747999772429466 0.015747999772429466
vt 13.763799667358398 0.015747999772429466
vt 0.015747999772429466 92.897598266601562
vt 13.763799667358398 65.710800170898438
vt 0.015747999772429466 65.688499450683594
vt 13.763799667358398 65.688499450683594
vt 0.015747999772429466 65.710800170898438
vt 13.763799667358398 0.015747999772429466
vt 0.015747999772429466 0.77165400981903076
vt 0.015747999772429466 0.015747999772429466
vt 13.763799667358398 0.77165400981903076
vt 0.015747999772429466 55.967201232910156
vt 0.77165400981903076 55.944999694824219
vt 0.77165400981903076 55.967201232910156
vt 0.015747999772429466 55.944999694824219
vt 9.754730224609375 70.231597900390625
vt 9.7435998916625977 70.250900268554688
vt 9.7324600219726562 70.231597900390625
vt 9.7324600219726562 92.897598266601562
vt 9.754730224609375 0.015747999772429466
vt 9.754730224609375 92.897598266601562
vt 9.7324600219726562 0.015747999772429466
vt 9.754730224609375 5.6318998336791992
vt 9.7324600219726562 5.6318998336791992
vt 9.7435998916625977 5.61260986328125
vt 13.763799667358398 0.01113549992442131
vt 0.015747999772429466 -0.01113549992442131
vt 13.763799667358398 -0.01113549992442131
vt 0.015747999772429466 0.01113549992442131
vt 0 -0.012858199886977673
vt 0.01113549992442131 0.0064291101880371571
vt -0.01113549992442131 0.0064291101880371571
vt 0.01113549992442131 0.015747999772429466
vt -0.01113549992442131 92.897598266601562
vt -0.01113549992442131 0.015747999772429466
vt 0.01113549992442131 92.897598266601562
vt -0.01113549992442131 75.857002258300781
vt 0.01113549992442131 75.857002258300781
vt 0 75.876296997070312
vt -0.77165400981903076 65.710800170898438
vt -0.015747999772429466 65.688499450683594
vt -0.015747999772429466 65.710800170898438
vt -0.77165400981903076 65.688499450683594
vt -0.5679129958152771 75.535598754882812
vt -0.54564100503921509 75.535598754882812
vt -0.55677700042724609 75.554901123046875
vt -0.5679129958152771 92.897598266601562
vt -0.54564100503921509 0.015747999772429466
vt -0.54564100503921509 92.897598266601562
vt -0.5679129958152771 0.015747999772429466
vt -0.015747999772429466 92.897598266601562
vt -13.763799667358398 0.015747999772429466
vt -0.015747999772429466 0.015747999772429466
vt -13.763799667358398 92.897598266601562
vt -0.015747999772429466 65.153999328613281
vt -13.763799667358398 65.131797790527344
vt -0.015747999772429466 65.131797790527344
vt -13.763799667358398 65.153999328613281
vt -9.1868200302124023 69.929397583007812
vt -9.1979598999023438 69.910102844238281
vt -9.1756801605224609 69.910102844238281
vt -9.1979598999023438 92.897598266601562
vt -9.1756801605224609 0.015747999772429466
vt -9.1756801605224609 92.897598266601562
vt -9.1979598999023438 0.015747999772429466
vt 0.015747999772429466 92.897598266601562
vt 0.77165400981903076 0.015747999772429466
vt 0.77165400981903076 92.897598266601562
vt 0.015747999772429466 0.015747999772429466
vt 0.015747999772429466 9.754730224609375
vt 0.77165400981903076 9.7324600219726562
vt 0.77165400981903076 9.754730224609375
vt 0.015747999772429466 9.7324600219726562
vt -0.015747999772429466 0.015747999772429466
vt -13.763799667358398 0.77165400981903076
vt -13.763799667358398 0.015747999772429466
vt -0.015747999772429466 0.77165400981903076
vt -0.015747999772429466 -0.01113549992442131
vt -0.77165400981903076 0.01113549992442131
vt -0.77165400981903076 -0.01113549992442131
vt -0.015747999772429466 0.01113549992442131
vt -0.015747999772429466 0.015747999772429466
vt -0.77165400981903076 92.897598266601562
vt -0.77165400981903076 0.015747999772429466
vt -0.015747999772429466 92.897598266601562
vt -0.5679129958152771 0.32788398861885071
vt -0.55677700042724609 0.30859699845314026
vt -0.54564100503921509 0.32788398861885071
vt -0.015747999772429466 0.5679129958152771
vt -13.763799667358398 0.54564100503921509
vt -0.015747999772429466 0.54564100503921509
vt -13.763799667358398 0.5679129958152771
vt -9.1756801605224609 5.9533500671386719
vt -9.1979598999023438 5.9533500671386719
vt -9.1868200302124023 5.9340701103210449
vn -1 0 0
vn -1 0 0
vn -1 0 0
vn -1 0 0
vn -0.70710676908493042 0.70710676908493042 0
vn -0.70710676908493042 0.70710676908493042 0
vn -0.70710676908493042 0.70710676908493042 0
vn -0.70710676908493042 0.70710676908493042 0
vn 0 1 0
vn 0 1 0
vn 0 1 0
vn 0 1 0
vn 0 0.70710676908493042 0.70710676908493042
vn 0 0.70710676908493042 0.70710676908493042
vn 0 0.70710676908493042 0.70710676908493042
vn 0 0.70710676908493042 0.70710676908493042
vn -0.57735025882720947 0.57735025882720947 0.57735025882720947
vn -0.57735025882720947 0.57735025882720947 0.57735025882720947
vn -0.57735025882720947 0.57735025882720947 0.57735025882720947
vn -0.70710676908493042 0 0.70710676908493042
vn -0.70710676908493042 0 0.70710676908493042
vn -0.70710676908493042 0 0.70710676908493042
vn -0.70710676908493042 0 0.70710676908493042
vn -0.57735025882720947 -0.57735025882720947 0.57735025882720947
vn -0.57735025882720947 -0.57735025882720947 0.57735025882720947
vn -0.57735025882720947 -0.57735025882720947 0.57735025882720947
vn -0.70710676908493042 -0.70710676908493042 0
vn -0.70710676908493042 -0.70710676908493042 0
vn -0.70710676908493042 -0.70710676908493042 0
vn -0.70710676908493042 -0.70710676908493042 0
vn -0.57735025882720947 -0.57735025882720947 -0.57735025882720947
vn -0.57735025882720947 -0.57735025882720947 -0.57735025882720947
vn -0.57735025882720947 -0.57735025882720947 -0.57735025882720947
vn -0.70710676908493042 0 -0.70710676908493042
vn -0.70710676908493042 0 -0.70710676908493042
vn -0.70710676908493042 0 -0.70710676908493042
vn -0.70710676908493042 0 -0.70710676908493042
vn -0.57735025882720947 0.57735025882720947 -0.57735025882720947
vn -0.57735025882720947 0.57735025882720947 -0.57735025882720947
vn -0.57735025882720947 0.57735025882720947 -0.57735025882720947
vn 0 0.70710676908493042 -0.70710676908493042
vn 0 0.70710676908493042 -0.70710676908493042
vn 0 0.70710676908493042 -0.70710676908493042
vn 0 0.70710676908493042 -0.70710676908493042
vn 0.57735025882720947 0.57735025882720947 -0.57735025882720947
vn 0.57735025882720947 0.57735025882720947 -0.57735025882720947
vn 0.57735025882720947 0.57735025882720947 -0.57735025882720947
vn 0.70710676908493042 0 -0.70710676908493042
vn 0.70710676908493042 0 -0.70710676908493042
vn 0.70710676908493042 0 -0.70710676908493042
vn 0.70710676908493042 0 -0.70710676908493042
vn 1 0 0
vn 1 0 0
vn 1 0 0
vn 1 0 0
vn 0.70710676908493042 0.70710676908493042 0
vn 0.70710676908493042 0.70710676908493042 0
vn 0.70710676908493042 0.70710676908493042 0
vn 0.70710676908493042 0.70710676908493042 0
vn 0.57735025882720947 0.57735025882720947 0.57735025882720947
vn 0.57735025882720947 0.57735025882720947 0.57735025882720947
vn 0.57735025882720947 0.57735025882720947 0.57735025882720947
vn 0.70710676908493042 0 0.70710676908493042
vn 0.70710676908493042 0 0.70710676908493042
vn 0.70710676908493042 0 0.70710676908493042
vn 0.70710676908493042 0 0.70710676908493042
vn 0 0 1
vn 0 0 1
vn 0 0 1
vn 0 0 1
vn 0 -0.70710676908493042 0.70710676908493042
vn 0 -0.70710676908493042 0.70710676908493042
vn 0 -0.70710676908493042 0.70710676908493042
vn 0 -0.70710676908493042 0.70710676908493042
vn 0 -1 0
vn 0 -1 0
vn 0 -1 0
vn 0 -1 0
vn 0 -0.70710676908493042 -0.70710676908493042
vn 0 -0.70710676908493042 -0.70710676908493042
vn 0 -0.70710676908493042 -0.70710676908493042
vn 0 -0.70710676908493042 -0.70710676908493042
vn 0 0 -1
vn 0 0 -1
vn 0 0 -1
vn 0 0 -1
vn 0.57735025882720947 -0.57735025882720947 -0.57735025882720947
vn 0.57735025882720947 -0.57735025882720947 -0.57735025882720947
vn 0.57735025882720947 -0.57735025882720947 -0.57735025882720947
vn 0.70710676908493042 -0.70710676908493042 0
vn 0.70710676908493042 -0.70710676908493042 0
vn 0.70710676908493042 -0.70710676908493042 0
vn 0.70710676908493042 -0.70710676908493042 0
vn 0.57735025882720947 -0.57735025882720947 0.57735025882720947
vn 0.57735025882720947 -0.57735025882720947 0.57735025882720947
vn 0.57735025882720947 -0.57735025882720947 0.57735025882720947
f 1/1/1 2/2/2 3/3/3
f 2/2/2 1/1/1 4/4/4
f 5/5/5 6/6/6 7/7/7
f 6/6/6 5/5/5 8/8/8
f 9/9/9 10/10/10 11/11/11
f 10/10/10 9/9/9 12/12/12
f 13/13/13 14/14/14 15/15/15
f 14/14/14 13/13/13 16/16/16
f 17/17/17 18/18/18 19/19/19
f 20/20/20 21/21/21 22/22/22
f 21/21/21 20/20/20 23/23/23
f 24/24/24 25/25/25 26/26/26
f 27/27/27 28/28/28 29/29/29
f 28/28/28 27/27/27 30/30/30
f 31/31/31 32/32/32 33/33/33
f 34/34/34 35/35/35 36/36/36
f 35/35/35 34/34/34 37/37/37
f 38/38/38 39/39/39 40/40/40
f 41/41/41 42/42/42 43/43/43
f 42/42/42 41/41/41 44/44/44
f 45/45/45 46/46/46 47/47/47
f 48/48/48 49/49/49 50/50/50
f 49/49/49 48/48/48 51/51/51
f 52/52/52 53/53/53 54/54/54
f 53/53/53 52/52/52 55/55/55
f 56/56/56 57/57/57 58/58/58
f 57/57/57 56/56/56 59/59/59
f 60/60/60 61/61/61 62/62/62
f 63/63/63 64/64/64 65/65/65
f 64/64/64 63/63/63 66/66/66
f 67/67/67 68/68/68 69/69/69
f 68/68/68 67/67/67 70/70/70
f 71/71/71 72/72/72 73/73/73
f 72/72/72 71/71/71 74/74/74
f 75/75/75 76/76/76 77/77/77
f 76/76/76 75/75/75 78/78/78
f 79/79/79 80/80/80 81/81/81
f 80/80/80 79/79/79 82/82/82
f 83/83/83 84/84/84 85/85/85
f 84/84/84 83/83/83 86/86/86
f 87/87/87 88/88/88 89/89/89
f 90/90/90 91/91/91 92/92/92
f 91/91/91 90/90/90 93/93/93
f 94/94/94 95/95/95 96/96/96
