# Rhino

mtllib Cabinet_15_15.mtl
usemtl Default
v -284.19811970400042 765.19714973500015 94.313535300399963
v -295.98731161700016 765.19714973500015 113.96218848799981
v -284.19811970400042 765.19714973500015 -82.524343387300178
v -284.19811970400042 765.19714973500015 113.96218848799981
v -284.19811970400042 765.19714973500015 -102.17299657500007
v -295.98731161700016 765.19715785980225 113.96195286873626
v -295.98731161700016 765.19715785980225 113.96195286873626
vt -5.4681501388549805 0.88333302736282349
vt -5.5792598724365234 0.96666699647903442
vt -5.4681501388549805 0.1333329975605011
vt -5.4681501388549805 0.96666699647903442
vt -5.4681501388549805 0.05000000074505806
vt -5.5792598724365234 0.96666598320007324
vt -5.5792598724365234 0.96666598320007324
vn 0 -1 0
vn 0 -1 0
vn 0 -1 0
vn 0 -1 0
vn 0 -1 0
vn 0 -1 0
vn 0 -1 0
f 6/6/6 3/3/3 1/1/1
f 1/1/1 2/2/2 6/6/6
f 4/4/4 2/2/2 1/1/1
f 7/7/7 5/5/5 3/3/3
f 3/3/3 2/2/2 7/7/7
