# Rhino

mtllib chair_018_09.mtl
usemtl diffuse_127_255_0_255
v 202.46099999999998 300.267 -124.758
v 194.46100000000001 300.267 124.758
v 202.46099999999998 300.267 124.758
v 194.46100000000001 300.267 -124.758
v 193.58199999999999 299.274 -124.758
v 193.58199999999999 299.274 124.758
v 197.60199999999998 266.25900000000001 124.758
v 197.60199999999998 266.25900000000001 -124.758
v 198.72299999999998 265.267 -124.758
v 198.72299999999998 265.267 -124.758
v 198.72299999999998 265.267 124.758
v 198.72299999999998 265.267 124.758
v 206.72300000000001 265.267 124.758
v 206.72300000000001 265.267 -124.758
v 207.602 266.25900000000001 -124.758
v 207.602 266.25900000000001 124.758
v 203.58199999999999 299.274 -124.758
v 203.58199999999999 299.274 124.758
vt 1.1848100423812866 0.21591700613498688
vt 1.1403599977493286 -1.1653900146484375
vt 1.1848100423812866 -1.1653900146484375
vt 1.1403599977493286 0.21591700613498688
vt 1.1330000162124634 0.21591700613498688
vt 1.1330000162124634 -1.1653900146484375
vt 0.94885098934173584 -1.1653900146484375
vt 0.94885098934173584 0.21591700613498688
vt 1.4287799596786499 0.21591700613498688
vt 0.94082897901535034 0.21591700613498688
vt 1.4287799596786499 -1.1653900146484375
vt 0.94082897901535034 -1.1653900146484375
vt 1.3843300342559814 -1.1653900146484375
vt 1.3843300342559814 0.21591700613498688
vt 1.3769799470901489 0.21591700613498688
vt 1.3769799470901489 -1.1653900146484375
vt 1.192829966545105 0.21591700613498688
vt 1.192829966545105 -1.1653900146484375
vn 0.35454881191253662 0.93503749370574951 -1.9386389737974241E-07
vn -0.41050508618354797 0.91185832023620605 -1.7881004055197991E-07
vn 0.35452604293823242 0.93504613637924194 -4.0872201623187721E-08
vn -0.41052678227424622 0.91184854507446289 -3.9858178979557124E-08
vn -0.95480096340179443 0.29724591970443726 -1.0887899293265946E-07
vn -0.95479381084442139 0.29726892709732056 -2.4023194100664114E-07
vn -0.88534426689147949 -0.46493607759475708 1.694220088666043E-07
vn -0.88533633947372437 -0.46495115756988525 2.6911610007118725E-07
vn 0 -1 4.3711395392165286E-08
vn -0.66301500797271729 -0.74860608577728271 2.3301501528294466E-07
vn 0 -1 4.3711395392165286E-08
vn -0.66303998231887817 -0.74858397245407104 3.2721601428420399E-08
vn 0.41049408912658691 -0.91186326742172241 1.3711802182569954E-07
vn 0.41047903895378113 -0.91187006235122681 3.9859095579686254E-08
vn 0.90011614561080933 -0.4356500506401062 1.239040017253501E-07
vn 0.9883386492729187 -0.15227194130420685 7.8115270696343941E-08
vn 0.93665999174118042 0.35023996233940125 -2.7323599738338089E-07
vn 0.82007217407226562 0.57226014137268066 -2.6006807729572756E-07
f 1/1/1 2/2/2 3/3/3
f 1/1/1 4/4/4 2/2/2
f 5/5/5 2/2/2 4/4/4
f 5/5/5 6/6/6 2/2/2
f 7/7/7 6/6/6 5/5/5
f 7/7/7 5/5/5 8/8/8
f 7/7/7 8/8/8 10/10/10
f 7/7/7 10/10/10 12/12/12
f 13/13/13 11/11/11 9/9/9
f 13/13/13 9/9/9 14/14/14
f 15/15/15 13/13/13 14/14/14
f 15/15/15 16/16/16 13/13/13
f 17/17/17 16/16/16 15/15/15
f 17/17/17 18/18/18 16/16/16
f 18/18/18 17/17/17 1/1/1
f 18/18/18 1/1/1 3/3/3
