# Rhino

mtllib chair_018_05.mtl
usemtl diffuse_127_255_0_255
v 178.828 298.85300000000001 145.82300000000001
v 178.828 298.85300000000001 145.82300000000001
v 197.50200000000001 301.45299999999997 134.93700000000001
v 175.93899999999996 298.45099999999996 134.93700000000001
v 175.93899999999996 298.45099999999996 134.93700000000001
v 175.93899999999996 298.45099999999996 134.93700000000001
v 186.72 299.952 153.792
v 186.72 299.952 153.792
v 197.50200000000001 301.45299999999997 156.709
v 197.50200000000001 301.45299999999997 156.709
v 208.28400000000002 302.95499999999998 153.792
v 208.28400000000002 302.95499999999998 153.792
v 216.17699999999999 304.05399999999997 145.82300000000001
v 216.17699999999999 304.05399999999997 145.82300000000001
v 219.06499999999997 304.45600000000002 134.93700000000001
v 219.06499999999997 304.45600000000002 134.93700000000001
v 216.17699999999999 304.05399999999997 124.05100000000002
v 216.17699999999999 304.05399999999997 124.05100000000002
v 208.28400000000002 302.95499999999998 116.083
v 208.28400000000002 302.95499999999998 116.083
v 197.50200000000001 301.45299999999997 113.166
v 197.50200000000001 301.45299999999997 113.166
v 186.72 299.952 116.083
v 186.72 299.952 116.083
v 178.828 298.85300000000001 124.05200000000001
v 178.828 298.85300000000001 124.05200000000001
v 228.155 9.7160200000000003 152.85500000000002
v 232.28899999999999 9.7160200000000003 148.834
v 237.911 9.7160200000000003 147.43199999999999
v 243.505 9.7160200000000003 149.006
v 247.58200000000002 9.7160200000000003 153.11799999999999
v 249.071 9.7160200000000003 158.66499999999999
v 247.58200000000002 9.7160200000000003 164.18000000000001
v 243.505 9.7160200000000003 168.20099999999999
v 237.911 9.7160200000000003 169.65199999999999
v 232.28899999999999 9.7160200000000003 168.126
v 228.155 9.7160200000000003 164.01299999999998
v 226.63800000000003 9.7160200000000003 158.417
v 226.63800000000003 9.7160200000000003 158.417
v 228.61599999999999 7.0102200000000003 153.124
v 228.61599999999999 7.0102200000000003 153.124
v 227.113 7.0110200000000003 158.637
v 227.113 7.0110200000000003 158.637
v 227.113 7.0110200000000003 158.637
v 229.64699999999999 6.0292199999999996 153.727
v 232.71299999999999 7.0110200000000003 149.13900000000001
v 232.71299999999999 7.0110200000000003 149.13900000000001
v 238.28499999999997 7.0131200000000007 147.749
v 238.28499999999997 7.0131200000000007 147.749
v 243.82900000000001 7.0158199999999997 149.30900000000003
v 243.82900000000001 7.0158199999999997 149.30900000000003
v 247.87 7.0187199999999992 153.38400000000001
v 247.87 7.0187199999999992 153.38400000000001
v 249.345 7.0207200000000007 158.88200000000001
v 249.345 7.0207200000000007 158.88200000000001
v 247.87 7.0216199999999995 164.34799999999998
v 247.87 7.0216199999999995 164.34799999999998
v 243.82900000000001 7.0207200000000007 168.33399999999997
v 243.82900000000001 7.0207200000000007 168.33399999999997
v 243.44400000000002 6.0291199999999998 167.51900000000001
v 238.41800000000001 6.0291199999999998 168.81599999999997
v 238.28499999999997 7.0187199999999992 169.77199999999999
v 238.28499999999997 7.0187199999999992 169.77199999999999
v 232.71299999999999 7.0158199999999997 168.25900000000001
v 232.71299999999999 7.0158199999999997 168.25900000000001
v 233.37099999999998 6.0291199999999998 167.44399999999999
v 229.65499999999997 6.0292199999999996 163.75500000000002
v 228.61599999999999 7.0129199999999994 164.18399999999997
v 228.61599999999999 7.0129199999999994 164.18399999999997
v 228.28500000000003 6.0291199999999998 158.72800000000001
v 238.38300000000001 6.0291199999999998 158.83999999999997
v 233.36600000000001 6.0292199999999996 150.11699999999999
v 238.41800000000001 6.0292199999999996 148.86500000000001
v 243.43900000000002 6.0291199999999998 150.28100000000001
v 247.10300000000001 6.0292199999999996 153.96899999999999
v 248.446 6.0291199999999998 158.95099999999999
v 247.11099999999999 6.0292199999999996 163.90700000000004
vt -0.54442101716995239 -1.1653900146484375
vt 1.4772399663925171 0.47861000895500183
vt -0.54442101716995239 -1.0447399616241455
vt -0.60457998514175415 -1.1490199565887451
vt 2.1607100963592529 0.47359699010848999
vt 1.4147499799728394 0.47760799527168274
vt -0.48426300287246704 -1.1490199565887451
vt 1.5394099950790405 0.47994700074195862
vt -0.44014599919319153 -1.1049000024795532
vt 1.6019099950790405 0.48262101411819458
vt -0.42377001047134399 -1.0447399616241455
vt 1.6640700101852417 0.48663100600242615
vt -0.44014599919319153 -0.98458200693130493
vt 1.7262300252914429 0.49164500832557678
vt -0.48426300287246704 -0.94046598672866821
vt 1.7884000539779663 0.49665799736976624
vt -0.54442101716995239 -0.92409002780914307
vt 1.8505599498748779 0.5006679892539978
vt -0.60457998514175415 -0.94046598672866821
vt 1.9130599498748779 0.50200498104095459
vt -0.64869701862335205 -0.98458200693130493
vt 1.9755599498748779 0.5
vt -0.6650729775428772 -1.0447399616241455
vt 2.0377199649810791 0.49431800842285156
vt -0.64869701862335205 -1.1049000024795532
vt 2.0992200374603271 0.48529401421546936
vt 1.9344500303268433 -1.1379899978637695
vt 1.9023699760437012 -1.1366499662399292
vt 1.8702800273895264 -1.1379899978637695
vt 1.8385299444198608 -1.1413300037384033
vt 1.8064500093460083 -1.1453399658203125
vt 1.7750300168991089 -1.1486799716949463
vt 1.7432800531387329 -1.1503499746322632
vt 1.7115299701690674 -1.1496800184249878
vt 1.6797800064086914 -1.1476800441741943
vt 1.6476900577545166 -1.1446700096130371
vt 1.6152800321578979 -1.1423300504684448
vt 1.5831899642944336 -1.1416599750518799
vt 1.9658700227737427 -1.1426700353622437
vt 1.9327800273895264 -1.1530300378799438
vt -0.40739300847053528 -1.1493500471115112
vt 1.9642000198364258 -1.1577099561691284
vt -0.42343598604202271 -1.1209399700164795
vt 1.5848599672317505 -1.157039999961853
vt -0.40137800574302673 -1.1433299779891968
vt -0.37898498773574829 -1.1653900146484375
vt 1.901360034942627 -1.1516900062561035
vt 1.8696099519729614 -1.1530300378799438
vt -0.34623199701309204 -1.1650600433349609
vt 1.8378599882125854 -1.1563700437545776
vt -0.31782400608062744 -1.1483500003814697
vt 1.8064500093460083 -1.1603800058364868
vt -0.30144700407981873 -1.1199400424957275
vt 1.7750300168991089 -1.1637200117111206
vt -0.30111300945281982 -1.0875200033187866
vt 1.7436100244522095 -1.1653900146484375
vt -0.31715500354766846 -1.0594500303268433
vt 1.7122000455856323 -1.1647200584411621
vt -0.34556400775909424 -1.0434000492095947
vt -0.34689998626708984 -1.0504200458526611
vt -0.37564298510551453 -1.0504200458526611
vt -0.37798199057579041 -1.0434000492095947
vt 1.6804499626159668 -1.1627199649810791
vt 1.6486999988555908 -1.1597100496292114
vt -0.40672498941421509 -1.0597800016403198
vt -0.40070900321006775 -1.0647900104522705
vt -0.41541498899459839 -1.0895299911499023
vt -0.42343598604202271 -1.088189959526062
vt 1.6169500350952148 -1.1573699712753296
vt -0.41541498899459839 -1.1182700395584106
vt -0.36193999648094177 -1.1038999557495117
vt -0.37631100416183472 -1.1573699712753296
vt -0.34756898880004883 -1.157039999961853
vt -0.32283699512481689 -1.1423300504684448
vt -0.30846598744392395 -1.1175999641418457
vt -0.30846598744392395 -1.0891900062561035
vt -0.32250300049781799 -1.0644600391387939
vn -0.13791795074939728 0.9904436469078064 4.527807959675556E-07
vn -0.89818120002746582 -0.1267470121383667 0.42095807194709778
vn -0.1379140317440033 0.99044418334960938 -4.3296310536788951E-08
vn -0.13791501522064209 0.99044406414031982 -4.331260328171993E-08
vn -0.94767475128173828 -0.18741795420646667 -0.25843194127082825
vn -0.95474368333816528 -0.14659895002841949 0.25879192352294922
vn -0.13791698217391968 0.99044376611709595 -1.7093797168854508E-06
vn -0.57349890470504761 -0.049657691270112991 0.81769990921020508
vn -0.13791093230247498 0.99044466018676758 -4.329367797595296E-08
vn -0.094066359102725983 0.031119516119360924 0.99507945775985718
vn -0.13791206479072571 0.99044448137283325 2.3538411824119976E-06
vn 0.49050670862197876 0.10144594311714172 0.86551249027252197
vn -0.1379130631685257 0.9904443621635437 -7.0923118755672476E-07
vn 0.89881473779678345 0.12215697020292282 0.4209628701210022
vn -0.13790996372699738 0.99044477939605713 -4.3296381591062527E-08
vn 0.99163055419921875 0.093810059130191803 -0.088704459369182587
vn -0.1379130631685257 0.9904443621635437 6.2264120970212389E-07
vn 0.81907898187637329 0.030825400725007057 -0.57285201549530029
vn -0.13791206479072571 0.99044448137283325 -2.4404312171100173E-06
vn 0.42966002225875854 -0.049623608589172363 -0.90162616968154907
vn -0.13791093230247498 0.99044466018676758 -4.329367797595296E-08
vn -0.071663185954093933 -0.12613798677921295 -0.98942083120346069
vn -0.13791698217391968 0.99044376611709595 1.6227998003159883E-06
vn -0.47831115126609802 -0.17226904630661011 -0.86112821102142334
vn -0.13791795074939728 0.9904436469078064 -5.3938185828883434E-07
vn -0.79658329486846924 -0.19296902418136597 -0.57290315628051758
vn -0.87103229761123657 -0.19357004761695862 -0.45147913694381714
vn -0.5108799934387207 -0.1751830130815506 -0.8416130542755127
vn 0.015934798866510391 -0.11446898430585861 -0.99329900741577148
vn 0.5072321891784668 -0.035759616643190384 -0.86106723546981812
vn 0.86597073078155518 0.04319358617067337 -0.4982258677482605
vn 0.99485617876052856 0.10129702091217041 0.00019496104505378753
vn 0.83735573291778564 0.12257096916437149 0.53273981809616089
vn 0.44359499216079712 0.097061902284622192 0.89095592498779297
vn -0.006050758995115757 0.043481893837451935 0.99903589487075806
vn -0.49964982271194458 -0.035696189850568771 0.86549168825149536
vn -0.85836976766586304 -0.11498495936393738 0.49997982382774353
vn -0.95474040508270264 -0.14660406112670898 0.25880113244056702
vn -0.94767338037490845 -0.1874191015958786 -0.25843608379364014
vn -0.84507972002029419 -0.1938079297542572 -0.49827578663825989
vn -0.54685205221176147 -0.77260899543762207 -0.32253402471542358
vn -0.94767343997955322 -0.18742306530475616 -0.25843310356140137
vn -0.6386486291885376 -0.76743155717849731 -0.056361973285675049
vn -0.95474141836166382 -0.14660106599330902 0.25879910588264465
vn -0.38236111402511597 -0.89606428146362305 -0.22554107010364532
vn -0.35922393202781677 -0.76709389686584473 -0.53153091669082642
vn -0.39987200498580933 -0.16454698145389557 -0.90167993307113647
vn 0.10340705513954163 -0.10190105438232422 -0.98940545320510864
vn -0.044879410415887833 -0.75126832723617554 -0.65846925973892212
vn 0.58081823587417603 -0.021613810211420059 -0.81374627351760864
vn 0.2984558641910553 -0.72693473100662231 -0.61845773458480835
vn 0.90600067377090454 0.055226881057024002 -0.41965791583061218
vn 0.58802688121795654 -0.69872587919235229 -0.4074389636516571
vn 0.99015277624130249 0.10797695815563202 0.089098162949085236
vn 0.736034095287323 -0.67392110824584961 -0.063907608389854431
vn 0.85730504989624023 0.12264999002218246 0.49998500943183899
vn 0.64648211002349854 -0.66320705413818359 0.37711706757545471
vn 0.56537890434265137 0.1080939769744873 0.8177177906036377
vn 0.30735105276107788 -0.67371511459350586 0.67204409837722778
vn 0.276466965675354 -0.87471085786819458 0.39805394411087036
vn 0.040450483560562134 -0.88300365209579468 0.46761983633041382
vn -0.06410641223192215 -0.69838422536849976 0.71284627914428711
vn 0.082011207938194275 0.055499400943517685 0.99508488178253174
vn -0.42183288931846619 -0.021457891911268234 0.90641963481903076
vn -0.39143121242523193 -0.72685134410858154 0.56433027982711792
vn -0.18680091202259064 -0.89423757791519165 0.40674874186515808
vn -0.34624901413917542 -0.90485894680023193 0.24767298996448517
vn -0.59608787298202515 -0.75156384706497192 0.28254389762878418
vn -0.81172478199005127 -0.10229495912790298 0.57501184940338135
vn -0.40762317180633545 -0.91235828399658203 0.038022216409444809
vn -7.7690202715530177E-07 -1 -3.0770197554375045E-06
vn -0.16498503088951111 -0.91224497556686401 -0.37495198845863342
vn 0.046144198626279831 -0.90471309423446655 -0.42351502180099487
vn 0.26175495982170105 -0.89420187473297119 -0.36316299438476562
vn 0.4265209436416626 -0.88307380676269531 -0.19560298323631287
vn 0.48242408037185669 -0.87480813264846802 0.044471506029367447
vn 0.35130089521408081 -0.91354674100875854 0.20498792827129364
f 1/1/1 3/3/3 4/4/4
f 7/7/7 3/3/3 1/1/1
f 9/9/9 3/3/3 7/7/7
f 11/11/11 3/3/3 9/9/9
f 13/13/13 3/3/3 11/11/11
f 15/15/15 3/3/3 13/13/13
f 17/17/17 3/3/3 15/15/15
f 19/19/19 3/3/3 17/17/17
f 21/21/21 3/3/3 19/19/19
f 23/23/23 3/3/3 21/21/21
f 25/25/25 3/3/3 23/23/23
f 4/4/4 3/3/3 25/25/25
f 5/5/5 26/26/26 27/27/27
f 26/26/26 28/28/28 27/27/27
f 26/26/26 24/24/24 28/28/28
f 22/22/22 28/28/28 24/24/24
f 22/22/22 29/29/29 28/28/28
f 20/20/20 29/29/29 22/22/22
f 20/20/20 30/30/30 29/29/29
f 30/30/30 20/20/20 18/18/18
f 30/30/30 18/18/18 31/31/31
f 31/31/31 18/18/18 16/16/16
f 31/31/31 16/16/16 32/32/32
f 14/14/14 32/32/32 16/16/16
f 14/14/14 33/33/33 32/32/32
f 12/12/12 33/33/33 14/14/14
f 12/12/12 34/34/34 33/33/33
f 12/12/12 35/35/35 34/34/34
f 12/12/12 10/10/10 35/35/35
f 10/10/10 36/36/36 35/35/35
f 10/10/10 8/8/8 36/36/36
f 8/8/8 37/37/37 36/36/36
f 8/8/8 2/2/2 37/37/37
f 2/2/2 38/38/38 37/37/37
f 2/2/2 6/6/6 38/38/38
f 5/5/5 27/27/27 39/39/39
f 40/40/40 39/39/39 27/27/27
f 40/40/40 42/42/42 39/39/39
f 43/43/43 41/41/41 45/45/45
f 45/45/45 41/41/41 46/46/46
f 40/40/40 28/28/28 47/47/47
f 40/40/40 27/27/27 28/28/28
f 47/47/47 28/28/28 29/29/29
f 47/47/47 29/29/29 48/48/48
f 48/48/48 29/29/29 30/30/30
f 48/48/48 30/30/30 50/50/50
f 50/50/50 30/30/30 31/31/31
f 50/50/50 31/31/31 52/52/52
f 52/52/52 31/31/31 32/32/32
f 52/52/52 32/32/32 54/54/54
f 54/54/54 32/32/32 33/33/33
f 54/54/54 33/33/33 56/56/56
f 58/58/58 56/56/56 33/33/33
f 57/57/57 59/59/59 60/60/60
f 59/59/59 61/61/61 60/60/60
f 59/59/59 62/62/62 61/61/61
f 63/63/63 58/58/58 34/34/34
f 58/58/58 33/33/33 34/34/34
f 63/63/63 34/34/34 35/35/35
f 64/64/64 63/63/63 35/35/35
f 62/62/62 65/65/65 66/66/66
f 65/65/65 67/67/67 66/66/66
f 65/65/65 68/68/68 67/67/67
f 69/69/69 64/64/64 36/36/36
f 64/64/64 35/35/35 36/36/36
f 69/69/69 36/36/36 37/37/37
f 44/44/44 69/69/69 37/37/37
f 68/68/68 43/43/43 70/70/70
f 43/43/43 45/45/45 70/70/70
f 45/45/45 71/71/71 70/70/70
f 72/72/72 71/71/71 45/45/45
f 73/73/73 71/71/71 72/72/72
f 74/74/74 71/71/71 73/73/73
f 75/75/75 71/71/71 74/74/74
f 76/76/76 71/71/71 75/75/75
f 77/77/77 71/71/71 76/76/76
f 60/60/60 71/71/71 77/77/77
f 61/61/61 71/71/71 60/60/60
f 66/66/66 71/71/71 61/61/61
f 67/67/67 71/71/71 66/66/66
f 70/70/70 71/71/71 67/67/67
f 68/68/68 70/70/70 67/67/67
f 62/62/62 66/66/66 61/61/61
f 57/57/57 60/60/60 77/77/77
f 76/76/76 57/57/57 77/77/77
f 76/76/76 55/55/55 57/57/57
f 75/75/75 55/55/55 76/76/76
f 75/75/75 53/53/53 55/55/55
f 74/74/74 53/53/53 75/75/75
f 74/74/74 51/51/51 53/53/53
f 73/73/73 51/51/51 74/74/74
f 73/73/73 49/49/49 51/51/51
f 72/72/72 49/49/49 73/73/73
f 72/72/72 46/46/46 49/49/49
f 45/45/45 46/46/46 72/72/72
f 44/44/44 37/37/37 38/38/38
