# Rhino

mtllib chair_064_06.mtl
usemtl diffuse_127_255_0_255
v 249.94500000000002 377.524 215.80999999999997
v 249.94500000000002 377.524 215.80999999999997
v 249.94500000000002 377.524 215.80999999999997
v 245.261 377.22499999999997 219.83099999999999
v 245.261 377.22499999999997 219.83099999999999
v 245.261 377.22499999999997 219.83099999999999
v 243.82300000000001 377.22499999999997 225.84199999999996
v 243.82300000000001 377.22499999999997 225.84199999999996
v 243.82300000000001 377.22499999999997 225.84199999999996
v 246.18100000000001 377.524 231.547
v 246.18100000000001 377.524 231.547
v 246.18100000000001 377.524 231.547
v 251.434 378.00900000000001 234.76700000000002
v 251.434 378.00900000000001 234.76700000000002
v 251.434 378.00900000000001 234.76700000000002
v 257.57500000000005 378.49299999999999 234.27199999999996
v 257.57500000000005 378.49299999999999 234.27199999999996
v 257.57500000000005 378.49299999999999 234.27199999999996
v 262.25999999999999 378.79300000000001 230.251
v 262.25999999999999 378.79300000000001 230.251
v 262.25999999999999 378.79300000000001 230.251
v 263.697 378.79300000000001 224.23999999999998
v 263.697 378.79300000000001 224.23999999999998
v 263.697 378.79300000000001 224.23999999999998
v 261.339 378.49299999999999 218.535
v 261.339 378.49299999999999 218.535
v 261.339 378.49299999999999 218.535
v 256.08600000000001 378.00900000000001 215.315
v 256.08600000000001 378.00900000000001 215.315
v 256.08600000000001 378.00900000000001 215.315
v 280.35900000000004 -0.48460200000000003 223.08399999999997
v 280.35900000000004 -0.48460200000000003 223.08399999999997
v 280.35900000000004 -0.48460200000000003 223.08399999999997
v 275.67399999999998 -0.78410299999999999 227.10499999999999
v 275.67399999999998 -0.78410299999999999 227.10499999999999
v 275.67399999999998 -0.78410299999999999 227.10499999999999
v 286.5 0 222.58899999999997
v 286.5 0 222.58899999999997
v 286.5 0 222.58899999999997
v 291.75300000000004 0.48460200000000003 225.809
v 291.75300000000004 0.48460200000000003 225.809
v 291.75300000000004 0.48460200000000003 225.809
v 294.11099999999999 0.78410299999999999 231.51399999999998
v 294.11099999999999 0.78410299999999999 231.51399999999998
v 294.11099999999999 0.78410299999999999 231.51399999999998
v 292.673 0.78410299999999999 237.52500000000001
v 292.673 0.78410299999999999 237.52500000000001
v 292.673 0.78410299999999999 237.52500000000001
v 287.98900000000003 0.48460200000000003 241.54600000000002
v 287.98900000000003 0.48460200000000003 241.54600000000002
v 287.98900000000003 0.48460200000000003 241.54600000000002
v 281.84799999999996 0 242.04099999999997
v 281.84799999999996 0 242.04099999999997
v 281.84799999999996 0 242.04099999999997
v 276.59500000000003 -0.48460200000000003 238.821
v 276.59500000000003 -0.48460200000000003 238.821
v 276.59500000000003 -0.48460200000000003 238.821
v 274.23699999999997 -0.78410299999999999 233.11600000000001
v 274.23699999999997 -0.78410299999999999 233.11600000000001
v 274.23699999999997 -0.78410299999999999 233.11600000000001
vt -0.4234049916267395 -0.45291700959205627
vt -1.3357100486755371 14.935099601745605
vt -1.735010027885437 14.892200469970703
vt -0.6202549934387207 -0.59593701362609863
vt -1.5787400007247925 14.923299789428711
vt -0.6202549934387207 14.982399940490723
vt -0.86357599496841431 -0.59593701362609863
vt 0.37971600890159607 14.981599807739258
vt -0.86357599496841431 14.982399940490723
vt -1.0604300498962402 -0.45291700959205627
vt 1.2778999805450439 14.928099632263184
vt 0.13668300211429596 14.993399620056152
vt -1.1356199979782104 -0.22150500118732452
vt 1.735010027885437 14.892200469970703
vt 1.035330057144165 14.947199821472168
vt -1.0604300498962402 0.0099064996466040611
vt 1.5787400007247925 14.923299789428711
vt 1.4924399852752686 14.911199569702148
vt -0.86357599496841431 0.15292699635028839
vt 0.86357599496841431 14.982399940490723
vt 1.3357100486755371 14.935099601745605
vt -0.6202549934387207 0.15292699635028839
vt -0.13668300211429596 14.993399620056152
vt 0.6202549934387207 14.982399940490723
vt -0.4234049916267395 0.0099064996466040611
vt -1.035330057144165 14.947199821472168
vt -0.37971600890159607 14.981599807739258
vt -0.3482150137424469 -0.22150500118732452
vt -1.4924399852752686 14.911199569702148
vt -1.2778999805450439 14.928099632263184
vt -0.61043602228164673 0.019675500690937042
vt -0.56372499465942383 0.0050996099598705769
vt 0.4234049916267395 -0.45291700959205627
vt -0.85346901416778564 0.0078577902168035507
vt -0.6202549934387207 0.049300100654363632
vt 0.6202549934387207 -0.59593701362609863
vt -0.32115399837493896 0.02418459951877594
vt -0.10660900175571442 0.041064698249101639
vt 0.3482150137424469 -0.22150500118732452
vt 0.13596199452877045 0.060149699449539185
vt 0.34555900096893311 0.066161498427391052
vt 0.4234049916267395 0.0099064996466040611
vt 0.5885930061340332 0.077979199588298798
vt 0.6202549934387207 0.049300100654363632
vt 0.6202549934387207 0.15292699635028839
vt 0.86357599496841431 0.049300100654363632
vt 0.61043602228164673 0.019675500690937042
vt 0.86357599496841431 0.15292699635028839
vt 0.85346901416778564 0.0078577902168035507
vt 0.32115399837493896 0.02418459951877594
vt 1.0604300498962402 0.0099064996466040611
vt 0.56372499465942383 0.0050996099598705769
vt -0.13596199452877045 0.060149699449539185
vt 1.1356199979782104 -0.22150500118732452
vt 0.10660900175571442 0.041064698249101639
vt -0.5885930061340332 0.077979199588298798
vt 1.0604300498962402 -0.45291700959205627
vt -0.34555900096893311 0.066161498427391052
vt -0.86357599496841431 0.049300100654363632
vt 0.86357599496841431 -0.59593701362609863
vn -0.080184176564216614 0.99659556150436401 -0.019176991656422615
vn -0.38153800368309021 -0.048460200428962708 -0.92308199405670166
vn -0.38153800368309021 -0.048460200428962708 -0.92308199405670166
vn -0.080184176564216614 0.99659556150436401 -0.019176991656422615
vn -0.84994393587112427 -0.07841029018163681 -0.52100592851638794
vn -0.84994393587112427 -0.07841029018163681 -0.52100592851638794
vn -0.080184176564216614 0.99659556150436401 -0.019176991656422615
vn -0.99369990825653076 -0.078410297632217407 0.080076590180397034
vn -0.99369990825653076 -0.078410297632217407 0.080076590180397034
vn -0.080184176564216614 0.99659556150436401 -0.019176991656422615
vn -0.75789600610733032 -0.048460200428962708 0.6505730152130127
vn -0.75789600610733032 -0.048460200428962708 0.6505730152130127
vn -0.080184176564216614 0.99659556150436401 -0.019176991656422615
vn -0.23260200023651123 0 0.97257202863693237
vn -0.23260200023651123 0 0.97257202863693237
vn -0.080184176564216614 0.99659556150436401 -0.019176991656422615
vn 0.38153800368309021 0.048460200428962708 0.92308199405670166
vn 0.38153800368309021 0.048460200428962708 0.92308199405670166
vn -0.080184176564216614 0.99659556150436401 -0.019176991656422615
vn 0.84994393587112427 0.07841029018163681 0.52100592851638794
vn 0.84994393587112427 0.07841029018163681 0.52100592851638794
vn -0.080184176564216614 0.99659556150436401 -0.019176991656422615
vn 0.99369990825653076 0.078410297632217407 -0.080076590180397034
vn 0.99369990825653076 0.078410297632217407 -0.080076590180397034
vn -0.080184176564216614 0.99659556150436401 -0.019176991656422615
vn 0.75789600610733032 0.048460200428962708 -0.6505730152130127
vn 0.75789600610733032 0.048460200428962708 -0.6505730152130127
vn -0.080184176564216614 0.99659556150436401 -0.019176991656422615
vn 0.23260200023651123 0 -0.97257202863693237
vn 0.23260200023651123 0 -0.97257202863693237
vn -0.38153800368309021 -0.048460200428962708 -0.92308199405670166
vn -0.38153800368309021 -0.048460200428962708 -0.92308199405670166
vn 0.080184176564216614 -0.99659556150436401 0.019176991656422615
vn -0.84994393587112427 -0.07841029018163681 -0.52100592851638794
vn -0.84994393587112427 -0.07841029018163681 -0.52100592851638794
vn 0.080184176564216614 -0.99659556150436401 0.019176991656422615
vn 0.23260200023651123 0 -0.97257202863693237
vn 0.23260200023651123 0 -0.97257202863693237
vn 0.080184176564216614 -0.99659556150436401 0.019176991656422615
vn 0.75789600610733032 0.048460200428962708 -0.6505730152130127
vn 0.75789600610733032 0.048460200428962708 -0.6505730152130127
vn 0.080184176564216614 -0.99659556150436401 0.019176991656422615
vn 0.99369990825653076 0.078410297632217407 -0.080076590180397034
vn 0.99369990825653076 0.078410297632217407 -0.080076590180397034
vn 0.080184176564216614 -0.99659556150436401 0.019176991656422615
vn 0.84994393587112427 0.07841029018163681 0.52100592851638794
vn 0.84994393587112427 0.07841029018163681 0.52100592851638794
vn 0.080184176564216614 -0.99659556150436401 0.019176991656422615
vn 0.38153800368309021 0.048460200428962708 0.92308199405670166
vn 0.38153800368309021 0.048460200428962708 0.92308199405670166
vn 0.080184176564216614 -0.99659556150436401 0.019176991656422615
vn -0.23260200023651123 0 0.97257202863693237
vn -0.23260200023651123 0 0.97257202863693237
vn 0.080184176564216614 -0.99659556150436401 0.019176991656422615
vn -0.75789600610733032 -0.048460200428962708 0.6505730152130127
vn -0.75789600610733032 -0.048460200428962708 0.6505730152130127
vn 0.080184176564216614 -0.99659556150436401 0.019176991656422615
vn -0.99369990825653076 -0.078410297632217407 0.080076590180397034
vn -0.99369990825653076 -0.078410297632217407 0.080076590180397034
vn 0.080184176564216614 -0.99659556150436401 0.019176991656422615
f 1/1/1 4/4/4 25/25/25
f 4/4/4 7/7/7 10/10/10
f 10/10/10 13/13/13 16/16/16
f 16/16/16 19/19/19 22/22/22
f 22/22/22 25/25/25 4/4/4
f 10/10/10 16/16/16 22/22/22
f 10/10/10 22/22/22 4/4/4
f 25/25/25 28/28/28 1/1/1
f 5/5/5 2/2/2 31/31/31 34/34/34
f 3/3/3 29/29/29 37/37/37 32/32/32
f 30/30/30 26/26/26 40/40/40 38/38/38
f 27/27/27 23/23/23 43/43/43 41/41/41
f 24/24/24 20/20/20 46/46/46 44/44/44
f 21/21/21 17/17/17 49/49/49 47/47/47
f 18/18/18 14/14/14 52/52/52 50/50/50
f 15/15/15 11/11/11 55/55/55 53/53/53
f 12/12/12 8/8/8 58/58/58 56/56/56
f 9/9/9 6/6/6 35/35/35 59/59/59
f 45/45/45 48/48/48 42/42/42
f 48/48/48 51/51/51 57/57/57
f 51/51/51 54/54/54 57/57/57
f 57/57/57 60/60/60 48/48/48
f 60/60/60 36/36/36 33/33/33
f 33/33/33 39/39/39 42/42/42
f 42/42/42 48/48/48 60/60/60
f 42/42/42 60/60/60 33/33/33
