# Rhino

mtllib chair_011_08.mtl
usemtl diffuse_127_255_0_255
v 420.84100000000001 2.1609600000000002 -404.20400000000001
v 420.84100000000001 2.1609600000000002 -404.20400000000001
v 420.84100000000001 2.1609600000000002 -404.20400000000001
v 216.39800000000002 9.2439300000000006 -199.98000000000002
v 216.39800000000002 9.2439300000000006 -199.98000000000002
v 216.39800000000002 9.2439300000000006 -199.98000000000002
v 215.82899999999998 38.118600000000001 -200.309
v 215.82899999999998 38.118600000000001 -200.309
v 215.82899999999998 38.118600000000001 -200.309
v 408.54100000000005 27.7608 -392.69900000000001
v 408.54100000000005 27.7608 -392.69900000000001
v 408.54100000000005 27.7608 -392.69900000000001
v 436.31500000000005 2.64175 -388.72999999999996
v 436.31500000000005 2.64175 -388.72999999999996
v 436.31500000000005 2.64175 -388.72999999999996
v 231.87100000000001 9.7247199999999996 -184.50700000000001
v 231.87100000000001 9.7247199999999996 -184.50700000000001
v 231.87100000000001 9.7247199999999996 -184.50700000000001
v 424.01499999999999 28.241599999999998 -377.226
v 424.01499999999999 28.241599999999998 -377.226
v 424.01499999999999 28.241599999999998 -377.226
v 231.30199999999999 38.599400000000003 -184.83499999999998
v 231.30199999999999 38.599400000000003 -184.83499999999998
v 231.30199999999999 38.599400000000003 -184.83499999999998
vt -0.52800500392913818 0
vt -0.039999999105930328 -0.52776098251342773
vt 0.039999999105930328 -0.28743499517440796
vt 0 0.016055500134825706
vt -0.039999999105930328 0.00048798599164001644
vt -0.039999999105930328 0.016055500134825706
vt 0 0.068837203085422516
vt 0.039999999105930328 0.0030219599138945341
vt -0.039999999105930328 0.068837203085422516
vt -0.49751999974250793 0.046975001692771912
vt 0.039999999105930328 -0.23143500089645386
vt 0.039999999105930328 -0.49497801065444946
vt 0.52800500392913818 0
vt 0 -0.52776098251342773
vt 0 -0.28743499517440796
vt 0 0.016055500134825706
vt 0 0.00048798599164001644
vt 0 0.016055500134825706
vt 0.49751999974250793 0.046975001692771912
vt 0 -0.23143500089645386
vt 0 -0.49497801065444946
vt 0 0.068837203085422516
vt 0 0.0030219599138945341
vt 0 0.068837203085422516
vn -0.70693618059158325 -0.021965906023979187 -0.70693618059158325
vn -0.0018032906809821725 -0.99945837259292603 0.032858412712812424
vn 0.58234024047851562 0.54917615652084351 -0.59940421581268311
vn -0.70693618059158325 -0.021965906023979187 -0.70693618059158325
vn -0.0018032906809821725 -0.99945837259292603 0.032858412712812424
vn -0.70700305700302124 -0.0058849905617535114 0.70718604326248169
vn -0.70693618059158325 -0.021965906023979187 -0.70693618059158325
vn 0.011362197808921337 0.99903595447540283 -0.042404193431138992
vn -0.70700305700302124 -0.0058849905617535114 0.70718604326248169
vn -0.70693618059158325 -0.021965906023979187 -0.70693618059158325
vn 0.58234024047851562 0.54917615652084351 -0.59940421581268311
vn 0.011362197808921337 0.99903595447540283 -0.042404193431138992
vn 0.70693618059158325 0.021965906023979187 0.70693618059158325
vn -0.0018032906809821725 -0.99945837259292603 0.032858412712812424
vn 0.58234024047851562 0.54917615652084351 -0.59940421581268311
vn 0.70693618059158325 0.021965906023979187 0.70693618059158325
vn -0.0018032906809821725 -0.99945837259292603 0.032858412712812424
vn -0.70700305700302124 -0.0058849905617535114 0.70718604326248169
vn 0.70693618059158325 0.021965906023979187 0.70693618059158325
vn 0.58234024047851562 0.54917615652084351 -0.59940421581268311
vn 0.011362197808921337 0.99903595447540283 -0.042404193431138992
vn 0.70693618059158325 0.021965906023979187 0.70693618059158325
vn 0.011362197808921337 0.99903595447540283 -0.042404193431138992
vn -0.70700305700302124 -0.0058849905617535114 0.70718604326248169
f 1/1/1 4/4/4 7/7/7 10/10/10
f 5/5/5 2/2/2 14/14/14 17/17/17
f 3/3/3 11/11/11 20/20/20 15/15/15
f 12/12/12 8/8/8 23/23/23 21/21/21
f 9/9/9 6/6/6 18/18/18 24/24/24
f 16/16/16 13/13/13 19/19/19 22/22/22
