# Rhino

mtllib chair_018_07.mtl
usemtl diffuse_127_255_0_255
v 191.75999999999999 273.38900000000001 -133.65299999999999
v -200.01400000000001 273.38900000000001 -141.65299999999999
v -200.01400000000001 273.38900000000001 -133.65299999999999
v 191.75999999999999 273.38900000000001 -141.65299999999999
v 191.75999999999999 272.39099999999996 -142.721
v -200.01400000000001 272.39099999999996 -142.721
v 191.75999999999999 239.387 -144.97
v -200.01400000000001 239.387 -144.97
v 191.75999999999999 238.38899999999998 -144.03800000000001
v -200.01400000000001 238.38899999999998 -144.03800000000001
v -200.01400000000001 238.38899999999998 -136.03800000000001
v -200.01400000000001 238.38899999999998 -136.03800000000001
v 191.75999999999999 238.38899999999998 -136.03800000000001
v 191.75999999999999 238.38899999999998 -136.03800000000001
v 191.75999999999999 239.387 -134.97
v -200.01400000000001 239.387 -134.97
v -200.01400000000001 272.39099999999996 -132.721
v 191.75999999999999 272.39099999999996 -132.721
vt -0.96653497219085693 -1.1653900146484375
vt -0.92208397388458252 1.0036599636077881
vt -0.96653497219085693 1.0036599636077881
vt -0.92208397388458252 -1.1653900146484375
vt -0.9140629768371582 -1.1653900146484375
vt -0.9140629768371582 1.0036599636077881
vt -0.73091298341751099 -1.1653900146484375
vt -0.73091298341751099 1.0036599636077881
vt -0.72356098890304565 -1.1653900146484375
vt -0.72356098890304565 1.0036599636077881
vt -0.67910999059677124 1.0036599636077881
vt -1.1653900146484375 1.0036599636077881
vt -0.67910999059677124 -1.1653900146484375
vt -1.1653900146484375 -1.1653900146484375
vt -1.157039999961853 -1.1653900146484375
vt -1.157039999961853 1.0036599636077881
vt -0.97388797998428345 1.0036599636077881
vt -0.97388797998428345 -1.1653900146484375
vn 0 0.91724658012390137 0.39831981062889099
vn 0 0.93026477098464966 -0.36688891053199768
vn 0 0.91724658012390137 0.39831981062889099
vn 0 0.93026477098464966 -0.36688891053199768
vn 0 0.54340720176696777 -0.83946925401687622
vn 0 0.30793389678001404 -0.95140773057937622
vn 0 -0.19662708044052124 -0.98047834634780884
vn 0 -0.4666120707988739 -0.88446205854415894
vn 0 -0.91724354028701782 -0.3983268141746521
vn 0 -0.91724354028701782 -0.3983268141746521
vn 0 -1 4.3711395392165286E-08
vn 0 -0.73078536987304688 0.68260729312896729
vn 0 -1 4.3711395392165286E-08
vn 0 -0.73078536987304688 0.68260729312896729
vn 0 -0.42933389544487 0.90314584970474243
vn 0 -0.42933389544487 0.90314584970474243
vn 0 0.33508405089378357 0.94218826293945312
vn 0 0.33508405089378357 0.94218826293945312
f 1/1/1 2/2/2 3/3/3
f 1/1/1 4/4/4 2/2/2
f 5/5/5 2/2/2 4/4/4
f 5/5/5 6/6/6 2/2/2
f 6/6/6 5/5/5 7/7/7
f 6/6/6 7/7/7 8/8/8
f 8/8/8 7/7/7 9/9/9
f 8/8/8 9/9/9 10/10/10
f 11/11/11 10/10/10 9/9/9
f 11/11/11 9/9/9 13/13/13
f 15/15/15 12/12/12 14/14/14
f 15/15/15 16/16/16 12/12/12
f 17/17/17 16/16/16 15/15/15
f 17/17/17 15/15/15 18/18/18
f 17/17/17 18/18/18 1/1/1
f 17/17/17 1/1/1 3/3/3
