# Rhino

mtllib chair_244_05.mtl
usemtl diffuse_127_255_0_255
v -318.84699999999998 607.43599999999992 -73.761600000000001
v -318.84699999999998 607.43599999999992 -73.761600000000001
v -318.84699999999998 607.43599999999992 -73.761600000000001
v -318.84699999999998 609.01300000000003 -65.974199999999996
v -318.84699999999998 609.01300000000003 -65.974199999999996
v -318.84699999999998 609.01300000000003 182.94999999999999
v -318.84699999999998 609.01300000000003 182.94999999999999
v -318.84699999999998 608.41599999999994 186.28300000000002
v -318.84699999999998 608.41599999999994 186.28300000000002
v -318.84699999999998 608.41599999999994 186.28300000000002
v -318.84699999999998 605.71799999999996 188.13900000000001
v -318.84699999999998 605.71799999999996 188.13900000000001
v -318.84699999999998 585.08899999999994 188.13900000000001
v -318.84699999999998 585.08899999999994 188.13900000000001
v -318.84699999999998 585.08899999999994 188.13900000000001
v -318.84699999999998 585.08899999999994 -76.382800000000003
v -318.84699999999998 585.08899999999994 -76.382800000000003
v -318.84699999999998 602.0680000000001 -76.382800000000003
v -318.84699999999998 602.0680000000001 -76.382800000000003
v -320.32400000000001 609.01300000000003 -65.974199999999996
v -320.32400000000001 607.43599999999992 -75.286699999999996
v -320.32400000000001 607.43599999999992 -75.286699999999996
v -320.32400000000001 607.43599999999992 -75.286699999999996
v -320.32400000000001 602.0680000000001 -77.907799999999995
v -320.32400000000001 602.0680000000001 -77.907799999999995
v -320.32400000000001 602.0680000000001 -77.907799999999995
v -320.32400000000001 585.08899999999994 -77.907799999999995
v -320.32400000000001 585.08899999999994 -77.907799999999995
v -320.32400000000001 585.08899999999994 -77.907799999999995
v -327.86799999999999 585.08899999999994 188.13900000000001
v -327.86799999999999 585.08899999999994 188.13900000000001
v -327.86799999999999 585.08899999999994 188.13900000000001
v -327.86799999999999 585.08899999999994 -77.907799999999995
v -327.86799999999999 585.08899999999994 -77.907799999999995
v -327.86799999999999 585.08899999999994 -77.907799999999995
v -351.221 591.83300000000008 188.13900000000001
v -351.221 591.83300000000008 188.13900000000001
v -346.65600000000001 596.41500000000008 188.13900000000001
v -346.65600000000001 596.41500000000008 188.13900000000001
v -346.65600000000001 596.41500000000008 188.13900000000001
v -340.38900000000001 598.13799999999992 188.13900000000001
v -340.38900000000001 598.13799999999992 188.13900000000001
v -334.12199999999996 596.41500000000008 188.13900000000001
v -334.12199999999996 596.41500000000008 188.13900000000001
v -334.12199999999996 596.41500000000008 188.13900000000001
v -329.55700000000002 591.83300000000008 188.13900000000001
v -329.55700000000002 591.83300000000008 188.13900000000001
v -327.86799999999999 587.245 188.13900000000001
v -327.86799999999999 587.245 188.13900000000001
v -361.92999999999995 605.71799999999996 188.13900000000001
v -361.92999999999995 605.71799999999996 188.13900000000001
v -361.92999999999995 585.08899999999994 188.13900000000001
v -361.92999999999995 585.08899999999994 188.13900000000001
v -361.92999999999995 585.08899999999994 188.13900000000001
v -352.91000000000003 585.08899999999994 188.13900000000001
v -352.91000000000003 585.08899999999994 188.13900000000001
v -352.91000000000003 585.08899999999994 188.13900000000001
v -352.91000000000003 587.245 188.13900000000001
v -352.91000000000003 587.245 188.13900000000001
v -351.221 591.83300000000008 -77.907799999999995
v -351.221 591.83300000000008 -77.907799999999995
v -346.65600000000001 596.41599999999994 -77.907799999999995
v -346.65600000000001 596.41599999999994 -77.907799999999995
v -346.65600000000001 596.41599999999994 -77.907799999999995
v -352.91000000000003 587.245 -77.907799999999995
v -352.91000000000003 587.245 -77.907799999999995
v -352.91000000000003 585.08899999999994 -77.907799999999995
v -352.91000000000003 585.08899999999994 -77.907799999999995
v -352.91000000000003 585.08899999999994 -77.907799999999995
v -360.45400000000001 585.08899999999994 -77.907799999999995
v -360.45400000000001 585.08899999999994 -77.907799999999995
v -360.45400000000001 585.08899999999994 -77.907799999999995
v -361.92999999999995 585.08899999999994 -76.382800000000003
v -361.92999999999995 585.08899999999994 -76.382800000000003
v -327.86799999999999 587.245 -77.907799999999995
v -327.86799999999999 587.245 -77.907799999999995
v -329.55700000000002 591.83300000000008 -77.907799999999995
v -329.55700000000002 591.83300000000008 -77.907799999999995
v -334.12199999999996 596.41599999999994 -77.907799999999995
v -334.12199999999996 596.41599999999994 -77.907799999999995
v -334.12199999999996 596.41599999999994 -77.907799999999995
v -340.38900000000001 598.13799999999992 -77.907799999999995
v -340.38900000000001 598.13799999999992 -77.907799999999995
v -360.45400000000001 602.0680000000001 -77.907799999999995
v -360.45400000000001 602.0680000000001 -77.907799999999995
v -361.92999999999995 602.0680000000001 -76.382800000000003
v -361.92999999999995 602.0680000000001 -76.382800000000003
v -361.92999999999995 608.41599999999994 186.28300000000002
v -361.92999999999995 608.41599999999994 186.28300000000002
v -361.92999999999995 608.41599999999994 186.28300000000002
v -361.92999999999995 609.01300000000003 182.94999999999999
v -361.92999999999995 609.01300000000003 182.94999999999999
v -361.92999999999995 609.01300000000003 -65.974199999999996
v -361.92999999999995 609.01300000000003 -65.974199999999996
v -361.92999999999995 607.43599999999992 -75.286699999999996
v -361.92999999999995 607.43599999999992 -75.286699999999996
v -361.92999999999995 607.43599999999992 -75.286699999999996
v -360.45400000000001 607.43599999999992 -75.286699999999996
v -360.45400000000001 607.43599999999992 -75.286699999999996
v -360.45400000000001 607.43599999999992 -75.286699999999996
vt 0.27724999189376831 25.38960075378418
vt -7.4007601737976074 0.27725198864936829
vt 0.27722099423408508 25.38960075378418
vt 0.24797999858856201 25.455499649047852
vt -7.4007601737976074 0.247980996966362
vt -0.68766200542449951 25.455499649047852
vt -7.4007601737976074 -0.68766099214553833
vt -0.70018899440765381 25.430500030517578
vt -7.4007601737976074 -0.70018798112869263
vt -7.4007601737976074 25.430500030517578
vt -0.70716500282287598 25.317800521850586
vt -7.4007601737976074 25.317800521850586
vt -0.70716500282287598 24.455499649047852
vt -7.4007601737976074 -0.70716398954391479
vt -7.4007601737976074 24.455499649047852
vt 0.28710299730300903 24.455499649047852
vt -7.4007601737976074 0.28710401058197021
vt 0.28710299730300903 25.165199279785156
vt 0.28707298636436462 25.165300369262695
vt -7.4350299835205078 0.247980996966362
vt -7.4350299835205078 0.28298398852348328
vt 0.28295400738716125 25.38960075378418
vt -7.4350299835205078 25.38960075378418
vt 0.2928059995174408 25.165300369262695
vt 0.29283499717712402 25.165199279785156
vt -7.4350299835205078 25.165199279785156
vt 0.29283499717712402 24.455499649047852
vt -7.4350299835205078 0.29283601045608521
vt -7.4350299835205078 24.455499649047852
vt -0.70716500282287598 24.455499649047852
vt -7.6101398468017578 -0.70716398954391479
vt -7.6101398468017578 24.455499649047852
vt 0.29283499717712402 24.455499649047852
vt -7.6101398468017578 0.29283601045608521
vt -7.6101398468017578 24.455499649047852
vt -8.1521797180175781 24.737400054931641
vt -0.70716500282287598 24.737400054931641
vt -8.0462303161621094 24.928899765014648
vt -0.70716500282287598 24.928899765014648
vt -8.0462303161621094 -0.70716398954391479
vt -7.9007601737976074 25.000900268554688
vt -7.9007601737976074 -0.70716398954391479
vt -7.7553000450134277 24.928899765014648
vt -0.70716500282287598 24.928899765014648
vt -7.7553000450134277 -0.70716398954391479
vt -7.6493501663208008 24.737400054931641
vt -0.70716500282287598 24.737400054931641
vt -7.6101398468017578 24.545600891113281
vt -0.70716500282287598 24.545600891113281
vt -0.70716500282287598 25.317800521850586
vt -8.4007596969604492 25.317800521850586
vt -0.70716500282287598 24.455499649047852
vt -8.4007596969604492 24.455499649047852
vt -8.4007596969604492 -0.70716398954391479
vt -0.70716500282287598 24.455499649047852
vt -8.1913795471191406 24.455499649047852
vt -8.1913900375366211 -0.70716398954391479
vt -8.1913795471191406 24.545600891113281
vt -0.70716500282287598 24.545600891113281
vt -8.1521797180175781 24.737400054931641
vt 0.29283499717712402 24.737400054931641
vt -8.0462303161621094 24.928899765014648
vt 0.29283499717712402 24.928899765014648
vt -8.0462303161621094 0.29283601045608521
vt 0.29283499717712402 24.545600891113281
vt -8.1913900375366211 24.545600891113281
vt 0.29283499717712402 24.455499649047852
vt -8.1913900375366211 0.29283601045608521
vt -8.1913900375366211 24.455499649047852
vt 0.29283499717712402 24.455499649047852
vt -8.3664999008178711 0.29283601045608521
vt -8.3664999008178711 24.455499649047852
vt 0.28710299730300903 24.455499649047852
vt -8.4007596969604492 0.28710401058197021
vt -7.6101398468017578 24.545600891113281
vt 0.29283499717712402 24.545600891113281
vt -7.6493501663208008 24.737400054931641
vt 0.29283499717712402 24.737400054931641
vt -7.7553000450134277 24.928899765014648
vt 0.29283499717712402 24.928899765014648
vt -7.7553000450134277 0.29283601045608521
vt -7.9007601737976074 25.000900268554688
vt -7.9007601737976074 0.29283601045608521
vt 0.29283499717712402 25.165199279785156
vt -8.3664999008178711 25.165199279785156
vt 0.28710299730300903 25.165199279785156
vt -8.4007596969604492 25.165199279785156
vt -0.70018899440765381 25.430500030517578
vt -8.4007596969604492 -0.70018798112869263
vt -8.4007596969604492 25.430500030517578
vt -0.68766200542449951 25.455499649047852
vt -8.4007596969604492 -0.68766099214553833
vt 0.24797999858856201 25.455499649047852
vt -8.4007596969604492 0.247980996966362
vt 0.28298300504684448 25.38960075378418
vt -8.4007596969604492 0.28298398852348328
vt -8.4007596969604492 25.38960075378418
vt 0.28298300504684448 25.38960075378418
vt -8.3664999008178711 0.28298398852348328
vt -8.3664999008178711 25.38960075378418
vn 0.5960807204246521 0.73236465454101562 -0.32913485169410706
vn 0.5960807204246521 0.73236465454101562 -0.32913485169410706
vn 0.5960807204246521 0.73236465454101562 -0.32913485169410706
vn 0.44900399446487427 0.88907396793365479 -0.089122802019119263
vn 0.44900399446487427 0.88907396793365479 -0.089122802019119263
vn 0.44862088561058044 0.89021575450897217 0.079089485108852386
vn 0.44862088561058044 0.89021575450897217 0.079089485108852386
vn 0.47639009356498718 0.73894011974334717 0.47646608948707581
vn 0.47639009356498718 0.73894011974334717 0.47646608948707581
vn 0.47639009356498718 0.73894011974334717 0.47646608948707581
vn 0.46385186910629272 0.26290494203567505 0.84600383043289185
vn 0.46385186910629272 0.26290494203567505 0.84600383043289185
vn 0.5773499608039856 -0.577350914478302 0.5773499608039856
vn 0.5773499608039856 -0.577350914478302 0.5773499608039856
vn 0.5773499608039856 -0.577350914478302 0.5773499608039856
vn 0.81582605838775635 -0.47474402189254761 -0.330221027135849
vn 0.81582605838775635 -0.47474402189254761 -0.330221027135849
vn 0.86494100093841553 0.11595700681209564 -0.48829400539398193
vn 0.86494100093841553 0.11595700681209564 -0.48829400539398193
vn 0.042740106582641602 0.99015706777572632 -0.13327501714229584
vn 0.2488190233707428 0.79535919427871704 -0.55271410942077637
vn 0.2488190233707428 0.79535919427871704 -0.55271410942077637
vn 0.2488190233707428 0.79535919427871704 -0.55271410942077637
vn 0.3862348198890686 0.20995189249515533 -0.89818865060806274
vn 0.3862348198890686 0.20995189249515533 -0.89818865060806274
vn 0.3862348198890686 0.20995189249515533 -0.89818865060806274
vn 0.34285405278205872 -0.47721105813980103 -0.80914813280105591
vn 0.34285405278205872 -0.47721105813980103 -0.80914813280105591
vn 0.34285405278205872 -0.47721105813980103 -0.80914813280105591
vn -0.5773499608039856 -0.577350914478302 0.5773499608039856
vn -0.5773499608039856 -0.577350914478302 0.5773499608039856
vn -0.5773499608039856 -0.577350914478302 0.5773499608039856
vn -0.5773499608039856 -0.5773499608039856 -0.577350914478302
vn -0.5773499608039856 -0.5773499608039856 -0.577350914478302
vn -0.5773499608039856 -0.5773499608039856 -0.577350914478302
vn 0.75034713745117188 -0.47895103693008423 0.45561507344245911
vn 0.75034713745117188 -0.47895103693008423 0.45561507344245911
vn 0.447305828332901 -0.76732969284057617 0.45948082208633423
vn 0.447305828332901 -0.76732969284057617 0.45948082208633423
vn 0.447305828332901 -0.76732969284057617 0.45948082208633423
vn -2.7405592391005484E-06 -0.88774484395980835 0.46033588051795959
vn -2.7405592391005484E-06 -0.88774484395980835 0.46033588051795959
vn -0.44730910658836365 -0.76732820272445679 0.45948010683059692
vn -0.44730910658836365 -0.76732820272445679 0.45948010683059692
vn -0.44730910658836365 -0.76732820272445679 0.45948010683059692
vn -0.75034713745117188 -0.47895103693008423 0.45561507344245911
vn -0.75034713745117188 -0.47895103693008423 0.45561507344245911
vn -0.87776917219161987 -0.15643402934074402 0.45282408595085144
vn -0.87776917219161987 -0.15643402934074402 0.45282408595085144
vn -0.46385186910629272 0.26290494203567505 0.84600383043289185
vn -0.46385186910629272 0.26290494203567505 0.84600383043289185
vn -0.5773499608039856 -0.577350914478302 0.5773499608039856
vn -0.5773499608039856 -0.577350914478302 0.5773499608039856
vn -0.5773499608039856 -0.577350914478302 0.5773499608039856
vn 0.5773499608039856 -0.577350914478302 0.5773499608039856
vn 0.5773499608039856 -0.577350914478302 0.5773499608039856
vn 0.5773499608039856 -0.577350914478302 0.5773499608039856
vn 0.87776917219161987 -0.15643402934074402 0.45282408595085144
vn 0.87776917219161987 -0.15643402934074402 0.45282408595085144
vn 0.75034749507904053 -0.47895029187202454 -0.45561528205871582
vn 0.75034749507904053 -0.47895029187202454 -0.45561528205871582
vn 0.44730597734451294 -0.76732891798019409 -0.45948201417922974
vn 0.44730597734451294 -0.76732891798019409 -0.45948201417922974
vn 0.44730597734451294 -0.76732891798019409 -0.45948201417922974
vn 0.87776917219161987 -0.15643402934074402 -0.45282408595085144
vn 0.87776917219161987 -0.15643402934074402 -0.45282408595085144
vn 0.5773499608039856 -0.5773499608039856 -0.577350914478302
vn 0.5773499608039856 -0.5773499608039856 -0.577350914478302
vn 0.5773499608039856 -0.5773499608039856 -0.577350914478302
vn -0.34285405278205872 -0.47721105813980103 -0.80914813280105591
vn -0.34285405278205872 -0.47721105813980103 -0.80914813280105591
vn -0.34285405278205872 -0.47721105813980103 -0.80914813280105591
vn -0.81582605838775635 -0.47474402189254761 -0.330221027135849
vn -0.81582605838775635 -0.47474402189254761 -0.330221027135849
vn -0.87776917219161987 -0.15643402934074402 -0.45282408595085144
vn -0.87776917219161987 -0.15643402934074402 -0.45282408595085144
vn -0.75034749507904053 -0.47895029187202454 -0.45561528205871582
vn -0.75034749507904053 -0.47895029187202454 -0.45561528205871582
vn -0.44730889797210693 -0.76732784509658813 -0.45948091149330139
vn -0.44730889797210693 -0.76732784509658813 -0.45948091149330139
vn -0.44730889797210693 -0.76732784509658813 -0.45948091149330139
vn -2.7620203582046088E-06 -0.88774418830871582 -0.46033710241317749
vn -2.7620203582046088E-06 -0.88774418830871582 -0.46033710241317749
vn -0.386231929063797 0.2099519670009613 -0.89818990230560303
vn -0.386231929063797 0.2099519670009613 -0.89818990230560303
vn -0.70816510915756226 0.15400102734565735 -0.68904709815979004
vn -0.70816510915756226 0.15400102734565735 -0.68904709815979004
vn -0.47639009356498718 0.73894011974334717 0.47646608948707581
vn -0.47639009356498718 0.73894011974334717 0.47646608948707581
vn -0.47639009356498718 0.73894011974334717 0.47646608948707581
vn -0.44862088561058044 0.89021575450897217 0.079089485108852386
vn -0.44862088561058044 0.89021575450897217 0.079089485108852386
vn -0.4484749436378479 0.89065289497375488 -0.074884191155433655
vn -0.4484749436378479 0.89065289497375488 -0.074884191155433655
vn -0.51835799217224121 0.61478102207183838 -0.59443193674087524
vn -0.51835799217224121 0.61478102207183838 -0.59443193674087524
vn -0.51835799217224121 0.61478102207183838 -0.59443193674087524
vn -0.20006196200847626 0.57239186763763428 -0.79519981145858765
vn -0.20006196200847626 0.57239186763763428 -0.79519981145858765
vn -0.20006196200847626 0.57239186763763428 -0.79519981145858765
f 1/1/1 4/4/4 18/18/18
f 4/4/4 6/6/6 13/13/13
f 8/8/8 11/11/11 13/13/13
f 8/8/8 13/13/13 6/6/6
f 13/13/13 16/16/16 18/18/18
f 13/13/13 18/18/18 4/4/4
f 5/5/5 2/2/2 20/20/20
f 20/20/20 2/2/2 21/21/21
f 22/22/22 3/3/3 19/19/19 24/24/24
f 25/25/25 18/18/18 16/16/16 27/27/27
f 17/17/17 14/14/14 31/31/31
f 31/31/31 34/34/34 28/28/28
f 31/31/31 28/28/28 17/17/17
f 36/36/36 38/38/38 51/51/51
f 38/38/38 41/41/41 51/51/51
f 41/41/41 43/43/43 12/12/12
f 43/43/43 46/46/46 12/12/12
f 46/46/46 48/48/48 15/15/15
f 48/48/48 32/32/32 15/15/15
f 15/15/15 12/12/12 46/46/46
f 12/12/12 51/51/51 41/41/41
f 51/51/51 53/53/53 36/36/36
f 53/53/53 56/56/56 58/58/58
f 58/58/58 36/36/36 53/53/53
f 39/39/39 37/37/37 61/61/61 63/63/63
f 61/61/61 37/37/37 59/59/59 65/65/65
f 65/65/65 59/59/59 55/55/55 67/67/67
f 71/71/71 68/68/68 74/74/74
f 68/68/68 57/57/57 54/54/54
f 68/68/68 54/54/54 74/74/74
f 26/26/26 29/29/29 77/77/77
f 29/29/29 35/35/35 75/75/75
f 75/75/75 77/77/77 29/29/29
f 77/77/77 79/79/79 26/26/26
f 79/79/79 82/82/82 26/26/26
f 82/82/82 62/62/62 85/85/85
f 62/62/62 60/60/60 85/85/85
f 60/60/60 66/66/66 72/72/72
f 66/66/66 69/69/69 72/72/72
f 72/72/72 85/85/85 60/60/60
f 85/85/85 26/26/26 82/82/82
f 33/33/33 30/30/30 49/49/49 76/76/76
f 78/78/78 76/76/76 49/49/49 47/47/47
f 80/80/80 78/78/78 47/47/47 44/44/44
f 83/83/83 81/81/81 45/45/45 42/42/42
f 64/64/64 83/83/83 42/42/42 40/40/40
f 70/70/70 73/73/73 86/86/86 84/84/84
f 88/88/88 91/91/91 50/50/50
f 91/91/91 93/93/93 52/52/52
f 93/93/93 95/95/95 86/86/86
f 86/86/86 73/73/73 52/52/52
f 86/86/86 52/52/52 93/93/93
f 52/52/52 50/50/50 91/91/91
f 9/9/9 7/7/7 92/92/92 89/89/89
f 5/5/5 20/20/20 7/7/7
f 20/20/20 94/94/94 92/92/92
f 20/20/20 92/92/92 7/7/7
f 99/99/99 96/96/96 94/94/94
f 94/94/94 20/20/20 21/21/21
f 94/94/94 21/21/21 99/99/99
f 97/97/97 100/100/100 87/87/87
f 98/98/98 84/84/84 86/86/86
f 26/26/26 85/85/85 100/100/100 23/23/23
f 10/10/10 90/90/90 51/51/51 12/12/12
