# Rhino

mtllib chair_018_04.mtl
usemtl diffuse_127_255_0_255
v 178.828 298.85300000000001 -145.82300000000001
v 178.828 298.85300000000001 -145.82300000000001
v 175.93899999999996 298.45099999999996 -134.93700000000001
v 175.93899999999996 298.45099999999996 -134.93700000000001
v 197.50200000000001 301.45299999999997 -134.93700000000001
v 226.63800000000003 9.7158899999999999 -158.417
v 228.155 9.7158899999999999 -152.85399999999998
v 228.155 9.7158899999999999 -152.85399999999998
v 228.61599999999999 7.0101899999999997 -153.124
v 228.61599999999999 7.0101899999999997 -153.124
v 228.61599999999999 7.0101899999999997 -153.124
v 232.28899999999999 9.7158899999999999 -148.834
v 178.828 298.85300000000001 -124.05100000000002
v 178.828 298.85300000000001 -124.05100000000002
v 178.828 298.85300000000001 -124.05100000000002
v 186.72 299.952 -116.083
v 186.72 299.952 -116.083
v 197.50200000000001 301.45299999999997 -113.166
v 197.50200000000001 301.45299999999997 -113.166
v 208.28400000000002 302.95499999999998 -116.083
v 208.28400000000002 302.95499999999998 -116.083
v 237.911 9.7158899999999999 -147.43199999999999
v 232.71299999999999 7.0109899999999996 -149.13900000000001
v 232.71299999999999 7.0109899999999996 -149.13900000000001
v 229.64699999999999 6.0291900000000007 -153.727
v 227.113 7.0109899999999996 -158.637
v 227.113 7.0109899999999996 -158.637
v 228.155 9.7158899999999999 -164.01299999999998
v 186.72 299.952 -153.792
v 186.72 299.952 -153.792
v 197.50200000000001 301.45299999999997 -156.70799999999997
v 197.50200000000001 301.45299999999997 -156.70799999999997
v 232.28899999999999 9.7158899999999999 -168.126
v 237.911 9.7158899999999999 -169.65199999999999
v 208.28400000000002 302.95499999999998 -153.792
v 208.28400000000002 302.95499999999998 -153.792
v 243.505 9.7158899999999999 -168.20099999999999
v 247.58200000000002 9.7158899999999999 -164.179
v 216.17699999999999 304.05399999999997 -145.82300000000001
v 216.17699999999999 304.05399999999997 -145.82300000000001
v 219.06499999999997 304.45600000000002 -134.93700000000001
v 219.06499999999997 304.45600000000002 -134.93700000000001
v 249.071 9.7158899999999999 -158.66499999999999
v 247.58200000000002 9.7158899999999999 -153.11799999999999
v 216.17699999999999 304.05399999999997 -124.05100000000002
v 216.17699999999999 304.05399999999997 -124.05100000000002
v 243.505 9.7159899999999997 -149.006
v 238.28499999999997 7.01309 -147.749
v 238.28499999999997 7.01309 -147.749
v 233.36600000000001 6.0291900000000007 -150.11599999999999
v 238.38300000000001 6.0290900000000001 -158.83999999999997
v 228.28500000000003 6.0291900000000007 -158.72800000000001
v 228.61599999999999 7.0128900000000005 -164.18299999999999
v 228.61599999999999 7.0128900000000005 -164.18299999999999
v 232.71299999999999 7.0157900000000009 -168.25900000000001
v 232.71299999999999 7.0157900000000009 -168.25900000000001
v 238.28499999999997 7.0186900000000012 -169.77199999999999
v 238.28499999999997 7.0186900000000012 -169.77199999999999
v 243.82900000000001 7.0208900000000005 -168.33399999999997
v 243.82900000000001 7.0208900000000005 -168.33399999999997
v 247.87 7.0215900000000007 -164.34799999999998
v 247.87 7.0215900000000007 -164.34799999999998
v 249.345 7.0206900000000001 -158.88200000000001
v 249.345 7.0206900000000001 -158.88200000000001
v 247.87 7.0186900000000012 -153.38400000000001
v 247.87 7.0186900000000012 -153.38400000000001
v 243.82900000000001 7.0157900000000009 -149.30900000000003
v 243.82900000000001 7.0157900000000009 -149.30900000000003
v 238.41800000000001 6.0291900000000007 -148.86500000000001
v 243.43900000000002 6.0290900000000001 -150.28100000000001
v 247.10300000000001 6.0291900000000007 -153.96899999999999
v 248.446 6.0290900000000001 -158.95099999999999
v 247.11099999999999 6.0291900000000007 -163.90700000000004
v 243.44400000000002 6.0290900000000001 -167.518
v 238.41800000000001 6.0291900000000007 -168.815
v 233.37099999999998 6.0291900000000007 -167.44399999999999
v 229.65499999999997 6.0291900000000007 -163.75500000000002
vt -1.1490199565887451 1.9812400341033936
vt 1.7853900194168091 2.1403300762176514
vt -1.1049000024795532 1.9371199607849121
vt 1.8478900194168091 2.139319896697998
vt -1.0447399616241455 2.0413999557495117
vt 1.6787799596786499 0.52005302906036377
vt 1.7105300426483154 0.51771301031112671
vt 1.3285200595855713 0.52172398567199707
vt 1.7085200548171997 0.50267398357391357
vt 1.3298599720001221 0.50634998083114624
vt -1.1493500471115112 1.8121299743652344
vt 1.3602700233459473 0.52306097745895386
vt 1.1617499589920044 2.1446700096130371
vt 1.9100500345230103 2.1369800567626953
vt -1.0447399616241455 1.9210799932479858
vt -0.98458200693130493 1.9371199607849121
vt 1.223580002784729 2.1540300846099854
vt 1.2857400178909302 2.1597099304199219
vt -0.94046598672866821 1.9812400341033936
vt -0.92409002780914307 2.0413999557495117
vt 1.3482400178909302 2.1620500087738037
vt 1.3923499584197998 0.52205801010131836
vt 1.3616100549697876 0.50802099704742432
vt -1.1653900146484375 1.8405400514602661
vt -1.1433299779891968 1.8181400299072266
vt -1.1209399700164795 1.7957500219345093
vt 1.6770999431610107 0.50501298904418945
vt 1.6466900110244751 0.51938498020172119
vt 1.7225600481033325 2.1416599750518799
vt -1.1653900146484375 2.0413999557495117
vt -1.1490199565887451 2.101560115814209
vt 1.6600600481033325 2.1440000534057617
vt 1.614609956741333 0.51704502105712891
vt 1.5825200080871582 0.51370298862457275
vt 1.5979000329971313 2.1476800441741943
vt -1.1049000024795532 2.1456699371337891
vt 1.5507700443267822 0.51136302947998047
vt 1.5190199613571167 0.51069498062133789
vt 1.5354000329971313 2.1523599624633789
vt -1.0447399616241455 2.1620500087738037
vt -0.98458200693130493 2.1456699371337891
vt 1.4729000329971313 2.1573700904846191
vt 1.4875999689102173 0.51203197240829468
vt 1.4558500051498413 0.51503998041152954
vt 1.4107400178909302 2.1610500812530518
vt -0.94046598672866821 2.101560115814209
vt 1.4241000413894653 0.51871597766876221
vt 1.3933600187301636 0.50668400526046753
vt -1.1650600433349609 1.8729499578475952
vt -1.1573699712753296 1.8428800106048584
vt -1.1038999557495117 1.8575799465179443
vt -1.1182700395584106 1.8037699460983276
vt -1.088189959526062 1.7960900068283081
vt 1.6453499794006348 0.50434499979019165
vt 1.6136000156402588 0.50167101621627808
vt -1.0597800016403198 1.8128000497817993
vt 1.5818500518798828 0.49866300821304321
vt -1.0434000492095947 1.8411999940872192
vt 1.5500999689102173 0.49632400274276733
vt -1.0434000492095947 1.873960018157959
vt 1.5190199613571167 0.49565500020980835
vt -1.0594500303268433 1.9020299911499023
vt 1.4875999689102173 0.49699199199676514
vt -1.0875200033187866 1.9180699586868286
vt 1.4561899900436401 0.5
vt -1.1199400424957275 1.9177399873733521
vt 1.4247699975967407 0.50367599725723267
vt -1.1483500003814697 1.901360034942627
vt -1.157039999961853 1.8716200590133667
vt -1.1423300504684448 1.8963500261306763
vt -1.1175999641418457 1.9107199907302856
vt -1.0891900062561035 1.9110599756240845
vt -1.0644600391387939 1.8970199823379517
vt -1.0504200458526611 1.8722900152206421
vt -1.0504200458526611 1.8438800573348999
vt -1.0647900104522705 1.818809986114502
vt -1.0895299911499023 1.804110050201416
vn -0.13791795074939728 0.9904436469078064 -5.3938390465191333E-07
vn -0.89818084239959717 -0.12674696743488312 -0.42095890641212463
vn -0.13791501522064209 0.99044406414031982 -4.331260328171993E-08
vn -0.97979390621185303 -0.17925699055194855 0.088717490434646606
vn -0.1379140317440033 0.99044418334960938 -4.3292708085118647E-08
vn -0.98493272066116333 -0.17293792963027954 -0.00018957992142532021
vn -0.947673499584198 -0.18742291629314423 0.25843289494514465
vn -0.68493825197219849 -0.18701404333114624 0.70419126749038696
vn -0.9476703405380249 -0.1874360591173172 0.25843510031700134
vn -0.68494361639022827 -0.18701191246509552 0.70418661832809448
vn -0.54686886072158813 -0.77259379625320435 0.32254192233085632
vn -0.51087701320648193 -0.1751820296049118 0.84161508083343506
vn -0.68494307994842529 -0.18700101971626282 0.70419001579284668
vn -0.94767665863037109 -0.18741795420646667 0.25842490792274475
vn -0.13791795074939728 0.9904436469078064 4.527807959675556E-07
vn -0.13791698217391968 0.99044376611709595 -1.7093797168854508E-06
vn -0.47831115126609802 -0.17226904630661011 0.86112821102142334
vn -0.071662582457065582 -0.12613797187805176 0.98942089080810547
vn -0.13791093230247498 0.99044466018676758 -4.329367797595296E-08
vn -0.13791206479072571 0.99044448137283325 2.3538211735285586E-06
vn 0.42965683341026306 -0.049624081701040268 0.90162765979766846
vn 0.015929600223898888 -0.11445300281047821 0.9933009147644043
vn -0.3998771607875824 -0.16452105343341827 0.90168237686157227
vn -0.35922190546989441 -0.76710176467895508 0.53152090311050415
vn -0.38235887885093689 -0.89606678485870361 0.22553494572639465
vn -0.6386263370513916 -0.76745033264160156 0.056359533220529556
vn -0.98222237825393677 -0.16523106396198273 -0.089094638824462891
vn -0.8583720326423645 -0.11498001962900162 -0.49997708201408386
vn -0.57350236177444458 -0.049658328294754028 -0.81769746541976929
vn -0.13791698217391968 0.99044376611709595 1.6227899095611065E-06
vn -0.13791093230247498 0.99044466018676758 -4.329367797595296E-08
vn -0.094062782824039459 0.031119793653488159 -0.99507975578308105
vn -0.49964582920074463 -0.03570248931646347 -0.86549371480941772
vn -0.0060497671365737915 0.043490573763847351 -0.9990355372428894
vn 0.49050599336624146 0.10144498944282532 -0.86551302671432495
vn -0.13791206479072571 0.99044448137283325 -2.4404112082265783E-06
vn 0.44359675049781799 0.09707515686750412 -0.89095360040664673
vn 0.83735460042953491 0.1225789487361908 -0.53273975849151611
vn 0.89881473779678345 0.12215697020292282 -0.4209628701210022
vn -0.1379130631685257 0.9904443621635437 6.2268424017020152E-07
vn -0.13790996372699738 0.99044477939605713 -4.3266890514814804E-08
vn 0.99163061380386353 0.0938100665807724 0.08870387077331543
vn 0.99485582113265991 0.10130097717046738 -0.00019709997286554426
vn 0.86597245931625366 0.043200623244047165 0.49822220206260681
vn 0.81908261775970459 0.030826382339000702 0.57284677028656006
vn -0.1379130631685257 0.9904443621635437 -7.0925125328358263E-07
vn 0.50723183155059814 -0.035753685981035233 0.86106765270233154
vn 0.1034020259976387 -0.10187902301549911 0.98940825462341309
vn -0.044874429702758789 -0.75129741430282593 0.6584363579750061
vn -0.16497403383255005 -0.91225516796112061 0.37493205070495605
vn -3.2875998385861749E-06 -1 4.2288597512651904E-08
vn -0.40760719776153564 -0.91236549615859985 -0.03802051767706871
vn -0.59606289863586426 -0.75158888101577759 -0.28252995014190674
vn -0.81172513961791992 -0.10229601711034775 -0.57501113414764404
vn -0.42182791233062744 -0.021464092656970024 -0.90642184019088745
vn -0.39141005277633667 -0.72688311338424683 -0.56430411338806152
vn 0.082009129226207733 0.055531013756990433 -0.99508333206176758
vn -0.064097806811332703 -0.69842714071273804 -0.71280503273010254
vn 0.56537902355194092 0.10811400413513184 -0.81771504878997803
vn 0.30737599730491638 -0.67365497350692749 -0.6720929741859436
vn 0.85730206966400146 0.12267499417066574 -0.49998399615287781
vn 0.6464877724647522 -0.66319370269775391 -0.37713083624839783
vn 0.99015188217163086 0.10798497498035431 -0.089098379015922546
vn 0.73603063821792603 -0.67392468452453613 0.063909173011779785
vn 0.90600007772445679 0.055243402719497681 0.41965702176094055
vn 0.5880119800567627 -0.69874602556228638 0.40742599964141846
vn 0.58082127571105957 -0.021604409441351891 0.81374436616897583
vn 0.29844501614570618 -0.72696107625961304 0.61843204498291016
vn 0.046143896877765656 -0.9047248363494873 0.42348989844322205
vn 0.26174408197402954 -0.89421230554580688 0.36314511299133301
vn 0.42651402950286865 -0.88307803869247437 0.19559900462627411
vn 0.48242175579071045 -0.87480956315994263 -0.04446917399764061
vn 0.35129299759864807 -0.91355198621749878 -0.20497801899909973
vn 0.27647611498832703 -0.87468737363815308 -0.39809921383857727
vn 0.040454383939504623 -0.88299870491027832 -0.4676288366317749
vn -0.18678900599479675 -0.89424997568130493 -0.40672698616981506
vn -0.34623312950134277 -0.90486830472946167 -0.24766106903553009
f 1/1/1 3/3/3 5/5/5
f 6/6/6 4/4/4 2/2/2
f 4/4/4 6/6/6 7/7/7
f 9/9/9 7/7/7 6/6/6
f 12/12/12 8/8/8 10/10/10
f 13/13/13 8/8/8 12/12/12
f 4/4/4 7/7/7 14/14/14
f 3/3/3 15/15/15 5/5/5
f 15/15/15 16/16/16 5/5/5
f 13/13/13 12/12/12 17/17/17
f 18/18/18 17/17/17 12/12/12
f 16/16/16 19/19/19 5/5/5
f 19/19/19 20/20/20 5/5/5
f 21/21/21 18/18/18 22/22/22
f 18/18/18 12/12/12 22/22/22
f 22/22/22 12/12/12 23/23/23
f 12/12/12 10/10/10 23/23/23
f 24/24/24 11/11/11 25/25/25
f 25/25/25 11/11/11 26/26/26
f 9/9/9 6/6/6 27/27/27
f 27/27/27 6/6/6 28/28/28
f 6/6/6 2/2/2 28/28/28
f 28/28/28 2/2/2 29/29/29
f 30/30/30 1/1/1 5/5/5
f 31/31/31 30/30/30 5/5/5
f 32/32/32 33/33/33 29/29/29
f 32/32/32 34/34/34 33/33/33
f 35/35/35 34/34/34 32/32/32
f 35/35/35 37/37/37 34/34/34
f 35/35/35 38/38/38 37/37/37
f 35/35/35 39/39/39 38/38/38
f 40/40/40 36/36/36 5/5/5
f 36/36/36 31/31/31 5/5/5
f 41/41/41 40/40/40 5/5/5
f 39/39/39 42/42/42 43/43/43
f 42/42/42 44/44/44 43/43/43
f 42/42/42 45/45/45 44/44/44
f 46/46/46 41/41/41 5/5/5
f 20/20/20 46/46/46 5/5/5
f 45/45/45 21/21/21 47/47/47
f 21/21/21 22/22/22 47/47/47
f 47/47/47 22/22/22 48/48/48
f 22/22/22 23/23/23 48/48/48
f 49/49/49 24/24/24 50/50/50
f 24/24/24 25/25/25 50/50/50
f 50/50/50 25/25/25 51/51/51
f 25/25/25 52/52/52 51/51/51
f 25/25/25 26/26/26 52/52/52
f 52/52/52 26/26/26 53/53/53
f 27/27/27 28/28/28 54/54/54
f 54/54/54 28/28/28 33/33/33
f 28/28/28 29/29/29 33/33/33
f 54/54/54 33/33/33 55/55/55
f 55/55/55 33/33/33 34/34/34
f 55/55/55 34/34/34 57/57/57
f 57/57/57 34/34/34 37/37/37
f 57/57/57 37/37/37 59/59/59
f 59/59/59 37/37/37 38/38/38
f 59/59/59 38/38/38 61/61/61
f 38/38/38 63/63/63 61/61/61
f 38/38/38 43/43/43 63/63/63
f 39/39/39 43/43/43 38/38/38
f 43/43/43 65/65/65 63/63/63
f 43/43/43 44/44/44 65/65/65
f 44/44/44 67/67/67 65/65/65
f 44/44/44 47/47/47 67/67/67
f 45/45/45 47/47/47 44/44/44
f 47/47/47 48/48/48 67/67/67
f 68/68/68 49/49/49 69/69/69
f 49/49/49 50/50/50 69/69/69
f 69/69/69 50/50/50 51/51/51
f 70/70/70 69/69/69 51/51/51
f 68/68/68 69/69/69 70/70/70
f 66/66/66 68/68/68 70/70/70
f 66/66/66 70/70/70 71/71/71
f 71/71/71 70/70/70 51/51/51
f 72/72/72 71/71/71 51/51/51
f 64/64/64 71/71/71 72/72/72
f 64/64/64 66/66/66 71/71/71
f 62/62/62 64/64/64 72/72/72
f 62/62/62 72/72/72 73/73/73
f 73/73/73 72/72/72 51/51/51
f 74/74/74 73/73/73 51/51/51
f 74/74/74 62/62/62 73/73/73
f 74/74/74 60/60/60 62/62/62
f 75/75/75 60/60/60 74/74/74
f 75/75/75 58/58/58 60/60/60
f 76/76/76 58/58/58 75/75/75
f 76/76/76 56/56/56 58/58/58
f 77/77/77 56/56/56 76/76/76
f 77/77/77 53/53/53 56/56/56
f 52/52/52 53/53/53 77/77/77
f 52/52/52 77/77/77 51/51/51
f 77/77/77 76/76/76 51/51/51
f 76/76/76 75/75/75 51/51/51
f 75/75/75 74/74/74 51/51/51
