# Rhino

mtllib chair_064_04.mtl
usemtl diffuse_127_255_0_255
v 181.345 605.24599999999998 -252.291
v 181.345 605.24599999999998 -252.291
v 181.345 605.24599999999998 -252.291
v 179.023 602.73900000000003 -257.44000000000005
v 179.023 602.73900000000003 -257.44000000000005
v 179.023 602.73900000000003 -257.44000000000005
v 178.60000000000002 338.98599999999999 -128.79930000000002
v 178.60000000000002 338.98599999999999 -128.79930000000002
v 178.60000000000002 338.98599999999999 -128.79930000000002
v 178.60000000000002 338.98599999999999 -128.79930000000002
v 180.91900000000001 339.63200000000001 -122.74210000000002
v 180.91900000000001 339.63200000000001 -122.74210000000002
v 180.91900000000001 339.63200000000001 -122.74210000000002
v 180.91900000000001 339.63200000000001 -122.74210000000002
v 180.511 600.10699999999997 -262.83100000000002
v 180.511 600.10699999999997 -262.83100000000002
v 180.511 600.10699999999997 -262.83100000000002
v 186.59 606.673 -249.34999999999999
v 186.59 606.673 -249.34999999999999
v 186.59 606.673 -249.34999999999999
v 192.75500000000002 606.47199999999998 -249.74000000000001
v 192.75500000000002 606.47199999999998 -249.74000000000001
v 192.75500000000002 606.47199999999998 -249.74000000000001
v 197.48499999999999 604.72199999999998 -253.31300000000002
v 197.48499999999999 604.72199999999998 -253.31300000000002
v 197.48499999999999 604.72199999999998 -253.31300000000002
v 198.97200000000001 602.09000000000003 -258.70400000000001
v 198.97200000000001 602.09000000000003 -258.70400000000001
v 198.97200000000001 602.09000000000003 -258.70400000000001
v 196.65000000000001 599.58299999999997 -263.85300000000007
v 196.65000000000001 599.58299999999997 -263.85300000000007
v 196.65000000000001 599.58299999999997 -263.85300000000007
v 191.405 598.15700000000004 -266.79399999999998
v 191.405 598.15700000000004 -266.79399999999998
v 191.405 598.15700000000004 -266.79399999999998
v 185.24000000000001 598.35699999999997 -266.404
v 185.24000000000001 598.35699999999997 -266.404
v 185.24000000000001 598.35699999999997 -266.404
v 180.09200000000001 338.66700000000003 -135.31790000000001
v 180.09200000000001 338.66700000000003 -135.31790000000001
v 180.09200000000001 338.66700000000003 -135.31790000000001
v 180.09200000000001 338.66700000000003 -135.31790000000001
v 184.82400000000001 338.798 -139.80800000000002
v 184.82400000000001 338.798 -139.80800000000002
v 184.82400000000001 338.798 -139.80800000000002
v 184.82400000000001 338.798 -139.80800000000002
v 190.99000000000001 339.32799999999997 -140.55500000000001
v 190.99000000000001 339.32799999999997 -140.55500000000001
v 190.99000000000001 339.32799999999997 -140.55500000000001
v 190.99000000000001 339.32799999999997 -140.55500000000001
v 196.23400000000001 340.05499999999995 -137.27300000000002
v 196.23400000000001 340.05499999999995 -137.27300000000002
v 196.23400000000001 340.05499999999995 -137.27300000000002
v 196.23400000000001 340.05499999999995 -137.27300000000002
v 198.553 340.70099999999996 -131.21570000000003
v 198.553 340.70099999999996 -131.21570000000003
v 198.553 340.70099999999996 -131.21570000000003
v 198.553 340.70099999999996 -131.21570000000003
v 197.06200000000001 341.01999999999998 -124.69710000000001
v 197.06200000000001 341.01999999999998 -124.69710000000001
v 197.06200000000001 341.01999999999998 -124.69710000000001
v 197.06200000000001 341.01999999999998 -124.69710000000001
v 192.33000000000001 340.88900000000001 -120.20680000000002
v 192.33000000000001 340.88900000000001 -120.20680000000002
v 192.33000000000001 340.88900000000001 -120.20680000000002
v 192.33000000000001 340.88900000000001 -120.20680000000002
v 186.16400000000002 340.35899999999998 -119.46010000000001
v 186.16400000000002 340.35899999999998 -119.46010000000001
v 186.16400000000002 340.35899999999998 -119.46010000000001
v 186.16400000000002 340.35899999999998 -119.46010000000001
v 245.035 -3.3768199999999999 -236.15000000000001
v 245.035 -3.3768199999999999 -236.15000000000001
v 245.035 -3.3768199999999999 -236.15000000000001
v 250.41499999999999 -3.3768199999999999 -233.10800000000003
v 250.41499999999999 -3.3768199999999999 -233.10800000000003
v 250.41499999999999 -3.3768199999999999 -233.10800000000003
v 242.35400000000001 -2.0869900000000001 -241.56700000000004
v 242.35400000000001 -2.0869900000000001 -241.56700000000004
v 242.35400000000001 -2.0869900000000001 -241.56700000000004
v 243.39600000000002 0 -247.28999999999999
v 243.39600000000002 0 -247.28999999999999
v 243.39600000000002 0 -247.28999999999999
v 247.762 2.0869900000000001 -251.13399999999999
v 247.762 2.0869900000000001 -251.13399999999999
v 247.762 2.0869900000000001 -251.13399999999999
v 253.78600000000003 3.3768199999999999 -251.62900000000002
v 253.78600000000003 3.3768199999999999 -251.62900000000002
v 253.78600000000003 3.3768199999999999 -251.62900000000002
v 259.166 3.3768199999999999 -248.58700000000002
v 259.166 3.3768199999999999 -248.58700000000002
v 259.166 3.3768199999999999 -248.58700000000002
v 261.84799999999996 2.0869900000000001 -243.17000000000002
v 261.84799999999996 2.0869900000000001 -243.17000000000002
v 261.84799999999996 2.0869900000000001 -243.17000000000002
v 260.80600000000004 0 -237.447
v 260.80600000000004 0 -237.447
v 260.80600000000004 0 -237.447
v 256.43900000000002 -2.0869900000000001 -233.60400000000001
v 256.43900000000002 -2.0869900000000001 -233.60400000000001
v 256.43900000000002 -2.0869900000000001 -233.60400000000001
vt 0.54696899652481079 23.102899551391602
vt 2.2788200378417969 21.386699676513672
vt -3.1674900054931641 11.026700019836426
vt 0.76873797178268433 23.002700805664062
vt -1.0707700252532959 24.05620002746582
vt -3.2595899105072021 10.801400184631348
vt -3.9849998950958252 12.472800254821777
vt -6.0170102119445801 13.615300178527832
vt -3.7504100799560547 14.380900382995605
vt -6.0164799690246582 13.618499755859375
vt -4.2403202056884766 12.498600006103516
vt -0.61428499221801758 10.117300033569336
vt -0.017559299245476723 14.934100151062012
vt -4.0056500434875488 14.407400131225586
vt -3.2017099857330322 10.565099716186523
vt -0.85087299346923828 23.951999664306641
vt -2.4452099800109863 23.083400726318359
vt -2.9606099128723145 11.15470027923584
vt 3.0078499317169189 21.403900146484375
vt 2.0431399345397949 21.447200775146484
vt -2.7179501056671143 11.136699676513672
vt 2.4452099800109863 23.083400726318359
vt 2.7646799087524414 21.395099639892578
vt -2.532210111618042 10.979599952697754
vt 1.0707700252532959 24.05620002746582
vt 2.2131400108337402 23.010200500488281
vt -2.4743399620056152 10.743200302124023
vt -0.54696899652481079 23.102899551391602
vt 0.85087299346923828 23.951999664306641
vt -2.5664401054382324 10.517999649047852
vt -2.0431399345397949 21.447200775146484
vt -0.76873797178268433 23.002700805664062
vt -2.7733199596405029 10.389900207519531
vt -2.7646799087524414 21.395099639892578
vt -2.2788200378417969 21.386699676513672
vt -3.0159800052642822 10.407899856567383
vt -2.2131400108337402 23.010200500488281
vt -3.0078499317169189 21.403900146484375
vt -5.7537498474121094 13.602700233459473
vt -5.8866500854492188 12.160799980163574
vt -5.7532100677490234 13.605899810791016
vt -5.9011402130126953 13.552499771118164
vt -5.6298198699951172 12.166199684143066
vt -3.4175999164581299 10.04170036315918
vt -5.6442999839782715 13.557700157165527
vt -3.7280099391937256 14.197699546813965
vt -3.1732800006866455 10.064999580383301
vt 0.5403749942779541 10.405200004577637
vt -3.4835600852966309 14.219400405883789
vt 0.017559299245476723 14.636799812316895
vt 0.78366702795028687 10.436100006103516
vt 3.9088499546051025 12.641500473022461
vt 0.2608799934387207 14.667400360107422
vt 3.7100899219512939 14.200200080871582
vt 4.1641697883605957 12.667300224304199
vt 5.7527899742126465 13.604700088500977
vt 3.9653298854827881 14.226799964904785
vt 5.7524600028991699 13.603799819946289
vt 6.0160598754882812 13.617300033569336
vt 5.6843500137329102 11.993100166320801
vt 6.0157198905944824 13.616399765014648
vt 5.7059497833251953 13.728300094604492
vt 5.9411802291870117 11.987700462341309
vt 3.1839399337768555 9.7692899703979492
vt 5.9627900123596191 13.723199844360352
vt 3.548029899597168 14.508199691772461
vt 3.4282600879669189 9.7460803985595703
vt -0.85757702589035034 10.148200035095215
vt -0.2608799934387207 14.964699745178223
vt 3.7924699783325195 14.48639965057373
vt -0.017559299245476723 0.48856401443481445
vt -0.85824501514434814 0.30899098515510559
vt 0.017559299245476723 -1.2863500118255615
vt -0.2608799934387207 0.48856401443481445
vt 0.63839501142501831 0.35807201266288757
vt 0.2608799934387207 -1.2863500118255615
vt -0.62076997756958008 0.36200699210166931
vt -1.1365699768066406 0.10891199856996536
vt -0.17929099500179291 -1.1433299779891968
vt -0.90771901607513428 0.19157600402832031
vt -1.0556399822235107 0.13814300298690796
vt -0.2544809877872467 -0.91191601753234863
vt -0.82679402828216553 0.22080700099468231
vt -0.63839501142501831 0.35807201266288757
vt -0.17929099500179291 -0.68050497770309448
vt -0.40092000365257263 0.41108700633049011
vt 0.017559299245476723 0.48856401443481445
vt 0.017559299245476723 -0.53748399019241333
vt 0.2608799934387207 0.48856401443481445
vt 0.62076997756958008 0.36200699210166931
vt 0.2608799934387207 -0.53748399019241333
vt 0.85824501514434814 0.30899098515510559
vt 0.90771901607513428 0.19157600402832031
vt 0.4577299952507019 -0.68050497770309448
vt 1.1365699768066406 0.10891199856996536
vt 0.82679402828216553 0.22080700099468231
vt 0.53292000293731689 -0.91191601753234863
vt 1.0556399822235107 0.13814300298690796
vt 0.40092000365257263 0.41108700633049011
vt 0.4577299952507019 -1.1433299779891968
vn -0.76524579524993896 0.28318691253662109 0.57810384035110474
vn -0.76524579524993896 0.28318691253662109 0.57810384035110474
vn 0.0014403598615899682 0.89879298210144043 -0.43837100267410278
vn -0.99747568368911743 0.032413091510534286 0.063179187476634979
vn -0.99747568368911743 0.032413091510534286 0.063179187476634979
vn 0.0014403598615899682 0.89879298210144043 -0.43837100267410278
vn -0.99342834949493408 -0.088799722492694855 0.072213418781757355
vn -0.99342834949493408 -0.088799722492694855 0.072213418781757355
vn -0.99342834949493408 -0.088799722492694855 0.072213418781757355
vn -0.99342834949493408 -0.088799722492694855 0.072213418781757355
vn -0.77472740411758423 -0.028685117140412331 0.63164436817169189
vn -0.77472740411758423 -0.028685117140412331 0.63164436817169189
vn -0.77472740411758423 -0.028685117140412331 0.63164436817169189
vn -0.77472740411758423 -0.028685117140412331 0.63164436817169189
vn 0.0014403598615899682 0.89879298210144043 -0.43837100267410278
vn -0.84870409965515137 -0.23074100911617279 -0.4758780300617218
vn -0.84870409965515137 -0.23074100911617279 -0.4758780300617218
vn 0.0014403598615899682 0.89879298210144043 -0.43837100267410278
vn -0.24071797728538513 0.42579293251037598 0.87221282720565796
vn -0.24071797728538513 0.42579293251037598 0.87221282720565796
vn 0.0014403598615899682 0.89879298210144043 -0.43837100267410278
vn 0.37575608491897583 0.40576013922691345 0.83316630125045776
vn 0.37575608491897583 0.40576013922691345 0.83316630125045776
vn 0.0014403598615899682 0.89879298210144043 -0.43837100267410278
vn 0.84870409965515137 0.23074100911617279 0.4758780300617218
vn 0.84870409965515137 0.23074100911617279 0.4758780300617218
vn 0.0014403598615899682 0.89879298210144043 -0.43837100267410278
vn 0.99747568368911743 -0.032413091510534286 -0.063179187476634979
vn 0.99747568368911743 -0.032413091510534286 -0.063179187476634979
vn 0.0014403598615899682 0.89879298210144043 -0.43837100267410278
vn 0.76524579524993896 -0.28318691253662109 -0.57810384035110474
vn 0.76524579524993896 -0.28318691253662109 -0.57810384035110474
vn 0.0014403598615899682 0.89879298210144043 -0.43837100267410278
vn 0.24071797728538513 -0.42579293251037598 -0.87221282720565796
vn 0.24071797728538513 -0.42579293251037598 -0.87221282720565796
vn 0.0014403598615899682 0.89879298210144043 -0.43837100267410278
vn -0.37575608491897583 -0.40576013922691345 -0.83316630125045776
vn -0.37575608491897583 -0.40576013922691345 -0.83316630125045776
vn -0.86546790599822998 -0.11615698039531708 -0.48731186985969543
vn -0.86546790599822998 -0.11615698039531708 -0.48731186985969543
vn -0.86546790599822998 -0.11615698039531708 -0.48731186985969543
vn -0.86546790599822998 -0.11615698039531708 -0.48731186985969543
vn -0.4256739616394043 -0.1036129891872406 -0.89892494678497314
vn -0.4256739616394043 -0.1036129891872406 -0.89892494678497314
vn -0.4256739616394043 -0.1036129891872406 -0.89892494678497314
vn -0.4256739616394043 -0.1036129891872406 -0.89892494678497314
vn 0.22166889905929565 -0.047721482813358307 -0.97395354509353638
vn 0.22166889905929565 -0.047721482813358307 -0.97395354509353638
vn 0.22166889905929565 -0.047721482813358307 -0.97395354509353638
vn 0.22166889905929565 -0.047721482813358307 -0.97395354509353638
vn 0.77472740411758423 0.028685117140412331 -0.63164436817169189
vn 0.77472740411758423 0.028685117140412331 -0.63164436817169189
vn 0.77472740411758423 0.028685117140412331 -0.63164436817169189
vn 0.77472740411758423 0.028685117140412331 -0.63164436817169189
vn 0.99342834949493408 0.088799722492694855 -0.072213418781757355
vn 0.99342834949493408 0.088799722492694855 -0.072213418781757355
vn 0.99342834949493408 0.088799722492694855 -0.072213418781757355
vn 0.99342834949493408 0.088799722492694855 -0.072213418781757355
vn 0.86546790599822998 0.11615698039531708 0.48731186985969543
vn 0.86546790599822998 0.11615698039531708 0.48731186985969543
vn 0.86546790599822998 0.11615698039531708 0.48731186985969543
vn 0.86546790599822998 0.11615698039531708 0.48731186985969543
vn 0.4256739616394043 0.1036129891872406 0.89892494678497314
vn 0.4256739616394043 0.1036129891872406 0.89892494678497314
vn 0.4256739616394043 0.1036129891872406 0.89892494678497314
vn 0.4256739616394043 0.1036129891872406 0.89892494678497314
vn -0.22166889905929565 0.047721482813358307 0.97395354509353638
vn -0.22166889905929565 0.047721482813358307 0.97395354509353638
vn -0.22166889905929565 0.047721482813358307 0.97395354509353638
vn -0.22166889905929565 0.047721482813358307 0.97395354509353638
vn -0.7065657377243042 -0.33768191933631897 0.62188082933425903
vn -0.7065657377243042 -0.33768191933631897 0.62188082933425903
vn 0.17474190890789032 -0.93484354019165039 -0.30908384919166565
vn -0.16856007277965546 -0.33768212795257568 0.92604440450668335
vn -0.16856007277965546 -0.33768212795257568 0.92604440450668335
vn 0.17474190890789032 -0.93484354019165039 -0.30908384919166565
vn -0.97468763589859009 -0.20869892835617065 0.080179572105407715
vn -0.97468763589859009 -0.20869892835617065 0.080179572105407715
vn 0.17474190890789032 -0.93484354019165039 -0.30908384919166565
vn -0.87051206827163696 0 -0.49214702844619751
vn -0.87051206827163696 0 -0.49214702844619751
vn 0.17474190890789032 -0.93484354019165039 -0.30908384919166565
vn -0.43382993340492249 0.20869897305965424 -0.87649089097976685
vn -0.43382993340492249 0.20869897305965424 -0.87649089097976685
vn 0.17474190890789032 -0.93484354019165039 -0.30908384919166565
vn 0.16856007277965546 0.33768212795257568 -0.92604440450668335
vn 0.16856007277965546 0.33768212795257568 -0.92604440450668335
vn 0.17474190890789032 -0.93484354019165039 -0.30908384919166565
vn 0.7065657377243042 0.33768191933631897 -0.62188082933425903
vn 0.7065657377243042 0.33768191933631897 -0.62188082933425903
vn 0.17474190890789032 -0.93484354019165039 -0.30908384919166565
vn 0.97468763589859009 0.20869892835617065 -0.080179572105407715
vn 0.97468763589859009 0.20869892835617065 -0.080179572105407715
vn 0.17474190890789032 -0.93484354019165039 -0.30908384919166565
vn 0.87051206827163696 0 0.49214702844619751
vn 0.87051206827163696 0 0.49214702844619751
vn 0.17474190890789032 -0.93484354019165039 -0.30908384919166565
vn 0.43382993340492249 -0.20869897305965424 0.87649089097976685
vn 0.43382993340492249 -0.20869897305965424 0.87649089097976685
vn 0.17474190890789032 -0.93484354019165039 -0.30908384919166565
f 1/1/1 4/4/4 7/7/7 11/11/11
f 15/15/15 6/6/6 27/27/27
f 6/6/6 3/3/3 27/27/27
f 3/3/3 18/18/18 21/21/21
f 24/24/24 27/27/27 3/3/3
f 24/24/24 3/3/3 21/21/21
f 27/27/27 30/30/30 33/33/33
f 36/36/36 15/15/15 27/27/27
f 36/36/36 27/27/27 33/33/33
f 5/5/5 16/16/16 39/39/39 8/8/8
f 17/17/17 37/37/37 43/43/43 40/40/40
f 38/38/38 34/34/34 47/47/47 44/44/44
f 35/35/35 31/31/31 51/51/51 48/48/48
f 32/32/32 28/28/28 55/55/55 52/52/52
f 29/29/29 25/25/25 59/59/59 56/56/56
f 26/26/26 22/22/22 63/63/63 60/60/60
f 23/23/23 19/19/19 67/67/67 64/64/64
f 20/20/20 2/2/2 12/12/12 68/68/68
f 69/69/69 13/13/13 71/71/71 74/74/74
f 14/14/14 9/9/9 77/77/77 72/72/72
f 10/10/10 41/41/41 80/80/80 78/78/78
f 42/42/42 45/45/45 83/83/83 81/81/81
f 46/46/46 49/49/49 86/86/86 84/84/84
f 50/50/50 53/53/53 89/89/89 87/87/87
f 54/54/54 57/57/57 92/92/92 90/90/90
f 58/58/58 61/61/61 95/95/95 93/93/93
f 62/62/62 65/65/65 98/98/98 96/96/96
f 66/66/66 70/70/70 75/75/75 99/99/99
f 88/88/88 91/91/91 82/82/82
f 91/91/91 94/94/94 97/97/97
f 97/97/97 100/100/100 91/91/91
f 100/100/100 76/76/76 73/73/73
f 73/73/73 79/79/79 82/82/82
f 91/91/91 100/100/100 73/73/73
f 91/91/91 73/73/73 82/82/82
f 82/82/82 85/85/85 88/88/88
