# Rhino

mtllib chair_244_09.mtl
usemtl diffuse_127_255_0_255
v -335.81299999999999 289.95400000000001 -204.33200000000002
v -335.81299999999999 289.95400000000001 -204.33200000000002
v -335.81299999999999 289.95400000000001 -204.33200000000002
v 333.863 289.95400000000001 -204.33200000000002
v 333.863 289.95400000000001 -204.33200000000002
v 333.863 289.95400000000001 -204.33200000000002
v 333.863 285.92699999999996 -208.35899999999998
v 333.863 285.92699999999996 -208.35899999999998
v 333.863 285.92699999999996 -208.35899999999998
v -335.81299999999999 285.92699999999996 -208.35899999999998
v -335.81299999999999 285.92699999999996 -208.35899999999998
v -335.81299999999999 285.92699999999996 -208.35899999999998
v 333.863 291.42699999999996 -198.83200000000002
v 333.863 291.42699999999996 -198.83200000000002
v 333.863 291.42699999999996 -198.83200000000002
v -335.81299999999999 291.42699999999996 -198.83200000000002
v -335.81299999999999 291.42699999999996 -198.83200000000002
v -335.81299999999999 291.42699999999996 -198.83200000000002
v 333.863 289.95400000000001 -193.33199999999999
v 333.863 289.95400000000001 -193.33199999999999
v 333.863 289.95400000000001 -193.33199999999999
v 333.863 285.92699999999996 -189.30600000000001
v 333.863 285.92699999999996 -189.30600000000001
v 333.863 285.92699999999996 -189.30600000000001
v 333.863 280.42699999999996 -187.83199999999999
v 333.863 280.42699999999996 -187.83199999999999
v 333.863 280.42699999999996 -187.83199999999999
v 333.863 274.92699999999996 -189.30600000000001
v 333.863 274.92699999999996 -189.30600000000001
v 333.863 274.92699999999996 -189.30600000000001
v 333.863 270.90100000000001 -193.33199999999999
v 333.863 270.90100000000001 -193.33199999999999
v 333.863 270.90100000000001 -193.33199999999999
v 333.863 269.42700000000002 -198.83200000000002
v 333.863 269.42700000000002 -198.83200000000002
v 333.863 269.42700000000002 -198.83200000000002
v 333.863 270.90100000000001 -204.33200000000002
v 333.863 270.90100000000001 -204.33200000000002
v 333.863 270.90100000000001 -204.33200000000002
v 333.863 274.92699999999996 -208.35899999999998
v 333.863 274.92699999999996 -208.35899999999998
v 333.863 274.92699999999996 -208.35899999999998
v 333.863 280.42699999999996 -209.83199999999999
v 333.863 280.42699999999996 -209.83199999999999
v 333.863 280.42699999999996 -209.83199999999999
v -335.81299999999999 289.95400000000001 -193.33199999999999
v -335.81299999999999 289.95400000000001 -193.33199999999999
v -335.81299999999999 289.95400000000001 -193.33199999999999
v -335.81299999999999 280.42699999999996 -209.83199999999999
v -335.81299999999999 280.42699999999996 -209.83199999999999
v -335.81299999999999 280.42699999999996 -209.83199999999999
v -335.81299999999999 274.92699999999996 -208.35899999999998
v -335.81299999999999 274.92699999999996 -208.35899999999998
v -335.81299999999999 274.92699999999996 -208.35899999999998
v -335.81299999999999 270.90100000000001 -204.33200000000002
v -335.81299999999999 270.90100000000001 -204.33200000000002
v -335.81299999999999 270.90100000000001 -204.33200000000002
v -335.81299999999999 269.42700000000002 -198.83200000000002
v -335.81299999999999 269.42700000000002 -198.83200000000002
v -335.81299999999999 269.42700000000002 -198.83200000000002
v -335.81299999999999 270.90100000000001 -193.33199999999999
v -335.81299999999999 270.90100000000001 -193.33199999999999
v -335.81299999999999 270.90100000000001 -193.33199999999999
v -335.81299999999999 274.92699999999996 -189.30600000000001
v -335.81299999999999 274.92699999999996 -189.30600000000001
v -335.81299999999999 274.92699999999996 -189.30600000000001
v -335.81299999999999 280.42699999999996 -187.83199999999999
v -335.81299999999999 280.42699999999996 -187.83199999999999
v -335.81299999999999 280.42699999999996 -187.83199999999999
v -335.81299999999999 285.92699999999996 -189.30600000000001
v -335.81299999999999 285.92699999999996 -189.30600000000001
v -335.81299999999999 285.92699999999996 -189.30600000000001
vt -0.0042512901127338409 1.5728199481964111
vt 0.0042513399384915829 1.5728199481964111
vt 0.014225199818611145 0.0082129295915365219
vt -0.0042513399384915829 0.57281798124313354
vt 0.0042513199150562286 0.57281798124313354
vt -0.014225199818611145 0.0082129295915365219
vt -0.0042513399384915829 0.57281798124313354
vt 0.0042513101361691952 0.57281798124313354
vt -0.0082129500806331635 0.014225199818611145
vt 0.0042513599619269371 1.5728199481964111
vt 0.0082128802314400673 0.014225199818611145
vt -0.0042512700892984867 1.5728199481964111
vt -0.0042513301596045494 0.57281798124313354
vt -0.016425900161266327 0
vt 0.0042513301596045494 0.57281798124313354
vt -0.0042513101361691952 1.5728199481964111
vt 0.0042513199150562286 1.5728199481964111
vt 0.016425799578428268 0
vt -0.014225199818611145 -0.0082129398360848427
vt -0.0042513199150562286 0.57281798124313354
vt 0.0042513399384915829 0.57281798124313354
vt -0.0082129398360848427 -0.014225199818611145
vt -0.0042512998916208744 0.57281798124313354
vt 0.0042513501830399036 0.57281798124313354
vt -1.6073000708161089E-08 -0.016425900161266327
vt -0.0042512998916208744 0.57281798124313354
vt 0.0042513501830399036 0.57281798124313354
vt 0.008212910033762455 -0.014225199818611145
vt -0.0042512998916208744 0.57281798124313354
vt 0.0042513399384915829 0.57281798124313354
vt 0.014225199818611145 -0.0082129202783107758
vt 0.0042513301596045494 0.57281798124313354
vt -0.0042512998916208744 0.57281798124313354
vt 0.0042513199150562286 0.57281798124313354
vt 0.016425799578428268 2.4802300213622175E-09
vt -0.0042513199150562286 0.57281798124313354
vt 0.0042513101361691952 0.57281798124313354
vt -0.0042513301596045494 0.57281798124313354
vt 0.014225199818611145 0.0082129295915365219
vt -0.0042513399384915829 0.57281798124313354
vt 0.0082128997892141342 0.014225199818611145
vt 0.0042512998916208744 0.57281798124313354
vt 0.0042513101361691952 0.57281798124313354
vt -2.2991500259195163E-08 0.016425900161266327
vt -0.0042513501830399036 0.57281798124313354
vt -0.0042513399384915829 1.5728199481964111
vt 0.014225199818611145 -0.0082129398360848427
vt 0.0042512901127338409 1.5728199481964111
vt -4.4971901758117383E-08 0.016425900161266327
vt 0.0042513702064752579 1.5728199481964111
vt -0.0042512798681855202 1.5728199481964111
vt -0.0042512901127338409 1.5728199481964111
vt -0.0082129696384072304 0.014225199818611145
vt 0.0042513702064752579 1.5728199481964111
vt -0.0042513101361691952 1.5728199481964111
vt -0.014225300401449203 0.0082129295915365219
vt 0.0042513501830399036 1.5728199481964111
vt 0.0042513399384915829 1.5728199481964111
vt -0.0042513399384915829 1.5728199481964111
vt -0.016425900161266327 2.4802300213622175E-09
vt -0.014225300401449203 -0.0082129202783107758
vt 0.0042513101361691952 1.5728199481964111
vt -0.0042513501830399036 1.5728199481964111
vt -0.0082129798829555511 -0.014225199818611145
vt 0.0042512901127338409 1.5728199481964111
vt -0.0042513702064752579 1.5728199481964111
vt -5.1890499008777624E-08 -0.016425900161266327
vt 0.0042512798681855202 1.5728199481964111
vt -0.0042513702064752579 1.5728199481964111
vt 0.0082128699868917465 -0.014225199818611145
vt -0.0042513501830399036 1.5728199481964111
vt 0.0042512798681855202 1.5728199481964111
vn -0.45970112085342407 0.76909422874450684 -0.44403710961341858
vn -0.45970112085342407 0.76909422874450684 -0.44403710961341858
vn -0.45970112085342407 0.76909422874450684 -0.44403710961341858
vn 0.45970076322555542 0.76909464597702026 -0.44403678178787231
vn 0.45970076322555542 0.76909464597702026 -0.44403678178787231
vn 0.45970076322555542 0.76909464597702026 -0.44403678178787231
vn 0.45970112085342407 0.44403710961341858 -0.76909422874450684
vn 0.45970112085342407 0.44403710961341858 -0.76909422874450684
vn 0.45970112085342407 0.44403710961341858 -0.76909422874450684
vn -0.45970112085342407 0.44403710961341858 -0.76909422874450684
vn -0.45970112085342407 0.44403710961341858 -0.76909422874450684
vn -0.45970112085342407 0.44403710961341858 -0.76909422874450684
vn 0.45970091223716736 0.88807380199432373 9.8233776668621431E-08
vn 0.45970091223716736 0.88807380199432373 9.8233776668621431E-08
vn 0.45970091223716736 0.88807380199432373 9.8233776668621431E-08
vn -0.45970091223716736 0.88807380199432373 9.8233776668621431E-08
vn -0.45970091223716736 0.88807380199432373 9.8233776668621431E-08
vn -0.45970091223716736 0.88807380199432373 9.8233776668621431E-08
vn 0.45970112085342407 0.76909422874450684 0.44403710961341858
vn 0.45970112085342407 0.76909422874450684 0.44403710961341858
vn 0.45970112085342407 0.76909422874450684 0.44403710961341858
vn 0.45970076322555542 0.44403678178787231 0.76909464597702026
vn 0.45970076322555542 0.44403678178787231 0.76909464597702026
vn 0.45970076322555542 0.44403678178787231 0.76909464597702026
vn 0.45970091223716736 -2.7750891717914783E-07 0.88807380199432373
vn 0.45970091223716736 -2.7750891717914783E-07 0.88807380199432373
vn 0.45970091223716736 -2.7750891717914783E-07 0.88807380199432373
vn 0.45970112085342407 -0.44403710961341858 0.76909422874450684
vn 0.45970112085342407 -0.44403710961341858 0.76909422874450684
vn 0.45970112085342407 -0.44403710961341858 0.76909422874450684
vn 0.45970112085342407 -0.76909422874450684 0.44403710961341858
vn 0.45970112085342407 -0.76909422874450684 0.44403710961341858
vn 0.45970112085342407 -0.76909422874450684 0.44403710961341858
vn 0.45970091223716736 -0.88807380199432373 -5.7872689751548023E-08
vn 0.45970091223716736 -0.88807380199432373 -5.7872689751548023E-08
vn 0.45970091223716736 -0.88807380199432373 -5.7872689751548023E-08
vn 0.45970112085342407 -0.76909422874450684 -0.44403710961341858
vn 0.45970112085342407 -0.76909422874450684 -0.44403710961341858
vn 0.45970112085342407 -0.76909422874450684 -0.44403710961341858
vn 0.45970112085342407 -0.44403710961341858 -0.76909422874450684
vn 0.45970112085342407 -0.44403710961341858 -0.76909422874450684
vn 0.45970112085342407 -0.44403710961341858 -0.76909422874450684
vn 0.45970091223716736 1.8922796130027564E-07 -0.88807380199432373
vn 0.45970091223716736 1.8922796130027564E-07 -0.88807380199432373
vn 0.45970091223716736 1.8922796130027564E-07 -0.88807380199432373
vn -0.45970112085342407 0.76909422874450684 0.44403710961341858
vn -0.45970112085342407 0.76909422874450684 0.44403710961341858
vn -0.45970112085342407 0.76909422874450684 0.44403710961341858
vn -0.45970091223716736 3.9438091903321038E-08 -0.88807380199432373
vn -0.45970091223716736 3.9438091903321038E-08 -0.88807380199432373
vn -0.45970091223716736 3.9438091903321038E-08 -0.88807380199432373
vn -0.45970112085342407 -0.44403710961341858 -0.76909422874450684
vn -0.45970112085342407 -0.44403710961341858 -0.76909422874450684
vn -0.45970112085342407 -0.44403710961341858 -0.76909422874450684
vn -0.45970076322555542 -0.76909464597702026 -0.44403678178787231
vn -0.45970076322555542 -0.76909464597702026 -0.44403678178787231
vn -0.45970076322555542 -0.76909464597702026 -0.44403678178787231
vn -0.45970091223716736 -0.88807380199432373 -5.7872689751548023E-08
vn -0.45970091223716736 -0.88807380199432373 -5.7872689751548023E-08
vn -0.45970091223716736 -0.88807380199432373 -5.7872689751548023E-08
vn -0.45970076322555542 -0.76909464597702026 0.44403678178787231
vn -0.45970076322555542 -0.76909464597702026 0.44403678178787231
vn -0.45970076322555542 -0.76909464597702026 0.44403678178787231
vn -0.45970112085342407 -0.44403710961341858 0.76909422874450684
vn -0.45970112085342407 -0.44403710961341858 0.76909422874450684
vn -0.45970112085342407 -0.44403710961341858 0.76909422874450684
vn -0.45970091223716736 -4.272979197139648E-07 0.88807380199432373
vn -0.45970091223716736 -4.272979197139648E-07 0.88807380199432373
vn -0.45970091223716736 -4.272979197139648E-07 0.88807380199432373
vn -0.45970097184181213 0.44403597712516785 0.76909494400024414
vn -0.45970097184181213 0.44403597712516785 0.76909494400024414
vn -0.45970097184181213 0.44403597712516785 0.76909494400024414
f 1/1/1 4/4/4 8/8/8 10/10/10
f 13/13/13 5/5/5 2/2/2 16/16/16
f 6/6/6 14/14/14 9/9/9
f 14/14/14 19/19/19 22/22/22
f 22/22/22 25/25/25 28/28/28
f 28/28/28 31/31/31 22/22/22
f 31/31/31 35/35/35 39/39/39
f 39/39/39 41/41/41 44/44/44
f 44/44/44 9/9/9 14/14/14
f 14/14/14 22/22/22 44/44/44
f 22/22/22 31/31/31 39/39/39
f 22/22/22 39/39/39 44/44/44
f 20/20/20 15/15/15 17/17/17 46/46/46
f 18/18/18 3/3/3 11/11/11
f 11/11/11 49/49/49 18/18/18
f 49/49/49 53/53/53 56/56/56
f 56/56/56 60/60/60 61/61/61
f 61/61/61 64/64/64 70/70/70
f 64/64/64 67/67/67 70/70/70
f 70/70/70 47/47/47 18/18/18
f 18/18/18 49/49/49 70/70/70
f 56/56/56 61/61/61 70/70/70
f 56/56/56 70/70/70 49/49/49
f 7/7/7 43/43/43 50/50/50 12/12/12
f 45/45/45 42/42/42 54/54/54 51/51/51
f 40/40/40 37/37/37 57/57/57 52/52/52
f 38/38/38 34/34/34 58/58/58 55/55/55
f 36/36/36 32/32/32 62/62/62 59/59/59
f 33/33/33 30/30/30 65/65/65 63/63/63
f 29/29/29 27/27/27 68/68/68 66/66/66
f 26/26/26 24/24/24 72/72/72 69/69/69
f 23/23/23 21/21/21 48/48/48 71/71/71
