# Rhino

mtllib chair_138_06.mtl
usemtl diffuse_127_255_0_255
v 440.73199999999997 0 -524
v 440.73199999999997 0 -524
v 440.73199999999997 0 -524
v 440.73199999999997 0 -524
v 415.73199999999997 0 -524
v 415.73199999999997 0 -524
v 415.73199999999997 0 -524
v 440.73199999999997 362.637 -509
v 440.73199999999997 362.637 -509
v 440.73199999999997 362.637 -509
v 442.73200000000003 0 -521.99800000000005
v 442.73200000000003 0 -521.99800000000005
v 442.73200000000003 0 -521.99800000000005
v 415.73199999999997 0 -494
v 415.73199999999997 0 -494
v 415.73199999999997 0 -494
v 413.73199999999997 0 -496.00799999999998
v 413.73199999999997 0 -496.00799999999998
v 413.73199999999997 0 -496.00799999999998
v 415.214 0 -494.06799999999998
v 415.214 0 -494.06799999999998
v 415.214 0 -494.06799999999998
v 414 0 -495.00400000000002
v 414 0 -495.00400000000002
v 414 0 -495.00400000000002
v 414 0 -495.00400000000002
v 414.73199999999997 0 -494.26900000000001
v 414.73199999999997 0 -494.26900000000001
v 414.73199999999997 0 -494.26900000000001
v 414.73199999999997 0 -494.26900000000001
v 414 362.637 -461.00400000000002
v 414 362.637 -461.00400000000002
v 414 362.637 -461.00400000000002
v 414 362.637 -461.00400000000002
v 414.73199999999997 362.637 -460.26900000000001
v 414.73199999999997 362.637 -460.26900000000001
v 414.73199999999997 362.637 -460.26900000000001
v 415.214 362.637 -460.06799999999998
v 415.214 362.637 -460.06799999999998
v 415.214 362.637 -460.06799999999998
v 413.73199999999997 362.637 -462.00800000000004
v 413.73199999999997 362.637 -462.00800000000004
v 413.73199999999997 362.637 -462.00800000000004
v 413.73199999999997 362.637 -462.00800000000004
v 415.73199999999997 362.637 -460
v 415.73199999999997 362.637 -460
v 415.73199999999997 362.637 -460
v 415.73199999999997 362.637 -460
v 413.73199999999997 362.637 -506.99800000000005
v 413.73199999999997 362.637 -506.99800000000005
v 413.73199999999997 362.637 -506.99800000000005
v 415.73199999999997 362.637 -509
v 415.73199999999997 362.637 -509
v 415.73199999999997 362.637 -509
v 415.73199999999997 362.637 -509
v 413.88399999999996 362.637 -507.76400000000001
v 413.88399999999996 362.637 -507.76400000000001
v 413.88399999999996 362.637 -507.76400000000001
v 413.88399999999996 362.637 -507.76400000000001
v 414.31800000000004 362.637 -508.41399999999999
v 414.31800000000004 362.637 -508.41399999999999
v 414.31800000000004 362.637 -508.41399999999999
v 414.31800000000004 362.637 -508.41399999999999
v 413.88399999999996 0 -522.76400000000001
v 413.88399999999996 0 -522.76400000000001
v 413.88399999999996 0 -522.76400000000001
v 413.88399999999996 0 -522.76400000000001
v 413.73199999999997 0 -521.99800000000005
v 413.73199999999997 0 -521.99800000000005
v 413.73199999999997 0 -521.99800000000005
v 413.73199999999997 0 -521.99800000000005
v 414.96699999999998 0 -523.84799999999996
v 414.96699999999998 0 -523.84799999999996
v 414.96699999999998 0 -523.84799999999996
v 414.96699999999998 0 -523.84799999999996
v 414.31800000000004 0 -523.41399999999999
v 414.31800000000004 0 -523.41399999999999
v 414.31800000000004 0 -523.41399999999999
v 414.31800000000004 0 -523.41399999999999
v 414.96699999999998 362.637 -508.84799999999996
v 414.96699999999998 362.637 -508.84799999999996
v 414.96699999999998 362.637 -508.84799999999996
v 414.96699999999998 362.637 -508.84799999999996
v 442.73200000000003 362.637 -506.99800000000005
v 442.73200000000003 362.637 -506.99800000000005
v 442.73200000000003 362.637 -506.99800000000005
v 442.73200000000003 362.637 -506.99800000000005
v 442.58000000000004 362.637 -507.76400000000001
v 442.58000000000004 362.637 -507.76400000000001
v 442.58000000000004 362.637 -507.76400000000001
v 441.49700000000001 362.637 -508.84799999999996
v 441.49700000000001 362.637 -508.84799999999996
v 441.49700000000001 362.637 -508.84799999999996
v 441.49700000000001 362.637 -508.84799999999996
v 442.14599999999996 362.637 -508.41399999999999
v 442.14599999999996 362.637 -508.41399999999999
v 442.14599999999996 362.637 -508.41399999999999
v 442.14599999999996 362.637 -508.41399999999999
v 441.49700000000001 0 -523.84799999999996
v 441.49700000000001 0 -523.84799999999996
v 441.49700000000001 0 -523.84799999999996
v 441.49700000000001 0 -523.84799999999996
v 442.14599999999996 0 -523.41399999999999
v 442.14599999999996 0 -523.41399999999999
v 442.14599999999996 0 -523.41399999999999
v 442.14599999999996 0 -523.41399999999999
v 442.58000000000004 0 -522.76400000000001
v 442.58000000000004 0 -522.76400000000001
v 442.58000000000004 0 -522.76400000000001
v 442.58000000000004 0 -522.76400000000001
v 442.73200000000003 362.637 -462.00800000000004
v 442.73200000000003 362.637 -462.00800000000004
v 442.73200000000003 362.637 -462.00800000000004
v 442.73200000000003 0 -496.00799999999998
v 442.73200000000003 0 -496.00799999999998
v 442.73200000000003 0 -496.00799999999998
v 442.73200000000003 0 -496.00799999999998
v 440.73199999999997 0 -494
v 440.73199999999997 0 -494
v 440.73199999999997 0 -494
v 440.73199999999997 0 -494
v 442.58000000000004 0 -495.24000000000001
v 442.58000000000004 0 -495.24000000000001
v 442.58000000000004 0 -495.24000000000001
v 442.58000000000004 0 -495.24000000000001
v 441.49700000000001 0 -494.15300000000002
v 441.49700000000001 0 -494.15300000000002
v 441.49700000000001 0 -494.15300000000002
v 442.14599999999996 0 -494.58799999999997
v 442.14599999999996 0 -494.58799999999997
v 442.14599999999996 0 -494.58799999999997
v 442.14599999999996 0 -494.58799999999997
v 441.49700000000001 362.637 -460.15300000000002
v 441.49700000000001 362.637 -460.15300000000002
v 441.49700000000001 362.637 -460.15300000000002
v 441.49700000000001 362.637 -460.15300000000002
v 440.73199999999997 362.637 -460
v 440.73199999999997 362.637 -460
v 440.73199999999997 362.637 -460
v 442.58000000000004 362.637 -461.24000000000001
v 442.58000000000004 362.637 -461.24000000000001
v 442.58000000000004 362.637 -461.24000000000001
v 442.58000000000004 362.637 -461.24000000000001
v 442.14599999999996 362.637 -460.58799999999997
v 442.14599999999996 362.637 -460.58799999999997
v 442.14599999999996 362.637 -460.58799999999997
v 442.14599999999996 362.637 -460.58799999999997
vt 0 0.07874009758234024
vt 0 0.07874009758234024
vt 0 0.077227100729942322
vt 0 0.077226996421813965
vt 0 1.0629899501800537
vt 0 1.0629899501800537
vt 0 1.0425699949264526
vt -14.578900337219238 0.07874009758234024
vt -0.59055101871490479 0.07874009758234024
vt -14.578900337219238 0.077226996421813965
vt 0.078804798424243927 0
vt -0.0031921700574457645 -0.077227197587490082
vt -0.078804798424243927 0
vt 1.1811000108718872 1.0629899501800537
vt 0.1080780029296875 1.0629899501800537
vt 0.1080780029296875 0.90037000179290771
vt 1.1020300388336182 1.1417299509048462
vt 1.1020300388336182 0
vt 0.10084299743175507 -0.76451301574707031
vt 1.1784100532531738 1.0833699703216553
vt 0.10783199965953827 0.5518450140953064
vt 0.10783199965953827 0.92092502117156982
vt 1.141569972038269 1.1311800479888916
vt 0.10446099936962128 -0.0039509199559688568
vt 0.10446099936962128 -0.80527198314666748
vt 0.10446099936962128 -0.80526798963546753
vt 1.1705100536346436 1.1023600101470947
vt 0.10710900276899338 -0.044709701091051102
vt 0.10710900276899338 -0.044720601290464401
vt 0.10710900276899338 0.57239997386932373
vt 14.732799530029297 -0.0039509199559688568
vt 14.732799530029297 -0.0039615500718355179
vt -2.4801499843597412 1.1311800479888916
vt 14.732799530029297 -0.80526798963546753
vt 14.735400199890137 -0.044720601290464401
vt 14.735400199890137 0.57239997386932373
vt -2.5090899467468262 1.1023600101470947
vt 14.736100196838379 0.5518450140953064
vt -2.5169899463653564 1.0833699703216553
vt 14.736100196838379 0.92092502117156982
vt -2.4406099319458008 1.1417299509048462
vt 2.4406099319458008 14.566900253295898
vt 14.729100227355957 -0.76451301574707031
vt 14.729100227355957 -0.76450997591018677
vt -2.5196900367736816 1.0629899501800537
vt 14.73639965057373 1.0629899501800537
vt 14.73639965057373 1.0629899501800537
vt 14.73639965057373 0.90037000179290771
vt -0.66935598850250244 1.1417299509048462
vt -14.582099914550781 0.29996800422668457
vt 0.66935598850250244 14.566900253295898
vt -14.578900337219238 1.0629899501800537
vt -0.59055101871490479 1.0629899501800537
vt -14.578900337219238 1.0425699949264526
vt -14.578900337219238 1.0425699949264526
vt -0.63919901847839355 1.1357400417327881
vt -14.580900192260742 0.6714019775390625
vt -14.580900192260742 0.269243985414505
vt -14.580900192260742 0.26924601197242737
vt -0.61363297700881958 1.1186699867248535
vt -14.579799652099609 0.6406790018081665
vt -14.579799652099609 0.64068001508712769
vt -14.579799652099609 0.9429510235786438
vt 0.048647500574588776 1.1357400417327881
vt -0.001970580080524087 0.6714019775390625
vt -0.001970580080524087 0.67140299081802368
vt -0.001970580080524087 0.269243985414505
vt 0.078804798424243927 1.1417299509048462
vt -0.0031921700574457645 0.29996699094772339
vt -0.0031921700574457645 0.29996800422668457
vt 0.078804798424243927 0
vt 0.0059986300766468048 1.0931199789047241
vt -0.00024298799689859152 0.91222697496414185
vt -0.00024298799689859152 1.0732899904251099
vt -0.00024298799689859152 1.0732899904251099
vt 0.023081399500370026 1.1186699867248535
vt -0.00093496497720479965 0.64068001508712769
vt -0.00093496497720479965 0.94294899702072144
vt -0.00093496497720479965 0.9429510235786438
vt -0.59654998779296875 1.0931199789047241
vt -14.579099655151367 0.91222697496414185
vt -14.579099655151367 0.91222798824310303
vt -14.579099655151367 1.0732899904251099
vt -0.66935598850250244 0
vt -14.582099914550781 -0.077226996421813965
vt -14.582099914550781 -0.077227197587490082
vt -0.66935598850250244 14.566900253295898
vt -0.63919901847839355 0.005993689876049757
vt -14.580900192260742 -0.037085801362991333
vt -14.580900192260742 -0.046504300087690353
vt -0.59654998779296875 0.04860759899020195
vt -14.579099655151367 0.037085801362991333
vt -14.579099655151367 0.046504300087690353
vt -14.579099655151367 0.046504098922014236
vt -0.61363297700881958 0.02306240051984787
vt -14.579799652099609 0.0063629900105297565
vt -14.579799652099609 0.0063628600910305977
vt -14.579799652099609 -0.0063629499636590481
vt 0.0059986300766468048 0.04860759899020195
vt -0.00024298799689859152 0.037085801362991333
vt -0.00024298799689859152 0.046504300087690353
vt -0.00024298799689859152 0.037085801362991333
vt 0.023081399500370026 0.02306240051984787
vt -0.00093496497720479965 0.0063628600910305977
vt -0.00093496497720479965 -0.0063629499636590481
vt -0.00093496497720479965 -0.0063629299402236938
vt 0.048647500574588776 0.005993689876049757
vt -0.001970580080524087 -0.037085801362991333
vt -0.001970580080524087 -0.046504300087690353
vt -0.001970580080524087 -0.046504300087690353
vt -2.4406099319458008 0
vt -2.4406099319458008 14.566900253295898
vt 14.729100227355957 1.0763200521469116
vt 1.1020300388336182 0
vt -1.1020300388336182 0
vt 0.10084299743175507 1.0763200521469116
vt 0.10084299743175507 1.0763200521469116
vt 1.1811000108718872 0.07874009758234024
vt 0.1080780029296875 0.30667901039123535
vt 0.1080780029296875 0.07874009758234024
vt 0.1080780029296875 0.07874009758234024
vt 1.1322900056838989 0.005993689876049757
vt 0.10361199826002121 0.94084900617599487
vt 0.10361199826002121 0.94084000587463379
vt 0.10361199826002121 1.1070400476455688
vt 1.1750799417495728 0.04860759899020195
vt 0.10752800107002258 0.69051599502563477
vt 0.10752800107002258 0.27595600485801697
vt 1.1579400300979614 0.02306240051984787
vt 0.10595899820327759 0.65979301929473877
vt 0.10595899820327759 0.65980297327041626
vt 0.10595899820327759 0.97157198190689087
vt -2.5136699676513672 0.04860759899020195
vt 14.735799789428711 0.69051599502563477
vt 14.735799789428711 0.27595600485801697
vt 14.735799789428711 0.69052600860595703
vt -2.5196900367736816 0.07874009758234024
vt 14.73639965057373 0.30667901039123535
vt 14.73639965057373 0.07874009758234024
vt -2.4708700180053711 0.005993689876049757
vt 14.731900215148926 0.94084000587463379
vt 14.731900215148926 1.1070400476455688
vt 14.731900215148926 1.1070400476455688
vt -2.4965300559997559 0.02306240051984787
vt 14.734299659729004 0.65980297327041626
vt 14.734299659729004 0.97157198190689087
vt 14.734299659729004 0.97156202793121338
vn 0 0.039702482521533966 -0.99921154975891113
vn 0 -1 0
vn 0.1950959712266922 0.038939595222473145 -0.98001086711883545
vn 0.19510194659233093 0.038939487189054489 -0.98000967502593994
vn 0 0.039702482521533966 -0.99921154975891113
vn 0 -1 0
vn -0.19509501755237579 0.038939502090215683 -0.98001104593276978
vn 0 0.039702482521533966 -0.99921154975891113
vn 0 1 0
vn 0.19510194659233093 0.038939487189054489 -0.98000967502593994
vn 0 -1 0
vn 0.98078680038452148 0.0077452580444514751 -0.19492895901203156
vn 1 0 0
vn 0 -1 0
vn 0 -0.089700184762477875 0.99596881866455078
vn -0.13055504858493805 -0.088932439684867859 0.98744440078735352
vn 0 -1 0
vn -1 0 0
vn -0.96593677997589111 -0.02321249432861805 0.25773495435714722
vn 0 -1 0
vn -0.38273411989212036 -0.082870319485664368 0.92013430595397949
vn -0.13055504858493805 -0.088932439684867859 0.98744440078735352
vn 0 -1 0
vn -0.70716315507888794 -0.063422515988349915 0.70420020818710327
vn -0.96593677997589111 -0.02321249432861805 0.25773495435714722
vn -0.96593594551086426 -0.023212699219584465 0.25773799419403076
vn 0 -1 0
vn -0.70716315507888794 -0.063422515988349915 0.70420020818710327
vn -0.7071681022644043 -0.063422113656997681 0.70419520139694214
vn -0.38273411989212036 -0.082870319485664368 0.92013430595397949
vn -0.70716315507888794 -0.063422515988349915 0.70420020818710327
vn -0.7071681022644043 -0.063422113656997681 0.70419520139694214
vn 0 1 0
vn -0.96593594551086426 -0.023212699219584465 0.25773799419403076
vn -0.7071681022644043 -0.063422113656997681 0.70419520139694214
vn -0.38273411989212036 -0.082870319485664368 0.92013430595397949
vn 0 1 0
vn -0.38273411989212036 -0.082870319485664368 0.92013430595397949
vn 0 1 0
vn -0.13055504858493805 -0.088932439684867859 0.98744440078735352
vn 0 1 0
vn -1 0 0
vn -0.96593677997589111 -0.02321249432861805 0.25773495435714722
vn -0.96593594551086426 -0.023212699219584465 0.25773799419403076
vn 0 1 0
vn 0 -0.089700184762477875 0.99596881866455078
vn 0 -0.089700184762477875 0.99596881866455078
vn -0.13055504858493805 -0.088932439684867859 0.98744440078735352
vn 0 1 0
vn -0.98078638315200806 0.0077453330159187317 -0.19493106007575989
vn -1 0 0
vn 0 0.039702482521533966 -0.99921154975891113
vn 0 1 0
vn -0.19510094821453094 0.038939494639635086 -0.98000985383987427
vn -0.19509501755237579 0.038939502090215683 -0.98001104593276978
vn 0 1 0
vn -0.83147507905960083 0.022057199850678444 -0.55512404441833496
vn -0.98078680038452148 0.0077452883124351501 -0.19492895901203156
vn -0.98078638315200806 0.0077453330159187317 -0.19493106007575989
vn 0 1 0
vn -0.83147507905960083 0.022057199850678444 -0.55512404441833496
vn -0.83147507905960083 0.022057199850678444 -0.55512404441833496
vn -0.55558508634567261 0.033011004328727722 -0.83080410957336426
vn 0 -1 0
vn -0.83147507905960083 0.022057199850678444 -0.55512404441833496
vn -0.83147507905960083 0.022057199850678444 -0.55512404441833496
vn -0.98078680038452148 0.0077452883124351501 -0.19492895901203156
vn 0 -1 0
vn -0.98078680038452148 0.0077452883124351501 -0.19492895901203156
vn -0.98078638315200806 0.0077453330159187317 -0.19493106007575989
vn -1 0 0
vn 0 -1 0
vn -0.55558693408966064 0.033010896295309067 -0.83080291748046875
vn -0.19510094821453094 0.038939494639635086 -0.98000985383987427
vn -0.19509501755237579 0.038939502090215683 -0.98001104593276978
vn 0 -1 0
vn -0.83147507905960083 0.022057199850678444 -0.55512404441833496
vn -0.55558693408966064 0.033010896295309067 -0.83080291748046875
vn -0.55558508634567261 0.033011004328727722 -0.83080410957336426
vn 0 1 0
vn -0.55558693408966064 0.033010896295309067 -0.83080291748046875
vn -0.55558508634567261 0.033011004328727722 -0.83080410957336426
vn -0.19510094821453094 0.038939494639635086 -0.98000985383987427
vn 0 1 0
vn 0.98078656196594238 0.0077453074045479298 -0.19492994248867035
vn 0.98078680038452148 0.0077452580444514751 -0.19492895901203156
vn 1 0 0
vn 0 1 0
vn 0.8314778208732605 0.022056996822357178 -0.55511993169784546
vn 0.98078656196594238 0.0077453074045479298 -0.19492994248867035
vn 0 1 0
vn 0.55558091402053833 0.033011093735694885 -0.8308069109916687
vn 0.1950959712266922 0.038939595222473145 -0.98001086711883545
vn 0.19510194659233093 0.038939487189054489 -0.98000967502593994
vn 0 1 0
vn 0.55558091402053833 0.033011093735694885 -0.8308069109916687
vn 0.55558323860168457 0.033011015504598618 -0.83080536127090454
vn 0.8314778208732605 0.022056996822357178 -0.55511993169784546
vn 0 -1 0
vn 0.55558091402053833 0.033011093735694885 -0.8308069109916687
vn 0.1950959712266922 0.038939595222473145 -0.98001086711883545
vn 0.55558323860168457 0.033011015504598618 -0.83080536127090454
vn 0 -1 0
vn 0.55558323860168457 0.033011015504598618 -0.83080536127090454
vn 0.8314778208732605 0.022056996822357178 -0.55511993169784546
vn 0.8314778208732605 0.022056996822357178 -0.55511993169784546
vn 0 -1 0
vn 0.8314778208732605 0.022056996822357178 -0.55511993169784546
vn 0.98078656196594238 0.0077453074045479298 -0.19492994248867035
vn 0.98078680038452148 0.0077452580444514751 -0.19492895901203156
vn 0 1 0
vn 1 0 0
vn 0.98079222440719604 -0.017496503889560699 0.19426906108856201
vn 0 -1 0
vn 1 0 0
vn 0.98079168796539307 -0.017496794462203979 0.19427193701267242
vn 0.98079222440719604 -0.017496503889560699 0.19426906108856201
vn 0 -1 0
vn 0.19511896371841431 -0.087976083159446716 0.97682589292526245
vn 0 -0.089700184762477875 0.99596881866455078
vn 0 -0.089700184762477875 0.99596881866455078
vn 0 -1 0
vn 0.83151578903198242 -0.049828581511974335 0.55326181650161743
vn 0.83150774240493774 -0.049829587340354919 0.55327379703521729
vn 0.98079168796539307 -0.017496794462203979 0.19427193701267242
vn 0 -1 0
vn 0.55563187599182129 -0.074579276144504547 0.82807677984237671
vn 0.19511896371841431 -0.087976083159446716 0.97682589292526245
vn 0 -1 0
vn 0.55563187599182129 -0.074579276144504547 0.82807677984237671
vn 0.55564087629318237 -0.07457868754863739 0.82807081937789917
vn 0.83151578903198242 -0.049828581511974335 0.55326181650161743
vn 0 1 0
vn 0.55563187599182129 -0.074579276144504547 0.82807677984237671
vn 0.19511896371841431 -0.087976083159446716 0.97682589292526245
vn 0.55564087629318237 -0.07457868754863739 0.82807081937789917
vn 0 1 0
vn 0.19511896371841431 -0.087976083159446716 0.97682589292526245
vn 0 -0.089700184762477875 0.99596881866455078
vn 0 1 0
vn 0.83150774240493774 -0.049829587340354919 0.55327379703521729
vn 0.98079168796539307 -0.017496794462203979 0.19427193701267242
vn 0.98079222440719604 -0.017496503889560699 0.19426906108856201
vn 0 1 0
vn 0.55564087629318237 -0.07457868754863739 0.82807081937789917
vn 0.83151578903198242 -0.049828581511974335 0.55326181650161743
vn 0.83150774240493774 -0.049829587340354919 0.55327379703521729
f 1/1/1 5/5/5 8/8/8
f 11/11/11 6/6/6 2/2/2
f 14/14/14 6/6/6 11/11/11
f 14/14/14 17/17/17 6/6/6
f 20/20/20 17/17/17 14/14/14
f 20/20/20 23/23/23 17/17/17
f 27/27/27 23/23/23 20/20/20
f 28/28/28 31/31/31 24/24/24
f 29/29/29 35/35/35 32/32/32
f 38/38/38 36/36/36 30/30/30
f 39/39/39 41/41/41 37/37/37
f 45/45/45 41/41/41 39/39/39
f 45/45/45 49/49/49 41/41/41
f 53/53/53 49/49/49 45/45/45
f 53/53/53 56/56/56 49/49/49
f 60/60/60 56/56/56 53/53/53
f 65/65/65 57/57/57 61/61/61
f 69/69/69 58/58/58 67/67/67
f 70/70/70 50/50/50 59/59/59
f 18/18/18 51/51/51 71/71/71
f 42/42/42 51/51/51 18/18/18
f 25/25/25 43/43/43 19/19/19
f 26/26/26 34/34/34 44/44/44
f 41/41/41 33/33/33 37/37/37
f 68/68/68 6/6/6 17/17/17
f 64/64/64 6/6/6 68/68/68
f 64/64/64 72/72/72 6/6/6
f 76/76/76 72/72/72 64/64/64
f 78/78/78 81/81/81 73/73/73
f 79/79/79 63/63/63 82/82/82
f 66/66/66 62/62/62 77/77/77
f 53/53/53 80/80/80 60/60/60
f 74/74/74 83/83/83 54/54/54
f 75/75/75 55/55/55 7/7/7
f 8/8/8 5/5/5 52/52/52
f 84/84/84 9/9/9 53/53/53
f 88/88/88 9/9/9 84/84/84
f 88/88/88 91/91/91 9/9/9
f 95/95/95 91/91/91 88/88/88
f 100/100/100 92/92/92 96/96/96
f 3/3/3 93/93/93 101/101/101
f 4/4/4 10/10/10 94/94/94
f 2/2/2 99/99/99 103/103/103
f 102/102/102 97/97/97 104/104/104
f 105/105/105 98/98/98 89/89/89
f 106/106/106 89/89/89 108/108/108
f 109/109/109 90/90/90 85/85/85
f 110/110/110 86/86/86 12/12/12
f 112/112/112 13/13/13 87/87/87
f 115/115/115 13/13/13 112/112/112
f 114/114/114 14/14/14 11/11/11
f 114/114/114 118/118/118 14/14/14
f 122/122/122 118/118/118 114/114/114
f 122/122/122 126/126/126 118/118/118
f 129/129/129 126/126/126 122/122/122
f 134/134/134 127/127/127 130/130/130
f 138/138/138 128/128/128 135/135/135
f 138/138/138 119/119/119 128/128/128
f 139/139/139 46/46/46 120/120/120
f 111/111/111 45/45/45 137/137/137
f 111/111/111 53/53/53 45/45/45
f 84/84/84 53/53/53 111/111/111
f 137/137/137 140/140/140 111/111/111
f 137/137/137 144/144/144 140/140/140
f 133/133/133 144/144/144 137/137/137
f 136/136/136 131/131/131 145/145/145
f 146/146/146 132/132/132 123/123/123
f 147/147/147 124/124/124 141/141/141
f 142/142/142 125/125/125 116/116/116
f 143/143/143 117/117/117 113/113/113
f 121/121/121 47/47/47 15/15/15
f 16/16/16 48/48/48 22/22/22
f 22/22/22 48/48/48 40/40/40
f 21/21/21 38/38/38 30/30/30
f 11/11/11 2/2/2 107/107/107
f 107/107/107 2/2/2 103/103/103
