# Rhino

mtllib chair_032_06.mtl
usemtl diffuse_127_255_0_255
v 218.989 5.2976900000000002 1.7129399999999999
v 218.989 5.2976900000000002 1.7129399999999999
v 218.989 5.2976900000000002 1.7129399999999999
v 207.90899999999999 453.34300000000002 -25.019600000000001
v 207.90899999999999 453.34300000000002 -25.019600000000001
v 207.90899999999999 453.34300000000002 -25.019600000000001
v 190.27600000000001 452.16699999999997 -7.2458299999999998
v 190.27600000000001 452.16699999999997 -7.2458299999999998
v 190.27600000000001 452.16699999999997 -7.2458299999999998
v 190.27600000000001 452.16699999999997 -7.2458299999999998
v 201.327 5.2976900000000002 19.416599999999999
v 201.327 5.2976900000000002 19.416599999999999
v 201.327 5.2976900000000002 19.416599999999999
v 216.505 0.263465 -0.59654600000000002
v 216.505 0.263465 -0.59654600000000002
v 216.505 0.263465 -0.59654600000000002
v 215.36799999999999 0 -1.72481
v 215.36799999999999 0 -1.72481
v 215.36799999999999 0 -1.72481
v 194.124 0 -22.982199999999999
v 194.124 0 -22.982199999999999
v 194.124 0 -22.982199999999999
v 192.82599999999999 0.35259699999999999 -24.292899999999999
v 192.82599999999999 0.35259699999999999 -24.292899999999999
v 192.82599999999999 0.35259699999999999 -24.292899999999999
v 191.72399999999999 1.3607800000000001 -25.431100000000001
v 191.72399999999999 1.3607800000000001 -25.431100000000001
v 191.72399999999999 1.3607800000000001 -25.431100000000001
v 190.97200000000001 2.8821300000000001 -26.2362
v 190.97200000000001 2.8821300000000001 -26.2362
v 190.97200000000001 2.8821300000000001 -26.2362
v 190.678 4.7022899999999996 -26.5947
v 190.678 4.7022899999999996 -26.5947
v 190.678 4.7022899999999996 -26.5947
v 179.67699999999999 449.56099999999998 -53.137099999999997
v 179.67699999999999 449.56099999999998 -53.137099999999997
v 179.67699999999999 449.56099999999998 -53.137099999999997
v 179.67699999999999 449.56099999999998 -53.137099999999997
v 218.84200000000001 3.6832199999999999 1.6225799999999999
v 218.84200000000001 3.6832199999999999 1.6225799999999999
v 218.84200000000001 3.6832199999999999 1.6225799999999999
v 218.339 2.2075100000000001 1.17025
v 218.339 2.2075100000000001 1.17025
v 218.339 2.2075100000000001 1.17025
v 217.53100000000001 1.0260899999999999 0.40361000000000002
v 217.53100000000001 1.0260899999999999 0.40361000000000002
v 217.53100000000001 1.0260899999999999 0.40361000000000002
v 198.84299999999999 0.263465 17.107099999999999
v 198.84299999999999 0.263465 17.107099999999999
v 198.84299999999999 0.263465 17.107099999999999
v 197.70599999999999 0 15.978899999999999
v 197.70599999999999 0 15.978899999999999
v 197.70599999999999 0 15.978899999999999
v 199.869 1.0260899999999999 18.107299999999999
v 199.869 1.0260899999999999 18.107299999999999
v 199.869 1.0260899999999999 18.107299999999999
v 200.67599999999999 2.2075100000000001 18.873899999999999
v 200.67599999999999 2.2075100000000001 18.873899999999999
v 200.67599999999999 2.2075100000000001 18.873899999999999
v 201.18000000000001 3.6832199999999999 19.3263
v 201.18000000000001 3.6832199999999999 19.3263
v 201.18000000000001 3.6832199999999999 19.3263
v 162.03700000000001 448.63600000000002 -35.378300000000003
v 162.03700000000001 448.63600000000002 -35.378300000000003
v 162.03700000000001 448.63600000000002 -35.378300000000003
v 173.01499999999999 4.7022899999999996 -8.8910099999999996
v 173.01499999999999 4.7022899999999996 -8.8910099999999996
v 173.01499999999999 4.7022899999999996 -8.8910099999999996
v 173.31 2.8821300000000001 -8.5325600000000001
v 173.31 2.8821300000000001 -8.5325600000000001
v 173.31 2.8821300000000001 -8.5325600000000001
v 174.06200000000001 1.3607800000000001 -7.7274099999999999
v 174.06200000000001 1.3607800000000001 -7.7274099999999999
v 174.06200000000001 1.3607800000000001 -7.7274099999999999
v 175.16399999999999 0.35259699999999999 -6.5892600000000003
v 175.16399999999999 0.35259699999999999 -6.5892600000000003
v 175.16399999999999 0.35259699999999999 -6.5892600000000003
v 176.46199999999999 0 -5.2785000000000002
v 176.46199999999999 0 -5.2785000000000002
v 176.46199999999999 0 -5.2785000000000002
vt 0.0010303800227120519 0.056797400116920471
vt -0.041679300367832184 1.7117399409016798E-07
vt -0.0010303800227120519 -3.5234201334333193E-08
vt 0.74932801723480225 0.056797400116920471
vt -0.74932801723480225 1.2779499680704021E-09
vt 0.09525260329246521 0.035478699952363968
vt 0.7463340163230896 0
vt 0.7463340163230896 0
vt 0.046031400561332703 0.029172699898481369
vt 0.053478699177503586 0.035478599369525909
vt 0 0
vt 0 0
vt 0 0
vt 0.00701121985912323 -0.008367929607629776
vt -0.041480500251054764 -0.0094549097120761871
vt -0.041480500251054764 -0.012171399779617786
vt 0.0072906999848783016 -0.012035899795591831
vt -0.041473601013422012 -0.01314259972423315
vt -0.041473601013422012 -0.011339300312101841
vt 0.0043074600398540497 -0.080192796885967255
vt -0.041547399014234543 -0.075941197574138641
vt -0.041547399014234543 -0.079617403447628021
vt 0.0035375698935240507 -0.084328003227710724
vt -0.041566401720046997 -0.064672298729419708
vt -0.041566401720046997 -0.080207400023937225
vt 0.0017024900298565626 -0.0877842977643013
vt -0.041611801832914352 -0.04398920014500618
vt -0.041611801832914352 -0.068938501179218292
vt -0.00093864701921120286 -0.090074799954891205
vt -0.041677098721265793 -0.016790000721812248
vt -0.041677098721265793 -0.048255398869514465
vt -0.004013619851320982 -0.090875901281833649
vt -0.004013619851320982 0.056797400116920471
vt -0.041753098368644714 -0.021056199446320534
vt -0.74698901176452637 -0.090875901281833649
vt 0.087659098207950592 -0.061740700155496597
vt 0.095085099339485168 -0.055452801287174225
vt -0.74698901176452637 0.056797400116920471
vt 0.001639820053242147 -0.00059856398729607463
vt -0.041613299399614334 -0.0034932598937302828
vt -0.041613299399614334 -0.0036874699871987104
vt 0.0040286299772560596 -0.0023312000557780266
vt -0.041554201394319534 -0.0064241900108754635
vt -0.041554201394319534 -0.0071809198707342148
vt 0.0058842799626290798 -0.0050152400508522987
vt -0.041508398950099945 -0.0084837004542350769
vt -0.041508398950099945 -0.010111800394952297
vt 0.00019880000036209822 -0.0094549199566245079
vt 0.00019879800674971193 -0.012171399779617786
vt -0.00804159976541996 -0.0083679100498557091
vt 0.00020571300410665572 -0.01314259972423315
vt 0.00020571300410665572 -0.011339300312101841
vt -0.0083210701122879982 -0.012035800144076347
vt 0.00017095499788410962 -0.0084837600588798523
vt 0.00017095300427172333 -0.010111900046467781
vt -0.0069146598689258099 -0.0050152698531746864
vt 0.00012507400242611766 -0.0064242198131978512
vt 0.00012507199426181614 -0.0071809901855885983
vt -0.0050590001046657562 -0.0023311800323426723
vt 6.6023501858580858E-05 -0.0034933399874716997
vt 6.6018699726555496E-05 -0.0036876499652862549
vt -0.0026702000759541988 -0.00059858500026166439
vt 0.74441498517990112 -0.090875901281833649
vt 0.045912999659776688 -0.061740700155496597
vt -0.74441498517990112 -4.9961199621861851E-09
vt 0.0029832399450242519 -0.090875901281833649
vt -0.0029832399450242519 -1.6304699812508261E-08
vt -7.3786002758424729E-05 -0.02105649933218956
vt -9.1729103587567806E-05 -0.090074799954891205
vt 2.2464701032731682E-06 -0.016790300607681274
vt 2.2461599655798636E-06 -0.048255499452352524
vt -0.0027328599244356155 -0.0877842977643013
vt 6.7540800955612212E-05 -0.043989300727844238
vt 6.7539396695792675E-05 -0.068938501179218292
vt -0.0045679500326514244 -0.084328003227710724
vt 0.00011290200200164691 -0.064672403037548065
vt 0.00011290099791949615 -0.080207496881484985
vt -0.0053378301672637463 -0.080192796885967255
vt 0.00013195199426263571 -0.075941301882266998
vt 0.00013195100473240018 -0.079617403447628021
vn 0.70776212215423584 -0.021939704194664955 0.70611011981964111
vn 0.70776212215423584 -0.021939704194664955 0.70611011981964111
vn 0.70710688829421997 -0.024677695706486702 -0.70667588710784912
vn 0.70667630434036255 0.059540927410125732 0.70502728223800659
vn 0.70710688829421997 -0.024677695706486702 -0.70667588710784912
vn -0.099943555891513824 0.99443250894546509 -0.033395484089851379
vn 0.70667630434036255 0.059540927410125732 0.70502728223800659
vn -0.70710688829421997 0.024677695706486702 0.70667588710784912
vn -0.094231888651847839 0.99494385719299316 -0.034743696451187134
vn -0.094231888651847839 0.99494385719299316 -0.034743696451187134
vn 0.70776212215423584 -0.021939704194664955 0.70611011981964111
vn 0.70776212215423584 -0.021939704194664955 0.70611011981964111
vn -0.70710688829421997 0.024677695706486702 0.70667588710784912
vn 0.70710688829421997 -0.024677695706486702 -0.70667588710784912
vn 0.2267690896987915 -0.94730734825134277 0.22624008357524872
vn 0.2267690896987915 -0.94730734825134277 0.22624008357524872
vn 0.70710688829421997 -0.024677695706486702 -0.70667588710784912
vn 0.057645909488201141 -0.99667918682098389 0.057511411607265472
vn 0.057645909488201141 -0.99667918682098389 0.057511411607265472
vn 0.70710688829421997 -0.024677695706486702 -0.70667588710784912
vn -0.06676192581653595 -0.99554330110549927 -0.066606119275093079
vn -0.06676192581653595 -0.99554330110549927 -0.066606119275093079
vn 0.70710688829421997 -0.024677695706486702 -0.70667588710784912
vn -0.26115405559539795 -0.92947018146514893 -0.2605450451374054
vn -0.26115405559539795 -0.92947018146514893 -0.2605450451374054
vn 0.70710688829421997 -0.024677695706486702 -0.70667588710784912
vn -0.48545199632644653 -0.72785401344299316 -0.48431900143623352
vn -0.48545199632644653 -0.72785401344299316 -0.48431900143623352
vn 0.70710688829421997 -0.024677695706486702 -0.70667588710784912
vn -0.64128535985946655 -0.42358320951461792 -0.63978934288024902
vn -0.64128535985946655 -0.42358320951461792 -0.63978934288024902
vn 0.70710688829421997 -0.024677695706486702 -0.70667588710784912
vn -0.69955176115036011 -0.15341195464134216 -0.69791978597640991
vn -0.69955176115036011 -0.15341195464134216 -0.69791978597640991
vn 0.70710688829421997 -0.024677695706486702 -0.70667588710784912
vn -0.094231888651847839 0.99494385719299316 -0.034743696451187134
vn -0.094231888651847839 0.99494385719299316 -0.034743696451187134
vn -0.70667630434036255 -0.059540927410125732 -0.70502728223800659
vn 0.70710688829421997 -0.024677695706486702 -0.70667588710784912
vn 0.68294119834899902 -0.2633550763130188 0.68134820461273193
vn 0.68294119834899902 -0.2633550763130188 0.68134820461273193
vn 0.70710688829421997 -0.024677695706486702 -0.70667588710784912
vn 0.58723419904708862 -0.55849719047546387 0.58586418628692627
vn 0.58723419904708862 -0.55849719047546387 0.58586418628692627
vn 0.70710688829421997 -0.024677695706486702 -0.70667588710784912
vn 0.42964074015617371 -0.79478150606155396 0.42863872647285461
vn 0.42964074015617371 -0.79478150606155396 0.42863872647285461
vn 0.2267690896987915 -0.94730734825134277 0.22624008357524872
vn 0.2267690896987915 -0.94730734825134277 0.22624008357524872
vn -0.70710688829421997 0.024677695706486702 0.70667588710784912
vn 0.057645909488201141 -0.99667918682098389 0.057511411607265472
vn 0.057645909488201141 -0.99667918682098389 0.057511411607265472
vn -0.70710688829421997 0.024677695706486702 0.70667588710784912
vn 0.42964074015617371 -0.79478150606155396 0.42863872647285461
vn 0.42964074015617371 -0.79478150606155396 0.42863872647285461
vn -0.70710688829421997 0.024677695706486702 0.70667588710784912
vn 0.58723419904708862 -0.55849719047546387 0.58586418628692627
vn 0.58723419904708862 -0.55849719047546387 0.58586418628692627
vn -0.70710688829421997 0.024677695706486702 0.70667588710784912
vn 0.68294119834899902 -0.2633550763130188 0.68134820461273193
vn 0.68294119834899902 -0.2633550763130188 0.68134820461273193
vn -0.70710688829421997 0.024677695706486702 0.70667588710784912
vn -0.70710688829421997 0.024677695706486702 0.70667588710784912
vn -0.088516972959041595 0.99542063474655151 -0.036090686917304993
vn -0.70667630434036255 -0.059540927410125732 -0.70502728223800659
vn -0.70710688829421997 0.024677695706486702 0.70667588710784912
vn -0.69955176115036011 -0.15341195464134216 -0.69791978597640991
vn -0.69955176115036011 -0.15341195464134216 -0.69791978597640991
vn -0.70710688829421997 0.024677695706486702 0.70667588710784912
vn -0.64128535985946655 -0.42358320951461792 -0.63978934288024902
vn -0.64128535985946655 -0.42358320951461792 -0.63978934288024902
vn -0.70710688829421997 0.024677695706486702 0.70667588710784912
vn -0.48545199632644653 -0.72785401344299316 -0.48431900143623352
vn -0.48545199632644653 -0.72785401344299316 -0.48431900143623352
vn -0.70710688829421997 0.024677695706486702 0.70667588710784912
vn -0.26115405559539795 -0.92947018146514893 -0.2605450451374054
vn -0.26115405559539795 -0.92947018146514893 -0.2605450451374054
vn -0.70710688829421997 0.024677695706486702 0.70667588710784912
vn -0.06676192581653595 -0.99554330110549927 -0.066606119275093079
vn -0.06676192581653595 -0.99554330110549927 -0.066606119275093079
f 1/1/1 4/4/4 7/7/7 11/11/11
f 14/14/14 17/17/17 45/45/45
f 17/17/17 20/20/20 3/3/3
f 20/20/20 23/23/23 26/26/26
f 26/26/26 29/29/29 32/32/32
f 32/32/32 35/35/35 5/5/5
f 5/5/5 3/3/3 32/32/32
f 3/3/3 20/20/20 26/26/26
f 3/3/3 26/26/26 32/32/32
f 3/3/3 39/39/39 17/17/17
f 42/42/42 45/45/45 17/17/17
f 42/42/42 17/17/17 39/39/39
f 18/18/18 15/15/15 48/48/48 51/51/51
f 16/16/16 46/46/46 54/54/54 49/49/49
f 47/47/47 43/43/43 57/57/57 55/55/55
f 44/44/44 40/40/40 60/60/60 58/58/58
f 12/12/12 61/61/61 41/41/41 2/2/2
f 59/59/59 62/62/62 13/13/13
f 13/13/13 8/8/8 66/66/66
f 8/8/8 63/63/63 66/66/66
f 66/66/66 69/69/69 72/72/72
f 72/72/72 75/75/75 78/78/78
f 78/78/78 53/53/53 13/13/13
f 53/53/53 50/50/50 59/59/59
f 50/50/50 56/56/56 59/59/59
f 59/59/59 13/13/13 53/53/53
f 13/13/13 66/66/66 72/72/72
f 13/13/13 72/72/72 78/78/78
f 36/36/36 64/64/64 9/9/9
f 65/65/65 38/38/38 33/33/33 67/67/67
f 34/34/34 30/30/30 70/70/70 68/68/68
f 73/73/73 71/71/71 31/31/31 27/27/27
f 76/76/76 74/74/74 28/28/28 24/24/24
f 79/79/79 77/77/77 25/25/25 21/21/21
f 22/22/22 19/19/19 52/52/52 80/80/80
f 37/37/37 10/10/10 6/6/6
