# Rhino

mtllib chair_064_07.mtl
usemtl diffuse_127_255_0_255
v -115.85899999999998 237.636 -169.143
v -115.85899999999998 237.636 -169.143
v -115.85899999999998 237.636 -169.143
v -115.85899999999998 237.636 -169.143
v -115.03699999999998 207.666 -170.227
v -115.03699999999998 207.666 -170.227
v -115.03699999999998 207.666 -170.227
v -115.03699999999998 207.666 -170.227
v -120.73899999999998 207.31100000000001 -164.62700000000001
v -120.73899999999998 207.31100000000001 -164.62700000000001
v -120.73899999999998 207.31100000000001 -164.62700000000001
v -120.73899999999998 207.31100000000001 -164.62700000000001
v -121.56099999999998 237.28200000000001 -163.54300000000001
v -121.56099999999998 237.28200000000001 -163.54300000000001
v -121.56099999999998 237.28200000000001 -163.54300000000001
v -121.56099999999998 237.28200000000001 -163.54300000000001
v 50.100100000000005 222.65600000000001 -1.4503000000000128
v 50.100100000000005 222.65600000000001 -1.4503000000000128
v 50.100100000000005 222.65600000000001 -1.4503000000000128
v 50.100100000000005 222.65600000000001 -1.4503000000000128
v 50.100100000000005 222.65600000000001 -1.4503000000000128
v 50.100100000000005 222.65600000000001 -1.4503000000000128
v 50.100100000000005 222.65600000000001 -1.4503000000000128
v 269.62400000000002 237.636 223.55100000000002
v 269.62400000000002 237.636 223.55100000000002
v 269.62400000000002 237.636 223.55100000000002
v 269.62400000000002 237.636 223.55100000000002
v 263.92200000000003 237.28200000000001 229.15099999999998
v 263.92200000000003 237.28200000000001 229.15099999999998
v 263.92200000000003 237.28200000000001 229.15099999999998
v 263.92200000000003 237.28200000000001 229.15099999999998
v 263.92200000000003 237.28200000000001 229.15099999999998
v 44.398058000000006 222.30199999999999 4.1497999999999919
v 44.398058000000006 222.30199999999999 4.1497999999999919
v 44.398058000000006 222.30199999999999 4.1497999999999919
v 44.398058000000006 222.30199999999999 4.1497999999999919
v 44.398058000000006 222.30199999999999 4.1497999999999919
v 44.398058000000006 222.30199999999999 4.1497999999999919
v -0.49449999999999505 207.31100000000001 -42.192780000000013
v -0.49449999999999505 207.31100000000001 -42.192780000000013
v -0.49449999999999505 207.31100000000001 -42.192780000000013
v 5.2075000000000031 207.666 -47.79290000000001
v 5.2075000000000031 207.666 -47.79290000000001
v 5.2075000000000031 207.666 -47.79290000000001
v 95.625200000000007 207.666 44.27109999999999
v 95.625200000000007 207.666 44.27109999999999
v 95.625200000000007 207.666 44.27109999999999
v 89.923200000000008 207.31100000000001 49.871199999999988
v 89.923200000000008 207.31100000000001 49.871199999999988
v 89.923200000000008 207.31100000000001 49.871199999999988
v 89.923200000000008 207.31100000000001 49.871199999999988
v 267.22300000000001 207.666 219.00899999999999
v 267.22300000000001 207.666 219.00899999999999
v 267.22300000000001 207.666 219.00899999999999
v 267.22300000000001 207.666 219.00899999999999
v 261.52100000000002 207.31100000000001 224.60899999999995
v 261.52100000000002 207.31100000000001 224.60899999999995
v 261.52100000000002 207.31100000000001 224.60899999999995
vt -0.1071460023522377 1.1949599981307983
vt -0.16518700122833252 1.1878999471664429
vt -0.16505700349807739 1.1845999956130981
vt 0.16505700349807739 0.16005000472068787
vt -0.16011799871921539 0.014996600337326527
vt -0.15745599567890167 0.0067700101062655449
vt -0.15729999542236328 0.0092209698632359505
vt -0.15729999542236328 0.16062499582767487
vt 0.15453299880027771 0.0010352199897170067
vt 0.15715000033378601 0.006936150137335062
vt 0.15729999542236328 0.0045662499032914639
vt -0.15729999542236328 -0.15433500707149506
vt 0.20750600099563599 1.1809999942779541
vt 0.165133997797966 -0.15490999817848206
vt 0.165133997797966 1.190790057182312
vt 0.16488100588321686 1.1880700588226318
vt -9.4537496566772461 0.59752899408340454
vt -9.4535799026489258 0.59361302852630615
vt -9.4536199569702148 0.59964299201965332
vt -9.4536104202270508 0.59960001707077026
vt -9.4534702301025391 0.59599101543426514
vt -1.6309299468994141 9.2015104293823242
vt -1.9112999439239502 -8.8710203170776367
vt -21.829500198364258 1.1845999956130981
vt -21.829399108886719 1.1864700317382812
vt 21.829500198364258 0.16005000472068787
vt -0.056848801672458649 4.7084598541259766
vt 21.829599380493164 -0.15490999817848206
vt 21.829599380493164 1.190790057182312
vt 21.829599380493164 1.1888999938964844
vt 21.829900741577148 1.1856399774551392
vt -0.37149098515510559 4.694310188293457
vt 9.4536600112915039 0.59980398416519165
vt 9.4534397125244141 0.597694993019104
vt 9.4536199569702148 0.59498798847198486
vt 9.4538698196411133 0.59547799825668335
vt -1.9400099515914917 9.14093017578125
vt -1.6022200584411621 -8.9315996170043945
vt 6.9134697914123535 0.0045662499032914639
vt -1.4469699859619141 6.5801000595092773
vt -6.9134697914123535 -0.15433500707149506
vt -1.1378899812698364 6.6406798362731934
vt -6.9134697914123535 0.0092209698632359505
vt -6.9134697914123535 0.16062499582767487
vt -2.4043300151824951 -11.43179988861084
vt -11.993800163269043 0.0091746002435684204
vt -11.993800163269043 0.16115599870681763
vt -2.0952498912811279 -11.492400169372559
vt 11.993800163269043 0.0075387698598206043
vt 11.994000434875488 0.0049246298149228096
vt -11.993800163269043 -0.15380500257015228
vt -21.635799407958984 0.0091746002435684204
vt -21.635599136352539 0.0051221400499343872
vt 0.0024150300305336714 3.5127799510955811
vt -21.635799407958984 0.16115599870681763
vt -0.3122279942035675 3.4986300468444824
vt 21.635799407958984 0.0075387698598206043
vt -21.635799407958984 -0.15380500257015228
vn -0.70089203119277954 0.0065830899402499199 -0.71323704719543457
vn 0.71214497089385986 0.054406899958848953 -0.69992101192474365
vn 0.71214497089385986 0.054406899958848953 -0.69992101192474365
vn -0.031632699072360992 0.99901711940765381 0.031051801517605782
vn -0.70089203119277954 0.0065830899402499199 -0.71323704719543457
vn 0.71262246370315552 0.037206623703241348 -0.70056039094924927
vn 0.71262246370315552 0.037206623703241348 -0.70056039094924927
vn 0.03162509948015213 -0.99901711940765381 -0.031059501692652702
vn -0.70089203119277954 0.0065830899402499199 -0.71323704719543457
vn -0.71262246370315552 -0.037206623703241348 0.70056039094924927
vn -0.71262246370315552 -0.037206623703241348 0.70056039094924927
vn 0.03162509948015213 -0.99901711940765381 -0.031059501692652702
vn -0.70089203119277954 0.0065830899402499199 -0.71323704719543457
vn -0.031632699072360992 0.99901711940765381 0.031051801517605782
vn -0.71214497089385986 -0.054406899958848953 0.69992101192474365
vn -0.71214497089385986 -0.054406899958848953 0.69992101192474365
vn 0.71282517910003662 0.043389514088630676 -0.69999825954437256
vn 0.71282517910003662 0.043389514088630676 -0.69999825954437256
vn 0.71282517910003662 0.043389514088630676 -0.69999825954437256
vn 0.71282517910003662 0.043389514088630676 -0.69999825954437256
vn 0.71282517910003662 0.043389514088630676 -0.69999825954437256
vn 0.18942703306674957 -0.97308206558227539 0.13125802576541901
vn -0.12781901657581329 -0.97308212518692017 -0.19176404178142548
vn 0.71274703741073608 0.056387003511190414 -0.69915103912353516
vn 0.71274703741073608 0.056387003511190414 -0.69915103912353516
vn -0.031632699072360992 0.99901711940765381 0.031051801517605782
vn 0.69657695293426514 -0.16171897947788239 0.69901895523071289
vn -0.031632699072360992 0.99901711940765381 0.031051801517605782
vn -0.71300709247589111 -0.049743011593818665 0.69939011335372925
vn -0.71300709247589111 -0.049743011593818665 0.69939011335372925
vn -0.71300709247589111 -0.049743011593818665 0.69939011335372925
vn 0.69657695293426514 -0.16171897947788239 0.69901895523071289
vn -0.71292358636856079 -0.043669480830430984 0.69988065958023071
vn -0.71292358636856079 -0.043669480830430984 0.69988065958023071
vn -0.71292358636856079 -0.043669480830430984 0.69988065958023071
vn -0.71292358636856079 -0.043669480830430984 0.69988065958023071
vn 0.18942703306674957 -0.97308206558227539 0.13125802576541901
vn -0.12781901657581329 -0.97308212518692017 -0.19176404178142548
vn -0.71314507722854614 -0.029557500034570694 0.70039308071136475
vn 0.18942703306674957 -0.97308206558227539 0.13125802576541901
vn 0.03162509948015213 -0.99901711940765381 -0.031059501692652702
vn 0.18942703306674957 -0.97308206558227539 0.13125802576541901
vn 0.71314507722854614 0.029557500034570694 -0.70039308071136475
vn 0.03162509948015213 -0.99901711940765381 -0.031059501692652702
vn -0.12781901657581329 -0.97308212518692017 -0.19176404178142548
vn 0.7131723165512085 0.029747810214757919 -0.70035731792449951
vn 0.031626403331756592 -0.99901711940765381 -0.03105810284614563
vn -0.12781901657581329 -0.97308212518692017 -0.19176404178142548
vn -0.71337276697158813 -0.042632885277271271 0.69948673248291016
vn -0.71337276697158813 -0.042632885277271271 0.69948673248291016
vn 0.031626403331756592 -0.99901711940765381 -0.03105810284614563
vn 0.71326136589050293 0.039283420890569687 -0.69979637861251831
vn 0.71326136589050293 0.039283420890569687 -0.69979637861251831
vn 0.69657695293426514 -0.16171897947788239 0.69901895523071289
vn 0.031626403331756592 -0.99901711940765381 -0.03105810284614563
vn 0.69657695293426514 -0.16171897947788239 0.69901895523071289
vn -0.71263200044631958 -0.04896710067987442 0.69982701539993286
vn 0.031626403331756592 -0.99901711940765381 -0.03105810284614563
f 1/1/1 5/5/5 9/9/9 13/13/13
f 2/2/2 17/17/17 6/6/6
f 3/3/3 24/24/24 18/18/18
f 26/26/26 4/4/4 14/14/14 28/28/28
f 29/29/29 15/15/15 33/33/33
f 16/16/16 10/10/10 34/34/34
f 39/39/39 35/35/35 11/11/11
f 42/42/42 22/22/22 37/37/37 40/40/40
f 43/43/43 7/7/7 19/19/19
f 8/8/8 44/44/44 41/41/41 12/12/12
f 23/23/23 45/45/45 48/48/48 38/38/38
f 46/46/46 20/20/20 52/52/52
f 25/25/25 53/53/53 21/21/21
f 54/54/54 27/27/27 32/32/32 56/56/56
f 57/57/57 30/30/30 49/49/49
f 36/36/36 50/50/50 31/31/31
f 58/58/58 51/51/51 47/47/47 55/55/55
