# Rhino

mtllib chair_032_09.mtl
usemtl diffuse_127_255_0_255
v -101.357 396.16199999999998 -95.520499999999998
v -101.357 396.16199999999998 -95.520499999999998
v -101.357 396.16199999999998 -95.520499999999998
v -101.357 442.14699999999999 -97.126300000000001
v -101.357 442.14699999999999 -97.126300000000001
v -91.0017 440.77800000000002 -122.09399999999999
v -91.0017 440.77800000000002 -122.09399999999999
v -91.0017 395.28899999999999 -120.505
v -91.0017 395.28899999999999 -120.505
v -91.0017 395.28899999999999 -120.505
v 0 439.58699999999999 -97.036900000000003
v 101.357 396.16199999999998 -95.520499999999998
v 101.357 396.16199999999998 -95.520499999999998
v 101.357 396.16199999999998 -95.520499999999998
v 101.357 442.14699999999999 -97.126300000000001
v 101.357 442.14699999999999 -97.126300000000001
v 91.0017 395.28899999999999 -120.505
v 91.0017 395.28899999999999 -120.505
v 91.0017 395.28899999999999 -120.505
v 0 438.71499999999997 -122.02200000000001
v 91.0017 440.77800000000002 -122.09399999999999
v 91.0017 440.77800000000002 -122.09399999999999
v -101.357 442.14699999999999 -97.126300000000001
v -91.0017 440.77800000000002 -122.09399999999999
v 0 438.71499999999997 -122.02200000000001
v 91.0017 440.77800000000002 -122.09399999999999
v 101.357 442.14699999999999 -97.126300000000001
v 0 439.58699999999999 -97.036900000000003
vt -0.082483001053333282 0.90390998125076294
vt -0.16892799735069275 0.9070659875869751
vt -0.16892799735069275 -0.18546900153160095
vt -0.084955900907516479 1.008389949798584
vt -0.16892799735069275 1.0116000175476074
vt -0.13000500202178955 1.0052800178527832
vt 0.15166999399662018 1.0104700326919556
vt -0.12755900621414185 0.90192800760269165
vt 0.15166999399662018 0.9070659875869751
vt -0.15166999399662018 -0.24226699769496918
vt -6.269250119039782E-10 1.0057799816131592
vt 0.16892799735069275 0.9070659875869751
vt 0.16892799735069275 -0.18546900153160095
vt 0.082483001053333282 0.90390998125076294
vt 0.16892799735069275 1.0116000175476074
vt 0.084955900907516479 1.008389949798584
vt 0.15166999399662018 -0.24226699769496918
vt -0.15166999399662018 0.9070659875869751
vt 0.12755900621414185 0.90192800760269165
vt 2.2987900472060119E-09 1.0057799816131592
vt -0.15166999399662018 1.0104700326919556
vt 0.13000500202178955 1.0052800178527832
vt -0.084955900907516479 1.008389949798584
vt -0.13000500202178955 1.0052800178527832
vt 2.2987900472060119E-09 1.0057799816131592
vt -0.15166999399662018 1.0104700326919556
vt 0.16892799735069275 1.0116000175476074
vt -6.269250119039782E-10 1.0057799816131592
vn -0.92387968301773071 -0.01335549633949995 -0.38244989514350891
vn -3.8740490815314388E-09 0.034899592399597168 0.99939084053039551
vn 0 -0.99939078092575073 0.034900091588497162
vn -0.92387968301773071 -0.01335549633949995 -0.38244989514350891
vn -3.8740490815314388E-09 0.034899592399597168 0.99939084053039551
vn -0.55557012557983398 -0.02901790477335453 -0.83096319437026978
vn -0.55557012557983398 -0.02901790477335453 -0.83096319437026978
vn -0.55557012557983398 -0.02901790477335453 -0.83096319437026978
vn -0.55557012557983398 -0.02901790477335453 -0.83096319437026978
vn 0 -0.99939078092575073 0.034900091588497162
vn -3.8740490815314388E-09 0.034899592399597168 0.99939084053039551
vn -3.8740490815314388E-09 0.034899592399597168 0.99939084053039551
vn 0 -0.99939078092575073 0.034900091588497162
vn 0.92387968301773071 -0.01335549633949995 -0.38244989514350891
vn -3.8740490815314388E-09 0.034899592399597168 0.99939084053039551
vn 0.92387968301773071 -0.01335549633949995 -0.38244989514350891
vn 0 -0.99939078092575073 0.034900091588497162
vn 0.55557012557983398 -0.02901790477335453 -0.83096319437026978
vn 0.55557012557983398 -0.02901790477335453 -0.83096319437026978
vn 1.1296598323440321E-08 -0.034899491816759109 -0.99939084053039551
vn 0.55557012557983398 -0.02901790477335453 -0.83096319437026978
vn 0.55557012557983398 -0.02901790477335453 -0.83096319437026978
vn 0.92387968301773071 0.01335549633949995 0.38244989514350891
vn 0.55557012557983398 0.02901790477335453 0.83096319437026978
vn -1.1296598323440321E-08 0.034899491816759109 0.99939084053039551
vn -0.55557012557983398 0.02901790477335453 0.83096319437026978
vn 3.8740490815314388E-09 -0.034899592399597168 -0.99939084053039551
vn 3.8740490815314388E-09 -0.034899592399597168 -0.99939084053039551
f 1/1/1 4/4/4 6/6/6 8/8/8
f 11/11/11 5/5/5 2/2/2
f 12/12/12 15/15/15 11/11/11
f 12/12/12 11/11/11 2/2/2
f 3/3/3 10/10/10 17/17/17 13/13/13
f 18/18/18 9/9/9 20/20/20
f 9/9/9 7/7/7 20/20/20
f 20/20/20 21/21/21 18/18/18
f 14/14/14 19/19/19 22/22/22 16/16/16
f 28/28/28 25/25/25 24/24/24
f 26/26/26 25/25/25 28/28/28
f 26/26/26 28/28/28 27/27/27
f 24/24/24 23/23/23 28/28/28
