# Rhino

mtllib chair_267_05.mtl
usemtl diffuse_127_255_0_255
v -230.22800000000001 -1.2006399999999999 226.36799999999999
v -230.22800000000001 -1.2006399999999999 226.36799999999999
v -230.22800000000001 -1.2006399999999999 226.36799999999999
v -229.77600000000001 -0.96589199999999997 228.94300000000001
v -229.77600000000001 -0.96589199999999997 228.94300000000001
v -229.77600000000001 -0.96589199999999997 228.94300000000001
v -230.22800000000001 -0.61463999999999996 231.506
v -230.22800000000001 -0.61463999999999996 231.506
v -230.22800000000001 -0.61463999999999996 231.506
v -231.53 -0.18925400000000001 233.74600000000001
v -231.53 -0.18925400000000001 233.74600000000001
v -231.53 -0.18925400000000001 233.74600000000001
v -233.524 0.258961 235.393
v -233.524 0.258961 235.393
v -233.524 0.258961 235.393
v -235.971 0.67593899999999996 236.249
v -235.971 0.67593899999999996 236.249
v -235.971 0.67593899999999996 236.249
v -238.57499999999999 1.01139 236.21100000000001
v -238.57499999999999 1.01139 236.21100000000001
v -238.57499999999999 1.01139 236.21100000000001
v -241.02099999999999 1.22485 235.28299999999999
v -241.02099999999999 1.22485 235.28299999999999
v -241.02099999999999 1.22485 235.28299999999999
v -243.01599999999999 1.2905800000000001 233.577
v -243.01599999999999 1.2905800000000001 233.577
v -243.01599999999999 1.2905800000000001 233.577
v -244.31800000000001 1.2006399999999999 231.29900000000001
v -244.31800000000001 1.2006399999999999 231.29900000000001
v -244.31800000000001 1.2006399999999999 231.29900000000001
v -244.77000000000001 0.96589199999999997 228.72300000000001
v -244.77000000000001 0.96589199999999997 228.72300000000001
v -244.77000000000001 0.96589199999999997 228.72300000000001
v -244.31800000000001 0.61463999999999996 226.161
v -244.31800000000001 0.61463999999999996 226.161
v -244.31800000000001 0.61463999999999996 226.161
v -243.01599999999999 0.18925400000000001 223.92099999999999
v -243.01599999999999 0.18925400000000001 223.92099999999999
v -243.01599999999999 0.18925400000000001 223.92099999999999
v -241.02099999999999 -0.25895699999999999 222.273
v -241.02099999999999 -0.25895699999999999 222.273
v -241.02099999999999 -0.25895699999999999 222.273
v -238.57499999999999 -0.67593899999999996 221.417
v -238.57499999999999 -0.67593899999999996 221.417
v -238.57499999999999 -0.67593899999999996 221.417
v -235.971 -1.01139 221.45500000000001
v -235.971 -1.01139 221.45500000000001
v -235.971 -1.01139 221.45500000000001
v -233.524 -1.22485 222.38399999999999
v -233.524 -1.22485 222.38399999999999
v -233.524 -1.22485 222.38399999999999
v -231.53 -1.2905800000000001 224.09
v -231.53 -1.2905800000000001 224.09
v -231.53 -1.2905800000000001 224.09
v -165.91900000000001 415.19 175.27500000000001
v -165.91900000000001 415.19 175.27500000000001
v -165.91900000000001 415.19 175.27500000000001
v -164.84200000000001 415.75 181.41399999999999
v -164.84200000000001 415.75 181.41399999999999
v -164.84200000000001 415.75 181.41399999999999
v -169.02199999999999 414.976 169.845
v -169.02199999999999 414.976 169.845
v -169.02199999999999 414.976 169.845
v -173.77600000000001 415.13299999999998 165.779
v -173.77600000000001 415.13299999999998 165.779
v -173.77600000000001 415.13299999999998 165.779
v -179.608 415.64100000000002 163.56700000000001
v -179.608 415.64100000000002 163.56700000000001
v -179.608 415.64100000000002 163.56700000000001
v -185.81399999999999 416.44099999999997 163.47499999999999
v -185.81399999999999 416.44099999999997 163.47499999999999
v -185.81399999999999 416.44099999999997 163.47499999999999
v -191.64500000000001 417.435 165.51599999999999
v -191.64500000000001 417.435 165.51599999999999
v -191.64500000000001 417.435 165.51599999999999
v -196.399 418.50299999999999 169.44300000000001
v -196.399 418.50299999999999 169.44300000000001
v -196.399 418.50299999999999 169.44300000000001
v -199.50200000000001 419.517 174.78200000000001
v -199.50200000000001 419.517 174.78200000000001
v -199.50200000000001 419.517 174.78200000000001
v -200.58000000000001 420.35399999999998 180.88900000000001
v -200.58000000000001 420.35399999999998 180.88900000000001
v -200.58000000000001 420.35399999999998 180.88900000000001
v -199.50200000000001 420.91399999999999 187.02799999999999
v -199.50200000000001 420.91399999999999 187.02799999999999
v -199.50200000000001 420.91399999999999 187.02799999999999
v -196.399 421.12799999999999 192.458
v -196.399 421.12799999999999 192.458
v -196.399 421.12799999999999 192.458
v -191.64500000000001 420.97199999999998 196.524
v -191.64500000000001 420.97199999999998 196.524
v -191.64500000000001 420.97199999999998 196.524
v -185.81399999999999 420.46300000000002 198.73699999999999
v -185.81399999999999 420.46300000000002 198.73699999999999
v -185.81399999999999 420.46300000000002 198.73699999999999
v -179.608 419.66300000000001 198.828
v -179.608 419.66300000000001 198.828
v -179.608 419.66300000000001 198.828
v -173.77600000000001 418.66899999999998 196.78700000000001
v -173.77600000000001 418.66899999999998 196.78700000000001
v -173.77600000000001 418.66899999999998 196.78700000000001
v -169.02199999999999 417.601 192.86000000000001
v -169.02199999999999 417.601 192.86000000000001
v -169.02199999999999 417.601 192.86000000000001
v -165.91900000000001 416.58699999999999 187.52099999999999
v -165.91900000000001 416.58699999999999 187.52099999999999
v -165.91900000000001 416.58699999999999 187.52099999999999
vt 0.74622499942779541 12.495100021362305
vt -7.3713698387145996 -1.8006399869918823
vt -3.3228399753570557 -2.3920300006866455
vt 0.83429098129272461 12.549200057983398
vt -7.4743099212646484 -1.7912600040435791
vt -10.576700210571289 -0.96823900938034058
vt 0.89853698015213013 12.630200386047363
vt -12.475500106811523 -0.26533800363540649
vt -10.679100036621094 -0.95429199934005737
vt 0.93121397495269775 12.728300094604492
vt -12.884099960327148 0.018191499635577202
vt -12.577500343322754 -0.24853900074958801
vt 0.92838001251220703 12.831600189208984
vt -11.774499893188477 -0.20884299278259277
vt -12.985899925231934 0.035840999335050583
vt 0.89037901163101196 12.927700042724609
vt -9.2609996795654297 -0.80739098787307739
vt -11.876500129699707 -0.19241400063037872
vt 0.82179200649261475 13.005100250244141
vt -5.6081299781799316 -1.4713399410247803
vt -9.3635101318359375 -0.79413098096847534
vt 0.73089200258255005 13.054300308227539
vt -1.2381900548934937 -1.8663599491119385
vt -5.7111401557922363 -1.4628700017929077
vt 0.62864500284194946 13.069399833679199
vt 3.3013300895690918 -1.7922199964523315
vt -1.3415199518203735 -1.8637499809265137
vt 0.5273820161819458 13.048700332641602
vt 7.427030086517334 -1.2861700057983398
vt 3.1980199813842773 -1.7957899570465088
vt 0.43931600451469421 12.994600296020508
vt 10.630000114440918 -0.60390698909759521
vt 7.3240900039672852 -1.2954800128936768
vt 0.3750700056552887 12.913599967956543
vt 12.550399780273438 -0.089452296495437622
vt 10.527600288391113 -0.61778301000595093
vt 0.34239301085472107 12.815500259399414
vt 12.994099617004395 -0.010843399912118912
vt 12.448399543762207 -0.10620699822902679
vt 0.345225989818573 12.712200164794922
vt 11.917599678039551 -0.4400160014629364
vt 12.892299652099609 -0.028496699407696724
vt 0.38322800397872925 12.616100311279297
vt 9.4201202392578125 -1.2183099985122681
vt 11.815500259399414 -0.45649498701095581
vt 0.45181500911712646 12.538800239562988
vt 5.7582597732543945 -2.0173799991607666
vt 9.3176202774047852 -1.2316399812698364
vt 0.54271399974822998 12.48960018157959
vt 1.357740044593811 -2.4810299873352051
vt 5.655250072479248 -2.0259099006652832
vt 0.64496099948883057 12.474399566650391
vt -3.2195401191711426 -2.3956398963928223
vt 1.2544100284576416 -2.4836599826812744
vt -5.7842497825622559 14.833000183105469
vt -2.8111600875854492 14.309399604797363
vt -0.89761000871658325 12.112199783325195
vt -6.0296001434326172 14.855400085449219
vt -8.2512598037719727 15.578399658203125
vt -1.1075199842453003 12.24120044708252
vt -2.5649399757385254 14.300800323486328
vt 0.75661897659301758 14.218099594116211
vt -0.65624600648880005 12.062800407409668
vt 1.0029100179672241 14.224399566650391
vt 4.2044000625610352 14.620200157165527
vt -0.41253599524497986 12.098899841308594
vt 4.4499301910400391 14.640600204467773
vt 7.0914301872253418 15.32859992980957
vt -0.19587600231170654 12.21619987487793
vt 7.3357501029968262 15.360400199890137
vt 9.0811395645141602 16.027500152587891
vt -0.032397899776697159 12.400500297546387
vt 9.3243598937988281 16.066799163818359
vt 9.9680995941162109 16.42289924621582
vt 0.058179598301649094 12.629599571228027
vt 10.210800170898438 16.464899063110352
vt 9.6693296432495117 16.37030029296875
vt 0.064933799207210541 12.875900268554688
vt 9.912440299987793 16.410200119018555
vt 8.2136497497558594 15.930500030517578
vt -0.012952899560332298 13.109600067138672
vt 8.4577999114990234 15.963500022888184
vt 5.7477002143859863 15.339200019836426
vt -0.16608400642871857 13.302599906921387
vt 5.993070125579834 15.36139965057373
vt 2.5482099056243896 14.900799751281738
vt -0.37599098682403564 13.431599617004395
vt 2.7944400310516357 14.909299850463867
vt -0.9902380108833313 14.841799736022949
vt -0.61735397577285767 13.481100082397461
vt -0.74394601583480835 14.83549976348877
vt -4.4129300117492676 15.195799827575684
vt -0.86106401681900024 13.444899559020996
vt -4.1673798561096191 15.175700187683105
vt -7.290949821472168 15.786100387573242
vt -1.077720046043396 13.32759952545166
vt -7.0466198921203613 15.754500389099121
vt -9.2913799285888672 16.31559944152832
vt -1.2411999702453613 13.14330005645752
vt -9.0481395721435547 16.276500701904297
vt -10.203300476074219 16.511699676513672
vt -1.331779956817627 12.914199829101562
vt -9.9605503082275391 16.469699859619141
vt -9.9325399398803711 16.25
vt -1.3385299444198608 12.667900085449219
vt -9.6894502639770508 16.209999084472656
vt -8.4953804016113281 15.611599922180176
vt -1.2606500387191772 12.434200286865234
vn -0.12859697639942169 -0.98530876636505127 0.11238096654415131
vn 0.97322213649749756 -0.16937503218650818 -0.15540502965450287
vn 0.85546189546585083 -0.19117496907711029 -0.4812869131565094
vn -0.12859697639942169 -0.98530876636505127 0.11238096654415131
vn 0.97322213649749756 -0.16937503218650818 -0.15540502965450287
vn 0.97322225570678711 -0.1300310343503952 0.18955303728580475
vn -0.12859697639942169 -0.98530876636505127 0.11238096654415131
vn 0.85545974969863892 -0.077886275947093964 0.5119788646697998
vn 0.97322225570678711 -0.1300310343503952 0.18955303728580475
vn -0.12859697639942169 -0.98530876636505127 0.11238096654415131
vn 0.63414108753204346 -0.019232301041483879 0.77297812700271606
vn 0.85545974969863892 -0.077886275947093964 0.5119788646697998
vn -0.12859697639942169 -0.98530876636505127 0.11238096654415131
vn 0.33596011996269226 0.038857016712427139 0.94107437133789062
vn 0.63414108753204346 -0.019232301041483879 0.77297812700271606
vn -0.12859697639942169 -0.98530876636505127 0.11238096654415131
vn -0.0031210603192448616 0.089375905692577362 0.99599307775497437
vn 0.33596011996269226 0.038857016712427139 0.94107437133789062
vn -0.12859697639942169 -0.98530876636505127 0.11238096654415131
vn -0.34220197796821594 0.12622998654842377 0.93110889196395874
vn -0.0031210603192448616 0.089375905692577362 0.99599307775497437
vn -0.12859697639942169 -0.98530876636505127 0.11238096654415131
vn -0.64038580656051636 0.1449749618768692 0.75424683094024658
vn -0.34220197796821594 0.12622998654842377 0.93110889196395874
vn -0.12859697639942169 -0.98530876636505127 0.11238096654415131
vn -0.86170297861099243 0.14335000514984131 0.48674300312995911
vn -0.64038580656051636 0.1449749618768692 0.75424683094024658
vn -0.12859697639942169 -0.98530876636505127 0.11238096654415131
vn -0.97946411371231079 0.12155001610517502 0.16085901856422424
vn -0.86170297861099243 0.14335000514984131 0.48674300312995911
vn -0.12859697639942169 -0.98530876636505127 0.11238096654415131
vn -0.97946405410766602 0.082205310463905334 -0.18409901857376099
vn -0.97946411371231079 0.12155001610517502 0.16085901856422424
vn -0.12859697639942169 -0.98530876636505127 0.11238096654415131
vn -0.86170399188995361 0.030061699450016022 -0.50651997327804565
vn -0.97946405410766602 0.082205310463905334 -0.18409901857376099
vn -0.12859697639942169 -0.98530876636505127 0.11238096654415131
vn -0.64038205146789551 -0.028593303635716438 -0.76752406358718872
vn -0.86170399188995361 0.030061699450016022 -0.50651997327804565
vn -0.12859697639942169 -0.98530876636505127 0.11238096654415131
vn -0.3422030508518219 -0.086682215332984924 -0.93561917543411255
vn -0.64038205146789551 -0.028593303635716438 -0.76752406358718872
vn -0.12859697639942169 -0.98530876636505127 0.11238096654415131
vn -0.0031208610162138939 -0.13720104098320007 -0.99053829908370972
vn -0.3422030508518219 -0.086682215332984924 -0.93561917543411255
vn -0.12859697639942169 -0.98530876636505127 0.11238096654415131
vn 0.33596000075340271 -0.17405599355697632 -0.92565405368804932
vn -0.0031208610162138939 -0.13720104098320007 -0.99053829908370972
vn -0.12859697639942169 -0.98530876636505127 0.11238096654415131
vn 0.63414013385772705 -0.19280102849006653 -0.74879509210586548
vn 0.33596000075340271 -0.17405599355697632 -0.92565405368804932
vn -0.12859697639942169 -0.98530876636505127 0.11238096654415131
vn 0.85546189546585083 -0.19117496907711029 -0.4812869131565094
vn 0.63414013385772705 -0.19280102849006653 -0.74879509210586548
vn 0.97322213649749756 -0.16937503218650818 -0.15540502965450287
vn 0.85546189546585083 -0.19117496907711029 -0.4812869131565094
vn 0.12859697639942169 0.98530876636505127 -0.11238096654415131
vn 0.97322213649749756 -0.16937503218650818 -0.15540502965450287
vn 0.97322225570678711 -0.1300310343503952 0.18955303728580475
vn 0.12859697639942169 0.98530876636505127 -0.11238096654415131
vn 0.85546189546585083 -0.19117496907711029 -0.4812869131565094
vn 0.63414013385772705 -0.19280102849006653 -0.74879509210586548
vn 0.12859697639942169 0.98530876636505127 -0.11238096654415131
vn 0.63414013385772705 -0.19280102849006653 -0.74879509210586548
vn 0.33596000075340271 -0.17405599355697632 -0.92565405368804932
vn 0.12859697639942169 0.98530876636505127 -0.11238096654415131
vn 0.33596000075340271 -0.17405599355697632 -0.92565405368804932
vn -0.0031208610162138939 -0.13720104098320007 -0.99053829908370972
vn 0.12859697639942169 0.98530876636505127 -0.11238096654415131
vn -0.0031208610162138939 -0.13720104098320007 -0.99053829908370972
vn -0.3422030508518219 -0.086682215332984924 -0.93561917543411255
vn 0.12859697639942169 0.98530876636505127 -0.11238096654415131
vn -0.3422030508518219 -0.086682215332984924 -0.93561917543411255
vn -0.64038205146789551 -0.028593303635716438 -0.76752406358718872
vn 0.12859697639942169 0.98530876636505127 -0.11238096654415131
vn -0.64038205146789551 -0.028593303635716438 -0.76752406358718872
vn -0.86170399188995361 0.030061699450016022 -0.50651997327804565
vn 0.12859697639942169 0.98530876636505127 -0.11238096654415131
vn -0.86170399188995361 0.030061699450016022 -0.50651997327804565
vn -0.97946405410766602 0.082205310463905334 -0.18409901857376099
vn 0.12859697639942169 0.98530876636505127 -0.11238096654415131
vn -0.97946405410766602 0.082205310463905334 -0.18409901857376099
vn -0.97946411371231079 0.12155001610517502 0.16085901856422424
vn 0.12859697639942169 0.98530876636505127 -0.11238096654415131
vn -0.97946411371231079 0.12155001610517502 0.16085901856422424
vn -0.86170297861099243 0.14335000514984131 0.48674300312995911
vn 0.12859697639942169 0.98530876636505127 -0.11238096654415131
vn -0.86170297861099243 0.14335000514984131 0.48674300312995911
vn -0.64038580656051636 0.1449749618768692 0.75424683094024658
vn 0.12859697639942169 0.98530876636505127 -0.11238096654415131
vn -0.64038580656051636 0.1449749618768692 0.75424683094024658
vn -0.34220197796821594 0.12622998654842377 0.93110889196395874
vn 0.12859697639942169 0.98530876636505127 -0.11238096654415131
vn -0.34220197796821594 0.12622998654842377 0.93110889196395874
vn -0.0031210603192448616 0.089375905692577362 0.99599307775497437
vn 0.12859697639942169 0.98530876636505127 -0.11238096654415131
vn -0.0031210603192448616 0.089375905692577362 0.99599307775497437
vn 0.33596011996269226 0.038857016712427139 0.94107437133789062
vn 0.12859697639942169 0.98530876636505127 -0.11238096654415131
vn 0.33596011996269226 0.038857016712427139 0.94107437133789062
vn 0.63414108753204346 -0.019232301041483879 0.77297812700271606
vn 0.12859697639942169 0.98530876636505127 -0.11238096654415131
vn 0.63414108753204346 -0.019232301041483879 0.77297812700271606
vn 0.85545974969863892 -0.077886275947093964 0.5119788646697998
vn 0.12859697639942169 0.98530876636505127 -0.11238096654415131
vn 0.85545974969863892 -0.077886275947093964 0.5119788646697998
vn 0.97322225570678711 -0.1300310343503952 0.18955303728580475
vn 0.12859697639942169 0.98530876636505127 -0.11238096654415131
f 1/1/1 4/4/4 52/52/52
f 4/4/4 7/7/7 10/10/10
f 10/10/10 13/13/13 16/16/16
f 16/16/16 19/19/19 22/22/22
f 22/22/22 25/25/25 31/31/31
f 25/25/25 28/28/28 31/31/31
f 31/31/31 34/34/34 37/37/37
f 37/37/37 40/40/40 49/49/49
f 43/43/43 46/46/46 49/49/49
f 43/43/43 49/49/49 40/40/40
f 49/49/49 52/52/52 37/37/37
f 52/52/52 4/4/4 16/16/16
f 4/4/4 10/10/10 16/16/16
f 16/16/16 22/22/22 37/37/37
f 22/22/22 31/31/31 37/37/37
f 37/37/37 52/52/52 16/16/16
f 2/2/2 55/55/55 58/58/58 5/5/5
f 53/53/53 61/61/61 56/56/56 3/3/3
f 50/50/50 64/64/64 62/62/62 54/54/54
f 47/47/47 67/67/67 65/65/65 51/51/51
f 44/44/44 70/70/70 68/68/68 48/48/48
f 41/41/41 73/73/73 71/71/71 45/45/45
f 38/38/38 76/76/76 74/74/74 42/42/42
f 35/35/35 79/79/79 77/77/77 39/39/39
f 32/32/32 82/82/82 80/80/80 36/36/36
f 29/29/29 85/85/85 83/83/83 33/33/33
f 26/26/26 88/88/88 86/86/86 30/30/30
f 23/23/23 91/91/91 89/89/89 27/27/27
f 20/20/20 94/94/94 92/92/92 24/24/24
f 17/17/17 97/97/97 95/95/95 21/21/21
f 14/14/14 100/100/100 98/98/98 18/18/18
f 11/11/11 103/103/103 101/101/101 15/15/15
f 8/8/8 106/106/106 104/104/104 12/12/12
f 6/6/6 59/59/59 107/107/107 9/9/9
f 102/102/102 105/105/105 93/93/93
f 105/105/105 108/108/108 60/60/60
f 60/60/60 57/57/57 63/63/63
f 63/63/63 66/66/66 60/60/60
f 66/66/66 69/69/69 60/60/60
f 69/69/69 72/72/72 75/75/75
f 75/75/75 78/78/78 69/69/69
f 78/78/78 81/81/81 93/93/93
f 81/81/81 84/84/84 87/87/87
f 90/90/90 93/93/93 81/81/81
f 90/90/90 81/81/81 87/87/87
f 93/93/93 105/105/105 60/60/60
f 69/69/69 78/78/78 93/93/93
f 69/69/69 93/93/93 60/60/60
f 93/93/93 96/96/96 99/99/99
f 93/93/93 99/99/99 102/102/102
