# Rhino

mtllib chair_011_07.mtl
usemtl diffuse_127_255_0_255
v 482.06000000000006 2.1609600000000002 -33.911699999999996
v 482.06000000000006 2.1609600000000002 -33.911699999999996
v 482.06000000000006 2.1609600000000002 -33.911699999999996
v 231.88199999999998 9.2439300000000006 -178.53200000000001
v 231.88199999999998 9.2439300000000006 -178.53200000000001
v 231.88199999999998 9.2439300000000006 -178.53200000000001
v 232.05200000000002 38.118600000000001 -179.166
v 232.05200000000002 38.118600000000001 -179.166
v 232.05200000000002 38.118600000000001 -179.166
v 467.76400000000001 27.7608 -42.815100000000001
v 467.76400000000001 27.7608 -42.815100000000001
v 467.76400000000001 27.7608 -42.815100000000001
v 471.11899999999997 2.64175 -14.960699999999999
v 471.11899999999997 2.64175 -14.960699999999999
v 471.11899999999997 2.64175 -14.960699999999999
v 220.941 9.7247199999999996 -159.58099999999999
v 220.941 9.7247199999999996 -159.58099999999999
v 220.941 9.7247199999999996 -159.58099999999999
v 456.82299999999998 28.241599999999998 -23.864100000000001
v 456.82299999999998 28.241599999999998 -23.864100000000001
v 456.82299999999998 28.241599999999998 -23.864100000000001
v 221.11099999999999 38.599400000000003 -160.215
v 221.11099999999999 38.599400000000003 -160.215
v 221.11099999999999 38.599400000000003 -160.215
vt -0.52800500392913818 0
vt -0.039999999105930328 -0.52776098251342773
vt 0.039999999105930328 -0.28743499517440796
vt 0 0.016055500134825706
vt -0.039999999105930328 0.00048798599164001644
vt -0.039999999105930328 0.016055500134825706
vt 0 0.068837203085422516
vt 0.039999999105930328 0.0030219599138945341
vt -0.039999999105930328 0.068837203085422516
vt -0.49751999974250793 0.046975001692771912
vt 0.039999999105930328 -0.23143500089645386
vt 0.039999999105930328 -0.49497801065444946
vt 0.52800500392913818 0
vt 0 -0.52776098251342773
vt 0 -0.28743499517440796
vt 0 0.016055500134825706
vt 0 0.00048798599164001644
vt 0 0.016055500134825706
vt 0.49751999974250793 0.046975001692771912
vt 0 -0.23143500089645386
vt 0 -0.49497801065444946
vt 0 0.068837203085422516
vt 0 0.0030219599138945341
vt 0 0.068837203085422516
vn 0.49987930059432983 -0.021965913474559784 -0.86581647396087646
vn -0.03220551460981369 -0.99945837259292603 0.0067625530064105988
vn 0.72970104217529297 0.54917597770690918 0.40735998749732971
vn 0.49987930059432983 -0.021965913474559784 -0.86581647396087646
vn -0.03220551460981369 -0.99945837259292603 0.0067625530064105988
vn -0.86607515811920166 -0.005884991493076086 -0.49987912178039551
vn 0.49987930059432983 -0.021965913474559784 -0.86581647396087646
vn 0.043900094926357269 0.99903595447540283 0
vn -0.86607515811920166 -0.005884991493076086 -0.49987912178039551
vn 0.49987930059432983 -0.021965913474559784 -0.86581647396087646
vn 0.72970104217529297 0.54917597770690918 0.40735998749732971
vn 0.043900094926357269 0.99903595447540283 0
vn -0.49987930059432983 0.021965913474559784 0.86581647396087646
vn -0.03220551460981369 -0.99945837259292603 0.0067625530064105988
vn 0.72970104217529297 0.54917597770690918 0.40735998749732971
vn -0.49987930059432983 0.021965913474559784 0.86581647396087646
vn -0.03220551460981369 -0.99945837259292603 0.0067625530064105988
vn -0.86607515811920166 -0.005884991493076086 -0.49987912178039551
vn -0.49987930059432983 0.021965913474559784 0.86581647396087646
vn 0.72970104217529297 0.54917597770690918 0.40735998749732971
vn 0.043900094926357269 0.99903595447540283 0
vn -0.49987930059432983 0.021965913474559784 0.86581647396087646
vn 0.043900094926357269 0.99903595447540283 0
vn -0.86607515811920166 -0.005884991493076086 -0.49987912178039551
f 1/1/1 4/4/4 7/7/7 10/10/10
f 5/5/5 2/2/2 14/14/14 17/17/17
f 3/3/3 11/11/11 20/20/20 15/15/15
f 12/12/12 8/8/8 23/23/23 21/21/21
f 9/9/9 6/6/6 18/18/18 24/24/24
f 16/16/16 13/13/13 19/19/19 22/22/22
