# Rhino

mtllib chair_019_14.mtl
usemtl diffuse_127_255_0_255
v 1835.3899999999999 67.208799999999997 257.35700000000003
v 1835.3899999999999 67.208799999999997 257.35700000000003
v 1835.3899999999999 67.208799999999997 257.35700000000003
v 1828.45 66.3172 257.35700000000003
v 1828.45 66.3172 257.35700000000003
v 1828.45 66.3172 257.35700000000003
v 1828.45 66.3172 257.35700000000003
v 1830.46 66.3172 257.35700000000003
v 1830.46 66.3172 257.35700000000003
v 1820.9899999999998 68.453900000000004 257.35700000000003
v 1820.9899999999998 68.453900000000004 257.35700000000003
v 1841.1900000000001 71.289900000000003 257.35700000000003
v 1841.1900000000001 71.289900000000003 257.35700000000003
v 1816.02 73.801900000000003 257.35700000000003
v 1816.02 73.801900000000003 257.35700000000003
v 1844.0999999999999 76.962999999999994 257.35700000000003
v 1844.0999999999999 76.962999999999994 257.35700000000003
v 1844.0999999999999 76.962999999999994 257.35700000000003
v 1814.3799999999999 80.384200000000007 257.35700000000003
v 1814.3799999999999 80.384200000000007 257.35700000000003
v 1814.3799999999999 80.384200000000007 257.35700000000003
v 1844.52 80.384200000000007 257.35700000000003
v 1844.52 80.384200000000007 257.35700000000003
v 1844.52 80.384200000000007 257.35700000000003
v 1844.0999999999999 76.962999999999994 -606.75999999999999
v 1844.0999999999999 76.962999999999994 -606.75999999999999
v 1844.0999999999999 76.962999999999994 -606.75999999999999
v 1841.1900000000001 71.289900000000003 -606.75999999999999
v 1841.1900000000001 71.289900000000003 -606.75999999999999
v 1835.3899999999999 67.208799999999997 -606.75999999999999
v 1835.3899999999999 67.208799999999997 -606.75999999999999
v 1830.46 66.3172 -606.75999999999999
v 1830.46 66.3172 -606.75999999999999
v 1830.46 66.3172 -606.75999999999999
v 1828.45 66.3172 -606.75999999999999
v 1828.45 66.3172 -606.75999999999999
v 1828.45 66.3172 -606.75999999999999
v 1828.45 66.3172 -174.70099999999999
v 1828.45 66.3172 -174.70099999999999
v 1820.9899999999998 68.453900000000004 -606.75999999999999
v 1820.9899999999998 68.453900000000004 -606.75999999999999
v 1820.9899999999998 68.453900000000004 -606.75999999999999
v 1816.02 73.801900000000003 -606.75999999999999
v 1816.02 73.801900000000003 -606.75999999999999
v 1814.3799999999999 80.384200000000007 -606.75999999999999
v 1814.3799999999999 80.384200000000007 -606.75999999999999
v 1814.3799999999999 80.384200000000007 -606.75999999999999
v 1844.52 80.384200000000007 -606.75999999999999
v 1844.52 80.384200000000007 -606.75999999999999
v 1844.52 80.384200000000007 -606.75999999999999
v 1814.3799999999999 81.160399999999996 -606.75999999999999
v 1814.3799999999999 81.160399999999996 -606.75999999999999
v 1814.3799999999999 81.160399999999996 -606.75999999999999
v 1814.3799999999999 126.369 257.35700000000003
v 1814.3799999999999 126.369 257.35700000000003
v 1814.3799999999999 126.369 257.35700000000003
v 1814.3799999999999 88.817099999999996 257.35700000000003
v 1814.3799999999999 88.817099999999996 257.35700000000003
v 1814.3799999999999 88.817099999999996 -606.75999999999999
v 1814.3799999999999 88.817099999999996 -606.75999999999999
v 1814.3799999999999 96.346800000000002 -606.75999999999999
v 1814.3799999999999 96.346800000000002 -606.75999999999999
v 1814.3799999999999 103.968 -606.75999999999999
v 1814.3799999999999 103.968 -606.75999999999999
v 1814.3799999999999 111.524 -606.75999999999999
v 1814.3799999999999 111.524 -606.75999999999999
v 1814.3799999999999 126.369 -606.75999999999999
v 1814.3799999999999 126.369 -606.75999999999999
v 1814.3799999999999 126.369 -606.75999999999999
v 1844.52 126.369 -606.75999999999999
v 1844.52 126.369 -606.75999999999999
v 1844.52 126.369 -606.75999999999999
v 1844.52 126.369 257.35700000000003
v 1844.52 126.369 257.35700000000003
v 1844.52 126.369 257.35700000000003
v 1814.3799999999999 111.524 257.35700000000003
v 1844.52 119.17699999999999 257.35700000000003
v 1844.52 119.17699999999999 257.35700000000003
v 1844.52 112.16900000000001 257.35700000000003
v 1844.52 112.16900000000001 257.35700000000003
v 1844.52 105.16400000000002 257.35700000000003
v 1844.52 105.16400000000002 257.35700000000003
v 1814.3799999999999 103.968 257.35700000000003
v 1844.52 98.058199999999999 257.35700000000003
v 1844.52 98.058199999999999 257.35700000000003
v 1814.3799999999999 96.346800000000002 257.35700000000003
v 1844.52 91.08959999999999 257.35700000000003
v 1844.52 91.08959999999999 257.35700000000003
v 1844.52 84.005600000000001 257.35700000000003
v 1844.52 84.005600000000001 257.35700000000003
v 1814.3799999999999 81.160399999999996 257.35700000000003
v 1814.3799999999999 81.160399999999996 257.35700000000003
v 1844.52 84.005600000000001 -606.75999999999999
v 1844.52 84.005600000000001 -606.75999999999999
v 1844.52 91.08959999999999 -606.75999999999999
v 1844.52 91.08959999999999 -606.75999999999999
v 1844.52 98.058199999999999 -606.75999999999999
v 1844.52 98.058199999999999 -606.75999999999999
v 1844.52 105.16400000000002 -606.75999999999999
v 1844.52 105.16400000000002 -606.75999999999999
v 1844.52 112.16900000000001 -606.75999999999999
v 1844.52 112.16900000000001 -606.75999999999999
v 1814.3799999999999 118.956 -606.75999999999999
v 1844.52 119.17699999999999 -606.75999999999999
v 1844.52 119.17699999999999 -606.75999999999999
vt 0.25640299916267395 0.068556897342205048
vt 0.24557499587535858 0.070183001458644867
vt 0.65045201778411865 0.97893297672271729
vt 0.22941400110721588 0.072022996842861176
vt 0.23757800459861755 0.071209996938705444
vt 0.66253501176834106 0.97828197479248047
vt 0.66253501176834106 0.97828197479248047
vt 0.23723000288009644 0.072022996842861176
vt 0.65860801935195923 0.97847402095794678
vt 0.22898699343204498 0.068746998906135559
vt 0.68073397874832153 0.97753900289535522
vt 0.25226399302482605 0.065479002892971039
vt 0.64937597513198853 0.97943001985549927
vt 0.22324800491333008 0.062582999467849731
vt 0.70160102844238281 0.97698599100112915
vt 0.25562098622322083 0.058940000832080841
vt 1.6658899784088135 0.97962701320648193
vt 0.66588902473449707 0.97962701320648193
vt 0.22136400640010834 0.054995998740196228
vt 0.21557299792766571 0.055144999176263809
vt 0.72184199094772339 0.97673600912094116
vt 0.25610798597335815 0.054995998740196228
vt 0.26768898963928223 0.055144999176263809
vt 1.6834399700164795 0.97961902618408203
vt 1.3245400190353394 0.023726999759674072
vt 0.32454198598861694 0.023726999759674072
vt 0.29640200734138489 0.014263000339269638
vt 0.34216400980949402 0.023529000580310822
vt 0.29304400086402893 0.0077240001410245895
vt 0.36099499464035034 0.023033000528812408
vt 0.28635498881340027 0.0030199999455362558
vt 0.37251600623130798 0.022574000060558319
vt 0.28618299961090088 0.00096575001953169703
vt 0.28067401051521301 0.0019920000340789557
vt 0.37679800391197205 0.022382000461220741
vt 0.37679800391197205 0.022382000461220741
vt 0.28097200393676758 0.00096575001953169703
vt 0.50857299566268921 0.50033199787139893
vt 0.50857299566268921 0.50033199787139893
vt 0.39010199904441833 0.021639000624418259
vt 0.26164498925209045 0.0065075000748038292
vt 0.26976799964904785 0.0044550001621246338
vt 0.26402899622917175 0.010618999600410461
vt 0.39127698540687561 0.02108599990606308
vt 0.26214399933815002 0.018206000328063965
vt 0.2563529908657074 0.018056800588965416
vt 0.37572398781776428 0.020835999399423599
vt 0.29688900709152222 0.018206000328063965
vt 0.30847099423408508 0.018056800588965416
vt 1.3153300285339355 0.023718999698758125
vt 0.37280198931694031 0.02082500047981739
vt 0.2563529908657074 0.019399300217628479
vt 0.26214399933815002 0.01910099945962429
vt 0.84834498167037964 0.97608101367950439
vt 0.22136400640010834 0.0019920000340789557
vt 0.84834498167037964 0.97608101367950439
vt 0.74712502956390381 0.9766160249710083
vt 0.22136400640010834 0.04527600109577179
vt 0.33794599771499634 0.020716000348329544
vt 0.26214399933815002 0.027925999835133553
vt 0.29218098521232605 0.020608000457286835
vt 0.26214399933815002 0.036605000495910645
vt 0.2383819967508316 0.020500000566244125
vt 0.26214399933815002 0.045389998704195023
vt 0.18807800114154816 0.020392000675201416
vt 0.26214399933815002 0.054099000990390778
vt 1.1204899549484253 0.020181000232696533
vt 0.26214399933815002 0.071209996938705444
vt 1.1204899549484253 0.020181000232696533
vt 1.183419942855835 0.023063000291585922
vt 0.29688900709152222 0.071209996938705444
vt 1.183419942855835 0.023063000291585922
vt 0.25610798597335815 0.0019920000340789557
vt 0.91446197032928467 0.97896397113800049
vt 0.91446197032928467 0.97896397113800049
vt 0.22136400640010834 0.019104000180959702
vt 0.25610798597335815 0.010281999595463276
vt 1.8976099491119385 0.97906601428985596
vt 0.25610798597335815 0.018360000103712082
vt 1.8752299547195435 0.97916597127914429
vt 0.25610798597335815 0.026434000581502914
vt 1.8446600437164307 0.97926598787307739
vt 0.22136400640010834 0.027813000604510307
vt 0.25610798597335815 0.034623999148607254
vt 1.8035500049591064 0.97936701774597168
vt 0.22136400640010834 0.036596998572349548
vt 0.25610798597335815 0.042656999081373215
vt 1.7553399801254272 0.9794660210609436
vt 0.25610798597335815 0.050822000950574875
vt 1.7059899568557739 0.97956699132919312
vt 0.22136400640010834 0.054101999849081039
vt 0.21557299792766571 0.053803998976945877
vt 1.3056700229644775 0.023667000234127045
vt 0.29688900709152222 0.022379999980330467
vt 1.2856099605560303 0.023566000163555145
vt 0.29688900709152222 0.030546000227332115
vt 1.2648099660873413 0.02346700057387352
vt 0.29688900709152222 0.038577999919652939
vt 1.2431900501251221 0.02336600050330162
vt 0.29688900709152222 0.046767998486757278
vt 1.2222299575805664 0.023266000673174858
vt 0.29688900709152222 0.054843001067638397
vt 0.26214399933815002 0.062665000557899475
vt 1.202299952507019 0.023166000843048096
vt 0.29688900709152222 0.062919996678829193
vn 0 0 1
vn 0 0 1
vn 0.21634097397327423 -0.9763178825378418 4.1638588299974799E-05
vn 0 0 1
vn 0 0 1
vn 0 -1 0
vn -0.27559098601341248 -0.96127498149871826 0
vn 0 0 1
vn 0.089367367327213287 -0.99599862098693848 -0.00041566186700947583
vn 0 0 1
vn -0.59919905662536621 -0.80060005187988281 0
vn 0 0 1
vn 0.75435113906860352 -0.6564711332321167 0
vn 0 0 1
vn -0.87921571731567383 -0.47642385959625244 0
vn 0 0 1
vn 0.9557497501373291 -0.29418092966079712 0
vn 0.9557497501373291 -0.29418092966079712 0
vn 0 0 1
vn 0 0 1
vn -0.98682421445846558 -0.16179604828357697 0
vn 0 0 1
vn 0 0 1
vn 0.99811410903930664 -0.061384908854961395 -0.00024488603230565786
vn 0.99425715208053589 -0.10701702535152435 0.00028624205151572824
vn 0.99425715208053589 -0.10701702535152435 0.00028624205151572824
vn 0 0 -1
vn 0.75435113906860352 -0.6564711332321167 0
vn 0 0 -1
vn 0.45223695039749146 -0.89189785718917847 0
vn 0 0 -1
vn 0.08936735987663269 -0.99599862098693848 0.00051795685430988669
vn 0 0 -1
vn 0 0 -1
vn 0.063860379159450531 -0.9979587197303772 0.00051693985005840659
vn -0.27559098601341248 -0.96127498149871826 0
vn 0 0 -1
vn 0.10211595147848129 -0.99477249383926392 -0.00027678284095600247
vn -0.27559098601341248 -0.96127498149871826 0
vn -0.40058279037475586 -0.91626060009002686 0
vn 0 0 -1
vn 0 0 -1
vn 0 0 -1
vn -0.87921571731567383 -0.47642385959625244 0
vn 0 0 -1
vn 0 0 -1
vn -0.99816149473190308 -0.060610529035329819 0
vn 0 0 -1
vn 0 0 -1
vn 0.99810886383056641 -0.061383891850709915 0.0032666099723428488
vn -1 0 0
vn 0 0 -1
vn 0 0 -1
vn -1 0 0
vn 0 0 1
vn 0 1 0
vn -1 0 0
vn 0 0 1
vn -1 0 0
vn 0 0 -1
vn -1 0 0
vn 0 0 -1
vn -1 0 0
vn 0 0 -1
vn -1 0 0
vn 0 0 -1
vn -1 0 0
vn 0 0 -1
vn 0 1 0
vn 1 0 0
vn 0 0 -1
vn 0 1 0
vn 0 0 1
vn 0 1 0
vn 0.99990695714950562 -0.013625297695398331 0.00067072594538331032
vn 0 0 1
vn 0 0 1
vn 0.99999988079071045 0 -0.00048884894931688905
vn 0 0 1
vn 0.99999988079071045 0 -0.00048884894931688905
vn 0 0 1
vn 0.99999988079071045 0 -0.00048884894931688905
vn 0 0 1
vn 0 0 1
vn 0.99999988079071045 0 -0.00048884894931688905
vn 0 0 1
vn 0 0 1
vn 0.99999988079071045 0 -0.00048884894931688905
vn 0 0 1
vn 0.99999988079071045 0 -0.00048884894931688905
vn 0 0 1
vn 0 0 1
vn 1 0 0
vn 0 0 -1
vn 1 0 0
vn 0 0 -1
vn 1 0 0
vn 0 0 -1
vn 1 0 0
vn 0 0 -1
vn 1 0 0
vn 0 0 -1
vn 0 0 -1
vn 1 0 0
vn 0 0 -1
f 1/1/1 4/4/4 8/8/8
f 5/5/5 2/2/2 10/10/10
f 12/12/12 10/10/10 2/2/2
f 10/10/10 12/12/12 14/14/14
f 16/16/16 14/14/14 12/12/12
f 14/14/14 16/16/16 19/19/19
f 16/16/16 22/22/22 19/19/19
f 17/17/17 25/25/25 24/24/24
f 13/13/13 26/26/26 18/18/18
f 13/13/13 28/28/28 26/26/26
f 13/13/13 30/30/30 28/28/28
f 13/13/13 3/3/3 30/30/30
f 3/3/3 32/32/32 30/30/30
f 3/3/3 35/35/35 32/32/32
f 3/3/3 38/38/38 35/35/35
f 9/9/9 38/38/38 3/3/3
f 6/6/6 38/38/38 9/9/9
f 40/40/40 39/39/39 7/7/7
f 36/36/36 39/39/39 40/40/40
f 37/37/37 41/41/41 33/33/33
f 34/34/34 42/42/42 31/31/31
f 31/31/31 42/42/42 29/29/29
f 43/43/43 29/29/29 42/42/42
f 29/29/29 43/43/43 27/27/27
f 45/45/45 27/27/27 43/43/43
f 27/27/27 45/45/45 48/48/48
f 49/49/49 46/46/46 52/52/52
f 47/47/47 54/54/54 51/51/51
f 57/57/57 54/54/54 47/47/47
f 21/21/21 57/57/57 47/47/47
f 44/44/44 21/21/21 47/47/47
f 44/44/44 15/15/15 21/21/21
f 44/44/44 11/11/11 15/15/15
f 44/44/44 40/40/40 11/11/11
f 40/40/40 7/7/7 11/11/11
f 51/51/51 54/54/54 59/59/59
f 59/59/59 54/54/54 61/61/61
f 61/61/61 54/54/54 63/63/63
f 63/63/63 54/54/54 65/65/65
f 67/67/67 65/65/65 54/54/54
f 56/56/56 72/72/72 69/69/69
f 56/56/56 74/74/74 72/72/72
f 55/55/55 76/76/76 73/73/73
f 73/73/73 76/76/76 77/77/77
f 77/77/77 76/76/76 79/79/79
f 79/79/79 76/76/76 81/81/81
f 83/83/83 81/81/81 76/76/76
f 81/81/81 83/83/83 84/84/84
f 86/86/86 84/84/84 83/83/83
f 84/84/84 86/86/86 87/87/87
f 58/58/58 87/87/87 86/86/86
f 87/87/87 58/58/58 89/89/89
f 91/91/91 89/89/89 58/58/58
f 89/89/89 91/91/91 22/22/22
f 20/20/20 23/23/23 92/92/92
f 24/24/24 25/25/25 90/90/90
f 90/90/90 25/25/25 88/88/88
f 88/88/88 25/25/25 85/85/85
f 85/85/85 25/25/25 82/82/82
f 82/82/82 25/25/25 80/80/80
f 80/80/80 25/25/25 78/78/78
f 78/78/78 25/25/25 75/75/75
f 75/75/75 25/25/25 50/50/50
f 75/75/75 50/50/50 93/93/93
f 48/48/48 53/53/53 94/94/94
f 60/60/60 94/94/94 53/53/53
f 94/94/94 60/60/60 96/96/96
f 62/62/62 96/96/96 60/60/60
f 96/96/96 62/62/62 98/98/98
f 64/64/64 98/98/98 62/62/62
f 98/98/98 64/64/64 100/100/100
f 66/66/66 100/100/100 64/64/64
f 100/100/100 66/66/66 102/102/102
f 103/103/103 102/102/102 66/66/66
f 102/102/102 103/103/103 105/105/105
f 68/68/68 105/105/105 103/103/103
f 105/105/105 68/68/68 71/71/71
f 75/75/75 104/104/104 70/70/70
f 75/75/75 101/101/101 104/104/104
f 75/75/75 99/99/99 101/101/101
f 75/75/75 97/97/97 99/99/99
f 75/75/75 95/95/95 97/97/97
f 75/75/75 93/93/93 95/95/95
