# Rhino

mtllib chair_011_04.mtl
usemtl diffuse_127_255_0_255
v 0.20974300000000001 301.13099999999997 -350.10300000000001
v 229.791 301.13099999999997 -174.54399999999998
v 229.791 301.13099999999997 -174.54399999999998
v 229.791 301.13099999999997 -174.54399999999998
v 229.791 301.13099999999997 -174.54399999999998
v 459.37199999999996 301.13099999999997 -350.10300000000001
v 0.20974300000000001 301.13099999999997 1.01484
v 0.191469 298.01900000000001 1.01484
v 0.191469 298.01900000000001 -350.10300000000001
v 459.37199999999996 301.13099999999997 1.01484
v 0.45642500000000003 294.91899999999998 1.01484
v 1.00241 291.85500000000002 1.01484
v 1.8249000000000002 288.85399999999998 1.01484
v 2.9170600000000002 285.94 1.01484
v 4.2698399999999994 283.13800000000003 1.01484
v 5.8720000000000008 280.471 1.01484
v 7.7102499999999994 277.95999999999998 1.01484
v 9.7693499999999993 275.62700000000001 1.01484
v 29.986899999999999 266.75099999999998 1.01484
v 69.784700000000001 260.28300000000002 1.01484
v 97.500900000000001 257.65999999999997 1.01484
v 362.08100000000002 257.65999999999997 1.01484
v 389.79700000000003 260.28300000000002 1.01484
v 429.59499999999997 266.75099999999998 1.01484
v 449.81200000000001 275.62700000000001 1.01484
v 451.87099999999998 277.95999999999998 1.01484
v 453.71000000000004 280.471 1.01484
v 455.31200000000001 283.13800000000003 1.01484
v 456.66499999999996 285.94 1.01484
v 457.75700000000001 288.85399999999998 1.01484
v 458.57900000000001 291.85500000000002 1.01484
v 459.125 294.91899999999998 1.01484
v 459.38999999999999 298.01900000000001 1.01484
v 459.38999999999999 298.01900000000001 -350.10300000000001
v 459.125 294.91899999999998 -350.10300000000001
v 458.57900000000001 291.85500000000002 -350.10300000000001
v 457.75700000000001 288.85399999999998 -350.10300000000001
v 456.66499999999996 285.94 -350.10300000000001
v 455.31200000000001 283.13800000000003 -350.10300000000001
v 453.71000000000004 280.471 -350.10300000000001
v 451.87099999999998 277.95999999999998 -350.10300000000001
v 449.81200000000001 275.62700000000001 -350.10300000000001
v 429.59499999999997 266.75099999999998 -350.10300000000001
v 389.79700000000003 260.28300000000002 -350.10300000000001
v 362.08100000000002 257.65999999999997 -350.10300000000001
v 97.500900000000001 257.65999999999997 -350.10300000000001
v 69.784700000000001 260.28300000000002 -350.10300000000001
v 29.986899999999999 266.75099999999998 -350.10300000000001
v 9.7693499999999993 275.62700000000001 -350.10300000000001
v 7.7102499999999994 277.95999999999998 -350.10300000000001
v 5.8720000000000008 280.471 -350.10300000000001
v 4.2698399999999994 283.13800000000003 -350.10300000000001
v 2.9170600000000002 285.94 -350.10300000000001
v 1.8249000000000002 288.85399999999998 -350.10300000000001
v 1.00241 291.85500000000002 -350.10300000000001
v 0.45642500000000003 294.91899999999998 -350.10300000000001
vt 0.74421298503875732 0.30975601077079773
vt 0.49546098709106445 0.30975601077079773
vt 0.49546098709106445 0.30975601077079773
vt 0.49546098709106445 0.30975601077079773
vt 0.49546098709106445 0.30975601077079773
vt 0.24671000242233276 0.30975601077079773
vt 0.74421298503875732 0.30975601077079773
vt 0.74423301219940186 0.30638399720191956
vt 0.74423301219940186 0.30638399720191956
vt 0.24671000242233276 0.30975601077079773
vt 0.74394601583480835 0.3030250072479248
vt 0.74335402250289917 0.29970601201057434
vt 0.74246299266815186 0.29645401239395142
vt 0.74128001928329468 0.29329699277877808
vt 0.73981398344039917 0.29026100039482117
vt 0.73807799816131592 0.28737100958824158
vt 0.73608601093292236 0.28464999794960022
vt 0.73385500907897949 0.28212299942970276
vt 0.71194899082183838 0.2725059986114502
vt 0.66882801055908203 0.26549699902534485
vt 0.63879799842834473 0.26265600323677063
vt 0.35212498903274536 0.26265600323677063
vt 0.32209399342536926 0.26549699902534485
vt 0.27897399663925171 0.2725059986114502
vt 0.25706800818443298 0.28212299942970276
vt 0.25483700633049011 0.28464999794960022
vt 0.25284498929977417 0.28737100958824158
vt 0.25110900402069092 0.29026100039482117
vt 0.2496429979801178 0.29329699277877808
vt 0.24845999479293823 0.29645401239395142
vt 0.24756899476051331 0.29970601201057434
vt 0.24697700142860413 0.3030250072479248
vt 0.24669000506401062 0.30638399720191956
vt 0.24669000506401062 0.30638399720191956
vt 0.24697700142860413 0.3030250072479248
vt 0.24756899476051331 0.29970601201057434
vt 0.24845999479293823 0.29645401239395142
vt 0.2496429979801178 0.29329699277877808
vt 0.25110900402069092 0.29026100039482117
vt 0.25284498929977417 0.28737100958824158
vt 0.25483700633049011 0.28464999794960022
vt 0.25706800818443298 0.28212299942970276
vt 0.27897399663925171 0.2725059986114502
vt 0.32209399342536926 0.26549699902534485
vt 0.35212498903274536 0.26265600323677063
vt 0.63879799842834473 0.26265600323677063
vt 0.66882801055908203 0.26549699902534485
vt 0.71194899082183838 0.2725059986114502
vt 0.73385500907897949 0.28212299942970276
vt 0.73608601093292236 0.28464999794960022
vt 0.73807799816131592 0.28737100958824158
vt 0.73981398344039917 0.29026100039482117
vt 0.74128001928329468 0.29329699277877808
vt 0.74246299266815186 0.29645401239395142
vt 0.74335402250289917 0.29970601201057434
vt 0.74394601583480835 0.3030250072479248
vn -0.4074440598487854 0.81729614734649658 -0.40745106339454651
vn 0 1 0
vn 0 1 0
vn 0 1 0
vn 0 1 0
vn 0.4074440598487854 0.81729614734649658 -0.40745106339454651
vn -0.4074440598487854 0.81729614734649658 0.40745106339454651
vn -0.89353710412979126 -0.035482507199048996 0.44758507609367371
vn -0.89353710412979126 -0.035482507199048996 -0.44758507609367371
vn 0.4074440598487854 0.81729614734649658 0.40745106339454651
vn -0.88660115003585815 -0.11664502322673798 0.44758504629135132
vn -0.87230819463729858 -0.1968400627374649 0.44758507609367371
vn -0.85077697038650513 -0.2754020094871521 0.44758498668670654
vn -0.8221861720085144 -0.35167810320854187 0.44758507609367371
vn -0.78677314519882202 -0.42503607273101807 0.44758507609367371
vn -0.74483186006546021 -0.49486690759658813 0.44758492708206177
vn -0.6967092752456665 -0.56059223413467407 0.44758519530296326
vn -0.52488911151885986 -0.71888017654418945 0.45574411749839783
vn -0.25312593579292297 -0.85636276006698608 0.45007789134979248
vn -0.11392298340797424 -0.88704180717468262 0.44741293787956238
vn -0.042162418365478516 -0.89323329925537109 0.44761213660240173
vn 0.042162418365478516 -0.89323329925537109 0.44761213660240173
vn 0.11392298340797424 -0.88704180717468262 0.44741293787956238
vn 0.25312593579292297 -0.85636276006698608 0.45007789134979248
vn 0.52488911151885986 -0.71888017654418945 0.45574411749839783
vn 0.6967092752456665 -0.56059223413467407 0.44758519530296326
vn 0.74483186006546021 -0.49486690759658813 0.44758492708206177
vn 0.78677314519882202 -0.42503607273101807 0.44758507609367371
vn 0.8221861720085144 -0.35167810320854187 0.44758507609367371
vn 0.85077697038650513 -0.2754020094871521 0.44758498668670654
vn 0.87230819463729858 -0.1968400627374649 0.44758507609367371
vn 0.88660115003585815 -0.11664502322673798 0.44758504629135132
vn 0.89353710412979126 -0.035482507199048996 0.44758507609367371
vn 0.89353710412979126 -0.035482507199048996 -0.44758507609367371
vn 0.88660115003585815 -0.11664502322673798 -0.44758504629135132
vn 0.87230819463729858 -0.1968400627374649 -0.44758507609367371
vn 0.85077697038650513 -0.2754020094871521 -0.44758498668670654
vn 0.8221861720085144 -0.35167810320854187 -0.44758507609367371
vn 0.78677314519882202 -0.42503607273101807 -0.44758507609367371
vn 0.74483186006546021 -0.49486690759658813 -0.44758492708206177
vn 0.6967092752456665 -0.56059223413467407 -0.44758519530296326
vn 0.52488911151885986 -0.71888017654418945 -0.45574411749839783
vn 0.25312593579292297 -0.85636276006698608 -0.45007789134979248
vn 0.11392298340797424 -0.88704180717468262 -0.44741293787956238
vn 0.042162418365478516 -0.89323329925537109 -0.44761213660240173
vn -0.042162418365478516 -0.89323329925537109 -0.44761213660240173
vn -0.11392298340797424 -0.88704180717468262 -0.44741293787956238
vn -0.25312593579292297 -0.85636276006698608 -0.45007789134979248
vn -0.52488911151885986 -0.71888017654418945 -0.45574411749839783
vn -0.6967092752456665 -0.56059223413467407 -0.44758519530296326
vn -0.74483186006546021 -0.49486690759658813 -0.44758492708206177
vn -0.78677314519882202 -0.42503607273101807 -0.44758507609367371
vn -0.8221861720085144 -0.35167810320854187 -0.44758507609367371
vn -0.85077697038650513 -0.2754020094871521 -0.44758498668670654
vn -0.87230819463729858 -0.1968400627374649 -0.44758507609367371
vn -0.88660115003585815 -0.11664502322673798 -0.44758504629135132
f 1/1/1 2/2/2 6/6/6
f 1/1/1 7/7/7 3/3/3
f 8/8/8 7/7/7 1/1/1 9/9/9
f 10/10/10 7/7/7 21/21/21
f 7/7/7 8/8/8 19/19/19
f 8/8/8 11/11/11 19/19/19
f 11/11/11 12/12/12 19/19/19
f 12/12/12 13/13/13 19/19/19
f 13/13/13 14/14/14 19/19/19
f 14/14/14 15/15/15 19/19/19
f 15/15/15 16/16/16 19/19/19
f 17/17/17 18/18/18 19/19/19
f 17/17/17 19/19/19 16/16/16
f 20/20/20 21/21/21 7/7/7
f 20/20/20 7/7/7 19/19/19
f 21/21/21 22/22/22 10/10/10
f 22/22/22 23/23/23 10/10/10
f 23/23/23 24/24/24 10/10/10
f 24/24/24 25/25/25 26/26/26
f 26/26/26 27/27/27 24/24/24
f 27/27/27 28/28/28 24/24/24
f 28/28/28 29/29/29 24/24/24
f 29/29/29 30/30/30 24/24/24
f 30/30/30 31/31/31 24/24/24
f 31/31/31 32/32/32 24/24/24
f 33/33/33 10/10/10 24/24/24
f 33/33/33 24/24/24 32/32/32
f 10/10/10 4/4/4 7/7/7
f 10/10/10 6/6/6 5/5/5
f 10/10/10 33/33/33 34/34/34 6/6/6
f 33/33/33 32/32/32 35/35/35 34/34/34
f 32/32/32 31/31/31 36/36/36 35/35/35
f 31/31/31 30/30/30 37/37/37 36/36/36
f 30/30/30 29/29/29 38/38/38 37/37/37
f 29/29/29 28/28/28 39/39/39 38/38/38
f 28/28/28 27/27/27 40/40/40 39/39/39
f 27/27/27 26/26/26 41/41/41 40/40/40
f 26/26/26 25/25/25 42/42/42 41/41/41
f 25/25/25 24/24/24 43/43/43 42/42/42
f 24/24/24 23/23/23 44/44/44 43/43/43
f 23/23/23 22/22/22 45/45/45 44/44/44
f 22/22/22 21/21/21 46/46/46 45/45/45
f 21/21/21 20/20/20 47/47/47 46/46/46
f 20/20/20 19/19/19 48/48/48 47/47/47
f 19/19/19 18/18/18 49/49/49 48/48/48
f 18/18/18 17/17/17 50/50/50 49/49/49
f 17/17/17 16/16/16 51/51/51 50/50/50
f 16/16/16 15/15/15 52/52/52 51/51/51
f 15/15/15 14/14/14 53/53/53 52/52/52
f 14/14/14 13/13/13 54/54/54 53/53/53
f 13/13/13 12/12/12 55/55/55 54/54/54
f 12/12/12 11/11/11 56/56/56 55/55/55
f 11/11/11 8/8/8 9/9/9 56/56/56
f 1/1/1 6/6/6 46/46/46
f 6/6/6 34/34/34 43/43/43
f 34/34/34 35/35/35 43/43/43
f 35/35/35 36/36/36 43/43/43
f 36/36/36 37/37/37 43/43/43
f 37/37/37 38/38/38 43/43/43
f 38/38/38 39/39/39 43/43/43
f 39/39/39 40/40/40 43/43/43
f 41/41/41 42/42/42 43/43/43
f 41/41/41 43/43/43 40/40/40
f 43/43/43 44/44/44 6/6/6
f 45/45/45 46/46/46 6/6/6
f 45/45/45 6/6/6 44/44/44
f 46/46/46 47/47/47 1/1/1
f 47/47/47 48/48/48 1/1/1
f 48/48/48 49/49/49 50/50/50
f 50/50/50 51/51/51 48/48/48
f 51/51/51 52/52/52 48/48/48
f 52/52/52 53/53/53 48/48/48
f 53/53/53 54/54/54 48/48/48
f 54/54/54 55/55/55 48/48/48
f 55/55/55 56/56/56 48/48/48
f 9/9/9 1/1/1 48/48/48
f 9/9/9 48/48/48 56/56/56
