# Rhino

mtllib Sofa_01_14.mtl
usemtl Default
v -0.24710970992043468 0.11384116542539308 -0.051002040095465606
v -0.28670342480565447 0.22768233085024037 -0.011408325210445547
v -0.11606668193208924 0.11384116542563349 0.080040987893089222
v -0.27519035877443476 0.11384116542539319 -0.022921391241465416
v -0.31478407365965455 0.22768233085024034 0.016672323643554421
v -0.14414733078608921 0.11384116542563355 0.10812163674708919
v -0.15566039681756016 0.22768233085030587 0.11963470277756028
v -0.18374104567156013 0.2276823308503059 0.14771535163156024
v -0.27519035877443476 0.11384116542539319 -0.022921391241465416
v -0.31478407365965455 0.22768233085024034 0.016672323643554421
v -0.28670342480565447 0.22768233085024037 -0.011408325210445547
v -0.24710970992043468 0.11384116542539308 -0.051002040095465606
v -0.14414733078608921 0.11384116542563355 0.10812163674708919
v -0.27519035877443476 0.11384116542539319 -0.022921391241465416
v -0.24710970992043468 0.11384116542539308 -0.051002040095465606
v -0.11606668193208924 0.11384116542563349 0.080040987893089222
v -0.31478407365965455 0.22768233085024034 0.016672323643554421
v -0.18374104567156013 0.2276823308503059 0.14771535163156024
v -0.15566039681756016 0.22768233085030587 0.11963470277756028
v -0.28670342480565447 0.22768233085024037 -0.011408325210445547
v -0.18374104567156013 0.2276823308503059 0.14771535163156024
v -0.14414733078608921 0.11384116542563355 0.10812163674708919
v -0.11606668193208924 0.11384116542563349 0.080040987893089222
v -0.15566039681756016 0.22768233085030587 0.11963470277756028
vt 0.83333331346511841 0.1666666716337204
vt 0.83333331346511841 0.66666668653488159
vt 0.3333333432674408 0.1666666716337204
vt 1 0
vt 1 1
vt 0 0
vt 0.1666666716337204 0.83333331346511841
vt 0 1
vt 1 0
vt 1 1
vt 0.83333331346511841 0.66666668653488159
vt 0.83333331346511841 0.1666666716337204
vt 0 0
vt 1 0
vt 0.83333331346511841 0.1666666716337204
vt 0.3333333432674408 0.1666666716337204
vt 1 1
vt 0 1
vt 0.1666666716337204 0.83333331346511841
vt 0.83333331346511841 0.66666668653488159
vt 0 1
vt 0 0
vt 0.3333333432674408 0.1666666716337204
vt 0.1666666716337204 0.83333331346511841
vn 0.63450789451599121 0.44136098027229309 -0.63450789451599121
vn 0.63450789451599121 0.44136098027229309 -0.63450789451599121
vn 0.63450789451599121 0.44136098027229309 -0.63450789451599121
vn -0.63450789451599121 -0.44136098027229309 0.63450789451599121
vn -0.63450789451599121 -0.44136098027229309 0.63450789451599121
vn -0.63450789451599121 -0.44136098027229309 0.63450789451599121
vn 0.63450789451599121 0.44136098027229309 -0.63450789451599121
vn -0.63450789451599121 -0.44136098027229309 0.63450789451599121
vn -0.70710676908493042 0 -0.70710676908493042
vn -0.70710676908493042 0 -0.70710676908493042
vn -0.70710676908493042 0 -0.70710676908493042
vn -0.70710676908493042 0 -0.70710676908493042
vn 0 -1 0
vn 0 -1 0
vn 0 -1 0
vn 0 -1 0
vn 0 1 0
vn 0 1 0
vn 0 1 0
vn 0 1 0
vn 0.70710676908493042 0 0.70710676908493042
vn 0.70710676908493042 0 0.70710676908493042
vn 0.70710676908493042 0 0.70710676908493042
vn 0.70710676908493042 0 0.70710676908493042
f 1/1/1 2/2/2 3/3/3
f 4/4/4 6/6/6 5/5/5
f 7/7/7 3/3/3 2/2/2
f 8/8/8 5/5/5 6/6/6
f 9/9/9 10/10/10 11/11/11 12/12/12
f 13/13/13 14/14/14 15/15/15 16/16/16
f 17/17/17 18/18/18 19/19/19 20/20/20
f 21/21/21 22/22/22 23/23/23 24/24/24
