# Rhino

mtllib Sofa_01_01.mtl
usemtl Default
v 0 0.015884812921285629 0.28596574068069458
v 0.42308175563812256 0.015884812921285629 -0.13711607456207275
v -0.42308175563812256 0.015884812921285629 -0.13711607456207275
v -0.26583015918731689 0.015884812921285629 -0.29436767101287842
v 0 0.015884812921285629 -0.028537511825561523
v 0.26583015918731689 0.015884812921285629 -0.29436767101287842
v 0 0.015884812921285629 -0.028537511825561523
v 0 0.099280089139938354 -0.028537511825561523
v -0.26583015918731689 0.015884812921285629 -0.29436767101287842
v -0.26583015918731689 0.099280089139938354 -0.29436767101287842
v 0.26583015918731689 0.015884812921285629 -0.29436767101287842
v 0.26583015918731689 0.099280089139938354 -0.29436767101287842
v 0 0.015884812921285629 -0.028537511825561523
v 0 0.099280089139938354 -0.028537511825561523
v 0.42308175563812256 0.015884812921285629 -0.13711607456207275
v 0.42308175563812256 0.099280089139938354 -0.13711607456207275
v 0.26583015918731689 0.015884812921285629 -0.29436767101287842
v 0.26583015918731689 0.099280089139938354 -0.29436767101287842
v 0 0.015884812921285629 0.28596574068069458
v 0 0.099280089139938354 0.28596574068069458
v 0.42308175563812256 0.015884812921285629 -0.13711607456207275
v 0.42308175563812256 0.099280089139938354 -0.13711607456207275
v -0.42308175563812256 0.015884812921285629 -0.13711607456207275
v -0.42308175563812256 0.099280089139938354 -0.13711607456207275
v 0 0.015884812921285629 0.28596574068069458
v 0 0.099280089139938354 0.28596574068069458
v -0.26583015918731689 0.015884812921285629 -0.29436767101287842
v -0.26583015918731689 0.099280089139938354 -0.29436767101287842
v -0.42308175563812256 0.015884812921285629 -0.13711607456207275
v -0.42308175563812256 0.099280089139938354 -0.13711607456207275
v 0 0.099280089139938354 0.28596574068069458
v 0.42308175563812256 0.099280089139938354 -0.13711607456207275
v -0.42308175563812256 0.099280089139938354 -0.13711607456207275
v -0.26583015918731689 0.099280089139938354 -0.29436767101287842
v 0 0.099280089139938354 -0.028537511825561523
v 0.26583015918731689 0.099280089139938354 -0.29436767101287842
vt 0.5 0.29203540086746216
vt 0.5 0.79057055711746216
vt 0.99853515625 0.29203540086746216
vt 0.99853515625 0.47733166813850403
vt 0.68529623746871948 0.47733166813850403
vt 0.68529623746871948 0.79057055711746216
vt 0.5 0.14601770043373108
vt 0.5 0.1932254284620285
vt 0.81415927410125732 0.14601770043373108
vt 0.81415927410125732 0.1932254284620285
vt 0.5 0.097345136106014252
vt 0.5 0.14455285668373108
vt 0.81415927410125732 0.097345136106014252
vt 0.81415927410125732 0.14455285668373108
vt 0.5 0
vt 0.5 0.047207724303007126
vt 0.68584072589874268 0
vt 0.68584072589874268 0.047207724303007126
vt 0.5 0.1946902722120285
vt 0.5 0.24189798533916473
vt 0.99853515625 0.1946902722120285
vt 0.99853515625 0.24189798533916473
vt 0.5 0.24336282908916473
vt 0.5 0.29057055711746216
vt 0.99853515625 0.24336282908916473
vt 0.99853515625 0.29057055711746216
vt 0.5 0.048672568053007126
vt 0.5 0.095880292356014252
vt 0.68584072589874268 0.048672568053007126
vt 0.68584072589874268 0.095880292356014252
vt 0.49853515625 0
vt 0 0
vt 0.49853515625 0.5
vt 0.31323888897895813 0.5
vt 0.31323888897895813 0.18584071099758148
vt 0 0.18584071099758148
vn 0 -1 0
vn 0 -1 0
vn 0 -1 0
vn 0 -1 0
vn 0 -1 0
vn 0 -1 0
vn 0.70710676908493042 0 -0.70710676908493042
vn 0.70710676908493042 0 -0.70710676908493042
vn 0.70710676908493042 0 -0.70710676908493042
vn 0.70710676908493042 0 -0.70710676908493042
vn -0.70710676908493042 0 -0.70710676908493042
vn -0.70710676908493042 0 -0.70710676908493042
vn -0.70710676908493042 0 -0.70710676908493042
vn -0.70710676908493042 0 -0.70710676908493042
vn 0.70710676908493042 0 -0.70710676908493042
vn 0.70710676908493042 0 -0.70710676908493042
vn 0.70710676908493042 0 -0.70710676908493042
vn 0.70710676908493042 0 -0.70710676908493042
vn 0.70710676908493042 0 0.70710676908493042
vn 0.70710676908493042 0 0.70710676908493042
vn 0.70710676908493042 0 0.70710676908493042
vn 0.70710676908493042 0 0.70710676908493042
vn -0.70710676908493042 0 0.70710676908493042
vn -0.70710676908493042 0 0.70710676908493042
vn -0.70710676908493042 0 0.70710676908493042
vn -0.70710676908493042 0 0.70710676908493042
vn -0.70710676908493042 0 -0.70710676908493042
vn -0.70710676908493042 0 -0.70710676908493042
vn -0.70710676908493042 0 -0.70710676908493042
vn -0.70710676908493042 0 -0.70710676908493042
vn 0 1 0
vn 0 1 0
vn 0 1 0
vn 0 1 0
vn 0 1 0
vn 0 1 0
f 6/6/6 2/2/2 5/5/5
f 1/1/1 5/5/5 2/2/2
f 4/4/4 5/5/5 3/3/3
f 1/1/1 3/3/3 5/5/5
f 8/8/8 7/7/7 9/9/9 10/10/10
f 12/12/12 11/11/11 13/13/13 14/14/14
f 16/16/16 15/15/15 17/17/17 18/18/18
f 20/20/20 19/19/19 21/21/21 22/22/22
f 24/24/24 23/23/23 25/25/25 26/26/26
f 28/28/28 27/27/27 29/29/29 30/30/30
f 36/36/36 35/35/35 32/32/32
f 31/31/31 32/32/32 35/35/35
f 34/34/34 33/33/33 35/35/35
f 31/31/31 35/35/35 33/33/33
