# Rhino

mtllib Sofa_04_01.mtl
usemtl Default
v -0.38261074839300002 0.1311808280209 0.14711273958400017
v 0.38261074839300013 0.1311808280209 -0.18083933046800027
v -0.38261074839300002 0.1311808280209 -0.18083933046800027
v 0.38261074839300013 0.1311808280209 0.14711273958400017
v 0.37729814349300006 0.07090301891100001 -0.1824987679419996
v 0.38261074839300013 0.12024909235260001 -0.18083933046800027
v 0.38261074839300013 0.065590414011000006 -0.18083933046800027
v 0.38261074839300013 0.1311808280209 -0.18083933046800027
v 0.37729814349300006 0.12586800448610003 -0.1824987679419996
v 0.37190212945000001 0.076299032954000007 -0.18386414172699972
v 0.37729814349300006 0.12024909235260001 -0.1824987679419996
v 0.37729814349300006 0.07090301891100001 -0.1824987679419996
v 0.37729814349300006 0.12586800448610003 -0.1824987679419996
v 0.37190212945000001 0.12047209976020001 -0.18386414172699972
v 0.36643932250199995 0.081761839902300015 -0.18492889278100044
v 0.37190212945000001 0.12024909235260001 -0.18386414172699972
v 0.37190212945000001 0.076299032954000007 -0.18386414172699972
v 0.37167901272500004 0.12024909235260001 -0.18390677549600021
v 0.36643932250199995 0.11500951144670001 -0.18492889278100044
v 0.36092612025199999 0.087275042151900004 -0.18569302110500008
v 0.36643932250199995 0.11500951144670001 -0.18492889278100044
v 0.36643932250199995 0.081761839902300015 -0.18492889278100044
v 0.36092612025199999 0.1094966371491 -0.18569302110500008
v 0.35537924825699996 0.092821914147400014 -0.18615215400300045
v 0.36092612025199999 0.1094966371491 -0.18569302110500008
v 0.36092612025199999 0.087275042151900004 -0.18569302110500008
v 0.35537924825699996 0.10394932788420001 -0.18615215400300045
v 0.34981554138799997 0.098385621015800007 -0.18630519830199965
v 0.35537924825699996 0.10394932788420001 -0.18615215400300045
v 0.35537924825699996 0.092821914147400014 -0.18615215400300045
v 0.34981554138799997 0.098385621015800007 -0.18630519830199965
v -0.35537979484299997 0.10394932788420001 -0.18615215400300045
v 0.35537924825699996 0.10394932788420001 -0.18615215400300045
v -0.34981554138799997 0.098385621015800007 -0.18630519830199965
v 0.34981554138799997 0.098385621015800007 -0.18630519830199965
v 0.34425183452000008 0.092821914147400014 -0.18615215400300045
v -0.34981554138799997 0.098385621015800007 -0.18630519830199965
v 0.35537924825699996 0.092821914147400014 -0.18615215400300045
v -0.34425128793299997 0.092821914147400014 -0.18615215400300045
v -0.35537979484299997 0.092821914147400014 -0.18615215400300045
v 0.35537924825699996 0.092821914147400014 -0.18615215400300045
v 0.33870496252399995 0.087275042151900004 -0.18569302110500008
v 0.34425183452000008 0.092821914147400014 -0.18615215400300045
v 0.36092612025199999 0.087275042151900004 -0.18569302110500008
v -0.34425128793299997 0.092821914147400014 -0.18615215400300045
v -0.33870452525500006 0.087275042151900004 -0.18569302110500008
v -0.36092655752199998 0.087275042151900004 -0.18569302110500008
v -0.35537979484299997 0.092821914147400014 -0.18615215400300045
v 0.36092612025199999 0.087275042151900004 -0.18569302110500008
v 0.33319176027500008 0.081761839902300015 -0.18492889278100044
v 0.33870496252399995 0.087275042151900004 -0.18569302110500008
v 0.36643932250199995 0.081761839902300015 -0.18492889278100044
v -0.33870452525500006 0.087275042151900004 -0.18569302110500008
v -0.33319165095699999 0.081761839902300015 -0.18492889278100044
v -0.36643943181900007 0.081761839902300015 -0.18492889278100044
v -0.36092655752199998 0.087275042151900004 -0.18569302110500008
v 0.36643932250199995 0.081761839902300015 -0.18492889278100044
v 0.32772906264399992 0.076299032954000007 -0.18386414172699972
v 0.33319176027500008 0.081761839902300015 -0.18492889278100044
v 0.37190212945000001 0.076299032954000007 -0.18386414172699972
v -0.33319165095699999 0.081761839902300015 -0.18492889278100044
v -0.32772906264399992 0.076299032954000007 -0.18386414172699972
v -0.371902020133 0.076299032954000007 -0.18386414172699972
v -0.36643943181900007 0.081761839902300015 -0.18492889278100044
v 0.37190212945000001 0.076299032954000007 -0.18386414172699972
v 0.32233315791799999 0.07090301891100001 -0.1824987679419996
v 0.32772906264399992 0.076299032954000007 -0.18386414172699972
v 0.37729814349300006 0.07090301891100001 -0.1824987679419996
v -0.32772906264399992 0.076299032954000007 -0.18386414172699972
v -0.32233315791799999 0.07090301891100001 -0.1824987679419996
v -0.37729792485900004 0.07090301891100001 -0.1824987679419996
v -0.371902020133 0.076299032954000007 -0.18386414172699972
v 0.37729814349300006 0.07090301891100001 -0.1824987679419996
v 0.31702033438300004 0.065590414011000006 -0.18083933046800027
v 0.32233315791799999 0.07090301891100001 -0.1824987679419996
v 0.38261074839300013 0.065590414011000006 -0.18083933046800027
v -0.32233315791799999 0.07090301891100001 -0.1824987679419996
v -0.31702033438300004 0.065590414011000006 -0.18083933046800027
v -0.38261074839300002 0.065590414011000006 -0.18083933046800027
v -0.37729792485900004 0.07090301891100001 -0.1824987679419996
v -0.37729792485900004 0.12586800448610003 -0.1824987679419996
v -0.38261074839300002 0.065590414011000006 -0.18083933046800027
v -0.38261074839300002 0.1311808280209 -0.18083933046800027
v -0.37729792485900004 0.07090301891100001 -0.1824987679419996
v -0.371902020133 0.12047209976020001 -0.18386414172699972
v -0.37729792485900004 0.07090301891100001 -0.1824987679419996
v -0.37729792485900004 0.12586800448610003 -0.1824987679419996
v -0.371902020133 0.076299032954000007 -0.18386414172699972
v -0.36643943181900007 0.11500951144670001 -0.18492889278100044
v -0.371902020133 0.076299032954000007 -0.18386414172699972
v -0.371902020133 0.12047209976020001 -0.18386414172699972
v -0.36643943181900007 0.081761839902300015 -0.18492889278100044
v -0.36092655752199998 0.1094966371491 -0.18569302110500008
v -0.36643943181900007 0.081761839902300015 -0.18492889278100044
v -0.36643943181900007 0.11500951144670001 -0.18492889278100044
v -0.36092655752199998 0.087275042151900004 -0.18569302110500008
v -0.35537979484299997 0.10394932788420001 -0.18615215400300045
v -0.36092655752199998 0.087275042151900004 -0.18569302110500008
v -0.36092655752199998 0.1094966371491 -0.18569302110500008
v -0.35537979484299997 0.092821914147400014 -0.18615215400300045
v -0.35537979484299997 0.10394932788420001 -0.18615215400300045
v -0.34981554138799997 0.098385621015800007 -0.18630519830199965
v -0.35537979484299997 0.092821914147400014 -0.18615215400300045
v -0.36092655752199998 0.1094966371491 -0.18569302110500008
v -0.35537979484299997 0.10394932788420001 -0.18615215400300045
v 0.35537924825699996 0.10394932788420001 -0.18615215400300045
v 0.36092612025199999 0.1094966371491 -0.18569302110500008
v -0.36643943181900007 0.11500951144670001 -0.18492889278100044
v -0.36092655752199998 0.1094966371491 -0.18569302110500008
v 0.36092612025199999 0.1094966371491 -0.18569302110500008
v 0.36643932250199995 0.11500951144670001 -0.18492889278100044
v 0.32772906264399992 0.12047209976020001 -0.18386414172699972
v -0.36643943181900007 0.11500951144670001 -0.18492889278100044
v 0.36643932250199995 0.11500951144670001 -0.18492889278100044
v 0.37167901272500004 0.12024909235260001 -0.18390677549600021
v 0.37190212945000001 0.12047209976020001 -0.18386414172699972
v -0.32772906264399992 0.12047209976020001 -0.18386414172699972
v -0.371902020133 0.12047209976020001 -0.18386414172699972
v 0.32233315791799999 0.12586800448610003 -0.1824987679419996
v 0.32772906264399992 0.12047209976020001 -0.18386414172699972
v 0.37190212945000001 0.12047209976020001 -0.18386414172699972
v 0.37729814349300006 0.12586800448610003 -0.1824987679419996
v -0.32233315791799999 0.12586800448610003 -0.1824987679419996
v -0.32772906264399992 0.12047209976020001 -0.18386414172699972
v -0.37729792485900004 0.12586800448610003 -0.1824987679419996
v -0.371902020133 0.12047209976020001 -0.18386414172699972
v 0.31702033438300004 0.1311808280209 -0.18083933046800027
v 0.32233315791799999 0.12586800448610003 -0.1824987679419996
v 0.37729814349300006 0.12586800448610003 -0.1824987679419996
v 0.38261074839300013 0.1311808280209 -0.18083933046800027
v -0.32233315791799999 0.12586800448610003 -0.1824987679419996
v -0.38261074839300002 0.1311808280209 -0.18083933046800027
v -0.37729792485900004 0.12586800448610003 -0.1824987679419996
v -0.31702033438300004 0.1311808280209 -0.18083933046800027
v -0.31702033438300004 0.065590414011000006 -0.18083933046800027
v -0.38261074839300002 0.1311808280209 -0.18083933046800027
v -0.31702033438300004 0.1311808280209 -0.18083933046800027
v -0.38261074839300002 0.065590414011000006 -0.18083933046800027
v 0 0.098385621015949998 -0.18083933046800027
v 0.31702033438300004 0.065590414011000006 -0.18083933046800027
v 0.31702033438300004 0.1311808280209 -0.18083933046800027
v 0.38261074839300013 0.12024909235260001 -0.18083933046800027
v 0.38261074839300013 0.1311808280209 -0.18083933046800027
v 0.38261074839300013 0.065590414011000006 -0.18083933046800027
v 0.37190212945000001 0.12024909235260001 -0.18386414172699972
v 0.37190212945000001 0.12047209976020001 -0.18386414172699972
v 0.37167901272500004 0.12024909235260001 -0.18390677549600021
v -0.38261074839300002 0.1311808280209 -0.18083933046800027
v -0.38261074839300002 0.12024909235260001 -0.18083933046800027
v -0.38261074839299991 0.073398781375441313 0.14711284637451172
v -0.38261074839300002 0.065590414011000006 -0.18083933046800027
v -0.38261074839299991 0.073398781375441313 0.14711284637451172
v -0.38261074839300013 0.065590414010999853 0.14711284637451172
v -0.38261074839300002 0.13115870190278073 0.1464489560404143
v -0.38261074839300002 0.1311808280209 0.14641854985732827
v -0.38261074839300013 0.12695831153459206 0.14711284637451172
v -0.38261074839299991 0.079686133828544586 0.14711284637451172
v -0.38261074839300013 0.10703951120376587 0.14711284637451172
v -0.38261074839300013 0.12695831153459206 0.14711284637451172
v -0.38261074839300013 0.13067559897899628 0.14711284637451172
v -0.38261074839300002 0.13091268661122102 0.1467870354973293
v -0.38261074839299991 0.079686133828544586 0.14711284637451172
v -0.38261074839300013 0.10703951120376587 0.14711284637451172
v -0.38261074839300013 0.065590414010999853 0.14711284637451172
v 0.01843280064636077 0.065590414010999853 0.14711284637451172
v -0.38261074839300002 0.065590414011000006 -0.18083933046800027
v 0.27329360529030855 0.065590414011000048 0.14711284637451172
v 0.27329360529030855 0.065590414011000048 0.14711284637451172
v 0.38261074839300013 0.06559041401100002 0.14711284637451172
v 0.38261074839300013 0.065590414011000006 -0.18083933046800027
v -0.085362381467881776 0.065590414010999853 0.14711284637451172
v -0.093419432640075684 0.065590414010999853 0.14711284637451172
v -0.10147649115448965 0.065590414010999853 0.14711284637451172
v -0.21617782784468231 0.065590414010999853 0.14711284637451172
v -0.22423487901687622 0.065590414010999853 0.14711284637451172
v -0.23229193018907013 0.065590414010999853 0.14711284637451172
v -0.34699321461683796 0.065590414010999853 0.14711284637451261
v -0.35505026578903209 0.065590414010999853 0.14711284637451172
v -0.36310732430344583 0.065590414010999853 0.14711284637451172
v 0.17626850394349947 0.065590414010999978 0.14711284637451172
v 0.16821146011352539 0.065590414010999964 0.14711284637451261
v 0.16015440159911143 0.065590414010999964 0.14711284637451172
v 0.045453117171343704 0.065590414010999881 0.14711284637451172
v 0.037396073341369629 0.065590414010999867 0.14711284637451172
v 0.029339007484735724 0.065590414010999867 0.14711284637451172
v 0.30708390540009534 0.065590414011000048 0.14711284637451172
v 0.29902684688568115 0.065590414011000048 0.14711284637451172
v 0.29096978837126697 0.065590414011000048 0.14711284637451172
v 0.38261074839300013 0.1311808280209 -0.18083933046800027
v 0.38261074839300013 0.12024909235260001 -0.18083933046800027
v 0.38261074839300013 0.065590414011000006 -0.18083933046800027
v 0.38261074839300013 0.06559041401100002 0.14711284637451172
v 0.38261074839299991 0.1311587019027807 0.14644895604041608
v 0.38261074839300013 0.13118082802089998 0.14641854985732827
v 0.38261074839299991 0.13107192221223538 0.14656821054067315
v 0.38261074839299991 0.1311587019027807 0.14644895604041608
v 0.38261074839300013 0.093903030008154698 0.14711284637451172
v 0.38261074839300013 0.10703951120376587 0.14711284637451172
v 0.38261074839300013 0.12017601530621232 0.14711284637451172
v 0.38261074839300013 0.13067559897899628 0.14711284637451172
v 0.38261074839300013 0.093903030008154698 0.14711284637451172
v 0.38261074839300013 0.10703951120376587 0.14711284637451172
v 0.38261074839300013 0.12017601530621232 0.14711284637451172
v 0.38261074839299991 0.13107192221223538 0.14656821054067315
v -0.38261074839300002 0.1311808280209 0.14711273958400017
v -0.38261074839300013 0.065590414010999853 0.14711284637451172
v 0.38261074839300013 0.06559041401100002 0.14711284637451172
v 0.38261074839300013 0.1311808280209 0.14711273958400017
vn 0 1 0
vn 0 1 0
vn 0 1 0
vn 0 1 0
vn 0.29815196990966797 0 -0.95451843738555908
vn 0.29815196990966797 0 -0.95451843738555908
vn 0.29815196990966797 0 -0.95451843738555908
vn 0.29815196990966797 0 -0.95451843738555908
vn 0.29815196990966797 0 -0.95451843738555908
vn 0.2453027069568634 0 -0.96944653987884521
vn 0.2453027069568634 0 -0.96944653987884521
vn 0.2453027069568634 0 -0.96944653987884521
vn 0.2453027069568634 0 -0.96944653987884521
vn 0.2453027069568634 0 -0.96944653987884521
vn 0.19130913913249969 0 -0.9815298318862915
vn 0.19130913913249969 0 -0.9815298318862915
vn 0.19130913913249969 0 -0.9815298318862915
vn 0.19130913913249969 0 -0.9815298318862915
vn 0.19130913913249969 0 -0.9815298318862915
vn 0.13728736340999603 0 -0.99053126573562622
vn 0.13728736340999603 0 -0.99053126573562622
vn 0.13728736340999603 0 -0.99053126573562622
vn 0.13728736340999603 0 -0.99053126573562622
vn 0.082491189241409302 0 -0.99659180641174316
vn 0.082491189241409302 0 -0.99659180641174316
vn 0.082491189241409302 0 -0.99659180641174316
vn 0.082491189241409302 0 -0.99659180641174316
vn 0.027497213333845139 0 -0.99962186813354492
vn 0.027497213333845139 0 -0.99962186813354492
vn 0.027497213333845139 0 -0.99962186813354492
vn 0 0.027497213333845139 -0.99962186813354492
vn 0 0.027497213333845139 -0.99962186813354492
vn 0 0.027497213333845139 -0.99962186813354492
vn 0 0.027497213333845139 -0.99962186813354492
vn 0 -0.027497213333845139 -0.99962186813354492
vn 0 -0.027497213333845139 -0.99962186813354492
vn 0 -0.027497213333845139 -0.99962186813354492
vn 0 -0.027497213333845139 -0.99962186813354492
vn 0 -0.027497213333845139 -0.99962186813354492
vn 0 -0.027497213333845139 -0.99962186813354492
vn 0 -0.082491189241409302 -0.99659180641174316
vn 0 -0.082491189241409302 -0.99659180641174316
vn 0 -0.082491189241409302 -0.99659180641174316
vn 0 -0.082491189241409302 -0.99659180641174316
vn 0 -0.082491189241409302 -0.99659180641174316
vn 0 -0.082491189241409302 -0.99659180641174316
vn 0 -0.082491189241409302 -0.99659180641174316
vn 0 -0.082491189241409302 -0.99659180641174316
vn 0 -0.13728736340999603 -0.99053126573562622
vn 0 -0.13728736340999603 -0.99053126573562622
vn 0 -0.13728736340999603 -0.99053126573562622
vn 0 -0.13728736340999603 -0.99053126573562622
vn 0 -0.13728736340999603 -0.99053126573562622
vn 0 -0.13728736340999603 -0.99053126573562622
vn 0 -0.13728736340999603 -0.99053126573562622
vn 0 -0.13728736340999603 -0.99053126573562622
vn 0 -0.19130913913249969 -0.9815298318862915
vn 0 -0.19130913913249969 -0.9815298318862915
vn 0 -0.19130913913249969 -0.9815298318862915
vn 0 -0.19130913913249969 -0.9815298318862915
vn 0 -0.19130913913249969 -0.9815298318862915
vn 0 -0.19130913913249969 -0.9815298318862915
vn 0 -0.19130913913249969 -0.9815298318862915
vn 0 -0.19130913913249969 -0.9815298318862915
vn 0 -0.2453027069568634 -0.96944653987884521
vn 0 -0.2453027069568634 -0.96944653987884521
vn 0 -0.2453027069568634 -0.96944653987884521
vn 0 -0.2453027069568634 -0.96944653987884521
vn 0 -0.2453027069568634 -0.96944653987884521
vn 0 -0.2453027069568634 -0.96944653987884521
vn 0 -0.2453027069568634 -0.96944653987884521
vn 0 -0.2453027069568634 -0.96944653987884521
vn 0 -0.29815196990966797 -0.95451843738555908
vn 0 -0.29815196990966797 -0.95451843738555908
vn 0 -0.29815196990966797 -0.95451843738555908
vn 0 -0.29815196990966797 -0.95451843738555908
vn 0 -0.29815196990966797 -0.95451843738555908
vn 0 -0.29815196990966797 -0.95451843738555908
vn 0 -0.29815196990966797 -0.95451843738555908
vn 0 -0.29815196990966797 -0.95451843738555908
vn -0.29814079403877258 0 -0.95452189445495605
vn -0.29814079403877258 0 -0.95452189445495605
vn -0.29814079403877258 0 -0.95452189445495605
vn -0.29814079403877258 0 -0.95452189445495605
vn -0.24530738592147827 0 -0.96944534778594971
vn -0.24530738592147827 0 -0.96944534778594971
vn -0.24530738592147827 0 -0.96944534778594971
vn -0.24530738592147827 0 -0.96944534778594971
vn -0.19131651520729065 0 -0.98152840137481689
vn -0.19131651520729065 0 -0.98152840137481689
vn -0.19131651520729065 0 -0.98152840137481689
vn -0.19131651520729065 0 -0.98152840137481689
vn -0.13729538023471832 0 -0.99053013324737549
vn -0.13729538023471832 0 -0.99053013324737549
vn -0.13729538023471832 0 -0.99053013324737549
vn -0.13729538023471832 0 -0.99053013324737549
vn -0.082492806017398834 0 -0.99659168720245361
vn -0.082492806017398834 0 -0.99659168720245361
vn -0.082492806017398834 0 -0.99659168720245361
vn -0.082492806017398834 0 -0.99659168720245361
vn -0.027494512498378754 0 -0.9996219277381897
vn -0.027494512498378754 0 -0.9996219277381897
vn -0.027494512498378754 0 -0.9996219277381897
vn 0 0.082484729588031769 -0.99659234285354614
vn 0 0.082484729588031769 -0.99659234285354614
vn 0 0.082484729588031769 -0.99659234285354614
vn 0 0.082484729588031769 -0.99659234285354614
vn 0 0.13729538023471832 -0.99053013324737549
vn 0 0.13729538023471832 -0.99053013324737549
vn 0 0.13729538023471832 -0.99053013324737549
vn 0 0.13729538023471832 -0.99053013324737549
vn 0 0.19131651520729065 -0.98152840137481689
vn 0 0.19131651520729065 -0.98152840137481689
vn 0 0.19131651520729065 -0.98152840137481689
vn 0 0.19131651520729065 -0.98152840137481689
vn 0 0.19131651520729065 -0.98152840137481689
vn 0 0.19131651520729065 -0.98152840137481689
vn 0 0.19131651520729065 -0.98152840137481689
vn 0 0.24530738592147827 -0.96944534778594971
vn 0 0.24530738592147827 -0.96944534778594971
vn 0 0.24530738592147827 -0.96944534778594971
vn 0 0.24530738592147827 -0.96944534778594971
vn 0 0.24530738592147827 -0.96944534778594971
vn 0 0.24530738592147827 -0.96944534778594971
vn 0 0.24530738592147827 -0.96944534778594971
vn 0 0.24530738592147827 -0.96944534778594971
vn 0 0.29814079403877258 -0.95452189445495605
vn 0 0.29814079403877258 -0.95452189445495605
vn 0 0.29814079403877258 -0.95452189445495605
vn 0 0.29814079403877258 -0.95452189445495605
vn 0 0.29814079403877258 -0.95452189445495605
vn 0 0.29814079403877258 -0.95452189445495605
vn 0 0.29814079403877258 -0.95452189445495605
vn 0 0.29814079403877258 -0.95452189445495605
vn 0 0 1
vn 0 0 1
vn 0 0 1
vn 0 0 1
vn 0 0 1
vn 0 0 1
vn 0 0 1
vn 0 0 1
vn 0 0 1
vn 0 0 1
vn 0.18768703937530518 0 -0.98222887516021729
vn 0.18768703937530518 0 -0.98222887516021729
vn 0.18768703937530518 0 -0.98222887516021729
vn -1 0 0
vn -1 0 0
vn 1 0 0
vn -1 0 0
vn -1 0 0
vn -1 0 0
vn -1 0 0
vn -1 0 0
vn 1 0 0
vn -1 0 0
vn -1 0 0
vn -1 0 0
vn 1 0 0
vn -1 0 0
vn 1 0 0
vn 1 0 0
vn 0 -1 0
vn 0 -1 0
vn 0 -1 0
vn 0 -1 0
vn 0 -1 0
vn 0 -1 0
vn 0 -1 0
vn 0 -1 0
vn 0 -1 0
vn 0 -1 0
vn 0 -1 0
vn 0 -1 0
vn 0 -1 0
vn 0 -1 0
vn 0 -1 0
vn 0 -1 0
vn 0 -1 0
vn 0 -1 0
vn 0 -1 0
vn 0 -1 0
vn 0 -1 0
vn 0 -1 0
vn 0 -1 0
vn 0 -1 0
vn 0 -1 0
vn 1 0 0
vn 1 0 0
vn 1 0 0
vn -1 0 0
vn 1 0 0
vn 1 0 0
vn 1 0 0
vn 1 0 0
vn -1 0 0
vn -1 0 0
vn -1 0 0
vn -1 0 0
vn 1 0 0
vn 1 0 0
vn 1 0 0
vn 1 0 0
vn 0 1.6281420585073647E-06 1
vn 0 1.6281420585073647E-06 1
vn 0 1.6281420585073647E-06 1
vn 0 1.6281420585073647E-06 1
f 1//1 2//2 3//3
f 2//2 1//1 4//4
f 5//5 6//6 7//7
f 6//6 5//5 8//8
f 8//8 5//5 9//9
f 10//10 11//11 12//12
f 11//11 10//10 13//13
f 13//13 10//10 14//14
f 15//15 16//16 17//17
f 16//16 15//15 18//18
f 18//18 15//15 19//19
f 20//20 21//21 22//22
f 21//21 20//20 23//23
f 24//24 25//25 26//26
f 25//25 24//24 27//27
f 28//28 29//29 30//30
f 31//31 32//32 33//33
f 32//32 31//31 34//34
f 35//35 36//36 37//37
f 36//36 35//35 38//38
f 37//37 36//36 39//39
f 37//37 39//39 40//40
f 41//41 42//42 43//43
f 42//42 41//41 44//44
f 45//45 42//42 46//46
f 43//43 42//42 45//45
f 45//45 47//47 48//48
f 45//45 46//46 47//47
f 49//49 50//50 51//51
f 50//50 49//49 52//52
f 53//53 50//50 54//54
f 51//51 50//50 53//53
f 53//53 55//55 56//56
f 53//53 54//54 55//55
f 57//57 58//58 59//59
f 58//58 57//57 60//60
f 61//61 58//58 62//62
f 59//59 58//58 61//61
f 61//61 63//63 64//64
f 61//61 62//62 63//63
f 65//65 66//66 67//67
f 66//66 65//65 68//68
f 69//69 66//66 70//70
f 67//67 66//66 69//69
f 69//69 71//71 72//72
f 69//69 70//70 71//71
f 73//73 74//74 75//75
f 74//74 73//73 76//76
f 77//77 74//74 78//78
f 75//75 74//74 77//77
f 77//77 79//79 80//80
f 77//77 78//78 79//79
f 81//81 82//82 83//83
f 82//82 81//81 84//84
f 85//85 86//86 87//87
f 86//86 85//85 88//88
f 89//89 90//90 91//91
f 90//90 89//89 92//92
f 93//93 94//94 95//95
f 94//94 93//93 96//96
f 97//97 98//98 99//99
f 98//98 97//97 100//100
f 101//101 102//102 103//103
f 104//104 106//106 105//105
f 106//106 104//104 107//107
f 108//108 110//110 109//109
f 110//110 108//108 111//111
f 112//112 114//114 113//113
f 112//112 115//115 114//114
f 115//115 112//112 116//116
f 112//112 113//113 117//117
f 117//117 113//113 118//118
f 119//119 121//121 120//120
f 121//121 119//119 122//122
f 119//119 124//124 123//123
f 119//119 120//120 124//124
f 125//125 124//124 126//126
f 123//123 124//124 125//125
f 127//127 129//129 128//128
f 129//129 127//127 130//130
f 127//127 128//128 131//131
f 132//132 131//131 133//133
f 134//134 131//131 132//132
f 127//127 131//131 134//134
f 135//135 137//137 136//136
f 138//138 135//135 136//136
f 139//139 137//137 135//135
f 140//140 139//139 135//135
f 139//139 141//141 137//137
f 142//142 143//143 141//141
f 144//144 142//142 140//140
f 141//141 140//140 142//142
f 139//139 140//140 141//141
f 145//145 147//147 146//146
f 149//149 155//155 148//148
f 154//154 155//155 149//149
f 149//149 157//157 158//158
f 157//157 149//149 150//150
f 149//149 158//158 154//154
f 161//161 159//159 160//160
f 159//159 161//161 154//154
f 158//158 159//159 154//154
f 160//160 156//156 163//163
f 160//160 162//162 150//150
f 162//162 160//160 163//163
f 149//149 151//151 152//152
f 152//152 151//151 153//153
f 177//177 166//166 176//176
f 175//175 176//176 166//166
f 178//178 166//166 177//177
f 164//164 166//166 179//179
f 178//178 179//179 166//166
f 172//172 166//166 171//171
f 166//166 172//172 173//173
f 175//175 166//166 174//174
f 174//174 166//166 173//173
f 166//166 165//165 171//171
f 185//185 166//166 184//184
f 183//183 184//184 166//166
f 166//166 185//185 165//165
f 166//166 167//167 180//180
f 166//166 182//182 183//183
f 181//181 182//182 166//166
f 180//180 181//181 166//166
f 166//166 170//170 168//168
f 186//186 170//170 169//169
f 187//187 170//170 186//186
f 170//170 188//188 168//168
f 187//187 188//188 170//170
f 194//194 190//190 189//189
f 190//190 194//194 193//193
f 196//196 191//191 190//190
f 191//191 196//196 195//195
f 200//200 198//198 199//199
f 200//200 192//192 197//197
f 200//200 197//197 198//198
f 201//201 191//191 202//202
f 203//203 202//202 191//191
f 191//191 201//201 192//192
f 204//204 200//200 203//203
f 191//191 204//204 203//203
f 205//205 206//206 207//207 208//208
