# Rhino

mtllib Sofa_20_11.mtl
usemtl Default
v 0.38133479761599975 0.013323019595999991 0.13985440129700066
v 0.42047116767800041 0.013323019595999991 0.17982346008299999
v 0.38133479761599975 0.013323019595999991 0.17982346008299999
v 0.42047116767800041 0.013323019595999991 0.13985440129700066
v 0.42130385640199997 0.013323019595999991 0.17982346008299999
v 0.42130385640199997 0.013323019595999991 0.13985440129700066
v 0.38133479761599975 0.013323019595999991 0.13985440129700066
v 0.42047116767800041 0 0.13985440129700066
v 0.42047116767800041 0.013323019595999991 0.13985440129700066
v 0.38133479761599975 0 0.13985440129700066
v 0.38133479761599975 0.013323019595999991 0.17982346008299999
v 0.38133479761599975 0 0.13985440129700066
v 0.38133479761599975 0.013323019595999991 0.13985440129700066
v 0.38133479761599975 0 0.17982346008299999
v 0.42047116767800041 0.013323019595999991 0.17982346008299999
v 0.42047116767800041 0 0.13985440129700066
v 0.42047116767800041 0 0.17982346008299999
v 0.42047116767800041 0.013323019595999991 0.13985440129700066
v 0.42047116767800041 0.013323019595999991 0.17982346008299999
v 0.38133479761599975 0 0.17982346008299999
v 0.38133479761599975 0.013323019595999991 0.17982346008299999
v 0.42047116767800041 0 0.17982346008299999
vt -51.988800048828125 123.59999847412109
vt -57.988800048828125 129.47500610351562
vt -57.988800048828125 123.59999847412109
vt -51.988800048828125 129.47500610351562
vt -57.988800048828125 129.60000610351562
vt -51.988800048828125 129.60000610351562
vt 123.59999847412109 2
vt 129.47500610351562 0
vt 129.47500610351562 2
vt 123.59999847412109 0
vt -57.988800048828125 2
vt -51.988800048828125 0
vt -51.988800048828125 2
vt -57.988800048828125 0
vt 57.988800048828125 2
vt 51.988800048828125 0
vt 57.988800048828125 0
vt 51.988800048828125 2
vt -129.47500610351562 2
vt -123.59999847412109 0
vt -123.59999847412109 2
vt -129.47500610351562 0
vn 0 -1 0
vn 0 -1 0
vn 0 -1 0
vn 0 -1 0
vn 0 -1 0
vn 0 -1 0
vn 0 0 1
vn 0 0 1
vn 0 0 1
vn 0 0 1
vn 1 0 0
vn 1 0 0
vn 1 0 0
vn 1 0 0
vn -1 0 0
vn -1 0 0
vn -1 0 0
vn -1 0 0
vn 0 0 -1
vn 0 0 -1
vn 0 0 -1
vn 0 0 -1
f 1/1/1 2/2/2 3/3/3
f 2/2/2 1/1/1 4/4/4
f 4/4/4 5/5/5 2/2/2
f 5/5/5 4/4/4 6/6/6
f 7/7/7 8/8/8 9/9/9
f 8/8/8 7/7/7 10/10/10
f 11/11/11 12/12/12 13/13/13
f 12/12/12 11/11/11 14/14/14
f 15/15/15 16/16/16 17/17/17
f 16/16/16 15/15/15 18/18/18
f 19/19/19 20/20/20 21/21/21
f 20/20/20 19/19/19 22/22/22
