# Rhino

mtllib Sofa_02_07.mtl
usemtl Default
v -0.41578529136999998 0.35173142051700002 0.089105970030200154
v -0.41578529136999998 0.342509404297 0.14668153990499988
v -0.40652605624999993 0.35946302658200002 0.098301519476999832
v -0.41578529136999998 0.35173142051700002 0.089105970030200154
v -0.41578529136999998 0.26693063917010001 0.075523139413999907
v -0.41578529136999998 0.342509404297 0.14668153990499988
v -0.41578529136999998 0.26693063917010001 0.075523139413999907
v -0.41578529136999998 0.35173142051700002 0.089105970030200154
v -0.40652605624999993 0.260255636309 0.063983212839299863
v -0.40652605624999993 0.33420338655000004 0.075827920846899932
v -0.40652605624999993 0.33420338655000004 0.075827920846899932
v -0.12919562946099994 0.33420338655000004 0.075827920846899932
v -0.40652605624999993 0.260255636309 0.063983212839299863
v -0.12919562946099994 0.33420338655000004 0.075827920846899932
v -0.40652605624999993 0.33420338655000004 0.075827920846899932
v -0.12009767623900003 0.35173142051700002 0.089105970030200154
v -0.41578529136999998 0.35173142051700002 0.089105970030200154
v -0.12009767623900003 0.35173142051700002 0.089105970030200154
v -0.41578529136999998 0.35173142051700002 0.089105970030200154
v -0.12997722635099995 0.35946302658200002 0.098301519476999832
v -0.41578529136999998 0.35173142051700002 0.089105970030200154
v -0.41578529136999998 0.342509404297 0.14668153990499988
v -0.12009767623900003 0.35173142051700002 0.089105970030200154
v -0.12009767623900003 0.342509404297 0.14668153990499988
v -0.12009767623900003 0.35173142051700002 0.089105970030200154
v -0.12009767623900003 0.342509404297 0.14668153990499988
v -0.12009767623900003 0.19536489850040001 0.064060131898299844
v -0.12009767623900003 0.342509404297 0.14668153990499988
v -0.12009767623900003 0.35173142051700002 0.089105970030200154
v -0.12997722635099995 0.35251508512399998 0.14167807917699982
v -0.12997722635099995 0.35946302658200002 0.098301519476999832
v -0.12997722635099995 0.35251508512399998 0.14167807917699982
v -0.12997722635099995 0.35946302658200002 0.098301519476999832
v -0.40652605624999993 0.35251508512399998 0.14167807917699982
v -0.40652605624999993 0.35946302658200002 0.098301519476999832
v -0.40652605624999993 0.35251508512399998 0.14167807917699982
v -0.41578529136999998 0.342509404297 0.14668153990499988
v -0.12009767623900003 0.342509404297 0.14668153990499988
v -0.40652605624999993 0.35251508512399998 0.14167807917699982
v -0.41578529136999998 0.342509404297 0.14668153990499988
v -0.41578529136999998 0.25770820940689998 0.13309870928899992
v -0.12009767623900003 0.342509404297 0.14668153990499988
v -0.41578529136999998 0.25770820940689998 0.13309870928899992
v -0.41578529136999998 0.25770820940689998 0.13309870928899992
v -0.41578529136999998 0.26693063917010001 0.075523139413999907
v -0.40652605624999993 0.24939805622580002 0.1317675133159999
v -0.40652605624999993 0.260255636309 0.063983212839299863
v -0.40652605624999993 0.24939805622580002 0.1317675133159999
v -0.40652605624999993 0.260255636309 0.063983212839299863
v -0.39557956435100006 0.24817396797419999 0.13157149377799993
v -0.39557956435100006 0.25903113451390003 0.063787193301700018
v -0.39557956435100006 0.24817396797419999 0.13157149377799993
v -0.39557956435100006 0.25903113451390003 0.063787193301700018
v -0.38537331501000005 0.2445839983416 0.13099666855100001
v -0.38537331501000005 0.25544116488140001 0.063212368075399983
v -0.38537331501000005 0.2445839983416 0.13099666855100001
v -0.38537331501000005 0.25544116488140001 0.063212368075399983
v -0.37661446731800008 0.23887337852190002 0.13008191070899988
v -0.37661446731800008 0.2497305450617 0.062297610233299938
v -0.37661446731800008 0.2497305450617 0.062297610233299938
v -0.36989025280099996 0.2422884193266 0.061105778361400187
v -0.37661446731800008 0.23887337852190002 0.13008191070899988
v -0.37661446731800008 0.2497305450617 0.062297610233299938
v -0.36989025280099996 0.2422884193266 0.061105778361400187
v -0.38537331501000005 0.25544116488140001 0.063212368075399983
v -0.39557956435100006 0.25903113451390003 0.063787193301700018
v -0.36566383998599994 0.23362220533990002 0.059717513408399814
v -0.36422057377100003 0.22432161588750002 0.058227930340100098
v -0.36422057377100003 0.19699963527690001 0.053851401297199786
v -0.12919562946099994 0.19699963527690001 0.053851401297199786
v -0.36422057377100003 0.19699963527690001 0.053851401297199786
v -0.12919562946099994 0.19699963527690001 0.053851401297199786
v -0.35580910247399999 0.18573264729886002 0.062517201740599937
v -0.12997722635099995 0.18573264729886002 0.062517201740599937
v -0.12997722635099995 0.18573264729886002 0.062517201740599937
v -0.12997722635099995 0.17651021753562002 0.12009277161600007
v -0.35580910247399999 0.18573264729886002 0.062517201740599937
v -0.12997722635099995 0.17651021753562002 0.12009277161600007
v -0.12997722635099995 0.18573264729886002 0.062517201740599937
v -0.12009767623900003 0.18614246873714002 0.12163570177300009
v -0.12009767623900003 0.19536489850040001 0.064060131898299844
v -0.12009767623900003 0.18614246873714002 0.12163570177300009
v -0.36422057377100003 0.18614246873714002 0.12163570177300009
v -0.12009767623900003 0.18614246873714002 0.12163570177300009
v -0.36422057377100003 0.21346444934770001 0.12601181727300004
v -0.36422057377100003 0.18614246873714002 0.12163570177300009
v -0.36422057377100003 0.21346444934770001 0.12601181727300004
v -0.36422057377100003 0.19699963527690001 0.053851401297199786
v -0.36422057377100003 0.22432161588750002 0.058227930340100098
v -0.36422057377100003 0.21346444934770001 0.12601181727300004
v -0.36566383998599994 0.22276462525670002 0.12750140034099999
v -0.36422057377100003 0.22432161588750002 0.058227930340100098
v -0.36566383998599994 0.22276462525670002 0.12750140034099999
v -0.36989025280099996 0.23143125278680002 0.12888966529399992
v -0.36989025280099996 0.23143125278680002 0.12888966529399992
v -0.36989025280099996 0.2422884193266 0.061105778361400187
v -0.36566383998599994 0.22276462525670002 0.12750140034099999
v -0.36989025280099996 0.23143125278680002 0.12888966529399992
v -0.37661446731800008 0.23887337852190002 0.13008191070899988
v -0.38537331501000005 0.2445839983416 0.13099666855100001
v -0.39557956435100006 0.24817396797419999 0.13157149377799993
v -0.40652605624999993 0.24939805622580002 0.1317675133159999
v -0.36566383998599994 0.23362220533990002 0.059717513408399814
v -0.36566383998599994 0.23362220533990002 0.059717513408399814
v -0.36422057377100003 0.19699963527690001 0.053851401297199786
v -0.35580910247399999 0.18573264729886002 0.062517201740599937
v -0.36422057377100003 0.18614246873714002 0.12163570177300009
v -0.35580910247399999 0.17651021753562002 0.12009277161600007
v -0.35580910247399999 0.17651021753562002 0.12009277161600007
v -0.12997722635099995 0.17651021753562002 0.12009277161600007
v -0.35580910247399999 0.17651021753562002 0.12009277161600007
v -0.12997722635099995 0.18573264729886002 0.062517201740599937
v -0.12919562946099994 0.19699963527690001 0.053851401297199786
v -0.12009767623900003 0.19536489850040001 0.064060131898299844
v -0.12009767623900003 0.19536489850040001 0.064060131898299844
v -0.12919562946099994 0.19699963527690001 0.053851401297199786
v -0.12009767623900003 0.35173142051700002 0.089105970030200154
v -0.12919562946099994 0.33420338655000004 0.075827920846899932
v -0.12997722635099995 0.35251508512399998 0.14167807917699982
v -0.40652605624999993 0.35946302658200002 0.098301519476999832
vt -0.98425197601318359 11.211299896240234
vt -6.5354299545288086 11.211299896240234
vt -1.7322800159454346 12.446499824523926
vt -0.98425197601318359 16.004800796508789
vt -0.98425197601318359 7.8287301063537598
vt -6.5354299545288086 16.004800796508789
vt -0.73318701982498169 7.8287301063537598
vt -0.73318701982498169 16.004800796508789
vt 0.58810102939605713 7.0275001525878906
vt 0.58810102939605713 14.157199859619141
vt 0.88150501251220703 14.157199859619141
vt 27.284200668334961 14.157199859619141
vt 0.88150501251220703 7.0275001525878906
vt 27.284200668334961 12.494899749755859
vt 0.88150501251220703 12.494899749755859
vt 28.150299072265625 14.588299751281738
vt 0 14.588299751281738
vt 28.150299072265625 12.751199722290039
vt 0 12.751199722290039
vt 27.209699630737305 13.894900321960449
vt 0 0.98425197601318359
vt 0 6.5354299545288086
vt 28.150299072265625 0.98425197601318359
vt 28.150299072265625 6.5354299545288086
vt 0.98425197601318359 16.004800796508789
vt 6.5354299545288086 16.004800796508789
vt 0.98425197601318359 0.92868602275848389
vt 6.5354299545288086 -9.8827695846557617
vt 0.98425197601318359 -9.8827695846557617
vt 5.9144401550292969 -8.6047201156616211
vt 1.7322800159454346 -8.6047201156616211
vt 27.209699630737305 5.9144401550292969
vt 27.209699630737305 1.7322800159454346
vt 0.88150501251220703 5.9144401550292969
vt 0.88150501251220703 1.7322800159454346
vt -5.9144401550292969 12.446499824523926
vt 0 9.1919097900390625
vt -28.150299072265625 9.1919097900390625
vt -0.88150501251220703 10.256899833679199
vt 0 16.004800796508789
vt 0 7.8287301063537598
vt -28.150299072265625 16.004800796508789
vt -6.5354299545288086 7.8287301063537598
vt -6.5354299545288086 5.2656698226928711
vt -0.98425197601318359 5.2656698226928711
vt -6.5354299545288086 4.0744500160217285
vt 0 4.0744500160217285
vt -6.5354299545288086 -0.085100002586841583
vt 0 -0.085100002586841583
vt -6.5354299545288086 -1.1341700553894043
vt 0 -1.1341700553894043
vt -6.5354299545288086 0.50680100917816162
vt 0 0.50680100917816162
vt -6.5354299545288086 -0.52438998222351074
vt 0 -0.52438998222351074
vt -6.5354299545288086 1.1992599964141846
vt 0 1.1992599964141846
vt -6.5354299545288086 0.19979600608348846
vt 0 0.19979600608348846
vt 0 2.0044600963592529
vt 0 1.0429400205612183
vt -6.5354299545288086 2.0044600963592529
vt 3.7294199466705322 6.0127501487731934
vt 4.3694701194763184 5.295219898223877
vt 2.8952798843383789 6.5633401870727539
vt 1.9239100217819214 6.9094500541687012
vt 4.7718300819396973 4.459630012512207
vt 4.909060001373291 3.5629301071166992
vt 4.909060001373291 0.92868602275848389
vt 27.284200668334961 0.92868602275848389
vt 4.909060001373291 0.63733702898025513
vt 27.284200668334961 0.63733702898025513
vt 5.7099900245666504 -0.7158849835395813
vt 27.209699630737305 -0.7158849835395813
vt -27.209699630737305 0.98425197601318359
vt -27.209699630737305 6.5354299545288086
vt -5.7099900245666504 0.98425197601318359
vt 6.5354299545288086 19.362600326538086
vt 0.98425197601318359 19.362600326538086
vt 6.5354299545288086 20.68440055847168
vt 0.98425197601318359 20.68440055847168
vt 6.5354299545288086 0.92868602275848389
vt -4.909060001373291 0.92868602275848389
vt -28.150299072265625 0.92868602275848389
vt -4.909060001373291 3.5629301071166992
vt -6.5354299545288086 0.92868602275848389
vt -6.5354299545288086 3.5629301071166992
vt 0 0.92868602275848389
vt 0 3.5629301071166992
vt -6.5354299545288086 2.7792599201202393
vt -6.5354299545288086 3.6863999366760254
vt 0 2.7792599201202393
vt -4.7718300819396973 4.459630012512207
vt -4.3694701194763184 5.295219898223877
vt -6.5354299545288086 2.8752400875091553
vt 0 2.8752400875091553
vt -6.5354299545288086 1.9478299617767334
vt -6.5354299545288086 1.0429400205612183
vt -3.7294199466705322 6.0127501487731934
vt -2.8952798843383789 6.5633401870727539
vt -1.9239100217819214 6.9094500541687012
vt -0.88150501251220703 7.0275001525878906
vt 0 1.9478299617767334
vt 0 3.6863999366760254
vt 0 -2.5028200149536133
vt -0.98425197601318359 -3.7291700839996338
vt -6.5354299545288086 -2.5028200149536133
vt -6.5354299545288086 -3.7291700839996338
vt -5.7099900245666504 0
vt -27.209699630737305 0
vt -5.7099900245666504 6.5354299545288086
vt 18.714399337768555 11.970000267028809
vt 18.024700164794922 13.136599540710449
vt 19.335800170898438 13.136599540710449
vt 19.335800170898438 0.92868602275848389
vt 18.024700164794922 0.92868602275848389
vt 19.335800170898438 16.004800796508789
vt 18.024700164794922 14.157199859619141
vt -27.209699630737305 10.256899833679199
vt 0.88150501251220703 13.894900321960449
vn -0.70050162076950073 0.70466881990432739 0.11286848783493042
vn -0.70050162076950073 0.70466881990432739 0.11286848783493042
vn -0.70050162076950073 0.70466881990432739 0.11286848783493042
vn -1 0 0
vn -1 0 0
vn -1 0 0
vn -0.74493449926376343 0.10551278293132782 -0.65874093770980835
vn -0.74493449926376343 0.10551278293132782 -0.65874093770980835
vn -0.74493449926376343 0.10551278293132782 -0.65874093770980835
vn -0.74493449926376343 0.10551278293132782 -0.65874093770980835
vn 0 0.15816064178943634 -0.98741340637207031
vn 0 0.15816064178943634 -0.98741340637207031
vn 0 0.15816064178943634 -0.98741340637207031
vn 0 0.6038355827331543 -0.79710888862609863
vn 0 0.6038355827331543 -0.79710888862609863
vn 0 0.6038355827331543 -0.79710888862609863
vn 0 0.6038355827331543 -0.79710888862609863
vn 0 0.76540368795394897 -0.64355045557022095
vn 0 0.76540368795394897 -0.64355045557022095
vn 0 0.76540368795394897 -0.64355045557022095
vn 0 0.98741406202316284 0.15815646946430206
vn 0 0.98741406202316284 0.15815646946430206
vn 0 0.98741406202316284 0.15815646946430206
vn 0 0.98741406202316284 0.15815646946430206
vn 1 0 0
vn 1 0 0
vn 1 0 0
vn 0.67702561616897583 0.7266966700553894 0.11639674007892609
vn 0.67702561616897583 0.7266966700553894 0.11639674007892609
vn 0.67702561616897583 0.7266966700553894 0.11639674007892609
vn 0.67702561616897583 0.7266966700553894 0.11639674007892609
vn 0 0.98741328716278076 0.1581612229347229
vn 0 0.98741328716278076 0.1581612229347229
vn 0 0.98741328716278076 0.1581612229347229
vn 0 0.98741328716278076 0.1581612229347229
vn -0.70050162076950073 0.70466881990432739 0.11286848783493042
vn 0 0.44725796580314636 0.89440500736236572
vn 0 0.44725796580314636 0.89440500736236572
vn 0 0.44725796580314636 0.89440500736236572
vn 0 -0.15815670788288116 0.98741400241851807
vn 0 -0.15815670788288116 0.98741400241851807
vn 0 -0.15815670788288116 0.98741400241851807
vn -1 0 0
vn -0.67261207103729248 -0.73068088293075562 -0.11704014986753464
vn -0.67261207103729248 -0.73068088293075562 -0.11704014986753464
vn -0.67261207103729248 -0.73068088293075562 -0.11704014986753464
vn -0.67261207103729248 -0.73068088293075562 -0.11704014986753464
vn -0.11253008246421814 -0.98114138841629028 -0.15715764462947845
vn -0.11253008246421814 -0.98114138841629028 -0.15715764462947845
vn -0.11253008246421814 -0.98114138841629028 -0.15715764462947845
vn -0.11253008246421814 -0.98114138841629028 -0.15715764462947845
vn -0.33556762337684631 -0.93015998601913452 -0.1489858478307724
vn -0.33556762337684631 -0.93015998601913452 -0.1489858478307724
vn -0.33556762337684631 -0.93015998601913452 -0.1489858478307724
vn -0.33556762337684631 -0.93015998601913452 -0.1489858478307724
vn -0.5510135293006897 -0.82399338483810425 -0.13198091089725494
vn -0.5510135293006897 -0.82399338483810425 -0.13198091089725494
vn -0.5510135293006897 -0.82399338483810425 -0.13198091089725494
vn -0.5510135293006897 -0.82399338483810425 -0.13198091089725494
vn -0.74619388580322266 -0.65734988451004028 -0.10528923571109772
vn -0.74619388580322266 -0.65734988451004028 -0.10528923571109772
vn -0.74619388580322266 -0.65734988451004028 -0.10528923571109772
vn 0 0.15816064178943634 -0.98741340637207031
vn 0 0.15816064178943634 -0.98741340637207031
vn 0 0.15816064178943634 -0.98741340637207031
vn 0 0.15816064178943634 -0.98741340637207031
vn 0 0.15816064178943634 -0.98741340637207031
vn 0 0.15816064178943634 -0.98741340637207031
vn 0 0.15816064178943634 -0.98741340637207031
vn 0 0.15816064178943634 -0.98741340637207031
vn 0 -0.6096615195274353 -0.79266184568405151
vn 0 -0.6096615195274353 -0.79266184568405151
vn 0 -0.6096615195274353 -0.79266184568405151
vn 0 -0.6096615195274353 -0.79266184568405151
vn 0 -0.98741292953491211 -0.15816338360309601
vn 0 -0.98741292953491211 -0.15816338360309601
vn 0 -0.98741292953491211 -0.15816338360309601
vn 0.70260882377624512 -0.70261967182159424 -0.11254531890153885
vn 0.70260882377624512 -0.70261967182159424 -0.11254531890153885
vn 0.70260882377624512 -0.70261967182159424 -0.11254531890153885
vn 0.70260882377624512 -0.70261967182159424 -0.11254531890153885
vn 1 0 0
vn 0 -0.15815670788288116 0.98741400241851807
vn 0 -0.15815670788288116 0.98741400241851807
vn 0 -0.15815670788288116 0.98741400241851807
vn -1 0 0
vn -1 0 0
vn -1 0 0
vn -1 0 0
vn -0.98846244812011719 -0.1495596319437027 -0.023955453187227249
vn -0.98846244812011719 -0.1495596319437027 -0.023955453187227249
vn -0.98846244812011719 -0.1495596319437027 -0.023955453187227249
vn 0 -0.15815670788288116 0.98741400241851807
vn 0 -0.15815670788288116 0.98741400241851807
vn -0.90098577737808228 -0.42838811874389648 -0.068616323173046112
vn -0.90098577737808228 -0.42838811874389648 -0.068616323173046112
vn -0.90098577737808228 -0.42838811874389648 -0.068616323173046112
vn -0.74619388580322266 -0.65734988451004028 -0.10528923571109772
vn 0 -0.15815670788288116 0.98741400241851807
vn 0 -0.15815670788288116 0.98741400241851807
vn 0 -0.15815670788288116 0.98741400241851807
vn 0 -0.15815670788288116 0.98741400241851807
vn -0.90098577737808228 -0.42838811874389648 -0.068616323173046112
vn -0.98846244812011719 -0.1495596319437027 -0.023955453187227249
vn -0.75732141733169556 -0.64482319355010986 -0.10328280925750732
vn -0.75732141733169556 -0.64482319355010986 -0.10328280925750732
vn -0.75732141733169556 -0.64482319355010986 -0.10328280925750732
vn -0.75732141733169556 -0.64482319355010986 -0.10328280925750732
vn 0 -0.15815670788288116 0.98741400241851807
vn 0 -0.15815670788288116 0.98741400241851807
vn 0 -0.98741292953491211 -0.15816338360309601
vn 0.59761780500411987 -0.51445239782333374 -0.61497294902801514
vn 0.59761780500411987 -0.51445239782333374 -0.61497294902801514
vn 0.59761780500411987 -0.51445239782333374 -0.61497294902801514
vn 0.75072002410888672 0.10448237508535385 -0.65230584144592285
vn 0.75072002410888672 0.10448237508535385 -0.65230584144592285
vn 0.75072002410888672 0.10448237508535385 -0.65230584144592285
vn 0.75072002410888672 0.10448237508535385 -0.65230584144592285
vn 0 0.44725796580314636 0.89440500736236572
vn 0 0.76540368795394897 -0.64355045557022095
f 1/1/1 2/2/2 3/3/3
f 4/4/4 5/5/5 6/6/6
f 7/7/7 8/8/8 9/9/9
f 10/10/10 9/9/9 8/8/8
f 11/11/11 12/12/12 13/13/13
f 14/14/14 15/15/15 16/16/16
f 17/17/17 16/16/16 15/15/15
f 18/18/18 19/19/19 20/20/20
f 21/21/21 22/22/22 23/23/23
f 24/24/24 23/23/23 22/22/22
f 25/25/25 26/26/26 27/27/27
f 28/28/28 29/29/29 30/30/30
f 31/31/31 30/30/30 29/29/29
f 32/32/32 33/33/33 34/34/34
f 35/35/35 34/34/34 33/33/33
f 36/36/36 3/3/3 2/2/2
f 37/37/37 38/38/38 39/39/39
f 40/40/40 41/41/41 42/42/42
f 43/43/43 6/6/6 5/5/5
f 44/44/44 45/45/45 46/46/46
f 47/47/47 46/46/46 45/45/45
f 48/48/48 49/49/49 50/50/50
f 51/51/51 50/50/50 49/49/49
f 52/52/52 53/53/53 54/54/54
f 55/55/55 54/54/54 53/53/53
f 56/56/56 57/57/57 58/58/58
f 59/59/59 58/58/58 57/57/57
f 60/60/60 61/61/61 62/62/62
f 63/63/63 12/12/12 64/64/64
f 65/65/65 12/12/12 63/63/63
f 66/66/66 12/12/12 65/65/65
f 13/13/13 12/12/12 66/66/66
f 64/64/64 12/12/12 67/67/67
f 67/67/67 12/12/12 68/68/68
f 68/68/68 12/12/12 69/69/69
f 70/70/70 69/69/69 12/12/12
f 71/71/71 72/72/72 73/73/73
f 74/74/74 73/73/73 72/72/72
f 75/75/75 76/76/76 77/77/77
f 78/78/78 79/79/79 80/80/80
f 81/81/81 80/80/80 79/79/79
f 82/82/82 27/27/27 26/26/26
f 42/42/42 83/83/83 84/84/84
f 85/85/85 83/83/83 42/42/42
f 86/86/86 87/87/87 88/88/88
f 89/89/89 88/88/88 87/87/87
f 90/90/90 91/91/91 92/92/92
f 93/93/93 85/85/85 42/42/42
f 94/94/94 93/93/93 42/42/42
f 95/95/95 96/96/96 97/97/97
f 98/98/98 62/62/62 61/61/61
f 99/99/99 94/94/94 42/42/42
f 100/100/100 99/99/99 42/42/42
f 101/101/101 100/100/100 42/42/42
f 102/102/102 101/101/101 42/42/42
f 41/41/41 102/102/102 42/42/42
f 103/103/103 97/97/97 96/96/96
f 104/104/104 92/92/92 91/91/91
f 105/105/105 106/106/106 107/107/107
f 108/108/108 107/107/107 106/106/106
f 109/109/109 110/110/110 83/83/83
f 111/111/111 77/77/77 76/76/76
f 84/84/84 83/83/83 110/110/110
f 112/112/112 113/113/113 114/114/114
f 115/115/115 116/116/116 117/117/117
f 118/118/118 117/117/117 116/116/116
f 119/119/119 39/39/39 38/38/38
f 120/120/120 20/20/20 19/19/19
