# Rhino

mtllib Sofa_02_05.mtl
usemtl Default
v -0.12168154718699997 0.17176356721400002 -0.1892329772800001
v 0.11601240576300009 0.12856689886190001 -0.19036412166799987
v -0.12168154718699997 0.12856689886190001 -0.19036412166799987
v 0.11601240576300009 0.17176356721400002 -0.1892329772800001
v -0.12168154718699997 0.17176356721400002 -0.1892329772800001
v 0.11356629697699994 0.17428576797298001 -0.18631258392100003
v 0.11601240576300009 0.17176356721400002 -0.1892329772800001
v -0.11923337068399997 0.17428576797298001 -0.18631258392100003
v -0.12168154718699997 0.16312299291360002 0.14073147849900014
v -0.11923337068399997 0.17428576797298001 -0.18631258392100003
v -0.12168154718699997 0.17176356721400002 -0.1892329772800001
v -0.11923337068399997 0.1657944828141 0.13794709127000004
v -0.12168154718699997 0.16312299291360002 0.14073147849900014
v 0.11356629697699994 0.1657944828141 0.13794709127000004
v -0.11923337068399997 0.1657944828141 0.13794709127000004
v 0.11601240576300009 0.16312299291360002 0.14073147849900014
v -0.12168154718699997 0.11992632456160002 0.13960043749600004
v 0.11601240576300009 0.16312299291360002 0.14073147849900014
v -0.12168154718699997 0.16312299291360002 0.14073147849900014
v 0.11601240576300009 0.11992632456160002 0.13960043749600004
v -0.12168154718699997 0.11992632456160002 0.13960043749600004
v 0.11263292968499994 0.11703276189390001 0.1355807963450002
v 0.11601240576300009 0.11992632456160002 0.13960043749600004
v -0.11830289819500006 0.11703276189390001 0.1355807963450002
v -0.12168154718699997 0.11992632456160002 0.13960043749600004
v -0.11830289819500006 0.12546697807350002 -0.1865016559299999
v -0.11830289819500006 0.11703276189390001 0.1355807963450002
v -0.12168154718699997 0.12856689886190001 -0.19036412166799987
v -0.12168154718699997 0.11992632456160002 0.13960043749600004
v -0.12168154718699997 0.17176356721400002 -0.1892329772800001
v -0.12168154718699997 0.12856689886190001 -0.19036412166799987
v -0.12168154718699997 0.16312299291360002 0.14073147849900014
v -0.12168154718699997 0.12856689886190001 -0.19036412166799987
v 0.11263292968499994 0.12546697807350002 -0.1865016559299999
v -0.11830289819500006 0.12546697807350002 -0.1865016559299999
v 0.11601240576300009 0.12856689886190001 -0.19036412166799987
v 0.11601240576300009 0.12856689886190001 -0.19036412166799987
v 0.11263292968499994 0.11703276189390001 0.1355807963450002
v 0.11263292968499994 0.12546697807350002 -0.1865016559299999
v 0.11601240576300009 0.11992632456160002 0.13960043749600004
v 0.11601240576300009 0.17176356721400002 -0.1892329772800001
v 0.11601240576300009 0.11992632456160002 0.13960043749600004
v 0.11601240576300009 0.12856689886190001 -0.19036412166799987
v 0.11601240576300009 0.16312299291360002 0.14073147849900014
v 0.11356629697699994 0.17428576797298001 -0.18631258392100003
v 0.11601240576300009 0.16312299291360002 0.14073147849900014
v 0.11601240576300009 0.17176356721400002 -0.1892329772800001
v 0.11356629697699994 0.1657944828141 0.13794709127000004
v 0.10596082162700005 0.18087020484533001 -0.17726564126799982
v 0.11356629697699994 0.1657944828141 0.13794709127000004
v 0.11356629697699994 0.17428576797298001 -0.18631258392100003
v 0.10596082162700005 0.17284332884406001 0.12925689176999988
v 0.090888821485400006 0.18722636580049001 -0.15951259837699983
v 0.10596082162700005 0.17284332884406001 0.12925689176999988
v 0.10596082162700005 0.18087020484533001 -0.17726564126799982
v 0.090888821485400006 0.18012045079121602 0.11186119166699982
v -0.096558789995500049 0.18722636580049001 -0.15951259837699983
v 0.090888821485400006 0.18012045079121602 0.11186119166699982
v 0.090888821485400006 0.18722636580049001 -0.15951259837699983
v -0.096558789995500049 0.18012045079121602 0.11186119166699982
v -0.11162830887700004 0.18087020484533001 -0.17726564126799982
v -0.096558789995500049 0.18012045079121602 0.11186119166699982
v -0.096558789995500049 0.18722636580049001 -0.15951259837699983
v -0.11162830887700004 0.17284332884406001 0.12925689176999988
v -0.11923337068399997 0.17428576797298001 -0.18631258392100003
v -0.11162830887700004 0.17284332884406001 0.12925689176999988
v -0.11162830887700004 0.18087020484533001 -0.17726564126799982
v -0.11923337068399997 0.1657944828141 0.13794709127000004
v -0.11923337068399997 0.1657944828141 0.13794709127000004
v 0.10596082162700005 0.17284332884406001 0.12925689176999988
v -0.11162830887700004 0.17284332884406001 0.12925689176999988
v 0.11356629697699994 0.1657944828141 0.13794709127000004
v 0.090888821485400006 0.18012045079121602 0.11186119166699982
v -0.11162830887700004 0.17284332884406001 0.12925689176999988
v 0.10596082162700005 0.17284332884406001 0.12925689176999988
v -0.096558789995500049 0.18012045079121602 0.11186119166699982
v 0.10596082162700005 0.18087020484533001 -0.17726564126799982
v -0.11923337068399997 0.17428576797298001 -0.18631258392100003
v -0.11162830887700004 0.18087020484533001 -0.17726564126799982
v 0.11356629697699994 0.17428576797298001 -0.18631258392100003
v -0.11162830887700004 0.18087020484533001 -0.17726564126799982
v 0.090888821485400006 0.18722636580049001 -0.15951259837699983
v 0.10596082162700005 0.18087020484533001 -0.17726564126799982
v -0.096558789995500049 0.18722636580049001 -0.15951259837699983
v -0.11830289819500006 0.11703276189390001 0.1355807963450002
v 0.11263292968499994 0.12546697807350002 -0.1865016559299999
v 0.11263292968499994 0.11703276189390001 0.1355807963450002
v -0.11830289819500006 0.12546697807350002 -0.1865016559299999
vt 22.628799438476562 5.2115001678466797
vt 0 1.0976899862289429
vt 22.628799438476562 1.0976899862289429
vt 0 5.2115001678466797
vt 22.628799438476562 3.4871399402618408
vt 0.23288500308990479 3.8545000553131104
vt 0 3.4871399402618408
vt 22.395999908447266 3.8545000553131104
vt 30.953699111938477 -12.840299606323242
vt -0.16630500555038452 -11.381099700927734
vt -0.44998601078987122 -11.710800170898438
vt 30.694400787353516 -12.491100311279297
vt -22.628799438476562 -19.707000732421875
vt -0.23288500308990479 -19.339700698852539
vt -22.395999908447266 -19.339700698852539
vt 0 -19.707000732421875
vt -22.628799438476562 1.0976899862289429
vt 0 5.2115001678466797
vt -22.628799438476562 5.2115001678466797
vt 0 1.0976899862289429
vt -22.628799438476562 25.654699325561523
vt -0.32175999879837036 25.183200836181641
vt 0 25.654699325561523
vt -22.307100296020508 25.183200836181641
vt 32.067100524902344 16.405399322509766
vt 1.0255700349807739 17.199899673461914
vt 31.675100326538086 15.990500450134277
vt 0.667510986328125 17.644500732421875
vt 31.413200378417969 0.27548500895500183
vt 0.10768699645996094 5.2104601860046387
vt 0 1.0980700254440308
vt 31.520900726318359 4.3878798484802246
vt 22.628799438476562 0.68732601404190063
vt 0.32175999879837036 0.21581999957561493
vt 22.307100296020508 0.21581999957561493
vt 0 0.68732601404190063
vt 0 0.7289770245552063
vt -31.007600784301758 -0.92506098747253418
vt -0.35806199908256531 0.28441199660301208
vt -31.399499893188477 -0.51009297370910645
vt -0.10768699645996094 5.2104601860046387
vt -31.413200378417969 0.27548500895500183
vt 0 1.0980700254440308
vt -31.520900726318359 4.3878798484802246
vt -0.39133501052856445 4.1223502159118652
vt -31.511299133300781 2.6630799770355225
vt -0.10765399783849716 3.7926399707794189
vt -31.252099990844727 3.0123300552368164
vt -1.2743899822235107 4.7436199188232422
vt -31.249300003051758 2.5945799350738525
vt -0.39234599471092224 3.8050000667572021
vt -30.443500518798828 3.5994200706481934
vt -3.0703799724578857 4.7794599533081055
vt -30.433000564575195 1.463129997253418
vt -1.3001899719238281 3.3138399124145508
vt -28.862499237060547 3.14096999168396
vt -20.23699951171875 -2.7611899375915527
vt -2.3918399810791016 -28.605300903320312
vt -2.3918399810791016 -2.7611899375915527
vt -20.23699951171875 -28.605300903320312
vt -0.0069023198448121548 -17.261600494384766
vt 27.555400848388672 -17.434499740600586
vt 1.7632800340652466 -15.795999526977539
vt 29.125900268554688 -19.112400054931641
vt -0.26805698871612549 -13.030599594116211
vt 29.783100128173828 -13.236200332641602
vt 0.61399102210998535 -12.092000007629395
vt 30.588899612426758 -14.241000175476074
vt -22.395999908447266 -21.349599838256836
vt -0.95695102214813232 -20.284400939941406
vt -21.671899795532227 -20.284400939941406
vt -0.23288500308990479 -21.349599838256836
vt -2.3918399810791016 -24.225900650024414
vt -21.671899795532227 -26.021099090576172
vt -0.95695102214813232 -26.021099090576172
vt -20.23699951171875 -24.225900650024414
vt 0.95695102214813232 4.5845298767089844
vt 22.395999908447266 3.519279956817627
vt 21.671899795532227 4.5845298767089844
vt 0.23288500308990479 3.519279956817627
vt 21.671899795532227 3.2226700782775879
vt 2.3918399810791016 5.017859935760498
vt 0.95695102214813232 3.2226700782775879
vt 20.23699951171875 5.017859935760498
vt 22.307100296020508 -31.019899368286133
vt 0.32175999879837036 -0.3465690016746521
vt 0.32175999879837036 -31.019899368286133
vt 22.307100296020508 -0.3465690016746521
vn 0 0.026176944375038147 -0.99965733289718628
vn 0 0.026176944375038147 -0.99965733289718628
vn 0 0.026176944375038147 -0.99965733289718628
vn 0 0.026176944375038147 -0.99965733289718628
vn 0 0.7568175196647644 -0.6536262035369873
vn 0 0.7568175196647644 -0.6536262035369873
vn 0 0.7568175196647644 -0.6536262035369873
vn 0 0.7568175196647644 -0.6536262035369873
vn -0.72775208950042725 0.68560528755187988 0.017953520640730858
vn -0.72775208950042725 0.68560528755187988 0.017953520640730858
vn -0.72775208950042725 0.68560528755187988 0.017953520640730858
vn -0.72775208950042725 0.68560528755187988 0.017953520640730858
vn 0 0.72158432006835938 0.69232654571533203
vn 0 0.72158432006835938 0.69232654571533203
vn 0 0.72158432006835938 0.69232654571533203
vn 0 0.72158432006835938 0.69232654571533203
vn 0 -0.026174552738666534 0.99965739250183105
vn 0 -0.026174552738666534 0.99965739250183105
vn 0 -0.026174552738666534 0.99965739250183105
vn 0 -0.026174552738666534 0.99965739250183105
vn 0 -0.81158977746963501 0.58422774076461792
vn 0 -0.81158977746963501 0.58422774076461792
vn 0 -0.81158977746963501 0.58422774076461792
vn 0 -0.81158977746963501 0.58422774076461792
vn -0.66368979215621948 -0.74775159358978271 -0.019581006839871407
vn -0.66368979215621948 -0.74775159358978271 -0.019581006839871407
vn -0.66368979215621948 -0.74775159358978271 -0.019581006839871407
vn -0.66368979215621948 -0.74775159358978271 -0.019581006839871407
vn -1 0 0
vn -1 0 0
vn -1 0 0
vn -1 0 0
vn 0 -0.77988797426223755 -0.62591910362243652
vn 0 -0.77988797426223755 -0.62591910362243652
vn 0 -0.77988797426223755 -0.62591910362243652
vn 0 -0.77988797426223755 -0.62591910362243652
vn 0.66359305381774902 -0.7478373646736145 -0.019583253189921379
vn 0.66359305381774902 -0.7478373646736145 -0.019583253189921379
vn 0.66359305381774902 -0.7478373646736145 -0.019583253189921379
vn 0.66359305381774902 -0.7478373646736145 -0.019583253189921379
vn 1 0 0
vn 1 0 0
vn 1 0 0
vn 1 0 0
vn 0.72804123163223267 0.68529844284057617 0.017945483326911926
vn 0.72804123163223267 0.68529844284057617 0.017945483326911926
vn 0.72804123163223267 0.68529844284057617 0.017945483326911926
vn 0.72804123163223267 0.68529844284057617 0.017945483326911926
vn 0.66756165027618408 0.74429935216903687 0.019490731880068779
vn 0.66756165027618408 0.74429935216903687 0.019490731880068779
vn 0.66756165027618408 0.74429935216903687 0.019490731880068779
vn 0.66756165027618408 0.74429935216903687 0.019490731880068779
vn 0.41218969225883484 0.91078579425811768 0.023850660771131516
vn 0.41218969225883484 0.91078579425811768 0.023850660771131516
vn 0.41218969225883484 0.91078579425811768 0.023850660771131516
vn 0.41218969225883484 0.91078579425811768 0.023850660771131516
vn 0 0.99965733289718628 0.026176000013947487
vn 0 0.99965733289718628 0.026176000013947487
vn 0 0.99965733289718628 0.026176000013947487
vn 0 0.99965733289718628 0.026176000013947487
vn -0.41224431991577148 0.91076117753982544 0.023848254233598709
vn -0.41224431991577148 0.91076117753982544 0.023848254233598709
vn -0.41224431991577148 0.91076117753982544 0.023848254233598709
vn -0.41224431991577148 0.91076117753982544 0.023848254233598709
vn -0.66758185625076294 0.74428123235702515 0.019490420818328857
vn -0.66758185625076294 0.74428123235702515 0.019490420818328857
vn -0.66758185625076294 0.74428123235702515 0.019490420818328857
vn -0.66758185625076294 0.74428123235702515 0.019490420818328857
vn 0 0.77663600444793701 0.62994962930679321
vn 0 0.77663600444793701 0.62994962930679321
vn 0 0.77663600444793701 0.62994962930679321
vn 0 0.77663600444793701 0.62994962930679321
vn 0 0.9225316047668457 0.38592150807380676
vn 0 0.9225316047668457 0.38592150807380676
vn 0 0.9225316047668457 0.38592150807380676
vn 0 0.9225316047668457 0.38592150807380676
vn 0 0.80853021144866943 -0.5884547233581543
vn 0 0.80853021144866943 -0.5884547233581543
vn 0 0.80853021144866943 -0.5884547233581543
vn 0 0.80853021144866943 -0.5884547233581543
vn 0 0.94147640466690063 -0.33707886934280396
vn 0 0.94147640466690063 -0.33707886934280396
vn 0 0.94147640466690063 -0.33707886934280396
vn 0 0.94147640466690063 -0.33707886934280396
vn 0 -0.99965733289718628 -0.026177538558840752
vn 0 -0.99965733289718628 -0.026177538558840752
vn 0 -0.99965733289718628 -0.026177538558840752
vn 0 -0.99965733289718628 -0.026177538558840752
f 1/1/1 2/2/2 3/3/3
f 2/2/2 1/1/1 4/4/4
f 5/5/5 6/6/6 7/7/7
f 6/6/6 5/5/5 8/8/8
f 9/9/9 10/10/10 11/11/11
f 10/10/10 9/9/9 12/12/12
f 13/13/13 14/14/14 15/15/15
f 14/14/14 13/13/13 16/16/16
f 17/17/17 18/18/18 19/19/19
f 18/18/18 17/17/17 20/20/20
f 21/21/21 22/22/22 23/23/23
f 22/22/22 21/21/21 24/24/24
f 25/25/25 26/26/26 27/27/27
f 26/26/26 25/25/25 28/28/28
f 29/29/29 30/30/30 31/31/31
f 30/30/30 29/29/29 32/32/32
f 33/33/33 34/34/34 35/35/35
f 34/34/34 33/33/33 36/36/36
f 37/37/37 38/38/38 39/39/39
f 38/38/38 37/37/37 40/40/40
f 41/41/41 42/42/42 43/43/43
f 42/42/42 41/41/41 44/44/44
f 45/45/45 46/46/46 47/47/47
f 46/46/46 45/45/45 48/48/48
f 49/49/49 50/50/50 51/51/51
f 50/50/50 49/49/49 52/52/52
f 53/53/53 54/54/54 55/55/55
f 54/54/54 53/53/53 56/56/56
f 57/57/57 58/58/58 59/59/59
f 58/58/58 57/57/57 60/60/60
f 61/61/61 62/62/62 63/63/63
f 62/62/62 61/61/61 64/64/64
f 65/65/65 66/66/66 67/67/67
f 66/66/66 65/65/65 68/68/68
f 69/69/69 70/70/70 71/71/71
f 70/70/70 69/69/69 72/72/72
f 73/73/73 74/74/74 75/75/75
f 74/74/74 73/73/73 76/76/76
f 77/77/77 78/78/78 79/79/79
f 78/78/78 77/77/77 80/80/80
f 81/81/81 82/82/82 83/83/83
f 82/82/82 81/81/81 84/84/84
f 85/85/85 86/86/86 87/87/87
f 86/86/86 85/85/85 88/88/88
