# Rhino

mtllib Sofa_13_08.mtl
usemtl Default
v -0.37887875861300024 0.042894093130000005 -0.15037382228799956
v -0.37594289623899968 0 -0.15139279530099969
v -0.37594289623899968 0.042894093130000005 -0.15139279530099969
v -0.37887875861300024 0 -0.15037382228799956
v -0.38198143134999984 0.042894093130000005 -0.15014981980200037
v -0.37887875861300024 0 -0.15037382228799956
v -0.37887875861300024 0.042894093130000005 -0.15037382228799956
v -0.38198143134999984 0 -0.15014981980200037
v -0.38503644398199999 0.042894093130000005 -0.15073651567599988
v -0.38198143134999984 0 -0.15014981980200037
v -0.38198143134999984 0.042894093130000005 -0.15014981980200037
v -0.38503644398199999 0 -0.15073651567599988
v -0.38783409205700003 0.042894093130000005 -0.15209387542299968
v -0.38503644398199999 0 -0.15073651567599988
v -0.38503644398199999 0.042894093130000005 -0.15073651567599988
v -0.38783409205700003 0 -0.15209387542299968
v -0.39018850116899984 0.042894093130000005 -0.15412943844300031
v -0.38783409205700003 0 -0.15209387542299968
v -0.38783409205700003 0.042894093130000005 -0.15209387542299968
v -0.39018850116899984 0 -0.15412943844300031
v -0.39018850116899984 0.042894093130000005 -0.15412943844300031
v -0.39193286095600044 0 -0.15670451383299966
v -0.39018850116899984 0 -0.15412943844300031
v -0.39193286095600044 0.042894093130000005 -0.15670451383299966
v -0.37594289623899968 0.042894093130000005 -0.15139279530099969
v -0.37336448464099981 0 -0.1531381082900003
v -0.37336448464099981 0.042894093130000005 -0.1531381082900003
v -0.37594289623899968 0 -0.15139279530099969
v -0.37594289623899968 0 -0.15139279530099969
v -0.38783409205700003 0 -0.15209387542299968
v -0.37336448464099981 0 -0.1531381082900003
v -0.38503644398199999 0 -0.15073651567599988
v -0.37887875861300024 0 -0.15037382228799956
v -0.38198143134999984 0 -0.15014981980200037
v -0.39018850116899984 0 -0.15412943844300031
v -0.37132939822199962 0 -0.15549013439699966
v -0.39193286095600044 0 -0.15670451383299966
v -0.36997108527299982 0 -0.15828873567299961
v -0.3929527871699996 0 -0.15964323581400031
v -0.36938486599999987 0 -0.16134327170500029
v -0.39317678965699976 0 -0.16274543194900026
v -0.36960886848700003 0 -0.16444546784100034
v -0.3925905703839998 0 -0.16579996798200014
v -0.37062879470100007 0 -0.16738418982100001
v -0.39123225743399992 0 -0.1685985692580001
v -0.37237315448799979 0 -0.16995926521200033
v -0.38919717101599982 0 -0.17095059536500035
v -0.37472756360099968 0 -0.17199482823200007
v -0.38661875941799995 0 -0.17269590835400006
v -0.37752521167499964 0 -0.17335218797799978
v -0.38368289704300018 0 -0.17371488136600011
v -0.38058022430799987 0 -0.17393888385200018
v -0.39193286095600044 0.042894093130000005 -0.15670451383299966
v -0.3929527871699996 0 -0.15964323581400031
v -0.39193286095600044 0 -0.15670451383299966
v -0.3929527871699996 0.042894093130000005 -0.15964323581400031
v -0.37132939822199962 0 -0.15549013439699966
v -0.36997108527299982 0.042894093130000005 -0.15828873567299961
v -0.37132939822199962 0.042894093130000005 -0.15549013439699966
v -0.36997108527299982 0 -0.15828873567299961
v -0.36997108527299982 0 -0.15828873567299961
v -0.36938486599999987 0.042894093130000005 -0.16134327170500029
v -0.36997108527299982 0.042894093130000005 -0.15828873567299961
v -0.36938486599999987 0 -0.16134327170500029
v -0.3929527871699996 0.042894093130000005 -0.15964323581400031
v -0.39317678965699976 0 -0.16274543194900026
v -0.3929527871699996 0 -0.15964323581400031
v -0.39317678965699976 0.042894093130000005 -0.16274543194900026
v -0.36938486599999987 0 -0.16134327170500029
v -0.36960886848700003 0.042894093130000005 -0.16444546784100034
v -0.36938486599999987 0.042894093130000005 -0.16134327170500029
v -0.36960886848700003 0 -0.16444546784100034
v -0.39317678965699976 0.042894093130000005 -0.16274543194900026
v -0.3925905703839998 0 -0.16579996798200014
v -0.39317678965699976 0 -0.16274543194900026
v -0.3925905703839998 0.042894093130000005 -0.16579996798200014
v -0.36960886848700003 0 -0.16444546784100034
v -0.37062879470100007 0.042894093130000005 -0.16738418982100001
v -0.36960886848700003 0.042894093130000005 -0.16444546784100034
v -0.37062879470100007 0 -0.16738418982100001
v -0.3925905703839998 0.042894093130000005 -0.16579996798200014
v -0.39123225743399992 0 -0.1685985692580001
v -0.3925905703839998 0 -0.16579996798200014
v -0.39123225743399992 0.042894093130000005 -0.1685985692580001
v -0.37062879470100007 0 -0.16738418982100001
v -0.37237315448799979 0.042894093130000005 -0.16995926521200033
v -0.37062879470100007 0.042894093130000005 -0.16738418982100001
v -0.37237315448799979 0 -0.16995926521200033
v -0.39123225743399992 0.042894093130000005 -0.1685985692580001
v -0.38919717101599982 0 -0.17095059536500035
v -0.39123225743399992 0 -0.1685985692580001
v -0.38919717101599982 0.042894093130000005 -0.17095059536500035
v -0.37237315448799979 0.042894093130000005 -0.16995926521200033
v -0.37472756360099968 0 -0.17199482823200007
v -0.37472756360099968 0.042894093130000005 -0.17199482823200007
v -0.37237315448799979 0 -0.16995926521200033
v -0.38919717101599982 0 -0.17095059536500035
v -0.38661875941799995 0.042894093130000005 -0.17269590835400006
v -0.38661875941799995 0 -0.17269590835400006
v -0.38919717101599982 0.042894093130000005 -0.17095059536500035
v -0.37472756360099968 0.042894093130000005 -0.17199482823200007
v -0.37752521167499964 0 -0.17335218797799978
v -0.37752521167499964 0.042894093130000005 -0.17335218797799978
v -0.37472756360099968 0 -0.17199482823200007
v -0.38661875941799995 0 -0.17269590835400006
v -0.38368289704300018 0.042894093130000005 -0.17371488136600011
v -0.38368289704300018 0 -0.17371488136600011
v -0.38661875941799995 0.042894093130000005 -0.17269590835400006
v -0.37752521167499964 0.042894093130000005 -0.17335218797799978
v -0.38058022430799987 0 -0.17393888385200018
v -0.38058022430799987 0.042894093130000005 -0.17393888385200018
v -0.37752521167499964 0 -0.17335218797799978
v -0.38368289704300018 0 -0.17371488136600011
v -0.38058022430799987 0.042894093130000005 -0.17393888385200018
v -0.38058022430799987 0 -0.17393888385200018
v -0.38368289704300018 0.042894093130000005 -0.17371488136600011
v -0.37132939822199962 0.042894093130000005 -0.15549013439699966
v -0.37336448464099981 0 -0.1531381082900003
v -0.37132939822199962 0 -0.15549013439699966
v -0.37336448464099981 0.042894093130000005 -0.1531381082900003
v -0.36938486599999987 0.042894093130000005 -0.16134327170500029
v -0.36960886848700003 0.042894093130000005 -0.16444546784100034
v -0.38128082782849937 0.042894093130000005 -0.16204435182700028
v -0.37062879470100007 0.042894093130000005 -0.16738418982100001
v -0.37237315448799979 0.042894093130000005 -0.16995926521200033
v -0.37752521167499964 0.042894093130000005 -0.17335218797799978
v -0.37472756360099968 0.042894093130000005 -0.17199482823200007
v -0.37132939822199962 0.042894093130000005 -0.15549013439699966
v -0.36997108527299982 0.042894093130000005 -0.15828873567299961
v -0.37594289623899968 0.042894093130000005 -0.15139279530099969
v -0.37336448464099981 0.042894093130000005 -0.1531381082900003
v -0.37887875861300024 0.042894093130000005 -0.15037382228799956
v -0.38058022430799987 0.042894093130000005 -0.17393888385200018
v -0.38368289704300018 0.042894093130000005 -0.17371488136600011
v -0.38661875941799995 0.042894093130000005 -0.17269590835400006
v -0.38919717101599982 0.042894093130000005 -0.17095059536500035
v -0.3925905703839998 0.042894093130000005 -0.16579996798200014
v -0.39123225743399992 0.042894093130000005 -0.1685985692580001
v -0.39317678965699976 0.042894093130000005 -0.16274543194900026
v -0.38198143134999984 0.042894093130000005 -0.15014981980200037
v -0.38503644398199999 0.042894093130000005 -0.15073651567599988
v -0.38783409205700003 0.042894093130000005 -0.15209387542299968
v -0.39193286095600044 0.042894093130000005 -0.15670451383299966
v -0.39018850116899984 0.042894093130000005 -0.15412943844300031
v -0.3929527871699996 0.042894093130000005 -0.15964323581400031
vt -0.27077001333236694 0.017999999225139618
vt -0.26946398615837097 0
vt -0.26946398615837097 0.017999999225139618
vt -0.27077001333236694 0
vt -0.32854598760604858 0.017999999225139618
vt -0.327239990234375 0
vt -0.327239990234375 0.017999999225139618
vt -0.32854598760604858 0
vt -0.36397600173950195 0.017999999225139618
vt -0.36267098784446716 0
vt -0.36267098784446716 0.017999999225139618
vt -0.36397600173950195 0
vt -0.37464699149131775 0.017999999225139618
vt -0.37334200739860535 0
vt -0.37334200739860535 0.017999999225139618
vt -0.37464699149131775 0
vt -0.35983100533485413 0.017999999225139618
vt -0.35852599143981934 0
vt -0.35852599143981934 0.017999999225139618
vt -0.35983100533485413 0
vt -0.31923198699951172 0.017999999225139618
vt -0.32053700089454651 0
vt -0.31923198699951172 0
vt -0.32053700089454651 0.017999999225139618
vt -0.19458499550819397 0.017999999225139618
vt -0.19327999651432037 0
vt -0.19327999651432037 0.017999999225139618
vt -0.19458499550819397 0
vt -0.15152999758720398 0.33775898814201355
vt -0.15182399749755859 0.34275001287460327
vt -0.15226300060749054 0.33667901158332825
vt -0.15125499665737152 0.34157600998878479
vt -0.15110300481319427 0.33899199962615967
vt -0.15100899338722229 0.3402940034866333
vt -0.15267899632453918 0.34373700618743896
vt -0.15324999392032623 0.33582401275634766
vt -0.15375900268554688 0.34446999430656433
vt -0.15442399680614471 0.33525499701499939
vt -0.1549919992685318 0.34489700198173523
vt -0.1557060033082962 0.33500900864601135
vt -0.15629400312900543 0.34499099850654602
vt -0.15700800716876984 0.33510300517082214
vt -0.15757599472999573 0.34474501013755798
vt -0.15824100375175476 0.33553001284599304
vt -0.15874999761581421 0.34417599439620972
vt -0.15932099521160126 0.33626300096511841
vt -0.1597370058298111 0.34332099556922913
vt -0.16017599403858185 0.3372499942779541
vt -0.16046999394893646 0.34224098920822144
vt -0.16074499487876892 0.33842399716377258
vt -0.16089700162410736 0.34100800752639771
vt -0.16099099814891815 0.33970600366592407
vt -0.25813901424407959 0.017999999225139618
vt -0.25944399833679199 0
vt -0.25813901424407959 0
vt -0.25944399833679199 0.017999999225139618
vt -0.0086611304432153702 0
vt -0.0073558599688112736 0.017999999225139618
vt -0.0086611304432153702 0.017999999225139618
vt -0.0073558599688112736 0
vt 0.088408596813678741 0
vt 0.089713901281356812 0.017999999225139618
vt 0.088408596813678741 0.017999999225139618
vt 0.089713901281356812 0
vt -0.17940899729728699 0.017999999225139618
vt -0.18071399629116058 0
vt -0.17940899729728699 0
vt -0.18071399629116058 0.017999999225139618
vt 0.17940899729728699 0
vt 0.18071399629116058 0.017999999225139618
vt 0.17940899729728699 0.017999999225139618
vt 0.18071399629116058 0
vt -0.088408596813678741 0.017999999225139618
vt -0.089713901281356812 0
vt -0.088408596813678741 0
vt -0.089713901281356812 0.017999999225139618
vt 0.25813901424407959 0
vt 0.25944399833679199 0.017999999225139618
vt 0.25813901424407959 0.017999999225139618
vt 0.25944399833679199 0
vt 0.0086611304432153702 0.017999999225139618
vt 0.0073558599688112736 0
vt 0.0086611304432153702 0
vt 0.0073558599688112736 0.017999999225139618
vt 0.31923198699951172 0
vt 0.32053700089454651 0.017999999225139618
vt 0.31923198699951172 0.017999999225139618
vt 0.32053700089454651 0
vt 0.10518500208854675 0.017999999225139618
vt 0.10388000309467316 0
vt 0.10518500208854675 0
vt 0.10388000309467316 0.017999999225139618
vt 0.35852599143981934 0.017999999225139618
vt 0.35983100533485413 0
vt 0.35983100533485413 0.017999999225139618
vt 0.35852599143981934 0
vt 0.19458499550819397 0
vt 0.19327999651432037 0.017999999225139618
vt 0.19327999651432037 0
vt 0.19458499550819397 0.017999999225139618
vt 0.37334200739860535 0.017999999225139618
vt 0.37464699149131775 0
vt 0.37464699149131775 0.017999999225139618
vt 0.37334200739860535 0
vt 0.27077001333236694 0
vt 0.26946398615837097 0.017999999225139618
vt 0.26946398615837097 0
vt 0.27077001333236694 0.017999999225139618
vt 0.36267098784446716 0.017999999225139618
vt 0.36397600173950195 0
vt 0.36397600173950195 0.017999999225139618
vt 0.36267098784446716 0
vt 0.32854598760604858 0
vt 0.327239990234375 0.017999999225139618
vt 0.327239990234375 0
vt 0.32854598760604858 0.017999999225139618
vt -0.10388000309467316 0.017999999225139618
vt -0.10518500208854675 0
vt -0.10388000309467316 0
vt -0.10518500208854675 0.017999999225139618
vt 0 0.52947068214416504
vt 0.0094150640070438385 0.39906638860702515
vt 0.5 0.5
vt 0.052283652126789093 0.27553391456604004
vt 0.12560096383094788 0.16728773713111877
vt 0.34214743971824646 0.024662420153617859
vt 0.22455929219722748 0.081720560789108276
vt 0.081730768084526062 0.77551388740539551
vt 0.024639423936605453 0.6578715443611145
vt 0.27564102411270142 0.94775015115737915
vt 0.16726763546466827 0.87438392639160156
vt 0.39903846383094788 0.99058377742767334
vt 0.47055289149284363 0
vt 0.60096156597137451 0.0094161955639719963
vt 0.72435897588729858 0.05224987119436264
vt 0.83273237943649292 0.12561605870723724
vt 0.97536057233810425 0.3421284556388855
vt 0.91826921701431274 0.22448611259460449
vt 1 0.47052931785583496
vt 0.52944713830947876 1
vt 0.65785259008407593 0.97533756494522095
vt 0.77544069290161133 0.91827946901321411
vt 0.9477163553237915 0.72446608543395996
vt 0.87439906597137451 0.83271229267120361
vt 0.99058490991592407 0.60093361139297485
vn 0.32789003849029541 0 0.94471591711044312
vn 0.32789003849029541 0 0.94471591711044312
vn 0.32789003849029541 0 0.94471591711044312
vn 0.32789003849029541 0 0.94471591711044312
vn 0.072009198367595673 0 0.99740397930145264
vn 0.072009198367595673 0 0.99740397930145264
vn 0.072009198367595673 0 0.99740397930145264
vn 0.072009198367595673 0 0.99740397930145264
vn -0.18859736621379852 0 0.98205447196960449
vn -0.18859736621379852 0 0.98205447196960449
vn -0.18859736621379852 0 0.98205447196960449
vn -0.18859736621379852 0 0.98205447196960449
vn -0.43651416897773743 0 0.89969736337661743
vn -0.43651416897773743 0 0.89969736337661743
vn -0.43651416897773743 0 0.89969736337661743
vn -0.43651416897773743 0 0.89969736337661743
vn -0.65402644872665405 0 0.75647169351577759
vn -0.65402644872665405 0 0.75647169351577759
vn -0.65402644872665405 0 0.75647169351577759
vn -0.65402644872665405 0 0.75647169351577759
vn -0.82792556285858154 0 0.56083798408508301
vn -0.82792556285858154 0 0.56083798408508301
vn -0.82792556285858154 0 0.56083798408508301
vn -0.82792556285858154 0 0.56083798408508301
vn 0.5605502724647522 0 0.82812041044235229
vn 0.5605502724647522 0 0.82812041044235229
vn 0.5605502724647522 0 0.82812041044235229
vn 0.5605502724647522 0 0.82812041044235229
vn 0 -1 0
vn 0 -1 0
vn 0 -1 0
vn 0 -1 0
vn 0 -1 0
vn 0 -1 0
vn 0 -1 0
vn 0 -1 0
vn 0 -1 0
vn 0 -1 0
vn 0 -1 0
vn 0 -1 0
vn 0 -1 0
vn 0 -1 0
vn 0 -1 0
vn 0 -1 0
vn 0 -1 0
vn 0 -1 0
vn 0 -1 0
vn 0 -1 0
vn 0 -1 0
vn 0 -1 0
vn 0 -1 0
vn 0 -1 0
vn -0.94471979141235352 0 0.32787874341011047
vn -0.94471979141235352 0 0.32787874341011047
vn -0.94471979141235352 0 0.32787874341011047
vn -0.94471979141235352 0 0.32787874341011047
vn 0.8996354341506958 0 0.43664184212684631
vn 0.8996354341506958 0 0.43664184212684631
vn 0.8996354341506958 0 0.43664184212684631
vn 0.8996354341506958 0 0.43664184212684631
vn 0.98207741975784302 0 0.18847796320915222
vn 0.98207741975784302 0 0.18847796320915222
vn 0.98207741975784302 0 0.18847796320915222
vn 0.98207741975784302 0 0.18847796320915222
vn -0.99740314483642578 0 0.072020202875137329
vn -0.99740314483642578 0 0.072020202875137329
vn -0.99740314483642578 0 0.072020202875137329
vn -0.99740314483642578 0 0.072020202875137329
vn 0.99740314483642578 0 -0.072020202875137329
vn 0.99740314483642578 0 -0.072020202875137329
vn 0.99740314483642578 0 -0.072020202875137329
vn 0.99740314483642578 0 -0.072020202875137329
vn -0.98207741975784302 0 -0.18847796320915222
vn -0.98207741975784302 0 -0.18847796320915222
vn -0.98207741975784302 0 -0.18847796320915222
vn -0.98207741975784302 0 -0.18847796320915222
vn 0.94471979141235352 0 -0.32787874341011047
vn 0.94471979141235352 0 -0.32787874341011047
vn 0.94471979141235352 0 -0.32787874341011047
vn 0.94471979141235352 0 -0.32787874341011047
vn -0.8996354341506958 0 -0.43664184212684631
vn -0.8996354341506958 0 -0.43664184212684631
vn -0.8996354341506958 0 -0.43664184212684631
vn -0.8996354341506958 0 -0.43664184212684631
vn 0.82792556285858154 0 -0.56083798408508301
vn 0.82792556285858154 0 -0.56083798408508301
vn 0.82792556285858154 0 -0.56083798408508301
vn 0.82792556285858154 0 -0.56083798408508301
vn -0.75621968507766724 0 -0.65431779623031616
vn -0.75621968507766724 0 -0.65431779623031616
vn -0.75621968507766724 0 -0.65431779623031616
vn -0.75621968507766724 0 -0.65431779623031616
vn 0.65402644872665405 0 -0.75647169351577759
vn 0.65402644872665405 0 -0.75647169351577759
vn 0.65402644872665405 0 -0.75647169351577759
vn 0.65402644872665405 0 -0.75647169351577759
vn -0.5605502724647522 0 -0.82812041044235229
vn -0.5605502724647522 0 -0.82812041044235229
vn -0.5605502724647522 0 -0.82812041044235229
vn -0.5605502724647522 0 -0.82812041044235229
vn 0.43651416897773743 0 -0.89969736337661743
vn 0.43651416897773743 0 -0.89969736337661743
vn 0.43651416897773743 0 -0.89969736337661743
vn 0.43651416897773743 0 -0.89969736337661743
vn -0.32789003849029541 0 -0.94471591711044312
vn -0.32789003849029541 0 -0.94471591711044312
vn -0.32789003849029541 0 -0.94471591711044312
vn -0.32789003849029541 0 -0.94471591711044312
vn 0.18859736621379852 0 -0.98205447196960449
vn 0.18859736621379852 0 -0.98205447196960449
vn 0.18859736621379852 0 -0.98205447196960449
vn 0.18859736621379852 0 -0.98205447196960449
vn -0.072009198367595673 0 -0.99740397930145264
vn -0.072009198367595673 0 -0.99740397930145264
vn -0.072009198367595673 0 -0.99740397930145264
vn -0.072009198367595673 0 -0.99740397930145264
vn 0.75621968507766724 0 0.65431779623031616
vn 0.75621968507766724 0 0.65431779623031616
vn 0.75621968507766724 0 0.65431779623031616
vn 0.75621968507766724 0 0.65431779623031616
vn 0 1 0
vn 0 1 0
vn 0 1 0
vn 0 1 0
vn 0 1 0
vn 0 1 0
vn 0 1 0
vn 0 -1 0
vn 0 -1 0
vn 0 -1 0
vn 0 -1 0
vn 0 -1 0
vn 0 -1 0
vn 0 -1 0
vn 0 -1 0
vn 0 -1 0
vn 0 -1 0
vn 0 -1 0
vn 0 -1 0
vn 0 -1 0
vn 0 -1 0
vn 0 -1 0
vn 0 -1 0
vn 0 -1 0
vn 0 -1 0
f 1/1/1 2/2/2 3/3/3
f 2/2/2 1/1/1 4/4/4
f 5/5/5 6/6/6 7/7/7
f 6/6/6 5/5/5 8/8/8
f 9/9/9 10/10/10 11/11/11
f 10/10/10 9/9/9 12/12/12
f 13/13/13 14/14/14 15/15/15
f 14/14/14 13/13/13 16/16/16
f 17/17/17 18/18/18 19/19/19
f 18/18/18 17/17/17 20/20/20
f 21/21/21 22/22/22 23/23/23
f 22/22/22 21/21/21 24/24/24
f 25/25/25 26/26/26 27/27/27
f 26/26/26 25/25/25 28/28/28
f 29/29/29 30/30/30 31/31/31
f 29/29/29 32/32/32 30/30/30
f 33/33/33 32/32/32 29/29/29
f 32/32/32 33/33/33 34/34/34
f 31/31/31 30/30/30 35/35/35
f 31/31/31 35/35/35 36/36/36
f 36/36/36 35/35/35 37/37/37
f 36/36/36 37/37/37 38/38/38
f 38/38/38 37/37/37 39/39/39
f 38/38/38 39/39/39 40/40/40
f 40/40/40 39/39/39 41/41/41
f 40/40/40 41/41/41 42/42/42
f 42/42/42 41/41/41 43/43/43
f 42/42/42 43/43/43 44/44/44
f 44/44/44 43/43/43 45/45/45
f 44/44/44 45/45/45 46/46/46
f 46/46/46 45/45/45 47/47/47
f 46/46/46 47/47/47 48/48/48
f 48/48/48 47/47/47 49/49/49
f 48/48/48 49/49/49 50/50/50
f 50/50/50 49/49/49 51/51/51
f 50/50/50 51/51/51 52/52/52
f 53/53/53 54/54/54 55/55/55
f 54/54/54 53/53/53 56/56/56
f 57/57/57 58/58/58 59/59/59
f 58/58/58 57/57/57 60/60/60
f 61/61/61 62/62/62 63/63/63
f 62/62/62 61/61/61 64/64/64
f 65/65/65 66/66/66 67/67/67
f 66/66/66 65/65/65 68/68/68
f 69/69/69 70/70/70 71/71/71
f 70/70/70 69/69/69 72/72/72
f 73/73/73 74/74/74 75/75/75
f 74/74/74 73/73/73 76/76/76
f 77/77/77 78/78/78 79/79/79
f 78/78/78 77/77/77 80/80/80
f 81/81/81 82/82/82 83/83/83
f 82/82/82 81/81/81 84/84/84
f 85/85/85 86/86/86 87/87/87
f 86/86/86 85/85/85 88/88/88
f 89/89/89 90/90/90 91/91/91
f 90/90/90 89/89/89 92/92/92
f 93/93/93 94/94/94 95/95/95
f 94/94/94 93/93/93 96/96/96
f 97/97/97 98/98/98 99/99/99
f 98/98/98 97/97/97 100/100/100
f 101/101/101 102/102/102 103/103/103
f 102/102/102 101/101/101 104/104/104
f 105/105/105 106/106/106 107/107/107
f 106/106/106 105/105/105 108/108/108
f 109/109/109 110/110/110 111/111/111
f 110/110/110 109/109/109 112/112/112
f 113/113/113 114/114/114 115/115/115
f 114/114/114 113/113/113 116/116/116
f 117/117/117 118/118/118 119/119/119
f 118/118/118 117/117/117 120/120/120
f 121/121/121 122/122/122 123/123/123
f 124/124/124 125/125/125 123/123/123
f 126/126/126 123/123/123 127/127/127
f 124/124/124 122/122/122 123/123/123
f 123/123/123 127/127/127 125/125/125
f 128/128/128 123/123/123 129/129/129
f 121/121/121 129/129/129 123/123/123
f 130/130/130 123/123/123 131/131/131
f 123/123/123 128/128/128 131/131/131
f 132/132/132 123/123/123 130/130/130
f 126/126/126 123/123/123 133/133/133
f 134/134/134 123/123/123 135/135/135
f 135/135/135 123/123/123 136/136/136
f 137/137/137 138/138/138 123/123/123
f 138/138/138 136/136/136 123/123/123
f 123/123/123 139/139/139 137/137/137
f 140/140/140 141/141/141 123/123/123
f 142/142/142 123/123/123 141/141/141
f 132/132/132 140/140/140 123/123/123
f 143/143/143 123/123/123 144/144/144
f 144/144/144 123/123/123 142/142/142
f 145/145/145 123/123/123 143/143/143
f 145/145/145 139/139/139 123/123/123
f 133/133/133 123/123/123 134/134/134
