# Rhino

mtllib Sofa_15_11.mtl
usemtl Default
v 0.35299809312899999 0.084047285097699986 -0.26306800235700045
v 0.35299809312899999 0.084047285097699986 0.2126396312979999
v 0.12943231476699957 0.084047285097699986 -0.044545061101999295
v 0.35299809312899999 0.1512851131763 -0.26306800235700045
v 0.35299809312899999 0.1512851131763 0.2126396312979999
v 0.12943231476699957 0.1512851131763 -0.044545061101999295
v -0.35299809312899999 0.084047285097699986 0.2126396312979999
v -0.35299809312899999 0.1512851131763 0.2126396312979999
v 0.12943231476699957 0.084047285097699986 -0.26306800235700045
v 0.12943231476699957 0.1512851131763 -0.26306800235700045
v -0.35299809312899999 0.084047285097699986 -0.044545061101999295
v -0.35299809312899999 0.1512851131763 -0.044545061101999295
v -0.35299809312899999 0.1512851131763 0.2126396312979999
v -0.35299809312899999 0.1512851131763 -0.044545061101999295
v -0.35299809312899999 0.084047285097699986 -0.044545061101999295
v -0.35299809312899999 0.084047285097699986 0.2126396312979999
v 0.35299809312899999 0.1512851131763 0.2126396312979999
v -0.35299809312899999 0.1512851131763 0.2126396312979999
v -0.35299809312899999 0.084047285097699986 0.2126396312979999
v 0.35299809312899999 0.084047285097699986 0.2126396312979999
v -0.35299809312899999 0.1512851131763 -0.044545061101999295
v 0.12943231476699957 0.1512851131763 -0.044545061101999295
v 0.12943231476699957 0.084047285097699986 -0.044545061101999295
v -0.35299809312899999 0.084047285097699986 -0.044545061101999295
v 0.12943231476699957 0.1512851131763 -0.044545061101999295
v 0.12943231476699957 0.1512851131763 -0.26306800235700045
v 0.12943231476699957 0.084047285097699986 -0.26306800235700045
v 0.12943231476699957 0.084047285097699986 -0.044545061101999295
v 0.12943231476699957 0.1512851131763 -0.26306800235700045
v 0.35299809312899999 0.1512851131763 -0.26306800235700045
v 0.35299809312899999 0.084047285097699986 -0.26306800235700045
v 0.12943231476699957 0.084047285097699986 -0.26306800235700045
v 0.35299809312899999 0.1512851131763 -0.26306800235700045
v 0.35299809312899999 0.1512851131763 0.2126396312979999
v 0.35299809312899999 0.084047285097699986 0.2126396312979999
v 0.35299809312899999 0.084047285097699986 -0.26306800235700045
vt 0.052777852863073349 0.75677269697189331
vt 0.052777852863073349 0.25677266716957092
vt 0.2111114114522934 0.52709066867828369
vt 0 1
vt 0 0
vt 0.3166671097278595 0.54063606262207031
vt 0.71944451332092285 0.090106010437011719
vt 1 0
vt 0.26388925313949585 0.92343932390213013
vt 0.3166671097278595 1
vt 0.88611119985580444 0.45053002238273621
vt 1 0.54063606262207031
vt 1 0
vt 1 0.54063606262207031
vt 0.88611119985580444 0.45053002238273621
vt 0.71944451332092285 0.090106010437011719
vt 0 0
vt 1 0
vt 0.71944451332092285 0.090106010437011719
vt 0.052777852863073349 0.25677266716957092
vt 1 0.54063606262207031
vt 0.3166671097278595 0.54063606262207031
vt 0.2111114114522934 0.52709066867828369
vt 0.88611119985580444 0.45053002238273621
vt 0.3166671097278595 0.54063606262207031
vt 0.3166671097278595 1
vt 0.26388925313949585 0.92343932390213013
vt 0.2111114114522934 0.52709066867828369
vt 0.3166671097278595 1
vt 0 1
vt 0.052777852863073349 0.75677269697189331
vt 0.26388925313949585 0.92343932390213013
vt 0 1
vt 0 0
vt 0.052777852863073349 0.25677266716957092
vt 0.052777852863073349 0.75677269697189331
vn 0 -1 0
vn 0 -1 0
vn 0 -1 0
vn 0 1 0
vn 0 1 0
vn 0 1 0
vn 0 -1 0
vn 0 1 0
vn 0 -1 0
vn 0 1 0
vn 0 -1 0
vn 0 1 0
vn -1 0 0
vn -1 0 0
vn -1 0 0
vn -1 0 0
vn 0 0 1
vn 0 0 1
vn 0 0 1
vn 0 0 1
vn 0 0 -1
vn 0 0 -1
vn 0 0 -1
vn 0 0 -1
vn -1 0 0
vn -1 0 0
vn -1 0 0
vn -1 0 0
vn 0 0 -1
vn 0 0 -1
vn 0 0 -1
vn 0 0 -1
vn 1 0 0
vn 1 0 0
vn 1 0 0
vn 1 0 0
f 1/1/1 2/2/2 3/3/3
f 4/4/4 6/6/6 5/5/5
f 7/7/7 3/3/3 2/2/2
f 8/8/8 5/5/5 6/6/6
f 9/9/9 1/1/1 3/3/3
f 10/10/10 6/6/6 4/4/4
f 7/7/7 11/11/11 3/3/3
f 8/8/8 6/6/6 12/12/12
f 13/13/13 14/14/14 15/15/15 16/16/16
f 17/17/17 18/18/18 19/19/19 20/20/20
f 21/21/21 22/22/22 23/23/23 24/24/24
f 25/25/25 26/26/26 27/27/27 28/28/28
f 29/29/29 30/30/30 31/31/31 32/32/32
f 33/33/33 34/34/34 35/35/35 36/36/36
