# Rhino

mtllib Sofa_16_07.mtl
usemtl Default
v 0.4027431215770001 0 0.13810457728699999
v 0.40110307622100017 0.087800940999900004 0.14206338832999998
v 0.4027431215770001 0.087800940999900004 0.13810457728699999
v 0.40110307622100017 0 0.14206338832999998
v 0.4027431215770001 0 0.13810457728699999
v 0.40110307622100017 0 0.15056146404799997
v 0.40110307622100017 0 0.14206338832999998
v 0.4027431215770001 0 0.15452144772499998
v 0.40535199681700007 0 0.13470393984000006
v 0.40535199681700007 0 0.15792091253899998
v 0.40875204794699993 0 0.16053002230400004
v 0.40875204794699993 0 0.13209483007400002
v 0.41271156257000019 0 0.16217053671500004
v 0.41271156257000019 0 0.13045548829699993
v 0.4169604831660001 0 0.12989614206800004
v 0.4169604831660001 0 0.16272988294400004
v 0.42120952102600029 0 0.16217053671500004
v 0.42120952102600029 0 0.13045548829699993
v 0.42516891838500026 0 0.16053002230400004
v 0.42516891838500026 0 0.13209483007400002
v 0.42856896951600021 0 0.15792091253899998
v 0.42856896951600021 0 0.13470393984000006
v 0.43117796201900038 0 0.15452144772499998
v 0.43117796201900038 0 0.13810457728699999
v 0.43281800737500031 0 0.15056146404799997
v 0.43281800737500031 0 0.14206338832999998
v 0.43337735360399954 0 0.14631301250600004
v 0.43281800737500031 0 0.14206338832999998
v 0.43337735360399954 0.087800940999900004 0.14631301250600004
v 0.43337735360399954 0 0.14631301250600004
v 0.43281800737500031 0.087800940999900004 0.14206338832999998
v 0.43117796201900038 0 0.13810457728699999
v 0.43281800737500031 0.087800940999900004 0.14206338832999998
v 0.43281800737500031 0 0.14206338832999998
v 0.43117796201900038 0.087800940999900004 0.13810457728699999
v 0.42856896951600021 0 0.13470393984000006
v 0.43117796201900038 0.087800940999900004 0.13810457728699999
v 0.43117796201900038 0 0.13810457728699999
v 0.42856896951600021 0.087800940999900004 0.13470393984000006
v 0.42856896951600021 0 0.13470393984000006
v 0.42516891838500026 0.087800940999900004 0.13209483007400002
v 0.42516891838500026 0 0.13209483007400002
v 0.42516891838500026 0 0.13209483007400002
v 0.42120952102600029 0.087800940999900004 0.13045548829699993
v 0.42120952102600029 0 0.13045548829699993
v 0.42120952102600029 0 0.13045548829699993
v 0.4169604831660001 0.087800940999900004 0.12989614206800004
v 0.42120952102600029 0.087800940999900004 0.13045548829699993
v 0.4169604831660001 0 0.12989614206800004
v 0.4169604831660001 0 0.12989614206800004
v 0.41271156257000019 0.087800940999900004 0.13045548829699993
v 0.41271156257000019 0 0.13045548829699993
v 0.41271156257000019 0 0.13045548829699993
v 0.40875204794699993 0.087800940999900004 0.13209483007400002
v 0.41271156257000019 0.087800940999900004 0.13045548829699993
v 0.40875204794699993 0 0.13209483007400002
v 0.40875204794699993 0 0.13209483007400002
v 0.40535199681700007 0.087800940999900004 0.13470393984000006
v 0.40875204794699993 0.087800940999900004 0.13209483007400002
v 0.40535199681700007 0 0.13470393984000006
v 0.40535199681700007 0 0.13470393984000006
v 0.4027431215770001 0.087800940999900004 0.13810457728699999
v 0.40535199681700007 0.087800940999900004 0.13470393984000006
v 0.4027431215770001 0 0.13810457728699999
v 0.43281800737500031 0.087800940999900004 0.15056146404799997
v 0.43337735360399954 0 0.14631301250600004
v 0.43337735360399954 0.087800940999900004 0.14631301250600004
v 0.43281800737500031 0 0.15056146404799997
v 0.43117796201900038 0.087800940999900004 0.15452144772499998
v 0.43281800737500031 0 0.15056146404799997
v 0.43281800737500031 0.087800940999900004 0.15056146404799997
v 0.43117796201900038 0 0.15452144772499998
v 0.42856896951600021 0.087800940999900004 0.15792091253899998
v 0.43117796201900038 0 0.15452144772499998
v 0.43117796201900038 0.087800940999900004 0.15452144772499998
v 0.42856896951600021 0 0.15792091253899998
v 0.42516891838500026 0 0.16053002230400004
v 0.42856896951600021 0 0.15792091253899998
v 0.42516891838500026 0.087800940999900004 0.16053002230400004
v 0.42120952102600029 0 0.16217053671500004
v 0.42516891838500026 0 0.16053002230400004
v 0.42120952102600029 0.087800940999900004 0.16217053671500004
v 0.42120952102600029 0.087800940999900004 0.16217053671500004
v 0.4169604831660001 0 0.16272988294400004
v 0.42120952102600029 0 0.16217053671500004
v 0.4169604831660001 0.087800940999900004 0.16272988294400004
v 0.4169604831660001 0.087800940999900004 0.16272988294400004
v 0.41271156257000019 0 0.16217053671500004
v 0.4169604831660001 0 0.16272988294400004
v 0.41271156257000019 0.087800940999900004 0.16217053671500004
v 0.41271156257000019 0.087800940999900004 0.16217053671500004
v 0.40875204794699993 0 0.16053002230400004
v 0.41271156257000019 0 0.16217053671500004
v 0.40875204794699993 0.087800940999900004 0.16053002230400004
v 0.40875204794699993 0.087800940999900004 0.16053002230400004
v 0.40535199681700007 0 0.15792091253899998
v 0.40875204794699993 0 0.16053002230400004
v 0.40535199681700007 0.087800940999900004 0.15792091253899998
v 0.40535199681700007 0.087800940999900004 0.15792091253899998
v 0.4027431215770001 0 0.15452144772499998
v 0.40535199681700007 0 0.15792091253899998
v 0.4027431215770001 0.087800940999900004 0.15452144772499998
v 0.4027431215770001 0.087800940999900004 0.15452144772499998
v 0.40110307622100017 0 0.15056146404799997
v 0.4027431215770001 0 0.15452144772499998
v 0.40110307622100017 0.087800940999900004 0.15056146404799997
v 0.40110307622100017 0.087800940999900004 0.15056146404799997
v 0.40054361272899985 0 0.14631301250600004
v 0.40110307622100017 0 0.15056146404799997
v 0.40054361272899985 0.087800940999900004 0.14631301250600004
v 0.40054361272899985 0.087800940999900004 0.14631301250600004
v 0.40110307622100017 0 0.14206338832999998
v 0.40054361272899985 0 0.14631301250600004
v 0.40110307622100017 0.087800940999900004 0.14206338832999998
v 0.40054361272899985 0 0.14631301250600004
v 0.42856896951600021 0.087800940999900004 0.13470393984000006
v 0.42516891838500026 0.087800940999900004 0.13209483007400002
v 0.4169604831660001 0.087800940999900004 0.12989614206800004
v 0.42856896951600021 0.087800940999900004 0.15792091253899998
v 0.42516891838500026 0.087800940999900004 0.16053002230400004
v 0.40054361272899985 0.087800940999900004 0.14631301250600004
v 0.40110307622100017 0.087800940999900004 0.15056146404799997
v 0.40110307622100017 0.087800940999900004 0.14206338832999998
v 0.4027431215770001 0.087800940999900004 0.15452144772499998
v 0.4027431215770001 0.087800940999900004 0.13810457728699999
v 0.40535199681700007 0.087800940999900004 0.15792091253899998
v 0.40535199681700007 0.087800940999900004 0.13470393984000006
v 0.40875204794699993 0.087800940999900004 0.16053002230400004
v 0.40875204794699993 0.087800940999900004 0.13209483007400002
v 0.41271156257000019 0.087800940999900004 0.16217053671500004
v 0.41271156257000019 0.087800940999900004 0.13045548829699993
v 0.4169604831660001 0.087800940999900004 0.16272988294400004
v 0.4169604831660001 0.087800940999900004 0.12989614206800004
v 0.41696048316650014 0.087800940999900004 0.14631301250600004
v 0.42120952102600029 0.087800940999900004 0.16217053671500004
v 0.42120952102600029 0.087800940999900004 0.13045548829699993
v 0.42516891838500026 0.087800940999900004 0.16053002230400004
v 0.42516891838500026 0.087800940999900004 0.13209483007400002
v 0.42856896951600021 0.087800940999900004 0.15792091253899998
v 0.42856896951600021 0.087800940999900004 0.13470393984000006
v 0.43117796201900038 0.087800940999900004 0.15452144772499998
v 0.43117796201900038 0.087800940999900004 0.13810457728699999
v 0.43281800737500031 0.087800940999900004 0.15056146404799997
v 0.43281800737500031 0.087800940999900004 0.14206338832999998
v 0.43337735360399954 0.087800940999900004 0.14631301250600004
vt 0 0
vt 0.0067873899824917316 0.13865700364112854
vt 0 0.13865700364112854
vt 0.0067873899824917316 0
vt -0.080899499356746674 0.51839202642440796
vt -0.083489499986171722 0.53806501626968384
vt -0.083489499986171722 0.52464497089385986
vt -0.080899499356746674 0.54431802034378052
vt -0.076779402792453766 0.5130230188369751
vt -0.076779402792453766 0.54968798160552979
vt -0.071409903466701508 0.55380797386169434
vt -0.071409903466701508 0.50890302658081055
vt -0.065157100558280945 0.55639797449111938
vt -0.065157100558280945 0.5063130259513855
vt -0.05844699963927269 0.50542902946472168
vt -0.05844699963927269 0.5572810173034668
vt -0.051736798137426376 0.55639797449111938
vt -0.051736798137426376 0.5063130259513855
vt -0.045483998954296112 0.55380797386169434
vt -0.045483998954296112 0.50890302658081055
vt -0.040114600211381912 0.54968798160552979
vt -0.040114600211381912 0.5130230188369751
vt -0.035994499921798706 0.54431802034378052
vt -0.035994499921798706 0.51839202642440796
vt -0.033404398709535599 0.53806501626968384
vt -0.033404398709535599 0.52464497089385986
vt -0.032520998269319534 0.53135502338409424
vt 0.1018109992146492 0
vt 0.095023497939109802 0.13865700364112854
vt 0.095023497939109802 0
vt 0.1018109992146492 0.13865700364112854
vt 0.1085980013012886 0
vt 0.1018109992146492 0.13865700364112854
vt 0.1018109992146492 0
vt 0.1085980013012886 0.13865700364112854
vt 0.115386001765728 0
vt 0.1085980013012886 0.13865700364112854
vt 0.1085980013012886 0
vt 0.115386001765728 0.13865700364112854
vt 0.115386001765728 0
vt 0.1221729964017868 0.13865700364112854
vt 0.1221729964017868 0
vt 0.1221729964017868 0
vt 0.12895999848842621 0.13865700364112854
vt 0.12895999848842621 0
vt 0.12895999848842621 0
vt 0.1357479989528656 0.13865700364112854
vt 0.12895999848842621 0.13865700364112854
vt 0.1357479989528656 0
vt 0.1357479989528656 0
vt 0.142535001039505 0.13865700364112854
vt 0.142535001039505 0
vt 0.142535001039505 0
vt 0.1493230015039444 0.13865700364112854
vt 0.142535001039505 0.13865700364112854
vt 0.1493230015039444 0
vt 0.1493230015039444 0
vt 0.1561100035905838 0.13865700364112854
vt 0.1493230015039444 0.13865700364112854
vt 0.1561100035905838 0
vt 0.1561100035905838 0
vt 0.16289700567722321 0.13865700364112854
vt 0.1561100035905838 0.13865700364112854
vt 0.16289700567722321 0
vt 0.088236100971698761 0.13865700364112854
vt 0.095023497939109802 0
vt 0.095023497939109802 0.13865700364112854
vt 0.088236100971698761 0
vt 0.081448696553707123 0.13865700364112854
vt 0.088236100971698761 0
vt 0.088236100971698761 0.13865700364112854
vt 0.081448696553707123 0
vt 0.074661299586296082 0.13865700364112854
vt 0.081448696553707123 0
vt 0.081448696553707123 0.13865700364112854
vt 0.074661299586296082 0
vt 0.06787390261888504 0
vt 0.074661299586296082 0
vt 0.06787390261888504 0.13865700364112854
vt 0.061086498200893402 0
vt 0.06787390261888504 0
vt 0.061086498200893402 0.13865700364112854
vt 0.061086498200893402 0.13865700364112854
vt 0.054299101233482361 0
vt 0.061086498200893402 0
vt 0.054299101233482361 0.13865700364112854
vt 0.054299101233482361 0.13865700364112854
vt 0.047511700540781021 0
vt 0.054299101233482361 0
vt 0.047511700540781021 0.13865700364112854
vt 0.047511700540781021 0.13865700364112854
vt 0.040724299848079681 0
vt 0.047511700540781021 0
vt 0.040724299848079681 0.13865700364112854
vt 0.040724299848079681 0.13865700364112854
vt 0.0339369997382164 0
vt 0.040724299848079681 0
vt 0.0339369997382164 0.13865700364112854
vt 0.0339369997382164 0.13865700364112854
vt 0.02714960090816021 0
vt 0.0339369997382164 0
vt 0.02714960090816021 0.13865700364112854
vt 0.02714960090816021 0.13865700364112854
vt 0.02036220021545887 0
vt 0.02714960090816021 0
vt 0.02036220021545887 0.13865700364112854
vt 0.02036220021545887 0.13865700364112854
vt 0.013574800454080105 0
vt 0.02036220021545887 0
vt 0.013574800454080105 0.13865700364112854
vt 0.013574800454080105 0.13865700364112854
vt 0.0067873899824917316 0
vt 0.013574800454080105 0
vt 0.0067873899824917316 0.13865700364112854
vt -0.084372900426387787 0.53135502338409424
vt 0.115386001765728 0.13865700364112854
vt 0.1221729964017868 0.13865700364112854
vt 0.1357479989528656 0.13865700364112854
vt 0.074661299586296082 0.13865700364112854
vt 0.06787390261888504 0.13865700364112854
vt 1 0.5
vt 0.98296070098876953 0.37060713768005371
vt 0.98296070098876953 0.62942856550216675
vt 0.93301069736480713 0.25
vt 0.93301069736480713 0.75
vt 0.85355359315872192 0.14646428823471069
vt 0.85355359315872192 0.85357141494750977
vt 0.75 0.067000001668930054
vt 0.75 0.93303573131561279
vt 0.62940716743469238 0.017035713419318199
vt 0.62940716743469238 0.98296427726745605
vt 0.5 0
vt 0.5 1
vt 0.5 0.5
vt 0.37058928608894348 0.017035713419318199
vt 0.37058928608894348 0.98296427726745605
vt 0.25 0.067000001668930054
vt 0.25 0.93303573131561279
vt 0.14644642174243927 0.14646428823471069
vt 0.14644642174243927 0.85357141494750977
vt 0.066985711455345154 0.25
vt 0.066985711455345154 0.75
vt 0.017035713419318199 0.37060713768005371
vt 0.017035713419318199 0.62942856550216675
vt 0 0.5
vn -0.92385870218276978 0 -0.38273364305496216
vn -0.92385870218276978 0 -0.38273364305496216
vn -0.92385870218276978 0 -0.38273364305496216
vn -0.92385870218276978 0 -0.38273364305496216
vn 0 -1 0
vn 0 -1 0
vn 0 -1 0
vn 0 -1 0
vn 0 -1 0
vn 0 -1 0
vn 0 -1 0
vn 0 -1 0
vn 0 -1 0
vn 0 -1 0
vn 0 -1 0
vn 0 -1 0
vn 0 -1 0
vn 0 -1 0
vn 0 -1 0
vn 0 -1 0
vn 0 -1 0
vn 0 -1 0
vn 0 -1 0
vn 0 -1 0
vn 0 -1 0
vn 0 -1 0
vn 0 -1 0
vn 0.99144870042800903 0 -0.13049697875976562
vn 0.99144870042800903 0 -0.13049697875976562
vn 0.99144870042800903 0 -0.13049697875976562
vn 0.99144870042800903 0 -0.13049697875976562
vn 0.92385870218276978 0 -0.38273364305496216
vn 0.92385870218276978 0 -0.38273364305496216
vn 0.92385870218276978 0 -0.38273364305496216
vn 0.92385870218276978 0 -0.38273364305496216
vn 0.79339933395385742 0 -0.60870146751403809
vn 0.79339933395385742 0 -0.60870146751403809
vn 0.79339933395385742 0 -0.60870146751403809
vn 0.60878473520278931 0 -0.7933354377746582
vn 0.60878473520278931 0 -0.7933354377746582
vn 0.38254514336585999 0 -0.92393678426742554
vn 0.60878473520278931 0 -0.7933354377746582
vn 0.38254514336585999 0 -0.92393678426742554
vn 0.38254514336585999 0 -0.92393678426742554
vn 0.38254514336585999 0 -0.92393678426742554
vn 0.13051468133926392 0 -0.99144637584686279
vn -0.13051821291446686 0 -0.99144589900970459
vn 0.13051468133926392 0 -0.99144637584686279
vn 0.13051468133926392 0 -0.99144637584686279
vn -0.13051821291446686 0 -0.99144589900970459
vn -0.13051821291446686 0 -0.99144589900970459
vn -0.13051821291446686 0 -0.99144589900970459
vn -0.38253545761108398 0 -0.92394083738327026
vn -0.38253545761108398 0 -0.92394083738327026
vn -0.38253545761108398 0 -0.92394083738327026
vn -0.38253545761108398 0 -0.92394083738327026
vn -0.60878473520278931 0 -0.7933354377746582
vn -0.60878473520278931 0 -0.7933354377746582
vn -0.60878473520278931 0 -0.7933354377746582
vn -0.60878473520278931 0 -0.7933354377746582
vn -0.79341256618499756 0 -0.608684241771698
vn -0.79341256618499756 0 -0.608684241771698
vn -0.79341256618499756 0 -0.608684241771698
vn -0.79341256618499756 0 -0.608684241771698
vn 0.99144405126571655 0 0.13053238391876221
vn 0.99144405126571655 0 0.13053238391876221
vn 0.99144405126571655 0 0.13053238391876221
vn 0.99144405126571655 0 0.13053238391876221
vn 0.92389881610870361 0 0.3826369047164917
vn 0.92389881610870361 0 0.3826369047164917
vn 0.92389881610870361 0 0.3826369047164917
vn 0.92389881610870361 0 0.3826369047164917
vn 0.60878473520278931 0 0.7933354377746582
vn 0.79329794645309448 0 0.60883361101150513
vn 0.79329794645309448 0 0.60883361101150513
vn 0.79329794645309448 0 0.60883361101150513
vn 0.60878473520278931 0 0.7933354377746582
vn 0.60878473520278931 0 0.7933354377746582
vn 0.38277870416641235 0 0.92384004592895508
vn 0.38277870416641235 0 0.92384004592895508
vn 0.38277870416641235 0 0.92384004592895508
vn 0.38277870416641235 0 0.92384004592895508
vn 0.13051468133926392 0 0.99144637584686279
vn 0.13051468133926392 0 0.99144637584686279
vn 0.13051468133926392 0 0.99144637584686279
vn 0.13051468133926392 0 0.99144637584686279
vn -0.13051821291446686 0 0.99144589900970459
vn -0.13051821291446686 0 0.99144589900970459
vn -0.13051821291446686 0 0.99144589900970459
vn -0.13051821291446686 0 0.99144589900970459
vn -0.38276901841163635 0 0.9238440990447998
vn -0.38276901841163635 0 0.9238440990447998
vn -0.38276901841163635 0 0.9238440990447998
vn -0.38276901841163635 0 0.9238440990447998
vn -0.60878473520278931 0 0.7933354377746582
vn -0.60878473520278931 0 0.7933354377746582
vn -0.60878473520278931 0 0.7933354377746582
vn -0.60878473520278931 0 0.7933354377746582
vn -0.79331117868423462 0 0.60881638526916504
vn -0.79331117868423462 0 0.60881638526916504
vn -0.79331117868423462 0 0.60881638526916504
vn -0.79331117868423462 0 0.60881638526916504
vn -0.92389881610870361 0 0.3826369047164917
vn -0.92389881610870361 0 0.3826369047164917
vn -0.92389881610870361 0 0.3826369047164917
vn -0.92389881610870361 0 0.3826369047164917
vn -0.9914405345916748 0 0.1305592805147171
vn -0.9914405345916748 0 0.1305592805147171
vn -0.9914405345916748 0 0.1305592805147171
vn -0.9914405345916748 0 0.1305592805147171
vn -0.99144518375396729 0 -0.13052386045455933
vn -0.99144518375396729 0 -0.13052386045455933
vn -0.99144518375396729 0 -0.13052386045455933
vn -0.99144518375396729 0 -0.13052386045455933
vn 0 -1 0
vn 0.79339933395385742 0 -0.60870146751403809
vn 0.60878473520278931 0 -0.7933354377746582
vn 0.13051468133926392 0 -0.99144637584686279
vn 0.79329794645309448 0 0.60883361101150513
vn 0.60878473520278931 0 0.7933354377746582
vn 0 1 0
vn 0 1 0
vn 0 1 0
vn 0 1 0
vn 0 1 0
vn 0 1 0
vn 0 1 0
vn 0 1 0
vn 0 1 0
vn 0 1 0
vn 0 1 0
vn 0 1 0
vn 0 1 0
vn 0 1 0
vn 0 1 0
vn 0 1 0
vn 0 1 0
vn 0 1 0
vn 0 1 0
vn 0 1 0
vn 0 1 0
vn 0 1 0
vn 0 1 0
vn 0 1 0
vn 0 1 0
f 1/1/1 2/2/2 3/3/3
f 2/2/2 1/1/1 4/4/4
f 5/5/5 6/6/6 7/7/7
f 5/5/5 8/8/8 6/6/6
f 9/9/9 8/8/8 5/5/5
f 9/9/9 10/10/10 8/8/8
f 9/9/9 11/11/11 10/10/10
f 12/12/12 11/11/11 9/9/9
f 12/12/12 13/13/13 11/11/11
f 14/14/14 13/13/13 12/12/12
f 15/15/15 13/13/13 14/14/14
f 15/15/15 16/16/16 13/13/13
f 15/15/15 17/17/17 16/16/16
f 18/18/18 17/17/17 15/15/15
f 18/18/18 19/19/19 17/17/17
f 20/20/20 19/19/19 18/18/18
f 20/20/20 21/21/21 19/19/19
f 22/22/22 21/21/21 20/20/20
f 22/22/22 23/23/23 21/21/21
f 24/24/24 23/23/23 22/22/22
f 24/24/24 25/25/25 23/23/23
f 26/26/26 25/25/25 24/24/24
f 25/25/25 26/26/26 27/27/27
f 28/28/28 29/29/29 30/30/30
f 29/29/29 28/28/28 31/31/31
f 32/32/32 33/33/33 34/34/34
f 33/33/33 32/32/32 35/35/35
f 36/36/36 37/37/37 38/38/38
f 37/37/37 36/36/36 116/116/116
f 40/40/40 117/117/117 39/39/39
f 117/117/117 40/40/40 42/42/42
f 43/43/43 44/44/44 41/41/41
f 44/44/44 43/43/43 45/45/45
f 46/46/46 118/118/118 48/48/48
f 118/118/118 46/46/46 49/49/49
f 50/50/50 51/51/51 47/47/47
f 51/51/51 50/50/50 52/52/52
f 53/53/53 54/54/54 55/55/55
f 54/54/54 53/53/53 56/56/56
f 57/57/57 58/58/58 59/59/59
f 58/58/58 57/57/57 60/60/60
f 61/61/61 62/62/62 63/63/63
f 62/62/62 61/61/61 64/64/64
f 65/65/65 66/66/66 67/67/67
f 66/66/66 65/65/65 68/68/68
f 69/69/69 70/70/70 71/71/71
f 70/70/70 69/69/69 72/72/72
f 119/119/119 74/74/74 75/75/75
f 74/74/74 119/119/119 76/76/76
f 73/73/73 77/77/77 78/78/78
f 77/77/77 73/73/73 120/120/120
f 79/79/79 80/80/80 81/81/81
f 80/80/80 79/79/79 82/82/82
f 83/83/83 84/84/84 85/85/85
f 84/84/84 83/83/83 86/86/86
f 87/87/87 88/88/88 89/89/89
f 88/88/88 87/87/87 90/90/90
f 91/91/91 92/92/92 93/93/93
f 92/92/92 91/91/91 94/94/94
f 95/95/95 96/96/96 97/97/97
f 96/96/96 95/95/95 98/98/98
f 99/99/99 100/100/100 101/101/101
f 100/100/100 99/99/99 102/102/102
f 103/103/103 104/104/104 105/105/105
f 104/104/104 103/103/103 106/106/106
f 107/107/107 108/108/108 109/109/109
f 108/108/108 107/107/107 110/110/110
f 111/111/111 112/112/112 113/113/113
f 112/112/112 111/111/111 114/114/114
f 7/7/7 6/6/6 115/115/115
f 145/145/145 134/134/134 143/143/143
f 143/143/143 134/134/134 141/141/141
f 137/137/137 139/139/139 134/134/134
f 139/139/139 141/141/141 134/134/134
f 135/135/135 137/137/137 134/134/134
f 140/140/140 134/134/134 142/142/142
f 144/144/144 142/142/142 134/134/134
f 136/136/136 134/134/134 138/138/138
f 140/140/140 138/138/138 134/134/134
f 133/133/133 134/134/134 136/136/136
f 134/134/134 145/145/145 144/144/144
f 134/134/134 132/132/132 135/135/135
f 134/134/134 128/128/128 130/130/130
f 134/134/134 126/126/126 128/128/128
f 134/134/134 122/122/122 124/124/124
f 134/134/134 124/124/124 126/126/126
f 121/121/121 122/122/122 134/134/134
f 131/131/131 129/129/129 134/134/134
f 134/134/134 133/133/133 131/131/131
f 134/134/134 125/125/125 123/123/123
f 129/129/129 127/127/127 134/134/134
f 125/125/125 134/134/134 127/127/127
f 121/121/121 134/134/134 123/123/123
f 130/130/130 132/132/132 134/134/134
