# Rhino

mtllib Sofa_13_02.mtl
usemtl Default
v 0.33362054824829102 0.042894091457128525 -0.20970439910888672
v -0.33362054824829102 0.042894091457128525 -0.20970439910888672
v -0.33362054824829102 0.042894091457128525 -0.17601346969604492
v -0.33362054824829102 0.042894091457128525 -0.17333555221557617
v -0.33362054824829102 0.042894091457128525 -0.17196893692016602
v -0.33362054824829102 0.042894091457128525 -0.16992664337158203
v -0.33362054824829102 0.042894091457128525 -0.16734743118286133
v -0.33362054824829102 0.042894091457128525 -0.16440629959106445
v -0.33362054824829102 0.042894091457128525 -0.16130399703979492
v -0.33362054824829102 0.042894091457128525 -0.15825128555297852
v -0.33362054824829102 0.042894091457128525 -0.15545654296875
v -0.33362054824829102 0.042894091457128525 -0.15311050415039062
v -0.33362054824829102 0.042894091457128525 -0.15137386322021484
v -0.33362054824829102 0.042894091457128525 -0.15015459060668945
v -0.33362054824829102 0.042894091457128525 -0.13056182861328125
v 0.33362054824829102 0.16681036353111267 -0.20970439910888672
v -0.33362054824829102 0.16681036353111267 -0.20970439910888672
v -0.33362054824829102 0.058383654803037643 -0.20970439910888672
v -0.33362054824829102 0.042894091457128525 -0.20970439910888672
v 0.33362054824829102 0.042894091457128525 -0.20970439910888672
v 0.33362054824829102 0.18110840022563934 -0.20587348937988281
v -0.33362054824829102 0.17421150207519531 -0.20873022079467773
v -0.33362054824829102 0.18110840022563934 -0.20587348937988281
v 0.33362054824829102 0.17421150207519531 -0.20873022079467773
v 0.33362054824829102 0.18703064322471619 -0.20132875442504883
v -0.33362054824829102 0.18110840022563934 -0.20587348937988281
v -0.33362054824829102 0.18703064322471619 -0.20132875442504883
v 0.33362054824829102 0.18110840022563934 -0.20587348937988281
v 0.33362054824829102 0.18703064322471619 -0.20132875442504883
v -0.33362054824829102 0.19157551229000092 -0.19540643692016602
v 0.33362054824829102 0.19157551229000092 -0.19540643692016602
v -0.33362054824829102 0.18703064322471619 -0.20132875442504883
v 0.33362054824829102 0.19157551229000092 -0.19540643692016602
v -0.33362054824829102 0.19443225860595703 -0.18850946426391602
v 0.33362054824829102 0.19443225860595703 -0.18850946426391602
v -0.33362054824829102 0.19157551229000092 -0.19540643692016602
v 0.33362054824829102 0.19443225860595703 -0.18850946426391602
v -0.33362054824829102 0.19540642201900482 -0.18110847473144531
v 0.33362054824829102 0.19540642201900482 -0.18110847473144531
v -0.33362054824829102 0.19443225860595703 -0.18850946426391602
v -0.33362054824829102 0.19540642201900482 0.047659873962402344
v 0.33362054824829102 0.19540642201900482 -0.18110847473144531
v -0.33362054824829102 0.19540642201900482 -0.18110847473144531
v 0.33362054824829102 0.19540642201900482 0.047659873962402344
v -0.33362054824829102 0.16681036353111267 -0.20970439910888672
v 0.33362054824829102 0.17421150207519531 -0.20873022079467773
v 0.33362054824829102 0.16681036353111267 -0.20970439910888672
v -0.33362054824829102 0.17421150207519531 -0.20873022079467773
v 0.33362054824829102 0.19540642201900482 0.047659873962402344
v 0.33362054824829102 0.19540642201900482 -0.18110847473144531
v 0.33362054824829102 0.19443225860595703 -0.18850946426391602
v 0.33362054824829102 0.19157551229000092 -0.19540643692016602
v 0.33362054824829102 0.18703064322471619 -0.20132875442504883
v 0.33362054824829102 0.18110840022563934 -0.20587348937988281
v 0.33362054824829102 0.17421150207519531 -0.20873022079467773
v 0.33362054824829102 0.042894091457128525 -0.20970439910888672
v 0.33362054824829102 0.16681036353111267 -0.20970439910888672
v -0.33362054824829102 0.19540642201900482 0.047659873962402344
v -0.33362054824829102 0.042894091457128525 -0.13056182861328125
v -0.33362054824829102 0.042894091457128525 -0.15015459060668945
v -0.33362054824829102 0.042894091457128525 -0.15137386322021484
v -0.33362054824829102 0.042894091457128525 -0.15311050415039062
v -0.33362054824829102 0.042894091457128525 -0.15545654296875
v -0.33362054824829102 0.042894091457128525 -0.15825128555297852
v -0.33362054824829102 0.042894091457128525 -0.16130399703979492
v -0.33362054824829102 0.042894091457128525 -0.16440629959106445
v -0.33362054824829102 0.042894091457128525 -0.16734743118286133
v -0.33362054824829102 0.042894091457128525 -0.16992664337158203
v -0.33362054824829102 0.042894091457128525 -0.17196893692016602
v -0.33362054824829102 0.042894091457128525 -0.17333555221557617
v -0.33362054824829102 0.042894091457128525 -0.17601346969604492
v -0.33362054824829102 0.19540642201900482 -0.18110847473144531
v -0.33362054824829102 0.19443225860595703 -0.18850946426391602
v -0.33362054824829102 0.19157551229000092 -0.19540643692016602
v -0.33362054824829102 0.18703064322471619 -0.20132875442504883
v -0.33362054824829102 0.18110840022563934 -0.20587348937988281
v -0.33362054824829102 0.17421150207519531 -0.20873022079467773
v -0.33362054824829102 0.042894091457128525 -0.20970439910888672
v -0.33362054824829102 0.058383654803037643 -0.20970439910888672
v -0.33362054824829102 0.16681036353111267 -0.20970439910888672
v -0.33362054824829013 0.042894091457128511 0.047659873962402344
v -0.3214329309891637 0.042894091457128504 0.047659873962401456
v -0.3214329309891637 0.042894091457128504 0.047659873962401456
v 0.092403625201623818 0.042894091457128504 0.047659873962402344
v 0.33362054824829102 0.042894091457128511 0.047659873962402344
v 0.33362054824829102 0.042894091457128511 0.047659873962402344
v -0.33362054824829013 0.042894091457128511 0.047659873962402344
v -0.33362054824829102 0.087930279550819918 0.047659873962402344
v -0.33362054824829102 0.087930279550819918 0.047659873962402344
v -0.33362054824829102 0.19540642201900482 0.047659873962402344
v -0.33362054824829013 0.042894091457128511 0.047659873962402344
v -0.3214329309891637 0.042894091457128504 0.047659873962401456
v 0 0.11915025673806666 0.047659873962402344
v 0.092403625201623818 0.042894091457128504 0.047659873962402344
v 0.33362054824829102 0.042894091457128511 0.047659873962402344
v 0.33362054824829102 0.19540642201900482 0.047659873962402344
vt 1 1
vt 0 1
vt 0 0.91967064142227173
vt 0 0.91328579187393188
vt 0 0.91002708673477173
vt 0 0.90515750646591187
vt 0 0.89900755882263184
vt 0 0.89199560880661011
vt 0 0.88459867238998413
vt 0 0.8773198127746582
vt 0 0.87065607309341431
vt 0 0.86506259441375732
vt 0 0.86092156171798706
vt 0 0.85801482200622559
vt 0 0.81129932403564453
vt 1 1
vt 0 1
vt 0 0.12500022351741791
vt 0 0
vt 1 0
vt 7.8740200996398926 0.68460601568222046
vt 62.992099761962891 0.0679469034075737
vt 62.992099761962891 0.68460601568222046
vt 7.8740200996398926 0.0679469034075737
vt 7.8740200996398926 -8.4125604629516602
vt 62.992099761962891 -9.0292196273803711
vt 62.992099761962891 -8.4125604629516602
vt 7.8740200996398926 -9.0292196273803711
vt 7.8740200996398926 -17.532100677490234
vt 62.992099761962891 -16.915399551391602
vt 7.8740200996398926 -16.915399551391602
vt 62.992099761962891 -17.532100677490234
vt 7.8740200996398926 -24.861200332641602
vt 62.992099761962891 -24.244499206542969
vt 7.8740200996398926 -24.244499206542969
vt 62.992099761962891 -24.861200332641602
vt 7.8740200996398926 -30.517000198364258
vt 62.992099761962891 -29.900400161743164
vt 7.8740200996398926 -29.900400161743164
vt 62.992099761962891 -30.517000198364258
vt 13.385800361633301 62.992099761962891
vt 32.283500671386719 7.8740200996398926
vt 32.283500671386719 62.992099761962891
vt 13.385800361633301 7.8740200996398926
vt 62.992099761962891 9.139470100402832
vt 7.8740200996398926 9.7561302185058594
vt 7.8740200996398926 9.139470100402832
vt 62.992099761962891 9.7561302185058594
vt 0.3863641619682312 0.53333336114883423
vt 0.93181848526000977 0.53333336114883423
vt 0.94946473836898804 0.52992671728134155
vt 0.96590924263000488 0.51993668079376221
vt 0.9800298810005188 0.5040433406829834
vt 0.99086594581604004 0.48333337903022766
vt 0.9976772665977478 0.45921501517295837
vt 1 0
vt 1 0.43333333730697632
vt 0.53333336114883423 0.3863641619682312
vt 0 0.81129968166351318
vt 0 0.85801488161087036
vt 0 0.86092197895050049
vt 0 0.86506271362304688
vt 0 0.87065637111663818
vt 0 0.87731987237930298
vt 0 0.8845984935760498
vt 0 0.89199537038803101
vt 0 0.89900791645050049
vt 0 0.90515756607055664
vt 0 0.91002702713012695
vt 0 0.91328543424606323
vt 0 0.91967040300369263
vt 0.53333336114883423 0.93181848526000977
vt 0.52992671728134155 0.94946473836898804
vt 0.51993668079376221 0.96590924263000488
vt 0.5040433406829834 0.9800298810005188
vt 0.48333337903022766 0.99086594581604004
vt 0.45921501517295837 0.9976772665977478
vt 0 1
vt 0.054166771471500397 1
vt 0.43333333730697632 1
vt 0 0.38636386394500732
vt 0.018265686929225922 0.38636386394500732
vt 0.018265686929225922 0.38636386394500732
vt 0.63848614692687988 0.38636404275894165
vt 1 0.3863641619682312
vt 0.3863641619682312 0
vt 0 0.3863641619682312
vt 0.15749087929725647 0.38636413216590881
vt 0.29529538750648499 0
vt 1 0
vt 0 0
vt 0 0.018265686929225922
vt 0.5 0.5
vt 0 0.63848608732223511
vt 0 1
vt 1 1
vn 0 -1 0
vn 0 -1 0
vn 0 -1 0
vn 0 -1 0
vn 0 -1 0
vn 0 -1 0
vn 0 -1 0
vn 0 -1 0
vn 0 -1 0
vn 0 -1 0
vn 0 -1 0
vn 0 -1 0
vn 0 -1 0
vn 0 -1 0
vn 0 -1 0
vn 0 0 -1
vn 0 0 -1
vn 0 0 -1
vn 0 0 -1
vn 0 0 -1
vn 0 0.3826768696308136 -0.92388224601745605
vn 0 0.3826768696308136 -0.92388224601745605
vn 0 0.3826768696308136 -0.92388224601745605
vn 0 0.3826768696308136 -0.92388224601745605
vn 0 0.60879838466644287 -0.79332500696182251
vn 0 0.60879838466644287 -0.79332500696182251
vn 0 0.60879838466644287 -0.79332500696182251
vn 0 0.60879838466644287 -0.79332500696182251
vn 0 0.79332000017166138 -0.60880482196807861
vn 0 0.79332000017166138 -0.60880482196807861
vn 0 0.79332000017166138 -0.60880482196807861
vn 0 0.79332000017166138 -0.60880482196807861
vn 0 0.92388302087783813 -0.38267505168914795
vn 0 0.92388302087783813 -0.38267505168914795
vn 0 0.92388302087783813 -0.38267505168914795
vn 0 0.92388302087783813 -0.38267505168914795
vn 0 0.99144822359085083 -0.13050046563148499
vn 0 0.99144822359085083 -0.13050046563148499
vn 0 0.99144822359085083 -0.13050046563148499
vn 0 0.99144822359085083 -0.13050046563148499
vn 0 1 0
vn 0 1 0
vn 0 1 0
vn 0 1 0
vn 0 0.13049985468387604 -0.99144834280014038
vn 0 0.13049985468387604 -0.99144834280014038
vn 0 0.13049985468387604 -0.99144834280014038
vn 0 0.13049985468387604 -0.99144834280014038
vn 1 0 0
vn 1 0 0
vn 1 0 0
vn 1 0 0
vn 1 0 0
vn 1 0 0
vn 1 0 0
vn 1 0 0
vn 1 0 0
vn -1 0 0
vn -1 0 0
vn -1 0 0
vn -1 0 0
vn -1 0 0
vn -1 0 0
vn -1 0 0
vn -1 0 0
vn -1 0 0
vn -1 0 0
vn -1 0 0
vn -1 0 0
vn -1 0 0
vn -1 0 0
vn -1 0 0
vn -1 0 0
vn -1 0 0
vn -1 0 0
vn -1 0 0
vn -1 0 0
vn -1 0 0
vn -1 0 0
vn -1 0 0
vn 0 -1 0
vn 0 -1 0
vn 0 -1 0
vn 0 -1 0
vn 0 -1 0
vn 1 0 0
vn -1 0 0
vn -1 0 0
vn 0 0 1
vn 0 0 1
vn 0 0 1
vn 0 0 1
vn 0 0 1
vn 0 0 1
vn 0 0 1
vn 0 0 1
f 1/1/1 15/15/15 14/14/14
f 13/13/13 12/12/12 1/1/1
f 12/12/12 11/11/11 1/1/1
f 10/10/10 1/1/1 11/11/11
f 10/10/10 9/9/9 1/1/1
f 13/13/13 1/1/1 14/14/14
f 1/1/1 8/8/8 7/7/7
f 1/1/1 6/6/6 5/5/5
f 6/6/6 1/1/1 7/7/7
f 1/1/1 4/4/4 3/3/3
f 3/3/3 2/2/2 1/1/1
f 1/1/1 5/5/5 4/4/4
f 1/1/1 9/9/9 8/8/8
f 20/20/20 19/19/19 18/18/18
f 17/17/17 16/16/16 20/20/20 18/18/18
f 21/21/21 22/22/22 23/23/23
f 22/22/22 21/21/21 24/24/24
f 25/25/25 26/26/26 27/27/27
f 26/26/26 25/25/25 28/28/28
f 29/29/29 30/30/30 31/31/31
f 30/30/30 29/29/29 32/32/32
f 33/33/33 34/34/34 35/35/35
f 34/34/34 33/33/33 36/36/36
f 37/37/37 38/38/38 39/39/39
f 38/38/38 37/37/37 40/40/40
f 45/45/45 46/46/46 47/47/47
f 46/46/46 45/45/45 48/48/48
f 53/53/53 50/50/50 57/57/57
f 55/55/55 53/53/53 57/57/57
f 53/53/53 52/52/52 51/51/51
f 53/53/53 51/51/51 50/50/50
f 53/53/53 55/55/55 54/54/54
f 56/56/56 57/57/57 50/50/50
f 80/80/80 60/60/60 59/59/59
f 80/80/80 61/61/61 60/60/60
f 80/80/80 63/63/63 62/62/62
f 80/80/80 64/64/64 63/63/63
f 80/80/80 66/66/66 65/65/65
f 79/79/79 67/67/67 66/66/66
f 65/65/65 64/64/64 80/80/80
f 62/62/62 61/61/61 80/80/80
f 80/80/80 59/59/59 72/72/72
f 79/79/79 70/70/70 69/69/69
f 79/79/79 71/71/71 70/70/70
f 71/71/71 79/79/79 78/78/78
f 68/68/68 79/79/79 69/69/69
f 67/67/67 79/79/79 68/68/68
f 72/72/72 73/73/73 75/75/75
f 74/74/74 75/75/75 73/73/73
f 76/76/76 77/77/77 75/75/75
f 75/75/75 77/77/77 80/80/80
f 72/72/72 75/75/75 80/80/80
f 66/66/66 80/80/80 79/79/79
f 1/1/1 82/82/82 15/15/15
f 81/81/81 15/15/15 82/82/82
f 84/84/84 83/83/83 1/1/1
f 85/85/85 84/84/84 1/1/1
f 43/43/43 41/41/41 42/42/42
f 44/44/44 42/42/42 41/41/41
f 49/49/49 56/56/56 50/50/50
f 86/86/86 56/56/56 49/49/49
f 88/88/88 59/59/59 87/87/87
f 59/59/59 88/88/88 58/58/58
f 59/59/59 58/58/58 72/72/72
f 93/93/93 92/92/92 94/94/94
f 94/94/94 95/95/95 96/96/96
f 91/91/91 92/92/92 89/89/89
f 93/93/93 90/90/90 89/89/89
f 94/94/94 96/96/96 93/93/93
f 90/90/90 93/93/93 96/96/96
f 92/92/92 93/93/93 89/89/89
