# Rhino

mtllib Sofa_02_10.mtl
usemtl Default
v 0.40610010662200002 0.35946302658200002 0.098301519476999832
v 0.41535942445000007 0.342509404297 0.14668153990499988
v 0.41535942445000007 0.35173142051700002 0.089105970030200154
v 0.40610010662200002 0.35251508512399998 0.14167807917699982
v 0.12954891952700009 0.35946302658200002 0.098301519476999832
v 0.40610010662200002 0.35251508512399998 0.14167807917699982
v 0.40610010662200002 0.35946302658200002 0.098301519476999832
v 0.12954891952700009 0.35251508512399998 0.14167807917699982
v 0.11966854232799995 0.35173142051700002 0.089105970030200154
v 0.12954891952700009 0.35251508512399998 0.14167807917699982
v 0.12954891952700009 0.35946302658200002 0.098301519476999832
v 0.11966854232799995 0.342509404297 0.14668153990499988
v 0.11966854232799995 0.19536489850040001 0.064060131898299844
v 0.11966854232799995 0.342509404297 0.14668153990499988
v 0.11966854232799995 0.35173142051700002 0.089105970030200154
v 0.11966854232799995 0.18614246873714002 0.12163570177300009
v 0.12954891952700009 0.18573264729886002 0.062517201740599937
v 0.11966854232799995 0.18614246873714002 0.12163570177300009
v 0.11966854232799995 0.19536489850040001 0.064060131898299844
v 0.12954891952700009 0.17651021753562002 0.12009277161600007
v 0.35538162273600005 0.18573264729886002 0.062517201740599937
v 0.12954891952700009 0.17651021753562002 0.12009277161600007
v 0.12954891952700009 0.18573264729886002 0.062517201740599937
v 0.35538162273600005 0.17651021753562002 0.12009277161600007
v 0.35538162273600005 0.18573264729886002 0.062517201740599937
v 0.36379474820500013 0.18614246873714002 0.12163570177300009
v 0.35538162273600005 0.17651021753562002 0.12009277161600007
v 0.36379474820500013 0.19699963527690001 0.053851401297199786
v 0.35538162273600005 0.18573264729886002 0.062517201740599937
v 0.12876649554899999 0.19699963527690001 0.053851401297199786
v 0.36379474820500013 0.19699963527690001 0.053851401297199786
v 0.12954891952700009 0.18573264729886002 0.062517201740599937
v 0.11966854232799995 0.19536489850040001 0.064060131898299844
v 0.12876649554899999 0.19699963527690001 0.053851401297199786
v 0.12954891952700009 0.18573264729886002 0.062517201740599937
v 0.11966854232799995 0.35173142051700002 0.089105970030200154
v 0.12876649554899999 0.19699963527690001 0.053851401297199786
v 0.11966854232799995 0.19536489850040001 0.064060131898299844
v 0.12876649554899999 0.33420338655000004 0.075827920846899932
v 0.11966854232799995 0.35173142051700002 0.089105970030200154
v 0.40610010662200002 0.33420338655000004 0.075827920846899932
v 0.12876649554899999 0.33420338655000004 0.075827920846899932
v 0.41535942445000007 0.35173142051700002 0.089105970030200154
v 0.12954891952700009 0.35946302658200002 0.098301519476999832
v 0.41535942445000007 0.35173142051700002 0.089105970030200154
v 0.11966854232799995 0.35173142051700002 0.089105970030200154
v 0.40610010662200002 0.35946302658200002 0.098301519476999832
v 0.11966854232799995 0.35173142051700002 0.089105970030200154
v 0.41535942445000007 0.342509404297 0.14668153990499988
v 0.41535942445000007 0.35173142051700002 0.089105970030200154
v 0.11966854232799995 0.342509404297 0.14668153990499988
v 0.40610010662200002 0.35251508512399998 0.14167807917699982
v 0.11966854232799995 0.342509404297 0.14668153990499988
v 0.41535942445000007 0.342509404297 0.14668153990499988
v 0.12954891952700009 0.35251508512399998 0.14167807917699982
v 0.11966854232799995 0.342509404297 0.14668153990499988
v 0.41535942445000007 0.25770820940689998 0.13309870928899992
v 0.41535942445000007 0.342509404297 0.14668153990499988
v 0.40610010662200002 0.24939805622580002 0.1317675133159999
v 0.39515063721100008 0.24817396797419999 0.13157149377799993
v 0.3849474894460001 0.2445839983416 0.13099666855100001
v 0.37618574695000007 0.23887337852190002 0.13008191070899988
v 0.36946235951900008 0.23143125278680002 0.12888966529399992
v 0.36523636024700012 0.22276462525670002 0.12750140034099999
v 0.36379474820500013 0.21346444934770001 0.12601181727300004
v 0.36379474820500013 0.18614246873714002 0.12163570177300009
v 0.11966854232799995 0.18614246873714002 0.12163570177300009
v 0.12954891952700009 0.17651021753562002 0.12009277161600007
v 0.35538162273600005 0.17651021753562002 0.12009277161600007
v 0.36379474820500013 0.19699963527690001 0.053851401297199786
v 0.36379474820500013 0.21346444934770001 0.12601181727300004
v 0.36379474820500013 0.18614246873714002 0.12163570177300009
v 0.36379474820500013 0.22432161588750002 0.058227930340100098
v 0.36379474820500013 0.19699963527690001 0.053851401297199786
v 0.12876649554899999 0.33420338655000004 0.075827920846899932
v 0.36379474820500013 0.22432161588750002 0.058227930340100098
v 0.12876649554899999 0.19699963527690001 0.053851401297199786
v 0.36523636024700012 0.23362220533990002 0.059717513408399814
v 0.36946235951900008 0.2422884193266 0.061105778361400187
v 0.37618574695000007 0.2497305450617 0.062297610233299938
v 0.3849474894460001 0.25544116488140001 0.063212368075399983
v 0.39515063721100008 0.25903113451390003 0.063787193301700018
v 0.40610010662200002 0.260255636309 0.063983212839299863
v 0.40610010662200002 0.33420338655000004 0.075827920846899932
v 0.41535942445000007 0.35173142051700002 0.089105970030200154
v 0.40610010662200002 0.260255636309 0.063983212839299863
v 0.40610010662200002 0.33420338655000004 0.075827920846899932
v 0.41535942445000007 0.26693063917010001 0.075523139413999907
v 0.41535942445000007 0.342509404297 0.14668153990499988
v 0.41535942445000007 0.26693063917010001 0.075523139413999907
v 0.41535942445000007 0.35173142051700002 0.089105970030200154
v 0.41535942445000007 0.25770820940689998 0.13309870928899992
v 0.40610010662200002 0.24939805622580002 0.1317675133159999
v 0.41535942445000007 0.26693063917010001 0.075523139413999907
v 0.41535942445000007 0.25770820940689998 0.13309870928899992
v 0.40610010662200002 0.260255636309 0.063983212839299863
v 0.39515063721100008 0.24817396797419999 0.13157149377799993
v 0.40610010662200002 0.260255636309 0.063983212839299863
v 0.40610010662200002 0.24939805622580002 0.1317675133159999
v 0.39515063721100008 0.25903113451390003 0.063787193301700018
v 0.3849474894460001 0.2445839983416 0.13099666855100001
v 0.39515063721100008 0.25903113451390003 0.063787193301700018
v 0.39515063721100008 0.24817396797419999 0.13157149377799993
v 0.3849474894460001 0.25544116488140001 0.063212368075399983
v 0.37618574695000007 0.23887337852190002 0.13008191070899988
v 0.3849474894460001 0.25544116488140001 0.063212368075399983
v 0.3849474894460001 0.2445839983416 0.13099666855100001
v 0.37618574695000007 0.2497305450617 0.062297610233299938
v 0.37618574695000007 0.23887337852190002 0.13008191070899988
v 0.36946235951900008 0.2422884193266 0.061105778361400187
v 0.37618574695000007 0.2497305450617 0.062297610233299938
v 0.36946235951900008 0.23143125278680002 0.12888966529399992
v 0.36523636024700012 0.22276462525670002 0.12750140034099999
v 0.36946235951900008 0.2422884193266 0.061105778361400187
v 0.36946235951900008 0.23143125278680002 0.12888966529399992
v 0.36523636024700012 0.23362220533990002 0.059717513408399814
v 0.36523636024700012 0.22276462525670002 0.12750140034099999
v 0.36379474820500013 0.22432161588750002 0.058227930340100098
v 0.36523636024700012 0.23362220533990002 0.059717513408399814
v 0.36379474820500013 0.21346444934770001 0.12601181727300004
vt -1.7322800159454346 12.446499824523926
vt -6.5354299545288086 11.211299896240234
vt -0.98425197601318359 11.211299896240234
vt -5.9144401550292969 12.446499824523926
vt 27.209699630737305 1.7322800159454346
vt 0.88150501251220703 5.9144401550292969
vt 0.88150501251220703 1.7322800159454346
vt 27.209699630737305 5.9144401550292969
vt 0.98425197601318359 -9.8827695846557617
vt 5.9144401550292969 -8.6047201156616211
vt 1.7322800159454346 -8.6047201156616211
vt 6.5354299545288086 -9.8827695846557617
vt 0.98425197601318359 0.92868602275848389
vt 6.5354299545288086 16.004800796508789
vt 0.98425197601318359 16.004800796508789
vt 6.5354299545288086 0.92868602275848389
vt 0.98425197601318359 19.362600326538086
vt 6.5354299545288086 20.68440055847168
vt 0.98425197601318359 20.68440055847168
vt 6.5354299545288086 19.362600326538086
vt -5.7099900245666504 0.98425197601318359
vt -27.209699630737305 6.5354299545288086
vt -27.209699630737305 0.98425197601318359
vt -5.7099900245666504 6.5354299545288086
vt -0.98425197601318359 -3.7291700839996338
vt -6.5354299545288086 -2.5028200149536133
vt -6.5354299545288086 -3.7291700839996338
vt 0 -2.5028200149536133
vt 5.7099900245666504 -0.7158849835395813
vt 27.284200668334961 0.63733702898025513
vt 4.909060001373291 0.63733702898025513
vt 27.209699630737305 -0.7158849835395813
vt 19.335800170898438 13.136599540710449
vt 18.024700164794922 13.136599540710449
vt 18.714399337768555 11.970000267028809
vt 19.335800170898438 16.004800796508789
vt 18.024700164794922 0.92868602275848389
vt 19.335800170898438 0.92868602275848389
vt 18.024700164794922 14.157199859619141
vt 28.150299072265625 14.588299751281738
vt 0.88150501251220703 12.494899749755859
vt 27.284200668334961 12.494899749755859
vt 0 14.588299751281738
vt 27.209699630737305 13.894900321960449
vt 0 12.751199722290039
vt 28.150299072265625 12.751199722290039
vt 0.88150501251220703 13.894900321960449
vt 28.150299072265625 0.98425197601318359
vt 0 6.5354299545288086
vt 0 0.98425197601318359
vt 28.150299072265625 6.5354299545288086
vt -0.88150501251220703 10.256899833679199
vt -28.150299072265625 9.1919097900390625
vt 0 9.1919097900390625
vt -27.209699630737305 10.256899833679199
vt -28.150299072265625 16.004800796508789
vt 0 7.8287301063537598
vt 0 16.004800796508789
vt -0.88150501251220703 7.0275001525878906
vt -1.9239100217819214 6.9094500541687012
vt -2.8952798843383789 6.5633401870727539
vt -3.7294199466705322 6.0127501487731934
vt -4.3694701194763184 5.295219898223877
vt -4.7718300819396973 4.459630012512207
vt -4.909060001373291 3.5629301071166992
vt -4.909060001373291 0.92868602275848389
vt -28.150299072265625 0.92868602275848389
vt -27.209699630737305 0
vt -5.7099900245666504 0
vt 0 0.92868602275848389
vt -6.5354299545288086 3.5629301071166992
vt -6.5354299545288086 0.92868602275848389
vt 0 3.5629301071166992
vt 4.909060001373291 0.92868602275848389
vt 27.284200668334961 14.157199859619141
vt 4.909060001373291 3.5629301071166992
vt 27.284200668334961 0.92868602275848389
vt 4.7718300819396973 4.459630012512207
vt 4.3694701194763184 5.295219898223877
vt 3.7294199466705322 6.0127501487731934
vt 2.8952798843383789 6.5633401870727539
vt 1.9239100217819214 6.9094500541687012
vt 0.88150501251220703 7.0275001525878906
vt 0.88150501251220703 14.157199859619141
vt -0.73318701982498169 16.004800796508789
vt 0.58810102939605713 7.0275001525878906
vt 0.58810102939605713 14.157199859619141
vt -0.73318701982498169 7.8287301063537598
vt -6.5354299545288086 16.004800796508789
vt -0.98425197601318359 7.8287301063537598
vt -0.98425197601318359 16.004800796508789
vt -6.5354299545288086 7.8287301063537598
vt -6.5354299545288086 4.0744500160217285
vt -0.98425197601318359 5.2656698226928711
vt -6.5354299545288086 5.2656698226928711
vt 0 4.0744500160217285
vt -6.5354299545288086 -1.1341700553894043
vt 0 -0.085100002586841583
vt -6.5354299545288086 -0.085100002586841583
vt 0 -1.1341700553894043
vt -6.5354299545288086 -0.52438998222351074
vt 0 0.50680100917816162
vt -6.5354299545288086 0.50680100917816162
vt 0 -0.52438998222351074
vt -6.5354299545288086 0.19979600608348846
vt 0 1.1992599964141846
vt -6.5354299545288086 1.1992599964141846
vt 0 0.19979600608348846
vt -6.5354299545288086 2.0044600963592529
vt 0 1.0429400205612183
vt 0 2.0044600963592529
vt -6.5354299545288086 1.0429400205612183
vt -6.5354299545288086 1.9478299617767334
vt 0 2.8752400875091553
vt -6.5354299545288086 2.8752400875091553
vt 0 1.9478299617767334
vt -6.5354299545288086 3.6863999366760254
vt 0 2.7792599201202393
vt 0 3.6863999366760254
vt -6.5354299545288086 2.7792599201202393
vn 0.70049846172332764 0.70467191934585571 0.11286897957324982
vn 0.70049846172332764 0.70467191934585571 0.11286897957324982
vn 0.70049846172332764 0.70467191934585571 0.11286897957324982
vn 0.70049846172332764 0.70467191934585571 0.11286897957324982
vn 0 0.98741328716278076 0.1581612229347229
vn 0 0.98741328716278076 0.1581612229347229
vn 0 0.98741328716278076 0.1581612229347229
vn 0 0.98741328716278076 0.1581612229347229
vn -0.67700499296188354 0.7267148494720459 0.1164032444357872
vn -0.67700499296188354 0.7267148494720459 0.1164032444357872
vn -0.67700499296188354 0.7267148494720459 0.1164032444357872
vn -0.67700499296188354 0.7267148494720459 0.1164032444357872
vn -1 0 0
vn -1 0 0
vn -1 0 0
vn -1 0 0
vn -0.70257902145385742 -0.70264869928359985 -0.11254996806383133
vn -0.70257902145385742 -0.70264869928359985 -0.11254996806383133
vn -0.70257902145385742 -0.70264869928359985 -0.11254996806383133
vn -0.70257902145385742 -0.70264869928359985 -0.11254996806383133
vn 0 -0.98741292953491211 -0.15816338360309601
vn 0 -0.98741292953491211 -0.15816338360309601
vn 0 -0.98741292953491211 -0.15816338360309601
vn 0 -0.98741292953491211 -0.15816338360309601
vn 0.75727158784866333 -0.64487951993942261 -0.10329651832580566
vn 0.75727158784866333 -0.64487951993942261 -0.10329651832580566
vn 0.75727158784866333 -0.64487951993942261 -0.10329651832580566
vn 0.75727158784866333 -0.64487951993942261 -0.10329651832580566
vn 0 -0.6096615195274353 -0.79266184568405151
vn 0 -0.6096615195274353 -0.79266184568405151
vn 0 -0.6096615195274353 -0.79266184568405151
vn 0 -0.6096615195274353 -0.79266184568405151
vn -0.59759944677352905 -0.51448667049407959 -0.61496210098266602
vn -0.59759944677352905 -0.51448667049407959 -0.61496210098266602
vn -0.59759944677352905 -0.51448667049407959 -0.61496210098266602
vn -0.75072002410888672 0.10448237508535385 -0.65230584144592285
vn -0.75072002410888672 0.10448237508535385 -0.65230584144592285
vn -0.75072002410888672 0.10448237508535385 -0.65230584144592285
vn -0.75072002410888672 0.10448237508535385 -0.65230584144592285
vn 0 0.6038355827331543 -0.79710888862609863
vn 0 0.6038355827331543 -0.79710888862609863
vn 0 0.6038355827331543 -0.79710888862609863
vn 0 0.6038355827331543 -0.79710888862609863
vn 0 0.76540368795394897 -0.64355045557022095
vn 0 0.76540368795394897 -0.64355045557022095
vn 0 0.76540368795394897 -0.64355045557022095
vn 0 0.76540368795394897 -0.64355045557022095
vn 0 0.98741406202316284 0.15815646946430206
vn 0 0.98741406202316284 0.15815646946430206
vn 0 0.98741406202316284 0.15815646946430206
vn 0 0.98741406202316284 0.15815646946430206
vn 0 0.44725796580314636 0.89440500736236572
vn 0 0.44725796580314636 0.89440500736236572
vn 0 0.44725796580314636 0.89440500736236572
vn 0 0.44725796580314636 0.89440500736236572
vn 0 -0.15815670788288116 0.98741400241851807
vn 0 -0.15815670788288116 0.98741400241851807
vn 0 -0.15815670788288116 0.98741400241851807
vn 0 -0.15815670788288116 0.98741400241851807
vn 0 -0.15815670788288116 0.98741400241851807
vn 0 -0.15815670788288116 0.98741400241851807
vn 0 -0.15815670788288116 0.98741400241851807
vn 0 -0.15815670788288116 0.98741400241851807
vn 0 -0.15815670788288116 0.98741400241851807
vn 0 -0.15815670788288116 0.98741400241851807
vn 0 -0.15815670788288116 0.98741400241851807
vn 0 -0.15815670788288116 0.98741400241851807
vn 0 -0.15815670788288116 0.98741400241851807
vn 0 -0.15815670788288116 0.98741400241851807
vn 1 0 0
vn 1 0 0
vn 1 0 0
vn 1 0 0
vn 5.2529062486428302E-06 0.15816710889339447 -0.98741233348846436
vn 5.2529062486428302E-06 0.15816710889339447 -0.98741233348846436
vn 5.2529062486428302E-06 0.15816710889339447 -0.98741233348846436
vn 5.2529062486428302E-06 0.15816710889339447 -0.98741233348846436
vn 5.2529062486428302E-06 0.15816710889339447 -0.98741233348846436
vn 5.2529062486428302E-06 0.15816710889339447 -0.98741233348846436
vn 5.2529062486428302E-06 0.15816710889339447 -0.98741233348846436
vn 5.2529062486428302E-06 0.15816710889339447 -0.98741233348846436
vn 5.2529062486428302E-06 0.15816710889339447 -0.98741233348846436
vn 5.2529062486428302E-06 0.15816710889339447 -0.98741233348846436
vn 5.2529062486428302E-06 0.15816710889339447 -0.98741233348846436
vn 0.74492180347442627 0.10551714897155762 -0.65875458717346191
vn 0.74492180347442627 0.10551714897155762 -0.65875458717346191
vn 0.74492180347442627 0.10551714897155762 -0.65875458717346191
vn 0.74492180347442627 0.10551714897155762 -0.65875458717346191
vn 1 0 0
vn 1 0 0
vn 1 0 0
vn 1 0 0
vn 0.67260879278182983 -0.73068386316299438 -0.11704061925411224
vn 0.67260879278182983 -0.73068386316299438 -0.11704061925411224
vn 0.67260879278182983 -0.73068386316299438 -0.11704061925411224
vn 0.67260879278182983 -0.73068386316299438 -0.11704061925411224
vn 0.11249987035989761 -0.98114478588104248 -0.15715819597244263
vn 0.11249987035989761 -0.98114478588104248 -0.15715819597244263
vn 0.11249987035989761 -0.98114478588104248 -0.15715819597244263
vn 0.11249987035989761 -0.98114478588104248 -0.15715819597244263
vn 0.33565813302993774 -0.93012815713882446 -0.1489807516336441
vn 0.33565813302993774 -0.93012815713882446 -0.1489807516336441
vn 0.33565813302993774 -0.93012815713882446 -0.1489807516336441
vn 0.33565813302993774 -0.93012815713882446 -0.1489807516336441
vn 0.55088675022125244 -0.82407605648040771 -0.13199414312839508
vn 0.55088675022125244 -0.82407605648040771 -0.13199414312839508
vn 0.55088675022125244 -0.82407605648040771 -0.13199414312839508
vn 0.55088675022125244 -0.82407605648040771 -0.13199414312839508
vn 0.74623453617095947 -0.65730488300323486 -0.1052820235490799
vn 0.74623453617095947 -0.65730488300323486 -0.1052820235490799
vn 0.74623453617095947 -0.65730488300323486 -0.1052820235490799
vn 0.74623453617095947 -0.65730488300323486 -0.1052820235490799
vn 0.90100240707397461 -0.42835408449172974 -0.068610876798629761
vn 0.90100240707397461 -0.42835408449172974 -0.068610876798629761
vn 0.90100240707397461 -0.42835408449172974 -0.068610876798629761
vn 0.90100240707397461 -0.42835408449172974 -0.068610876798629761
vn 0.98848944902420044 -0.14938567578792572 -0.023928502574563026
vn 0.98848944902420044 -0.14938567578792572 -0.023928502574563026
vn 0.98848944902420044 -0.14938567578792572 -0.023928502574563026
vn 0.98848944902420044 -0.14938567578792572 -0.023928502574563026
f 1/1/1 2/2/2 3/3/3
f 2/2/2 1/1/1 4/4/4
f 5/5/5 6/6/6 7/7/7
f 6/6/6 5/5/5 8/8/8
f 9/9/9 10/10/10 11/11/11
f 10/10/10 9/9/9 12/12/12
f 13/13/13 14/14/14 15/15/15
f 14/14/14 13/13/13 16/16/16
f 17/17/17 18/18/18 19/19/19
f 18/18/18 17/17/17 20/20/20
f 21/21/21 22/22/22 23/23/23
f 22/22/22 21/21/21 24/24/24
f 25/25/25 26/26/26 27/27/27
f 26/26/26 25/25/25 28/28/28
f 29/29/29 30/30/30 31/31/31
f 30/30/30 29/29/29 32/32/32
f 33/33/33 34/34/34 35/35/35
f 36/36/36 37/37/37 38/38/38
f 37/37/37 36/36/36 39/39/39
f 40/40/40 41/41/41 42/42/42
f 41/41/41 40/40/40 43/43/43
f 44/44/44 45/45/45 46/46/46
f 45/45/45 44/44/44 47/47/47
f 48/48/48 49/49/49 50/50/50
f 49/49/49 48/48/48 51/51/51
f 52/52/52 53/53/53 54/54/54
f 53/53/53 52/52/52 55/55/55
f 56/56/56 57/57/57 58/58/58
f 56/56/56 59/59/59 57/57/57
f 56/56/56 60/60/60 59/59/59
f 56/56/56 61/61/61 60/60/60
f 56/56/56 62/62/62 61/61/61
f 56/56/56 63/63/63 62/62/62
f 56/56/56 64/64/64 63/63/63
f 56/56/56 65/65/65 64/64/64
f 56/56/56 66/66/66 65/65/65
f 67/67/67 66/66/66 56/56/56
f 68/68/68 66/66/66 67/67/67
f 66/66/66 68/68/68 69/69/69
f 70/70/70 71/71/71 72/72/72
f 71/71/71 70/70/70 73/73/73
f 74/74/74 75/75/75 76/76/76
f 75/75/75 74/74/74 77/77/77
f 76/76/76 75/75/75 78/78/78
f 78/78/78 75/75/75 79/79/79
f 79/79/79 75/75/75 80/80/80
f 80/80/80 75/75/75 81/81/81
f 81/81/81 75/75/75 82/82/82
f 82/82/82 75/75/75 83/83/83
f 83/83/83 75/75/75 84/84/84
f 85/85/85 86/86/86 87/87/87
f 86/86/86 85/85/85 88/88/88
f 89/89/89 90/90/90 91/91/91
f 90/90/90 89/89/89 92/92/92
f 93/93/93 94/94/94 95/95/95
f 94/94/94 93/93/93 96/96/96
f 97/97/97 98/98/98 99/99/99
f 98/98/98 97/97/97 100/100/100
f 101/101/101 102/102/102 103/103/103
f 102/102/102 101/101/101 104/104/104
f 105/105/105 106/106/106 107/107/107
f 106/106/106 105/105/105 108/108/108
f 109/109/109 110/110/110 111/111/111
f 110/110/110 109/109/109 112/112/112
f 113/113/113 114/114/114 115/115/115
f 114/114/114 113/113/113 116/116/116
f 117/117/117 118/118/118 119/119/119
f 118/118/118 117/117/117 120/120/120
