# Rhino

mtllib Sofa_10_12.mtl
usemtl Default
v -0.26305417563099986 0.22613891204289999 0.11473657848799945
v 0.26347405764899978 0.22613891204289999 0.14266509452400022
v 0.26347405764899978 0.22613891204289999 0.11473657848799945
v -0.26305417563099986 0.22613891204289999 0.14266509452400022
v -0.26305417563099986 0.22613891204289999 0.11473657848799945
v -0.26305417563099986 0.218064453603 0.14266509452400022
v -0.26305417563099986 0.22613891204289999 0.14266509452400022
v -0.26305417563099986 0.218064453603 0.11473657848799945
v 0.26347405764899978 0.218064453603 0.11473657848799945
v -0.26305417563099986 0.218064453603 0.11473657848799945
v 0.26347405764899978 0.22613891204289999 0.14266509452400022
v 0.26347405764899978 0.218064453603 0.14266509452400022
v 0.26347405764899978 0.22613891204289999 0.14266509452400022
v -0.26305417563099986 0.218064453603 0.14266509452400022
v 0.26347405764899978 0.218064453603 0.14266509452400022
v -0.26305417563099986 0.22613891204289999 0.14266509452400022
v -0.26305417563099986 0.218064453603 0.14266509452400022
v 0.26347405764899978 0.218064453603 0.11473657848799945
v 0.26347405764899978 0.218064453603 0.14266509452400022
v -0.26305417563099986 0.218064453603 0.11473657848799945
v -0.26305417563099986 0.22613891204289999 0.11473657848799945
v 0.26347405764899978 0.22613891204289999 0.11473657848799945
v 0.26347405764899978 0.218064453603 0.11473657848799945
v 0.26347405764899978 0.22613891204289999 0.11473657848799945
vt 27.724399566650391 0
vt 0 20.476400375366211
vt 0 0
vt 27.724399566650391 20.476400375366211
vt 0 0
vt 20.476400375366211 -3.2558999061584473
vt 20.476400375366211 0
vt 0 -3.2558999061584473
vt 0 -3.2558999061584473
vt 27.724399566650391 -3.2558999061584473
vt -20.476400375366211 0
vt -20.476400375366211 -3.2558999061584473
vt 0 0
vt -27.724399566650391 -3.2558999061584473
vt 0 -3.2558999061584473
vt -27.724399566650391 0
vt -27.724399566650391 20.476400375366211
vt 0 0
vt 0 20.476400375366211
vt -27.724399566650391 0
vt 27.724399566650391 0
vt 0 0
vt 0 -3.2558999061584473
vt 0 0
vn 0 0 -1
vn 0 1 0
vn 1 0 0
vn 0 1 0
vn -1 0 0
vn -1 0 0
vn -1 0 0
vn -1 0 0
vn 1 0 0
vn 0 0 -1
vn 1 0 0
vn 1 0 0
vn 0 0 1
vn 0 0 1
vn 0 0 1
vn 0 0 1
vn 0 -1 0
vn 0 -1 0
vn 0 -1 0
vn 0 -1 0
vn 0 1 0
vn 0 1 0
vn 0 0 -1
vn 0 0 -1
f 21/21/21 2/2/2 22/22/22
f 2/2/2 21/21/21 4/4/4
f 5/5/5 6/6/6 7/7/7
f 6/6/6 5/5/5 8/8/8
f 1/1/1 23/23/23 10/10/10
f 23/23/23 1/1/1 24/24/24
f 11/11/11 9/9/9 3/3/3
f 9/9/9 11/11/11 12/12/12
f 13/13/13 14/14/14 15/15/15
f 14/14/14 13/13/13 16/16/16
f 17/17/17 18/18/18 19/19/19
f 18/18/18 17/17/17 20/20/20
