# Rhino

mtllib Sofa_10_02.mtl
usemtl Default
v -0.26305417563099986 0.0018907414500000108 -0.27959625476499994
v -0.27101030368400014 0.0090280995690000254 -0.27630081710900001
v -0.26305417563099986 0.0090280995690000254 -0.27959625476499994
v -0.27101030368400014 0.0018907414500000108 -0.27630081710900001
v -0.26305417563099986 0.0018907414500000108 -0.27959625476499994
v -0.27101030368400014 0.0018907414500000108 -0.26038983337200072
v -0.27101030368400014 0.0018907414500000108 -0.27630081710900001
v -0.26305417563099986 0.0018907414500000108 -0.25709439571700088
v -0.26305417563099986 0.0090280995690000254 -0.25709439571700088
v -0.27101030368400014 0.0018907414500000108 -0.26038983337200072
v -0.26305417563099986 0.0018907414500000108 -0.25709439571700088
v -0.27101030368400014 0.0090280995690000254 -0.26038983337200072
v -0.27430510515499984 0.0090280995690000254 -0.26834532524100041
v -0.27101030368400014 0.0018907414500000108 -0.26038983337200072
v -0.27101030368400014 0.0090280995690000254 -0.26038983337200072
v -0.27430510515499984 0.0018907414500000108 -0.26834532524100041
v -0.27101030368400014 0.0090280995690000254 -0.27630081710900001
v -0.27430510515499984 0.0018907414500000108 -0.26834532524100041
v -0.27430510515499984 0.0090280995690000254 -0.26834532524100041
v -0.27101030368400014 0.0018907414500000108 -0.27630081710900001
v -0.27430510515499984 0.0018907414500000108 -0.26834532524100041
v -0.25509868376200018 0.0090280995690000254 -0.26038983337200072
v -0.26305417563099986 0.0090280995690000254 -0.25709439571700088
v -0.25509868376200018 0.0018907414500000108 -0.26038983337200072
v -0.26305417563099986 0.0018907414500000108 -0.25709439571700088
v -0.26305417563099986 0.0018907414500000108 -0.25709439571700088
v -0.26305417563099986 0.0018907414500000108 -0.27959625476499994
v -0.25509868376200018 0.0018907414500000108 -0.26038983337200072
v -0.25509868376200018 0.0018907414500000108 -0.27630081710900001
v -0.25180388229200013 0.0018907414500000108 -0.26834532524100041
v -0.25180388229200013 0.0018907414500000108 -0.26834532524100041
v -0.25180388229200013 0.0090280995690000254 -0.26834532524100041
v -0.25509868376200018 0.0018907414500000108 -0.26038983337200072
v -0.25180388229200013 0.0090280995690000254 -0.26834532524100041
v -0.25180388229200013 0.0018907414500000108 -0.26834532524100041
v -0.25509868376200018 0.0090280995690000254 -0.27630081710900001
v -0.25509868376200018 0.0018907414500000108 -0.27630081710900001
v -0.25509868376200018 0.0018907414500000108 -0.27630081710900001
v -0.26305417563099986 0.0018907414500000108 -0.27959625476499994
v -0.25509868376200018 0.0090280995690000254 -0.27630081710900001
v -0.26305417563099986 0.0090280995690000254 -0.27959625476499994
v -0.25509868376200018 0.0090280995690000254 -0.26038983337200072
v -0.27430510515499984 0.0090280995690000254 -0.26834532524100041
v -0.27101030368400014 0.0090280995690000254 -0.26038983337200072
v -0.27101030368400014 0.0090280995690000254 -0.27630081710900001
v -0.26305449372349976 0.0090280995690000254 -0.26834532524100041
v -0.26305417563099986 0.0090280995690000254 -0.25709439571700088
v -0.26305417563099986 0.0090280995690000254 -0.27959625476499994
v -0.25509868376200018 0.0090280995690000254 -0.26038983337200072
v -0.25509868376200018 0.0090280995690000254 -0.27630081710900001
v -0.25180388229200013 0.0090280995690000254 -0.26834532524100041
vt 0 0.76260000467300415
vt 3.4725000858306885 3.6405000686645508
vt 0 3.6405000686645508
vt 3.4725000858306885 0.76260000467300415
vt 0 0
vt -3.2081999778747559 7.7452001571655273
vt -3.2081999778747559 1.3288999795913696
vt 0 9.0740995407104492
vt 3.4725000858306885 3.6405000686645508
vt 0 0.76260000467300415
vt 3.4725000858306885 0.76260000467300415
vt 0 3.6405000686645508
vt 2.4553999900817871 3.6405000686645508
vt 5.9278998374938965 0.76260000467300415
vt 5.9278998374938965 3.6405000686645508
vt 2.4553999900817871 0.76260000467300415
vt 2.4553999900817871 3.6405000686645508
vt 5.9278998374938965 0.76260000467300415
vt 5.9278998374938965 3.6405000686645508
vt 2.4553999900817871 0.76260000467300415
vt -4.5370001792907715 4.5370001792907715
vt 0 3.6405000686645508
vt 3.4725000858306885 3.6405000686645508
vt 0 0.76260000467300415
vt 3.4725000858306885 0.76260000467300415
vt 0 9.0740995407104492
vt 0 0
vt -3.2081999778747559 7.7452001571655273
vt -3.2081999778747559 1.3288999795913696
vt -4.5370001792907715 4.5370001792907715
vt 2.4553999900817871 0.76260000467300415
vt 2.4553999900817871 3.6405000686645508
vt 5.9278998374938965 0.76260000467300415
vt 5.9278998374938965 3.6405000686645508
vt 5.9278998374938965 0.76260000467300415
vt 2.4553999900817871 3.6405000686645508
vt 2.4553999900817871 0.76260000467300415
vt 3.4725000858306885 0.76260000467300415
vt 0 0.76260000467300415
vt 3.4725000858306885 3.6405000686645508
vt 0 3.6405000686645508
vt 5.9278998374938965 3.6405000686645508
vt 0.5 1
vt 0.85354822874069214 0.8535723090171814
vt 0.14645180106163025 0.8535723090171814
vt 0.5 0.5
vt 1 0.49998587369918823
vt 0 0.49998587369918823
vt 0.85354822874069214 0.14642766118049622
vt 0.14645180106163025 0.14642766118049622
vt 0.5 0
vn -0.38267368078231812 0 -0.92388355731964111
vn -0.38267368078231812 0 -0.92388355731964111
vn -0.38267368078231812 0 -0.92388355731964111
vn -0.38267368078231812 0 -0.92388355731964111
vn 0 -1 0
vn 0 -1 0
vn 0 -1 0
vn 0 -1 0
vn -0.38267368078231812 0 0.92388355731964111
vn -0.38267368078231812 0 0.92388355731964111
vn -0.38267368078231812 0 0.92388355731964111
vn -0.38267368078231812 0 0.92388355731964111
vn -0.92389887571334839 0 0.38263672590255737
vn -0.92389887571334839 0 0.38263672590255737
vn -0.92389887571334839 0 0.38263672590255737
vn -0.92389887571334839 0 0.38263672590255737
vn -0.92389887571334839 0 -0.38263672590255737
vn -0.92389887571334839 0 -0.38263672590255737
vn -0.92389887571334839 0 -0.38263672590255737
vn -0.92389887571334839 0 -0.38263672590255737
vn 0 -1 0
vn 0.38269978761672974 0 0.92387276887893677
vn 0.38269978761672974 0 0.92387276887893677
vn 0.38269978761672974 0 0.92387276887893677
vn 0.38269978761672974 0 0.92387276887893677
vn 0 -1 0
vn 0 -1 0
vn 0 -1 0
vn 0 -1 0
vn 0 -1 0
vn 0.92389887571334839 0 0.38263672590255737
vn 0.92389887571334839 0 0.38263672590255737
vn 0.92389887571334839 0 0.38263672590255737
vn 0.92389887571334839 0 -0.38263672590255737
vn 0.92389887571334839 0 -0.38263672590255737
vn 0.92389887571334839 0 -0.38263672590255737
vn 0.92389887571334839 0 -0.38263672590255737
vn 0.38269978761672974 0 -0.92387276887893677
vn 0.38269978761672974 0 -0.92387276887893677
vn 0.38269978761672974 0 -0.92387276887893677
vn 0.38269978761672974 0 -0.92387276887893677
vn 0.92389887571334839 0 0.38263672590255737
vn 0 1 0
vn 0 1 0
vn 0 1 0
vn 0 1 0
vn 0 1 0
vn 0 1 0
vn 0 1 0
vn 0 1 0
vn 0 1 0
f 1/1/1 2/2/2 3/3/3
f 2/2/2 1/1/1 4/4/4
f 5/5/5 6/6/6 7/7/7
f 6/6/6 5/5/5 8/8/8
f 9/9/9 10/10/10 11/11/11
f 10/10/10 9/9/9 12/12/12
f 13/13/13 14/14/14 15/15/15
f 14/14/14 13/13/13 16/16/16
f 17/17/17 18/18/18 19/19/19
f 18/18/18 17/17/17 20/20/20
f 7/7/7 6/6/6 21/21/21
f 22/22/22 23/23/23 24/24/24
f 25/25/25 24/24/24 23/23/23
f 26/26/26 27/27/27 28/28/28
f 29/29/29 28/28/28 27/27/27
f 30/30/30 28/28/28 29/29/29
f 31/31/31 32/32/32 33/33/33
f 34/34/34 35/35/35 36/36/36
f 37/37/37 36/36/36 35/35/35
f 38/38/38 39/39/39 40/40/40
f 41/41/41 40/40/40 39/39/39
f 42/42/42 33/33/33 32/32/32
f 46/46/46 50/50/50 48/48/48
f 48/48/48 45/45/45 46/46/46
f 51/51/51 50/50/50 46/46/46
f 46/46/46 47/47/47 49/49/49
f 43/43/43 44/44/44 46/46/46
f 47/47/47 46/46/46 44/44/44
f 45/45/45 43/43/43 46/46/46
f 51/51/51 46/46/46 49/49/49
