# Rhino

mtllib Sofa_08_07.mtl
usemtl Default
v -0.31984400749206543 0.22655582427978516 0.15041685104370117
v -0.31984400749206543 0.22655582427978516 0.14812374114990234
v -0.31984400749206543 0.22655582427978516 0.14812374114990234
v -0.31984400749206543 0.22655582427978516 0.14139890670776367
v -0.31984400749206543 0.22655582427978516 0.10915756225585938
v -0.31984400749206543 0.11964569985866547 -0.20657110214233398
v -0.32428646087646484 0.11105700582265854 -0.21100854873657227
v -0.32428646087646484 0.11105700582265854 -0.21100854873657227
v -0.32428646087646484 0.0088845649734139442 -0.21100854873657227
v -0.32428646087646484 0.0088845649734139442 -0.21100854873657227
v -0.31984400749206543 0.22655582427978516 0.20656633377075195
v -0.32428646087646484 0.23099809885025024 0.21100854873657227
v -0.31984400749206543 0.22655582427978516 0.21100854873657227
v -0.32428646087646484 0.23099809885025024 -0.21100854873657227
v -0.31984400749206543 0.22655582427978516 -0.20656633377075195
v -0.31984400749206543 0.11964569985866547 -0.20657110214233398
v -0.32428646087646484 0.23099809885025024 -0.21100854873657227
v -0.31984400749206543 0.12409699708223343 -0.20656633377075195
v -0.32428646087646484 0.11105700582265854 -0.21100854873657227
v -0.3265080451965332 0.23099809885025024 -0.21100854873657227
v -0.32428646087646484 0.23099809885025024 -0.21100854873657227
v -0.3265080451965332 0.0088845649734139442 -0.21100854873657227
v -0.3265080451965332 0.0088845649734139442 0.21100854873657227
v -0.3265080451965332 0.0088845649734139442 -0.21100854873657227
v -0.32428646087646484 0.0088845649734139442 0.21100854873657227
v -0.31984400749206543 0.0088845649734139442 0.21100854873657227
v -0.32428646087646484 0.23099809885025024 0.21100854873657227
v -0.3265080451965332 0.23099809885025024 -0.21100854873657227
v -0.3265080451965332 0.23099809885025024 0.21100854873657227
v -0.32428646087646484 0.23099809885025024 -0.21100854873657227
v -0.41535353660583496 0.23099809885025024 -0.21100854873657227
v -0.41535353660583496 0.23099809885025024 0.21100854873657227
v -0.41757416725158691 0.23099809885025024 -0.21100854873657227
v -0.41757416725158691 0.23099809885025024 0.21100854873657227
v -0.42201638221740723 0.22655582427978516 -0.20656633377075195
v -0.41757416725158691 0.23099809885025024 0.21100854873657227
v -0.41757416725158691 0.23099809885025024 -0.21100854873657227
v -0.42201638221740723 0.22655582427978516 0.20656633377075195
v -0.42201638221740723 0.22655582427978516 -0.20656633377075195
v -0.42201638221740723 0.013326813466846943 0.20656633377075195
v -0.42201638221740723 0.22655582427978516 0.20656633377075195
v -0.42201638221740723 0.013326813466846943 -0.20656633377075195
v -0.41757416725158691 0.23099809885025024 -0.21100854873657227
v -0.42201638221740723 0.013326813466846943 -0.20656633377075195
v -0.42201638221740723 0.22655582427978516 -0.20656633377075195
v -0.41757416725158691 0.0088845649734139442 -0.21100854873657227
v -0.41757416725158691 0.0088845649734139442 -0.19237327575683594
v -0.41757416725158691 0.23099809885025024 -0.21100854873657227
v -0.41757416725158691 0.0088845649734139442 -0.21100854873657227
v -0.41757416725158691 0.23099809885025024 0.21100854873657227
v -0.41757416725158691 0.0088845649734139442 0.21100854873657227
v -0.42201638221740723 0.013326813466846943 0.20656633377075195
v -0.41757416725158691 0.0088845649734139442 -0.19237327575683594
v -0.41757416725158691 0.0088845649734139442 0.21100854873657227
v -0.41757416725158691 0.0088845649734139442 -0.21100854873657227
v -0.42201638221740723 0.013326813466846943 -0.20656633377075195
v -0.41535353660583496 0.0088845649734139442 -0.21100854873657227
v -0.41535353660583496 0.0088845649734139442 0.21100854873657227
v -0.41535353660583496 0.0088845649734139442 -0.21100854873657227
v -0.42201638221740723 0.22655582427978516 0.20656633377075195
v -0.41757416725158691 0.0088845649734139442 0.21100854873657227
v -0.41757416725158691 0.23099809885025024 0.21100854873657227
v -0.42201638221740723 0.013326813466846943 0.20656633377075195
v -0.41535353660583496 0.0088845649734139442 -0.21100854873657227
v -0.41535353660583496 0.23099809885025024 -0.21100854873657227
v -0.41757416725158691 0.23099809885025024 -0.21100854873657227
v -0.41757416725158691 0.0088845649734139442 -0.21100854873657227
v -0.31984400749206543 0.12632320821285248 -0.20656633377075195
v -0.31984400749206543 0.17324857413768768 -0.20656633377075195
v -0.31984400749206543 0.22655582427978516 -0.20656633377075195
v -0.41535353660583496 0.0088845649734139442 0.21100854873657227
v -0.41757416725158691 0.0088845649734139442 0.21100854873657227
v -0.41757416725158691 0.0088845649734139442 -0.21100854873657227
v -0.31984400749206543 0.22655691206455231 0.14812421798706055
v -0.31984400749206543 0.22655691206455231 0.15041685104370117
v -0.31984400749206543 0.22655691206455231 0.14812374114990234
v -0.31984400749206543 0.22655691206455231 0.14812421798706055
v -0.31984400749206543 0.22655691206455231 0.14139890670776367
v -0.31984400749206543 0.22655691206455231 0.14812374114990234
v -0.31984400749206543 0.22655680775642395 0.10915803909301758
v -0.31984400749206543 0.22655691206455231 0.10915803909301758
v -0.31984400749206543 0.22655691206455231 0.14139890670776367
v -0.31984400749206543 0.11105700582265854 -0.21100854873657227
v -0.31984400749206543 0.11035718023777008 -0.21100854873657227
v -0.31984400749206543 0.11105700582265854 -0.21100854873657227
v -0.31984400749206543 0.0088845649734139442 -0.21100854873657227
v -0.31984400749206543 0.11035718023777008 -0.21100854873657227
v -0.31984400749206543 0.0088845649734139442 -0.20809793472290039
v -0.31984400749206543 0.0088845649734139442 -0.21100854873657227
v -0.31984400749206543 0.22655582427978516 0.14812374114990234
v -0.31984400749206543 0.22655582427978516 0.15041685104370117
v -0.31984400749206543 0.22655582427978516 0.1641688346862793
v -0.31984400749206543 0.22655582427978516 0.10915756225585938
v -0.31984400749206543 0.22655582427978516 0.14139890670776367
v -0.31984400749206543 0.0088845649734139442 -0.085544586181640625
v -0.31984400749206543 0.0088845649734139442 -0.20809793472290039
v -0.41757416725158691 0.0088845649734139442 0.21100854873657227
v -0.41757416725158691 0.23099809885025024 0.21100854873657227
v -0.41535353660583496 0.0088845649734139442 0.21100854873657227
v -0.32428646087646484 0.23099809885025024 0.21100854873657227
v -0.31984400749206543 0.22655582427978516 0.21100854873657227
v -0.31984400749206543 0.22655582427978516 -0.20656633377075195
v -0.31984400749206543 0.11964569985866547 -0.20657110214233398
v -0.31984400749206543 0.0088845649734139442 -0.21100854873657227
v -0.31984400749206543 0.11105700582265854 -0.21100854873657227
v -0.31984400749206543 0.22655582427978516 0.21100854873657227
v -0.31984400749206543 0.22655582427978516 0.21100854873657227
v -0.31984400749206543 0.0088845649734139442 0.21100854873657227
v -0.31984400749206543 0.0088845649734139442 0.21100854873657227
v -0.31984400749206543 0.22655582427978516 0.15041685104370117
v -0.31984400749206543 0.22655691206455231 0.15041685104370117
v -0.31984400749206543 0.22655691206455231 0.14812421798706055
v -0.31984400749206543 0.22655691206455231 0.14812374114990234
v -0.31984400749206543 0.22655691206455231 0.14139890670776367
v -0.31984400749206543 0.22655680775642395 0.10915803909301758
v -0.31984400749206543 0.22655691206455231 0.10915803909301758
v -0.31984400749206543 0.22655582427978516 0.10915756225585938
v -0.31984400749206543 0.12409699708223343 -0.20656633377075195
v -0.31984400749206543 0.12632320821285248 -0.20656633377075195
v -0.31984400749206543 0.17324857413768768 -0.20656633377075195
v -0.31984400749206543 0.22655582427978516 -0.20656633377075195
v -0.31984400749206543 0.11964569985866547 -0.20657110214233398
v -0.41535353660583496 0.0088845649734139442 0.21100854873657227
v -0.31984400749206543 0.0088845649734139442 0.21100854873657227
v -0.31984400749206543 0.0088845649734139442 -0.21100854873657227
vt 3.2544100284576416 2.0399999618530273
vt 3.2337698936462402 2.0399999618530273
vt 3.2337698936462402 2.0399999618530273
vt 3.1732099056243896 2.0399999618530273
vt 2.8828999996185303 2.0399999618530273
vt 6.679999828338623 0.97548997402191162
vt 6.7199997901916504 0.88844001293182373
vt 6.7199997901916504 1
vt 6.7199997901916504 0.079999998211860657
vt -6.7199997901916504 0
vt -3.7599999904632568 6.1659698486328125
vt -3.7999999523162842 6.2225399017333984
vt -3.7999999523162842 6.1659698486328125
vt 0 6.2225399017333984
vt -0.039999999105930328 6.1659698486328125
vt 4.6956501007080078 1.0773799419403076
vt 4.752190113067627 2.0800399780273438
vt 4.695620059967041 1.1174600124359131
vt 4.752190113067627 1.0000400543212891
vt 6.7399997711181641 2.0799999237060547
vt 6.7199997901916504 2.0799999237060547
vt 6.7399997711181641 0.079999998211860657
vt -6.7399997711181641 3.7999999523162842
vt -6.7399997711181641 0
vt -6.7199997901916504 3.7999999523162842
vt -6.679999828338623 3.7999999523162842
vt 6.7199997901916504 3.7999999523162842
vt 6.7399997711181641 0
vt 6.7399997711181641 3.7999999523162842
vt 6.7199997901916504 0
vt 7.5399999618530273 0
vt 7.5399999618530273 3.7999999523162842
vt 7.559999942779541 0
vt 7.559999942779541 3.7999999523162842
vt 0.039999999105930328 -3.9315099716186523
vt 3.7999999523162842 -3.8749499320983887
vt 0 -3.8749499320983887
vt 3.7599999904632568 -3.9315099716186523
vt 0.039999999105930328 2.0399999618530273
vt 3.7599999904632568 0.11999999731779099
vt 3.7599999904632568 2.0399999618530273
vt 0.039999999105930328 0.11999999731779099
vt 5.3457298278808594 2.0799999237060547
vt 5.4022998809814453 0.11999999731779099
vt 5.4022998809814453 2.0399999618530273
vt 5.3457298278808594 0.079999998211860657
vt 0.16779999434947968 0.079999998211860657
vt 0 2.0799999237060547
vt 0 0.079999998211860657
vt 3.7999999523162842 2.0799999237060547
vt 3.7999999523162842 0.079999998211860657
vt 3.7599999904632568 5.458859920501709
vt 0.16779999434947968 5.4022998809814453
vt 3.7999999523162842 5.4022998809814453
vt 0 5.4022998809814453
vt 0.039999999105930328 5.458859920501709
vt -7.5399999618530273 0
vt -7.5399999618530273 3.7999999523162842
vt -7.5399999618530273 0
vt -2.7152900695800781 2.0399999618530273
vt -2.6587200164794922 0.079999998211860657
vt -2.6587200164794922 2.0799999237060547
vt -2.7152900695800781 0.11999999731779099
vt 7.5399999618530273 0.079999998211860657
vt 7.5399999618530273 2.0799999237060547
vt 7.559999942779541 2.0799999237060547
vt 7.559999942779541 0.079999998211860657
vt 4.695620059967041 1.1375000476837158
vt 4.695620059967041 1.5600399971008301
vt 4.695620059967041 2.0400400161743164
vt -7.5399999618530273 3.7999999523162842
vt -7.559999942779541 3.7999999523162842
vt -7.559999942779541 0
vt 3.2337722778320312 2.0400097370147705
vt 3.2544124126434326 2.0400097370147705
vt 3.2337696552276611 2.0400097370147705
vt 3.2337722778320312 2.0400097370147705
vt 3.1732101440429688 2.0400097370147705
vt 3.2337696552276611 2.0400097370147705
vt 2.8829021453857422 2.0400087833404541
vt 2.8829023838043213 2.0400097370147705
vt 3.1732101440429688 2.0400097370147705
vt 6.6799988746643066 0.88844001293182373
vt 6.6799988746643066 0.99369853734970093
vt 6.6799988746643066 1
vt 6.6799988746643066 0.079999998211860657
vt 6.6799988746643066 0.99369853734970093
vt -6.6799988746643066 0.026207348331809044
vt -6.6799988746643066 0
vt -3.2337632179260254 6.1659698486328125
vt -3.2544083595275879 6.1659698486328125
vt -3.3782382011413574 6.1659698486328125
vt -2.8828978538513184 6.1659698486328125
vt -3.1732096672058105 6.1659698486328125
vt -6.6799988746643066 1.1297225952148438
vt -6.6799988746643066 0.026207348331809044
vt 0.98761522769927979 0.99999535083770752
vt 0.98761522769927979 0
vt 0.98789668083190918 0.99999535083770752
vt 0.99943703413009644 0
vt 0.053479671478271484 0.020004566758871078
vt 0.00056294386740773916 0.020004566758871078
vt 0.00056232040515169501 0.50133335590362549
vt 0 1
vt 0 0.54000115394592285
vt 0.053479671478271484 0.020004566758871078
vt 0.053479671478271484 0.020004566758871078
vt 0.053479671478271484 1
vt 0.053479671478271484 1
vt 0.99998980760574341 0.1451021283864975
vt 1 0.1451021283864975
vt 1 0.15059241652488708
vt 1 0.15059356391429901
vt 1 0.16669787466526031
vt 0.99999904632568359 0.24390678107738495
vt 1 0.24390678107738495
vt 0.99998980760574341 0.24390792846679688
vt 0.041635457426309586 0.99998855590820312
vt 0.062458448112010956 0.99998855590820312
vt 0.50137746334075928 0.99998855590820312
vt 0.99998980760574341 0.99998855590820312
vt 0 1
vt 1 0
vt 0 0
vt 0 1
vn -1 0 0
vn -1 0 0
vn -1 0 0
vn -1 0 0
vn -1 0 0
vn -3.1342235473630353E-08 0.45900776982307434 -0.88843226432800293
vn -3.1342235473630353E-08 0.45900776982307434 -0.88843226432800293
vn 0 0 -1
vn 0 0 -1
vn 0 -1 0
vn 0.70710676908493042 0.70710676908493042 0
vn 0.70710676908493042 0.70710676908493042 0
vn 0.70710676908493042 0.70710676908493042 0
vn 0.70710676908493042 0.70710676908493042 0
vn 0.70710676908493042 0.70710676908493042 0
vn 0.71632546186447144 0.00077116827014833689 -0.69776588678359985
vn 0.71632546186447144 0.00077116827014833689 -0.69776588678359985
vn 0.71632546186447144 0.00077116827014833689 -0.69776588678359985
vn 0.71632546186447144 0.00077116827014833689 -0.69776588678359985
vn 0 0 -1
vn 0 0 -1
vn 0 0 -1
vn 0 -1 0
vn 0 -1 0
vn 0 -1 0
vn 0 -1 0
vn 0 1 0
vn 0 1 0
vn 0 1 0
vn 0 1 0
vn 0 1 0
vn 0 1 0
vn 0 1 0
vn 0 1 0
vn -0.70710676908493042 0.70710676908493042 0
vn -0.70710676908493042 0.70710676908493042 0
vn -0.70710676908493042 0.70710676908493042 0
vn -0.70710676908493042 0.70710676908493042 0
vn -1 0 0
vn -1 0 0
vn -1 0 0
vn -1 0 0
vn -0.70710766315460205 0 -0.70710587501525879
vn -0.70710766315460205 0 -0.70710587501525879
vn -0.70710766315460205 0 -0.70710587501525879
vn -0.70710766315460205 0 -0.70710587501525879
vn -1 0 0
vn -1 0 0
vn -1 0 0
vn -1 0 0
vn -1 0 0
vn 0.70710498094558716 0.70710855722427368 0
vn 0.70710498094558716 0.70710855722427368 0
vn 0.70710498094558716 0.70710855722427368 0
vn 0.70710498094558716 0.70710855722427368 0
vn -0.70710498094558716 -0.70710855722427368 0
vn 0 -1 0
vn 0 -1 0
vn 0 -1 0
vn -0.70710676908493042 0 0.70710676908493042
vn -0.70710676908493042 0 0.70710676908493042
vn -0.70710676908493042 0 0.70710676908493042
vn -0.70710676908493042 0 0.70710676908493042
vn 0 0 -1
vn 0 0 -1
vn 0 0 -1
vn 0 0 -1
vn 0.71632546186447144 0.00077116827014833689 -0.69776588678359985
vn 0.71632546186447144 0.00077116827014833689 -0.69776588678359985
vn 0.71632546186447144 0.00077116827014833689 -0.69776588678359985
vn 0 -1 0
vn 0 -1 0
vn 0 -1 0
vn -1 0 0
vn -1 0 0
vn -1 0 0
vn -1 0 0
vn -1 0 0
vn -1 0 0
vn -1 0 0
vn -1 0 0
vn -1 0 0
vn -3.1342231920916674E-08 0.45900774002075195 -0.88843226432800293
vn 0 0 -1
vn 0 0 -1
vn 0 0 -1
vn 0 0 -1
vn 0 -1 0
vn 0 -1 0
vn 0.70710676908493042 0.70710676908493042 0
vn 0.70710676908493042 0.70710676908493042 0
vn 0.70710676908493042 0.70710676908493042 0
vn 0.70710676908493042 0.70710676908493042 0
vn 0.70710676908493042 0.70710676908493042 0
vn 0 -1 0
vn 0 -1 0
vn 0 0 1
vn 0 0 1
vn 0 0 1
vn 0 0 1
vn 1 1.9033043940908101E-07 -4.8729045687423422E-08
vn 1 0 0
vn 1 2.8218690317771689E-07 4.6438885874522384E-06
vn 1 3.7404336694635276E-07 9.3365060820360668E-06
vn 1 0 1.8673012164072134E-05
vn 1 1.9033043940908101E-07 -4.8729045687423422E-08
vn 0 0 1
vn 0 0 1
vn 1 5.6437380635543377E-07 -4.8729045687423422E-08
vn -1 0 0
vn -1 0 0
vn -1 0 0
vn 1 0 0
vn 1 0 0
vn 1 0 0
vn 1 0 0
vn 1 0 0
vn -1 0 0
vn -1 0 0
vn -1 0 0
vn -1 0 0
vn -1 0 0
vn 0 -1 0
vn 0 -1 0
vn 0 -1 0
f 8/8/8 20/20/20 21/21/21
f 9/9/9 20/20/20 8/8/8
f 20/20/20 9/9/9 22/22/22
f 10/10/10 23/23/23 24/24/24
f 10/10/10 25/25/25 23/23/23
f 27/27/27 28/28/28 29/29/29
f 28/28/28 27/27/27 30/30/30
f 31/31/31 29/29/29 28/28/28
f 29/29/29 31/31/31 32/32/32
f 33/33/33 32/32/32 31/31/31
f 32/32/32 33/33/33 34/34/34
f 35/35/35 36/36/36 37/37/37
f 36/36/36 35/35/35 38/38/38
f 39/39/39 40/40/40 41/41/41
f 40/40/40 39/39/39 42/42/42
f 43/43/43 44/44/44 45/45/45
f 44/44/44 43/43/43 46/46/46
f 47/47/47 48/48/48 49/49/49
f 48/48/48 47/47/47 50/50/50
f 50/50/50 47/47/47 51/51/51
f 52/52/52 54/54/54 53/53/53
f 53/53/53 55/55/55 52/52/52
f 55/55/55 52/52/52 56/56/56
f 57/57/57 72/72/72 73/73/73
f 72/72/72 57/57/57 58/58/58
f 24/24/24 71/71/71 59/59/59
f 24/24/24 23/23/23 71/71/71
f 60/60/60 61/61/61 62/62/62
f 61/61/61 60/60/60 63/63/63
f 64/64/64 20/20/20 22/22/22
f 20/20/20 64/64/64 65/65/65
f 64/64/64 66/66/66 65/65/65
f 66/66/66 64/64/64 67/67/67
f 2/2/2 1/1/1 74/74/74
f 75/75/75 74/74/74 1/1/1
f 77/77/77 76/76/76 3/3/3
f 4/4/4 3/3/3 78/78/78
f 79/79/79 78/78/78 3/3/3
f 80/80/80 5/5/5 81/81/81
f 4/4/4 81/81/81 5/5/5
f 4/4/4 82/82/82 81/81/81
f 83/83/83 7/7/7 6/6/6
f 85/85/85 84/84/84 8/8/8
f 9/9/9 8/8/8 87/87/87
f 9/9/9 87/87/87 86/86/86
f 89/89/89 88/88/88 10/10/10
f 13/13/13 11/11/11 12/12/12
f 14/14/14 12/12/12 11/11/11
f 14/14/14 11/11/11 92/92/92
f 14/14/14 92/92/92 91/91/91
f 14/14/14 94/94/94 93/93/93
f 93/93/93 15/15/15 14/14/14
f 90/90/90 94/94/94 14/14/14
f 91/91/91 90/90/90 14/14/14
f 18/18/18 16/16/16 17/17/17
f 19/19/19 17/17/17 16/16/16
f 25/25/25 10/10/10 26/26/26
f 95/95/95 10/10/10 96/96/96
f 26/26/26 10/10/10 95/95/95
f 68/68/68 18/18/18 17/17/17
f 69/69/69 68/68/68 17/17/17
f 70/70/70 69/69/69 17/17/17
f 97/97/97 99/99/99 98/98/98
f 107/107/107 98/98/98 99/99/99
f 99/99/99 108/108/108 107/107/107
f 100/100/100 98/98/98 107/107/107
f 104/104/104 105/105/105 103/103/103
f 109/109/109 104/104/104 103/103/103
f 103/103/103 106/106/106 109/109/109
f 102/102/102 101/101/101 103/103/103
f 119/119/119 122/122/122 118/118/118
f 122/122/122 119/119/119 120/120/120
f 121/121/121 122/122/122 120/120/120
f 112/112/112 110/110/110 113/113/113
f 110/110/110 114/114/114 113/113/113
f 117/117/117 114/114/114 110/110/110
f 114/114/114 115/115/115 116/116/116
f 115/115/115 114/114/114 117/117/117
f 111/111/111 112/112/112 110/110/110
f 125/125/125 124/124/124 123/123/123
