# Rhino

mtllib Sofa_12_05.mtl
usemtl Default
v -0.43014944652199993 0.033408561501099998 -0.12131688058400281
v -0.43245526831599967 0 -0.1210132338810026
v -0.43245526831599967 0.033408561501099998 -0.1210132338810026
v -0.43014944652199993 0 -0.12131688058400281
v -0.42800079344999986 0.033408561501099998 -0.12220666193900254
v -0.43014944652199993 0 -0.12131688058400281
v -0.43014944652199993 0.033408561501099998 -0.12131688058400281
v -0.42800079344999986 0 -0.12220666193900254
v -0.42615567571900037 0.033408561501099998 -0.12362244253400245
v -0.42800079344999986 0 -0.12220666193900254
v -0.42800079344999986 0.033408561501099998 -0.12220666193900254
v -0.42615567571900037 0 -0.12362244253400245
v -0.42615567571900037 0.033408561501099998 -0.12362244253400245
v -0.42473989512300037 0 -0.1254677087480025
v -0.42615567571900037 0 -0.12362244253400245
v -0.42473989512300037 0.033408561501099998 -0.1254677087480025
v -0.42384989104500015 0 -0.12761625045800251
v -0.42473989512300037 0.033408561501099998 -0.1254677087480025
v -0.42384989104500015 0.033408561501099998 -0.12761625045800251
v -0.42473989512300037 0 -0.1254677087480025
v -0.44017064150999996 0 -0.1254677087480025
v -0.42473989512300037 0 -0.1254677087480025
v -0.42384989104500015 0 -0.12761625045800251
v -0.43875486091399996 0 -0.12362244253400245
v -0.42615567571900037 0 -0.12362244253400245
v -0.43690974318399967 0 -0.12220666193900254
v -0.42800079344999986 0 -0.12220666193900254
v -0.43476109011100039 0 -0.12131688058400281
v -0.43014944652199993 0 -0.12131688058400281
v -0.43245526831599967 0 -0.1210132338810026
v -0.43476109011100039 0 -0.12131688058400281
v -0.43245526831599967 0.033408561501099998 -0.1210132338810026
v -0.43245526831599967 0 -0.1210132338810026
v -0.43476109011100039 0.033408561501099998 -0.12131688058400281
v -0.43690974318399967 0 -0.12220666193900254
v -0.43476109011100039 0.033408561501099998 -0.12131688058400281
v -0.43476109011100039 0 -0.12131688058400281
v -0.43690974318399967 0.033408561501099998 -0.12220666193900254
v -0.43875486091399996 0 -0.12362244253400245
v -0.43690974318399967 0.033408561501099998 -0.12220666193900254
v -0.43690974318399967 0 -0.12220666193900254
v -0.43875486091399996 0.033408561501099998 -0.12362244253400245
v -0.43875486091399996 0 -0.12362244253400245
v -0.44017064150999996 0.033408561501099998 -0.1254677087480025
v -0.43875486091399996 0.033408561501099998 -0.12362244253400245
v -0.44017064150999996 0 -0.1254677087480025
v -0.44017064150999996 0 -0.1254677087480025
v -0.44106064558800018 0.033408561501099998 -0.12761625045800251
v -0.44017064150999996 0.033408561501099998 -0.1254677087480025
v -0.44106064558800018 0 -0.12761625045800251
v -0.44106064558800018 0 -0.12761625045800251
v -0.42354631858299996 0 -0.12992218361400276
v -0.42384989104500015 0.033408561501099998 -0.12761625045800251
v -0.42354631858299996 0 -0.12992218361400276
v -0.42384989104500015 0 -0.12761625045800251
v -0.42354631858299996 0.033408561501099998 -0.12992218361400276
v -0.42384989104500015 0 -0.13222811677100266
v -0.42354631858299996 0.033408561501099998 -0.12992218361400276
v -0.42384989104500015 0.033408561501099998 -0.13222811677100266
v -0.42354631858299996 0 -0.12992218361400276
v -0.44136421805000037 0 -0.12992218361400276
v -0.42384989104500015 0 -0.13222811677100266
v -0.44136421805000037 0.033408561501099998 -0.12992218361400276
v -0.44106064558800018 0 -0.12761625045800251
v -0.44136421805000037 0 -0.12992218361400276
v -0.44106064558800018 0.033408561501099998 -0.12761625045800251
v -0.44136421805000037 0 -0.12992218361400276
v -0.44106064558800018 0.033408561501099998 -0.13222811677100266
v -0.44136421805000037 0.033408561501099998 -0.12992218361400276
v -0.44106064558800018 0 -0.13222811677100266
v -0.44106064558800018 0 -0.13222811677100266
v -0.42473989512299948 0 -0.13437665848100266
v -0.42384989104500015 0.033408561501099998 -0.13222811677100266
v -0.42473989512299948 0 -0.13437665848100266
v -0.42384989104500015 0 -0.13222811677100266
v -0.42473989512299948 0.033408561501099998 -0.13437665848100266
v -0.42615567571899948 0 -0.13622192469400263
v -0.42473989512299948 0.033408561501099998 -0.13437665848100266
v -0.42615567571899948 0.033408561501099998 -0.13622192469400263
v -0.42473989512299948 0 -0.13437665848100266
v -0.44017064150999907 0 -0.13437665848100266
v -0.42615567571899948 0 -0.13622192469400263
v -0.44017064150999907 0.033408561501099998 -0.13437665848100266
v -0.44106064558800018 0 -0.13222811677100266
v -0.44017064150999907 0 -0.13437665848100266
v -0.44106064558800018 0.033408561501099998 -0.13222811677100266
v -0.44017064150999907 0 -0.13437665848100266
v -0.43875486091399907 0.033408561501099998 -0.13622192469400263
v -0.44017064150999907 0.033408561501099998 -0.13437665848100266
v -0.43875486091399907 0 -0.13622192469400263
v -0.43875486091399907 0 -0.13622192469400263
v -0.42800079344999897 0 -0.13763770529000263
v -0.42615567571899948 0 -0.13622192469400263
v -0.42800079344999897 0.033408561501099998 -0.13763770529000263
v -0.42800079344999897 0 -0.13763770529000263
v -0.42615567571899948 0.033408561501099998 -0.13622192469400263
v -0.43014944652199905 0.033408561501099998 -0.13852748664400272
v -0.42800079344999897 0 -0.13763770529000263
v -0.42800079344999897 0.033408561501099998 -0.13763770529000263
v -0.43014944652199905 0 -0.13852748664400272
v -0.43245526831599879 0.033408561501099998 -0.13883113334800257
v -0.43014944652199905 0 -0.13852748664400272
v -0.43014944652199905 0.033408561501099998 -0.13852748664400272
v -0.43245526831599879 0 -0.13883113334800257
v -0.4347610901109995 0.033408561501099998 -0.13852748664400272
v -0.43245526831599879 0 -0.13883113334800257
v -0.43245526831599879 0.033408561501099998 -0.13883113334800257
v -0.4347610901109995 0 -0.13852748664400272
v -0.43690974318399878 0.033408561501099998 -0.13763770529000263
v -0.4347610901109995 0 -0.13852748664400272
v -0.4347610901109995 0.033408561501099998 -0.13852748664400272
v -0.43690974318399878 0 -0.13763770529000263
v -0.43875486091399907 0.033408561501099998 -0.13622192469400263
v -0.43690974318399878 0 -0.13763770529000263
v -0.43690974318399878 0.033408561501099998 -0.13763770529000263
v -0.43875486091399907 0 -0.13622192469400263
v -0.43690974318399878 0 -0.13763770529000263
v -0.43014944652199905 0 -0.13852748664400272
v -0.4347610901109995 0 -0.13852748664400272
v -0.43245526831599879 0 -0.13883113334800257
vt -7.0334200859069824 3.5433099269866943
vt -6.7867498397827148 0
vt -6.7867498397827148 3.5433099269866943
vt -7.0334200859069824 0
vt -14.527700424194336 3.5433099269866943
vt -14.281000137329102 0
vt -14.281000137329102 3.5433099269866943
vt -14.527700424194336 0
vt -21.040300369262695 3.5433099269866943
vt -20.793699264526367 0
vt -20.793699264526367 3.5433099269866943
vt -21.040300369262695 0
vt -25.880800247192383 3.5433099269866943
vt -26.127500534057617 0
vt -25.880800247192383 0
vt -26.127500534057617 3.5433099269866943
vt -29.442499160766602 0
vt -29.195899963378906 3.5433099269866943
vt -29.442499160766602 3.5433099269866943
vt -29.195899963378906 0
vt -30.039400100708008 2.1344599723815918
vt -30.039400100708008 3.771049976348877
vt -30.267299652099609 3.8654398918151855
vt -29.843700408935547 2.2846200466156006
vt -29.843700408935547 3.6208899021148682
vt -29.693500518798828 2.4803099632263184
vt -29.693500518798828 3.4251999855041504
vt -29.599100112915039 2.7081999778747559
vt -29.599100112915039 3.1973099708557129
vt -29.566900253295898 2.9527599811553955
vt 1.1784299612045288 0
vt 0.93176400661468506 3.5433099269866943
vt 0.93176400661468506 0
vt 1.1784299612045288 3.5433099269866943
vt 9.0717096328735352 0
vt 8.8250398635864258 3.5433099269866943
vt 8.8250398635864258 0
vt 9.0717096328735352 3.5433099269866943
vt 16.355199813842773 0
vt 16.108499526977539 3.5433099269866943
vt 16.108499526977539 0
vt 16.355199813842773 3.5433099269866943
vt 22.285800933837891 0
vt 22.532499313354492 3.5433099269866943
vt 22.285800933837891 3.5433099269866943
vt 22.532499313354492 0
vt 26.93589973449707 0
vt 27.182600021362305 3.5433099269866943
vt 26.93589973449707 3.5433099269866943
vt 27.182600021362305 0
vt -30.267299652099609 2.0400700569152832
vt -30.511800765991211 3.8976399898529053
vt -30.512899398803711 3.5433099269866943
vt -30.759500503540039 0
vt -30.512899398803711 0
vt -30.759500503540039 3.5433099269866943
vt -29.988700866699219 0
vt -29.742000579833984 3.5433099269866943
vt -29.988700866699219 3.5433099269866943
vt -29.742000579833984 0
vt -30.511800765991211 2.0078699588775635
vt -30.756399154663086 3.8654398918151855
vt 29.988700866699219 3.5433099269866943
vt 29.742000579833984 0
vt 29.988700866699219 0
vt 29.742000579833984 3.5433099269866943
vt 30.512899398803711 0
vt 30.759500503540039 3.5433099269866943
vt 30.512899398803711 3.5433099269866943
vt 30.759500503540039 0
vt -30.756399154663086 2.0400700569152832
vt -30.98430061340332 3.771049976348877
vt -26.93589973449707 3.5433099269866943
vt -27.182600021362305 0
vt -26.93589973449707 0
vt -27.182600021362305 3.5433099269866943
vt -22.532499313354492 0
vt -22.285800933837891 3.5433099269866943
vt -22.532499313354492 3.5433099269866943
vt -22.285800933837891 0
vt -30.98430061340332 2.1344599723815918
vt -31.179899215698242 3.6208899021148682
vt 29.442499160766602 3.5433099269866943
vt 29.195899963378906 0
vt 29.442499160766602 0
vt 29.195899963378906 3.5433099269866943
vt 25.880800247192383 0
vt 26.127500534057617 3.5433099269866943
vt 25.880800247192383 3.5433099269866943
vt 26.127500534057617 0
vt -31.179899215698242 2.2846200466156006
vt -31.330099105834961 3.4251999855041504
vt -16.108499526977539 0
vt -16.355199813842773 3.5433099269866943
vt -16.355199813842773 0
vt -16.108499526977539 3.5433099269866943
vt -9.0717096328735352 3.5433099269866943
vt -8.8250398635864258 0
vt -8.8250398635864258 3.5433099269866943
vt -9.0717096328735352 0
vt -1.1784299612045288 3.5433099269866943
vt -0.93176400661468506 0
vt -0.93176400661468506 3.5433099269866943
vt -1.1784299612045288 0
vt 6.7867498397827148 3.5433099269866943
vt 7.0334200859069824 0
vt 7.0334200859069824 3.5433099269866943
vt 6.7867498397827148 0
vt 14.281000137329102 3.5433099269866943
vt 14.527700424194336 0
vt 14.527700424194336 3.5433099269866943
vt 14.281000137329102 0
vt 20.793699264526367 3.5433099269866943
vt 21.040300369262695 0
vt 21.040300369262695 3.5433099269866943
vt 20.793699264526367 0
vt -31.330099105834961 2.4803099632263184
vt -31.42449951171875 3.1973099708557129
vt -31.42449951171875 2.7081999778747559
vt -31.456699371337891 2.9527599811553955
vn 0.13055980205535889 0 0.99144041538238525
vn 0.13055980205535889 0 0.99144041538238525
vn 0.13055980205535889 0 0.99144041538238525
vn 0.13055980205535889 0 0.99144041538238525
vn 0.38260272145271301 0 0.92391294240951538
vn 0.38260272145271301 0 0.92391294240951538
vn 0.38260272145271301 0 0.92391294240951538
vn 0.38260272145271301 0 0.92391294240951538
vn 0.60875385999679565 0 0.79335916042327881
vn 0.60875385999679565 0 0.79335916042327881
vn 0.60875385999679565 0 0.79335916042327881
vn 0.60875385999679565 0 0.79335916042327881
vn 0.79338282346725464 0 0.608722984790802
vn 0.79338282346725464 0 0.608722984790802
vn 0.79338282346725464 0 0.608722984790802
vn 0.79338282346725464 0 0.608722984790802
vn 0.92387211322784424 0 0.38270139694213867
vn 0.92387211322784424 0 0.38270139694213867
vn 0.92387211322784424 0 0.38270139694213867
vn 0.92387211322784424 0 0.38270139694213867
vn 0 -1 0
vn 0 -1 0
vn 0 -1 0
vn 0 -1 0
vn 0 -1 0
vn 0 -1 0
vn 0 -1 0
vn 0 -1 0
vn 0 -1 0
vn 0 -1 0
vn -0.13055978715419769 0 0.99144041538238525
vn -0.13055978715419769 0 0.99144041538238525
vn -0.13055978715419769 0 0.99144041538238525
vn -0.13055978715419769 0 0.99144041538238525
vn -0.38260272145271301 0 0.92391294240951538
vn -0.38260272145271301 0 0.92391294240951538
vn -0.38260272145271301 0 0.92391294240951538
vn -0.38260272145271301 0 0.92391294240951538
vn -0.60875385999679565 0 0.79335916042327881
vn -0.60875385999679565 0 0.79335916042327881
vn -0.60875385999679565 0 0.79335916042327881
vn -0.60875385999679565 0 0.79335916042327881
vn -0.79338282346725464 0 0.608722984790802
vn -0.79338282346725464 0 0.608722984790802
vn -0.79338282346725464 0 0.608722984790802
vn -0.79338282346725464 0 0.608722984790802
vn -0.92387211322784424 0 0.38270139694213867
vn -0.92387211322784424 0 0.38270139694213867
vn -0.92387211322784424 0 0.38270139694213867
vn -0.92387211322784424 0 0.38270139694213867
vn 0 -1 0
vn 0 -1 0
vn 0.99144536256790161 0 0.130522221326828
vn 0.99144536256790161 0 0.130522221326828
vn 0.99144536256790161 0 0.130522221326828
vn 0.99144536256790161 0 0.130522221326828
vn 0.99144536256790161 0 -0.130522221326828
vn 0.99144536256790161 0 -0.130522221326828
vn 0.99144536256790161 0 -0.130522221326828
vn 0.99144536256790161 0 -0.130522221326828
vn 0 -1 0
vn 0 -1 0
vn -0.99144536256790161 0 0.130522221326828
vn -0.99144536256790161 0 0.130522221326828
vn -0.99144536256790161 0 0.130522221326828
vn -0.99144536256790161 0 0.130522221326828
vn -0.99144536256790161 0 -0.130522221326828
vn -0.99144536256790161 0 -0.130522221326828
vn -0.99144536256790161 0 -0.130522221326828
vn -0.99144536256790161 0 -0.130522221326828
vn 0 -1 0
vn 0 -1 0
vn 0.92387211322784424 0 -0.38270139694213867
vn 0.92387211322784424 0 -0.38270139694213867
vn 0.92387211322784424 0 -0.38270139694213867
vn 0.92387211322784424 0 -0.38270139694213867
vn 0.79338282346725464 0 -0.608722984790802
vn 0.79338282346725464 0 -0.608722984790802
vn 0.79338282346725464 0 -0.608722984790802
vn 0.79338282346725464 0 -0.608722984790802
vn 0 -1 0
vn 0 -1 0
vn -0.92387211322784424 0 -0.38270139694213867
vn -0.92387211322784424 0 -0.38270139694213867
vn -0.92387211322784424 0 -0.38270139694213867
vn -0.92387211322784424 0 -0.38270139694213867
vn -0.79338282346725464 0 -0.608722984790802
vn -0.79338282346725464 0 -0.608722984790802
vn -0.79338282346725464 0 -0.608722984790802
vn -0.79338282346725464 0 -0.608722984790802
vn 0 -1 0
vn 0 -1 0
vn 0.60875385999679565 0 -0.79335916042327881
vn 0.60875385999679565 0 -0.79335916042327881
vn 0.60875385999679565 0 -0.79335916042327881
vn 0.60875385999679565 0 -0.79335916042327881
vn 0.38260272145271301 0 -0.92391294240951538
vn 0.38260272145271301 0 -0.92391294240951538
vn 0.38260272145271301 0 -0.92391294240951538
vn 0.38260272145271301 0 -0.92391294240951538
vn 0.13055980205535889 0 -0.99144041538238525
vn 0.13055980205535889 0 -0.99144041538238525
vn 0.13055980205535889 0 -0.99144041538238525
vn 0.13055980205535889 0 -0.99144041538238525
vn -0.13055980205535889 0 -0.99144041538238525
vn -0.13055980205535889 0 -0.99144041538238525
vn -0.13055980205535889 0 -0.99144041538238525
vn -0.13055980205535889 0 -0.99144041538238525
vn -0.38260272145271301 0 -0.92391294240951538
vn -0.38260272145271301 0 -0.92391294240951538
vn -0.38260272145271301 0 -0.92391294240951538
vn -0.38260272145271301 0 -0.92391294240951538
vn -0.60875385999679565 0 -0.79335916042327881
vn -0.60875385999679565 0 -0.79335916042327881
vn -0.60875385999679565 0 -0.79335916042327881
vn -0.60875385999679565 0 -0.79335916042327881
vn 0 -1 0
vn 0 -1 0
vn 0 -1 0
vn 0 -1 0
f 1/1/1 3/3/3 2/2/2
f 2/2/2 4/4/4 1/1/1
f 5/5/5 7/7/7 6/6/6
f 6/6/6 8/8/8 5/5/5
f 9/9/9 11/11/11 10/10/10
f 10/10/10 12/12/12 9/9/9
f 13/13/13 15/15/15 14/14/14
f 14/14/14 16/16/16 13/13/13
f 17/17/17 19/19/19 18/18/18
f 18/18/18 20/20/20 17/17/17
f 21/21/21 23/23/23 22/22/22
f 24/24/24 21/21/21 22/22/22
f 24/24/24 22/22/22 25/25/25
f 26/26/26 24/24/24 25/25/25
f 26/26/26 25/25/25 27/27/27
f 28/28/28 26/26/26 27/27/27
f 28/28/28 27/27/27 29/29/29
f 29/29/29 30/30/30 28/28/28
f 31/31/31 33/33/33 32/32/32
f 32/32/32 34/34/34 31/31/31
f 35/35/35 37/37/37 36/36/36
f 36/36/36 38/38/38 35/35/35
f 39/39/39 41/41/41 40/40/40
f 40/40/40 42/42/42 39/39/39
f 43/43/43 45/45/45 44/44/44
f 44/44/44 46/46/46 43/43/43
f 47/47/47 49/49/49 48/48/48
f 48/48/48 50/50/50 47/47/47
f 21/21/21 51/51/51 23/23/23
f 51/51/51 52/52/52 23/23/23
f 53/53/53 55/55/55 54/54/54
f 54/54/54 56/56/56 53/53/53
f 57/57/57 59/59/59 58/58/58
f 58/58/58 60/60/60 57/57/57
f 61/61/61 62/62/62 52/52/52
f 51/51/51 61/61/61 52/52/52
f 63/63/63 65/65/65 64/64/64
f 64/64/64 66/66/66 63/63/63
f 67/67/67 69/69/69 68/68/68
f 68/68/68 70/70/70 67/67/67
f 61/61/61 71/71/71 62/62/62
f 71/71/71 72/72/72 62/62/62
f 73/73/73 75/75/75 74/74/74
f 74/74/74 76/76/76 73/73/73
f 77/77/77 79/79/79 78/78/78
f 78/78/78 80/80/80 77/77/77
f 81/81/81 82/82/82 72/72/72
f 71/71/71 81/81/81 72/72/72
f 83/83/83 85/85/85 84/84/84
f 84/84/84 86/86/86 83/83/83
f 87/87/87 89/89/89 88/88/88
f 88/88/88 90/90/90 87/87/87
f 81/81/81 91/91/91 82/82/82
f 91/91/91 92/92/92 82/82/82
f 93/93/93 95/95/95 94/94/94
f 94/94/94 96/96/96 93/93/93
f 97/97/97 99/99/99 98/98/98
f 98/98/98 100/100/100 97/97/97
f 101/101/101 103/103/103 102/102/102
f 102/102/102 104/104/104 101/101/101
f 105/105/105 107/107/107 106/106/106
f 106/106/106 108/108/108 105/105/105
f 109/109/109 111/111/111 110/110/110
f 110/110/110 112/112/112 109/109/109
f 113/113/113 115/115/115 114/114/114
f 114/114/114 116/116/116 113/113/113
f 91/91/91 117/117/117 92/92/92
f 117/117/117 118/118/118 92/92/92
f 117/117/117 119/119/119 118/118/118
f 119/119/119 120/120/120 118/118/118
