# Rhino

mtllib Sofa_15_13.mtl
usemtl Default
v 0.13447515187299963 0.084047285097699986 -0.039502223996100483
v -0.35299825668334961 0.084047285097699986 -0.039502223996100483
v -0.35188547774295387 0.084047285097699986 0.21263980865478516
v 0.35299825668334961 0.084047285097699986 0.21263980865478516
v 0.13447515187299963 0.084047285097699986 -0.25802516525200048
v 0.35299809312899999 0.084047285097699986 -0.25802516525200048
v -0.35299825668334961 0.016810154851891732 -0.039502223996100483
v -0.35188547774295387 0.016809457020000029 0.21263980865478516
v -0.35188547774295387 0.084047285097699986 0.21263980865478516
v -0.35299825668334961 0.084047285097699986 -0.039502223996100483
v 0.13447515187299963 0.016809457020000002 -0.039502223996100483
v -0.35299825668334961 0.016810154851891732 -0.039502223996100483
v -0.35299825668334961 0.084047285097699986 -0.039502223996100483
v 0.13447515187299963 0.084047285097699986 -0.039502223996100483
v -0.35188547774295387 0.016809457020000029 0.21263980865478516
v 0.35299825668334961 0.016809457020000085 0.21263980865478516
v 0.35299825668334961 0.084047285097699986 0.21263980865478516
v -0.35188547774295387 0.084047285097699986 0.21263980865478516
v 0.13447515187299963 0.016809457020000002 -0.25802516525200048
v 0.13447515187299963 0.016809457020000002 -0.039502223996100483
v 0.13447515187299963 0.084047285097699986 -0.039502223996100483
v 0.13447515187299963 0.084047285097699986 -0.25802516525200048
v 0.35299809312899999 0.016809457020000002 -0.25802516525200048
v 0.13447515187299963 0.016809457020000002 -0.25802516525200048
v 0.13447515187299963 0.084047285097699986 -0.25802516525200048
v 0.35299809312899999 0.084047285097699986 -0.25802516525200048
v 0.35299825668334961 0.016809457020000085 0.21263980865478516
v 0.35299809312899999 0.016809457020000002 -0.25802516525200048
v 0.35299809312899999 0.084047285097699986 -0.25802516525200048
v 0.35299825668334961 0.084047285097699986 0.21263980865478516
v -0.35299825668334961 0.016810154851891732 -0.039502223996100483
v -0.35188547774295387 0.016809457020000029 0.21263980865478516
v 0.13447515187299963 0.016809457020000002 -0.039502223996100483
v 0.13447515187299963 0.016809457020000002 -0.25802516525200048
v 0.35299809312899999 0.016809457020000002 -0.25802516525200048
v 0.35299825668334961 0.016809457020000085 0.21263980865478516
vt 0.46057981252670288 0.44642871618270874
vt 0.11534197628498077 0.44642871618270874
vt 0.11613006144762039 0.17857149243354797
vt 0.78200864791870117 0.089285746216773987
vt 0.74206298589706421 0.92261910438537598
vt 0.89682507514953613 0.92261910438537598
vt 0 0.53571444749832153
vt 0.0015761819668114185 0
vt 0.11613006144762039 0.17857149243354797
vt 0.11534197628498077 0.44642871618270874
vt 0.69047564268112183 0.53571444749832153
vt 0 0.53571444749832153
vt 0.11534197628498077 0.44642871618270874
vt 0.46057981252670288 0.44642871618270874
vt 0.0015761819668114185 0
vt 1 0
vt 0.78200864791870117 0.089285746216773987
vt 0.11613006144762039 0.17857149243354797
vt 0.69047564268112183 1
vt 0.69047564268112183 0.53571444749832153
vt 0.46057981252670288 0.44642871618270874
vt 0.74206298589706421 0.92261910438537598
vt 0.9999997615814209 1
vt 0.69047564268112183 1
vt 0.74206298589706421 0.92261910438537598
vt 0.89682507514953613 0.92261910438537598
vt 1 0
vt 0.9999997615814209 1
vt 0.89682507514953613 0.92261910438537598
vt 0.78200864791870117 0.089285746216773987
vt 0.53571444749832153 1
vt 0 0.99842381477355957
vt 0.53571444749832153 0.30952432751655579
vt 1 0.30952432751655579
vt 1 2.3166452933764958E-07
vt 0 0
vn 0 1 0
vn 0 1 0
vn 0 1 0
vn 0 1 0
vn 0 1 0
vn 0 1 0
vn -0.99999028444290161 0 0.0044132592156529427
vn -0.99999028444290161 0 0.0044132592156529427
vn -0.99999028444290161 0 0.0044132592156529427
vn -0.99999028444290161 0 0.0044132592156529427
vn 0 0 -1
vn 0 0 -1
vn 0 0 -1
vn 0 0 -1
vn 0 0 1
vn 0 0 1
vn 0 0 1
vn 0 0 1
vn -1 0 0
vn -1 0 0
vn -1 0 0
vn -1 0 0
vn 0 0 -1
vn 0 0 -1
vn 0 0 -1
vn 0 0 -1
vn 1 0 -3.4749632504826877E-07
vn 1 0 -3.4749632504826877E-07
vn 1 0 -3.4749632504826877E-07
vn 1 0 -3.4749632504826877E-07
vn -1.4315281759991194E-06 -1 -2.761296627795673E-06
vn -7.1576408799955971E-07 -1 -1.3806483138978365E-06
vn -3.5788204399977985E-07 -1 -6.9032415694891824E-07
vn 0 -1 0
vn 0 -1 0
vn 0 -1 0
f 1/1/1 2/2/2 3/3/3
f 4/4/4 1/1/1 3/3/3
f 5/5/5 1/1/1 6/6/6
f 4/4/4 6/6/6 1/1/1
f 7/7/7 8/8/8 9/9/9 10/10/10
f 11/11/11 12/12/12 13/13/13 14/14/14
f 15/15/15 16/16/16 17/17/17 18/18/18
f 19/19/19 20/20/20 21/21/21 22/22/22
f 23/23/23 24/24/24 25/25/25 26/26/26
f 27/27/27 28/28/28 29/29/29 30/30/30
f 33/33/33 36/36/36 32/32/32
f 35/35/35 36/36/36 33/33/33
f 31/31/31 33/33/33 32/32/32
f 35/35/35 33/33/33 34/34/34
