# Rhino

mtllib Sofa_19_11.mtl
usemtl Default
v 0.35840663340500001 0.031858367413999999 -0.17721216873899959
v 0.43805255194000026 0.031858367413999999 0.18915905651900022
v 0.35840663340500001 0.031858367413999999 0.18915905651900022
v 0.43805255194000026 0.031858367413999999 -0.17721216873899959
v 0.35840663340500001 0.031858367413999999 -0.17721216873899959
v 0.43805255194000026 0.2309731637504 -0.17721216873899959
v 0.43805255194000026 0.031858367413999999 -0.17721216873899959
v 0.43737408818199963 0.23612665290909998 -0.17721216873899959
v 0.43538493136700041 0.24092890356709998 -0.17721216873899959
v 0.43222059902400023 0.2450525709993 -0.17721216873899959
v 0.4280968121219999 0.24821690334259999 -0.17721216873899959
v 0.42329456146400002 0.25020606015799995 -0.17721216873899959
v 0.41814107230599973 0.25088464338399996 -0.17721216873899959
v 0.40268060482900037 0.24884929193579999 -0.17721216873899959
v 0.38827385285599991 0.2428818214896 -0.17721216873899959
v 0.37590245232899999 0.23338882445949999 -0.17721216873899959
v 0.36640945530000035 0.22101742393349999 -0.17721216873899959
v 0.36044198485299983 0.20661067195939997 -0.17721216873899959
v 0.35840663340500001 0.19115020448306999 -0.17721216873899959
v 0.35840663340500001 0.031858367413999999 -0.17721216873899959
v 0.35840663340500001 0.19115020448306999 0.18915905651900022
v 0.35840663340500001 0.19115020448306999 -0.17721216873899959
v 0.35840663340500001 0.031858367413999999 0.18915905651900022
v 0.35840663340500001 0.031858367413999999 0.18915905651900022
v 0.36044198485299983 0.20661067195939997 0.18915905651900022
v 0.35840663340500001 0.19115020448306999 0.18915905651900022
v 0.36640945530000035 0.22101742393349999 0.18915905651900022
v 0.37590245232899999 0.23338882445949999 0.18915905651900022
v 0.38827385285599991 0.2428818214896 0.18915905651900022
v 0.40268060482900037 0.24884929193579999 0.18915905651900022
v 0.41814107230599973 0.25088464338399996 0.18915905651900022
v 0.42329456146400002 0.25020606015799995 0.18915905651900022
v 0.4280968121219999 0.24821690334259999 0.18915905651900022
v 0.43222059902400023 0.2450525709993 0.18915905651900022
v 0.43538493136700041 0.24092890356709998 0.18915905651900022
v 0.43737408818199963 0.23612665290909998 0.18915905651900022
v 0.43805255194000026 0.2309731637504 0.18915905651900022
v 0.43805255194000026 0.2309731637504 -0.17721216873899959
v 0.43805255194000026 0.031858367413999999 -0.17721216873899959
v 0.43737408818199963 0.23612665290909998 -0.17721216873899959
v 0.43805255194000026 0.2309731637504 0.18915905651900022
v 0.43805255194000026 0.2309731637504 -0.17721216873899959
v 0.43737408818199963 0.23612665290909998 0.18915905651900022
v 0.43538493136700041 0.24092890356709998 -0.17721216873899959
v 0.43737408818199963 0.23612665290909998 0.18915905651900022
v 0.43737408818199963 0.23612665290909998 -0.17721216873899959
v 0.43538493136700041 0.24092890356709998 0.18915905651900022
v 0.43222059902400023 0.2450525709993 -0.17721216873899959
v 0.43538493136700041 0.24092890356709998 0.18915905651900022
v 0.43538493136700041 0.24092890356709998 -0.17721216873899959
v 0.43222059902400023 0.2450525709993 0.18915905651900022
v 0.43222059902400023 0.2450525709993 -0.17721216873899959
v 0.4280968121219999 0.24821690334259999 0.18915905651900022
v 0.43222059902400023 0.2450525709993 0.18915905651900022
v 0.4280968121219999 0.24821690334259999 -0.17721216873899959
v 0.4280968121219999 0.24821690334259999 -0.17721216873899959
v 0.42329456146400002 0.25020606015799995 0.18915905651900022
v 0.4280968121219999 0.24821690334259999 0.18915905651900022
v 0.42329456146400002 0.25020606015799995 -0.17721216873899959
v 0.42329456146400002 0.25020606015799995 -0.17721216873899959
v 0.41814107230599973 0.25088464338399996 0.18915905651900022
v 0.42329456146400002 0.25020606015799995 0.18915905651900022
v 0.41814107230599973 0.25088464338399996 -0.17721216873899959
v 0.41814107230599973 0.25088464338399996 -0.17721216873899959
v 0.40268060482900037 0.24884929193579999 0.18915905651900022
v 0.41814107230599973 0.25088464338399996 0.18915905651900022
v 0.40268060482900037 0.24884929193579999 -0.17721216873899959
v 0.40268060482900037 0.24884929193579999 -0.17721216873899959
v 0.38827385285599991 0.2428818214896 0.18915905651900022
v 0.40268060482900037 0.24884929193579999 0.18915905651900022
v 0.38827385285599991 0.2428818214896 -0.17721216873899959
v 0.38827385285599991 0.2428818214896 -0.17721216873899959
v 0.37590245232899999 0.23338882445949999 0.18915905651900022
v 0.38827385285599991 0.2428818214896 0.18915905651900022
v 0.37590245232899999 0.23338882445949999 -0.17721216873899959
v 0.36640945530000035 0.22101742393349999 -0.17721216873899959
v 0.37590245232899999 0.23338882445949999 0.18915905651900022
v 0.37590245232899999 0.23338882445949999 -0.17721216873899959
v 0.36640945530000035 0.22101742393349999 0.18915905651900022
v 0.36044198485299983 0.20661067195939997 -0.17721216873899959
v 0.36640945530000035 0.22101742393349999 0.18915905651900022
v 0.36640945530000035 0.22101742393349999 -0.17721216873899959
v 0.36044198485299983 0.20661067195939997 0.18915905651900022
v 0.35840663340500001 0.19115020448306999 -0.17721216873899959
v 0.36044198485299983 0.20661067195939997 0.18915905651900022
v 0.36044198485299983 0.20661067195939997 -0.17721216873899959
v 0.35840663340500001 0.19115020448306999 0.18915905651900022
v 0.43805255194000026 0.031858367413999999 0.18915905651900022
v 0.43805255194000026 0.031858367413999999 0.18915905651900022
v 0.43805255194000026 0.2309731637504 0.18915905651900022
vt -36.220500946044922 7.8740200996398926
vt 0 0
vt 0 7.8740200996398926
vt -36.220500946044922 0
vt 7.8740200996398926 0
vt 0 19.684999465942383
vt 0 0
vt 0.067075103521347046 20.194499969482422
vt 0.26372998952865601 20.669300079345703
vt 0.57656097412109375 21.076999664306641
vt 0.98425197601318359 21.389799118041992
vt 1.4590200185775757 21.58650016784668
vt 1.968500018119812 21.653499603271484
vt 3.496959924697876 21.452299118041992
vt 4.921259880065918 20.862400054931641
vt 6.1443300247192383 19.923900604248047
vt 7.0828299522399902 18.700799942016602
vt 7.6727900505065918 17.276500701904297
vt 7.8740200996398926 15.748000144958496
vt -36.220500946044922 0
vt 0 15.748000144958496
vt -36.220500946044922 15.748000144958496
vt 0 0
vt -7.8740200996398926 0
vt -7.6727900505065918 17.276500701904297
vt -7.8740200996398926 15.748000144958496
vt -7.0828299522399902 18.700799942016602
vt -6.1443300247192383 19.923900604248047
vt -4.921259880065918 20.862400054931641
vt -3.496959924697876 21.452299118041992
vt -1.968500018119812 21.653499603271484
vt -1.4590200185775757 21.58650016784668
vt -0.98425197601318359 21.389799118041992
vt -0.57656097412109375 21.076999664306641
vt -0.26372998952865601 20.669300079345703
vt -0.067075103521347046 20.194499969482422
vt 0 19.684999465942383
vt 36.220500946044922 19.684999465942383
vt 36.220500946044922 0
vt 36.220500946044922 20.030500411987305
vt 0 19.516599655151367
vt 36.220500946044922 19.516599655151367
vt 0 20.030500411987305
vt 36.220500946044922 19.1968994140625
vt 0 18.683000564575195
vt 36.220500946044922 18.683000564575195
vt 0 19.1968994140625
vt 36.220500946044922 17.072500228881836
vt 0 16.558599472045898
vt 36.220500946044922 16.558599472045898
vt 0 17.072500228881836
vt 36.220500946044922 13.288299560546875
vt 0 13.802200317382812
vt 0 13.288299560546875
vt 36.220500946044922 13.802200317382812
vt 36.220500946044922 9.0948600769042969
vt 0 9.6087398529052734
vt 0 9.0948600769042969
vt 36.220500946044922 9.6087398529052734
vt 36.220500946044922 4.2641401290893555
vt 0 4.778019905090332
vt 0 4.2641401290893555
vt 36.220500946044922 4.778019905090332
vt -36.220500946044922 0.87469100952148438
vt 0 -0.66695600748062134
vt 0 0.87469100952148438
vt -36.220500946044922 -0.66695600748062134
vt -36.220500946044922 4.9786701202392578
vt 0 3.4370300769805908
vt 0 4.9786701202392578
vt -36.220500946044922 3.4370300769805908
vt -36.220500946044922 8.7959003448486328
vt 0 7.2542500495910645
vt 0 8.7959003448486328
vt -36.220500946044922 7.2542500495910645
vt -36.220500946044922 10.524600028991699
vt 0 12.066200256347656
vt -36.220500946044922 12.066200256347656
vt 0 10.524600028991699
vt -36.220500946044922 13.025099754333496
vt 0 14.566800117492676
vt -36.220500946044922 14.566800117492676
vt 0 13.025099754333496
vt -36.220500946044922 14.58549976348877
vt 0 16.127199172973633
vt -36.220500946044922 16.127199172973633
vt 0 14.58549976348877
vt 0 0
vt 0 0
vt 0 19.684999465942383
vn 0 -1 0
vn 1 0 0
vn 0 -1 0
vn 0 -1 0
vn 0 0 -1
vn 0 0 -1
vn 0 0 -1
vn 0 0 -1
vn 0 0 -1
vn 0 0 -1
vn 0 0 -1
vn 0 0 -1
vn 0 0 -1
vn 0 0 -1
vn 0 0 -1
vn 0 0 -1
vn 0 0 -1
vn 0 0 -1
vn 0 0 -1
vn -1 0 0
vn -1 0 0
vn -1 0 0
vn -1 0 0
vn 0 0 1
vn 0 0 1
vn 0 0 1
vn 0 0 1
vn 0 0 1
vn 0 0 1
vn 0 0 1
vn 0 0 1
vn 0 0 1
vn 0 0 1
vn 0 0 1
vn 0 0 1
vn 0 0 1
vn 1 0 0
vn 1 0 0
vn 1 0 0
vn 0.99144500494003296 0.13052506744861603 0
vn 0.99144500494003296 0.13052506744861603 0
vn 0.99144500494003296 0.13052506744861603 0
vn 0.99144500494003296 0.13052506744861603 0
vn 0.92387956380844116 0.38268333673477173 0
vn 0.92387956380844116 0.38268333673477173 0
vn 0.92387956380844116 0.38268333673477173 0
vn 0.92387956380844116 0.38268333673477173 0
vn 0.79334115982055664 0.60877728462219238 0
vn 0.79334115982055664 0.60877728462219238 0
vn 0.79334115982055664 0.60877728462219238 0
vn 0.79334115982055664 0.60877728462219238 0
vn 0.60876619815826416 0.79334968328475952 0
vn 0.60876619815826416 0.79334968328475952 0
vn 0.60876619815826416 0.79334968328475952 0
vn 0.60876619815826416 0.79334968328475952 0
vn 0.38268333673477173 0.92387956380844116 0
vn 0.38268333673477173 0.92387956380844116 0
vn 0.38268333673477173 0.92387956380844116 0
vn 0.38268333673477173 0.92387956380844116 0
vn 0.1305476576089859 0.99144202470779419 0
vn 0.1305476576089859 0.99144202470779419 0
vn 0.1305476576089859 0.99144202470779419 0
vn 0.1305476576089859 0.99144202470779419 0
vn -0.13052254915237427 0.99144536256790161 0
vn -0.13052254915237427 0.99144536256790161 0
vn -0.13052254915237427 0.99144536256790161 0
vn -0.13052254915237427 0.99144536256790161 0
vn -0.38268333673477173 0.92387956380844116 0
vn -0.38268333673477173 0.92387956380844116 0
vn -0.38268333673477173 0.92387956380844116 0
vn -0.38268333673477173 0.92387956380844116 0
vn -0.60876494646072388 0.79335063695907593 0
vn -0.60876494646072388 0.79335063695907593 0
vn -0.60876494646072388 0.79335063695907593 0
vn -0.60876494646072388 0.79335063695907593 0
vn -0.79335063695907593 0.60876494646072388 0
vn -0.79335063695907593 0.60876494646072388 0
vn -0.79335063695907593 0.60876494646072388 0
vn -0.79335063695907593 0.60876494646072388 0
vn -0.92387956380844116 0.38268333673477173 0
vn -0.92387956380844116 0.38268333673477173 0
vn -0.92387956380844116 0.38268333673477173 0
vn -0.92387956380844116 0.38268333673477173 0
vn -0.99144536256790161 0.13052254915237427 0
vn -0.99144536256790161 0.13052254915237427 0
vn -0.99144536256790161 0.13052254915237427 0
vn -0.99144536256790161 0.13052254915237427 0
vn 0 -1 0
vn 0 0 1
vn 0 0 1
f 1/1/1 88/88/88 3/3/3
f 88/88/88 1/1/1 4/4/4
f 5/5/5 6/6/6 7/7/7
f 6/6/6 5/5/5 8/8/8
f 8/8/8 5/5/5 9/9/9
f 9/9/9 5/5/5 10/10/10
f 10/10/10 5/5/5 11/11/11
f 11/11/11 5/5/5 12/12/12
f 12/12/12 5/5/5 13/13/13
f 13/13/13 5/5/5 14/14/14
f 14/14/14 5/5/5 15/15/15
f 15/15/15 5/5/5 16/16/16
f 16/16/16 5/5/5 17/17/17
f 17/17/17 5/5/5 18/18/18
f 18/18/18 5/5/5 19/19/19
f 20/20/20 21/21/21 22/22/22
f 21/21/21 20/20/20 23/23/23
f 24/24/24 25/25/25 26/26/26
f 24/24/24 27/27/27 25/25/25
f 24/24/24 28/28/28 27/27/27
f 24/24/24 29/29/29 28/28/28
f 24/24/24 30/30/30 29/29/29
f 24/24/24 31/31/31 30/30/30
f 24/24/24 32/32/32 31/31/31
f 24/24/24 33/33/33 32/32/32
f 24/24/24 34/34/34 33/33/33
f 24/24/24 35/35/35 34/34/34
f 24/24/24 36/36/36 35/35/35
f 89/89/89 36/36/36 24/24/24
f 36/36/36 89/89/89 90/90/90
f 2/2/2 38/38/38 37/37/37
f 38/38/38 2/2/2 39/39/39
f 40/40/40 41/41/41 42/42/42
f 41/41/41 40/40/40 43/43/43
f 44/44/44 45/45/45 46/46/46
f 45/45/45 44/44/44 47/47/47
f 48/48/48 49/49/49 50/50/50
f 49/49/49 48/48/48 51/51/51
f 52/52/52 53/53/53 54/54/54
f 53/53/53 52/52/52 55/55/55
f 56/56/56 57/57/57 58/58/58
f 57/57/57 56/56/56 59/59/59
f 60/60/60 61/61/61 62/62/62
f 61/61/61 60/60/60 63/63/63
f 64/64/64 65/65/65 66/66/66
f 65/65/65 64/64/64 67/67/67
f 68/68/68 69/69/69 70/70/70
f 69/69/69 68/68/68 71/71/71
f 72/72/72 73/73/73 74/74/74
f 73/73/73 72/72/72 75/75/75
f 76/76/76 77/77/77 78/78/78
f 77/77/77 76/76/76 79/79/79
f 80/80/80 81/81/81 82/82/82
f 81/81/81 80/80/80 83/83/83
f 84/84/84 85/85/85 86/86/86
f 85/85/85 84/84/84 87/87/87
