# Rhino

mtllib Sofa_06_03.mtl
usemtl Default
v 0.42633754866300011 0 0.19083985092
v 0.42633754866300011 0.065590392102000003 0.16897638688600003
v 0.42633754866300011 0.065590392102000003 0.19083985092
v 0.42633754866300011 0 0.16897638688600003
v 0.42633754866300011 0 0.19083985092
v 0.40447408462899981 0 0.16897638688600003
v 0.42633754866300011 0 0.16897638688600003
v 0.40447408462899981 0 0.19083985092
v 0.42633754866300011 0 0.19083985092
v 0.40447408462899981 0.065590392102000003 0.19083985092
v 0.40447408462899981 0 0.19083985092
v 0.42633754866300011 0.065590392102000003 0.19083985092
v 0.40447408462899981 0.065590392102000003 0.19083985092
v 0.40447408462899981 0 0.16897638688600003
v 0.40447408462899981 0 0.19083985092
v 0.40447408462899981 0.065590392102000003 0.16897638688600003
v 0.42633754866300011 0.065590392102000003 0.16897638688600003
v 0.40447408462899981 0 0.16897638688600003
v 0.40447408462899981 0.065590392102000003 0.16897638688600003
v 0.42633754866300011 0 0.16897638688600003
v 0.40447408462899981 0.065590392102000003 0.19083985092
v 0.40447408462899981 0.065590392102000003 0.16897638688600003
v 0.41540581664599996 0.065590392102000003 0.17990811890300007
v 0.42633754866300011 0.065590392102000003 0.19083985092
v 0.42633754866300011 0.065590392102000003 0.16897638688600003
vt 0.016666699200868607 0
vt 0.05000000074505806 0.10000000149011612
vt 0.016666699200868607 0.10000000149011612
vt 0.05000000074505806 0
vt -0.016666699200868607 0.016666699200868607
vt -0.05000000074505806 0.05000000074505806
vt -0.05000000074505806 0.016666699200868607
vt -0.016666699200868607 0.05000000074505806
vt -0.016666699200868607 0
vt -0.05000000074505806 0.10000000149011612
vt -0.05000000074505806 0
vt -0.016666699200868607 0.10000000149011612
vt -0.016666699200868607 0.10000000149011612
vt -0.05000000074505806 0
vt -0.016666699200868607 0
vt -0.05000000074505806 0.10000000149011612
vt 0.016666699200868607 0.10000000149011612
vt 0.05000000074505806 0
vt 0.05000000074505806 0.10000000149011612
vt 0.016666699200868607 0
vt 1 0
vt 1 1
vt 0.5 0.5
vt 0 0
vt 0 1
vn 1 0 0
vn 1 0 0
vn 1 0 0
vn 1 0 0
vn 0 -1 0
vn 0 -1 0
vn 0 -1 0
vn 0 -1 0
vn 0 0 1
vn 0 0 1
vn 0 0 1
vn 0 0 1
vn -1 0 0
vn -1 0 0
vn -1 0 0
vn -1 0 0
vn 0 0 -1
vn 0 0 -1
vn 0 0 -1
vn 0 0 -1
vn 0 1 0
vn 0 1 0
vn 0 1 0
vn 0 1 0
vn 0 1 0
f 1/1/1 2/2/2 3/3/3
f 2/2/2 1/1/1 4/4/4
f 5/5/5 6/6/6 7/7/7
f 6/6/6 5/5/5 8/8/8
f 9/9/9 10/10/10 11/11/11
f 10/10/10 9/9/9 12/12/12
f 13/13/13 14/14/14 15/15/15
f 14/14/14 13/13/13 16/16/16
f 17/17/17 18/18/18 19/19/19
f 18/18/18 17/17/17 20/20/20
f 23/23/23 24/24/24 25/25/25
f 22/22/22 21/21/21 23/23/23
f 24/24/24 23/23/23 21/21/21
f 25/25/25 22/22/22 23/23/23
