# Rhino

mtllib Sofa_08_05.mtl
usemtl Default
v 0.37081794827926462 0.0088845649610000133 -0.1969123845031806
v 0.32639962186892291 0 -0.19753657805094349
v 0.37081794827926462 0 -0.1969123845031806
v 0.32639962186892291 0.0088845649610000133 -0.19753657805094349
v 0.32577542705278395 0.0088845649610000133 -0.15311816138151269
v 0.32639962186892291 0 -0.19753657805094349
v 0.32639962186892291 0.0088845649610000133 -0.19753657805094349
v 0.32577542705278395 0 -0.15311816138151269
v 0.32577542705278395 0.0088845649610000133 -0.15311816138151269
v 0.37019375346312566 0 -0.1524939678337498
v 0.32577542705278395 0 -0.15311816138151269
v 0.37019375346312566 0.0088845649610000133 -0.1524939678337498
v 0.37081794827926462 0.0088845649610000133 -0.1969123845031806
v 0.37019375346312566 0 -0.1524939678337498
v 0.37019375346312566 0.0088845649610000133 -0.1524939678337498
v 0.37081794827926462 0 -0.1969123845031806
v 0.32639962186892291 0 -0.19753657805094349
v 0.37019375346312566 0 -0.1524939678337498
v 0.37081794827926462 0 -0.1969123845031806
v 0.32577542705278395 0 -0.15311816138151269
v 0.32577542705278395 0.0088845649610000133 -0.15311816138151269
v 0.32639962186892291 0.0088845649610000133 -0.19753657805094349
v 0.34829668766602406 0.0088845649610000133 -0.1750152729423462
v 0.37019375346312566 0.0088845649610000133 -0.1524939678337498
v 0.37081794827926462 0.0088845649610000133 -0.1969123845031806
vt 79.133903503417969 0.78740197420120239
vt 75.1968994140625 0
vt 79.133903503417969 0
vt 75.1968994140625 0.78740197420120239
vt -3.9370100498199463 0.78740197420120239
vt 0 0
vt 0 0.78740197420120239
vt -3.9370100498199463 0
vt -75.1968994140625 0.78740197420120239
vt -79.133903503417969 0
vt -75.1968994140625 0
vt -79.133903503417969 0.78740197420120239
vt 0 0.78740197420120239
vt 3.9370100498199463 0
vt 3.9370100498199463 0.78740197420120239
vt 0 0
vt -75.1968994140625 0
vt -79.133903503417969 3.9370100498199463
vt -79.133903503417969 0
vt -75.1968994140625 3.9370100498199463
vt 0.013857846148312092 1
vt 1 0.98614209890365601
vt 0.5 0.5
vt 0 0.013857901096343994
vt 0.98614215850830078 0
vn 0.01405122596770525 0 -0.99990129470825195
vn 0.01405122596770525 0 -0.99990129470825195
vn 0.01405122596770525 0 -0.99990129470825195
vn 0.01405122596770525 0 -0.99990129470825195
vn -0.99990129470825195 0 -0.01405122596770525
vn -0.99990129470825195 0 -0.01405122596770525
vn -0.99990129470825195 0 -0.01405122596770525
vn -0.99990129470825195 0 -0.01405122596770525
vn -0.01405122596770525 0 0.99990129470825195
vn -0.01405122596770525 0 0.99990129470825195
vn -0.01405122596770525 0 0.99990129470825195
vn -0.01405122596770525 0 0.99990129470825195
vn 0.99990129470825195 0 0.01405122596770525
vn 0.99990129470825195 0 0.01405122596770525
vn 0.99990129470825195 0 0.01405122596770525
vn 0.99990129470825195 0 0.01405122596770525
vn 0 -1 0
vn 0 -1 0
vn 0 -1 0
vn 0 -1 0
vn 0 1 0
vn 0 1 0
vn 0 1 0
vn 0 1 0
vn 0 1 0
f 1/1/1 3/3/3 2/2/2
f 2/2/2 4/4/4 1/1/1
f 5/5/5 7/7/7 6/6/6
f 6/6/6 8/8/8 5/5/5
f 9/9/9 11/11/11 10/10/10
f 10/10/10 12/12/12 9/9/9
f 13/13/13 15/15/15 14/14/14
f 14/14/14 16/16/16 13/13/13
f 17/17/17 19/19/19 18/18/18
f 18/18/18 20/20/20 17/17/17
f 23/23/23 21/21/21 24/24/24
f 22/22/22 23/23/23 25/25/25
f 24/24/24 25/25/25 23/23/23
f 21/21/21 23/23/23 22/22/22
