# Rhino

mtllib Sofa_05_03.mtl
usemtl Default
v 0.37292767940799987 0 -0.19665390859299947
v 0.39823286355799992 0 -0.17134872444299987
v 0.37292767940799987 0 -0.17134872444299987
v 0.39823286355799992 0 -0.19665390859299947
v 0.37292767940799987 0 -0.19665390859299947
v 0.39823286355799992 0.075915552450000007 -0.19665390859299947
v 0.39823286355799992 0 -0.19665390859299947
v 0.37292767940799987 0.075915552450000007 -0.19665390859299947
v 0.37292767940799987 0 -0.19665390859299947
v 0.37292767940799987 0.075915552450000007 -0.17134872444299987
v 0.37292767940799987 0.075915552450000007 -0.19665390859299947
v 0.37292767940799987 0 -0.17134872444299987
v 0.39823286355799992 0 -0.17134872444299987
v 0.37292767940799987 0.075915552450000007 -0.17134872444299987
v 0.37292767940799987 0 -0.17134872444299987
v 0.39823286355799992 0.075915552450000007 -0.17134872444299987
v 0.39823286355799992 0 -0.17134872444299987
v 0.39823286355799992 0.075915552450000007 -0.19665390859299947
v 0.39823286355799992 0.075915552450000007 -0.17134872444299987
v 0.39823286355799992 0 -0.19665390859299947
v 0.37292767940799987 0.075915552450000007 -0.17134872444299987
v 0.37292767940799987 0.075915552450000007 -0.19665390859299947
v 0.38558027148299989 0.075915552450000007 -0.18400131651799967
v 0.39823286355799992 0.075915552450000007 -0.17134872444299987
v 0.39823286355799992 0.075915552450000007 -0.19665390859299947
vt -0.56666702032089233 0.05000000074505806
vt -0.53333300352096558 0.016666699200868607
vt -0.53333300352096558 0.05000000074505806
vt -0.56666702032089233 0.016666699200868607
vt 0.05000000074505806 0
vt 0.016666699200868607 0.10000000149011612
vt 0.016666699200868607 0
vt 0.05000000074505806 0.10000000149011612
vt -0.56666702032089233 0
vt -0.53333300352096558 0.10000000149011612
vt -0.56666702032089233 0.10000000149011612
vt -0.53333300352096558 0
vt -0.016666699200868607 0
vt -0.05000000074505806 0.10000000149011612
vt -0.05000000074505806 0
vt -0.016666699200868607 0.10000000149011612
vt 0.53333300352096558 0
vt 0.56666702032089233 0.10000000149011612
vt 0.53333300352096558 0.10000000149011612
vt 0.56666702032089233 0
vt 1 1
vt 1 0
vt 0.5 0.5
vt 0 1
vt 0 0
vn 0 -1 0
vn 0 -1 0
vn 0 -1 0
vn 0 -1 0
vn 0 0 -1
vn 0 0 -1
vn 0 0 -1
vn 0 0 -1
vn -1 0 0
vn -1 0 0
vn -1 0 0
vn -1 0 0
vn 0 0 1
vn 0 0 1
vn 0 0 1
vn 0 0 1
vn 1 0 0
vn 1 0 0
vn 1 0 0
vn 1 0 0
vn 0 1 0
vn 0 1 0
vn 0 1 0
vn 0 1 0
vn 0 1 0
f 1/1/1 2/2/2 3/3/3
f 2/2/2 1/1/1 4/4/4
f 5/5/5 6/6/6 7/7/7
f 6/6/6 5/5/5 8/8/8
f 9/9/9 10/10/10 11/11/11
f 10/10/10 9/9/9 12/12/12
f 13/13/13 14/14/14 15/15/15
f 14/14/14 13/13/13 16/16/16
f 17/17/17 18/18/18 19/19/19
f 18/18/18 17/17/17 20/20/20
f 23/23/23 24/24/24 25/25/25
f 21/21/21 23/23/23 22/22/22
f 25/25/25 22/22/22 23/23/23
f 24/24/24 23/23/23 21/21/21
