# Rhino

mtllib Sofa_01_13.mtl
usemtl Default
v -0.28670342480565447 0.22768233085024037 -0.011408325210445547
v -0.41774645279299993 0.22768233085 -0.14245135319800006
v -0.24710970992043468 0.11384116542539308 -0.051002040095465606
v -0.31478407365965455 0.22768233085024034 0.016672323643554421
v -0.44582710164700001 0.22768233084999998 -0.1143707043440001
v -0.27519035877443476 0.11384116542539319 -0.022921391241465416
v -0.37815273790852888 0.11384116542532757 -0.18204506808347132
v -0.40623338676252896 0.11384116542532768 -0.15396441922947091
v -0.31478407365965455 0.22768233085024034 0.016672323643554421
v -0.44582710164700001 0.22768233084999998 -0.1143707043440001
v -0.41774645279299993 0.22768233085 -0.14245135319800006
v -0.28670342480565447 0.22768233085024037 -0.011408325210445547
v -0.27519035877443476 0.11384116542539319 -0.022921391241465416
v -0.31478407365965455 0.22768233085024034 0.016672323643554421
v -0.28670342480565447 0.22768233085024037 -0.011408325210445547
v -0.24710970992043468 0.11384116542539308 -0.051002040095465606
v -0.40623338676252896 0.11384116542532768 -0.15396441922947091
v -0.44582710164700001 0.22768233084999998 -0.1143707043440001
v -0.41774645279299993 0.22768233085 -0.14245135319800006
v -0.37815273790852888 0.11384116542532757 -0.18204506808347132
v -0.27519035877443476 0.11384116542539319 -0.022921391241465416
v -0.40623338676252896 0.11384116542532768 -0.15396441922947091
v -0.37815273790852888 0.11384116542532757 -0.18204506808347132
v -0.24710970992043468 0.11384116542539308 -0.051002040095465606
vt 0.1666666716337204 0.83333331346511841
vt 0.66666668653488159 0.83333331346511841
vt 0.1666666716337204 0.3333333432674408
vt 0 1
vt 1 1
vt 0 0
vt 0.83333331346511841 0.1666666716337204
vt 1 0
vt 0 1
vt 1 1
vt 0.66666668653488159 0.83333331346511841
vt 0.1666666716337204 0.83333331346511841
vt 0 0
vt 0 1
vt 0.1666666716337204 0.83333331346511841
vt 0.1666666716337204 0.3333333432674408
vt 1 0
vt 1 1
vt 0.66666668653488159 0.83333331346511841
vt 0.83333331346511841 0.1666666716337204
vt 0 0
vt 1 0
vt 0.83333331346511841 0.1666666716337204
vt 0.1666666716337204 0.3333333432674408
vn 0.63450789451599121 0.44136098027229309 -0.63450789451599121
vn 0.63450789451599121 0.44136098027229309 -0.63450789451599121
vn 0.63450789451599121 0.44136098027229309 -0.63450789451599121
vn -0.63450789451599121 -0.44136098027229309 0.63450789451599121
vn -0.63450789451599121 -0.44136098027229309 0.63450789451599121
vn -0.63450789451599121 -0.44136098027229309 0.63450789451599121
vn 0.63450789451599121 0.44136098027229309 -0.63450789451599121
vn -0.63450789451599121 -0.44136098027229309 0.63450789451599121
vn 0 1 0
vn 0 1 0
vn 0 1 0
vn 0 1 0
vn 0.70710676908493042 0 0.70710676908493042
vn 0.70710676908493042 0 0.70710676908493042
vn 0.70710676908493042 0 0.70710676908493042
vn 0.70710676908493042 0 0.70710676908493042
vn -0.70710676908493042 0 -0.70710676908493042
vn -0.70710676908493042 0 -0.70710676908493042
vn -0.70710676908493042 0 -0.70710676908493042
vn -0.70710676908493042 0 -0.70710676908493042
vn 0 -1 0
vn 0 -1 0
vn 0 -1 0
vn 0 -1 0
f 1/1/1 3/3/3 2/2/2
f 4/4/4 5/5/5 6/6/6
f 7/7/7 2/2/2 3/3/3
f 8/8/8 6/6/6 5/5/5
f 9/9/9 12/12/12 11/11/11 10/10/10
f 13/13/13 16/16/16 15/15/15 14/14/14
f 17/17/17 18/18/18 19/19/19 20/20/20
f 21/21/21 22/22/22 23/23/23 24/24/24
