# Rhino

mtllib Sofa_02_03.mtl
usemtl Default
v -0.41787782061099998 0.18319928087002002 -0.17407548532600003
v -0.42807993451799997 0.18683474026863001 0.18157177696599991
v -0.42807993451799997 0.18683474026863001 -0.17407548532600003
v -0.41787782061099998 0.18319928087002002 0.18157177696599991
v -0.36462171079799999 0.2183508773143 -0.17407548532600003
v -0.36606085190159232 0.22776974015850002 0.18157177696599991
v -0.36462169885635376 0.21835087239742279 0.18157177696599991
v -0.36606084158100005 0.22776974015850002 -0.17407548532600003
v -0.42807993451799997 0.18683474026863001 -0.17407548532600003
v -0.43684291764400007 0.19261814371420002 0.18157177696599991
v -0.43684291764400007 0.19261814371420002 -0.17407548532600003
v -0.42807993451799997 0.18683474026863001 0.18157177696599991
v -0.36606084158100005 0.22776974015850002 -0.17407548532600003
v -0.37028723912676043 0.23654678375720001 0.18157177696599991
v -0.36606085190159232 0.22776974015850002 0.18157177696599991
v -0.37028725439499999 0.23654678375720001 -0.17407548532600003
v -0.44778940954299995 0.22776974015850002 0.18157177696599991
v -0.44356299672799993 0.23654678375720001 -0.17407548532600003
v -0.44778940954299995 0.22776974015850002 -0.17407548532600003
v -0.44356299672799993 0.23654678375720001 0.18157177696599991
v -0.37028725439499999 0.23654678375720001 -0.17407548532600003
v -0.37701147594626927 0.24408361091450001 0.18157177696599991
v -0.37028723912676043 0.23654678375720001 0.18157177696599991
v -0.37701146891299997 0.24408361091450001 -0.17407548532600003
v -0.44356299672799993 0.23654678375720001 0.18157177696599991
v -0.43684291764400007 0.24408361091450001 -0.17407548532600003
v -0.44356299672799993 0.23654678375720001 -0.17407548532600003
v -0.43684291764400007 0.24408361091450001 0.18157177696599991
v -0.37701147594626927 0.24408361091450001 0.18157177696599991
v -0.38577445203900007 0.2498670143601 -0.17407548532600003
v -0.38577443361282349 0.24986700713634491 0.18157177696599991
v -0.37701146891299997 0.24408361091450001 -0.17407548532600003
v -0.43684291764400007 0.24408361091450001 -0.17407548532600003
v -0.42807993451799997 0.2498670143601 0.18157177696599991
v -0.42807993451799997 0.2498670143601 -0.17407548532600003
v -0.43684291764400007 0.24408361091450001 0.18157177696599991
v -0.38577443361282349 0.24986700713634491 0.18157177696599991
v -0.39597656594700004 0.25350247375860002 -0.17407548532600003
v -0.39597656594700004 0.25350247375860002 0.18157177696599991
v -0.38577445203900007 0.2498670143601 -0.17407548532600003
v -0.42807993451799997 0.2498670143601 -0.17407548532600003
v -0.41787782061099998 0.25350247375860002 0.18157177696599991
v -0.41787782061099998 0.25350247375860002 -0.17407548532600003
v -0.42807993451799997 0.2498670143601 0.18157177696599991
v -0.41787782061099998 0.25350247375860002 0.18157177696599991
v -0.39597656594700004 0.25350247375860002 0.18157177696599991
v -0.40692719327899995 0.25474269020009999 0.18157177696599991
v -0.39597656594700004 0.25350247375860002 0.18157177696599991
v -0.40692719327899995 0.25474269020009999 -0.17407548532600003
v -0.40692719327899995 0.25474269020009999 0.18157177696599991
v -0.39597656594700004 0.25350247375860002 0.18157177696599991
v -0.39597656594700004 0.25350247375860002 -0.17407548532600003
v -0.41787782061099998 0.25350247375860002 -0.17407548532600003
v -0.40692719327899995 0.25474269020009999 0.18157177696599991
v -0.40692719327899995 0.25474269020009999 -0.17407548532600003
v -0.41787782061099998 0.25350247375860002 0.18157177696599991
v -0.44356299672799993 0.20015497087150003 -0.17407548532600003
v -0.43684291764400007 0.19261814371420002 0.18157177696599991
v -0.44356299672799993 0.20015497087150003 0.18157177696599991
v -0.43684291764400007 0.19261814371420002 -0.17407548532600003
v -0.44356299672799993 0.20015497087150003 0.18157177696599991
v -0.44778940954299995 0.20893201447020002 -0.17407548532600003
v -0.44356299672799993 0.20015497087150003 -0.17407548532600003
v -0.44778940954299995 0.20893201447020002 0.18157177696599991
v -0.44778940954299995 0.20893201447020002 0.18157177696599991
v -0.44923267575800008 0.2183508773143 -0.17407548532600003
v -0.44778940954299995 0.20893201447020002 -0.17407548532600003
v -0.44923267575800008 0.2183508773143 0.18157177696599991
v -0.44923267575800008 0.2183508773143 0.18157177696599991
v -0.44778940954299995 0.22776974015850002 -0.17407548532600003
v -0.44923267575800008 0.2183508773143 -0.17407548532600003
v -0.44778940954299995 0.22776974015850002 0.18157177696599991
v -0.36462171079799999 0.2183508773143 -0.17407548532600003
v -0.41787782061099998 0.18319928087002002 -0.17407548532600003
v -0.42807993451799997 0.18683474026863001 -0.17407548532600003
v -0.44778940954299995 0.22776974015850002 -0.17407548532600003
v -0.36606084158100005 0.22776974015850002 -0.17407548532600003
v -0.44923267575800008 0.2183508773143 -0.17407548532600003
v -0.44778940954299995 0.20893201447020002 -0.17407548532600003
v -0.44356299672799993 0.20015497087150003 -0.17407548532600003
v -0.43684291764400007 0.19261814371420002 -0.17407548532600003
v -0.44356299672799993 0.23654678375720001 -0.17407548532600003
v -0.37028725439499999 0.23654678375720001 -0.17407548532600003
v -0.43684291764400007 0.24408361091450001 -0.17407548532600003
v -0.37701146891299997 0.24408361091450001 -0.17407548532600003
v -0.42807993451799997 0.2498670143601 -0.17407548532600003
v -0.38577445203900007 0.2498670143601 -0.17407548532600003
v -0.41787782061099998 0.25350247375860002 -0.17407548532600003
v -0.39597656594700004 0.25350247375860002 -0.17407548532600003
v -0.40692719327899995 0.25474269020009999 -0.17407548532600003
v -0.41787782061099998 0.18319928087002002 0.18157177696599991
v -0.36462169885635376 0.18683474026863001 0.18157177696599991
v -0.42807993451799997 0.18683474026863001 0.18157177696599991
v -0.36462169885635376 0.18342814627721216 0.18157177696599991
v -0.36462169885635376 0.18319928087002002 0.18157177696599991
v -0.36462169885635376 0.19261814371420005 0.18157177696599991
v -0.43684291764400007 0.19261814371420002 0.18157177696599991
v -0.36462169885635376 0.18725906147171029 0.18157177696599991
v -0.36462169885635376 0.18725906147171029 0.18157177696599991
v -0.36462169885635376 0.18683474026863001 0.18157177696599991
v -0.44356299672799993 0.23654678375720001 0.18157177696599991
v -0.44778940954299995 0.22776974015850002 0.18157177696599991
v -0.36813178991310491 0.23207051121189509 0.18157177696599991
v -0.36644653980609232 0.22857071231234219 0.18157177696599991
v -0.37028723912676043 0.23654678375720001 0.18157177696599991
v -0.36644653980609232 0.22857071231234219 0.18157177696599991
v -0.36606085190159232 0.22776974015850002 0.18157177696599991
v -0.44923267575800008 0.2183508773143 0.18157177696599991
v -0.36532688694299309 0.22296613785283681 0.18157177696599947
v -0.36475722893257434 0.21923788012032902 0.18157177696599991
v -0.36475722893257434 0.21923788012032902 0.18157177696599991
v -0.36462169885635376 0.21835087239742279 0.18157177696599991
v -0.44778940954299995 0.20893201447020002 0.18157177696599991
v -0.36462169885635376 0.21835087239742279 0.18157177696599991
v -0.36462169885635376 0.20980528757333933 0.18157177696599991
v -0.36462169885635376 0.20893201447020004 0.18157177696599991
v -0.44356299672799993 0.20015497087150003 0.18157177696599991
v -0.36462169885635376 0.20893201447020004 0.18157177696599991
v -0.36462169885635376 0.20093229514657046 0.18157177696599991
v -0.36462169885635376 0.20093229514657046 0.18157177696599991
v -0.36462169885635376 0.20015497087150003 0.18157177696599991
v -0.36462169885635376 0.20015497087150003 0.18157177696599991
v -0.36462169885635376 0.19323640139424392 0.18157177696599991
v -0.36462169885635376 0.19261814371420005 0.18157177696599991
v -0.43684291764400007 0.24408361091450001 0.18157177696599991
v -0.37358212829895088 0.24023984398875964 0.18157177696599991
v -0.37084265249315918 0.2371693164193539 0.18157177696599991
v -0.37701147594626927 0.24408361091450001 0.18157177696599991
v -0.37028723912676043 0.23654678375720001 0.18157177696599991
v -0.42807993451799997 0.2498670143601 0.18157177696599991
v -0.38130534177500675 0.24691748647081774 0.18157177696599991
v -0.37761157715132054 0.24447966789681438 0.18157177696599991
v -0.38577443361282349 0.24986700713634491 0.18157177696599991
v -0.41787782061099998 0.25350247375860002 0.18157177696599991
v -0.39077348552723457 0.25164839927821347 0.18157177696599991
v -0.38627856909315539 0.25004665379704705 0.18157177696599991
v -0.39597656594700004 0.25350247375860002 0.18157177696599991
v -0.38577443361282349 0.24986700713634491 0.18157177696599991
v -0.41787782061099998 0 0.17074325562878023
v -0.41787782061099987 0 0.18157177696599991
v -0.41787782061099998 0.18319928087002002 0.18157177696599991
v -0.41787782061099998 0 0.12977668893120775
v -0.41787782061099998 0 0.17074325562878023
v -0.41787782061099998 0 -0.16277115031611311
v -0.41787782061100021 0 -0.069835936926068598
v -0.41787782061099998 0.18319928087002002 -0.17407548532600003
v -0.41787782061100021 0 -0.069835936926068598
v -0.41787782061099998 0 0.12977668893120775
v -0.41787782061099976 0 -0.17407548532600003
v -0.41787782061099998 0 -0.16277115031611311
v -0.36462170481265543 0 0.18157177696599991
v -0.36462170481265521 0 0.0041806336036538383
v -0.36462169885635376 0.21835087239742279 0.18157177696599991
v -0.36462170481265521 0 0.0041806336036538383
v -0.36462171079799999 0.2183508773143 -0.17407548532600003
v -0.3646217107980001 0 -0.17407548532600048
v -0.3646217107980001 0 -0.17407548532600048
v -0.39364503097303694 0 -0.17407548532600003
v -0.41787782061099976 0 -0.17407548532600003
v -0.39364503097303694 0 -0.17407548532600003
v -0.39403799297242437 0 0.18157177696599991
v -0.36462170481265543 0 0.18157177696599991
v -0.41787782061099987 0 0.18157177696599991
v -0.36813178991310491 0.23207051121189509 0.18157177696599991
v -0.36606085190159232 0.22776974015850002 0.18157177696599991
v -0.37028723912676043 0.23654678375720001 0.18157177696599991
v -0.36644653980609232 0.22857071231234219 0.18157177696599991
v -0.37358212829895088 0.24023984398875964 0.18157177696599991
v -0.37084265249315918 0.2371693164193539 0.18157177696599991
v -0.38627856909315539 0.25004665379704705 0.18157177696599991
v -0.39597656594700004 0.25350247375860002 0.18157177696599991
v -0.39077348552723457 0.25164839927821347 0.18157177696599991
v -0.37701147594626927 0.24408361091450001 0.18157177696599991
v -0.38130534177500675 0.24691748647081774 0.18157177696599991
v -0.37761157715132054 0.24447966789681438 0.18157177696599991
v -0.38577443361282349 0.24986700713634491 0.18157177696599991
v -0.39403799297242437 0 0.18157177696599991
v -0.41787782061099998 0 0.17074325562878023
v -0.41787782061099998 0 0.12977668893120775
v -0.41787782061099987 0 0.18157177696599991
v -0.36462170481265543 0 0.18157177696599991
v -0.36462170481265521 0 0.0041806336036538383
v -0.41787782061099998 0 -0.16277115031611311
v -0.39364503097303694 0 -0.17407548532600003
v -0.41787782061100021 0 -0.069835936926068598
v -0.41787782061099976 0 -0.17407548532600003
v -0.3646217107980001 0 -0.17407548532600048
vn -0.33566871285438538 -0.94198012351989746 0
vn -0.33566871285438538 -0.94198012351989746 0
vn -0.33566871285438538 -0.94198012351989746 0
vn -0.33566871285438538 -0.94198012351989746 0
vn 0.98852771520614624 0.15103954076766968 0
vn 0.98852771520614624 0.15103954076766968 0
vn 0.98852771520614624 0.15103954076766968 0
vn 0.98852771520614624 0.15103954076766968 0
vn -0.55083125829696655 -0.83461666107177734 0
vn -0.55083125829696655 -0.83461666107177734 0
vn -0.55083125829696655 -0.83461666107177734 0
vn -0.55083125829696655 -0.83461666107177734 0
vn 0.90098446607589722 0.43385136127471924 0
vn 0.90098446607589722 0.43385136127471924 0
vn 0.90098446607589722 0.43385136127471924 0
vn 0.90098446607589722 0.43385136127471924 0
vn -0.90098446607589722 0.43385136127471924 0
vn -0.90098446607589722 0.43385136127471924 0
vn -0.90098446607589722 0.43385136127471924 0
vn -0.90098446607589722 0.43385136127471924 0
vn 0.74618822336196899 0.66573500633239746 0
vn 0.74618822336196899 0.66573500633239746 0
vn 0.74618822336196899 0.66573500633239746 0
vn 0.74618822336196899 0.66573500633239746 0
vn -0.7463916540145874 0.66550695896148682 0
vn -0.7463916540145874 0.66550695896148682 0
vn -0.7463916540145874 0.66550695896148682 0
vn -0.7463916540145874 0.66550695896148682 0
vn 0.55083125829696655 0.83461666107177734 0
vn 0.55083125829696655 0.83461666107177734 0
vn 0.55083125829696655 0.83461666107177734 0
vn 0.55083125829696655 0.83461666107177734 0
vn -0.55083125829696655 0.83461666107177734 0
vn -0.55083125829696655 0.83461666107177734 0
vn -0.55083125829696655 0.83461666107177734 0
vn -0.55083125829696655 0.83461666107177734 0
vn 0.33566871285438538 0.94198012351989746 0
vn 0.33566871285438538 0.94198012351989746 0
vn 0.33566871285438538 0.94198012351989746 0
vn 0.33566871285438538 0.94198012351989746 0
vn -0.33566871285438538 0.94198012351989746 0
vn -0.33566871285438538 0.94198012351989746 0
vn -0.33566871285438538 0.94198012351989746 0
vn -0.33566871285438538 0.94198012351989746 0
vn 0 0 1
vn 0 0 1
vn 0 0 1
vn 0.11253584921360016 0.99364769458770752 0
vn 0.11253584921360016 0.99364769458770752 0
vn 0.11253584921360016 0.99364769458770752 0
vn 0.11253584921360016 0.99364769458770752 0
vn 0.11253584921360016 0.99364769458770752 0
vn -0.11253584921360016 0.99364769458770752 0
vn -0.11253584921360016 0.99364769458770752 0
vn -0.11253584921360016 0.99364769458770752 0
vn -0.11253584921360016 0.99364769458770752 0
vn -0.7463916540145874 -0.66550695896148682 0
vn -0.7463916540145874 -0.66550695896148682 0
vn -0.7463916540145874 -0.66550695896148682 0
vn -0.7463916540145874 -0.66550695896148682 0
vn -0.90098446607589722 -0.43385136127471924 0
vn -0.90098446607589722 -0.43385136127471924 0
vn -0.90098446607589722 -0.43385136127471924 0
vn -0.90098446607589722 -0.43385136127471924 0
vn -0.98846280574798584 -0.15146361291408539 0
vn -0.98846280574798584 -0.15146361291408539 0
vn -0.98846280574798584 -0.15146361291408539 0
vn -0.98846280574798584 -0.15146361291408539 0
vn -0.98846280574798584 0.15146361291408539 0
vn -0.98846280574798584 0.15146361291408539 0
vn -0.98846280574798584 0.15146361291408539 0
vn -0.98846280574798584 0.15146361291408539 0
vn 0 0 -1
vn 0 0 -1
vn 0 0 -1
vn 0 0 -1
vn 0 0 -1
vn 0 0 -1
vn 0 0 -1
vn 0 0 -1
vn 0 0 -1
vn 0 0 -1
vn 0 0 -1
vn 0 0 -1
vn 0 0 -1
vn 0 0 -1
vn 0 0 -1
vn 0 0 -1
vn 0 0 -1
vn 0 0 -1
vn 0 0 1
vn 0 0 1
vn 0 0 1
vn 0 0 1
vn 0 0 1
vn 0 0 1
vn 0 0 1
vn 0 0 1
vn 0 0 1
vn 0 0 1
vn 0 0 1
vn 0 0 1
vn 0 0 1
vn 0 0 1
vn 0 0 1
vn 0 0 1
vn 0 0 1
vn 0 0 1
vn 0 0 1
vn 0 0 1
vn 0 0 1
vn 0 0 1
vn 0 0 1
vn 0 0 1
vn 0 0 1
vn 0 0 1
vn 0 0 1
vn 0 0 1
vn 0 0 1
vn 0 0 1
vn 0 0 1
vn 0 0 1
vn 0 0 1
vn 0 0 1
vn 0 0 1
vn 0 0 1
vn 0 0 1
vn 0 0 1
vn 0 0 1
vn 0 0 1
vn 0 0 1
vn 0 0 1
vn 0 0 1
vn 0 0 1
vn 0 0 1
vn 0 0 1
vn 0 0 1
vn 0 0 1
vn -1 0 0
vn -1 0 0
vn -1 0 0
vn -1 0 0
vn -1 0 0
vn -1 0 0
vn -1 0 0
vn -1 0 0
vn -1 0 0
vn -1 0 0
vn -1 0 0
vn -1 0 0
vn 1 0 0
vn 1 0 0
vn 1 0 0
vn 1 0 0
vn 1 0 0
vn 1 0 0
vn 0 0 -1
vn 0 0 -1
vn 0 0 -1
vn 0 0 -1
vn 0 0 1
vn 0 0 1
vn 0 0 1
vn 0 0 -1
vn 0 0 -1
vn 0 0 -1
vn 0 0 -1
vn 0 0 -1
vn 0 0 -1
vn 0 0 -1
vn 0 0 -1
vn 0 0 -1
vn 0 0 -1
vn 0 0 -1
vn 0 0 -1
vn 0 0 -1
vn 0 -1 0
vn 0 -1 0
vn 0 -1 0
vn 0 -1 0
vn 0 -1 0
vn 0 -1 0
vn 0 -1 0
vn 0 -1 0
vn 0 -1 0
vn 0 -1 0
vn 0 -1 0
f 1//1 2//2 3//3
f 2//2 1//1 4//4
f 5//5 6//6 7//7
f 6//6 5//5 8//8
f 9//9 10//10 11//11
f 10//10 9//9 12//12
f 13//13 14//14 15//15
f 14//14 13//13 16//16
f 17//17 18//18 19//19
f 18//18 17//17 20//20
f 21//21 22//22 23//23
f 22//22 21//21 24//24
f 25//25 26//26 27//27
f 26//26 25//25 28//28
f 29//29 30//30 31//31
f 30//30 29//29 32//32
f 33//33 34//34 35//35
f 34//34 33//33 36//36
f 37//37 38//38 39//39
f 38//38 37//37 40//40
f 41//41 42//42 43//43
f 42//42 41//41 44//44
f 45//45 46//46 47//47
f 48//48 49//49 50//50
f 49//49 51//51 52//52
f 53//53 54//54 55//55
f 54//54 53//53 56//56
f 57//57 58//58 59//59
f 58//58 57//57 60//60
f 61//61 62//62 63//63
f 62//62 61//61 64//64
f 65//65 66//66 67//67
f 66//66 65//65 68//68
f 69//69 70//70 71//71
f 70//70 69//69 72//72
f 73//73 74//74 75//75
f 73//73 76//76 77//77
f 73//73 78//78 76//76
f 73//73 79//79 78//78
f 73//73 80//80 79//79
f 73//73 81//81 80//80
f 73//73 75//75 81//81
f 77//77 82//82 83//83
f 77//77 76//76 82//82
f 83//83 84//84 85//85
f 83//83 82//82 84//84
f 85//85 86//86 87//87
f 85//85 84//84 86//86
f 87//87 88//88 89//89
f 87//87 86//86 88//88
f 89//89 88//88 90//90
f 91//91 92//92 93//93
f 94//94 92//92 91//91
f 94//94 91//91 95//95
f 93//93 96//96 97//97
f 98//98 96//96 93//93
f 99//99 93//93 100//100
f 101//101 102//102 103//103
f 104//104 103//103 102//102
f 103//103 105//105 101//101
f 106//106 102//102 107//107
f 102//102 108//108 109//109
f 110//110 109//109 108//108
f 109//109 107//107 102//102
f 111//111 108//108 112//112
f 113//113 114//114 108//108
f 115//115 114//114 113//113
f 115//115 113//113 116//116
f 117//117 118//118 113//113
f 119//119 118//118 117//117
f 120//120 117//117 121//121
f 97//97 122//122 117//117
f 123//123 122//122 97//97
f 123//123 97//97 124//124
f 125//125 101//101 126//126
f 127//127 126//126 101//101
f 126//126 128//128 125//125
f 127//127 101//101 129//129
f 130//130 125//125 131//131
f 132//132 131//131 125//125
f 131//131 133//133 130//130
f 132//132 125//125 128//128
f 134//134 130//130 135//135
f 136//136 135//135 130//130
f 135//135 137//137 134//134
f 136//136 130//130 138//138
f 139//139 140//140 141//141
f 142//142 143//143 141//141
f 144//144 145//145 146//146
f 147//147 141//141 146//146
f 141//141 147//147 148//148
f 149//149 150//150 146//146
f 151//151 152//152 153//153
f 154//154 155//155 153//153
f 155//155 154//154 156//156
f 157//157 74//74 73//73
f 74//74 157//157 158//158
f 159//159 74//74 160//160
f 91//91 161//161 95//95
f 162//162 95//95 161//161
f 161//161 91//91 163//163
f 164//164 165//165 166//166
f 167//167 165//165 164//164
f 168//168 169//169 166//166
f 170//170 171//171 172//172
f 173//173 174//174 175//175
f 168//168 166//166 173//173
f 173//173 176//176 174//174
f 170//170 176//176 171//171
f 177//177 178//178 179//179
f 178//178 177//177 180//180
f 179//179 181//181 177//177
f 181//181 179//179 182//182
f 183//183 184//184 185//185
f 186//186 184//184 183//183
f 182//182 185//185 187//187
f 184//184 187//187 185//185
f 179//179 185//185 182//182
