# Rhino

mtllib Sofa_11_06.mtl
usemtl Default
v 0.39827484852500028 0.058179790780999982 0.18139881816000003
v 0.40119814059599967 0 0.180187951264
v 0.40119814059599967 0.058179790780999982 0.180187951264
v 0.39827484852500028 0 0.18139881816000003
v 0.39513774572299987 0.058179790780999982 0.18181184619099999
v 0.39827484852500028 0.058179790780999982 0.18139881816000003
v 0.39827484852500028 0 0.18139881816000003
v 0.39513774572299987 0 0.18181184619099999
v 0.39200064292100034 0.058179790780999982 0.18139881816000003
v 0.39513774572299987 0.058179790780999982 0.18181184619099999
v 0.39513774572299987 0 0.18181184619099999
v 0.39200064292100034 0 0.18139881816000003
v 0.38907735085000006 0.058179790780999982 0.180187951264
v 0.39200064292100034 0.058179790780999982 0.18139881816000003
v 0.39200064292100034 0 0.18139881816000003
v 0.38907735085000006 0 0.180187951264
v 0.38656703832699968 0.058179790780999982 0.17826176384100001
v 0.38907735085000006 0.058179790780999982 0.180187951264
v 0.38907735085000006 0 0.180187951264
v 0.38656703832699968 0 0.17826176384100001
v 0.38656703832699968 0.058179790780999982 0.17826176384100001
v 0.3846408509039998 0 0.17575145131799996
v 0.38656703832699968 0 0.17826176384100001
v 0.3846408509039998 0.058179790780999982 0.17575145131799996
v 0.39827484852500028 0.058179790780999982 0.15798329473100003
v 0.39513774572299987 0 0.15757026669899998
v 0.39513774572299987 0.058179790780999982 0.15757026669899998
v 0.39827484852500028 0 0.15798329473100003
v 0.40119814059599967 0.058179790780999982 0.15919416162599997
v 0.39827484852500028 0.058179790780999982 0.15798329473100003
v 0.39827484852500028 0 0.15798329473100003
v 0.40119814059599967 0 0.15919416162599997
v 0.40370845311900005 0.058179790780999982 0.16112034904899997
v 0.40119814059599967 0 0.15919416162599997
v 0.40119814059599967 0.058179790780999982 0.15919416162599997
v 0.40370845311900005 0 0.16112034904899997
v 0.40370845311900005 0.058179790780999982 0.16112034904899997
v 0.40563464054199994 0 0.16363066157200001
v 0.40370845311900005 0 0.16112034904899997
v 0.40563464054199994 0.058179790780999982 0.16363066157200001
v 0.40563464054199994 0.058179790780999982 0.16363066157200001
v 0.40684550743799974 0 0.16655395364399994
v 0.40563464054199994 0 0.16363066157200001
v 0.40684550743799974 0.058179790780999982 0.16655395364399994
v 0.40684550743799974 0.058179790780999982 0.16655395364399994
v 0.40725853546900037 0 0.16969105644500004
v 0.40684550743799974 0 0.16655395364399994
v 0.40725853546900037 0.058179790780999982 0.16969105644500004
v 0.40725853546900037 0.058179790780999982 0.16969105644500004
v 0.40684550743799974 0 0.17282815924799999
v 0.40725853546900037 0 0.16969105644500004
v 0.40684550743799974 0.058179790780999982 0.17282815924799999
v 0.40684550743799974 0.058179790780999982 0.17282815924799999
v 0.40684550743799974 0 0.17282815924799999
v 0.40563464054199994 0 0.17575145131799996
v 0.40563464054199994 0.058179790780999982 0.17575145131799996
v 0.40563464054199994 0.058179790780999982 0.17575145131799996
v 0.40563464054199994 0 0.17575145131799996
v 0.40370845311900005 0 0.17826176384100001
v 0.40370845311900005 0.058179790780999982 0.17826176384100001
v 0.40119814059599967 0.058179790780999982 0.180187951264
v 0.40370845311900005 0.058179790780999982 0.17826176384100001
v 0.40370845311900005 0 0.17826176384100001
v 0.40119814059599967 0 0.180187951264
v 0.3846408509039998 0.058179790780999982 0.17575145131799996
v 0.38342998400900008 0 0.17282815924799999
v 0.3846408509039998 0 0.17575145131799996
v 0.38342998400900008 0.058179790780999982 0.17282815924799999
v 0.38342998400900008 0.058179790780999982 0.17282815924799999
v 0.38301695597700025 0 0.16969105644500004
v 0.38342998400900008 0 0.17282815924799999
v 0.38301695597700025 0.058179790780999982 0.16969105644500004
v 0.38301695597700025 0.058179790780999982 0.16969105644500004
v 0.38342998400900008 0 0.16655395364399994
v 0.38301695597700025 0 0.16969105644500004
v 0.38342998400900008 0.058179790780999982 0.16655395364399994
v 0.38342998400900008 0.058179790780999982 0.16655395364399994
v 0.3846408509039998 0 0.16363066157200001
v 0.38342998400900008 0 0.16655395364399994
v 0.3846408509039998 0.058179790780999982 0.16363066157200001
v 0.3846408509039998 0.058179790780999982 0.16363066157200001
v 0.38656703832699968 0 0.16112034904899997
v 0.3846408509039998 0 0.16363066157200001
v 0.38656703832699968 0.058179790780999982 0.16112034904899997
v 0.38907735085000006 0.058179790780999982 0.15919416162599997
v 0.38656703832699968 0 0.16112034904899997
v 0.38656703832699968 0.058179790780999982 0.16112034904899997
v 0.38907735085000006 0 0.15919416162599997
v 0.39200064292100034 0.058179790780999982 0.15798329473100003
v 0.38907735085000006 0 0.15919416162599997
v 0.38907735085000006 0.058179790780999982 0.15919416162599997
v 0.39200064292100034 0 0.15798329473100003
v 0.39513774572299987 0.058179790780999982 0.15757026669899998
v 0.39200064292100034 0 0.15798329473100003
v 0.39200064292100034 0.058179790780999982 0.15798329473100003
v 0.39513774572299987 0 0.15757026669899998
v 0.40119814059599967 0 0.180187951264
v 0.40370845311900005 0 0.17826176384100001
v 0.38907735085000006 0 0.180187951264
v 0.39200064292100034 0 0.18139881816000003
v 0.39827484852500028 0 0.18139881816000003
v 0.39513774572299987 0 0.18181184619099999
v 0.38656703832699968 0 0.17826176384100001
v 0.40563464054199994 0 0.17575145131799996
v 0.3846408509039998 0 0.17575145131799996
v 0.40684550743799974 0 0.17282815924799999
v 0.38342998400900008 0 0.17282815924799999
v 0.39827484852500028 0 0.15798329473100003
v 0.39200064292100034 0 0.15798329473100003
v 0.39513774572299987 0 0.15757026669899998
v 0.38907735085000006 0 0.15919416162599997
v 0.40119814059599967 0 0.15919416162599997
v 0.40370845311900005 0 0.16112034904899997
v 0.38656703832699968 0 0.16112034904899997
v 0.3846408509039998 0 0.16363066157200001
v 0.40563464054199994 0 0.16363066157200001
v 0.38342998400900008 0 0.16655395364399994
v 0.40684550743799974 0 0.16655395364399994
v 0.40725853546900037 0 0.16969105644500004
v 0.38301695597700025 0 0.16969105644500004
v 0.38301695597700025 0.058179790780999982 0.16969105644500004
v 0.38342998400900008 0.058179790780999982 0.17282815924799999
v 0.38342998400900008 0.058179790780999982 0.16655395364399994
v 0.3846408509039998 0.058179790780999982 0.17575145131799996
v 0.3846408509039998 0.058179790780999982 0.16363066157200001
v 0.38656703832699968 0.058179790780999982 0.17826176384100001
v 0.38656703832699968 0.058179790780999982 0.16112034904899997
v 0.38907735085000006 0.058179790780999982 0.180187951264
v 0.38907735085000006 0.058179790780999982 0.15919416162599997
v 0.39200064292100034 0.058179790780999982 0.18139881816000003
v 0.39200064292100034 0.058179790780999982 0.15798329473100003
v 0.39513774572299987 0.058179790780999982 0.18181184619099999
v 0.39513774572299987 0.058179790780999982 0.16969105644500004
v 0.39513774572299987 0.058179790780999982 0.15757026669899998
v 0.39827484852500028 0.058179790780999982 0.18139881816000003
v 0.39827484852500028 0.058179790780999982 0.15798329473100003
v 0.40119814059599967 0.058179790780999982 0.180187951264
v 0.40119814059599967 0.058179790780999982 0.15919416162599997
v 0.40370845311900005 0.058179790780999982 0.17826176384100001
v 0.40370845311900005 0.058179790780999982 0.16112034904899997
v 0.40563464054199994 0.058179790780999982 0.17575145131799996
v 0.40563464054199994 0.058179790780999982 0.16363066157200001
v 0.40684550743799974 0.058179790780999982 0.17282815924799999
v 0.40684550743799974 0.058179790780999982 0.16655395364399994
v 0.40725853546900037 0.058179790780999982 0.16969105644500004
vt -1.7264900207519531 4.7244100570678711
vt -1.4695500135421753 0
vt -1.4695500135421753 4.7244100570678711
vt -1.7264900207519531 0
vt -2.6705501079559326 4.7244100570678711
vt -2.4136099815368652 4.7244100570678711
vt -2.4136099815368652 0
vt -2.6705501079559326 0
vt -3.4413800239562988 4.7244100570678711
vt -3.1844398975372314 4.7244100570678711
vt -3.1844398975372314 0
vt -3.4413800239562988 0
vt -3.9864299297332764 4.7244100570678711
vt -3.7294900417327881 4.7244100570678711
vt -3.7294900417327881 0
vt -3.9864299297332764 0
vt -4.2685699462890625 4.7244100570678711
vt -4.0116300582885742 4.7244100570678711
vt -4.0116300582885742 0
vt -4.2685699462890625 0
vt -4.0116300582885742 4.7244100570678711
vt -4.2685699462890625 0
vt -4.0116300582885742 0
vt -4.2685699462890625 4.7244100570678711
vt 3.1844398975372314 4.7244100570678711
vt 3.4413800239562988 0
vt 3.4413800239562988 4.7244100570678711
vt 3.1844398975372314 0
vt 3.7294900417327881 4.7244100570678711
vt 3.9864299297332764 4.7244100570678711
vt 3.9864299297332764 0
vt 3.7294900417327881 0
vt 4.0116300582885742 4.7244100570678711
vt 4.2685699462890625 0
vt 4.2685699462890625 4.7244100570678711
vt 4.0116300582885742 0
vt 4.2685699462890625 4.7244100570678711
vt 4.0116300582885742 0
vt 4.2685699462890625 0
vt 4.0116300582885742 4.7244100570678711
vt 3.9864299297332764 4.7244100570678711
vt 3.7294900417327881 0
vt 3.9864299297332764 0
vt 3.7294900417327881 4.7244100570678711
vt 3.4413800239562988 4.7244100570678711
vt 3.1844398975372314 0
vt 3.4413800239562988 0
vt 3.1844398975372314 4.7244100570678711
vt 2.6705501079559326 4.7244100570678711
vt 2.4136099815368652 0
vt 2.6705501079559326 0
vt 2.4136099815368652 4.7244100570678711
vt 1.7264900207519531 4.7244100570678711
vt 1.7264900207519531 0
vt 1.4695500135421753 0
vt 1.4695500135421753 4.7244100570678711
vt 0.67352598905563354 4.7244100570678711
vt 0.67352598905563354 0
vt 0.41658401489257812 0
vt 0.41658401489257812 4.7244100570678711
vt -0.67352598905563354 4.7244100570678711
vt -0.41658401489257812 4.7244100570678711
vt -0.41658401489257812 0
vt -0.67352598905563354 0
vt -3.7294900417327881 4.7244100570678711
vt -3.9864299297332764 0
vt -3.7294900417327881 0
vt -3.9864299297332764 4.7244100570678711
vt -3.1844398975372314 4.7244100570678711
vt -3.4413800239562988 0
vt -3.1844398975372314 0
vt -3.4413800239562988 4.7244100570678711
vt -2.4136099815368652 4.7244100570678711
vt -2.6705501079559326 0
vt -2.4136099815368652 0
vt -2.6705501079559326 4.7244100570678711
vt -1.4695500135421753 4.7244100570678711
vt -1.7264900207519531 0
vt -1.4695500135421753 0
vt -1.7264900207519531 4.7244100570678711
vt -0.41658401489257812 4.7244100570678711
vt -0.67352598905563354 0
vt -0.41658401489257812 0
vt -0.67352598905563354 4.7244100570678711
vt 0.41658401489257812 4.7244100570678711
vt 0.67352598905563354 0
vt 0.67352598905563354 4.7244100570678711
vt 0.41658401489257812 0
vt 1.4695500135421753 4.7244100570678711
vt 1.7264900207519531 0
vt 1.7264900207519531 4.7244100570678711
vt 1.4695500135421753 0
vt 2.4136099815368652 4.7244100570678711
vt 2.6705501079559326 0
vt 2.6705501079559326 4.7244100570678711
vt 2.4136099815368652 0
vt -2.100369930267334 2.460629940032959
vt -2.2567799091339111 2.2567799091339111
vt -2.100369930267334 3.4448800086975098
vt -2.002039909362793 3.2074999809265137
vt -2.002039909362793 2.6980099678039551
vt -1.968500018119812 2.9527599811553955
vt -2.2567799091339111 3.6487300395965576
vt -2.460629940032959 2.100369930267334
vt -2.460629940032959 3.8051400184631348
vt -2.6980099678039551 2.002039909362793
vt -2.6980099678039551 3.9034700393676758
vt -3.9034700393676758 2.6980099678039551
vt -3.9034700393676758 3.2074999809265137
vt -3.9370100498199463 2.9527599811553955
vt -3.8051400184631348 3.4448800086975098
vt -3.8051400184631348 2.460629940032959
vt -3.6487300395965576 2.2567799091339111
vt -3.6487300395965576 3.6487300395965576
vt -3.4448800086975098 3.8051400184631348
vt -3.4448800086975098 2.100369930267334
vt -3.2074999809265137 3.9034700393676758
vt -3.2074999809265137 2.002039909362793
vt -2.9527599811553955 1.968500018119812
vt -2.9527599811553955 3.9370100498199463
vt 1 0.5
vt 0.98296201229095459 0.6294100284576416
vt 0.98296201229095459 0.37059000134468079
vt 0.93301200866699219 0.75
vt 0.93301200866699219 0.25
vt 0.85355401039123535 0.85355401039123535
vt 0.85355401039123535 0.14644600450992584
vt 0.75 0.93301200866699219
vt 0.75 0.066987998783588409
vt 0.6294100284576416 0.98296201229095459
vt 0.6294100284576416 0.017038000747561455
vt 0.5 1
vt 0.5 0.5
vt 0.5 0
vt 0.37059000134468079 0.98296201229095459
vt 0.37059000134468079 0.017038000747561455
vt 0.25 0.93301200866699219
vt 0.25 0.066987998783588409
vt 0.14644600450992584 0.85355401039123535
vt 0.14644600450992584 0.14644600450992584
vt 0.066987998783588409 0.75
vt 0.066987998783588409 0.25
vt 0.017038000747561455 0.6294100284576416
vt 0.017038000747561455 0.37059000134468079
vt 0 0.5
vn 0.38268333673477173 0 0.92387956380844116
vn 0.38268333673477173 0 0.92387956380844116
vn 0.38268333673477173 0 0.92387956380844116
vn 0.38268333673477173 0 0.92387956380844116
vn 0.13053259253501892 0 0.99144399166107178
vn 0.13053259253501892 0 0.99144399166107178
vn 0.13053259253501892 0 0.99144399166107178
vn 0.13053259253501892 0 0.99144399166107178
vn -0.13053259253501892 0 0.99144399166107178
vn -0.13053259253501892 0 0.99144399166107178
vn -0.13053259253501892 0 0.99144399166107178
vn -0.13053259253501892 0 0.99144399166107178
vn -0.38268333673477173 0 0.92387956380844116
vn -0.38268333673477173 0 0.92387956380844116
vn -0.38268333673477173 0 0.92387956380844116
vn -0.38268333673477173 0 0.92387956380844116
vn -0.60875284671783447 0 0.79335993528366089
vn -0.60875284671783447 0 0.79335993528366089
vn -0.60875284671783447 0 0.79335993528366089
vn -0.60875284671783447 0 0.79335993528366089
vn -0.79335993528366089 0 0.60875284671783447
vn -0.79335993528366089 0 0.60875284671783447
vn -0.79335993528366089 0 0.60875284671783447
vn -0.79335993528366089 0 0.60875284671783447
vn 0.13053259253501892 0 -0.99144399166107178
vn 0.13053259253501892 0 -0.99144399166107178
vn 0.13053259253501892 0 -0.99144399166107178
vn 0.13053259253501892 0 -0.99144399166107178
vn 0.38268333673477173 0 -0.92387956380844116
vn 0.38268333673477173 0 -0.92387956380844116
vn 0.38268333673477173 0 -0.92387956380844116
vn 0.38268333673477173 0 -0.92387956380844116
vn 0.60875284671783447 0 -0.79335993528366089
vn 0.60875284671783447 0 -0.79335993528366089
vn 0.60875284671783447 0 -0.79335993528366089
vn 0.60875284671783447 0 -0.79335993528366089
vn 0.79335993528366089 0 -0.60875284671783447
vn 0.79335993528366089 0 -0.60875284671783447
vn 0.79335993528366089 0 -0.60875284671783447
vn 0.79335993528366089 0 -0.60875284671783447
vn 0.92387956380844116 0 -0.38268333673477173
vn 0.92387956380844116 0 -0.38268333673477173
vn 0.92387956380844116 0 -0.38268333673477173
vn 0.92387956380844116 0 -0.38268333673477173
vn 0.99144399166107178 0 -0.13053259253501892
vn 0.99144399166107178 0 -0.13053259253501892
vn 0.99144399166107178 0 -0.13053259253501892
vn 0.99144399166107178 0 -0.13053259253501892
vn 0.99144399166107178 0 0.13053259253501892
vn 0.99144399166107178 0 0.13053259253501892
vn 0.99144399166107178 0 0.13053259253501892
vn 0.99144399166107178 0 0.13053259253501892
vn 0.92387956380844116 0 0.38268333673477173
vn 0.92387956380844116 0 0.38268333673477173
vn 0.92387956380844116 0 0.38268333673477173
vn 0.92387956380844116 0 0.38268333673477173
vn 0.79335993528366089 0 0.60875284671783447
vn 0.79335993528366089 0 0.60875284671783447
vn 0.79335993528366089 0 0.60875284671783447
vn 0.79335993528366089 0 0.60875284671783447
vn 0.60875284671783447 0 0.79335993528366089
vn 0.60875284671783447 0 0.79335993528366089
vn 0.60875284671783447 0 0.79335993528366089
vn 0.60875284671783447 0 0.79335993528366089
vn -0.92387956380844116 0 0.38268333673477173
vn -0.92387956380844116 0 0.38268333673477173
vn -0.92387956380844116 0 0.38268333673477173
vn -0.92387956380844116 0 0.38268333673477173
vn -0.99144399166107178 0 0.13053259253501892
vn -0.99144399166107178 0 0.13053259253501892
vn -0.99144399166107178 0 0.13053259253501892
vn -0.99144399166107178 0 0.13053259253501892
vn -0.99144399166107178 0 -0.13053259253501892
vn -0.99144399166107178 0 -0.13053259253501892
vn -0.99144399166107178 0 -0.13053259253501892
vn -0.99144399166107178 0 -0.13053259253501892
vn -0.92387956380844116 0 -0.38268333673477173
vn -0.92387956380844116 0 -0.38268333673477173
vn -0.92387956380844116 0 -0.38268333673477173
vn -0.92387956380844116 0 -0.38268333673477173
vn -0.79335993528366089 0 -0.60875284671783447
vn -0.79335993528366089 0 -0.60875284671783447
vn -0.79335993528366089 0 -0.60875284671783447
vn -0.79335993528366089 0 -0.60875284671783447
vn -0.60875284671783447 0 -0.79335993528366089
vn -0.60875284671783447 0 -0.79335993528366089
vn -0.60875284671783447 0 -0.79335993528366089
vn -0.60875284671783447 0 -0.79335993528366089
vn -0.38268333673477173 0 -0.92387956380844116
vn -0.38268333673477173 0 -0.92387956380844116
vn -0.38268333673477173 0 -0.92387956380844116
vn -0.38268333673477173 0 -0.92387956380844116
vn -0.13053259253501892 0 -0.99144399166107178
vn -0.13053259253501892 0 -0.99144399166107178
vn -0.13053259253501892 0 -0.99144399166107178
vn -0.13053259253501892 0 -0.99144399166107178
vn 0 -1 0
vn 0 -1 0
vn 0 -1 0
vn 0 -1 0
vn 0 -1 0
vn 0 -1 0
vn 0 -1 0
vn 0 -1 0
vn 0 -1 0
vn 0 -1 0
vn 0 -1 0
vn 0 -1 0
vn 0 -1 0
vn 0 -1 0
vn 0 -1 0
vn 0 -1 0
vn 0 -1 0
vn 0 -1 0
vn 0 -1 0
vn 0 -1 0
vn 0 -1 0
vn 0 -1 0
vn 0 -1 0
vn 0 -1 0
vn 0 1 0
vn 0 1 0
vn 0 1 0
vn 0 1 0
vn 0 1 0
vn 0 1 0
vn 0 1 0
vn 0 1 0
vn 0 1 0
vn 0 1 0
vn 0 1 0
vn 0 1 0
vn 0 1 0
vn 0 1 0
vn 0 1 0
vn 0 1 0
vn 0 1 0
vn 0 1 0
vn 0 1 0
vn 0 1 0
vn 0 1 0
vn 0 1 0
vn 0 1 0
vn 0 1 0
vn 0 1 0
f 1/1/1 2/2/2 3/3/3
f 2/2/2 1/1/1 4/4/4
f 5/5/5 7/7/7 6/6/6
f 7/7/7 5/5/5 8/8/8
f 9/9/9 11/11/11 10/10/10
f 11/11/11 9/9/9 12/12/12
f 13/13/13 15/15/15 14/14/14
f 15/15/15 13/13/13 16/16/16
f 17/17/17 19/19/19 18/18/18
f 19/19/19 17/17/17 20/20/20
f 21/21/21 22/22/22 23/23/23
f 22/22/22 21/21/21 24/24/24
f 25/25/25 26/26/26 27/27/27
f 26/26/26 25/25/25 28/28/28
f 29/29/29 31/31/31 30/30/30
f 31/31/31 29/29/29 32/32/32
f 33/33/33 34/34/34 35/35/35
f 34/34/34 33/33/33 36/36/36
f 37/37/37 38/38/38 39/39/39
f 38/38/38 37/37/37 40/40/40
f 41/41/41 42/42/42 43/43/43
f 42/42/42 41/41/41 44/44/44
f 45/45/45 46/46/46 47/47/47
f 46/46/46 45/45/45 48/48/48
f 49/49/49 50/50/50 51/51/51
f 50/50/50 49/49/49 52/52/52
f 53/53/53 55/55/55 54/54/54
f 55/55/55 53/53/53 56/56/56
f 57/57/57 59/59/59 58/58/58
f 59/59/59 57/57/57 60/60/60
f 61/61/61 63/63/63 62/62/62
f 63/63/63 61/61/61 64/64/64
f 65/65/65 66/66/66 67/67/67
f 66/66/66 65/65/65 68/68/68
f 69/69/69 70/70/70 71/71/71
f 70/70/70 69/69/69 72/72/72
f 73/73/73 74/74/74 75/75/75
f 74/74/74 73/73/73 76/76/76
f 77/77/77 78/78/78 79/79/79
f 78/78/78 77/77/77 80/80/80
f 81/81/81 82/82/82 83/83/83
f 82/82/82 81/81/81 84/84/84
f 85/85/85 86/86/86 87/87/87
f 86/86/86 85/85/85 88/88/88
f 89/89/89 90/90/90 91/91/91
f 90/90/90 89/89/89 92/92/92
f 93/93/93 94/94/94 95/95/95
f 94/94/94 93/93/93 96/96/96
f 97/97/97 99/99/99 98/98/98
f 97/97/97 100/100/100 99/99/99
f 101/101/101 100/100/100 97/97/97
f 100/100/100 101/101/101 102/102/102
f 98/98/98 99/99/99 103/103/103
f 98/98/98 103/103/103 104/104/104
f 104/104/104 103/103/103 105/105/105
f 104/104/104 105/105/105 106/106/106
f 106/106/106 105/105/105 107/107/107
f 108/108/108 109/109/109 110/110/110
f 108/108/108 111/111/111 109/109/109
f 112/112/112 111/111/111 108/108/108
f 113/113/113 111/111/111 112/112/112
f 113/113/113 114/114/114 111/111/111
f 113/113/113 115/115/115 114/114/114
f 116/116/116 115/115/115 113/113/113
f 116/116/116 117/117/117 115/115/115
f 118/118/118 117/117/117 116/116/116
f 119/119/119 117/117/117 118/118/118
f 119/119/119 120/120/120 117/117/117
f 119/119/119 107/107/107 120/120/120
f 106/106/106 107/107/107 119/119/119
f 144/144/144 142/142/142 133/133/133
f 142/142/142 140/140/140 133/133/133
f 145/145/145 144/144/144 133/133/133
f 133/133/133 140/140/140 138/138/138
f 136/136/136 133/133/133 138/138/138
f 141/141/141 133/133/133 139/139/139
f 145/145/145 133/133/133 143/143/143
f 137/137/137 139/139/139 133/133/133
f 133/133/133 135/135/135 137/137/137
f 133/133/133 141/141/141 143/143/143
f 133/133/133 136/136/136 134/134/134
f 129/129/129 133/133/133 131/131/131
f 134/134/134 131/131/131 133/133/133
f 127/127/127 133/133/133 129/129/129
f 133/133/133 125/125/125 123/123/123
f 127/127/127 125/125/125 133/133/133
f 121/121/121 133/133/133 123/123/123
f 130/130/130 133/133/133 128/128/128
f 133/133/133 130/130/130 132/132/132
f 124/124/124 126/126/126 133/133/133
f 126/126/126 128/128/128 133/133/133
f 124/124/124 133/133/133 122/122/122
f 122/122/122 133/133/133 121/121/121
f 135/135/135 133/133/133 132/132/132
