# Rhino

mtllib Sofa_01_03.mtl
usemtl Default
v 0.11606668193221337 0.11384116542545857 0.08004098789208236
v 0.15566039681763488 0.22768233085030587 0.11963470277690069
v -0.026935256114770212 0.11384116542572532 0.22304292594070119
v 0.14414733078633635 0.11384116542545868 0.10812163674595987
v 0.18374104567175786 0.22768233085030584 0.14771535163077765
v 0.0011453927393527685 0.11384116542572538 0.25112357479457847
v -0.028080648853238355 0.22768233085039771 0.30337574844920734
v 0 0.22768233085039774 0.33145639730308452
v 0.14414733078633635 0.11384116542545868 0.10812163674595987
v 0.18374104567175786 0.22768233085030584 0.14771535163077765
v 0.15566039681763488 0.22768233085030587 0.11963470277690069
v 0.11606668193221337 0.11384116542545857 0.08004098789208236
v 0.0011453927393527685 0.11384116542572538 0.25112357479457847
v 0.14414733078633635 0.11384116542545868 0.10812163674595987
v 0.11606668193221337 0.11384116542545857 0.08004098789208236
v -0.026935256114770212 0.11384116542572532 0.22304292594070119
v 0.18374104567175786 0.22768233085030584 0.14771535163077765
v 0 0.22768233085039774 0.33145639730308452
v -0.028080648853238355 0.22768233085039771 0.30337574844920734
v 0.15566039681763488 0.22768233085030587 0.11963470277690069
v 0 0.22768233085039774 0.33145639730308452
v 0.0011453927393527685 0.11384116542572538 0.25112357479457847
v -0.026935256114770212 0.11384116542572532 0.22304292594070119
v -0.028080648853238355 0.22768233085039771 0.30337574844920734
vt 0.83333331346511841 0.1666666716337204
vt 0.83333331346511841 0.66666668653488159
vt 0.3333333432674408 0.1666666716337204
vt 1 0
vt 1 1
vt 0 0
vt 0.1666666716337204 0.83333331346511841
vt 0 1
vt 1 0
vt 1 1
vt 0.83333331346511841 0.66666668653488159
vt 0.83333331346511841 0.1666666716337204
vt 0 0
vt 1 0
vt 0.83333331346511841 0.1666666716337204
vt 0.3333333432674408 0.1666666716337204
vt 1 1
vt 0 1
vt 0.1666666716337204 0.83333331346511841
vt 0.83333331346511841 0.66666668653488159
vt 0 1
vt 0 0
vt 0.3333333432674408 0.1666666716337204
vt 0.1666666716337204 0.83333331346511841
vn -0.63450789451599121 0.44136098027229309 -0.63450789451599121
vn -0.63450789451599121 0.44136098027229309 -0.63450789451599121
vn -0.63450789451599121 0.44136098027229309 -0.63450789451599121
vn 0.63450789451599121 -0.44136098027229309 0.63450789451599121
vn 0.63450789451599121 -0.44136098027229309 0.63450789451599121
vn 0.63450789451599121 -0.44136098027229309 0.63450789451599121
vn -0.63450789451599121 0.44136098027229309 -0.63450789451599121
vn 0.63450789451599121 -0.44136098027229309 0.63450789451599121
vn 0.70710676908493042 0 -0.70710676908493042
vn 0.70710676908493042 0 -0.70710676908493042
vn 0.70710676908493042 0 -0.70710676908493042
vn 0.70710676908493042 0 -0.70710676908493042
vn 0 -1 0
vn 0 -1 0
vn 0 -1 0
vn 0 -1 0
vn 0 1 0
vn 0 1 0
vn 0 1 0
vn 0 1 0
vn -0.63091135025024414 -0.45155483484268188 0.63091135025024414
vn -0.63091135025024414 -0.45155483484268188 0.63091135025024414
vn -0.63091135025024414 -0.45155483484268188 0.63091135025024414
vn -0.63091135025024414 -0.45155483484268188 0.63091135025024414
f 1/1/1 3/3/3 2/2/2
f 4/4/4 5/5/5 6/6/6
f 7/7/7 2/2/2 3/3/3
f 8/8/8 6/6/6 5/5/5
f 9/9/9 12/12/12 11/11/11 10/10/10
f 13/13/13 16/16/16 15/15/15 14/14/14
f 17/17/17 20/20/20 19/19/19 18/18/18
f 21/21/21 24/24/24 23/23/23 22/22/22
