# Rhino

mtllib Sofa_11_03.mtl
usemtl Default
v -0.38301695597700025 0 -0.16969105644500004
v -0.40684642861799958 0 -0.17282791683199994
v -0.38342906282800016 0 -0.17282791683199994
v -0.40725853546900037 0 -0.16969105644500004
v -0.38342906282800016 0 -0.16655419605900001
v -0.40684642861799958 0 -0.16655419605900001
v -0.40563434964299994 0 -0.16363066157200001
v -0.3846411418029998 0 -0.16363066157200001
v -0.38656592321499961 0 -0.1611202035999999
v -0.40370956823100013 0 -0.1611202035999999
v -0.38907735085000006 0 -0.15919396769399996
v -0.40119814059599967 0 -0.15919396769399996
v -0.39200088533699962 0 -0.15798334321400009
v -0.39827460610900012 0 -0.15798334321400009
v -0.39513774572299987 0 -0.15757026669899998
v -0.3846411418029998 0 -0.17575145131800007
v -0.40563434964299994 0 -0.17575145131800007
v -0.38656592321499961 0 -0.17826190928999996
v -0.40370956823100013 0 -0.17826190928999996
v -0.40119814059599967 0 -0.18018814519699999
v -0.38907735085000006 0 -0.18018814519699999
v -0.39827460610900012 0 -0.18139876967700008
v -0.39200088533699962 0 -0.18139876967700008
v -0.39513774572299987 0 -0.1818118461910001
v -0.3846411418029998 0.058179790780999982 -0.17575145131800007
v -0.38342906282800016 0 -0.17282791683199994
v -0.3846411418029998 0 -0.17575145131800007
v -0.38342906282800016 0.058179790780999982 -0.17282791683199994
v -0.38656592321499961 0.058179790780999982 -0.17826190928999996
v -0.3846411418029998 0 -0.17575145131800007
v -0.38656592321499961 0 -0.17826190928999996
v -0.3846411418029998 0.058179790780999982 -0.17575145131800007
v -0.38656592321499961 0.058179790780999982 -0.17826190928999996
v -0.38907735085000006 0 -0.18018814519699999
v -0.38907735085000006 0.058179790780999982 -0.18018814519699999
v -0.38656592321499961 0 -0.17826190928999996
v -0.38907735085000006 0.058179790780999982 -0.18018814519699999
v -0.39200088533699962 0 -0.18139876967700008
v -0.39200088533699962 0.058179790780999982 -0.18139876967700008
v -0.38907735085000006 0 -0.18018814519699999
v -0.39200088533699962 0.058179790780999982 -0.18139876967700008
v -0.39513774572299987 0 -0.1818118461910001
v -0.39513774572299987 0.058179790780999982 -0.1818118461910001
v -0.39200088533699962 0 -0.18139876967700008
v -0.39513774572299987 0.058179790780999982 -0.1818118461910001
v -0.39827460610900012 0 -0.18139876967700008
v -0.39827460610900012 0.058179790780999982 -0.18139876967700008
v -0.39513774572299987 0 -0.1818118461910001
v -0.39827460610900012 0.058179790780999982 -0.18139876967700008
v -0.40119814059599967 0 -0.18018814519699999
v -0.40119814059599967 0.058179790780999982 -0.18018814519699999
v -0.39827460610900012 0 -0.18139876967700008
v -0.40119814059599967 0.058179790780999982 -0.18018814519699999
v -0.40370956823100013 0 -0.17826190928999996
v -0.40370956823100013 0.058179790780999982 -0.17826190928999996
v -0.40119814059599967 0 -0.18018814519699999
v -0.40563434964299994 0.058179790780999982 -0.17575145131800007
v -0.40370956823100013 0 -0.17826190928999996
v -0.40563434964299994 0 -0.17575145131800007
v -0.40370956823100013 0.058179790780999982 -0.17826190928999996
v -0.40684642861799958 0.058179790780999982 -0.17282791683199994
v -0.40563434964299994 0 -0.17575145131800007
v -0.40684642861799958 0 -0.17282791683199994
v -0.40563434964299994 0.058179790780999982 -0.17575145131800007
v -0.40725853546900037 0.058179790780999982 -0.16969105644500004
v -0.40684642861799958 0 -0.17282791683199994
v -0.40725853546900037 0 -0.16969105644500004
v -0.40684642861799958 0.058179790780999982 -0.17282791683199994
v -0.40684642861799958 0.058179790780999982 -0.16655419605900001
v -0.40725853546900037 0 -0.16969105644500004
v -0.40684642861799958 0 -0.16655419605900001
v -0.40725853546900037 0.058179790780999982 -0.16969105644500004
v -0.40563434964299994 0.058179790780999982 -0.16363066157200001
v -0.40684642861799958 0 -0.16655419605900001
v -0.40563434964299994 0 -0.16363066157200001
v -0.40684642861799958 0.058179790780999982 -0.16655419605900001
v -0.39513774572299987 0 -0.15757026669899998
v -0.39827460610900012 0 -0.15798334321400009
v -0.39827460610900012 0.058179790780999982 -0.15798334321400009
v -0.39513774572299987 0.058179790780999982 -0.15757026669899998
v -0.39827460610900012 0 -0.15798334321400009
v -0.40119814059599967 0 -0.15919396769399996
v -0.40119814059599967 0.058179790780999982 -0.15919396769399996
v -0.39827460610900012 0.058179790780999982 -0.15798334321400009
v -0.40119814059599967 0 -0.15919396769399996
v -0.40370956823100013 0 -0.1611202035999999
v -0.40370956823100013 0.058179790780999982 -0.1611202035999999
v -0.40119814059599967 0.058179790780999982 -0.15919396769399996
v -0.40563434964299994 0 -0.16363066157200001
v -0.40563434964299994 0.058179790780999982 -0.16363066157200001
v -0.40370956823100013 0.058179790780999982 -0.1611202035999999
v -0.40370956823100013 0 -0.1611202035999999
v -0.38342906282800016 0 -0.16655419605900001
v -0.38301695597700025 0.058179790780999982 -0.16969105644500004
v -0.38342906282800016 0.058179790780999982 -0.16655419605900001
v -0.38301695597700025 0 -0.16969105644500004
v -0.3846411418029998 0 -0.16363066157200001
v -0.38342906282800016 0.058179790780999982 -0.16655419605900001
v -0.3846411418029998 0.058179790780999982 -0.16363066157200001
v -0.38342906282800016 0 -0.16655419605900001
v -0.38656592321499961 0 -0.1611202035999999
v -0.3846411418029998 0.058179790780999982 -0.16363066157200001
v -0.38656592321499961 0.058179790780999982 -0.1611202035999999
v -0.3846411418029998 0 -0.16363066157200001
v -0.38656592321499961 0 -0.1611202035999999
v -0.38907735085000006 0.058179790780999982 -0.15919396769399996
v -0.38907735085000006 0 -0.15919396769399996
v -0.38656592321499961 0.058179790780999982 -0.1611202035999999
v -0.38907735085000006 0 -0.15919396769399996
v -0.39200088533699962 0.058179790780999982 -0.15798334321400009
v -0.39200088533699962 0 -0.15798334321400009
v -0.38907735085000006 0.058179790780999982 -0.15919396769399996
v -0.39200088533699962 0 -0.15798334321400009
v -0.39513774572299987 0.058179790780999982 -0.15757026669899998
v -0.39513774572299987 0 -0.15757026669899998
v -0.39200088533699962 0.058179790780999982 -0.15798334321400009
v -0.38301695597700025 0 -0.16969105644500004
v -0.38342906282800016 0.058179790780999982 -0.17282791683199994
v -0.38301695597700025 0.058179790780999982 -0.16969105644500004
v -0.38342906282800016 0 -0.17282791683199994
v -0.40725853546900037 0.058179790780999982 -0.16969105644500004
v -0.40684642861799958 0.058179790780999982 -0.16655419605900001
v -0.40684642861799958 0.058179790780999982 -0.17282791683199994
v -0.40563434964299994 0.058179790780999982 -0.16363066157200001
v -0.40563434964299994 0.058179790780999982 -0.17575145131800007
v -0.40370956823100013 0.058179790780999982 -0.1611202035999999
v -0.40370956823100013 0.058179790780999982 -0.17826190928999996
v -0.40119814059599967 0.058179790780999982 -0.15919396769399996
v -0.40119814059599967 0.058179790780999982 -0.18018814519699999
v -0.39827460610900012 0.058179790780999982 -0.15798334321400009
v -0.39827460610900012 0.058179790780999982 -0.18139876967700008
v -0.39513774572299987 0.058179790780999982 -0.15757026669899998
v -0.39513774572299987 0.058179790780999982 -0.16969105644500004
v -0.39513774572299987 0.058179790780999982 -0.1818118461910001
v -0.39200088533699962 0.058179790780999982 -0.15798334321400009
v -0.39200088533699962 0.058179790780999982 -0.18139876967700008
v -0.38907735085000006 0.058179790780999982 -0.15919396769399996
v -0.38907735085000006 0.058179790780999982 -0.18018814519699999
v -0.38656592321499961 0.058179790780999982 -0.1611202035999999
v -0.38656592321499961 0.058179790780999982 -0.17826190928999996
v -0.3846411418029998 0.058179790780999982 -0.16363066157200001
v -0.3846411418029998 0.058179790780999982 -0.17575145131800007
v -0.38342906282800016 0.058179790780999982 -0.16655419605900001
v -0.38342906282800016 0.058179790780999982 -0.17282791683199994
v -0.38301695597700025 0.058179790780999982 -0.16969105644500004
vt -30.511800765991211 66.141700744628906
vt -30.766599655151367 68.076698303222656
vt -30.766599655151367 66.175300598144531
vt -30.511800765991211 68.110198974609375
vt -30.257099151611328 66.175300598144531
vt -30.257099151611328 68.076698303222656
vt -30.019699096679688 67.978401184082031
vt -30.019699096679688 66.273597717285156
vt -29.815799713134766 66.430000305175781
vt -29.815799713134766 67.821998596191406
vt -29.659400939941406 66.633903503417969
vt -29.659400939941406 67.61810302734375
vt -29.561100006103516 66.871200561523438
vt -29.561100006103516 67.380699157714844
vt -29.527599334716797 67.125999450683594
vt -31.003900527954102 66.273597717285156
vt -31.003900527954102 67.978401184082031
vt -31.207799911499023 66.430000305175781
vt -31.207799911499023 67.821998596191406
vt -31.364200592041016 67.61810302734375
vt -31.364200592041016 66.633903503417969
vt -31.462499618530273 67.380699157714844
vt -31.462499618530273 66.871200561523438
vt -31.496099472045898 67.125999450683594
vt 54.005699157714844 4.7244100570678711
vt 53.748798370361328 0
vt 54.005699157714844 0
vt 53.748798370361328 4.7244100570678711
vt 65.198799133300781 4.7244100570678711
vt 64.941902160644531 0
vt 65.198799133300781 0
vt 64.941902160644531 4.7244100570678711
vt 71.700599670410156 4.7244100570678711
vt 71.957496643066406 0
vt 71.957496643066406 4.7244100570678711
vt 71.700599670410156 0
vt 73.564201354980469 4.7244100570678711
vt 73.821197509765625 0
vt 73.821197509765625 4.7244100570678711
vt 73.564201354980469 0
vt 70.405799865722656 4.7244100570678711
vt 70.662803649902344 0
vt 70.662803649902344 4.7244100570678711
vt 70.405799865722656 0
vt 62.440700531005859 4.7244100570678711
vt 62.697601318359375 0
vt 62.697601318359375 4.7244100570678711
vt 62.440700531005859 0
vt 50.211498260498047 4.7244100570678711
vt 50.468399047851562 0
vt 50.468399047851562 4.7244100570678711
vt 50.211498260498047 0
vt 34.551700592041016 4.7244100570678711
vt 34.808700561523438 0
vt 34.808700561523438 4.7244100570678711
vt 34.551700592041016 0
vt 16.785499572753906 4.7244100570678711
vt 16.528600692749023 0
vt 16.785499572753906 0
vt 16.528600692749023 4.7244100570678711
vt -2.3727600574493408 4.7244100570678711
vt -2.6297099590301514 0
vt -2.3727600574493408 0
vt -2.6297099590301514 4.7244100570678711
vt -21.360599517822266 4.7244100570678711
vt -21.617500305175781 0
vt -21.360599517822266 0
vt -21.617500305175781 4.7244100570678711
vt -38.883998870849609 4.7244100570678711
vt -39.140899658203125 0
vt -38.883998870849609 0
vt -39.140899658203125 4.7244100570678711
vt -53.748798370361328 4.7244100570678711
vt -54.005699157714844 0
vt -53.748798370361328 0
vt -54.005699157714844 4.7244100570678711
vt -70.405799865722656 0
vt -70.662803649902344 0
vt -70.662803649902344 4.7244100570678711
vt -70.405799865722656 4.7244100570678711
vt -73.564201354980469 0
vt -73.821197509765625 0
vt -73.821197509765625 4.7244100570678711
vt -73.564201354980469 4.7244100570678711
vt -71.700599670410156 0
vt -71.957496643066406 0
vt -71.957496643066406 4.7244100570678711
vt -71.700599670410156 4.7244100570678711
vt -65.198799133300781 0
vt -65.198799133300781 4.7244100570678711
vt -64.941902160644531 4.7244100570678711
vt -64.941902160644531 0
vt 21.360599517822266 0
vt 21.617500305175781 4.7244100570678711
vt 21.360599517822266 4.7244100570678711
vt 21.617500305175781 0
vt 2.3727600574493408 0
vt 2.6297099590301514 4.7244100570678711
vt 2.3727600574493408 4.7244100570678711
vt 2.6297099590301514 0
vt -16.785499572753906 0
vt -16.528600692749023 4.7244100570678711
vt -16.785499572753906 4.7244100570678711
vt -16.528600692749023 0
vt -34.551700592041016 0
vt -34.808700561523438 4.7244100570678711
vt -34.808700561523438 0
vt -34.551700592041016 4.7244100570678711
vt -50.211498260498047 0
vt -50.468399047851562 4.7244100570678711
vt -50.468399047851562 0
vt -50.211498260498047 4.7244100570678711
vt -62.440700531005859 0
vt -62.697601318359375 4.7244100570678711
vt -62.697601318359375 0
vt -62.440700531005859 4.7244100570678711
vt 38.883998870849609 0
vt 39.140899658203125 4.7244100570678711
vt 38.883998870849609 4.7244100570678711
vt 39.140899658203125 0
vt 1 0.5
vt 0.98299998044967651 0.37059998512268066
vt 0.98299998044967651 0.62940001487731934
vt 0.93300002813339233 0.25
vt 0.93300002813339233 0.75
vt 0.85360002517700195 0.14643999934196472
vt 0.85360002517700195 0.85355997085571289
vt 0.75 0.066979996860027313
vt 0.75 0.93301999568939209
vt 0.62940001487731934 0.01703999936580658
vt 0.62940001487731934 0.98295998573303223
vt 0.5 0
vt 0.5 0.5
vt 0.5 1
vt 0.37059998512268066 0.01703999936580658
vt 0.37059998512268066 0.98295998573303223
vt 0.25 0.066979996860027313
vt 0.25 0.93301999568939209
vt 0.14640000462532043 0.14643999934196472
vt 0.14640000462532043 0.85355997085571289
vt 0.067000001668930054 0.25
vt 0.067000001668930054 0.75
vt 0.016999999061226845 0.37059998512268066
vt 0.016999999061226845 0.62940001487731934
vt 0 0.5
vn 0 -1 0
vn 0 -1 0
vn 0 -1 0
vn 0 -1 0
vn 0 -1 0
vn 0 -1 0
vn 0 -1 0
vn 0 -1 0
vn 0 -1 0
vn 0 -1 0
vn 0 -1 0
vn 0 -1 0
vn 0 -1 0
vn 0 -1 0
vn 0 -1 0
vn 0 -1 0
vn 0 -1 0
vn 0 -1 0
vn 0 -1 0
vn 0 -1 0
vn 0 -1 0
vn 0 -1 0
vn 0 -1 0
vn 0 -1 0
vn 0.92375534772872925 0 -0.38298314809799194
vn 0.92375534772872925 0 -0.38298314809799194
vn 0.92375534772872925 0 -0.38298314809799194
vn 0.92375534772872925 0 -0.38298314809799194
vn 0.79359155893325806 0 -0.60845082998275757
vn 0.79359155893325806 0 -0.60845082998275757
vn 0.79359155893325806 0 -0.60845082998275757
vn 0.79359155893325806 0 -0.60845082998275757
vn 0.60859233140945435 0 -0.79348307847976685
vn 0.60859233140945435 0 -0.79348307847976685
vn 0.60859233140945435 0 -0.79348307847976685
vn 0.60859233140945435 0 -0.79348307847976685
vn 0.38259086012840271 0 -0.92391788959503174
vn 0.38259086012840271 0 -0.92391788959503174
vn 0.38259086012840271 0 -0.92391788959503174
vn 0.38259086012840271 0 -0.92391788959503174
vn 0.13055756688117981 0 -0.99144071340560913
vn 0.13055756688117981 0 -0.99144071340560913
vn 0.13055756688117981 0 -0.99144071340560913
vn 0.13055756688117981 0 -0.99144071340560913
vn -0.13055756688117981 0 -0.99144071340560913
vn -0.13055756688117981 0 -0.99144071340560913
vn -0.13055756688117981 0 -0.99144071340560913
vn -0.13055756688117981 0 -0.99144071340560913
vn -0.38259086012840271 0 -0.92391788959503174
vn -0.38259086012840271 0 -0.92391788959503174
vn -0.38259086012840271 0 -0.92391788959503174
vn -0.38259086012840271 0 -0.92391788959503174
vn -0.60859233140945435 0 -0.79348307847976685
vn -0.60859233140945435 0 -0.79348307847976685
vn -0.60859233140945435 0 -0.79348307847976685
vn -0.60859233140945435 0 -0.79348307847976685
vn -0.79359155893325806 0 -0.60845082998275757
vn -0.79359155893325806 0 -0.60845082998275757
vn -0.79359155893325806 0 -0.60845082998275757
vn -0.79359155893325806 0 -0.60845082998275757
vn -0.92375534772872925 0 -0.38298314809799194
vn -0.92375534772872925 0 -0.38298314809799194
vn -0.92375534772872925 0 -0.38298314809799194
vn -0.92375534772872925 0 -0.38298314809799194
vn -0.99148035049438477 0 -0.13025631010532379
vn -0.99148035049438477 0 -0.13025631010532379
vn -0.99148035049438477 0 -0.13025631010532379
vn -0.99148035049438477 0 -0.13025631010532379
vn -0.99148035049438477 0 0.13025631010532379
vn -0.99148035049438477 0 0.13025631010532379
vn -0.99148035049438477 0 0.13025631010532379
vn -0.99148035049438477 0 0.13025631010532379
vn -0.92375534772872925 0 0.38298314809799194
vn -0.92375534772872925 0 0.38298314809799194
vn -0.92375534772872925 0 0.38298314809799194
vn -0.92375534772872925 0 0.38298314809799194
vn -0.13055756688117981 0 0.99144071340560913
vn -0.13055756688117981 0 0.99144071340560913
vn -0.13055756688117981 0 0.99144071340560913
vn -0.13055756688117981 0 0.99144071340560913
vn -0.38259086012840271 0 0.92391788959503174
vn -0.38259086012840271 0 0.92391788959503174
vn -0.38259086012840271 0 0.92391788959503174
vn -0.38259086012840271 0 0.92391788959503174
vn -0.60859233140945435 0 0.79348307847976685
vn -0.60859233140945435 0 0.79348307847976685
vn -0.60859233140945435 0 0.79348307847976685
vn -0.60859233140945435 0 0.79348307847976685
vn -0.79359155893325806 0 0.60845082998275757
vn -0.79359155893325806 0 0.60845082998275757
vn -0.79359155893325806 0 0.60845082998275757
vn -0.79359155893325806 0 0.60845082998275757
vn 0.99148035049438477 0 0.13025631010532379
vn 0.99148035049438477 0 0.13025631010532379
vn 0.99148035049438477 0 0.13025631010532379
vn 0.99148035049438477 0 0.13025631010532379
vn 0.92375534772872925 0 0.38298314809799194
vn 0.92375534772872925 0 0.38298314809799194
vn 0.92375534772872925 0 0.38298314809799194
vn 0.92375534772872925 0 0.38298314809799194
vn 0.79359155893325806 0 0.60845082998275757
vn 0.79359155893325806 0 0.60845082998275757
vn 0.79359155893325806 0 0.60845082998275757
vn 0.79359155893325806 0 0.60845082998275757
vn 0.60859233140945435 0 0.79348307847976685
vn 0.60859233140945435 0 0.79348307847976685
vn 0.60859233140945435 0 0.79348307847976685
vn 0.60859233140945435 0 0.79348307847976685
vn 0.38259086012840271 0 0.92391788959503174
vn 0.38259086012840271 0 0.92391788959503174
vn 0.38259086012840271 0 0.92391788959503174
vn 0.38259086012840271 0 0.92391788959503174
vn 0.13055756688117981 0 0.99144071340560913
vn 0.13055756688117981 0 0.99144071340560913
vn 0.13055756688117981 0 0.99144071340560913
vn 0.13055756688117981 0 0.99144071340560913
vn 0.99148035049438477 0 -0.13025631010532379
vn 0.99148035049438477 0 -0.13025631010532379
vn 0.99148035049438477 0 -0.13025631010532379
vn 0.99148035049438477 0 -0.13025631010532379
vn 0 1 0
vn 0 1 0
vn 0 1 0
vn 0 1 0
vn 0 1 0
vn 0 1 0
vn 0 1 0
vn 0 1 0
vn 0 1 0
vn 0 1 0
vn 0 1 0
vn 0 1 0
vn 0 1 0
vn 0 1 0
vn 0 1 0
vn 0 1 0
vn 0 1 0
vn 0 1 0
vn 0 1 0
vn 0 1 0
vn 0 1 0
vn 0 1 0
vn 0 1 0
vn 0 1 0
vn 0 1 0
f 1/1/1 2/2/2 3/3/3
f 1/1/1 4/4/4 2/2/2
f 5/5/5 4/4/4 1/1/1
f 5/5/5 6/6/6 4/4/4
f 5/5/5 7/7/7 6/6/6
f 8/8/8 7/7/7 5/5/5
f 9/9/9 7/7/7 8/8/8
f 9/9/9 10/10/10 7/7/7
f 11/11/11 10/10/10 9/9/9
f 11/11/11 12/12/12 10/10/10
f 13/13/13 12/12/12 11/11/11
f 13/13/13 14/14/14 12/12/12
f 14/14/14 13/13/13 15/15/15
f 3/3/3 2/2/2 16/16/16
f 16/16/16 2/2/2 17/17/17
f 16/16/16 17/17/17 18/18/18
f 18/18/18 17/17/17 19/19/19
f 18/18/18 19/19/19 20/20/20
f 18/18/18 20/20/20 21/21/21
f 21/21/21 20/20/20 22/22/22
f 21/21/21 22/22/22 23/23/23
f 23/23/23 22/22/22 24/24/24
f 25/25/25 26/26/26 27/27/27
f 26/26/26 25/25/25 28/28/28
f 29/29/29 30/30/30 31/31/31
f 30/30/30 29/29/29 32/32/32
f 33/33/33 34/34/34 35/35/35
f 34/34/34 33/33/33 36/36/36
f 37/37/37 38/38/38 39/39/39
f 38/38/38 37/37/37 40/40/40
f 41/41/41 42/42/42 43/43/43
f 42/42/42 41/41/41 44/44/44
f 45/45/45 46/46/46 47/47/47
f 46/46/46 45/45/45 48/48/48
f 49/49/49 50/50/50 51/51/51
f 50/50/50 49/49/49 52/52/52
f 53/53/53 54/54/54 55/55/55
f 54/54/54 53/53/53 56/56/56
f 57/57/57 58/58/58 59/59/59
f 58/58/58 57/57/57 60/60/60
f 61/61/61 62/62/62 63/63/63
f 62/62/62 61/61/61 64/64/64
f 65/65/65 66/66/66 67/67/67
f 66/66/66 65/65/65 68/68/68
f 69/69/69 70/70/70 71/71/71
f 70/70/70 69/69/69 72/72/72
f 73/73/73 74/74/74 75/75/75
f 74/74/74 73/73/73 76/76/76
f 77/77/77 79/79/79 78/78/78
f 79/79/79 77/77/77 80/80/80
f 81/81/81 83/83/83 82/82/82
f 83/83/83 81/81/81 84/84/84
f 85/85/85 87/87/87 86/86/86
f 87/87/87 85/85/85 88/88/88
f 89/89/89 91/91/91 90/90/90
f 91/91/91 89/89/89 92/92/92
f 93/93/93 94/94/94 95/95/95
f 94/94/94 93/93/93 96/96/96
f 97/97/97 98/98/98 99/99/99
f 98/98/98 97/97/97 100/100/100
f 101/101/101 102/102/102 103/103/103
f 102/102/102 101/101/101 104/104/104
f 105/105/105 106/106/106 107/107/107
f 106/106/106 105/105/105 108/108/108
f 109/109/109 110/110/110 111/111/111
f 110/110/110 109/109/109 112/112/112
f 113/113/113 114/114/114 115/115/115
f 114/114/114 113/113/113 116/116/116
f 117/117/117 118/118/118 119/119/119
f 118/118/118 117/117/117 120/120/120
f 145/145/145 133/133/133 143/143/143
f 141/141/141 133/133/133 139/139/139
f 143/143/143 133/133/133 141/141/141
f 133/133/133 137/137/137 139/139/139
f 137/137/137 133/133/133 135/135/135
f 142/142/142 133/133/133 144/144/144
f 145/145/145 144/144/144 133/133/133
f 138/138/138 133/133/133 140/140/140
f 133/133/133 138/138/138 136/136/136
f 142/142/142 140/140/140 133/133/133
f 133/133/133 132/132/132 135/135/135
f 128/128/128 130/130/130 133/133/133
f 132/132/132 133/133/133 130/130/130
f 126/126/126 128/128/128 133/133/133
f 133/133/133 122/122/122 124/124/124
f 126/126/126 133/133/133 124/124/124
f 121/121/121 122/122/122 133/133/133
f 131/131/131 129/129/129 133/133/133
f 133/133/133 134/134/134 131/131/131
f 133/133/133 125/125/125 123/123/123
f 127/127/127 133/133/133 129/129/129
f 125/125/125 133/133/133 127/127/127
f 133/133/133 123/123/123 121/121/121
f 136/136/136 134/134/134 133/133/133
