# Rhino

mtllib Sofa_07_10.mtl
usemtl Default
v -0.43733525276184082 0.19951173663139343 -0.14372110366821289
v -0.43733525276184082 0.037408452481031418 -0.14372110366821289
v -0.4584968090057373 0.19951173663139343 -0.16488242149353027
v -0.4584968090057373 0.037408452481031418 -0.16488242149353027
v -0.4584968090057373 0.19951173663139343 -0.16488242149353027
v -0.4584968090057373 0.037408452481031418 -0.16488242149353027
v -0.29449605941772461 0.19951173663139343 -0.32888317108154297
v -0.29449605941772461 0.037408452481031418 -0.32888317108154297
v -0.29449605941772461 0.19951173663139343 -0.32888317108154297
v -0.29449605941772461 0.037408452481031418 -0.32888317108154297
v -0.27333474159240723 0.19951173663139343 -0.30772161483764648
v -0.27333474159240723 0.037408452481031418 -0.30772161483764648
v -0.27333474159240723 0.19951173663139343 -0.30772161483764648
v -0.27333474159240723 0.037408452481031418 -0.30772161483764648
v -0.43733525276184082 0.19951173663139343 -0.14372110366821289
v -0.43733525276184082 0.037408452481031418 -0.14372110366821289
v -0.43733525276184082 0.19951173663139343 -0.14372110366821289
v -0.4584968090057373 0.19951173663139343 -0.16488242149353027
v -0.29449605941772461 0.19951173663139343 -0.32888317108154297
v -0.27333474159240723 0.19951173663139343 -0.30772161483764648
v -0.43733525276184082 0.037408452481031418 -0.14372110366821289
v -0.4584968090057373 0.037408452481031418 -0.16488242149353027
v -0.29449605941772461 0.037408452481031418 -0.32888317108154297
v -0.27333474159240723 0.037408452481031418 -0.30772161483764648
vt 0 0
vt 0 0.86516779661178589
vt 0.057142965495586395 0
vt 0.057142965495586395 0.86516779661178589
vt 0.057142965495586395 0
vt 0.057142965495586395 0.86516779661178589
vt 0.5 0
vt 0.5 0.86516779661178589
vt 0.5 0
vt 0.5 0.86516779661178589
vt 0.55714297294616699 0
vt 0.55714297294616699 0.86516779661178589
vt 0.55714297294616699 0
vt 0.55714297294616699 0.86516779661178589
vt 1 0
vt 1 0.86516779661178589
vt 0.44285702705383301 1
vt 0.44285702705383301 0.86516863107681274
vt 0 0.86516863107681274
vt 0 1
vt 1 0.86516863107681274
vt 1 1
vt 0.55714297294616699 1
vt 0.55714297294616699 0.86516863107681274
vn -0.70710676908493042 0 0.70710676908493042
vn -0.70710676908493042 0 0.70710676908493042
vn -0.70710676908493042 0 0.70710676908493042
vn -0.70710676908493042 0 0.70710676908493042
vn -0.70710676908493042 0 -0.70710676908493042
vn -0.70710676908493042 0 -0.70710676908493042
vn -0.70710676908493042 0 -0.70710676908493042
vn -0.70710676908493042 0 -0.70710676908493042
vn 0.70710676908493042 0 -0.70710676908493042
vn 0.70710676908493042 0 -0.70710676908493042
vn 0.70710676908493042 0 -0.70710676908493042
vn 0.70710676908493042 0 -0.70710676908493042
vn 0.70710676908493042 0 0.70710676908493042
vn 0.70710676908493042 0 0.70710676908493042
vn 0.70710676908493042 0 0.70710676908493042
vn 0.70710676908493042 0 0.70710676908493042
vn 0 1 0
vn 0 1 0
vn 0 1 0
vn 0 1 0
vn 0 -1 0
vn 0 -1 0
vn 0 -1 0
vn 0 -1 0
f 1/1/1 3/3/3 4/4/4 2/2/2
f 5/5/5 7/7/7 8/8/8 6/6/6
f 9/9/9 11/11/11 12/12/12 10/10/10
f 13/13/13 15/15/15 16/16/16 14/14/14
f 18/18/18 17/17/17 20/20/20
f 20/20/20 19/19/19 18/18/18
f 22/22/22 24/24/24 21/21/21
f 24/24/24 22/22/22 23/23/23
