# Rhino

mtllib Sofa_01_05.mtl
usemtl Default
v 0.28670342480517408 0.22768233085024037 -0.011408325211660575
v 0.4177464527919641 0.22768233085 -0.1424513531997702
v 0.24710970991978654 0.11384116542539308 -0.051002040096512768
v 0.31478407365929328 0.22768233085024034 0.016672323642220488
v 0.4458271016460833 0.22768233084999998 -0.11437070434588925
v 0.27519035877390552 0.11384116542539319 -0.022921391242631595
v 0.37815273790732551 0.11384116542532757 -0.18204506808507381
v 0.40623338676144449 0.11384116542532768 -0.15396441923119242
v 0.31478407365929328 0.22768233085024034 0.016672323642220488
v 0.4458271016460833 0.22768233084999998 -0.11437070434588925
v 0.4177464527919641 0.22768233085 -0.1424513531997702
v 0.28670342480517408 0.22768233085024037 -0.011408325211660575
v 0.27519035877390552 0.11384116542539319 -0.022921391242631595
v 0.31478407365929328 0.22768233085024034 0.016672323642220488
v 0.28670342480517408 0.22768233085024037 -0.011408325211660575
v 0.24710970991978654 0.11384116542539308 -0.051002040096512768
v 0.40623338676144449 0.11384116542532768 -0.15396441923119242
v 0.4458271016460833 0.22768233084999998 -0.11437070434588925
v 0.4177464527919641 0.22768233085 -0.1424513531997702
v 0.37815273790732551 0.11384116542532757 -0.18204506808507381
v 0.27519035877390552 0.11384116542539319 -0.022921391242631595
v 0.40623338676144449 0.11384116542532768 -0.15396441923119242
v 0.37815273790732551 0.11384116542532757 -0.18204506808507381
v 0.24710970991978654 0.11384116542539308 -0.051002040096512768
vt 0.1666666716337204 0.83333331346511841
vt 0.66666668653488159 0.83333331346511841
vt 0.1666666716337204 0.3333333432674408
vt 0 1
vt 1 1
vt 0 0
vt 0.83333331346511841 0.1666666716337204
vt 1 0
vt 0 1
vt 1 1
vt 0.66666668653488159 0.83333331346511841
vt 0.1666666716337204 0.83333331346511841
vt 0 0
vt 0 1
vt 0.1666666716337204 0.83333331346511841
vt 0.1666666716337204 0.3333333432674408
vt 1 0
vt 1 1
vt 0.66666668653488159 0.83333331346511841
vt 0.83333331346511841 0.1666666716337204
vt 0 0
vt 1 0
vt 0.83333331346511841 0.1666666716337204
vt 0.1666666716337204 0.3333333432674408
vn -0.63450789451599121 0.44136098027229309 -0.63450789451599121
vn -0.63450789451599121 0.44136098027229309 -0.63450789451599121
vn -0.63450789451599121 0.44136098027229309 -0.63450789451599121
vn 0.63450789451599121 -0.44136098027229309 0.63450789451599121
vn 0.63450789451599121 -0.44136098027229309 0.63450789451599121
vn 0.63450789451599121 -0.44136098027229309 0.63450789451599121
vn -0.63450789451599121 0.44136098027229309 -0.63450789451599121
vn 0.63450789451599121 -0.44136098027229309 0.63450789451599121
vn 0 1 0
vn 0 1 0
vn 0 1 0
vn 0 1 0
vn -0.70710676908493042 0 0.70710676908493042
vn -0.70710676908493042 0 0.70710676908493042
vn -0.70710676908493042 0 0.70710676908493042
vn -0.70710676908493042 0 0.70710676908493042
vn 0.70710676908493042 0 -0.70710676908493042
vn 0.70710676908493042 0 -0.70710676908493042
vn 0.70710676908493042 0 -0.70710676908493042
vn 0.70710676908493042 0 -0.70710676908493042
vn 0 -1 0
vn 0 -1 0
vn 0 -1 0
vn 0 -1 0
f 1/1/1 2/2/2 3/3/3
f 4/4/4 6/6/6 5/5/5
f 7/7/7 3/3/3 2/2/2
f 8/8/8 5/5/5 6/6/6
f 9/9/9 10/10/10 11/11/11 12/12/12
f 13/13/13 14/14/14 15/15/15 16/16/16
f 17/17/17 20/20/20 19/19/19 18/18/18
f 21/21/21 24/24/24 23/23/23 22/22/22
