# Rhino

mtllib Sofa_17_13.mtl
usemtl Default
v -0.42628312560000037 0 0.13055387819000019
v -0.4350755502760002 0.052754548060999995 0.17451600157400016
v -0.4350755502760002 0.052754548060999995 0.12176145351299983
v -0.42628312560000037 0 0.16572357689700024
v -0.39111342689299988 0 0.16572357689700024
v -0.42628312560000037 0 0.13055387819000019
v -0.42628312560000037 0 0.16572357689700024
v -0.39111342689299988 0 0.13055387819000019
v -0.39111342689299988 0 0.13055387819000019
v -0.38232100221700005 0.052754548060999995 0.17451600157400016
v -0.39111342689299988 0 0.16572357689700024
v -0.38232100221700005 0.052754548060999995 0.12176145351299983
v -0.39111342689299988 0 0.13055387819000019
v -0.38232100221700005 0.052754548060999995 0.12176145351299983
v -0.42628312560000037 0 0.13055387819000019
v -0.38232100221700005 0.052754548060999995 0.17451600157400016
v -0.38232100221700005 0.052754548060999995 0.12176145351299983
v -0.4350755502760002 0.052754548060999995 0.17451600157400016
v -0.42628312560000037 0 0.16572357689700024
v -0.38232100221700005 0.052754548060999995 0.17451600157400016
v -0.4350755502760002 0.052754548060999995 0.17451600157400016
v -0.39111342689299988 0 0.16572357689700024
v -0.4350755502760002 0.052754548060999995 0.12176145351299983
v -0.4350755502760002 0.052754548060999995 0.12176145351299983
vt -0.78740197420120239 4.7895798683166504
vt -4.7244100570678711 0
vt 0 0
vt -3.9370100498199463 4.7895798683166504
vt -3.9370100498199463 3.9370100498199463
vt -0.78740197420120239 0.78740197420120239
vt -0.78740197420120239 3.9370100498199463
vt -3.9370100498199463 0.78740197420120239
vt 0.78740197420120239 4.0128898620605469
vt 4.7244100570678711 -0.77668797969818115
vt 3.9370100498199463 4.0128898620605469
vt 0 -0.77668797969818115
vt 3.9370100498199463 4.7895798683166504
vt 4.7244100570678711 0
vt 0.78740197420120239 4.7895798683166504
vt -4.7244100570678711 4.7244100570678711
vt -4.7244100570678711 0
vt 0 4.7244100570678711
vt -0.78740197420120239 4.0128898620605469
vt -4.7244100570678711 -0.77668797969818115
vt 0 -0.77668797969818115
vt -3.9370100498199463 4.0128898620605469
vt 0 0
vt 0 0
vn -0.98639392852783203 -0.16439898312091827 0
vn -0.98639392852783203 -0.16439898312091827 0
vn 0 1 0
vn -0.98639392852783203 -0.16439898312091827 0
vn 0 1 0
vn 0 1 0
vn 0 1 0
vn 0 1 0
vn 0.98639392852783203 -0.16439898312091827 0
vn 0.98639392852783203 -0.16439898312091827 0
vn 0.98639392852783203 -0.16439898312091827 0
vn 0.98639392852783203 -0.16439898312091827 0
vn 0 -0.16439898312091827 -0.98639392852783203
vn 0 -0.16439898312091827 -0.98639392852783203
vn 0 -0.16439898312091827 -0.98639392852783203
vn 0 1 0
vn 0 1 0
vn 0 1 0
vn 0 -0.16439898312091827 0.98639392852783203
vn 0 -0.16439898312091827 0.98639392852783203
vn 0 -0.16439898312091827 0.98639392852783203
vn 0 -0.16439898312091827 0.98639392852783203
vn -0.98639392852783203 -0.16439898312091827 0
vn 0 -0.16439898312091827 -0.98639392852783203
f 1/1/1 2/2/2 23/23/23
f 2/2/2 1/1/1 4/4/4
f 5/5/5 6/6/6 7/7/7
f 6/6/6 5/5/5 8/8/8
f 9/9/9 10/10/10 11/11/11
f 10/10/10 9/9/9 12/12/12
f 13/13/13 24/24/24 14/14/14
f 24/24/24 13/13/13 15/15/15
f 3/3/3 16/16/16 17/17/17
f 16/16/16 3/3/3 18/18/18
f 19/19/19 20/20/20 21/21/21
f 20/20/20 19/19/19 22/22/22
