# Rhino

mtllib Sofa_08_04.mtl
usemtl Default
v 0.36513777145707005 0 0.20729549150086335
v 0.36576196500484714 0.0088845649610000133 0.16287716508952244
v 0.36576196500484714 0 0.16287716508952244
v 0.36513777145707005 0.0088845649610000133 0.20729549150086335
v 0.36513777145707005 0 0.20729549150086335
v 0.32071944504672834 0.0088845649610000133 0.20667129795310046
v 0.36513777145707005 0.0088845649610000133 0.20729549150086335
v 0.32071944504672834 0 0.20667129795310046
v 0.36513777145707005 0 0.20729549150086335
v 0.32134363859450543 0 0.16225297154175955
v 0.32071944504672834 0 0.20667129795310046
v 0.36576196500484714 0 0.16287716508952244
v 0.36576196500484714 0.0088845649610000133 0.16287716508952244
v 0.32134363859450543 0 0.16225297154175955
v 0.36576196500484714 0 0.16287716508952244
v 0.32134363859450543 0.0088845649610000133 0.16225297154175955
v 0.32071944504672834 0.0088845649610000133 0.20667129795310046
v 0.32134363859450543 0 0.16225297154175955
v 0.32134363859450543 0.0088845649610000133 0.16225297154175955
v 0.32071944504672834 0 0.20667129795310046
v 0.32071944504672834 0.0088845649610000133 0.20667129795310046
v 0.32134363859450543 0.0088845649610000133 0.16225297154175955
v 0.34324070502578774 0.0088845649610000133 0.18477423152131145
v 0.36513777145707005 0.0088845649610000133 0.20729549150086335
v 0.36576196500484714 0.0088845649610000133 0.16287716508952244
vt 35.826801300048828 0
vt 31.889799118041992 0.78740197420120239
vt 31.889799118041992 0
vt 35.826801300048828 0.78740197420120239
vt -79.133903503417969 0
vt -75.1968994140625 0.78740197420120239
vt -79.133903503417969 0.78740197420120239
vt -75.1968994140625 0
vt -79.133903503417969 35.826801300048828
vt -75.1968994140625 31.889799118041992
vt -75.1968994140625 35.826801300048828
vt -79.133903503417969 31.889799118041992
vt 79.133903503417969 0.78740197420120239
vt 75.1968994140625 0
vt 79.133903503417969 0
vt 75.1968994140625 0.78740197420120239
vt -35.826801300048828 0.78740197420120239
vt -31.889799118041992 0
vt -31.889799118041992 0.78740197420120239
vt -35.826801300048828 0
vt 1 0.013857873156666756
vt 0.98614209890365601 1
vt 0.5 0.5
vt 0.013857873156666756 0
vt 0 0.98614209890365601
vn 0.99990129470825195 0 0.01405122596770525
vn 0.99990129470825195 0 0.01405122596770525
vn 0.99990129470825195 0 0.01405122596770525
vn 0.99990129470825195 0 0.01405122596770525
vn -0.01405122596770525 0 0.99990129470825195
vn -0.01405122596770525 0 0.99990129470825195
vn -0.01405122596770525 0 0.99990129470825195
vn -0.01405122596770525 0 0.99990129470825195
vn 0 -1 0
vn 0 -1 0
vn 0 -1 0
vn 0 -1 0
vn 0.01405122596770525 0 -0.99990129470825195
vn 0.01405122596770525 0 -0.99990129470825195
vn 0.01405122596770525 0 -0.99990129470825195
vn 0.01405122596770525 0 -0.99990129470825195
vn -0.99990129470825195 0 -0.01405122596770525
vn -0.99990129470825195 0 -0.01405122596770525
vn -0.99990129470825195 0 -0.01405122596770525
vn -0.99990129470825195 0 -0.01405122596770525
vn 0 1 0
vn 0 1 0
vn 0 1 0
vn 0 1 0
vn 0 1 0
f 1/1/1 3/3/3 2/2/2
f 2/2/2 4/4/4 1/1/1
f 5/5/5 7/7/7 6/6/6
f 6/6/6 8/8/8 5/5/5
f 9/9/9 11/11/11 10/10/10
f 10/10/10 12/12/12 9/9/9
f 13/13/13 15/15/15 14/14/14
f 14/14/14 16/16/16 13/13/13
f 17/17/17 19/19/19 18/18/18
f 18/18/18 20/20/20 17/17/17
f 23/23/23 24/24/24 25/25/25
f 22/22/22 21/21/21 23/23/23
f 24/24/24 23/23/23 21/21/21
f 25/25/25 22/22/22 23/23/23
