# Rhino

mtllib Sofa_06_14.mtl
usemtl Default
v 0.38261062059499995 0.27603398032550003 0.14711292285200006
v 0.37823878855500004 0.27755108093070002 0.19739979393599993
v 0.38261062059499995 0.27603398032550003 0.20177158293700004
v 0.37823878855500004 0.27755108093070002 0.15148475489300006
v -0.37823792778800014 0.27755108093070002 0.15148475489300006
v 0.37823878855500004 0.27755108093070002 0.15148475489300006
v 0.38261062059499995 0.27603398032550003 0.14711292285200006
v -0.3323246533169999 0.27755108093070002 0.15148475489300006
v -0.373766246857 0.27880134398200002 0.15595600544099997
v 0.33232379255 0.27755108093070002 0.15148475489300006
v -0.37823792778800014 0.27755108093070002 0.15148475489300006
v -0.37823792778800014 0.27755108093070002 0.15148475489300006
v -0.373766246857 0.27880134398200002 0.19292867250199996
v -0.373766246857 0.27880134398200002 0.15595600544099997
v -0.37823792778800014 0.27755108093070002 0.19739979393599993
v -0.38261062059499995 0.27603398032550003 0.14711292285200006
v -0.37823792778800014 0.27755108093070002 0.19739979393599993
v -0.37823792778800014 0.27755108093070002 0.15148475489300006
v -0.38261062059499995 0.27603398032550003 0.20177158293700004
v 0.32795196051000008 0.27603398032550003 0.20177158293700004
v 0.38261062059499995 0.065590392102000003 0.20177158293700004
v 0.38261062059499995 0.27603398032550003 0.20177158293700004
v -0.38261062059499995 0.065590392102000003 0.20177158293700004
v -0.32795196051000008 0.27603398032550003 0.20177158293700004
v 0.32795196051000008 0.27603398032550003 0.20177158293700004
v 0.37823878855500004 0.27755108093070002 0.19739979393599993
v -0.32795196051000008 0.27603398032550003 0.20177158293700004
v 0.38261062059499995 0.27603398032550003 0.20177158293700004
v -0.38261062059499995 0.27603398032550003 0.20177158293700004
v -0.37823792778800014 0.27755108093070002 0.19739979393599993
v 0.3737675380069998 0.27880134398200002 0.19292867250199996
v 0.33232379255 0.27755108093070002 0.19739979393599993
v 0.37823878855500004 0.27755108093070002 0.19739979393599993
v -0.3323246533169999 0.27755108093070002 0.19739979393599993
v -0.37823792778800014 0.27755108093070002 0.19739979393599993
v -0.373766246857 0.27880134398200002 0.19292867250199996
v 0.36921666657499985 0.27977960488199999 0.18837754284099995
v 0.33679504309800024 0.27880134398200002 0.19292867250199996
v 0.3737675380069998 0.27880134398200002 0.19292867250199996
v -0.33679633424800004 0.27880134398200002 0.19292867250199996
v -0.373766246857 0.27880134398200002 0.19292867250199996
v -0.36921709695799976 0.27977960488199999 0.18837754284099995
v 0.36460511111999994 0.28048112941800002 0.183766073463
v 0.34134591453000018 0.27977960488199999 0.18837754284099995
v 0.36921666657499985 0.27977960488199999 0.18837754284099995
v -0.34134548414699983 0.27977960488199999 0.18837754284099995
v -0.36921709695799976 0.27977960488199999 0.18837754284099995
v -0.36460338958799987 0.28048112941800002 0.183766073463
v 0.35995309964900013 0.28090333528799999 0.17911427718299999
v 0.3459574699850001 0.28048112941800002 0.183766073463
v 0.36460511111999994 0.28048112941800002 0.183766073463
v -0.34595919151700016 0.28048112941800002 0.183766073463
v -0.36460338958799987 0.28048112941800002 0.183766073463
v -0.3599552515640001 0.28090333528799999 0.17911427718299999
v 0.35528129055199997 0.28104450096099998 0.17444225289500004
v 0.35060948145599991 0.28090333528799999 0.17911427718299999
v 0.35995309964900013 0.28090333528799999 0.17911427718299999
v -0.35060732953999985 0.28090333528799999 0.17911427718299999
v -0.35528129055199997 0.28104450096099998 0.17444225289500004
v -0.3599552515640001 0.28090333528799999 0.17911427718299999
v -0.3599552515640001 0.28090333528799999 0.16977022860699997
v -0.3599552515640001 0.28090333528799999 0.17911427718299999
v -0.35528129055199997 0.28104450096099998 0.17444225289500004
v -0.36460338958799987 0.28048112941800002 0.16511843232699996
v -0.3599552515640001 0.28090333528799999 0.17911427718299999
v -0.3599552515640001 0.28090333528799999 0.16977022860699997
v -0.36460338958799987 0.28048112941800002 0.183766073463
v -0.36921709695799976 0.27977960488199999 0.16050696294900002
v -0.36460338958799987 0.28048112941800002 0.183766073463
v -0.36460338958799987 0.28048112941800002 0.16511843232699996
v -0.36921709695799976 0.27977960488199999 0.18837754284099995
v -0.373766246857 0.27880134398200002 0.15595600544099997
v -0.36921709695799976 0.27977960488199999 0.18837754284099995
v -0.36921709695799976 0.27977960488199999 0.16050696294900002
v -0.373766246857 0.27880134398200002 0.19292867250199996
v -0.36921709695799976 0.27977960488199999 0.16050696294900002
v 0.3737675380069998 0.27880134398200002 0.15595600544099997
v -0.373766246857 0.27880134398200002 0.15595600544099997
v -0.34134548414699983 0.27977960488199999 0.16050696294900002
v 0.34134591453000018 0.27977960488199999 0.16050696294900002
v 0.36921666657499985 0.27977960488199999 0.16050696294900002
v -0.36460338958799987 0.28048112941800002 0.16511843232699996
v 0.36921666657499985 0.27977960488199999 0.16050696294900002
v -0.36921709695799976 0.27977960488199999 0.16050696294900002
v 0.36460511111999994 0.28048112941800002 0.16511843232699996
v -0.34595919151700016 0.28048112941800002 0.16511843232699996
v -0.3599552515640001 0.28090333528799999 0.16977022860699997
v 0.3459574699850001 0.28048112941800002 0.16511843232699996
v -0.36460338958799987 0.28048112941800002 0.16511843232699996
v 0.36460511111999994 0.28048112941800002 0.16511843232699996
v -0.35060732953999985 0.28090333528799999 0.16977022860699997
v 0.35060948145599991 0.28090333528799999 0.16977022860699997
v 0.35995309964900013 0.28090333528799999 0.16977022860699997
v -0.35528129055199997 0.28104450096099998 0.17444225289500004
v 0.35995309964900013 0.28090333528799999 0.16977022860699997
v -0.3599552515640001 0.28090333528799999 0.16977022860699997
v 0.35528129055199997 0.28104450096099998 0.17444225289500004
v 0.35995309964900013 0.28090333528799999 0.16977022860699997
v 0.35528129055199997 0.28104450096099998 0.17444225289500004
v 0.35995309964900013 0.28090333528799999 0.17911427718299999
v 0.35995309964900013 0.28090333528799999 0.17911427718299999
v 0.36460511111999994 0.28048112941800002 0.16511843232699996
v 0.35995309964900013 0.28090333528799999 0.16977022860699997
v 0.36460511111999994 0.28048112941800002 0.183766073463
v 0.36460511111999994 0.28048112941800002 0.183766073463
v 0.36921666657499985 0.27977960488199999 0.16050696294900002
v 0.36460511111999994 0.28048112941800002 0.16511843232699996
v 0.36921666657499985 0.27977960488199999 0.18837754284099995
v 0.36921666657499985 0.27977960488199999 0.18837754284099995
v 0.3737675380069998 0.27880134398200002 0.15595600544099997
v 0.36921666657499985 0.27977960488199999 0.16050696294900002
v 0.3737675380069998 0.27880134398200002 0.19292867250199996
v 0.3737675380069998 0.27880134398200002 0.19292867250199996
v 0.37823878855500004 0.27755108093070002 0.15148475489300006
v 0.3737675380069998 0.27880134398200002 0.15595600544099997
v 0.37823878855500004 0.27755108093070002 0.19739979393599993
v 0.37823878855500004 0.27755108093070002 0.15148475489300006
v 0.33679504309800024 0.27880134398200002 0.15595600544099997
v 0.3737675380069998 0.27880134398200002 0.15595600544099997
v -0.33679633424800004 0.27880134398200002 0.15595600544099997
v -0.38261062059499995 0.27603398032550003 0.20177158293700004
v -0.38261062059499995 0.27603398032550003 0.14711292285200006
vt 7.6069698333740234 33.392200469970703
vt 7.1189098358154297 33.427501678466797
vt 7.0764799118041992 33.392200469970703
vt 7.564539909362793 33.427501678466797
vt 7.1535100936889648 39.975498199462891
vt 7.564539909362793 33.427501678466797
vt 7.6069698333740234 33.392200469970703
vt 5.3390097618103027 13.686800003051758
vt 5.7412400245666504 13.731900215148926
vt -1.1117700338363647 13.686800003051758
vt 5.784639835357666 13.686800003051758
vt -27.168699264526367 15.718600273132324
vt -26.766500473022461 15.76360034942627
vt -27.125299453735352 15.76360034942627
vt -26.723100662231445 15.718600273132324
vt -27.211099624633789 15.683300018310547
vt -26.723100662231445 15.718600273132324
vt -27.168699264526367 15.718600273132324
vt -26.680700302124023 15.683300018310547
vt -20.006799697875977 28.713600158691406
vt -19.589500427246094 27.107000350952148
vt -19.589500427246094 28.713600158691406
vt -25.43120002746582 27.107000350952148
vt -25.013999938964844 28.713600158691406
vt -18.534799575805664 39.949798583984375
vt -18.04680061340332 39.994701385498047
vt -24.900800704956055 39.949798583984375
vt -18.004299163818359 39.949798583984375
vt -25.43120002746582 39.949798583984375
vt -25.388799667358398 39.994701385498047
vt -18.090200424194336 40.030101776123047
vt -18.492399215698242 39.994701385498047
vt -18.04680061340332 39.994701385498047
vt -24.943199157714844 39.994701385498047
vt -25.388799667358398 39.994701385498047
vt -25.345399856567383 40.030101776123047
vt -18.134300231933594 40.075298309326172
vt -18.448999404907227 40.030101776123047
vt -18.090200424194336 40.030101776123047
vt -24.986600875854492 40.030101776123047
vt -25.345399856567383 40.030101776123047
vt -25.301300048828125 40.075298309326172
vt 7.2512297630310059 33.442501068115234
vt 7.2325701713562012 33.64849853515625
vt 7.2064700126647949 33.406898498535156
vt 7.8719301223754883 39.566898345947266
vt 7.8980298042297363 39.808601379394531
vt 7.934150218963623 39.764198303222656
vt -18.224199295043945 40.113899230957031
vt -18.360099792480469 40.068599700927734
vt -18.179100036621094 40.068599700927734
vt -25.07550048828125 40.068599700927734
vt -25.256500244140625 40.068599700927734
vt -25.211299896240234 40.113899230957031
vt -18.269599914550781 40.149600982666016
vt -18.314899444580078 40.113899230957031
vt -18.224199295043945 40.113899230957031
vt -25.120700836181641 40.113899230957031
vt -25.166000366210938 40.149600982666016
vt -25.211299896240234 40.113899230957031
vt -26.991199493408203 14.729399681091309
vt -26.900600433349609 14.729399681091309
vt -26.945899963378906 14.774700164794922
vt -27.036399841308594 14.693699836730957
vt -26.900600433349609 14.729399681091309
vt -26.991199493408203 14.729399681091309
vt -26.855400085449219 14.693699836730957
vt -27.081199645996094 14.648500442504883
vt -26.855400085449219 14.693699836730957
vt -27.036399841308594 14.693699836730957
vt -26.810699462890625 14.648500442504883
vt 5.7412400245666504 13.731900215148926
vt 5.6736598014831543 14.008999824523926
vt 5.6970701217651367 13.767399787902832
vt 5.7101898193359375 14.052300453186035
vt 5.6970701217651367 13.767399787902832
vt -1.514009952545166 13.731900215148926
vt 5.7412400245666504 13.731900215148926
vt 5.426569938659668 13.767399787902832
vt -1.1993399858474731 13.767399787902832
vt -1.4698300361633301 13.767399787902832
vt 5.6523199081420898 13.812700271606445
vt -1.4698300361633301 13.767399787902832
vt 5.6970701217651367 13.767399787902832
vt -1.4250799417495728 13.812700271606445
vt -27.0177001953125 14.855400085449219
vt -26.991199493408203 14.729399681091309
vt -26.325700759887695 20.854099273681641
vt -27.036399841308594 14.693699836730957
vt -26.307100296020508 21.015800476074219
vt -26.981899261474609 14.810400009155273
vt -26.280599594116211 20.889799118041992
vt -26.271200180053711 20.970800399780273
vt -25.166000366210938 40.149600982666016
vt -18.224199295043945 40.194999694824219
vt -25.211299896240234 40.194999694824219
vt -18.269599914550781 40.149600982666016
vt -18.23390007019043 40.194999694824219
vt -18.269599914550781 40.149600982666016
vt -18.224199295043945 40.113899230957031
vt 7.2963800430297852 33.487899780273438
vt 7.4322199821472168 33.442501068115234
vt 7.3870701789855957 33.487899780273438
vt 7.2512297630310059 33.442501068115234
vt 7.2512297630310059 33.442501068115234
vt 7.4769701957702637 33.406898498535156
vt 7.4322199821472168 33.442501068115234
vt 7.2064700126647949 33.406898498535156
vt 7.2064700126647949 33.406898498535156
vt 7.5211400985717773 33.361698150634766
vt 7.4769701957702637 33.406898498535156
vt 7.1623001098632812 33.361698150634766
vt -18.090200424194336 40.030101776123047
vt -18.079399108886719 40.392501831054688
vt -18.116399765014648 40.350399017333984
vt -18.04680061340332 39.994701385498047
vt -1.5573999881744385 13.686800003051758
vt -1.1551599502563477 13.731900215148926
vt -1.514009952545166 13.731900215148926
vt 5.3824000358581543 13.731900215148926
vt -25.43120002746582 28.713600158691406
vt 7.1911897659301758 40.015800476074219
vn 0.32783877849578857 0.94473367929458618 0
vn 0.32783877849578857 0.94473367929458618 0
vn 0.32783877849578857 0.94473367929458618 0
vn 0.32783877849578857 0.94473367929458618 0
vn 0 0.94473367929458618 -0.32783877849578857
vn 0 0.94473367929458618 -0.32783877849578857
vn 0 0.94473367929458618 -0.32783877849578857
vn 0 0.96305829286575317 -0.26929295063018799
vn 0 0.96305829286575317 -0.26929295063018799
vn 0 0.96305829286575317 -0.26929295063018799
vn 0 0.96305829286575317 -0.26929295063018799
vn -0.26926890015602112 0.96306502819061279 0
vn -0.26926890015602112 0.96306502819061279 0
vn -0.26926890015602112 0.96306502819061279 0
vn -0.26926890015602112 0.96306502819061279 0
vn -0.32778117060661316 0.94475364685058594 0
vn -0.32778117060661316 0.94475364685058594 0
vn -0.32778117060661316 0.94475364685058594 0
vn -0.32778117060661316 0.94475364685058594 0
vn 0 0 1
vn 0 0 1
vn 0 0 1
vn 0 0 1
vn 0 0 1
vn 0 0.944732666015625 0.32784163951873779
vn 0 0.944732666015625 0.32784163951873779
vn 0 0.944732666015625 0.32784163951873779
vn 0 0.944732666015625 0.32784163951873779
vn 0 0.944732666015625 0.32784163951873779
vn 0 0.944732666015625 0.32784163951873779
vn 0 0.96305626630783081 0.26930016279220581
vn 0 0.96305626630783081 0.26930016279220581
vn 0 0.96305626630783081 0.26930016279220581
vn 0 0.96305626630783081 0.26930016279220581
vn 0 0.96305626630783081 0.26930016279220581
vn 0 0.96305626630783081 0.26930016279220581
vn 0 0.977669358253479 0.21014907956123352
vn 0 0.977669358253479 0.21014907956123352
vn 0 0.977669358253479 0.21014907956123352
vn 0 0.977669358253479 0.21014907956123352
vn 0 0.977669358253479 0.21014907956123352
vn 0 0.977669358253479 0.21014907956123352
vn 0 0.98862588405609131 0.15039573609828949
vn 0 0.98862588405609131 0.15039573609828949
vn 0 0.98862588405609131 0.15039573609828949
vn 0 0.98862588405609131 0.15039573609828949
vn 0 0.98862588405609131 0.15039573609828949
vn 0 0.98862588405609131 0.15039573609828949
vn 0 0.99590641260147095 0.090390361845493317
vn 0 0.99590641260147095 0.090390361845493317
vn 0 0.99590641260147095 0.090390361845493317
vn 0 0.99590641260147095 0.090390361845493317
vn 0 0.99590641260147095 0.090390361845493317
vn 0 0.99590641260147095 0.090390361845493317
vn 0 0.99954384565353394 0.030201315879821777
vn 0 0.99954384565353394 0.030201315879821777
vn 0 0.99954384565353394 0.030201315879821777
vn 0 0.99954384565353394 0.030201315879821777
vn 0 0.99954384565353394 0.030201315879821777
vn 0 0.99954384565353394 0.030201315879821777
vn -0.03018881194293499 0.99954420328140259 0
vn -0.03018881194293499 0.99954420328140259 0
vn -0.03018881194293499 0.99954420328140259 0
vn -0.090460918843746185 0.99590003490447998 0
vn -0.090460918843746185 0.99590003490447998 0
vn -0.090460918843746185 0.99590003490447998 0
vn -0.090460918843746185 0.99590003490447998 0
vn -0.15032443404197693 0.98863673210144043 0
vn -0.15032443404197693 0.98863673210144043 0
vn -0.15032443404197693 0.98863673210144043 0
vn -0.15032443404197693 0.98863673210144043 0
vn -0.21023648977279663 0.97765058279037476 0
vn -0.21023648977279663 0.97765058279037476 0
vn -0.21023648977279663 0.97765058279037476 0
vn -0.21023648977279663 0.97765058279037476 0
vn 0 0.97766774892807007 -0.21015667915344238
vn 0 0.97766774892807007 -0.21015667915344238
vn 0 0.97766774892807007 -0.21015667915344238
vn 0 0.97766774892807007 -0.21015667915344238
vn 0 0.97766774892807007 -0.21015667915344238
vn 0 0.97766774892807007 -0.21015667915344238
vn 0 0.98862588405609131 -0.15039573609828949
vn 0 0.98862588405609131 -0.15039573609828949
vn 0 0.98862588405609131 -0.15039573609828949
vn 0 0.98862588405609131 -0.15039573609828949
vn 0 0.99590641260147095 -0.090390361845493317
vn 0 0.99590641260147095 -0.090390361845493317
vn 0 0.99590641260147095 -0.090390361845493317
vn 0 0.99590641260147095 -0.090390361845493317
vn 0 0.99590641260147095 -0.090390361845493317
vn 0 0.99590641260147095 -0.090390361845493317
vn 0 0.99590641260147095 -0.090390361845493317
vn 0 0.99590641260147095 -0.090390361845493317
vn 0 0.99954384565353394 -0.030201315879821777
vn 0 0.99954384565353394 -0.030201315879821777
vn 0 0.99954384565353394 -0.030201315879821777
vn 0 0.99954384565353394 -0.030201315879821777
vn 0.030202705413103104 0.99954378604888916 0
vn 0.030202705413103104 0.99954378604888916 0
vn 0.030202705413103104 0.99954378604888916 0
vn 0.09038621187210083 0.9959067702293396 0
vn 0.09038621187210083 0.9959067702293396 0
vn 0.09038621187210083 0.9959067702293396 0
vn 0.09038621187210083 0.9959067702293396 0
vn 0.15039299428462982 0.98862630128860474 0
vn 0.15039299428462982 0.98862630128860474 0
vn 0.15039299428462982 0.98862630128860474 0
vn 0.15039299428462982 0.98862630128860474 0
vn 0.21016047894954681 0.97766691446304321 0
vn 0.21016047894954681 0.97766691446304321 0
vn 0.21016047894954681 0.97766691446304321 0
vn 0.21016047894954681 0.97766691446304321 0
vn 0.26929295063018799 0.96305829286575317 0
vn 0.26929295063018799 0.96305829286575317 0
vn 0.26929295063018799 0.96305829286575317 0
vn 0.26929295063018799 0.96305829286575317 0
vn 0 0.96305829286575317 -0.26929295063018799
vn 0 0.96305829286575317 -0.26929295063018799
vn 0 0.96305829286575317 -0.26929295063018799
vn 0 0.96305829286575317 -0.26929295063018799
vn 0 0 1
vn 0 0.94473367929458618 -0.32783877849578857
f 1/1/1 2/2/2 3/3/3
f 2/2/2 1/1/1 4/4/4
f 5/5/5 6/6/6 7/7/7
f 8/8/8 9/9/9 10/10/10
f 9/9/9 8/8/8 11/11/11
f 12/12/12 13/13/13 14/14/14
f 13/13/13 12/12/12 15/15/15
f 16/16/16 17/17/17 18/18/18
f 17/17/17 16/16/16 19/19/19
f 20/20/20 21/21/21 22/22/22
f 21/21/21 20/20/20 23/23/23
f 23/23/23 20/20/20 24/24/24
f 25/25/25 26/26/26 27/27/27
f 26/26/26 25/25/25 28/28/28
f 27/27/27 26/26/26 29/29/29
f 29/29/29 26/26/26 30/30/30
f 31/31/31 32/32/32 33/33/33
f 32/32/32 31/31/31 34/34/34
f 34/34/34 31/31/31 35/35/35
f 35/35/35 31/31/31 36/36/36
f 37/37/37 38/38/38 39/39/39
f 38/38/38 37/37/37 40/40/40
f 40/40/40 37/37/37 41/41/41
f 41/41/41 37/37/37 42/42/42
f 43/43/43 44/44/44 45/45/45
f 44/44/44 43/43/43 46/46/46
f 46/46/46 43/43/43 47/47/47
f 47/47/47 43/43/43 48/48/48
f 49/49/49 50/50/50 51/51/51
f 50/50/50 49/49/49 52/52/52
f 52/52/52 49/49/49 53/53/53
f 53/53/53 49/49/49 54/54/54
f 55/55/55 56/56/56 57/57/57
f 56/56/56 55/55/55 58/58/58
f 59/59/59 58/58/58 55/55/55
f 58/58/58 59/59/59 60/60/60
f 61/61/61 62/62/62 63/63/63
f 64/64/64 65/65/65 66/66/66
f 65/65/65 64/64/64 67/67/67
f 68/68/68 69/69/69 70/70/70
f 69/69/69 68/68/68 71/71/71
f 72/72/72 73/73/73 74/74/74
f 73/73/73 72/72/72 75/75/75
f 76/76/76 77/77/77 78/78/78
f 79/79/79 77/77/77 76/76/76
f 80/80/80 77/77/77 79/79/79
f 77/77/77 80/80/80 81/81/81
f 82/82/82 83/83/83 84/84/84
f 82/82/82 85/85/85 83/83/83
f 86/86/86 87/87/87 88/88/88
f 87/87/87 86/86/86 89/89/89
f 87/87/87 90/90/90 88/88/88
f 91/91/91 90/90/90 87/87/87
f 92/92/92 90/90/90 91/91/91
f 90/90/90 92/92/92 93/93/93
f 94/94/94 95/95/95 96/96/96
f 95/95/95 94/94/94 97/97/97
f 98/98/98 99/99/99 100/100/100
f 101/101/101 102/102/102 103/103/103
f 102/102/102 101/101/101 104/104/104
f 105/105/105 106/106/106 107/107/107
f 106/106/106 105/105/105 108/108/108
f 109/109/109 110/110/110 111/111/111
f 110/110/110 109/109/109 112/112/112
f 113/113/113 114/114/114 115/115/115
f 114/114/114 113/113/113 116/116/116
f 117/117/117 118/118/118 119/119/119
f 118/118/118 117/117/117 120/120/120
f 120/120/120 117/117/117 9/9/9
f 9/9/9 117/117/117 10/10/10
f 23/23/23 24/24/24 121/121/121
f 5/5/5 7/7/7 122/122/122
