# Rhino

mtllib Sofa_12_08.mtl
usemtl Default
v 0.43014944652199993 0.033408561501099998 0.13852756088500007
v 0.43245526831599967 0 0.1388311333479999
v 0.43245526831599967 0.033408561501099998 0.1388311333479999
v 0.43014944652199993 0 0.13852756088500007
v 0.42800079344999986 0.033408561501099998 0.13763755680799994
v 0.43014944652199993 0 0.13852756088500007
v 0.43014944652199993 0.033408561501099998 0.13852756088500007
v 0.42800079344999986 0 0.13763755680799994
v 0.42615567571900037 0.033408561501099998 0.13622177621199993
v 0.42800079344999986 0 0.13763755680799994
v 0.42800079344999986 0.033408561501099998 0.13763755680799994
v 0.42615567571900037 0 0.13622177621199993
v 0.42615567571900037 0.033408561501099998 0.13622177621199993
v 0.42473989512300037 0 0.134376658481
v 0.42615567571900037 0 0.13622177621199993
v 0.42473989512300037 0.033408561501099998 0.134376658481
v 0.43245526831599967 0.033408561501099998 0.1388311333479999
v 0.43476109011100039 0 0.13852756088500007
v 0.43476109011100039 0.033408561501099998 0.13852756088500007
v 0.43245526831599967 0 0.1388311333479999
v 0.43014944652199993 0 0.13852756088500007
v 0.43476109011100039 0 0.13852756088500007
v 0.43245526831599967 0 0.1388311333479999
v 0.42800079344999986 0 0.13763755680799994
v 0.43690974318399967 0 0.13763755680799994
v 0.42615567571900037 0 0.13622177621199993
v 0.43875486091399996 0 0.13622177621199993
v 0.42473989512300037 0 0.134376658481
v 0.44017064150999996 0 0.134376658481
v 0.42384989104500015 0 0.13222800540899993
v 0.42473989512300037 0.033408561501099998 0.134376658481
v 0.42384989104500015 0 0.13222800540899993
v 0.42473989512300037 0 0.134376658481
v 0.42384989104500015 0.033408561501099998 0.13222800540899993
v 0.43875486091399996 0 0.13622177621199993
v 0.44017064150999996 0.033408561501099998 0.134376658481
v 0.43875486091399996 0.033408561501099998 0.13622177621199993
v 0.44017064150999996 0 0.134376658481
v 0.44017064150999996 0 0.134376658481
v 0.44106064558800018 0.033408561501099998 0.13222800540899993
v 0.44017064150999996 0.033408561501099998 0.134376658481
v 0.44106064558800018 0 0.13222800540899993
v 0.44106064558800018 0 0.13222800540899993
v 0.42354631858299996 0 0.1299221836140001
v 0.42384989104500015 0.033408561501099998 0.13222800540899993
v 0.42354631858299996 0 0.1299221836140001
v 0.42384989104500015 0 0.13222800540899993
v 0.42354631858299996 0.033408561501099998 0.1299221836140001
v 0.42384989104500015 0 0.12761636181999991
v 0.42354631858299996 0.033408561501099998 0.1299221836140001
v 0.42384989104500015 0.033408561501099998 0.12761636181999991
v 0.42354631858299996 0 0.1299221836140001
v 0.44136421805000037 0 0.1299221836140001
v 0.42384989104500015 0 0.12761636181999991
v 0.44136421805000037 0.033408561501099998 0.1299221836140001
v 0.44106064558800018 0 0.13222800540899993
v 0.44136421805000037 0 0.1299221836140001
v 0.44106064558800018 0.033408561501099998 0.13222800540899993
v 0.44136421805000037 0 0.1299221836140001
v 0.44106064558800018 0.033408561501099998 0.12761636181999991
v 0.44136421805000037 0.033408561501099998 0.1299221836140001
v 0.44106064558800018 0 0.12761636181999991
v 0.44106064558800018 0 0.12761636181999991
v 0.42473989512300037 0 0.12546770874799984
v 0.42384989104500015 0.033408561501099998 0.12761636181999991
v 0.42473989512300037 0 0.12546770874799984
v 0.42384989104500015 0 0.12761636181999991
v 0.42473989512300037 0.033408561501099998 0.12546770874799984
v 0.42615567571900037 0 0.12362259101599982
v 0.42473989512300037 0.033408561501099998 0.12546770874799984
v 0.42615567571900037 0.033408561501099998 0.12362259101599982
v 0.42473989512300037 0 0.12546770874799984
v 0.44017064150999996 0 0.12546770874799984
v 0.42615567571900037 0 0.12362259101599982
v 0.44017064150999996 0.033408561501099998 0.12546770874799984
v 0.44106064558800018 0 0.12761636181999991
v 0.44017064150999996 0 0.12546770874799984
v 0.44106064558800018 0.033408561501099998 0.12761636181999991
v 0.44017064150999996 0 0.12546770874799984
v 0.43875486091399996 0.033408561501099998 0.12362259101599982
v 0.44017064150999996 0.033408561501099998 0.12546770874799984
v 0.43875486091399996 0 0.12362259101599982
v 0.43875486091399996 0 0.12362259101599982
v 0.42800079344999986 0 0.1222068104209999
v 0.42615567571900037 0 0.12362259101599982
v 0.42800079344999986 0.033408561501099998 0.1222068104209999
v 0.42800079344999986 0 0.1222068104209999
v 0.42615567571900037 0.033408561501099998 0.12362259101599982
v 0.43014944652199993 0.033408561501099998 0.12131680634300013
v 0.42800079344999986 0 0.1222068104209999
v 0.42800079344999986 0.033408561501099998 0.1222068104209999
v 0.43014944652199993 0 0.12131680634300013
v 0.43245526831599967 0.033408561501099998 0.12101323388099994
v 0.43014944652199993 0 0.12131680634300013
v 0.43014944652199993 0.033408561501099998 0.12131680634300013
v 0.43245526831599967 0 0.12101323388099994
v 0.43476109011100039 0.033408561501099998 0.12131680634300013
v 0.43245526831599967 0 0.12101323388099994
v 0.43245526831599967 0.033408561501099998 0.12101323388099994
v 0.43476109011100039 0 0.12131680634300013
v 0.43690974318399967 0.033408561501099998 0.1222068104209999
v 0.43476109011100039 0 0.12131680634300013
v 0.43476109011100039 0.033408561501099998 0.12131680634300013
v 0.43690974318399967 0 0.1222068104209999
v 0.43875486091399996 0.033408561501099998 0.12362259101599982
v 0.43690974318399967 0 0.1222068104209999
v 0.43690974318399967 0.033408561501099998 0.1222068104209999
v 0.43875486091399996 0 0.12362259101599982
v 0.43690974318399967 0 0.1222068104209999
v 0.43014944652199993 0 0.12131680634300013
v 0.43476109011100039 0 0.12131680634300013
v 0.43245526831599967 0 0.12101323388099994
v 0.43690974318399967 0.033408561501099998 0.13763755680799994
v 0.43875486091399996 0 0.13622177621199993
v 0.43875486091399996 0.033408561501099998 0.13622177621199993
v 0.43690974318399967 0 0.13763755680799994
v 0.43476109011100039 0.033408561501099998 0.13852756088500007
v 0.43690974318399967 0 0.13763755680799994
v 0.43690974318399967 0.033408561501099998 0.13763755680799994
v 0.43476109011100039 0 0.13852756088500007
vt -3.4362399578094482 3.5433099269866943
vt -3.1895699501037598 0
vt -3.1895699501037598 3.5433099269866943
vt -3.4362399578094482 0
vt -3.9812901020050049 3.5433099269866943
vt -3.7346301078796387 0
vt -3.7346301078796387 3.5433099269866943
vt -3.9812901020050049 0
vt -4.263430118560791 3.5433099269866943
vt -4.0167698860168457 0
vt -4.0167698860168457 3.5433099269866943
vt -4.263430118560791 0
vt -4.0167698860168457 3.5433099269866943
vt -4.263430118560791 0
vt -4.0167698860168457 0
vt -4.263430118560791 3.5433099269866943
vt -2.665410041809082 3.5433099269866943
vt -2.4187500476837158 0
vt -2.4187500476837158 3.5433099269866943
vt -2.665410041809082 0
vt -2.0400700569152832 3.1973099708557129
vt -2.0400700569152832 2.7081999778747559
vt -2.0078699588775635 2.9527599811553955
vt -2.1344599723815918 3.4251999855041504
vt -2.1344599723815918 2.4803099632263184
vt -2.2846200466156006 3.6208899021148682
vt -2.2846200466156006 2.2846200466156006
vt -2.4803099632263184 3.771049976348877
vt -2.4803099632263184 2.1344599723815918
vt -2.7081999778747559 3.8654398918151855
vt -3.7346301078796387 3.5433099269866943
vt -3.9812901020050049 0
vt -3.7346301078796387 0
vt -3.9812901020050049 3.5433099269866943
vt 0.42172300815582275 0
vt 0.66838699579238892 3.5433099269866943
vt 0.42172300815582275 3.5433099269866943
vt 0.66838699579238892 0
vt 1.4746899604797363 0
vt 1.7213499546051025 3.5433099269866943
vt 1.4746899604797363 3.5433099269866943
vt 1.7213499546051025 0
vt -2.7081999778747559 2.0400700569152832
vt -2.9527599811553955 3.8976399898529053
vt -3.1895699501037598 3.5433099269866943
vt -3.4362399578094482 0
vt -3.1895699501037598 0
vt -3.4362399578094482 3.5433099269866943
vt -2.665410041809082 0
vt -2.4187500476837158 3.5433099269866943
vt -2.665410041809082 3.5433099269866943
vt -2.4187500476837158 0
vt -2.9527599811553955 2.0078699588775635
vt -3.1973099708557129 3.8654398918151855
vt 2.665410041809082 3.5433099269866943
vt 2.4187500476837158 0
vt 2.665410041809082 0
vt 2.4187500476837158 3.5433099269866943
vt 3.1895699501037598 0
vt 3.4362399578094482 3.5433099269866943
vt 3.1895699501037598 3.5433099269866943
vt 3.4362399578094482 0
vt -3.1973099708557129 2.0400700569152832
vt -3.4251999855041504 3.771049976348877
vt -1.4746899604797363 3.5433099269866943
vt -1.7213499546051025 0
vt -1.4746899604797363 0
vt -1.7213499546051025 3.5433099269866943
vt -0.66838699579238892 0
vt -0.42172300815582275 3.5433099269866943
vt -0.66838699579238892 3.5433099269866943
vt -0.42172300815582275 0
vt -3.4251999855041504 2.1344599723815918
vt -3.6208899021148682 3.6208899021148682
vt 3.9812901020050049 3.5433099269866943
vt 3.7346301078796387 0
vt 3.9812901020050049 0
vt 3.7346301078796387 3.5433099269866943
vt 4.0167698860168457 0
vt 4.263430118560791 3.5433099269866943
vt 4.0167698860168457 3.5433099269866943
vt 4.263430118560791 0
vt -3.6208899021148682 2.2846200466156006
vt -3.771049976348877 3.4251999855041504
vt 0.66838699579238892 0
vt 0.42172300815582275 3.5433099269866943
vt 0.42172300815582275 0
vt 0.66838699579238892 3.5433099269866943
vt 1.4746899604797363 3.5433099269866943
vt 1.7213499546051025 0
vt 1.7213499546051025 3.5433099269866943
vt 1.4746899604797363 0
vt 2.4187500476837158 3.5433099269866943
vt 2.665410041809082 0
vt 2.665410041809082 3.5433099269866943
vt 2.4187500476837158 0
vt 3.1895699501037598 3.5433099269866943
vt 3.4362399578094482 0
vt 3.4362399578094482 3.5433099269866943
vt 3.1895699501037598 0
vt 3.7346301078796387 3.5433099269866943
vt 3.9812901020050049 0
vt 3.9812901020050049 3.5433099269866943
vt 3.7346301078796387 0
vt 4.0167698860168457 3.5433099269866943
vt 4.263430118560791 0
vt 4.263430118560791 3.5433099269866943
vt 4.0167698860168457 0
vt -3.771049976348877 2.4803099632263184
vt -3.8654398918151855 3.1973099708557129
vt -3.8654398918151855 2.7081999778747559
vt -3.8976399898529053 2.9527599811553955
vt -0.66838699579238892 3.5433099269866943
vt -0.42172300815582275 0
vt -0.42172300815582275 3.5433099269866943
vt -0.66838699579238892 0
vt -1.7213499546051025 3.5433099269866943
vt -1.4746899604797363 0
vt -1.4746899604797363 3.5433099269866943
vt -1.7213499546051025 0
vn -0.13052842020988464 0 0.99144458770751953
vn -0.13052842020988464 0 0.99144458770751953
vn -0.13052842020988464 0 0.99144458770751953
vn -0.13052842020988464 0 0.99144458770751953
vn -0.38268446922302246 0 0.92387908697128296
vn -0.38268446922302246 0 0.92387908697128296
vn -0.38268446922302246 0 0.92387908697128296
vn -0.38268446922302246 0 0.92387908697128296
vn -0.60875385999679565 0 0.79335916042327881
vn -0.60875385999679565 0 0.79335916042327881
vn -0.60875385999679565 0 0.79335916042327881
vn -0.60875385999679565 0 0.79335916042327881
vn -0.79335916042327881 0 0.60875385999679565
vn -0.79335916042327881 0 0.60875385999679565
vn -0.79335916042327881 0 0.60875385999679565
vn -0.79335916042327881 0 0.60875385999679565
vn 0.13052842020988464 0 0.99144458770751953
vn 0.13052842020988464 0 0.99144458770751953
vn 0.13052842020988464 0 0.99144458770751953
vn 0.13052842020988464 0 0.99144458770751953
vn 0 -1 0
vn 0 -1 0
vn 0 -1 0
vn 0 -1 0
vn 0 -1 0
vn 0 -1 0
vn 0 -1 0
vn 0 -1 0
vn 0 -1 0
vn 0 -1 0
vn -0.92387908697128296 0 0.38268446922302246
vn -0.92387908697128296 0 0.38268446922302246
vn -0.92387908697128296 0 0.38268446922302246
vn -0.92387908697128296 0 0.38268446922302246
vn 0.79335916042327881 0 0.60875385999679565
vn 0.79335916042327881 0 0.60875385999679565
vn 0.79335916042327881 0 0.60875385999679565
vn 0.79335916042327881 0 0.60875385999679565
vn 0.92387908697128296 0 0.38268446922302246
vn 0.92387908697128296 0 0.38268446922302246
vn 0.92387908697128296 0 0.38268446922302246
vn 0.92387908697128296 0 0.38268446922302246
vn 0 -1 0
vn 0 -1 0
vn -0.99144458770751953 0 0.13052842020988464
vn -0.99144458770751953 0 0.13052842020988464
vn -0.99144458770751953 0 0.13052842020988464
vn -0.99144458770751953 0 0.13052842020988464
vn -0.99144458770751953 0 -0.13052842020988464
vn -0.99144458770751953 0 -0.13052842020988464
vn -0.99144458770751953 0 -0.13052842020988464
vn -0.99144458770751953 0 -0.13052842020988464
vn 0 -1 0
vn 0 -1 0
vn 0.99144458770751953 0 0.13052842020988464
vn 0.99144458770751953 0 0.13052842020988464
vn 0.99144458770751953 0 0.13052842020988464
vn 0.99144458770751953 0 0.13052842020988464
vn 0.99144458770751953 0 -0.13052842020988464
vn 0.99144458770751953 0 -0.13052842020988464
vn 0.99144458770751953 0 -0.13052842020988464
vn 0.99144458770751953 0 -0.13052842020988464
vn 0 -1 0
vn 0 -1 0
vn -0.92387908697128296 0 -0.38268446922302246
vn -0.92387908697128296 0 -0.38268446922302246
vn -0.92387908697128296 0 -0.38268446922302246
vn -0.92387908697128296 0 -0.38268446922302246
vn -0.79335916042327881 0 -0.60875385999679565
vn -0.79335916042327881 0 -0.60875385999679565
vn -0.79335916042327881 0 -0.60875385999679565
vn -0.79335916042327881 0 -0.60875385999679565
vn 0 -1 0
vn 0 -1 0
vn 0.92387908697128296 0 -0.38268446922302246
vn 0.92387908697128296 0 -0.38268446922302246
vn 0.92387908697128296 0 -0.38268446922302246
vn 0.92387908697128296 0 -0.38268446922302246
vn 0.79335916042327881 0 -0.60875385999679565
vn 0.79335916042327881 0 -0.60875385999679565
vn 0.79335916042327881 0 -0.60875385999679565
vn 0.79335916042327881 0 -0.60875385999679565
vn 0 -1 0
vn 0 -1 0
vn -0.60875385999679565 0 -0.79335916042327881
vn -0.60875385999679565 0 -0.79335916042327881
vn -0.60875385999679565 0 -0.79335916042327881
vn -0.60875385999679565 0 -0.79335916042327881
vn -0.38268446922302246 0 -0.92387908697128296
vn -0.38268446922302246 0 -0.92387908697128296
vn -0.38268446922302246 0 -0.92387908697128296
vn -0.38268446922302246 0 -0.92387908697128296
vn -0.13052842020988464 0 -0.99144458770751953
vn -0.13052842020988464 0 -0.99144458770751953
vn -0.13052842020988464 0 -0.99144458770751953
vn -0.13052842020988464 0 -0.99144458770751953
vn 0.13052842020988464 0 -0.99144458770751953
vn 0.13052842020988464 0 -0.99144458770751953
vn 0.13052842020988464 0 -0.99144458770751953
vn 0.13052842020988464 0 -0.99144458770751953
vn 0.38268446922302246 0 -0.92387908697128296
vn 0.38268446922302246 0 -0.92387908697128296
vn 0.38268446922302246 0 -0.92387908697128296
vn 0.38268446922302246 0 -0.92387908697128296
vn 0.60875385999679565 0 -0.79335916042327881
vn 0.60875385999679565 0 -0.79335916042327881
vn 0.60875385999679565 0 -0.79335916042327881
vn 0.60875385999679565 0 -0.79335916042327881
vn 0 -1 0
vn 0 -1 0
vn 0 -1 0
vn 0 -1 0
vn 0.60875385999679565 0 0.79335916042327881
vn 0.60875385999679565 0 0.79335916042327881
vn 0.60875385999679565 0 0.79335916042327881
vn 0.60875385999679565 0 0.79335916042327881
vn 0.38268446922302246 0 0.92387908697128296
vn 0.38268446922302246 0 0.92387908697128296
vn 0.38268446922302246 0 0.92387908697128296
vn 0.38268446922302246 0 0.92387908697128296
f 1/1/1 2/2/2 3/3/3
f 2/2/2 1/1/1 4/4/4
f 5/5/5 6/6/6 7/7/7
f 6/6/6 5/5/5 8/8/8
f 9/9/9 10/10/10 11/11/11
f 10/10/10 9/9/9 12/12/12
f 13/13/13 14/14/14 15/15/15
f 14/14/14 13/13/13 16/16/16
f 17/17/17 18/18/18 19/19/19
f 18/18/18 17/17/17 20/20/20
f 21/21/21 22/22/22 23/23/23
f 22/22/22 21/21/21 24/24/24
f 22/22/22 24/24/24 25/25/25
f 25/25/25 24/24/24 26/26/26
f 25/25/25 26/26/26 27/27/27
f 27/27/27 26/26/26 28/28/28
f 27/27/27 28/28/28 29/29/29
f 29/29/29 28/28/28 30/30/30
f 31/31/31 32/32/32 33/33/33
f 32/32/32 31/31/31 34/34/34
f 35/35/35 36/36/36 37/37/37
f 36/36/36 35/35/35 38/38/38
f 39/39/39 40/40/40 41/41/41
f 40/40/40 39/39/39 42/42/42
f 29/29/29 30/30/30 43/43/43
f 43/43/43 30/30/30 44/44/44
f 45/45/45 46/46/46 47/47/47
f 46/46/46 45/45/45 48/48/48
f 49/49/49 50/50/50 51/51/51
f 50/50/50 49/49/49 52/52/52
f 53/53/53 44/44/44 54/54/54
f 43/43/43 44/44/44 53/53/53
f 55/55/55 56/56/56 57/57/57
f 56/56/56 55/55/55 58/58/58
f 59/59/59 60/60/60 61/61/61
f 60/60/60 59/59/59 62/62/62
f 53/53/53 54/54/54 63/63/63
f 63/63/63 54/54/54 64/64/64
f 65/65/65 66/66/66 67/67/67
f 66/66/66 65/65/65 68/68/68
f 69/69/69 70/70/70 71/71/71
f 70/70/70 69/69/69 72/72/72
f 73/73/73 64/64/64 74/74/74
f 63/63/63 64/64/64 73/73/73
f 75/75/75 76/76/76 77/77/77
f 76/76/76 75/75/75 78/78/78
f 79/79/79 80/80/80 81/81/81
f 80/80/80 79/79/79 82/82/82
f 73/73/73 74/74/74 83/83/83
f 83/83/83 74/74/74 84/84/84
f 85/85/85 86/86/86 87/87/87
f 86/86/86 85/85/85 88/88/88
f 89/89/89 90/90/90 91/91/91
f 90/90/90 89/89/89 92/92/92
f 93/93/93 94/94/94 95/95/95
f 94/94/94 93/93/93 96/96/96
f 97/97/97 98/98/98 99/99/99
f 98/98/98 97/97/97 100/100/100
f 101/101/101 102/102/102 103/103/103
f 102/102/102 101/101/101 104/104/104
f 105/105/105 106/106/106 107/107/107
f 106/106/106 105/105/105 108/108/108
f 83/83/83 84/84/84 109/109/109
f 109/109/109 84/84/84 110/110/110
f 109/109/109 110/110/110 111/111/111
f 111/111/111 110/110/110 112/112/112
f 113/113/113 114/114/114 115/115/115
f 114/114/114 113/113/113 116/116/116
f 117/117/117 118/118/118 119/119/119
f 118/118/118 117/117/117 120/120/120
