# Rhino

mtllib Sofa_13_05.mtl
usemtl Default
v 0.38391023573699989 0.042894093130000005 0.17366560081899962
v 0.38682846387299996 0.042894093130000005 0.17258910206200007
v 0.38682846387299996 0 0.17258910206200007
v 0.38391023573699989 0 0.17366560081899962
v 0.38081280561199993 0.042894093130000005 0.17395017929699996
v 0.38391023573699989 0.042894093130000005 0.17366560081899962
v 0.38391023573699989 0 0.17366560081899962
v 0.38081280561199993 0 0.17395017929699996
v 0.37774730775699972 0.042894093130000005 0.1734233921730004
v 0.38081280561199993 0.042894093130000005 0.17395017929699996
v 0.38081280561199993 0 0.17395017929699996
v 0.37774730775699972 0 0.1734233921730004
v 0.37492249342400008 0.042894093130000005 0.17212112750600017
v 0.37774730775699972 0.042894093130000005 0.1734233921730004
v 0.37774730775699972 0 0.1734233921730004
v 0.37492249342400008 0 0.17212112750600017
v 0.37253138603199965 0.042894093130000005 0.17013212840700032
v 0.37492249342400008 0.042894093130000005 0.17212112750600017
v 0.37492249342400008 0 0.17212112750600017
v 0.37253138603199965 0 0.17013212840700032
v 0.37253138603199965 0.042894093130000005 0.17013212840700032
v 0.37253138603199965 0 0.17013212840700032
v 0.37073602993400012 0 0.16759198787200003
v 0.37073602993400012 0.042894093130000005 0.16759198787200003
v 0.38682846387299996 0.042894093130000005 0.17258910206200007
v 0.38936860440900034 0.042894093130000005 0.17079393660400033
v 0.38936860440900034 0 0.17079393660400033
v 0.38682846387299996 0 0.17258910206200007
v 0.38682846387299996 0 0.17258910206200007
v 0.38936860440900034 0 0.17079393660400033
v 0.37492249342400008 0 0.17212112750600017
v 0.37774730775699972 0 0.1734233921730004
v 0.38391023573699989 0 0.17366560081899962
v 0.38081280561199993 0 0.17395017929699996
v 0.37253138603199965 0 0.17013212840700032
v 0.39135760350700011 0 0.16840254325200021
v 0.37073602993400012 0 0.16759198787200003
v 0.39265986817500043 0 0.16557782423899958
v 0.36965938819600019 0 0.16467375973599996
v 0.3931866552979999 0 0.16251232638300017
v 0.36937485737800024 0 0.16157632961099999
v 0.39290207682000045 0 0.15941494391799971
v 0.36990197812299996 0 0.15851083175499969
v 0.391825578063 0 0.15649671578199964
v 0.37120405215000041 0 0.15568601742200006
v 0.39003041260500027 0 0.15395643226699995
v 0.37319290826799989 0 0.15329491003099971
v 0.38763901925300015 0 0.15196757614899958
v 0.37573319178399966 0 0.1514995539320001
v 0.38481430024000041 0 0.15066550212200003
v 0.37865141991899964 0 0.15042291219500026
v 0.38174880238400011 0 0.1501383813780004
v 0.37073602993400012 0.042894093130000005 0.16759198787200003
v 0.37073602993400012 0 0.16759198787200003
v 0.36965938819600019 0 0.16467375973599996
v 0.36965938819600019 0.042894093130000005 0.16467375973599996
v 0.39135760350700011 0 0.16840254325200021
v 0.39135760350700011 0.042894093130000005 0.16840254325200021
v 0.39265986817500043 0.042894093130000005 0.16557782423899958
v 0.39265986817500043 0 0.16557782423899958
v 0.39265986817500043 0 0.16557782423899958
v 0.39265986817500043 0.042894093130000005 0.16557782423899958
v 0.3931866552979999 0.042894093130000005 0.16251232638300017
v 0.3931866552979999 0 0.16251232638300017
v 0.36965938819600019 0.042894093130000005 0.16467375973599996
v 0.36965938819600019 0 0.16467375973599996
v 0.36937485737800024 0 0.16157632961099999
v 0.36937485737800024 0.042894093130000005 0.16157632961099999
v 0.3931866552979999 0 0.16251232638300017
v 0.3931866552979999 0.042894093130000005 0.16251232638300017
v 0.39290207682000045 0.042894093130000005 0.15941494391799971
v 0.39290207682000045 0 0.15941494391799971
v 0.36937485737800024 0.042894093130000005 0.16157632961099999
v 0.36937485737800024 0 0.16157632961099999
v 0.36990197812299996 0 0.15851083175499969
v 0.36990197812299996 0.042894093130000005 0.15851083175499969
v 0.39290207682000045 0 0.15941494391799971
v 0.39290207682000045 0.042894093130000005 0.15941494391799971
v 0.391825578063 0.042894093130000005 0.15649671578199964
v 0.391825578063 0 0.15649671578199964
v 0.36990197812299996 0.042894093130000005 0.15851083175499969
v 0.36990197812299996 0 0.15851083175499969
v 0.37120405215000041 0 0.15568601742200006
v 0.37120405215000041 0.042894093130000005 0.15568601742200006
v 0.391825578063 0 0.15649671578199964
v 0.391825578063 0.042894093130000005 0.15649671578199964
v 0.39003041260500027 0.042894093130000005 0.15395643226699995
v 0.39003041260500027 0 0.15395643226699995
v 0.37120405215000041 0.042894093130000005 0.15568601742200006
v 0.37120405215000041 0 0.15568601742200006
v 0.37319290826799989 0 0.15329491003099971
v 0.37319290826799989 0.042894093130000005 0.15329491003099971
v 0.39003041260500027 0.042894093130000005 0.15395643226699995
v 0.38763901925300015 0.042894093130000005 0.15196757614899958
v 0.38763901925300015 0 0.15196757614899958
v 0.39003041260500027 0 0.15395643226699995
v 0.37319290826799989 0 0.15329491003099971
v 0.37573319178399966 0 0.1514995539320001
v 0.37573319178399966 0.042894093130000005 0.1514995539320001
v 0.37319290826799989 0.042894093130000005 0.15329491003099971
v 0.38763901925300015 0.042894093130000005 0.15196757614899958
v 0.38481430024000041 0.042894093130000005 0.15066550212200003
v 0.38481430024000041 0 0.15066550212200003
v 0.38763901925300015 0 0.15196757614899958
v 0.37573319178399966 0 0.1514995539320001
v 0.37865141991899964 0 0.15042291219500026
v 0.37865141991899964 0.042894093130000005 0.15042291219500026
v 0.37573319178399966 0.042894093130000005 0.1514995539320001
v 0.38481430024000041 0.042894093130000005 0.15066550212200003
v 0.38174880238400011 0.042894093130000005 0.1501383813780004
v 0.38174880238400011 0 0.1501383813780004
v 0.38481430024000041 0 0.15066550212200003
v 0.37865141991899964 0 0.15042291219500026
v 0.38174880238400011 0 0.1501383813780004
v 0.38174880238400011 0.042894093130000005 0.1501383813780004
v 0.37865141991899964 0.042894093130000005 0.15042291219500026
v 0.39135760350700011 0.042894093130000005 0.16840254325200021
v 0.39135760350700011 0 0.16840254325200021
v 0.38936860440900034 0 0.17079393660400033
v 0.38936860440900034 0.042894093130000005 0.17079393660400033
v 0.39290207682000045 0.042894093130000005 0.15941494391799971
v 0.38128075633800051 0.042894093130000005 0.16204428033750062
v 0.391825578063 0.042894093130000005 0.15649671578199964
v 0.39003041260500027 0.042894093130000005 0.15395643226699995
v 0.3931866552979999 0.042894093130000005 0.16251232638300017
v 0.38763901925300015 0.042894093130000005 0.15196757614899958
v 0.38481430024000041 0.042894093130000005 0.15066550212200003
v 0.38936860440900034 0.042894093130000005 0.17079393660400033
v 0.39135760350700011 0.042894093130000005 0.16840254325200021
v 0.39265986817500043 0.042894093130000005 0.16557782423899958
v 0.38391023573699989 0.042894093130000005 0.17366560081899962
v 0.38682846387299996 0.042894093130000005 0.17258910206200007
v 0.38174880238400011 0.042894093130000005 0.1501383813780004
v 0.37865141991899964 0.042894093130000005 0.15042291219500026
v 0.37573319178399966 0.042894093130000005 0.1514995539320001
v 0.37319290826799989 0.042894093130000005 0.15329491003099971
v 0.36990197812299996 0.042894093130000005 0.15851083175499969
v 0.37120405215000041 0.042894093130000005 0.15568601742200006
v 0.36937485737800024 0.042894093130000005 0.16157632961099999
v 0.38081280561199993 0.042894093130000005 0.17395017929699996
v 0.37774730775699972 0.042894093130000005 0.1734233921730004
v 0.37492249342400008 0.042894093130000005 0.17212112750600017
v 0.37073602993400012 0.042894093130000005 0.16759198787200003
v 0.37253138603199965 0.042894093130000005 0.17013212840700032
v 0.36965938819600019 0.042894093130000005 0.16467375973599996
v 0.38128075633800051 0.042894093130000005 0.16204428033750062
v 0.38081280561199993 0.042894093130000005 0.17395017929699996
v 0.37319290826799989 0.042894093130000005 0.15329491003099971
v 0.38128075633800051 0.042894093130000005 0.16204428033750062
v 0.37120405215000041 0.042894093130000005 0.15568601742200006
v 0.37073602993400012 0.042894093130000005 0.16759198787200003
v 0.38128075633800051 0.042894093130000005 0.16204428033750062
vt -0.012494499795138836 0.017999999225139618
vt -0.011189299635589123 0.017999999225139618
vt -0.011189299635589123 0
vt -0.012494499795138836 0
vt -0.018738999962806702 0.017999999225139618
vt -0.017433799803256989 0.017999999225139618
vt -0.017433799803256989 0
vt -0.018738999962806702 0
vt -0.023750999942421913 0.017999999225139618
vt -0.022445699200034142 0.017999999225139618
vt -0.022445699200034142 0
vt -0.023750999942421913 0
vt -0.027188800275325775 0.017999999225139618
vt -0.025883600115776062 0.017999999225139618
vt -0.025883600115776062 0
vt -0.027188800275325775 0
vt -0.028818299993872643 0.017999999225139618
vt -0.027512999251484871 0.017999999225139618
vt -0.027512999251484871 0
vt -0.028818299993872643 0
vt -0.027223000302910805 0.017999999225139618
vt -0.027223000302910805 0
vt -0.028528299182653427 0
vt -0.028528299182653427 0.017999999225139618
vt -0.0054429997690021992 0.017999999225139618
vt -0.0041377400048077106 0.017999999225139618
vt -0.0041377400048077106 0
vt -0.0054429997690021992 0
vt -0.015575000084936619 0.017672000452876091
vt -0.016328299418091774 0.016606099903583527
vt -0.015771400183439255 0.022668100893497467
vt -0.015224900096654892 0.021482799202203751
vt -0.01512330025434494 0.018896600231528282
vt -0.015003900043666363 0.020196400582790375
vt -0.016606099903583527 0.023671699687838554
vt -0.017331900075078011 0.015771400183439255
vt -0.017672000452876091 0.024424999952316284
vt -0.018517199903726578 0.015224900096654892
vt -0.018896600231528282 0.024876700714230537
vt -0.019803600385785103 0.015003900043666363
vt -0.020196400582790375 0.02499609999358654
vt -0.021103400737047195 0.01512330025434494
vt -0.021482799202203751 0.024775100871920586
vt -0.022328000515699387 0.015575000084936619
vt -0.022668100893497467 0.024228600785136223
vt -0.023393899202346802 0.016328299418091774
vt -0.023671699687838554 0.023393899202346802
vt -0.024228600785136223 0.017331900075078011
vt -0.024424999952316284 0.022328000515699387
vt -0.024775100871920586 0.018517199903726578
vt -0.024876700714230537 0.021103400737047195
vt -0.02499609999358654 0.019803600385785103
vt -0.025033300742506981 0.017999999225139618
vt -0.025033300742506981 0
vt -0.026338599622249603 0
vt -0.026338599622249603 0.017999999225139618
vt 0.0091366097331047058 0
vt 0.0091366097331047058 0.017999999225139618
vt 0.010441900230944157 0.017999999225139618
vt 0.010441900230944157 0
vt 0.015671100467443466 0
vt 0.015671100467443466 0.017999999225139618
vt 0.016976399347186089 0.017999999225139618
vt 0.016976399347186089 0
vt -0.021093200892210007 0.017999999225139618
vt -0.021093200892210007 0
vt -0.022398499771952629 0
vt -0.022398499771952629 0.017999999225139618
vt 0.021093200892210007 0
vt 0.021093200892210007 0.017999999225139618
vt 0.022398499771952629 0.017999999225139618
vt 0.022398499771952629 0
vt -0.015671100467443466 0.017999999225139618
vt -0.015671100467443466 0
vt -0.016976399347186089 0
vt -0.016976399347186089 0.017999999225139618
vt 0.025033300742506981 0
vt 0.025033300742506981 0.017999999225139618
vt 0.026338599622249603 0.017999999225139618
vt 0.026338599622249603 0
vt -0.0091366097331047058 0.017999999225139618
vt -0.0091366097331047058 0
vt -0.010441900230944157 0
vt -0.010441900230944157 0.017999999225139618
vt 0.027223000302910805 0
vt 0.027223000302910805 0.017999999225139618
vt 0.028528299182653427 0.017999999225139618
vt 0.028528299182653427 0
vt -0.0019349700305610895 0.017999999225139618
vt -0.0019349700305610895 0
vt -0.0032402400393038988 0
vt -0.0032402400393038988 0.017999999225139618
vt 0.027512999251484871 0.017999999225139618
vt 0.028818299993872643 0.017999999225139618
vt 0.028818299993872643 0
vt 0.027512999251484871 0
vt 0.0054429997690021992 0
vt 0.0041377400048077106 0
vt 0.0041377400048077106 0.017999999225139618
vt 0.0054429997690021992 0.017999999225139618
vt 0.025883600115776062 0.017999999225139618
vt 0.027188800275325775 0.017999999225139618
vt 0.027188800275325775 0
vt 0.025883600115776062 0
vt 0.012494499795138836 0
vt 0.011189299635589123 0
vt 0.011189299635589123 0.017999999225139618
vt 0.012494499795138836 0.017999999225139618
vt 0.022445699200034142 0.017999999225139618
vt 0.023750999942421913 0.017999999225139618
vt 0.023750999942421913 0
vt 0.022445699200034142 0
vt 0.018738999962806702 0
vt 0.017433799803256989 0
vt 0.017433799803256989 0.017999999225139618
vt 0.018738999962806702 0.017999999225139618
vt 0.0032402400393038988 0.017999999225139618
vt 0.0032402400393038988 0
vt 0.0019349700305610895 0
vt 0.0019349700305610895 0.017999999225139618
vt 0.01195115502923727 0.3895784318447113
vt 0.5 0.5
vt 0.057159785181283951 0.26702454686164856
vt 0.13254953920841217 0.16034282743930817
vt 0 0.51965606212615967
vt 0.2329784631729126 0.076818846166133881
vt 0.35160532593727112 0.022136956453323364
vt 0.16034282743930817 0.86745047569274902
vt 0.07681284099817276 0.7670215368270874
vt 0.022122945636510849 0.64839464426040649
vt 0.38957241177558899 0.98804885149002075
vt 0.26701852679252625 0.94284021854400635
vt 0.48034393787384033 0
vt 0.61042159795761108 0.011949152685701847
vt 0.73297548294067383 0.057163786143064499
vt 0.83965718746185303 0.13256154954433441
vt 0.97786301374435425 0.35160931944847107
vt 0.92318117618560791 0.2329784631729126
vt 1 0.48034796118736267
vt 0.51965206861495972 1
vt 0.64839065074920654 0.97787708044052124
vt 0.7670215368270874 0.92318713665008545
vt 0.9428362250328064 0.73298144340515137
vt 0.86743843555450439 0.83965718746185303
vt 0.98805081844329834 0.61042755842208862
vt 0.5 0.5
vt 0.51965206861495972 1
vt 0.83965718746185303 0.13256154954433441
vt 0.5 0.5
vt 0.92318117618560791 0.2329784631729126
vt 0.9428362250328064 0.73298144340515137
vt 0.5 0.5
vn -0.3460908830165863 0 -0.93820101022720337
vn -0.3460908830165863 0 -0.93820101022720337
vn -0.3460908830165863 0 -0.93820101022720337
vn -0.3460908830165863 0 -0.93820101022720337
vn -0.09149034321308136 0 -0.99580597877502441
vn -0.09149034321308136 0 -0.99580597877502441
vn -0.09149034321308136 0 -0.99580597877502441
vn -0.09149034321308136 0 -0.99580597877502441
vn 0.16936144232749939 0 -0.98555397987365723
vn 0.16936144232749939 0 -0.98555397987365723
vn 0.16936144232749939 0 -0.98555397987365723
vn 0.16936144232749939 0 -0.98555397987365723
vn 0.41866171360015869 0 -0.90814226865768433
vn 0.41866171360015869 0 -0.90814226865768433
vn 0.41866171360015869 0 -0.90814226865768433
vn 0.41866171360015869 0 -0.90814226865768433
vn 0.6395028829574585 0 -0.76878869533538818
vn 0.6395028829574585 0 -0.76878869533538818
vn 0.6395028829574585 0 -0.76878869533538818
vn 0.6395028829574585 0 -0.76878869533538818
vn 0.81661695241928101 0 -0.57717996835708618
vn 0.81661695241928101 0 -0.57717996835708618
vn 0.81661695241928101 0 -0.57717996835708618
vn 0.81661695241928101 0 -0.57717996835708618
vn -0.57713907957077026 0 -0.81664586067199707
vn -0.57713907957077026 0 -0.81664586067199707
vn -0.57713907957077026 0 -0.81664586067199707
vn -0.57713907957077026 0 -0.81664586067199707
vn 0 1 0
vn 0 1 0
vn 0 1 0
vn 0 1 0
vn 0 1 0
vn 0 1 0
vn 0 1 0
vn 0 1 0
vn 0 1 0
vn 0 1 0
vn 0 1 0
vn 0 1 0
vn 0 1 0
vn 0 1 0
vn 0 1 0
vn 0 1 0
vn 0 1 0
vn 0 1 0
vn 0 1 0
vn 0 1 0
vn 0 1 0
vn 0 1 0
vn 0 1 0
vn 0 1 0
vn 0.93818604946136475 0 -0.34613135457038879
vn 0.93818604946136475 0 -0.34613135457038879
vn 0.93818604946136475 0 -0.34613135457038879
vn 0.93818604946136475 0 -0.34613135457038879
vn -0.90813690423965454 0 -0.41867336630821228
vn -0.90813690423965454 0 -0.41867336630821228
vn -0.90813690423965454 0 -0.41867336630821228
vn -0.90813690423965454 0 -0.41867336630821228
vn -0.98555397987365723 0 -0.16936144232749939
vn -0.98555397987365723 0 -0.16936144232749939
vn -0.98555397987365723 0 -0.16936144232749939
vn -0.98555397987365723 0 -0.16936144232749939
vn 0.99580734968185425 0 -0.091475151479244232
vn 0.99580734968185425 0 -0.091475151479244232
vn 0.99580734968185425 0 -0.091475151479244232
vn 0.99580734968185425 0 -0.091475151479244232
vn -0.99580585956573486 0 0.091491736471652985
vn -0.99580585956573486 0 0.091491736471652985
vn -0.99580585956573486 0 0.091491736471652985
vn -0.99580585956573486 0 0.091491736471652985
vn 0.98553609848022461 0 0.16946563124656677
vn 0.98553609848022461 0 0.16946563124656677
vn 0.98553609848022461 0 0.16946563124656677
vn 0.98553609848022461 0 0.16946563124656677
vn -0.93820101022720337 0 0.3460908830165863
vn -0.93820101022720337 0 0.3460908830165863
vn -0.93820101022720337 0 0.3460908830165863
vn -0.93820101022720337 0 0.3460908830165863
vn 0.9081655740737915 0 0.41861116886138916
vn 0.9081655740737915 0 0.41861116886138916
vn 0.9081655740737915 0 0.41861116886138916
vn 0.9081655740737915 0 0.41861116886138916
vn -0.81666117906570435 0 0.5771174430847168
vn -0.81666117906570435 0 0.5771174430847168
vn -0.81666117906570435 0 0.5771174430847168
vn -0.81666117906570435 0 0.5771174430847168
vn 0.76881128549575806 0 0.63947570323944092
vn 0.76881128549575806 0 0.63947570323944092
vn 0.76881128549575806 0 0.63947570323944092
vn 0.76881128549575806 0 0.63947570323944092
vn -0.63943052291870117 0 0.76884889602661133
vn -0.63943052291870117 0 0.76884889602661133
vn -0.63943052291870117 0 0.76884889602661133
vn -0.63943052291870117 0 0.76884889602661133
vn 0.57715833187103271 0 0.81663227081298828
vn 0.57715833187103271 0 0.81663227081298828
vn 0.57715833187103271 0 0.81663227081298828
vn 0.57715833187103271 0 0.81663227081298828
vn -0.41862282156944275 0 0.90816020965576172
vn -0.41862282156944275 0 0.90816020965576172
vn -0.41862282156944275 0 0.90816020965576172
vn -0.41862282156944275 0 0.90816020965576172
vn 0.34613135457038879 0 0.93818604946136475
vn 0.34613135457038879 0 0.93818604946136475
vn 0.34613135457038879 0 0.93818604946136475
vn 0.34613135457038879 0 0.93818604946136475
vn -0.16946563124656677 0 0.98553609848022461
vn -0.16946563124656677 0 0.98553609848022461
vn -0.16946563124656677 0 0.98553609848022461
vn -0.16946563124656677 0 0.98553609848022461
vn 0.091476544737815857 0 0.9958072304725647
vn 0.091476544737815857 0 0.9958072304725647
vn 0.091476544737815857 0 0.9958072304725647
vn 0.091476544737815857 0 0.9958072304725647
vn -0.76882630586624146 0 -0.63945764303207397
vn -0.76882630586624146 0 -0.63945764303207397
vn -0.76882630586624146 0 -0.63945764303207397
vn -0.76882630586624146 0 -0.63945764303207397
vn 0 -1 0
vn 0 1 0
vn 0 -1 0
vn 0 -1 0
vn 0 -1 0
vn 0 -1 0
vn 0 -1 0
vn 0 -1 0
vn 0 -1 0
vn 0 -1 0
vn 0 -1 0
vn 0 -1 0
vn 0 -1 0
vn 0 -1 0
vn 0 -1 0
vn 0 1 0
vn 0 -1 0
vn 0 1 0
vn 0 -1 0
vn 0 1 0
vn 0 1 0
vn 0 1 0
vn 0 1 0
vn 0 1 0
vn 0 -1 0
vn 0 -1 0
vn 0 -1 0
vn 0 -1 0
vn 0 -1 0
vn 0 -1 0
vn 0 -1 0
vn 0 1 0
f 1/1/1 2/2/2 3/3/3
f 3/3/3 4/4/4 1/1/1
f 5/5/5 6/6/6 7/7/7
f 7/7/7 8/8/8 5/5/5
f 9/9/9 10/10/10 11/11/11
f 11/11/11 12/12/12 9/9/9
f 13/13/13 14/14/14 15/15/15
f 15/15/15 16/16/16 13/13/13
f 17/17/17 18/18/18 19/19/19
f 19/19/19 20/20/20 17/17/17
f 21/21/21 22/22/22 23/23/23
f 23/23/23 24/24/24 21/21/21
f 25/25/25 26/26/26 27/27/27
f 27/27/27 28/28/28 25/25/25
f 29/29/29 30/30/30 31/31/31
f 29/29/29 31/31/31 32/32/32
f 33/33/33 29/29/29 32/32/32
f 32/32/32 34/34/34 33/33/33
f 30/30/30 35/35/35 31/31/31
f 30/30/30 36/36/36 35/35/35
f 36/36/36 37/37/37 35/35/35
f 36/36/36 38/38/38 37/37/37
f 38/38/38 39/39/39 37/37/37
f 38/38/38 40/40/40 39/39/39
f 40/40/40 41/41/41 39/39/39
f 40/40/40 42/42/42 41/41/41
f 42/42/42 43/43/43 41/41/41
f 42/42/42 44/44/44 43/43/43
f 44/44/44 45/45/45 43/43/43
f 44/44/44 46/46/46 45/45/45
f 46/46/46 47/47/47 45/45/45
f 46/46/46 48/48/48 47/47/47
f 48/48/48 49/49/49 47/47/47
f 48/48/48 50/50/50 49/49/49
f 50/50/50 51/51/51 49/49/49
f 50/50/50 52/52/52 51/51/51
f 53/53/53 54/54/54 55/55/55
f 55/55/55 56/56/56 53/53/53
f 57/57/57 58/58/58 59/59/59
f 59/59/59 60/60/60 57/57/57
f 61/61/61 62/62/62 63/63/63
f 63/63/63 64/64/64 61/61/61
f 65/65/65 66/66/66 67/67/67
f 67/67/67 68/68/68 65/65/65
f 69/69/69 70/70/70 71/71/71
f 71/71/71 72/72/72 69/69/69
f 73/73/73 74/74/74 75/75/75
f 75/75/75 76/76/76 73/73/73
f 77/77/77 78/78/78 79/79/79
f 79/79/79 80/80/80 77/77/77
f 81/81/81 82/82/82 83/83/83
f 83/83/83 84/84/84 81/81/81
f 85/85/85 86/86/86 87/87/87
f 87/87/87 88/88/88 85/85/85
f 89/89/89 90/90/90 91/91/91
f 91/91/91 92/92/92 89/89/89
f 93/93/93 94/94/94 95/95/95
f 95/95/95 96/96/96 93/93/93
f 97/97/97 98/98/98 99/99/99
f 99/99/99 100/100/100 97/97/97
f 101/101/101 102/102/102 103/103/103
f 103/103/103 104/104/104 101/101/101
f 105/105/105 106/106/106 107/107/107
f 107/107/107 108/108/108 105/105/105
f 109/109/109 110/110/110 111/111/111
f 111/111/111 112/112/112 109/109/109
f 113/113/113 114/114/114 115/115/115
f 115/115/115 116/116/116 113/113/113
f 117/117/117 118/118/118 119/119/119
f 119/119/119 120/120/120 117/117/117
f 121/121/121 146/146/146 123/123/123
f 123/123/123 146/146/146 124/124/124
f 121/121/121 125/125/125 146/146/146
f 146/146/146 126/126/126 124/124/124
f 126/126/126 146/146/146 127/127/127
f 128/128/128 146/146/146 129/129/129
f 129/129/129 146/146/146 130/130/130
f 131/131/131 146/146/146 132/132/132
f 130/130/130 146/146/146 125/125/125
f 146/146/146 128/128/128 132/132/132
f 146/146/146 133/133/133 127/127/127
f 134/134/134 146/146/146 135/135/135
f 135/135/135 146/146/146 148/148/148
f 149/149/149 137/137/137 150/150/150
f 136/136/136 138/138/138 122/122/122
f 139/139/139 137/137/137 149/149/149
f 140/140/140 152/152/152 141/141/141
f 142/142/142 141/141/141 152/152/152
f 131/131/131 147/147/147 146/146/146
f 152/152/152 143/143/143 144/144/144
f 144/144/144 142/142/142 152/152/152
f 151/151/151 145/145/145 149/149/149
f 145/145/145 139/139/139 149/149/149
f 133/133/133 146/146/146 134/134/134
