# Rhino

mtllib Sofa_10_05.mtl
usemtl Default
v -0.26305417563099986 0.20452771182099999 -0.25709439571700088
v -0.27101030368400014 0.0090280995690000254 -0.26038983337200072
v -0.26305417563099986 0.0090280995690000254 -0.25709439571700088
v -0.27101030368400014 0.207823149476 -0.26038983337200072
v -0.26305417563099986 0.20452771182099999 -0.25709439571700088
v -0.27101030368400014 0.207823149476 0.22315838590099979
v -0.27101030368400014 0.207823149476 -0.26038983337200072
v -0.26305417563099986 0.20452771182099999 0.22040625013000081
v -0.26305417563099986 0.20452771182099999 0.22040625013000081
v -0.27101030368400014 0.0076100434810000284 0.25942537710099955
v -0.27101030368400014 0.207823149476 0.22315838590099979
v -0.26305417563099986 0.0070222086560000063 0.2561827427899992
v -0.26305417563099986 0.011033354295999998 0.27832452119799989
v -0.27101030368400014 0.2237347693982 0.23644637939599988
v -0.27101030368400014 0.010446155655999989 0.27508188688799962
v -0.26305417563099986 0.22703020705350002 0.23919915135300052
v -0.26305417563099986 0.22703020705350002 0.23919915135300052
v -0.27101030368400014 0.2237347693982 -0.27630081710900001
v -0.27101030368400014 0.2237347693982 0.23644637939599988
v -0.26305417563099986 0.22703020705350002 -0.27959625476499994
v -0.26305417563099986 0.0090280995690000254 -0.27959625476499994
v -0.27101030368400014 0.2237347693982 -0.27630081710900001
v -0.26305417563099986 0.22703020705350002 -0.27959625476499994
v -0.27101030368400014 0.0090280995690000254 -0.27630081710900001
v -0.27430510515499984 0.0090280995690000254 -0.26834532524100041
v -0.27101030368400014 0.2237347693982 -0.27630081710900001
v -0.27101030368400014 0.0090280995690000254 -0.27630081710900001
v -0.27430510515499984 0.21577864134500002 -0.26834532524100041
v -0.27101030368400014 0.0090280995690000254 -0.26038983337200072
v -0.27430510515499984 0.21577864134500002 -0.26834532524100041
v -0.27430510515499984 0.0090280995690000254 -0.26834532524100041
v -0.27101030368400014 0.207823149476 -0.26038983337200072
v -0.27101030368400014 0.207823149476 -0.26038983337200072
v -0.27430510515499984 0.21577864134500002 0.22980206455600083
v -0.27430510515499984 0.21577864134500002 -0.26834532524100041
v -0.27101030368400014 0.207823149476 0.22315838590099979
v -0.27101030368400014 0.0076100434810000284 0.25942537710099955
v -0.27430510515499984 0.21577864134500002 0.22980206455600083
v -0.27101030368400014 0.207823149476 0.22315838590099979
v -0.27430510515499984 0.0090280995690000254 0.26725299580900064
v -0.27101030368400014 0.2237347693982 0.23644637939599988
v -0.27430510515499984 0.0090280995690000254 0.26725299580900064
v -0.27101030368400014 0.010446155655999989 0.27508188688799962
v -0.27430510515499984 0.21577864134500002 0.22980206455600083
v -0.27101030368400014 0.2237347693982 0.23644637939599988
v -0.27430510515499984 0.21577864134500002 -0.26834532524100041
v -0.27430510515499984 0.21577864134500002 0.22980206455600083
v -0.27101030368400014 0.2237347693982 -0.27630081710900001
v -0.26305417563099986 0.0090280995690000254 -0.25709439571700088
v -0.25509868376200018 0.0090280995690000254 -0.26038983337200072
v -0.26305417563099986 0.20452771182099999 -0.25709439571700088
v -0.25509868376200018 0.0090280995690000254 -0.27630081710900001
v -0.26305417563099986 0.0090280995690000254 -0.27959625476499994
v -0.25509868376200018 0.2237347693982 -0.27630081710900001
v -0.26305417563099986 0.22703020705350002 -0.27959625476499994
v -0.26305417563099986 0.22703020705350002 -0.27959625476499994
v -0.26305417563099986 0.22703020705350002 0.23919915135300052
v -0.25509868376200018 0.2237347693982 -0.27630081710900001
v -0.25509868376200018 0.2237347693982 0.23644637939599988
v -0.25509868376200018 0.2237347693982 -0.27630081710900001
v -0.25509868376200018 0.2237347693982 0.23644637939599988
v -0.25180388229200013 0.21577864134500002 -0.26834532524100041
v -0.25180388229200013 0.21577864134500002 0.22980206455600083
v -0.25180388229200013 0.21577864134500002 -0.26834532524100041
v -0.25180388229200013 0.21577864134500002 0.22980206455600083
v -0.25509868376200018 0.207823149476 -0.26038983337200072
v -0.25509868376200018 0.207823149476 0.22315838590099979
v -0.25509868376200018 0.207823149476 -0.26038983337200072
v -0.25509868376200018 0.207823149476 0.22315838590099979
v -0.26305417563099986 0.20452771182099999 -0.25709439571700088
v -0.26305417563099986 0.20452771182099999 0.22040625013000081
v -0.25509868376200018 0.207823149476 0.22315838590099979
v -0.25509868376200018 0.0076100434810000284 0.25942537710099955
v -0.26305417563099986 0.20452771182099999 0.22040625013000081
v -0.25509868376200018 0.207823149476 0.22315838590099979
v -0.25180388229200013 0.21577864134500002 0.22980206455600083
v -0.25509868376200018 0.0076100434810000284 0.25942537710099955
v -0.25180388229200013 0.0090280995690000254 0.26725299580900064
v -0.25509868376200018 0.010446155655999989 0.27508188688799962
v -0.25180388229200013 0.0090280995690000254 0.26725299580900064
v -0.25509868376200018 0.2237347693982 0.23644637939599988
v -0.25180388229200013 0.21577864134500002 0.22980206455600083
v -0.25509868376200018 0.010446155655999989 0.27508188688799962
v -0.25509868376200018 0.2237347693982 0.23644637939599988
v -0.26305417563099986 0.011033354295999998 0.27832452119799989
v -0.26305417563099986 0.22703020705350002 0.23919915135300052
v -0.26305417563099986 0.0070222086560000063 0.2561827427899992
v -0.25509868376200018 0.207823149476 -0.26038983337200072
v -0.25509868376200018 0.207823149476 -0.26038983337200072
v -0.25509868376200018 0.0090280995690000254 -0.26038983337200072
v -0.25180388229200013 0.21577864134500002 -0.26834532524100041
v -0.25180388229200013 0.0090280995690000254 -0.26834532524100041
v -0.25180388229200013 0.21577864134500002 -0.26834532524100041
v -0.25180388229200013 0.0090280995690000254 -0.26834532524100041
v -0.25509868376200018 0.2237347693982 -0.27630081710900001
v -0.25509868376200018 0.0090280995690000254 -0.27630081710900001
v -0.27430510515499984 0.0090280995690000254 -0.26834532524100041
v -0.27101030368400014 0.0090280995690000254 -0.26038983337200072
v -0.27101030368400014 0.0090280995690000254 -0.27630081710900001
v -0.26305449372349976 0.0090280995690000254 -0.26834532524100041
v -0.26305417563099986 0.0090280995690000254 -0.25709439571700088
v -0.26305417563099986 0.0090280995690000254 -0.27959625476499994
v -0.25509868376200018 0.0090280995690000254 -0.26038983337200072
v -0.25509868376200018 0.0090280995690000254 -0.27630081710900001
v -0.25180388229200013 0.0090280995690000254 -0.26834532524100041
v -0.27430510515499984 0.0090280995690000254 0.26725299580900064
v -0.27101030368400014 0.010446155655999989 0.27508188688799962
v -0.27101030368400014 0.0076100434810000284 0.25942537710099955
v -0.26305449372349976 0.0090277814760000019 0.26725363199399865
v -0.26305417563099986 0.011033354295999998 0.27832452119799989
v -0.26305417563099986 0.0070222086560000063 0.2561827427899992
v -0.25509868376200018 0.010446155655999989 0.27508188688799962
v -0.25509868376200018 0.0076100434810000284 0.25942537710099955
v -0.25180388229200013 0.0090280995690000254 0.26725299580900064
vt 3.4725000858306885 82.477500915527344
vt 0 3.6405000686645508
vt 3.4725000858306885 3.6405000686645508
vt 0 83.806396484375
vt 9.0740995407104492 31.562799453735352
vt 202.74000549316406 35.035301208496094
vt 7.7452001571655273 35.035301208496094
vt 201.6300048828125 31.562799453735352
vt 78.228401184082031 50.749698638916016
vt 87.289901733398438 -29.758199691772461
vt 81.615798950195312 52.096900939941406
vt 83.825698852539062 -29.998300552368164
vt 87.289901733398438 -29.758199691772461
vt 77.781097412109375 57.202499389648438
vt 83.825698852539062 -29.998300552368164
vt 81.168502807617188 58.549800872802734
vt 209.20799255371094 35.035301208496094
vt 1.3288999795913696 31.562799453735352
vt 208.09800720214844 31.562799453735352
vt 0 35.035301208496094
vt 0 3.6405000686645508
vt 3.4725000858306885 90.222702026367188
vt 0 91.551597595214844
vt 3.4725000858306885 3.6405000686645508
vt 5.9278998374938965 3.6405000686645508
vt 2.4553999900817871 90.222702026367188
vt 2.4553999900817871 3.6405000686645508
vt 5.9278998374938965 87.014602661132812
vt 5.9278998374938965 3.6405000686645508
vt 2.4553999900817871 87.014602661132812
vt 2.4553999900817871 3.6405000686645508
vt 5.9278998374938965 83.806396484375
vt 7.7452001571655273 78.654701232910156
vt 205.41900634765625 82.127197265625
vt 4.5370001792907715 82.127197265625
vt 202.74000549316406 78.654701232910156
vt 202.49800109863281 -2.3317000865936279
vt 191.93800354003906 81.810096740722656
vt 188.95500183105469 78.594398498535156
vt 205.92300415039062 -1.7585999965667725
vt 191.49600219726562 84.452598571777344
vt 202.49800109863281 -2.3317000865936279
vt 205.92300415039062 -1.7585999965667725
vt 188.51300048828125 81.236900329589844
vt 208.09800720214844 82.127197265625
vt 4.5370001792907715 78.654701232910156
vt 205.41900634765625 78.654701232910156
vt 1.3288999795913696 82.127197265625
vt 3.4725000858306885 3.6405000686645508
vt 0 3.6405000686645508
vt 3.4725000858306885 82.477500915527344
vt 3.4725000858306885 3.6405000686645508
vt 0 3.6405000686645508
vt 3.4725000858306885 90.222702026367188
vt 0 91.551597595214844
vt 0 35.035301208496094
vt 209.20799255371094 35.035301208496094
vt 1.3288999795913696 31.562799453735352
vt 208.09800720214844 31.562799453735352
vt 1.3288999795913696 82.127197265625
vt 208.09800720214844 82.127197265625
vt 4.5370001792907715 78.654701232910156
vt 205.41900634765625 78.654701232910156
vt 4.5370001792907715 82.127197265625
vt 205.41900634765625 82.127197265625
vt 7.7452001571655273 78.654701232910156
vt 202.74000549316406 78.654701232910156
vt 7.7452001571655273 35.035301208496094
vt 202.74000549316406 35.035301208496094
vt 9.0740995407104492 31.562799453735352
vt 201.6300048828125 31.562799453735352
vt 81.615798950195312 52.096900939941406
vt 87.289901733398438 -29.758199691772461
vt 78.228401184082031 50.749698638916016
vt 188.95500183105469 78.594398498535156
vt 191.93800354003906 81.810096740722656
vt 202.49800109863281 -2.3317000865936279
vt 205.92300415039062 -1.7585999965667725
vt 205.92300415039062 -1.7585999965667725
vt 202.49800109863281 -2.3317000865936279
vt 191.49600219726562 84.452598571777344
vt 188.51300048828125 81.236900329589844
vt 83.825698852539062 -29.998300552368164
vt 77.781097412109375 57.202499389648438
vt 87.289901733398438 -29.758199691772461
vt 81.168502807617188 58.549800872802734
vt 83.825698852539062 -29.998300552368164
vt 0 83.806396484375
vt 5.9278998374938965 83.806396484375
vt 5.9278998374938965 3.6405000686645508
vt 2.4553999900817871 87.014602661132812
vt 2.4553999900817871 3.6405000686645508
vt 5.9278998374938965 87.014602661132812
vt 5.9278998374938965 3.6405000686645508
vt 2.4553999900817871 90.222702026367188
vt 2.4553999900817871 3.6405000686645508
vt 0.5 1
vt 0.14645180106163025 0.8535723090171814
vt 0.85354822874069214 0.8535723090171814
vt 0.5 0.5
vt 0 0.49998587369918823
vt 1 0.49998587369918823
vt 0.14645180106163025 0.14642766118049622
vt 0.85354822874069214 0.14642766118049622
vt 0.5 0
vt 0.49997469782829285 1
vt 0.85355311632156372 0.8535723090171814
vt 0.1464519202709198 0.8535723090171814
vt 0.5 0.5
vt 1 0.49998587369918823
vt 0 0.49998587369918823
vt 0.85355311632156372 0.14642766118049622
vt 0.1464519202709198 0.14642766118049622
vt 0.49997469782829285 0
vn -0.38267368078231812 0 0.92388355731964111
vn -0.38267368078231812 0 0.92388355731964111
vn -0.38267368078231812 0 0.92388355731964111
vn -0.38267368078231812 0 0.92388355731964111
vn -0.38267368078231812 -0.92388355731964111 0
vn -0.38267368078231812 -0.92388355731964111 0
vn -0.38267368078231812 -0.92388355731964111 0
vn -0.38267368078231812 -0.92388355731964111 0
vn -0.38267472386360168 -0.16467411816120148 -0.9090888500213623
vn -0.38267472386360168 -0.16467411816120148 -0.9090888500213623
vn -0.38267472386360168 -0.16467411816120148 -0.9090888500213623
vn -0.38267472386360168 -0.16467411816120148 -0.9090888500213623
vn -0.38266721367835999 0.16467463970184326 0.90909188985824585
vn -0.38266721367835999 0.16467463970184326 0.90909188985824585
vn -0.38266721367835999 0.16467463970184326 0.90909188985824585
vn -0.38266721367835999 0.16467463970184326 0.90909188985824585
vn -0.38267368078231812 0.92388355731964111 0
vn -0.38267368078231812 0.92388355731964111 0
vn -0.38267368078231812 0.92388355731964111 0
vn -0.38267368078231812 0.92388355731964111 0
vn -0.38267368078231812 0 -0.92388355731964111
vn -0.38267368078231812 0 -0.92388355731964111
vn -0.38267368078231812 0 -0.92388355731964111
vn -0.38267368078231812 0 -0.92388355731964111
vn -0.92389887571334839 0 -0.38263672590255737
vn -0.92389887571334839 0 -0.38263672590255737
vn -0.92389887571334839 0 -0.38263672590255737
vn -0.92389887571334839 0 -0.38263672590255737
vn -0.92389887571334839 0 0.38263672590255737
vn -0.92389887571334839 0 0.38263672590255737
vn -0.92389887571334839 0 0.38263672590255737
vn -0.92389887571334839 0 0.38263672590255737
vn -0.92389887571334839 -0.38263672590255737 0
vn -0.92389887571334839 -0.38263672590255737 0
vn -0.92389887571334839 -0.38263672590255737 0
vn -0.92389887571334839 -0.38263672590255737 0
vn -0.92389541864395142 -0.068203143775463104 -0.37651768326759338
vn -0.92389541864395142 -0.068203143775463104 -0.37651768326759338
vn -0.92389541864395142 -0.068203143775463104 -0.37651768326759338
vn -0.92389541864395142 -0.068203143775463104 -0.37651768326759338
vn -0.92391228675842285 0.068195872008800507 0.37647759914398193
vn -0.92391228675842285 0.068195872008800507 0.37647759914398193
vn -0.92391228675842285 0.068195872008800507 0.37647759914398193
vn -0.92391228675842285 0.068195872008800507 0.37647759914398193
vn -0.92390966415405273 0.38261061906814575 0
vn -0.92390966415405273 0.38261061906814575 0
vn -0.92390966415405273 0.38261061906814575 0
vn -0.92390966415405273 0.38261061906814575 0
vn 0.38269978761672974 0 0.92387276887893677
vn 0.38269978761672974 0 0.92387276887893677
vn 0.38269978761672974 0 0.92387276887893677
vn 0.38269978761672974 0 -0.92387276887893677
vn 0.38269978761672974 0 -0.92387276887893677
vn 0.38269978761672974 0 -0.92387276887893677
vn 0.38269978761672974 0 -0.92387276887893677
vn 0.38269978761672974 0.92387276887893677 0
vn 0.38269978761672974 0.92387276887893677 0
vn 0.38269978761672974 0.92387276887893677 0
vn 0.38269978761672974 0.92387276887893677 0
vn 0.92390966415405273 0.38261061906814575 0
vn 0.92390966415405273 0.38261061906814575 0
vn 0.92390966415405273 0.38261061906814575 0
vn 0.92390966415405273 0.38261061906814575 0
vn 0.92389887571334839 -0.38263672590255737 0
vn 0.92389887571334839 -0.38263672590255737 0
vn 0.92389887571334839 -0.38263672590255737 0
vn 0.92389887571334839 -0.38263672590255737 0
vn 0.38269978761672974 -0.92387276887893677 0
vn 0.38269978761672974 -0.92387276887893677 0
vn 0.38269978761672974 -0.92387276887893677 0
vn 0.38269978761672974 -0.92387276887893677 0
vn 0.38270086050033569 -0.16467218101024628 -0.90907818078994751
vn 0.38270086050033569 -0.16467218101024628 -0.90907818078994751
vn 0.38270086050033569 -0.16467218101024628 -0.90907818078994751
vn 0.92389541864395142 -0.068203143775463104 -0.37651768326759338
vn 0.92389541864395142 -0.068203143775463104 -0.37651768326759338
vn 0.92389541864395142 -0.068203143775463104 -0.37651768326759338
vn 0.92389541864395142 -0.068203143775463104 -0.37651768326759338
vn 0.92391228675842285 0.068195872008800507 0.37647759914398193
vn 0.92391228675842285 0.068195872008800507 0.37647759914398193
vn 0.92391228675842285 0.068195872008800507 0.37647759914398193
vn 0.92391228675842285 0.068195872008800507 0.37647759914398193
vn 0.38269332051277161 0.16467271745204926 0.90908122062683105
vn 0.38269332051277161 0.16467271745204926 0.90908122062683105
vn 0.38269332051277161 0.16467271745204926 0.90908122062683105
vn 0.38269332051277161 0.16467271745204926 0.90908122062683105
vn 0.38270086050033569 -0.16467218101024628 -0.90907818078994751
vn 0.38269978761672974 0 0.92387276887893677
vn 0.92389887571334839 0 0.38263672590255737
vn 0.92389887571334839 0 0.38263672590255737
vn 0.92389887571334839 0 0.38263672590255737
vn 0.92389887571334839 0 0.38263672590255737
vn 0.92389887571334839 0 -0.38263672590255737
vn 0.92389887571334839 0 -0.38263672590255737
vn 0.92389887571334839 0 -0.38263672590255737
vn 0.92389887571334839 0 -0.38263672590255737
vn 0 -1 0
vn 0 -1 0
vn 0 -1 0
vn 0 -1 0
vn 0 -1 0
vn 0 -1 0
vn 0 -1 0
vn 0 -1 0
vn 0 -1 0
vn -3.7899801100138575E-05 -0.98398613929748535 0.17824503779411316
vn -3.3071482903324068E-05 -0.98398500680923462 0.17825119197368622
vn -4.4169253669679165E-05 -0.98398524522781372 0.1782497763633728
vn 5.5615601013414562E-10 -0.98398512601852417 0.17825049161911011
vn 7.9853634815663099E-10 -0.98398417234420776 0.17825594544410706
vn 1.4260876923799515E-09 -0.98398417234420776 0.17825594544410706
vn 3.3072283258661628E-05 -0.98398500680923462 0.17825119197368622
vn 4.4170679757371545E-05 -0.98398524522781372 0.1782497763633728
vn 3.7899801100138575E-05 -0.98398613929748535 0.17824503779411316
f 1/1/1 2/2/2 3/3/3
f 2/2/2 1/1/1 4/4/4
f 5/5/5 6/6/6 7/7/7
f 6/6/6 5/5/5 8/8/8
f 9/9/9 10/10/10 11/11/11
f 10/10/10 9/9/9 12/12/12
f 13/13/13 14/14/14 15/15/15
f 14/14/14 13/13/13 16/16/16
f 17/17/17 18/18/18 19/19/19
f 18/18/18 17/17/17 20/20/20
f 21/21/21 22/22/22 23/23/23
f 22/22/22 21/21/21 24/24/24
f 25/25/25 26/26/26 27/27/27
f 26/26/26 25/25/25 28/28/28
f 29/29/29 30/30/30 31/31/31
f 30/30/30 29/29/29 32/32/32
f 33/33/33 34/34/34 35/35/35
f 34/34/34 33/33/33 36/36/36
f 37/37/37 38/38/38 39/39/39
f 38/38/38 37/37/37 40/40/40
f 41/41/41 42/42/42 43/43/43
f 42/42/42 41/41/41 44/44/44
f 45/45/45 46/46/46 47/47/47
f 46/46/46 45/45/45 48/48/48
f 49/49/49 50/50/50 51/51/51
f 52/52/52 53/53/53 54/54/54
f 55/55/55 54/54/54 53/53/53
f 56/56/56 57/57/57 58/58/58
f 59/59/59 58/58/58 57/57/57
f 60/60/60 61/61/61 62/62/62
f 63/63/63 62/62/62 61/61/61
f 64/64/64 65/65/65 66/66/66
f 67/67/67 66/66/66 65/65/65
f 68/68/68 69/69/69 70/70/70
f 71/71/71 70/70/70 69/69/69
f 72/72/72 73/73/73 74/74/74
f 75/75/75 76/76/76 77/77/77
f 78/78/78 77/77/77 76/76/76
f 79/79/79 80/80/80 81/81/81
f 82/82/82 81/81/81 80/80/80
f 83/83/83 84/84/84 85/85/85
f 86/86/86 85/85/85 84/84/84
f 87/87/87 74/74/74 73/73/73
f 88/88/88 51/51/51 50/50/50
f 89/89/89 90/90/90 91/91/91
f 92/92/92 91/91/91 90/90/90
f 93/93/93 94/94/94 95/95/95
f 96/96/96 95/95/95 94/94/94
f 100/100/100 103/103/103 101/101/101
f 101/101/101 98/98/98 100/100/100
f 105/105/105 103/103/103 100/100/100
f 100/100/100 102/102/102 104/104/104
f 97/97/97 99/99/99 100/100/100
f 102/102/102 100/100/100 99/99/99
f 98/98/98 97/97/97 100/100/100
f 105/105/105 100/100/100 104/104/104
f 109/109/109 111/111/111 113/113/113
f 111/111/111 109/109/109 108/108/108
f 114/114/114 109/109/109 113/113/113
f 109/109/109 112/112/112 110/110/110
f 107/107/107 106/106/106 109/109/109
f 108/108/108 109/109/109 106/106/106
f 110/110/110 107/107/107 109/109/109
f 114/114/114 112/112/112 109/109/109
