# Rhino

mtllib Sofa_11_02.mtl
usemtl Default
v -0.39723221819100019 0 0.18162911316499997
v -0.39098273899799985 0 0.18107805358000006
v -0.39407111622499968 0 0.18176501146000001
v -0.40025271899499959 0 0.18067971594599996
v -0.38818041240899959 0 0.179615122741
v -0.40292414105600027 0 0.17898139937000002
v -0.3858483724620001 0 0.17747585183400005
v -0.40506224836699989 0 0.17664998970400003
v -0.38415146189699989 0 0.17480607820100003
v -0.40652643976900027 0 0.17384436625999999
v -0.38320119198099967 0 0.17178771065599996
v -0.40721005230999996 0 0.17075564965099999
v -0.38306543913599977 0 0.16862646324099995
v -0.40707429946500007 0 0.167594402235
v -0.38374905167800044 0 0.16553774663099996
v -0.40612402954899984 0 0.16457603468899995
v -0.38521324307899985 0 0.16273212318700003
v -0.40442711898399963 0 0.16190626105700001
v -0.38735135039000035 0 0.16040071352099994
v -0.40209507903700015 0 0.15976699015000007
v -0.39002277245000005 0 0.15870239694499999
v -0.39929275244799989 0 0.158304059311
v -0.39304327325499955 0 0.15775299972599999
v -0.39620437522100005 0 0.15761710143099994
v -0.38415146189699989 0 0.17480607820100003
v -0.38320119198099967 0.058179790780999982 0.17178771065599996
v -0.38415146189699989 0.058179790780999982 0.17480607820100003
v -0.38320119198099967 0 0.17178771065599996
v -0.3858483724620001 0 0.17747585183400005
v -0.38415146189699989 0.058179790780999982 0.17480607820100003
v -0.3858483724620001 0.058179790780999982 0.17747585183400005
v -0.38415146189699989 0 0.17480607820100003
v -0.3858483724620001 0 0.17747585183400005
v -0.38818041240899959 0.058179790780999982 0.179615122741
v -0.38818041240899959 0 0.179615122741
v -0.3858483724620001 0.058179790780999982 0.17747585183400005
v -0.39407111622499968 0.058179790780999982 0.18176501146000001
v -0.39098273899799985 0 0.18107805358000006
v -0.39098273899799985 0.058179790780999982 0.18107805358000006
v -0.39407111622499968 0 0.18176501146000001
v -0.39098273899799985 0.058179790780999982 0.18107805358000006
v -0.38818041240899959 0 0.179615122741
v -0.38818041240899959 0.058179790780999982 0.179615122741
v -0.39098273899799985 0 0.18107805358000006
v -0.38306543913599977 0.058179790780999982 0.16862646324099995
v -0.38320119198099967 0 0.17178771065599996
v -0.38306543913599977 0 0.16862646324099995
v -0.38320119198099967 0.058179790780999982 0.17178771065599996
v -0.38310907397899996 0.058179790780999982 0.16969105644500004
v -0.38374905167800044 0.058179790780999982 0.16553774663099996
v -0.38306543913599977 0 0.16862646324099995
v -0.38374905167800044 0 0.16553774663099996
v -0.38306543913599977 0.058179790780999982 0.16862646324099995
v -0.38521324307899985 0.058179790780999982 0.16273212318700003
v -0.38374905167800044 0 0.16553774663099996
v -0.38521324307899985 0 0.16273212318700003
v -0.38374905167800044 0.058179790780999982 0.16553774663099996
v -0.38735135039000035 0.058179790780999982 0.16040071352099994
v -0.38521324307899985 0 0.16273212318700003
v -0.38735135039000035 0 0.16040071352099994
v -0.38521324307899985 0.058179790780999982 0.16273212318700003
v -0.38735135039000035 0.058179790780999982 0.16040071352099994
v -0.39002277245000005 0 0.15870239694499999
v -0.39002277245000005 0.058179790780999982 0.15870239694499999
v -0.38735135039000035 0 0.16040071352099994
v -0.39002277245000005 0.058179790780999982 0.15870239694499999
v -0.39304327325499955 0 0.15775299972599999
v -0.39304327325499955 0.058179790780999982 0.15775299972599999
v -0.39002277245000005 0 0.15870239694499999
v -0.39513774572299987 0.058179790780999982 0.15766286953300002
v -0.39620437522100005 0.058179790780999982 0.15761710143099994
v -0.39620437522100005 0 0.15761710143099994
v -0.39304327325499955 0.058179790780999982 0.15775299972599999
v -0.39304327325499955 0 0.15775299972599999
v -0.39620437522100005 0.058179790780999982 0.15761710143099994
v -0.39929275244799989 0.058179790780999982 0.158304059311
v -0.39929275244799989 0 0.158304059311
v -0.39620437522100005 0 0.15761710143099994
v -0.39929275244799989 0.058179790780999982 0.158304059311
v -0.40209507903700015 0.058179790780999982 0.15976699015000007
v -0.40209507903700015 0 0.15976699015000007
v -0.39929275244799989 0 0.158304059311
v -0.40209507903700015 0.058179790780999982 0.15976699015000007
v -0.40442711898399963 0.058179790780999982 0.16190626105700001
v -0.40442711898399963 0 0.16190626105700001
v -0.40209507903700015 0 0.15976699015000007
v -0.40612402954899984 0.058179790780999982 0.16457603468899995
v -0.40612402954899984 0 0.16457603468899995
v -0.40442711898399963 0 0.16190626105700001
v -0.40442711898399963 0.058179790780999982 0.16190626105700001
v -0.40707429946500007 0.058179790780999982 0.167594402235
v -0.40707429946500007 0 0.167594402235
v -0.40612402954899984 0 0.16457603468899995
v -0.40612402954899984 0.058179790780999982 0.16457603468899995
v -0.39723221819100019 0.058179790780999982 0.18162911316499997
v -0.39407111622499968 0.058179790780999982 0.18176501146000001
v -0.39407111622499968 0 0.18176501146000001
v -0.39723221819100019 0 0.18162911316499997
v -0.40721005230999996 0.058179790780999982 0.17075564965099999
v -0.40721005230999996 0 0.17075564965099999
v -0.40707429946500007 0 0.167594402235
v -0.40707429946500007 0.058179790780999982 0.167594402235
v -0.40652643976900027 0.058179790780999982 0.17384436625999999
v -0.40652643976900027 0 0.17384436625999999
v -0.40721005230999996 0 0.17075564965099999
v -0.40721005230999996 0.058179790780999982 0.17075564965099999
v -0.40506224836699989 0.058179790780999982 0.17664998970400003
v -0.40506224836699989 0 0.17664998970400003
v -0.40652643976900027 0 0.17384436625999999
v -0.40652643976900027 0.058179790780999982 0.17384436625999999
v -0.40292414105600027 0.058179790780999982 0.17898139937000002
v -0.40292414105600027 0 0.17898139937000002
v -0.40506224836699989 0 0.17664998970400003
v -0.40506224836699989 0.058179790780999982 0.17664998970400003
v -0.40292414105600027 0.058179790780999982 0.17898139937000002
v -0.40025271899499959 0.058179790780999982 0.18067971594599996
v -0.40025271899499959 0 0.18067971594599996
v -0.40292414105600027 0 0.17898139937000002
v -0.40025271899499959 0.058179790780999982 0.18067971594599996
v -0.39723221819100019 0 0.18162911316499997
v -0.39723221819100019 0.058179790780999982 0.18162911316499997
v -0.40025271899499959 0 0.18067971594599996
v -0.40721005230999996 0.058179790780999982 0.17075564965099999
v -0.40707429946500007 0.058179790780999982 0.167594402235
v -0.40652643976900027 0.058179790780999982 0.17384436625999999
v -0.40612402954899984 0.058179790780999982 0.16457603468899995
v -0.40506224836699989 0.058179790780999982 0.17664998970400003
v -0.40442711898399963 0.058179790780999982 0.16190626105700001
v -0.40292414105600027 0.058179790780999982 0.17898139937000002
v -0.40209507903700015 0.058179790780999982 0.15976699015000007
v -0.40025271899499959 0.058179790780999982 0.18067971594599996
v -0.39929275244799989 0.058179790780999982 0.158304059311
v -0.39723221819100019 0.058179790780999982 0.18162911316499997
v -0.39620437522100005 0.058179790780999982 0.15761710143099994
v -0.39513774572299987 0.058179790780999982 0.16969105644549998
v -0.39513774572299987 0.058179790780999982 0.15766286953300002
v -0.39407111622499968 0.058179790780999982 0.18176501146000001
v -0.39304327325499955 0.058179790780999982 0.15775299972599999
v -0.39098273899799985 0.058179790780999982 0.18107805358000006
v -0.39002277245000005 0.058179790780999982 0.15870239694499999
v -0.38818041240899959 0.058179790780999982 0.179615122741
v -0.38735135039000035 0.058179790780999982 0.16040071352099994
v -0.3858483724620001 0.058179790780999982 0.17747585183400005
v -0.38521324307899985 0.058179790780999982 0.16273212318700003
v -0.38415146189699989 0.058179790780999982 0.17480607820100003
v -0.38374905167800044 0.058179790780999982 0.16553774663099996
v -0.38320119198099967 0.058179790780999982 0.17178771065599996
v -0.38310907397899996 0.058179790780999982 0.16969105644500004
v -0.38306543913599977 0.058179790780999982 0.16862646324099995
vt -1.9833400249481201 67.29620361328125
vt -2.0280900001525879 66.7886962890625
vt -1.972309947013855 67.039497375488281
vt -2.0604400634765625 67.541297912597656
vt -2.1468899250030518 66.560897827148438
vt -2.1983499526977539 67.758102416992188
vt -2.3206000328063965 66.371597290039062
vt -2.387660026550293 67.931900024414062
vt -2.5374000072479248 66.23370361328125
vt -2.6154899597167969 68.05059814453125
vt -2.7825000286102295 66.156600952148438
vt -2.8663098812103271 68.106399536132812
vt -3.0392100811004639 66.145500183105469
vt -3.1230099201202393 68.09539794921875
vt -3.2900199890136719 66.201301574707031
vt -3.3681099414825439 68.018302917480469
vt -3.5178499221801758 66.320098876953125
vt -3.5849099159240723 67.880401611328125
vt -3.7071700096130371 66.493797302246094
vt -3.758620023727417 67.69110107421875
vt -3.8450698852539062 66.710601806640625
vt -3.8774199485778809 67.463203430175781
vt -3.9221699237823486 66.955703735351562
vt -3.9331998825073242 67.21240234375
vt -17.453399658203125 0
vt -17.196500778198242 4.7244100570678711
vt -17.453399658203125 4.7244100570678711
vt -17.196500778198242 0
vt -33.665401458740234 0
vt -33.408401489257812 4.7244100570678711
vt -33.665401458740234 4.7244100570678711
vt -33.408401489257812 0
vt -47.334800720214844 0
vt -47.591800689697266 4.7244100570678711
vt -47.591800689697266 0
vt -47.334800720214844 4.7244100570678711
vt -65.012397766113281 4.7244100570678711
vt -64.755401611328125 0
vt -64.755401611328125 4.7244100570678711
vt -65.012397766113281 0
vt -58.283699035644531 4.7244100570678711
vt -58.026699066162109 0
vt -58.026699066162109 4.7244100570678711
vt -58.283699035644531 0
vt 0.19607199728488922 4.7244100570678711
vt -0.060869500041007996 0
vt 0.19607199728488922 0
vt -0.060869500041007996 4.7244100570678711
vt 0.10954300314188004 4.7244100570678711
vt 17.583999633789062 4.7244100570678711
vt 17.32710075378418 0
vt 17.583999633789062 0
vt 17.32710075378418 4.7244100570678711
vt 33.782398223876953 4.7244100570678711
vt 33.525501251220703 0
vt 33.782398223876953 0
vt 33.525501251220703 4.7244100570678711
vt 47.687400817871094 4.7244100570678711
vt 47.430400848388672 0
vt 47.687400817871094 0
vt 47.430400848388672 4.7244100570678711
vt 58.09429931640625 4.7244100570678711
vt 58.351299285888672 0
vt 58.351299285888672 4.7244100570678711
vt 58.09429931640625 0
vt 64.790397644042969 4.7244100570678711
vt 65.047401428222656 0
vt 65.047401428222656 4.7244100570678711
vt 64.790397644042969 0
vt 67.232803344726562 4.7244100570678711
vt 67.319297790527344 4.7244100570678711
vt 67.319297790527344 0
vt 67.062400817871094 4.7244100570678711
vt 67.062400817871094 0
vt 64.755401611328125 4.7244100570678711
vt 65.012397766113281 4.7244100570678711
vt 65.012397766113281 0
vt 64.755401611328125 0
vt 58.026699066162109 4.7244100570678711
vt 58.283699035644531 4.7244100570678711
vt 58.283699035644531 0
vt 58.026699066162109 0
vt 47.334800720214844 4.7244100570678711
vt 47.591800689697266 4.7244100570678711
vt 47.591800689697266 0
vt 47.334800720214844 0
vt 33.665401458740234 4.7244100570678711
vt 33.665401458740234 0
vt 33.408401489257812 0
vt 33.408401489257812 4.7244100570678711
vt 17.453399658203125 4.7244100570678711
vt 17.453399658203125 0
vt 17.196500778198242 0
vt 17.196500778198242 4.7244100570678711
vt -67.319297790527344 4.7244100570678711
vt -67.062400817871094 4.7244100570678711
vt -67.062400817871094 0
vt -67.319297790527344 0
vt 0.060869500041007996 4.7244100570678711
vt 0.060869500041007996 0
vt -0.19607199728488922 0
vt -0.19607199728488922 4.7244100570678711
vt -17.32710075378418 4.7244100570678711
vt -17.32710075378418 0
vt -17.583999633789062 0
vt -17.583999633789062 4.7244100570678711
vt -33.525501251220703 4.7244100570678711
vt -33.525501251220703 0
vt -33.782398223876953 0
vt -33.782398223876953 4.7244100570678711
vt -47.430400848388672 4.7244100570678711
vt -47.430400848388672 0
vt -47.687400817871094 0
vt -47.687400817871094 4.7244100570678711
vt -58.351299285888672 4.7244100570678711
vt -58.09429931640625 4.7244100570678711
vt -58.09429931640625 0
vt -58.351299285888672 0
vt -65.047401428222656 4.7244100570678711
vt -64.790397644042969 0
vt -64.790397644042969 4.7244100570678711
vt -65.047401428222656 0
vt 0.45591366291046143 0
vt 0.58682548999786377 0.0056224898435175419
vt 0.32800540328025818 0.028313253074884415
vt 0.71182048320770264 0.044979918748140335
vt 0.21182046830654144 0.088955819606781006
vt 0.82237964868545532 0.11526104062795639
vt 0.11527341604232788 0.17751003801822662
vt 0.91096997261047363 0.21184739470481873
vt 0.044943660497665405 0.28815260529518127
vt 0.97155207395553589 0.32791164517402649
vt 0.0056277457624673843 0.41325300931930542
vt 1 0.45582330226898193
vt 0.5 0.5
vt 0.99810469150543213 0.5
vt 0 0.54417669773101807
vt 0.99437224864959717 0.58674699068069458
vt 0.028447922319173813 0.67208832502365112
vt 0.95505630970001221 0.71184736490249634
vt 0.089030012488365173 0.78815263509750366
vt 0.88472658395767212 0.82248997688293457
vt 0.17762032151222229 0.8847389817237854
vt 0.78817951679229736 0.91104418039321899
vt 0.28817951679229736 0.95502007007598877
vt 0.67199456691741943 0.9716867208480835
vt 0.41317451000213623 0.9943774938583374
vt 0.5 0.99819278717041016
vt 0.54408633708953857 1
vn 0 -1 0
vn 0 -1 0
vn 0 -1 0
vn 0 -1 0
vn 0 -1 0
vn 0 -1 0
vn 0 -1 0
vn 0 -1 0
vn 0 -1 0
vn 0 -1 0
vn 0 -1 0
vn 0 -1 0
vn 0 -1 0
vn 0 -1 0
vn 0 -1 0
vn 0 -1 0
vn 0 -1 0
vn 0 -1 0
vn 0 -1 0
vn 0 -1 0
vn 0 -1 0
vn 0 -1 0
vn 0 -1 0
vn 0 -1 0
vn 0.9538453221321106 0 0.30029827356338501
vn 0.9538453221321106 0 0.30029827356338501
vn 0.9538453221321106 0 0.30029827356338501
vn 0.9538453221321106 0 0.30029827356338501
vn 0.84395289421081543 0 0.53641724586486816
vn 0.84395289421081543 0 0.53641724586486816
vn 0.84395289421081543 0 0.53641724586486816
vn 0.84395289421081543 0 0.53641724586486816
vn 0.67599374055862427 0 0.73690736293792725
vn 0.67599374055862427 0 0.73690736293792725
vn 0.67599374055862427 0 0.73690736293792725
vn 0.67599374055862427 0 0.73690736293792725
vn 0.21712678670883179 0 0.97614341974258423
vn 0.21712678670883179 0 0.97614341974258423
vn 0.21712678670883179 0 0.97614341974258423
vn 0.21712678670883179 0 0.97614341974258423
vn 0.46277669072151184 0 0.88647490739822388
vn 0.46277669072151184 0 0.88647490739822388
vn 0.46277669072151184 0 0.88647490739822388
vn 0.46277669072151184 0 0.88647490739822388
vn 0.8936036229133606 -0.44721359014511108 0.038373850286006927
vn 0.99907922744750977 0 0.042903270572423935
vn 0.99907922744750977 0 0.042903270572423935
vn 0.70645570755004883 -0.70710676908493042 0.030337193980813026
vn 0 -1 0
vn 0.97637206315994263 0 -0.21609628200531006
vn 0.97637206315994263 0 -0.21609628200531006
vn 0.97637206315994263 0 -0.21609628200531006
vn 0.97637206315994263 0 -0.21609628200531006
vn 0.88653457164764404 0 -0.46266233921051025
vn 0.88653457164764404 0 -0.46266233921051025
vn 0.88653457164764404 0 -0.46266233921051025
vn 0.88653457164764404 0 -0.46266233921051025
vn 0.73699951171875 0 -0.67589324712753296
vn 0.73699951171875 0 -0.67589324712753296
vn 0.73699951171875 0 -0.67589324712753296
vn 0.73699951171875 0 -0.67589324712753296
vn 0.53649783134460449 0 -0.84390169382095337
vn 0.53649783134460449 0 -0.84390169382095337
vn 0.53649783134460449 0 -0.84390169382095337
vn 0.53649783134460449 0 -0.84390169382095337
vn 0.29985445737838745 0 -0.95398497581481934
vn 0.29985445737838745 0 -0.95398497581481934
vn 0.29985445737838745 0 -0.95398497581481934
vn 0.29985445737838745 0 -0.95398497581481934
vn 0.042931132018566132 -1.1293589068372967E-06 -0.99907803535461426
vn 0.042869642376899719 0 -0.99908065795898438
vn 0.042937792837619781 -7.5290591894372483E-07 -0.99907773733139038
vn 0.042971871793270111 -1.1293589068372967E-06 -0.99907630681991577
vn 0.042951125651597977 0 -0.9990772008895874
vn -0.21712678670883179 0 -0.97614341974258423
vn -0.21712678670883179 0 -0.97614341974258423
vn -0.21712678670883179 0 -0.97614341974258423
vn -0.21712678670883179 0 -0.97614341974258423
vn -0.46277669072151184 0 -0.88647490739822388
vn -0.46277669072151184 0 -0.88647490739822388
vn -0.46277669072151184 0 -0.88647490739822388
vn -0.46277669072151184 0 -0.88647490739822388
vn -0.67599374055862427 0 -0.73690736293792725
vn -0.67599374055862427 0 -0.73690736293792725
vn -0.67599374055862427 0 -0.73690736293792725
vn -0.67599374055862427 0 -0.73690736293792725
vn -0.84395289421081543 0 -0.53641724586486816
vn -0.84395289421081543 0 -0.53641724586486816
vn -0.84395289421081543 0 -0.53641724586486816
vn -0.84395289421081543 0 -0.53641724586486816
vn -0.9538453221321106 0 -0.30029827356338501
vn -0.9538453221321106 0 -0.30029827356338501
vn -0.9538453221321106 0 -0.30029827356338501
vn -0.9538453221321106 0 -0.30029827356338501
vn -0.042951125651597977 0 0.9990772008895874
vn -0.042951125651597977 0 0.9990772008895874
vn -0.042951125651597977 0 0.9990772008895874
vn -0.042951125651597977 0 0.9990772008895874
vn -0.99907922744750977 0 -0.042903270572423935
vn -0.99907922744750977 0 -0.042903270572423935
vn -0.99907922744750977 0 -0.042903270572423935
vn -0.99907922744750977 0 -0.042903270572423935
vn -0.97637206315994263 0 0.21609628200531006
vn -0.97637206315994263 0 0.21609628200531006
vn -0.97637206315994263 0 0.21609628200531006
vn -0.97637206315994263 0 0.21609628200531006
vn -0.88653457164764404 0 0.46266233921051025
vn -0.88653457164764404 0 0.46266233921051025
vn -0.88653457164764404 0 0.46266233921051025
vn -0.88653457164764404 0 0.46266233921051025
vn -0.73699951171875 0 0.67589324712753296
vn -0.73699951171875 0 0.67589324712753296
vn -0.73699951171875 0 0.67589324712753296
vn -0.73699951171875 0 0.67589324712753296
vn -0.53649783134460449 0 0.84390169382095337
vn -0.53649783134460449 0 0.84390169382095337
vn -0.53649783134460449 0 0.84390169382095337
vn -0.53649783134460449 0 0.84390169382095337
vn -0.29985445737838745 0 0.95398497581481934
vn -0.29985445737838745 0 0.95398497581481934
vn -0.29985445737838745 0 0.95398497581481934
vn -0.29985445737838745 0 0.95398497581481934
vn 0 1 0
vn 0 1 0
vn 0 1 0
vn 0 1 0
vn 0 1 0
vn 0 1 0
vn 0 1 0
vn 0 1 0
vn 0 1 0
vn 0 1 0
vn 0 1 0
vn 0 1 0
vn 0 1 0
vn 0 1 0
vn 0 1 0
vn 0 1 0
vn 0 1 0
vn 0 1 0
vn 0 1 0
vn 0 1 0
vn 0 1 0
vn 0 1 0
vn 0 1 0
vn 0 1 0
vn 0 1 0
vn 0 1 0
vn 0 1 0
f 1/1/1 2/2/2 3/3/3
f 2/2/2 1/1/1 4/4/4
f 2/2/2 4/4/4 5/5/5
f 5/5/5 4/4/4 6/6/6
f 5/5/5 6/6/6 7/7/7
f 7/7/7 6/6/6 8/8/8
f 7/7/7 8/8/8 9/9/9
f 9/9/9 8/8/8 10/10/10
f 9/9/9 10/10/10 11/11/11
f 11/11/11 10/10/10 12/12/12
f 11/11/11 12/12/12 13/13/13
f 13/13/13 12/12/12 14/14/14
f 13/13/13 14/14/14 15/15/15
f 15/15/15 14/14/14 16/16/16
f 15/15/15 16/16/16 17/17/17
f 17/17/17 16/16/16 18/18/18
f 17/17/17 18/18/18 19/19/19
f 19/19/19 18/18/18 20/20/20
f 19/19/19 20/20/20 21/21/21
f 21/21/21 20/20/20 22/22/22
f 21/21/21 22/22/22 23/23/23
f 23/23/23 22/22/22 24/24/24
f 25/25/25 26/26/26 27/27/27
f 26/26/26 25/25/25 28/28/28
f 29/29/29 30/30/30 31/31/31
f 30/30/30 29/29/29 32/32/32
f 33/33/33 34/34/34 35/35/35
f 34/34/34 33/33/33 36/36/36
f 37/37/37 38/38/38 39/39/39
f 38/38/38 37/37/37 40/40/40
f 41/41/41 42/42/42 43/43/43
f 42/42/42 41/41/41 44/44/44
f 45/45/45 46/46/46 47/47/47
f 46/46/46 45/45/45 48/48/48
f 48/48/48 45/45/45 49/49/49
f 50/50/50 51/51/51 52/52/52
f 51/51/51 50/50/50 53/53/53
f 54/54/54 55/55/55 56/56/56
f 55/55/55 54/54/54 57/57/57
f 58/58/58 59/59/59 60/60/60
f 59/59/59 58/58/58 61/61/61
f 62/62/62 63/63/63 64/64/64
f 63/63/63 62/62/62 65/65/65
f 66/66/66 67/67/67 68/68/68
f 67/67/67 66/66/66 69/69/69
f 70/70/70 72/72/72 71/71/71
f 73/73/73 72/72/72 70/70/70
f 72/72/72 73/73/73 74/74/74
f 75/75/75 77/77/77 76/76/76
f 77/77/77 75/75/75 78/78/78
f 79/79/79 81/81/81 80/80/80
f 81/81/81 79/79/79 82/82/82
f 83/83/83 85/85/85 84/84/84
f 85/85/85 83/83/83 86/86/86
f 87/87/87 89/89/89 88/88/88
f 89/89/89 87/87/87 90/90/90
f 91/91/91 93/93/93 92/92/92
f 93/93/93 91/91/91 94/94/94
f 95/95/95 97/97/97 96/96/96
f 97/97/97 95/95/95 98/98/98
f 99/99/99 101/101/101 100/100/100
f 101/101/101 99/99/99 102/102/102
f 103/103/103 105/105/105 104/104/104
f 105/105/105 103/103/103 106/106/106
f 107/107/107 109/109/109 108/108/108
f 109/109/109 107/107/107 110/110/110
f 111/111/111 113/113/113 112/112/112
f 113/113/113 111/111/111 114/114/114
f 115/115/115 117/117/117 116/116/116
f 117/117/117 115/115/115 118/118/118
f 119/119/119 120/120/120 121/121/121
f 120/120/120 119/119/119 122/122/122
f 133/133/133 135/135/135 131/131/131
f 131/131/131 135/135/135 129/129/129
f 125/125/125 127/127/127 135/135/135
f 127/127/127 129/129/129 135/135/135
f 135/135/135 123/123/123 125/125/125
f 141/141/141 135/135/135 139/139/139
f 137/137/137 139/139/139 135/135/135
f 145/145/145 135/135/135 143/143/143
f 141/141/141 143/143/143 135/135/135
f 135/135/135 145/145/145 147/147/147
f 147/147/147 148/148/148 135/135/135
f 135/135/135 133/133/133 137/137/137
f 135/135/135 124/124/124 123/123/123
f 135/135/135 128/128/128 126/126/126
f 135/135/135 130/130/130 128/128/128
f 132/132/132 135/135/135 134/134/134
f 134/134/134 135/135/135 136/136/136
f 132/132/132 130/130/130 135/135/135
f 135/135/135 138/138/138 136/136/136
f 148/148/148 149/149/149 135/135/135
f 149/149/149 146/146/146 135/135/135
f 135/135/135 144/144/144 142/142/142
f 146/146/146 144/144/144 135/135/135
f 135/135/135 142/142/142 140/140/140
f 135/135/135 140/140/140 138/138/138
f 126/126/126 124/124/124 135/135/135
