# Rhino

mtllib Sofa_04_06.mtl
usemtl Default
v -0.42633769106700004 0.065590414011000006 0.19083968225699977
v -0.40447421972999997 0 0.19083968225699977
v -0.40447421972999997 0.065590414011000006 0.19083968225699977
v -0.42633769106700004 0 0.19083968225699977
v -0.42633769106700004 0.065590414011000006 0.19083968225699977
v -0.42633769106700004 0 0.16897621092000037
v -0.42633769106700004 0 0.19083968225699977
v -0.42633769106700004 0.065590414011000006 0.16897621092000037
v -0.40447421972999997 0 0.19083968225699977
v -0.40447421972999997 0.065590414011000006 0.16897621092000037
v -0.40447421972999997 0.065590414011000006 0.19083968225699977
v -0.40447421972999997 0 0.16897621092000037
v -0.40447421972999997 0 0.19083968225699977
v -0.42633769106700004 0 0.16897621092000037
v -0.40447421972999997 0 0.16897621092000037
v -0.42633769106700004 0 0.19083968225699977
v -0.42633769106700004 0 0.16897621092000037
v -0.40447421972999997 0.065590414011000006 0.16897621092000037
v -0.40447421972999997 0 0.16897621092000037
v -0.42633769106700004 0.065590414011000006 0.16897621092000037
v -0.42633769106700004 0.065590414011000006 0.19083968225699977
v -0.42633769106700004 0.065590414011000006 0.16897621092000037
v -0.4154059553985 0.065590414011000006 0.17990794658850007
v -0.40447421972999997 0.065590414011000006 0.19083968225699977
v -0.40447421972999997 0.065590414011000006 0.16897621092000037
vt -1.3166699409484863 0.10000000149011612
vt -1.283329963684082 0
vt -1.283329963684082 0.10000000149011612
vt -1.3166699409484863 0
vt -0.016666699200868607 0.10000000149011612
vt -0.05000000074505806 0
vt -0.016666699200868607 0
vt -0.05000000074505806 0.10000000149011612
vt 0.016666699200868607 0
vt 0.05000000074505806 0.10000000149011612
vt 0.016666699200868607 0.10000000149011612
vt 0.05000000074505806 0
vt -0.016666699200868607 1.283329963684082
vt -0.05000000074505806 1.3166699409484863
vt -0.05000000074505806 1.283329963684082
vt -0.016666699200868607 1.3166699409484863
vt 1.3166699409484863 0
vt 1.283329963684082 0.10000000149011612
vt 1.283329963684082 0
vt 1.3166699409484863 0.10000000149011612
vt 0 0
vt 0 1
vt 0.5 0.5
vt 1 0
vt 1 1
vn 0 0 1
vn 0 0 1
vn 0 0 1
vn 0 0 1
vn -1 0 0
vn -1 0 0
vn -1 0 0
vn -1 0 0
vn 1 0 0
vn 1 0 0
vn 1 0 0
vn 1 0 0
vn 0 -1 0
vn 0 -1 0
vn 0 -1 0
vn 0 -1 0
vn 0 0 -1
vn 0 0 -1
vn 0 0 -1
vn 0 0 -1
vn 0 1 0
vn 0 1 0
vn 0 1 0
vn 0 1 0
vn 0 1 0
f 1/1/1 2/2/2 3/3/3
f 2/2/2 1/1/1 4/4/4
f 5/5/5 6/6/6 7/7/7
f 6/6/6 5/5/5 8/8/8
f 9/9/9 10/10/10 11/11/11
f 10/10/10 9/9/9 12/12/12
f 13/13/13 14/14/14 15/15/15
f 14/14/14 13/13/13 16/16/16
f 17/17/17 18/18/18 19/19/19
f 18/18/18 17/17/17 20/20/20
f 23/23/23 22/22/22 21/21/21
f 25/25/25 23/23/23 24/24/24
f 21/21/21 24/24/24 23/23/23
f 22/22/22 23/23/23 25/25/25
