# Rhino

mtllib Sofa_01_08.mtl
usemtl Default
v 0.24710970991999992 0.074129130974700003 -0.051002040095299961
v 0.11606668193199998 0.074129130974700003 0.080040987893200022
v 0 0.074129130974700003 -0.036025694039399925
v 0.24710970991999992 0.113841165425 -0.051002040095299961
v 0.11606668193199998 0.113841165425 0.080040987893200022
v 0 0.113841165425 -0.036025694039399925
v 0.13104302798799994 0.074129130974700003 -0.16706872202800005
v 0.13104302798799994 0.113841165425 -0.16706872202800005
v 0.24710970991999992 0.113841165425 -0.051002040095299961
v 0.11606668193199998 0.113841165425 0.080040987893200022
v 0.11606668193199998 0.074129130974700003 0.080040987893200022
v 0.24710970991999992 0.074129130974700003 -0.051002040095299961
v 0.13104302798799994 0.113841165425 -0.16706872202800005
v 0.24710970991999992 0.113841165425 -0.051002040095299961
v 0.24710970991999992 0.074129130974700003 -0.051002040095299961
v 0.13104302798799994 0.074129130974700003 -0.16706872202800005
v 0.11606668193199998 0.113841165425 0.080040987893200022
v 0 0.113841165425 -0.036025694039399925
v 0 0.074129130974700003 -0.036025694039399925
v 0.11606668193199998 0.074129130974700003 0.080040987893200022
v 0 0.113841165425 -0.036025694039399925
v 0.13104302798799994 0.113841165425 -0.16706872202800005
v 0.13104302798799994 0.074129130974700003 -0.16706872202800005
v 0 0.074129130974700003 -0.036025694039399925
vt 45.800533294677734 20.341167449951172
vt 59.580036163330078 20.341167449951172
vt 59.580036163330078 8.1364669799804688
vt 36.614200592041016 24.409400939941406
vt 64.173202514648438 24.409400939941406
vt 64.173202514648438 0
vt 41.207366943359375 4.0682334899902344
vt 36.614200592041016 0
vt 36.614200592041016 24.409400939941406
vt 64.173202514648438 24.409400939941406
vt 59.580036163330078 20.341167449951172
vt 45.800533294677734 20.341167449951172
vt 36.614200592041016 0
vt 36.614200592041016 24.409400939941406
vt 45.800533294677734 20.341167449951172
vt 41.207366943359375 4.0682334899902344
vt 64.173202514648438 24.409400939941406
vt 64.173202514648438 0
vt 59.580036163330078 8.1364669799804688
vt 59.580036163330078 20.341167449951172
vt 64.173202514648438 0
vt 36.614200592041016 0
vt 41.207366943359375 4.0682334899902344
vt 59.580036163330078 8.1364669799804688
vn 0 -1 0
vn 0 -1 0
vn 0 -1 0
vn 0 1 0
vn 0 1 0
vn 0 1 0
vn 0 -1 0
vn 0 1 0
vn 0.70710676908493042 0 0.70710676908493042
vn 0.70710676908493042 0 0.70710676908493042
vn 0.70710676908493042 0 0.70710676908493042
vn 0.70710676908493042 0 0.70710676908493042
vn 0.70710676908493042 0 -0.70710676908493042
vn 0.70710676908493042 0 -0.70710676908493042
vn 0.70710676908493042 0 -0.70710676908493042
vn 0.70710676908493042 0 -0.70710676908493042
vn -0.70710676908493042 0 0.70710676908493042
vn -0.70710676908493042 0 0.70710676908493042
vn -0.70710676908493042 0 0.70710676908493042
vn -0.70710676908493042 0 0.70710676908493042
vn -0.70710676908493042 0 -0.70710676908493042
vn -0.70710676908493042 0 -0.70710676908493042
vn -0.70710676908493042 0 -0.70710676908493042
vn -0.70710676908493042 0 -0.70710676908493042
f 1/1/1 2/2/2 3/3/3
f 4/4/4 6/6/6 5/5/5
f 3/3/3 7/7/7 1/1/1
f 6/6/6 4/4/4 8/8/8
f 9/9/9 10/10/10 11/11/11 12/12/12
f 13/13/13 14/14/14 15/15/15 16/16/16
f 17/17/17 18/18/18 19/19/19 20/20/20
f 21/21/21 22/22/22 23/23/23 24/24/24
