# Rhino

mtllib Sofa_16_06.mtl
usemtl Default
v 0.43368317644799959 0 -0.14462699991200001
v 0.43368317644799959 0 -0.15358861769400001
v 0.43427301115000017 0 -0.14910786743499993
v 0.43195365914700012 0 -0.1577641314260001
v 0.43195365914700012 0 -0.14045160344300012
v 0.43368317644799959 0 -0.14462699991200001
v 0.43195365914700012 0.087800940999900004 -0.14045160344300012
v 0.43195365914700012 0 -0.14045160344300012
v 0.43368317644799959 0.087800940999900004 -0.14462699991200001
v 0.43427301115000017 0 -0.14910786743499993
v 0.43368317644799959 0.087800940999900004 -0.14462699991200001
v 0.43368317644799959 0 -0.14462699991200001
v 0.43427301115000017 0.087800940999900004 -0.14910786743499993
v 0.43368317644799959 0 -0.15358861769400001
v 0.43427301115000017 0.087800940999900004 -0.14910786743499993
v 0.43427301115000017 0 -0.14910786743499993
v 0.43368317644799959 0.087800940999900004 -0.15358861769400001
v 0.43195365914700012 0 -0.1577641314260001
v 0.43368317644799959 0.087800940999900004 -0.15358861769400001
v 0.43368317644799959 0 -0.15358861769400001
v 0.43195365914700012 0.087800940999900004 -0.1577641314260001
v 0.42920230892500033 0 -0.16134969319300008
v 0.43195365914700012 0.087800940999900004 -0.1577641314260001
v 0.43195365914700012 0 -0.1577641314260001
v 0.42920230892500033 0.087800940999900004 -0.16134969319300008
v 0.42920230892500033 0 -0.16134969319300008
v 0.42561674715800013 0.087800940999900004 -0.16410092615199989
v 0.42920230892500033 0.087800940999900004 -0.16134969319300008
v 0.42561674715800013 0 -0.16410092615199989
v 0.42920230892500033 0 -0.16134969319300008
v 0.42920230892500033 0 -0.13686604167599992
v 0.42561674715800013 0 -0.16410092615199989
v 0.43195365914700012 0 -0.14045160344300012
v 0.42924299931099963 0.087800940999900004 -0.13691904471499994
v 0.42920230892500033 0 -0.13686604167599992
v 0.43195365914700012 0.087800940999900004 -0.14045160344300012
v 0.42920230892500033 0.087800940999900004 -0.13686604167599992
v 0.42920230892500033 0.087800940999900004 -0.13686604167599992
v 0.42561674715800013 0 -0.13411480871699988
v 0.42920230892500033 0 -0.13686604167599992
v 0.42561674715800013 0.087800940999900004 -0.13411480871699988
v 0.42561674715800013 0.087800940999900004 -0.13411480871699988
v 0.42144135068900024 0 -0.13238529141700006
v 0.42561674715800013 0 -0.13411480871699988
v 0.42144135068900024 0.087800940999900004 -0.13238529141700006
v 0.42144135068900024 0.087800940999900004 -0.13238529141700006
v 0.4169604831660001 0 -0.13179533945199995
v 0.42144135068900024 0 -0.13238529141700006
v 0.4169604831660001 0.087800940999900004 -0.13179533945199995
v 0.4169604831660001 0.087800940999900004 -0.13179533945199995
v 0.41247973290700024 0 -0.13238529141700006
v 0.4169604831660001 0 -0.13179533945199995
v 0.41247973290700024 0.087800940999900004 -0.13238529141700006
v 0.41247973290700024 0.087800940999900004 -0.13238529141700006
v 0.40830421917500015 0 -0.13411480871699988
v 0.41247973290700024 0 -0.13238529141700006
v 0.40830421917500015 0.087800940999900004 -0.13411480871699988
v 0.41234863247099973 0.087800940999900004 -0.13244005340599996
v 0.40830421917500015 0.087800940999900004 -0.13411480871699988
v 0.40471877467100015 0 -0.13686604167599992
v 0.40830421917500015 0 -0.13411480871699988
v 0.40471877467100015 0.087800940999900004 -0.13686604167599992
v 0.40196742444999956 0.087800940999900004 -0.14045160344300012
v 0.40471877467100015 0 -0.13686604167599992
v 0.40471877467100015 0.087800940999900004 -0.13686604167599992
v 0.40196742444999956 0 -0.14045160344300012
v 0.40023790714900009 0.087800940999900004 -0.14462699991200001
v 0.40196742444999956 0 -0.14045160344300012
v 0.40196742444999956 0.087800940999900004 -0.14045160344300012
v 0.40023790714900009 0 -0.14462699991200001
v 0.39964795518300011 0.087800940999900004 -0.14910786743499993
v 0.40023790714900009 0 -0.14462699991200001
v 0.40023790714900009 0.087800940999900004 -0.14462699991200001
v 0.39964795518300011 0 -0.14910786743499993
v 0.40023790714900009 0.087800940999900004 -0.15358861769400001
v 0.39964795518300011 0 -0.14910786743499993
v 0.39964795518300011 0.087800940999900004 -0.14910786743499993
v 0.40023790714900009 0 -0.15358861769400001
v 0.40196742444999956 0.087800940999900004 -0.1577641314260001
v 0.40023790714900009 0 -0.15358861769400001
v 0.40023790714900009 0.087800940999900004 -0.15358861769400001
v 0.40196742444999956 0 -0.1577641314260001
v 0.40471877467100015 0.087800940999900004 -0.16134969319300008
v 0.40196742444999956 0 -0.1577641314260001
v 0.40196742444999956 0.087800940999900004 -0.1577641314260001
v 0.40471877467100015 0 -0.16134969319300008
v 0.40471877467100015 0.087800940999900004 -0.16134969319300008
v 0.40830421917500015 0 -0.16410092615199989
v 0.40471877467100015 0 -0.16134969319300008
v 0.40830421917500015 0.087800940999900004 -0.16410092615199989
v 0.40830421917500015 0.087800940999900004 -0.16410092615199989
v 0.41247973290700024 0 -0.16583044345199993
v 0.40830421917500015 0 -0.16410092615199989
v 0.41247973290700024 0.087800940999900004 -0.16583044345199993
v 0.41247973290700024 0.087800940999900004 -0.16583044345199993
v 0.4169604831660001 0 -0.16642039541799991
v 0.41247973290700024 0 -0.16583044345199993
v 0.4169604831660001 0.087800940999900004 -0.16642039541799991
v 0.4169604831660001 0.087800940999900004 -0.16642039541799991
v 0.42144135068900024 0 -0.16583044345199993
v 0.4169604831660001 0 -0.16642039541799991
v 0.42144135068900024 0.087800940999900004 -0.16583044345199993
v 0.42144135068900024 0.087800940999900004 -0.16583044345199993
v 0.42561674715800013 0 -0.16410092615199989
v 0.42144135068900024 0 -0.16583044345199993
v 0.42561674715800013 0.087800940999900004 -0.16410092615199989
v 0.42561674715800013 0 -0.13411480871699988
v 0.42144135068900024 0 -0.16583044345199993
v 0.42144135068900024 0 -0.13238529141700006
v 0.4169604831660001 0 -0.16642039541799991
v 0.4169604831660001 0 -0.13179533945199995
v 0.41247973290700024 0 -0.13238529141700006
v 0.41247973290700024 0 -0.16583044345199993
v 0.40830421917500015 0 -0.16410092615199989
v 0.40830421917500015 0 -0.13411480871699988
v 0.40471877467100015 0 -0.16134969319300008
v 0.40471877467100015 0 -0.13686604167599992
v 0.40196742444999956 0 -0.14045160344300012
v 0.40196742444999956 0 -0.1577641314260001
v 0.40023790714900009 0 -0.14462699991200001
v 0.40023790714900009 0 -0.15358861769400001
v 0.39964795518300011 0 -0.14910786743499993
v 0.39964795518300011 0.087800940999900004 -0.14910786743499993
v 0.40023790714900009 0.087800940999900004 -0.14462699991200001
v 0.40023790714900009 0.087800940999900004 -0.15358861769400001
v 0.40196742444999956 0.087800940999900004 -0.14045160344300012
v 0.40196742444999956 0.087800940999900004 -0.1577641314260001
v 0.40471877467100015 0.087800940999900004 -0.13686604167599992
v 0.40471877467100015 0.087800940999900004 -0.16134969319300008
v 0.40830421917500015 0.087800940999900004 -0.13411480871699988
v 0.40830421917500015 0.087800940999900004 -0.16410092615199989
v 0.41234863247099973 0.087800940999900004 -0.13244005340599996
v 0.41247973290700024 0.087800940999900004 -0.13238529141700006
v 0.41247973290700024 0.087800940999900004 -0.16583044345199993
v 0.4169604831660001 0.087800940999900004 -0.13179533945199995
v 0.4169604831660001 0.087800940999900004 -0.16642039541799991
v 0.42144135068900024 0.087800940999900004 -0.13238529141700006
v 0.42144135068900024 0.087800940999900004 -0.16583044345199993
v 0.42561674715800013 0.087800940999900004 -0.13411480871699988
v 0.42561674715800013 0.087800940999900004 -0.16410092615199989
v 0.42920230892500033 0.087800940999900004 -0.13686604167599992
v 0.42920230892500033 0.087800940999900004 -0.16134969319300008
v 0.42924299931099963 0.087800940999900004 -0.13691904471499994
v 0.43195365914700012 0.087800940999900004 -0.14045160344300012
v 0.43195365914700012 0.087800940999900004 -0.1577641314260001
v 0.43368317644799959 0.087800940999900004 -0.14462699991200001
v 0.43368317644799959 0.087800940999900004 -0.15358861769400001
v 0.43427301115000017 0.087800940999900004 -0.14910786743499993
vt -0.03203820064663887 0.071895897388458252
vt -0.03203820064663887 0.05774340033531189
vt -0.031106600537896156 0.064819701015949249
vt -0.034769501537084579 0.051149498671293259
vt -0.034769501537084579 0.078489802777767181
vt -0.078683599829673767 0
vt -0.085820898413658142 0.13865700364112854
vt -0.085820898413658142 0
vt -0.078683599829673767 0.13865700364112854
vt -0.068325303494930267 0
vt -0.075462602078914642 0.13865700364112854
vt -0.075462602078914642 0
vt -0.068325303494930267 0.13865700364112854
vt -0.05306759849190712 0
vt -0.060204900801181793 0.13865700364112854
vt -0.060204900801181793 0
vt -0.05306759849190712 0.13865700364112854
vt -0.033950198441743851 0
vt -0.041087500751018524 0.13865700364112854
vt -0.041087500751018524 0
vt -0.033950198441743851 0.13865700364112854
vt -0.012276000343263149 0
vt -0.019413299858570099 0.13865700364112854
vt -0.019413299858570099 0
vt -0.012276000343263149 0.13865700364112854
vt 0.0033407500013709068 0
vt 0.010478000156581402 0.13865700364112854
vt 0.0033407500013709068 0.13865700364112854
vt 0.010478000156581402 0
vt -0.039114400744438171 0.045487098395824432
vt -0.039114400744438171 0.084152199327945709
vt -0.044776801019906998 0.04114219918847084
vt -0.083436496555805206 0
vt -0.09046819806098938 0.13865700364112854
vt -0.090573802590370178 0
vt -0.083436496555805206 0.13865700364112854
vt -0.090573802590370178 0.13865700364112854
vt -0.082260198891162872 0.13865700364112854
vt -0.089397400617599487 0
vt -0.082260198891162872 0
vt -0.089397400617599487 0.13865700364112854
vt -0.075234703719615936 0.13865700364112854
vt -0.082372002303600311 0
vt -0.075234703719615936 0
vt -0.082372002303600311 0.13865700364112854
vt -0.062839001417160034 0.13865700364112854
vt -0.069976203143596649 0
vt -0.062839001417160034 0
vt -0.069976203143596649 0.13865700364112854
vt -0.045917600393295288 0.13865700364112854
vt -0.053054898977279663 0
vt -0.045917600393295288 0
vt -0.053054898977279663 0.13865700364112854
vt -0.025627100840210915 0.13865700364112854
vt -0.032764401286840439 -1.7583499811735237E-07
vt -0.025627100840210915 -1.7583499811735237E-07
vt -0.032764401286840439 0.13865700364112854
vt -0.025851499289274216 0.13865700364112854
vt -0.0033407500013709068 0.13865700364112854
vt -0.010478000156581402 0
vt -0.0033407500013709068 0
vt -0.010478000156581402 0.13865700364112854
vt 0.012276000343263149 0.13865700364112854
vt 0.019413299858570099 0
vt 0.019413299858570099 0.13865700364112854
vt 0.012276000343263149 0
vt 0.033950198441743851 0.13865700364112854
vt 0.041087500751018524 0
vt 0.041087500751018524 0.13865700364112854
vt 0.033950198441743851 0
vt 0.05306759849190712 0.13865700364112854
vt 0.060204900801181793 0
vt 0.060204900801181793 0.13865700364112854
vt 0.05306759849190712 0
vt 0.068325303494930267 0.13865700364112854
vt 0.075462602078914642 0
vt 0.075462602078914642 0.13865700364112854
vt 0.068325303494930267 0
vt 0.078683599829673767 0.13865700364112854
vt 0.085820898413658142 0
vt 0.085820898413658142 0.13865700364112854
vt 0.078683599829673767 0
vt 0.083436496555805206 0.13865700364112854
vt 0.090573802590370178 0
vt 0.090573802590370178 0.13865700364112854
vt 0.083436496555805206 0
vt 0.089397400617599487 0.13865700364112854
vt 0.082260198891162872 0
vt 0.089397400617599487 0
vt 0.082260198891162872 0.13865700364112854
vt 0.082372002303600311 0.13865700364112854
vt 0.075234703719615936 0
vt 0.082372002303600311 0
vt 0.075234703719615936 0.13865700364112854
vt 0.069976203143596649 0.13865700364112854
vt 0.062839001417160034 0
vt 0.069976203143596649 0
vt 0.062839001417160034 0.13865700364112854
vt 0.053054898977279663 0.13865700364112854
vt 0.045917600393295288 0
vt 0.053054898977279663 0
vt 0.045917600393295288 0.13865700364112854
vt 0.03276120126247406 0.13865700364112854
vt 0.025623900815844536 0
vt 0.03276120126247406 0
vt 0.025623900815844536 0.13865700364112854
vt -0.044776801019906998 0.0884971022605896
vt -0.051370799541473389 0.038410898298025131
vt -0.051370799541473389 0.091228403151035309
vt -0.05844699963927269 0.037479300051927567
vt -0.05844699963927269 0.092160001397132874
vt -0.065523199737071991 0.091228403151035309
vt -0.065523199737071991 0.038410898298025131
vt -0.072117097675800323 0.04114219918847084
vt -0.072117097675800323 0.0884971022605896
vt -0.077779501676559448 0.045487098395824432
vt -0.077779501676559448 0.084152199327945709
vt -0.082124397158622742 0.078489802777767181
vt -0.082124397158622742 0.051149498671293259
vt -0.084855698049068451 0.071895897388458252
vt -0.084855698049068451 0.05774340033531189
vt -0.085787296295166016 0.064819701015949249
vt 0.5 1
vt 0.37058886885643005 0.98296171426773071
vt 0.62940776348114014 0.98296171426773071
vt 0.25 0.93301182985305786
vt 0.75 0.93301182985305786
vt 0.14644603431224823 0.85355055332183838
vt 0.85355395078659058 0.85355055332183838
vt 0.066988170146942139 0.75
vt 0.93301182985305786 0.75
vt 0.018619867041707039 0.63319402933120728
vt 0.017038296908140182 0.62940776348114014
vt 0.98296171426773071 0.62940776348114014
vt 0 0.5
vt 1 0.5
vt 0.017038296908140182 0.37058886885643005
vt 0.98296171426773071 0.37058886885643005
vt 0.066988170146942139 0.25
vt 0.93301182985305786 0.25
vt 0.14644603431224823 0.14644603431224823
vt 0.85355395078659058 0.14644603431224823
vt 0.14797680079936981 0.14527086913585663
vt 0.25 0.066984787583351135
vt 0.75 0.066984787583351135
vt 0.37058886885643005 0.017034910619258881
vt 0.62940776348114014 0.017034910619258881
vt 0.5 0
vn 0 -1 0
vn 0 -1 0
vn 0 -1 0
vn 0 -1 0
vn 0 -1 0
vn 0.92387861013412476 0 0.38268560171127319
vn 0.92387861013412476 0 0.38268560171127319
vn 0.92387861013412476 0 0.38268560171127319
vn 0.92387861013412476 0 0.38268560171127319
vn 0.99144721031188965 0 0.13050819933414459
vn 0.99144721031188965 0 0.13050819933414459
vn 0.99144721031188965 0 0.13050819933414459
vn 0.99144721031188965 0 0.13050819933414459
vn 0.99144679307937622 0 -0.1305115669965744
vn 0.99144679307937622 0 -0.1305115669965744
vn 0.99144679307937622 0 -0.1305115669965744
vn 0.99144679307937622 0 -0.1305115669965744
vn 0.92388242483139038 0 -0.38267642259597778
vn 0.92388242483139038 0 -0.38267642259597778
vn 0.92388242483139038 0 -0.38267642259597778
vn 0.92388242483139038 0 -0.38267642259597778
vn 0.79334777593612671 0 -0.60876864194869995
vn 0.79334777593612671 0 -0.60876864194869995
vn 0.79334777593612671 0 -0.60876864194869995
vn 0.79334777593612671 0 -0.60876864194869995
vn 0.60875231027603149 0 -0.79336035251617432
vn 0.60875231027603149 0 -0.79336035251617432
vn 0.60875231027603149 0 -0.79336035251617432
vn 0.60875231027603149 0 -0.79336035251617432
vn 0 -1 0
vn 0 -1 0
vn 0 -1 0
vn 0.79334777593612671 -1.7128503770891257E-07 0.60876864194869995
vn 0.79334777593612671 -1.7128503770891257E-07 0.60876864194869995
vn 0.79334777593612671 -1.7128503770891257E-07 0.60876864194869995
vn 0.79334777593612671 -1.7128503770891257E-07 0.60876864194869995
vn 0.79334777593612671 -1.7128503770891257E-07 0.60876864194869995
vn 0.60875231027603149 0 0.79336035251617432
vn 0.60875231027603149 0 0.79336035251617432
vn 0.60875231027603149 0 0.79336035251617432
vn 0.60875231027603149 0 0.79336035251617432
vn 0.38268560171127319 0 0.92387861013412476
vn 0.38268560171127319 0 0.92387861013412476
vn 0.38268560171127319 0 0.92387861013412476
vn 0.38268560171127319 0 0.92387861013412476
vn 0.13053371012210846 0 0.99144387245178223
vn 0.13053371012210846 0 0.99144387245178223
vn 0.13053371012210846 0 0.99144387245178223
vn 0.13053371012210846 0 0.99144387245178223
vn -0.13053706288337708 0 0.9914434552192688
vn -0.13053706288337708 0 0.9914434552192688
vn -0.13053706288337708 0 0.9914434552192688
vn -0.13053706288337708 0 0.9914434552192688
vn -0.38267642259597778 0 0.92388242483139038
vn -0.38267642259597778 0 0.92388242483139038
vn -0.38267642259597778 0 0.92388242483139038
vn -0.38267642259597778 0 0.92388242483139038
vn -0.38267642259597778 0 0.92388242483139038
vn -0.6087648868560791 0 0.7933506965637207
vn -0.6087648868560791 0 0.7933506965637207
vn -0.6087648868560791 0 0.7933506965637207
vn -0.6087648868560791 0 0.7933506965637207
vn -0.79334777593612671 0 0.60876864194869995
vn -0.79334777593612671 0 0.60876864194869995
vn -0.79334777593612671 0 0.60876864194869995
vn -0.79334777593612671 0 0.60876864194869995
vn -0.92387861013412476 0 0.38268560171127319
vn -0.92387861013412476 0 0.38268560171127319
vn -0.92387861013412476 0 0.38268560171127319
vn -0.92387861013412476 0 0.38268560171127319
vn -0.99144387245178223 0 0.13053371012210846
vn -0.99144387245178223 0 0.13053371012210846
vn -0.99144387245178223 0 0.13053371012210846
vn -0.99144387245178223 0 0.13053371012210846
vn -0.9914434552192688 0 -0.13053706288337708
vn -0.9914434552192688 0 -0.13053706288337708
vn -0.9914434552192688 0 -0.13053706288337708
vn -0.9914434552192688 0 -0.13053706288337708
vn -0.92388242483139038 0 -0.38267642259597778
vn -0.92388242483139038 0 -0.38267642259597778
vn -0.92388242483139038 0 -0.38267642259597778
vn -0.92388242483139038 0 -0.38267642259597778
vn -0.79334777593612671 0 -0.60876864194869995
vn -0.79334777593612671 0 -0.60876864194869995
vn -0.79334777593612671 0 -0.60876864194869995
vn -0.79334777593612671 0 -0.60876864194869995
vn -0.6087648868560791 0 -0.7933506965637207
vn -0.6087648868560791 0 -0.7933506965637207
vn -0.6087648868560791 0 -0.7933506965637207
vn -0.6087648868560791 0 -0.7933506965637207
vn -0.38267642259597778 0 -0.92388242483139038
vn -0.38267642259597778 0 -0.92388242483139038
vn -0.38267642259597778 0 -0.92388242483139038
vn -0.38267642259597778 0 -0.92388242483139038
vn -0.13053706288337708 0 -0.9914434552192688
vn -0.13053706288337708 0 -0.9914434552192688
vn -0.13053706288337708 0 -0.9914434552192688
vn -0.13053706288337708 0 -0.9914434552192688
vn 0.13053371012210846 0 -0.99144387245178223
vn 0.13053371012210846 0 -0.99144387245178223
vn 0.13053371012210846 0 -0.99144387245178223
vn 0.13053371012210846 0 -0.99144387245178223
vn 0.38268560171127319 0 -0.92387861013412476
vn 0.38268560171127319 0 -0.92387861013412476
vn 0.38268560171127319 0 -0.92387861013412476
vn 0.38268560171127319 0 -0.92387861013412476
vn 0 -1 0
vn 0 -1 0
vn 0 -1 0
vn 0 -1 0
vn 0 -1 0
vn 0 -1 0
vn 0 -1 0
vn 0 -1 0
vn 0 -1 0
vn 0 -1 0
vn 0 -1 0
vn 0 -1 0
vn 0 -1 0
vn 0 -1 0
vn 0 -1 0
vn 0 -1 0
vn 0 1 0
vn 0 1 0
vn 0 1 0
vn 0 1 0
vn 0 1 0
vn 0 1 0
vn 0 1 0
vn 0 1 0
vn 0 1 0
vn 0 1 0
vn 0 1 0
vn 0 1 0
vn 0 1 0
vn 0 1 0
vn 0 1 0
vn 0 1 0
vn 0 1 0
vn 0 1 0
vn 0 1 0
vn 0 1 0
vn 0 1 0
vn 0 1 0
vn 0 1 0
vn 0 1 0
vn 0 1 0
vn 0 1 0
f 1/1/1 2/2/2 3/3/3
f 2/2/2 1/1/1 4/4/4
f 4/4/4 1/1/1 5/5/5
f 6/6/6 7/7/7 8/8/8
f 7/7/7 6/6/6 9/9/9
f 10/10/10 11/11/11 12/12/12
f 11/11/11 10/10/10 13/13/13
f 14/14/14 15/15/15 16/16/16
f 15/15/15 14/14/14 17/17/17
f 18/18/18 19/19/19 20/20/20
f 19/19/19 18/18/18 21/21/21
f 22/22/22 23/23/23 24/24/24
f 23/23/23 22/22/22 25/25/25
f 26/26/26 27/27/27 28/28/28
f 27/27/27 26/26/26 29/29/29
f 30/30/30 31/31/31 32/32/32
f 30/30/30 5/5/5 31/31/31
f 4/4/4 5/5/5 30/30/30
f 33/33/33 34/34/34 35/35/35
f 34/34/34 33/33/33 36/36/36
f 35/35/35 34/34/34 37/37/37
f 38/38/38 39/39/39 40/40/40
f 39/39/39 38/38/38 41/41/41
f 42/42/42 43/43/43 44/44/44
f 43/43/43 42/42/42 45/45/45
f 46/46/46 47/47/47 48/48/48
f 47/47/47 46/46/46 49/49/49
f 50/50/50 51/51/51 52/52/52
f 51/51/51 50/50/50 53/53/53
f 54/54/54 55/55/55 56/56/56
f 55/55/55 54/54/54 57/57/57
f 57/57/57 54/54/54 58/58/58
f 59/59/59 60/60/60 61/61/61
f 60/60/60 59/59/59 62/62/62
f 63/63/63 64/64/64 65/65/65
f 64/64/64 63/63/63 66/66/66
f 67/67/67 68/68/68 69/69/69
f 68/68/68 67/67/67 70/70/70
f 71/71/71 72/72/72 73/73/73
f 72/72/72 71/71/71 74/74/74
f 75/75/75 76/76/76 77/77/77
f 76/76/76 75/75/75 78/78/78
f 79/79/79 80/80/80 81/81/81
f 80/80/80 79/79/79 82/82/82
f 83/83/83 84/84/84 85/85/85
f 84/84/84 83/83/83 86/86/86
f 87/87/87 88/88/88 89/89/89
f 88/88/88 87/87/87 90/90/90
f 91/91/91 92/92/92 93/93/93
f 92/92/92 91/91/91 94/94/94
f 95/95/95 96/96/96 97/97/97
f 96/96/96 95/95/95 98/98/98
f 99/99/99 100/100/100 101/101/101
f 100/100/100 99/99/99 102/102/102
f 103/103/103 104/104/104 105/105/105
f 104/104/104 103/103/103 106/106/106
f 32/32/32 107/107/107 108/108/108
f 32/32/32 31/31/31 107/107/107
f 108/108/108 107/107/107 109/109/109
f 108/108/108 109/109/109 110/110/110
f 110/110/110 109/109/109 111/111/111
f 110/110/110 111/111/111 112/112/112
f 110/110/110 112/112/112 113/113/113
f 113/113/113 112/112/112 114/114/114
f 114/114/114 112/112/112 115/115/115
f 114/114/114 115/115/115 116/116/116
f 116/116/116 115/115/115 117/117/117
f 116/116/116 117/117/117 118/118/118
f 116/116/116 118/118/118 119/119/119
f 119/119/119 118/118/118 120/120/120
f 119/119/119 120/120/120 121/121/121
f 121/121/121 120/120/120 122/122/122
f 139/139/139 143/143/143 137/137/137
f 141/141/141 143/143/143 139/139/139
f 146/146/146 143/143/143 144/144/144
f 132/132/132 137/137/137 143/143/143
f 143/143/143 145/145/145 132/132/132
f 133/133/133 135/135/135 132/132/132
f 132/132/132 135/135/135 137/137/137
f 128/128/128 130/130/130 132/132/132
f 132/132/132 126/126/126 128/128/128
f 132/132/132 124/124/124 126/126/126
f 124/124/124 132/132/132 123/123/123
f 146/146/146 148/148/148 143/143/143
f 143/143/143 147/147/147 145/145/145
f 142/142/142 132/132/132 145/145/145
f 140/140/140 138/138/138 132/132/132
f 140/140/140 132/132/132 142/142/142
f 132/132/132 138/138/138 136/136/136
f 125/125/125 132/132/132 127/127/127
f 125/125/125 123/123/123 132/132/132
f 129/129/129 127/127/127 132/132/132
f 131/131/131 129/129/129 132/132/132
f 131/131/131 132/132/132 134/134/134
f 132/132/132 136/136/136 134/134/134
f 147/147/147 143/143/143 148/148/148
