# Rhino

mtllib Sofa_13_07.mtl
usemtl Default
v -0.37918854928599988 0.042894093130000005 0.17377393223399995
v -0.37622409084899999 0 0.17283226390900008
v -0.37622409084899999 0.042894093130000005 0.17283226390900008
v -0.37918854928599988 0 0.17377393223399995
v -0.38229598803300036 0.042894093130000005 0.17391624530300032
v -0.37918854928599988 0 0.17377393223399995
v -0.37918854928599988 0.042894093130000005 0.17377393223399995
v -0.38229598803300036 0 0.17391624530300032
v -0.38533193662400045 0.042894093130000005 0.17324948045599964
v -0.38229598803300036 0 0.17391624530300032
v -0.38229598803300036 0.042894093130000005 0.17391624530300032
v -0.38533193662400045 0 0.17324948045599964
v -0.3880962226260003 0.042894093130000005 0.17181910542899992
v -0.38533193662400045 0 0.17324948045599964
v -0.38533193662400045 0.042894093130000005 0.17324948045599964
v -0.3880962226260003 0 0.17181910542899992
v -0.39039343961399986 0.042894093130000005 0.16972263279799993
v -0.3880962226260003 0 0.17181910542899992
v -0.3880962226260003 0.042894093130000005 0.17181910542899992
v -0.39039343961399986 0 0.16972263279799993
v -0.39039343961399986 0.042894093130000005 0.16972263279799993
v -0.39207107525600016 0 0.16710285223000021
v -0.39039343961399986 0 0.16972263279799993
v -0.39207107525600016 0.042894093130000005 0.16710285223000021
v -0.37622409084899999 0.042894093130000005 0.17283226390900008
v -0.37360278515799994 0 0.17115543848900039
v -0.37360278515799994 0.042894093130000005 0.17115543848900039
v -0.37622409084899999 0 0.17283226390900008
v -0.37622409084899999 0 0.17283226390900008
v -0.3880962226260003 0 0.17181910542899992
v -0.37360278515799994 0 0.17115543848900039
v -0.38533193662400045 0 0.17324948045599964
v -0.37918854928599988 0 0.17377393223399995
v -0.38229598803300036 0 0.17391624530300032
v -0.39039343961399986 0 0.16972263279799993
v -0.37150574060500041 0 0.16885769723999999
v -0.39207107525600016 0 0.16710285223000021
v -0.37007593750000023 0 0.1660956512630003
v -0.39300997929499992 0 0.16413839379300033
v -0.369408696052 0 0.16305751030700044
v -0.39315295960499963 0 0.16103109802700022
v -0.3695516763619997 0 0.15995016687999986
v -0.39248571815700029 0 0.15799324303200013
v -0.37049058040100036 0 0.15698570844400006
v -0.3910559150520001 0 0.15523086343400028
v -0.37216821604299977 0 0.154366309157
v -0.38895887049899969 0 0.15293316984500027
v -0.37446543303100022 0 0.15226974120500003
v -0.38633756480799963 0 0.15125648740499997
v -0.37722971903300007 0 0.15083946149900029
v -0.38337310637099975 0 0.15031472376000021
v -0.38026566762400016 0 0.15017269665199962
v -0.39207107525600016 0.042894093130000005 0.16710285223000021
v -0.39300997929499992 0 0.16413839379300033
v -0.39207107525600016 0 0.16710285223000021
v -0.39300997929499992 0.042894093130000005 0.16413839379300033
v -0.37150574060500041 0 0.16885769723999999
v -0.37007593750000023 0.042894093130000005 0.1660956512630003
v -0.37150574060500041 0.042894093130000005 0.16885769723999999
v -0.37007593750000023 0 0.1660956512630003
v -0.37007593750000023 0 0.1660956512630003
v -0.369408696052 0.042894093130000005 0.16305751030700044
v -0.37007593750000023 0.042894093130000005 0.1660956512630003
v -0.369408696052 0 0.16305751030700044
v -0.39300997929499992 0.042894093130000005 0.16413839379300033
v -0.39315295960499963 0 0.16103109802700022
v -0.39300997929499992 0 0.16413839379300033
v -0.39315295960499963 0.042894093130000005 0.16103109802700022
v -0.369408696052 0.042894093130000005 0.16305751030700044
v -0.3695516763619997 0 0.15995016687999986
v -0.3695516763619997 0.042894093130000005 0.15995016687999986
v -0.369408696052 0 0.16305751030700044
v -0.39315295960499963 0.042894093130000005 0.16103109802700022
v -0.39248571815700029 0 0.15799324303200013
v -0.39315295960499963 0 0.16103109802700022
v -0.39248571815700029 0.042894093130000005 0.15799324303200013
v -0.3695516763619997 0 0.15995016687999986
v -0.37049058040100036 0.042894093130000005 0.15698570844400006
v -0.3695516763619997 0.042894093130000005 0.15995016687999986
v -0.37049058040100036 0 0.15698570844400006
v -0.39248571815700029 0.042894093130000005 0.15799324303200013
v -0.3910559150520001 0 0.15523086343400028
v -0.39248571815700029 0 0.15799324303200013
v -0.3910559150520001 0.042894093130000005 0.15523086343400028
v -0.37049058040100036 0 0.15698570844400006
v -0.37216821604299977 0.042894093130000005 0.154366309157
v -0.37049058040100036 0.042894093130000005 0.15698570844400006
v -0.37216821604299977 0 0.154366309157
v -0.3910559150520001 0.042894093130000005 0.15523086343400028
v -0.38895887049899969 0 0.15293316984500027
v -0.3910559150520001 0 0.15523086343400028
v -0.38895887049899969 0.042894093130000005 0.15293316984500027
v -0.37216821604299977 0.042894093130000005 0.154366309157
v -0.37446543303100022 0 0.15226974120500003
v -0.37446543303100022 0.042894093130000005 0.15226974120500003
v -0.37216821604299977 0 0.154366309157
v -0.38895887049899969 0 0.15293316984500027
v -0.38633756480799963 0.042894093130000005 0.15125648740499997
v -0.38633756480799963 0 0.15125648740499997
v -0.38895887049899969 0.042894093130000005 0.15293316984500027
v -0.37446543303100022 0.042894093130000005 0.15226974120500003
v -0.37722971903300007 0 0.15083946149900029
v -0.37722971903300007 0.042894093130000005 0.15083946149900029
v -0.37446543303100022 0 0.15226974120500003
v -0.38633756480799963 0 0.15125648740499997
v -0.38337310637099975 0.042894093130000005 0.15031472376000021
v -0.38337310637099975 0 0.15031472376000021
v -0.38633756480799963 0.042894093130000005 0.15125648740499997
v -0.37722971903300007 0.042894093130000005 0.15083946149900029
v -0.38026566762400016 0 0.15017269665199962
v -0.38026566762400016 0.042894093130000005 0.15017269665199962
v -0.37722971903300007 0 0.15083946149900029
v -0.38337310637099975 0 0.15031472376000021
v -0.38026566762400016 0.042894093130000005 0.15017269665199962
v -0.38026566762400016 0 0.15017269665199962
v -0.38337310637099975 0.042894093130000005 0.15031472376000021
v -0.37150574060500041 0.042894093130000005 0.16885769723999999
v -0.37360278515799994 0 0.17115543848900039
v -0.37150574060500041 0 0.16885769723999999
v -0.37360278515799994 0.042894093130000005 0.17115543848900039
v -0.37049058040100036 0.042894093130000005 0.15698570844400006
v -0.38128082782849937 0.042894093130000005 0.16204447097750041
v -0.3695516763619997 0.042894093130000005 0.15995016687999986
v -0.37216821604299977 0.042894093130000005 0.154366309157
v -0.369408696052 0.042894093130000005 0.16305751030700044
v -0.37446543303100022 0.042894093130000005 0.15226974120500003
v -0.37722971903300007 0.042894093130000005 0.15083946149900029
v -0.37360278515799994 0.042894093130000005 0.17115543848900039
v -0.37150574060500041 0.042894093130000005 0.16885769723999999
v -0.37007593750000023 0.042894093130000005 0.1660956512630003
v -0.37622409084899999 0.042894093130000005 0.17283226390900008
v -0.37918854928599988 0.042894093130000005 0.17377393223399995
v -0.38026566762400016 0.042894093130000005 0.15017269665199962
v -0.38337310637099975 0.042894093130000005 0.15031472376000021
v -0.38633756480799963 0.042894093130000005 0.15125648740499997
v -0.38895887049899969 0.042894093130000005 0.15293316984500027
v -0.3910559150520001 0.042894093130000005 0.15523086343400028
v -0.39248571815700029 0.042894093130000005 0.15799324303200013
v -0.39315295960499963 0.042894093130000005 0.16103109802700022
v -0.38229598803300036 0.042894093130000005 0.17391624530300032
v -0.38533193662400045 0.042894093130000005 0.17324948045599964
v -0.3880962226260003 0.042894093130000005 0.17181910542899992
v -0.39207107525600016 0.042894093130000005 0.16710285223000021
v -0.39039343961399986 0.042894093130000005 0.16972263279799993
v -0.39300997929499992 0.042894093130000005 0.16413839379300033
vt -0.3186430037021637 0.017999999225139618
vt -0.31733798980712891 0
vt -0.31733798980712891 0.017999999225139618
vt -0.3186430037021637 0
vt -0.33938199281692505 0.017999999225139618
vt -0.33807599544525146 0
vt -0.33807599544525146 0.017999999225139618
vt -0.33938199281692505 0
vt -0.33703699707984924 0.017999999225139618
vt -0.33573099970817566 0
vt -0.33573099970817566 0.017999999225139618
vt -0.33703699707984924 0
vt -0.31176799535751343 0.017999999225139618
vt -0.31046199798583984 0
vt -0.31046199798583984 0.017999999225139618
vt -0.31176799535751343 0
vt -0.26529601216316223 0.017999999225139618
vt -0.26399099826812744 0
vt -0.26399099826812744 0.017999999225139618
vt -0.26529601216316223 0
vt -0.19948500394821167 0.017999999225139618
vt -0.20079000294208527 0
vt -0.19948500394821167 0
vt -0.20079000294208527 0.017999999225139618
vt -0.27623400092124939 0.017999999225139618
vt -0.27492800354957581 0
vt -0.27492800354957581 0.017999999225139618
vt -0.27623400092124939 0
vt -0.015472999773919582 0.33787700533866882
vt -0.015898099169135094 0.34285899996757507
vt -0.016176600009202957 0.33677801489830017
vt -0.015297899954020977 0.3416999876499176
vt -0.015077799558639526 0.339121013879776
vt -0.015018099918961525 0.34042501449584961
vt -0.016777899116277695 0.34382298588752747
vt -0.01714090071618557 0.3358980119228363
vt -0.017877299338579178 0.34452700614929199
vt -0.018299899995326996 0.33529800176620483
vt -0.019121300429105759 0.34492200613021851
vt -0.019574800506234169 0.33501800894737244
vt -0.020425200462341309 0.34498199820518494
vt -0.020878700539469719 0.33507800102233887
vt -0.021700099110603333 0.34470200538635254
vt -0.022122699767351151 0.33547300100326538
vt -0.022859100252389908 0.34410199522972107
vt -0.023222099989652634 0.33617699146270752
vt -0.023823399096727371 0.3432219922542572
vt -0.024101899936795235 0.3371410071849823
vt -0.024527000263333321 0.34212300181388855
vt -0.024702100083231926 0.33829998970031738
vt -0.024922199547290802 0.34087899327278137
vt -0.024981899186968803 0.33957499265670776
vt -0.12133999913930893 0.017999999225139618
vt -0.12264499813318253 0
vt -0.12133999913930893 0
vt -0.12264499813318253 0.017999999225139618
vt -0.13924400508403778 0
vt -0.13793900609016418 0.017999999225139618
vt -0.13924400508403778 0.017999999225139618
vt -0.13793900609016418 0
vt -0.053999099880456924 0
vt -0.052693799138069153 0.017999999225139618
vt -0.053999099880456924 0.017999999225139618
vt -0.052693799138069153 0
vt -0.03488130122423172 0.017999999225139618
vt -0.036186501383781433 0
vt -0.03488130122423172 0
vt -0.036186501383781433 0.017999999225139618
vt 0.03488130122423172 0.017999999225139618
vt 0.036186501383781433 0
vt 0.036186501383781433 0.017999999225139618
vt 0.03488130122423172 0
vt 0.053999099880456924 0.017999999225139618
vt 0.052693799138069153 0
vt 0.053999099880456924 0
vt 0.052693799138069153 0.017999999225139618
vt 0.12133999913930893 0
vt 0.12264499813318253 0.017999999225139618
vt 0.12133999913930893 0.017999999225139618
vt 0.12264499813318253 0
vt 0.13924400508403778 0.017999999225139618
vt 0.13793900609016418 0
vt 0.13924400508403778 0
vt 0.13793900609016418 0.017999999225139618
vt 0.19948500394821167 0
vt 0.20079000294208527 0.017999999225139618
vt 0.19948500394821167 0.017999999225139618
vt 0.20079000294208527 0
vt 0.21504400670528412 0.017999999225139618
vt 0.21373899281024933 0
vt 0.21504400670528412 0
vt 0.21373899281024933 0.017999999225139618
vt 0.26399099826812744 0.017999999225139618
vt 0.26529601216316223 0
vt 0.26529601216316223 0.017999999225139618
vt 0.26399099826812744 0
vt 0.27623400092124939 0
vt 0.27492800354957581 0.017999999225139618
vt 0.27492800354957581 0
vt 0.27623400092124939 0.017999999225139618
vt 0.31046199798583984 0.017999999225139618
vt 0.31176799535751343 0
vt 0.31176799535751343 0.017999999225139618
vt 0.31046199798583984 0
vt 0.3186430037021637 0
vt 0.31733798980712891 0.017999999225139618
vt 0.31733798980712891 0
vt 0.3186430037021637 0.017999999225139618
vt 0.33573099970817566 0.017999999225139618
vt 0.33703699707984924 0
vt 0.33703699707984924 0.017999999225139618
vt 0.33573099970817566 0
vt 0.33938199281692505 0
vt 0.33807599544525146 0.017999999225139618
vt 0.33807599544525146 0
vt 0.33938199281692505 0.017999999225139618
vt -0.21373899281024933 0.017999999225139618
vt -0.21504400670528412 0
vt -0.21373899281024933 0
vt -0.21504400670528412 0.017999999225139618
vt 0.045564029365777969 0.28694158792495728
vt 0.5 0.5
vt 0.0060216779820621014 0.41179481148719788
vt 0.11621838808059692 0.17662113904953003
vt 0 0.54266589879989624
vt 0.2129666805267334 0.088320605456829071
vt 0.32938578724861145 0.02808193676173687
vt 0.17663589119911194 0.8837239146232605
vt 0.088317945599555969 0.78695064783096313
vt 0.028101164847612381 0.67062234878540039
vt 0.2870333194732666 0.95434629917144775
vt 0.41188278794288635 0.99400621652603149
vt 0.4572460949420929 0
vt 0.58811724185943604 0.0059817135334014893
vt 0.7129666805267334 0.045645695179700851
vt 0.82336413860321045 0.1162620335817337
vt 0.91168206930160522 0.21303330361843109
vt 0.97189885377883911 0.32937562465667725
vt 1 0.45732006430625916
vt 0.54275393486022949 1
vt 0.67061418294906616 0.97191804647445679
vt 0.7870333194732666 0.91167539358139038
vt 0.95443594455718994 0.71304231882095337
vt 0.88378161191940308 0.82337886095046997
vt 0.99397832155227661 0.58818912506103516
vn 0.30274572968482971 0 0.95307135581970215
vn 0.30274572968482971 0 0.95307135581970215
vn 0.30274572968482971 0 0.95307135581970215
vn 0.30274572968482971 0 0.95307135581970215
vn 0.045749593526124954 0 0.99895292520523071
vn 0.045749593526124954 0 0.99895292520523071
vn 0.045749593526124954 0 0.99895292520523071
vn 0.045749593526124954 0 0.99895292520523071
vn -0.21451076865196228 0 0.97672164440155029
vn -0.21451076865196228 0 0.97672164440155029
vn -0.21451076865196228 0 0.97672164440155029
vn -0.21451076865196228 0 0.97672164440155029
vn -0.45956787467002869 0 0.88814264535903931
vn -0.45956787467002869 0 0.88814264535903931
vn -0.45956787467002869 0 0.88814264535903931
vn -0.45956787467002869 0 0.88814264535903931
vn -0.67409640550613403 0 0.73864340782165527
vn -0.67409640550613403 0 0.73864340782165527
vn -0.67409640550613403 0 0.73864340782165527
vn -0.67409640550613403 0 0.73864340782165527
vn -0.8421289324760437 0 0.53927624225616455
vn -0.8421289324760437 0 0.53927624225616455
vn -0.8421289324760437 0 0.53927624225616455
vn -0.8421289324760437 0 0.53927624225616455
vn 0.53886896371841431 0 0.84238958358764648
vn 0.53886896371841431 0 0.84238958358764648
vn 0.53886896371841431 0 0.84238958358764648
vn 0.53886896371841431 0 0.84238958358764648
vn 0 -1 0
vn 0 -1 0
vn 0 -1 0
vn 0 -1 0
vn 0 -1 0
vn 0 -1 0
vn 0 -1 0
vn 0 -1 0
vn 0 -1 0
vn 0 -1 0
vn 0 -1 0
vn 0 -1 0
vn 0 -1 0
vn 0 -1 0
vn 0 -1 0
vn 0 -1 0
vn 0 -1 0
vn 0 -1 0
vn 0 -1 0
vn 0 -1 0
vn 0 -1 0
vn 0 -1 0
vn 0 -1 0
vn 0 -1 0
vn -0.95332753658294678 0 0.30193814635276794
vn -0.95332753658294678 0 0.30193814635276794
vn -0.95332753658294678 0 0.30193814635276794
vn -0.95332753658294678 0 0.30193814635276794
vn 0.88806557655334473 0 0.459716796875
vn 0.88806557655334473 0 0.459716796875
vn 0.88806557655334473 0 0.459716796875
vn 0.88806557655334473 0 0.459716796875
vn 0.97672194242477417 0 0.2145092636346817
vn 0.97672194242477417 0 0.2145092636346817
vn 0.97672194242477417 0 0.2145092636346817
vn 0.97672194242477417 0 0.2145092636346817
vn -0.998943030834198 0 0.045965749770402908
vn -0.998943030834198 0 0.045965749770402908
vn -0.998943030834198 0 0.045965749770402908
vn -0.998943030834198 0 0.045965749770402908
vn 0.998943030834198 0 -0.045965045690536499
vn 0.998943030834198 0 -0.045965045690536499
vn 0.998943030834198 0 -0.045965045690536499
vn 0.998943030834198 0 -0.045965045690536499
vn -0.97671771049499512 0 -0.21452853083610535
vn -0.97671771049499512 0 -0.21452853083610535
vn -0.97671771049499512 0 -0.21452853083610535
vn -0.97671771049499512 0 -0.21452853083610535
vn 0.95332753658294678 0 -0.30193814635276794
vn 0.95332753658294678 0 -0.30193814635276794
vn 0.95332753658294678 0 -0.30193814635276794
vn 0.95332753658294678 0 -0.30193814635276794
vn -0.88808822631835938 0 -0.45967301726341248
vn -0.88808822631835938 0 -0.45967301726341248
vn -0.88808822631835938 0 -0.45967301726341248
vn -0.88808822631835938 0 -0.45967301726341248
vn 0.84209328889846802 0 -0.53933191299438477
vn 0.84209328889846802 0 -0.53933191299438477
vn 0.84209328889846802 0 -0.53933191299438477
vn 0.84209328889846802 0 -0.53933191299438477
vn -0.73862147331237793 0 -0.67412042617797852
vn -0.73862147331237793 0 -0.67412042617797852
vn -0.73862147331237793 0 -0.67412042617797852
vn -0.73862147331237793 0 -0.67412042617797852
vn 0.67411309480667114 0 -0.73862814903259277
vn 0.67411309480667114 0 -0.73862814903259277
vn 0.67411309480667114 0 -0.73862814903259277
vn 0.67411309480667114 0 -0.73862814903259277
vn -0.53883635997772217 0 -0.84241044521331787
vn -0.53883635997772217 0 -0.84241044521331787
vn -0.53883635997772217 0 -0.84241044521331787
vn -0.53883635997772217 0 -0.84241044521331787
vn 0.45954373478889465 0 -0.88815516233444214
vn 0.45954373478889465 0 -0.88815516233444214
vn 0.45954373478889465 0 -0.88815516233444214
vn 0.45954373478889465 0 -0.88815516233444214
vn -0.30277356505393982 0 -0.95306253433227539
vn -0.30277356505393982 0 -0.95306253433227539
vn -0.30277356505393982 0 -0.95306253433227539
vn -0.30277356505393982 0 -0.95306253433227539
vn 0.21451076865196228 0 -0.97672164440155029
vn 0.21451076865196228 0 -0.97672164440155029
vn 0.21451076865196228 0 -0.97672164440155029
vn 0.21451076865196228 0 -0.97672164440155029
vn -0.04565785825252533 0 -0.99895715713500977
vn -0.04565785825252533 0 -0.99895715713500977
vn -0.04565785825252533 0 -0.99895715713500977
vn -0.04565785825252533 0 -0.99895715713500977
vn 0.73862844705581665 0 0.67411279678344727
vn 0.73862844705581665 0 0.67411279678344727
vn 0.73862844705581665 0 0.67411279678344727
vn 0.73862844705581665 0 0.67411279678344727
vn 0 1 0
vn 0 1 0
vn 0 1 0
vn 0 1 0
vn 0 1 0
vn 0 1 0
vn 0 1 0
vn 0 1 0
vn 0 1 0
vn 0 1 0
vn 0 1 0
vn 0 1 0
vn 0 1 0
vn 0 1 0
vn 0 1 0
vn 0 1 0
vn 0 1 0
vn 0 1 0
vn 0 1 0
vn 0 1 0
vn 0 1 0
vn 0 1 0
vn 0 1 0
vn 0 1 0
vn 0 1 0
f 1/1/1 2/2/2 3/3/3
f 2/2/2 1/1/1 4/4/4
f 5/5/5 6/6/6 7/7/7
f 6/6/6 5/5/5 8/8/8
f 9/9/9 10/10/10 11/11/11
f 10/10/10 9/9/9 12/12/12
f 13/13/13 14/14/14 15/15/15
f 14/14/14 13/13/13 16/16/16
f 17/17/17 18/18/18 19/19/19
f 18/18/18 17/17/17 20/20/20
f 21/21/21 22/22/22 23/23/23
f 22/22/22 21/21/21 24/24/24
f 25/25/25 26/26/26 27/27/27
f 26/26/26 25/25/25 28/28/28
f 29/29/29 30/30/30 31/31/31
f 29/29/29 32/32/32 30/30/30
f 33/33/33 32/32/32 29/29/29
f 32/32/32 33/33/33 34/34/34
f 31/31/31 30/30/30 35/35/35
f 31/31/31 35/35/35 36/36/36
f 36/36/36 35/35/35 37/37/37
f 36/36/36 37/37/37 38/38/38
f 38/38/38 37/37/37 39/39/39
f 38/38/38 39/39/39 40/40/40
f 40/40/40 39/39/39 41/41/41
f 40/40/40 41/41/41 42/42/42
f 42/42/42 41/41/41 43/43/43
f 42/42/42 43/43/43 44/44/44
f 44/44/44 43/43/43 45/45/45
f 44/44/44 45/45/45 46/46/46
f 46/46/46 45/45/45 47/47/47
f 46/46/46 47/47/47 48/48/48
f 48/48/48 47/47/47 49/49/49
f 48/48/48 49/49/49 50/50/50
f 50/50/50 49/49/49 51/51/51
f 50/50/50 51/51/51 52/52/52
f 53/53/53 54/54/54 55/55/55
f 54/54/54 53/53/53 56/56/56
f 57/57/57 58/58/58 59/59/59
f 58/58/58 57/57/57 60/60/60
f 61/61/61 62/62/62 63/63/63
f 62/62/62 61/61/61 64/64/64
f 65/65/65 66/66/66 67/67/67
f 66/66/66 65/65/65 68/68/68
f 69/69/69 70/70/70 71/71/71
f 70/70/70 69/69/69 72/72/72
f 73/73/73 74/74/74 75/75/75
f 74/74/74 73/73/73 76/76/76
f 77/77/77 78/78/78 79/79/79
f 78/78/78 77/77/77 80/80/80
f 81/81/81 82/82/82 83/83/83
f 82/82/82 81/81/81 84/84/84
f 85/85/85 86/86/86 87/87/87
f 86/86/86 85/85/85 88/88/88
f 89/89/89 90/90/90 91/91/91
f 90/90/90 89/89/89 92/92/92
f 93/93/93 94/94/94 95/95/95
f 94/94/94 93/93/93 96/96/96
f 97/97/97 98/98/98 99/99/99
f 98/98/98 97/97/97 100/100/100
f 101/101/101 102/102/102 103/103/103
f 102/102/102 101/101/101 104/104/104
f 105/105/105 106/106/106 107/107/107
f 106/106/106 105/105/105 108/108/108
f 109/109/109 110/110/110 111/111/111
f 110/110/110 109/109/109 112/112/112
f 113/113/113 114/114/114 115/115/115
f 114/114/114 113/113/113 116/116/116
f 117/117/117 118/118/118 119/119/119
f 118/118/118 117/117/117 120/120/120
f 121/121/121 122/122/122 123/123/123
f 121/121/121 124/124/124 122/122/122
f 125/125/125 123/123/123 122/122/122
f 124/124/124 126/126/126 122/122/122
f 127/127/127 122/122/122 126/126/126
f 128/128/128 129/129/129 122/122/122
f 125/125/125 122/122/122 130/130/130
f 131/131/131 128/128/128 122/122/122
f 130/130/130 122/122/122 129/129/129
f 132/132/132 131/131/131 122/122/122
f 133/133/133 122/122/122 127/127/127
f 134/134/134 135/135/135 122/122/122
f 135/135/135 136/136/136 122/122/122
f 137/137/137 138/138/138 122/122/122
f 136/136/136 137/137/137 122/122/122
f 138/138/138 139/139/139 122/122/122
f 140/140/140 122/122/122 141/141/141
f 142/142/142 141/141/141 122/122/122
f 132/132/132 122/122/122 140/140/140
f 122/122/122 143/143/143 144/144/144
f 144/144/144 142/142/142 122/122/122
f 143/143/143 122/122/122 145/145/145
f 145/145/145 122/122/122 139/139/139
f 133/133/133 134/134/134 122/122/122
