# Rhino

mtllib Sofa_08_08.mtl
usemtl Default
v -0.3709307732860001 0 0.20212390363199972
v -0.3709307732860001 0.0088845649610000133 0.15770119166200036
v -0.3709307732860001 0 0.15770119166200036
v -0.3709307732860001 0.0088845649610000133 0.20212390363199972
v -0.3709307732860001 0 0.20212390363199972
v -0.32650806131699994 0.0088845649610000133 0.20212390363199972
v -0.3709307732860001 0.0088845649610000133 0.20212390363199972
v -0.32650806131699994 0 0.20212390363199972
v -0.3709307732860001 0 0.20212390363199972
v -0.32650806131699994 0 0.15770119166200036
v -0.32650806131699994 0 0.20212390363199972
v -0.3709307732860001 0 0.15770119166200036
v -0.3709307732860001 0.0088845649610000133 0.15770119166200036
v -0.32650806131699994 0 0.15770119166200036
v -0.3709307732860001 0 0.15770119166200036
v -0.32650806131699994 0.0088845649610000133 0.15770119166200036
v -0.32650806131699994 0.0088845649610000133 0.20212390363199972
v -0.32650806131699994 0 0.15770119166200036
v -0.32650806131699994 0.0088845649610000133 0.15770119166200036
v -0.32650806131699994 0 0.20212390363199972
v -0.3709307732860001 0.0088845649610000133 0.20212390363199972
v -0.3709307732860001 0.0088845649610000133 0.15770119166200036
v -0.34871941730150002 0.0088845649610000133 0.1799125476469996
v -0.32650806131699994 0.0088845649610000133 0.20212390363199972
v -0.32650806131699994 0.0088845649610000133 0.15770119166200036
vt 35.826801300048828 0
vt 31.889799118041992 0.78740197420120239
vt 31.889799118041992 0
vt 35.826801300048828 0.78740197420120239
vt -79.133903503417969 0
vt -75.1968994140625 0.78740197420120239
vt -79.133903503417969 0.78740197420120239
vt -75.1968994140625 0
vt -79.133903503417969 35.826801300048828
vt -75.1968994140625 31.889799118041992
vt -75.1968994140625 35.826801300048828
vt -79.133903503417969 31.889799118041992
vt 79.133903503417969 0.78740197420120239
vt 75.1968994140625 0
vt 79.133903503417969 0
vt 75.1968994140625 0.78740197420120239
vt -35.826801300048828 0.78740197420120239
vt -31.889799118041992 0
vt -31.889799118041992 0.78740197420120239
vt -35.826801300048828 0
vt 0 1
vt 1 1
vt 0.5 0.5
vt 0 0
vt 1 0
vn -1 0 0
vn -1 0 0
vn -1 0 0
vn -1 0 0
vn 0 0 1
vn 0 0 1
vn 0 0 1
vn 0 0 1
vn 0 -1 0
vn 0 -1 0
vn 0 -1 0
vn 0 -1 0
vn 0 0 -1
vn 0 0 -1
vn 0 0 -1
vn 0 0 -1
vn 1 0 0
vn 1 0 0
vn 1 0 0
vn 1 0 0
vn 0 1 0
vn 0 1 0
vn 0 1 0
vn 0 1 0
vn 0 1 0
f 1/1/1 2/2/2 3/3/3
f 2/2/2 1/1/1 4/4/4
f 5/5/5 6/6/6 7/7/7
f 6/6/6 5/5/5 8/8/8
f 9/9/9 10/10/10 11/11/11
f 10/10/10 9/9/9 12/12/12
f 13/13/13 14/14/14 15/15/15
f 14/14/14 13/13/13 16/16/16
f 17/17/17 18/18/18 19/19/19
f 18/18/18 17/17/17 20/20/20
f 23/23/23 21/21/21 24/24/24
f 22/22/22 23/23/23 25/25/25
f 24/24/24 25/25/25 23/23/23
f 21/21/21 23/23/23 22/22/22
