# Rhino

mtllib Sofa_12_06.mtl
usemtl Default
v -0.43014944652200082 0.033408561501099998 0.1385275608849974
v -0.43245526831600056 0 0.13883113334799724
v -0.43245526831600056 0.033408561501099998 0.13883113334799724
v -0.43014944652200082 0 0.1385275608849974
v -0.42800079345000075 0.033408561501099998 0.13763755680799727
v -0.43014944652200082 0 0.1385275608849974
v -0.43014944652200082 0.033408561501099998 0.1385275608849974
v -0.42800079345000075 0 0.13763755680799727
v -0.42615567571900126 0.033408561501099998 0.13622177621199727
v -0.42800079345000075 0 0.13763755680799727
v -0.42800079345000075 0.033408561501099998 0.13763755680799727
v -0.42615567571900126 0 0.13622177621199727
v -0.42615567571900126 0.033408561501099998 0.13622177621199727
v -0.42473989512300125 0 0.13437665848099734
v -0.42615567571900126 0 0.13622177621199727
v -0.42473989512300125 0.033408561501099998 0.13437665848099734
v -0.43245526831600056 0.033408561501099998 0.13883113334799724
v -0.43476109011100128 0 0.1385275608849974
v -0.43476109011100128 0.033408561501099998 0.1385275608849974
v -0.43245526831600056 0 0.13883113334799724
v -0.43014944652200082 0 0.1385275608849974
v -0.43476109011100128 0 0.1385275608849974
v -0.43245526831600056 0 0.13883113334799724
v -0.42800079345000075 0 0.13763755680799727
v -0.43690974318400055 0 0.13763755680799727
v -0.42615567571900126 0 0.13622177621199727
v -0.43875486091400084 0 0.13622177621199727
v -0.42473989512300125 0 0.13437665848099734
v -0.44017064151000085 0 0.13437665848099734
v -0.42384989104500104 0 0.13222800540899726
v -0.42473989512300125 0.033408561501099998 0.13437665848099734
v -0.42384989104500104 0 0.13222800540899726
v -0.42473989512300125 0 0.13437665848099734
v -0.42384989104500104 0.033408561501099998 0.13222800540899726
v -0.43875486091400084 0 0.13622177621199727
v -0.44017064151000085 0.033408561501099998 0.13437665848099734
v -0.43875486091400084 0.033408561501099998 0.13622177621199727
v -0.44017064151000085 0 0.13437665848099734
v -0.44017064151000085 0 0.13437665848099734
v -0.44106064558800107 0.033408561501099998 0.13222800540899726
v -0.44017064151000085 0.033408561501099998 0.13437665848099734
v -0.44106064558800107 0 0.13222800540899726
v -0.44106064558800107 0 0.13222800540899726
v -0.42354631858300085 0 0.12992218361399743
v -0.42384989104500104 0.033408561501099998 0.13222800540899726
v -0.42354631858300085 0 0.12992218361399743
v -0.42384989104500104 0 0.13222800540899726
v -0.42354631858300085 0.033408561501099998 0.12992218361399743
v -0.42384989104500104 0 0.12761636181999725
v -0.42354631858300085 0.033408561501099998 0.12992218361399743
v -0.42384989104500104 0.033408561501099998 0.12761636181999725
v -0.42354631858300085 0 0.12992218361399743
v -0.44136421805000126 0 0.12992218361399743
v -0.42384989104500104 0 0.12761636181999725
v -0.44136421805000126 0.033408561501099998 0.12992218361399743
v -0.44106064558800107 0 0.13222800540899726
v -0.44136421805000126 0 0.12992218361399743
v -0.44106064558800107 0.033408561501099998 0.13222800540899726
v -0.44136421805000126 0 0.12992218361399743
v -0.44106064558800107 0.033408561501099998 0.12761636181999725
v -0.44136421805000126 0.033408561501099998 0.12992218361399743
v -0.44106064558800107 0 0.12761636181999725
v -0.44106064558800107 0 0.12761636181999725
v -0.42473989512300125 0 0.12546770874799718
v -0.42384989104500104 0.033408561501099998 0.12761636181999725
v -0.42473989512300125 0 0.12546770874799718
v -0.42384989104500104 0 0.12761636181999725
v -0.42473989512300125 0.033408561501099998 0.12546770874799718
v -0.42615567571900126 0 0.12362259101599715
v -0.42473989512300125 0.033408561501099998 0.12546770874799718
v -0.42615567571900126 0.033408561501099998 0.12362259101599715
v -0.42473989512300125 0 0.12546770874799718
v -0.44017064151000085 0 0.12546770874799718
v -0.42615567571900126 0 0.12362259101599715
v -0.44017064151000085 0.033408561501099998 0.12546770874799718
v -0.44106064558800107 0 0.12761636181999725
v -0.44017064151000085 0 0.12546770874799718
v -0.44106064558800107 0.033408561501099998 0.12761636181999725
v -0.44017064151000085 0 0.12546770874799718
v -0.43875486091400084 0.033408561501099998 0.12362259101599715
v -0.44017064151000085 0.033408561501099998 0.12546770874799718
v -0.43875486091400084 0 0.12362259101599715
v -0.43875486091400084 0 0.12362259101599715
v -0.42800079345000075 0 0.12220681042099724
v -0.42615567571900126 0 0.12362259101599715
v -0.42800079345000075 0.033408561501099998 0.12220681042099724
v -0.42800079345000075 0 0.12220681042099724
v -0.42615567571900126 0.033408561501099998 0.12362259101599715
v -0.43014944652200082 0.033408561501099998 0.12131680634299746
v -0.42800079345000075 0 0.12220681042099724
v -0.42800079345000075 0.033408561501099998 0.12220681042099724
v -0.43014944652200082 0 0.12131680634299746
v -0.43245526831600056 0.033408561501099998 0.12101323388099727
v -0.43014944652200082 0 0.12131680634299746
v -0.43014944652200082 0.033408561501099998 0.12131680634299746
v -0.43245526831600056 0 0.12101323388099727
v -0.43476109011100128 0.033408561501099998 0.12131680634299746
v -0.43245526831600056 0 0.12101323388099727
v -0.43245526831600056 0.033408561501099998 0.12101323388099727
v -0.43476109011100128 0 0.12131680634299746
v -0.43690974318400055 0.033408561501099998 0.12220681042099724
v -0.43476109011100128 0 0.12131680634299746
v -0.43476109011100128 0.033408561501099998 0.12131680634299746
v -0.43690974318400055 0 0.12220681042099724
v -0.43875486091400084 0.033408561501099998 0.12362259101599715
v -0.43690974318400055 0 0.12220681042099724
v -0.43690974318400055 0.033408561501099998 0.12220681042099724
v -0.43875486091400084 0 0.12362259101599715
v -0.43690974318400055 0 0.12220681042099724
v -0.43014944652200082 0 0.12131680634299746
v -0.43476109011100128 0 0.12131680634299746
v -0.43245526831600056 0 0.12101323388099727
v -0.43690974318400055 0.033408561501099998 0.13763755680799727
v -0.43875486091400084 0 0.13622177621199727
v -0.43875486091400084 0.033408561501099998 0.13622177621199727
v -0.43690974318400055 0 0.13763755680799727
v -0.43476109011100128 0.033408561501099998 0.1385275608849974
v -0.43690974318400055 0 0.13763755680799727
v -0.43690974318400055 0.033408561501099998 0.13763755680799727
v -0.43476109011100128 0 0.1385275608849974
vt -3.4362399578094482 3.5433099269866943
vt -3.1895699501037598 0
vt -3.1895699501037598 3.5433099269866943
vt -3.4362399578094482 0
vt -3.9812901020050049 3.5433099269866943
vt -3.7346301078796387 0
vt -3.7346301078796387 3.5433099269866943
vt -3.9812901020050049 0
vt -4.263430118560791 3.5433099269866943
vt -4.0167698860168457 0
vt -4.0167698860168457 3.5433099269866943
vt -4.263430118560791 0
vt -4.0167698860168457 3.5433099269866943
vt -4.263430118560791 0
vt -4.0167698860168457 0
vt -4.263430118560791 3.5433099269866943
vt -2.665410041809082 3.5433099269866943
vt -2.4187500476837158 0
vt -2.4187500476837158 3.5433099269866943
vt -2.665410041809082 0
vt -2.0400700569152832 3.1973099708557129
vt -2.0400700569152832 2.7081999778747559
vt -2.0078699588775635 2.9527599811553955
vt -2.1344599723815918 3.4251999855041504
vt -2.1344599723815918 2.4803099632263184
vt -2.2846200466156006 3.6208899021148682
vt -2.2846200466156006 2.2846200466156006
vt -2.4803099632263184 3.771049976348877
vt -2.4803099632263184 2.1344599723815918
vt -2.7081999778747559 3.8654398918151855
vt -3.7346301078796387 3.5433099269866943
vt -3.9812901020050049 0
vt -3.7346301078796387 0
vt -3.9812901020050049 3.5433099269866943
vt 0.42172300815582275 0
vt 0.66838699579238892 3.5433099269866943
vt 0.42172300815582275 3.5433099269866943
vt 0.66838699579238892 0
vt 1.4746899604797363 0
vt 1.7213499546051025 3.5433099269866943
vt 1.4746899604797363 3.5433099269866943
vt 1.7213499546051025 0
vt -2.7081999778747559 2.0400700569152832
vt -2.9527599811553955 3.8976399898529053
vt -3.1895699501037598 3.5433099269866943
vt -3.4362399578094482 0
vt -3.1895699501037598 0
vt -3.4362399578094482 3.5433099269866943
vt -2.665410041809082 0
vt -2.4187500476837158 3.5433099269866943
vt -2.665410041809082 3.5433099269866943
vt -2.4187500476837158 0
vt -2.9527599811553955 2.0078699588775635
vt -3.1973099708557129 3.8654398918151855
vt 2.665410041809082 3.5433099269866943
vt 2.4187500476837158 0
vt 2.665410041809082 0
vt 2.4187500476837158 3.5433099269866943
vt 3.1895699501037598 0
vt 3.4362399578094482 3.5433099269866943
vt 3.1895699501037598 3.5433099269866943
vt 3.4362399578094482 0
vt -3.1973099708557129 2.0400700569152832
vt -3.4251999855041504 3.771049976348877
vt -1.4746899604797363 3.5433099269866943
vt -1.7213499546051025 0
vt -1.4746899604797363 0
vt -1.7213499546051025 3.5433099269866943
vt -0.66838699579238892 0
vt -0.42172300815582275 3.5433099269866943
vt -0.66838699579238892 3.5433099269866943
vt -0.42172300815582275 0
vt -3.4251999855041504 2.1344599723815918
vt -3.6208899021148682 3.6208899021148682
vt 3.9812901020050049 3.5433099269866943
vt 3.7346301078796387 0
vt 3.9812901020050049 0
vt 3.7346301078796387 3.5433099269866943
vt 4.0167698860168457 0
vt 4.263430118560791 3.5433099269866943
vt 4.0167698860168457 3.5433099269866943
vt 4.263430118560791 0
vt -3.6208899021148682 2.2846200466156006
vt -3.771049976348877 3.4251999855041504
vt 0.66838699579238892 0
vt 0.42172300815582275 3.5433099269866943
vt 0.42172300815582275 0
vt 0.66838699579238892 3.5433099269866943
vt 1.4746899604797363 3.5433099269866943
vt 1.7213499546051025 0
vt 1.7213499546051025 3.5433099269866943
vt 1.4746899604797363 0
vt 2.4187500476837158 3.5433099269866943
vt 2.665410041809082 0
vt 2.665410041809082 3.5433099269866943
vt 2.4187500476837158 0
vt 3.1895699501037598 3.5433099269866943
vt 3.4362399578094482 0
vt 3.4362399578094482 3.5433099269866943
vt 3.1895699501037598 0
vt 3.7346301078796387 3.5433099269866943
vt 3.9812901020050049 0
vt 3.9812901020050049 3.5433099269866943
vt 3.7346301078796387 0
vt 4.0167698860168457 3.5433099269866943
vt 4.263430118560791 0
vt 4.263430118560791 3.5433099269866943
vt 4.0167698860168457 0
vt -3.771049976348877 2.4803099632263184
vt -3.8654398918151855 3.1973099708557129
vt -3.8654398918151855 2.7081999778747559
vt -3.8976399898529053 2.9527599811553955
vt -0.66838699579238892 3.5433099269866943
vt -0.42172300815582275 0
vt -0.42172300815582275 3.5433099269866943
vt -0.66838699579238892 0
vt -1.7213499546051025 3.5433099269866943
vt -1.4746899604797363 0
vt -1.4746899604797363 3.5433099269866943
vt -1.7213499546051025 0
vn 0.13052842020988464 0 0.99144458770751953
vn 0.13052842020988464 0 0.99144458770751953
vn 0.13052842020988464 0 0.99144458770751953
vn 0.13052842020988464 0 0.99144458770751953
vn 0.38268446922302246 0 0.92387908697128296
vn 0.38268446922302246 0 0.92387908697128296
vn 0.38268446922302246 0 0.92387908697128296
vn 0.38268446922302246 0 0.92387908697128296
vn 0.60875385999679565 0 0.79335916042327881
vn 0.60875385999679565 0 0.79335916042327881
vn 0.60875385999679565 0 0.79335916042327881
vn 0.60875385999679565 0 0.79335916042327881
vn 0.79335916042327881 0 0.60875385999679565
vn 0.79335916042327881 0 0.60875385999679565
vn 0.79335916042327881 0 0.60875385999679565
vn 0.79335916042327881 0 0.60875385999679565
vn -0.13052842020988464 0 0.99144458770751953
vn -0.13052842020988464 0 0.99144458770751953
vn -0.13052842020988464 0 0.99144458770751953
vn -0.13052842020988464 0 0.99144458770751953
vn 0 -1 0
vn 0 -1 0
vn 0 -1 0
vn 0 -1 0
vn 0 -1 0
vn 0 -1 0
vn 0 -1 0
vn 0 -1 0
vn 0 -1 0
vn 0 -1 0
vn 0.92387908697128296 0 0.38268446922302246
vn 0.92387908697128296 0 0.38268446922302246
vn 0.92387908697128296 0 0.38268446922302246
vn 0.92387908697128296 0 0.38268446922302246
vn -0.79335916042327881 0 0.60875385999679565
vn -0.79335916042327881 0 0.60875385999679565
vn -0.79335916042327881 0 0.60875385999679565
vn -0.79335916042327881 0 0.60875385999679565
vn -0.92387908697128296 0 0.38268446922302246
vn -0.92387908697128296 0 0.38268446922302246
vn -0.92387908697128296 0 0.38268446922302246
vn -0.92387908697128296 0 0.38268446922302246
vn 0 -1 0
vn 0 -1 0
vn 0.99144458770751953 0 0.13052842020988464
vn 0.99144458770751953 0 0.13052842020988464
vn 0.99144458770751953 0 0.13052842020988464
vn 0.99144458770751953 0 0.13052842020988464
vn 0.99144458770751953 0 -0.13052842020988464
vn 0.99144458770751953 0 -0.13052842020988464
vn 0.99144458770751953 0 -0.13052842020988464
vn 0.99144458770751953 0 -0.13052842020988464
vn 0 -1 0
vn 0 -1 0
vn -0.99144458770751953 0 0.13052842020988464
vn -0.99144458770751953 0 0.13052842020988464
vn -0.99144458770751953 0 0.13052842020988464
vn -0.99144458770751953 0 0.13052842020988464
vn -0.99144458770751953 0 -0.13052842020988464
vn -0.99144458770751953 0 -0.13052842020988464
vn -0.99144458770751953 0 -0.13052842020988464
vn -0.99144458770751953 0 -0.13052842020988464
vn 0 -1 0
vn 0 -1 0
vn 0.92387908697128296 0 -0.38268446922302246
vn 0.92387908697128296 0 -0.38268446922302246
vn 0.92387908697128296 0 -0.38268446922302246
vn 0.92387908697128296 0 -0.38268446922302246
vn 0.79335916042327881 0 -0.60875385999679565
vn 0.79335916042327881 0 -0.60875385999679565
vn 0.79335916042327881 0 -0.60875385999679565
vn 0.79335916042327881 0 -0.60875385999679565
vn 0 -1 0
vn 0 -1 0
vn -0.92387908697128296 0 -0.38268446922302246
vn -0.92387908697128296 0 -0.38268446922302246
vn -0.92387908697128296 0 -0.38268446922302246
vn -0.92387908697128296 0 -0.38268446922302246
vn -0.79335916042327881 0 -0.60875385999679565
vn -0.79335916042327881 0 -0.60875385999679565
vn -0.79335916042327881 0 -0.60875385999679565
vn -0.79335916042327881 0 -0.60875385999679565
vn 0 -1 0
vn 0 -1 0
vn 0.60875385999679565 0 -0.79335916042327881
vn 0.60875385999679565 0 -0.79335916042327881
vn 0.60875385999679565 0 -0.79335916042327881
vn 0.60875385999679565 0 -0.79335916042327881
vn 0.38268446922302246 0 -0.92387908697128296
vn 0.38268446922302246 0 -0.92387908697128296
vn 0.38268446922302246 0 -0.92387908697128296
vn 0.38268446922302246 0 -0.92387908697128296
vn 0.13052842020988464 0 -0.99144458770751953
vn 0.13052842020988464 0 -0.99144458770751953
vn 0.13052842020988464 0 -0.99144458770751953
vn 0.13052842020988464 0 -0.99144458770751953
vn -0.13052842020988464 0 -0.99144458770751953
vn -0.13052842020988464 0 -0.99144458770751953
vn -0.13052842020988464 0 -0.99144458770751953
vn -0.13052842020988464 0 -0.99144458770751953
vn -0.38268446922302246 0 -0.92387908697128296
vn -0.38268446922302246 0 -0.92387908697128296
vn -0.38268446922302246 0 -0.92387908697128296
vn -0.38268446922302246 0 -0.92387908697128296
vn -0.60875385999679565 0 -0.79335916042327881
vn -0.60875385999679565 0 -0.79335916042327881
vn -0.60875385999679565 0 -0.79335916042327881
vn -0.60875385999679565 0 -0.79335916042327881
vn 0 -1 0
vn 0 -1 0
vn 0 -1 0
vn 0 -1 0
vn -0.60875385999679565 0 0.79335916042327881
vn -0.60875385999679565 0 0.79335916042327881
vn -0.60875385999679565 0 0.79335916042327881
vn -0.60875385999679565 0 0.79335916042327881
vn -0.38268446922302246 0 0.92387908697128296
vn -0.38268446922302246 0 0.92387908697128296
vn -0.38268446922302246 0 0.92387908697128296
vn -0.38268446922302246 0 0.92387908697128296
f 1/1/1 3/3/3 2/2/2
f 2/2/2 4/4/4 1/1/1
f 5/5/5 7/7/7 6/6/6
f 6/6/6 8/8/8 5/5/5
f 9/9/9 11/11/11 10/10/10
f 10/10/10 12/12/12 9/9/9
f 13/13/13 15/15/15 14/14/14
f 14/14/14 16/16/16 13/13/13
f 17/17/17 19/19/19 18/18/18
f 18/18/18 20/20/20 17/17/17
f 21/21/21 23/23/23 22/22/22
f 22/22/22 24/24/24 21/21/21
f 22/22/22 25/25/25 24/24/24
f 25/25/25 26/26/26 24/24/24
f 25/25/25 27/27/27 26/26/26
f 27/27/27 28/28/28 26/26/26
f 27/27/27 29/29/29 28/28/28
f 29/29/29 30/30/30 28/28/28
f 31/31/31 33/33/33 32/32/32
f 32/32/32 34/34/34 31/31/31
f 35/35/35 37/37/37 36/36/36
f 36/36/36 38/38/38 35/35/35
f 39/39/39 41/41/41 40/40/40
f 40/40/40 42/42/42 39/39/39
f 29/29/29 43/43/43 30/30/30
f 43/43/43 44/44/44 30/30/30
f 45/45/45 47/47/47 46/46/46
f 46/46/46 48/48/48 45/45/45
f 49/49/49 51/51/51 50/50/50
f 50/50/50 52/52/52 49/49/49
f 53/53/53 54/54/54 44/44/44
f 43/43/43 53/53/53 44/44/44
f 55/55/55 57/57/57 56/56/56
f 56/56/56 58/58/58 55/55/55
f 59/59/59 61/61/61 60/60/60
f 60/60/60 62/62/62 59/59/59
f 53/53/53 63/63/63 54/54/54
f 63/63/63 64/64/64 54/54/54
f 65/65/65 67/67/67 66/66/66
f 66/66/66 68/68/68 65/65/65
f 69/69/69 71/71/71 70/70/70
f 70/70/70 72/72/72 69/69/69
f 73/73/73 74/74/74 64/64/64
f 63/63/63 73/73/73 64/64/64
f 75/75/75 77/77/77 76/76/76
f 76/76/76 78/78/78 75/75/75
f 79/79/79 81/81/81 80/80/80
f 80/80/80 82/82/82 79/79/79
f 73/73/73 83/83/83 74/74/74
f 83/83/83 84/84/84 74/74/74
f 85/85/85 87/87/87 86/86/86
f 86/86/86 88/88/88 85/85/85
f 89/89/89 91/91/91 90/90/90
f 90/90/90 92/92/92 89/89/89
f 93/93/93 95/95/95 94/94/94
f 94/94/94 96/96/96 93/93/93
f 97/97/97 99/99/99 98/98/98
f 98/98/98 100/100/100 97/97/97
f 101/101/101 103/103/103 102/102/102
f 102/102/102 104/104/104 101/101/101
f 105/105/105 107/107/107 106/106/106
f 106/106/106 108/108/108 105/105/105
f 83/83/83 109/109/109 84/84/84
f 109/109/109 110/110/110 84/84/84
f 109/109/109 111/111/111 110/110/110
f 111/111/111 112/112/112 110/110/110
f 113/113/113 115/115/115 114/114/114
f 114/114/114 116/116/116 113/113/113
f 117/117/117 119/119/119 118/118/118
f 118/118/118 120/120/120 117/117/117
