# Rhino

mtllib Sofa_01_02.mtl
usemtl Default
v -0.11606668193230618 0.11384116542545857 0.080040987892574189
v -0.15566039681756005 0.22768233085030587 0.11963470277756028
v 0.026935256115283135 0.11384116542572532 0.22304292594058706
v -0.14414733078631015 0.11384116542545868 0.1081216367465706
v -0.18374104567156402 0.22768233085030584 0.14771535163155625
v -0.0011453927387206075 0.11384116542572538 0.25112357479458325
v 0.028080648854091894 0.22768233085039771 0.30337574844908832
v 0 0.22768233085039774 0.33145639730308452
v -0.14414733078631015 0.11384116542545868 0.1081216367465706
v -0.18374104567156402 0.22768233085030584 0.14771535163155625
v -0.15566039681756005 0.22768233085030587 0.11963470277756028
v -0.11606668193230618 0.11384116542545857 0.080040987892574189
v -0.0011453927387206075 0.11384116542572538 0.25112357479458325
v -0.14414733078631015 0.11384116542545868 0.1081216367465706
v -0.11606668193230618 0.11384116542545857 0.080040987892574189
v 0.026935256115283135 0.11384116542572532 0.22304292594058706
v -0.18374104567156402 0.22768233085030584 0.14771535163155625
v 0 0.22768233085039774 0.33145639730308452
v 0.028080648854091894 0.22768233085039771 0.30337574844908832
v -0.15566039681756005 0.22768233085030587 0.11963470277756028
v 0 0.22768233085039774 0.33145639730308452
v -0.0011453927387206075 0.11384116542572538 0.25112357479458325
v 0.026935256115283135 0.11384116542572532 0.22304292594058706
v 0.028080648854091894 0.22768233085039771 0.30337574844908832
vt 0.83333331346511841 0.1666666716337204
vt 0.83333331346511841 0.66666668653488159
vt 0.3333333432674408 0.1666666716337204
vt 1 0
vt 1 1
vt 0 0
vt 0.1666666716337204 0.83333331346511841
vt 0 1
vt 1 0
vt 1 1
vt 0.83333331346511841 0.66666668653488159
vt 0.83333331346511841 0.1666666716337204
vt 0 0
vt 1 0
vt 0.83333331346511841 0.1666666716337204
vt 0.3333333432674408 0.1666666716337204
vt 1 1
vt 0 1
vt 0.1666666716337204 0.83333331346511841
vt 0.83333331346511841 0.66666668653488159
vt 0 1
vt 0 0
vt 0.3333333432674408 0.1666666716337204
vt 0.1666666716337204 0.83333331346511841
vn 0.63450789451599121 0.44136098027229309 -0.63450789451599121
vn 0.63450789451599121 0.44136098027229309 -0.63450789451599121
vn 0.63450789451599121 0.44136098027229309 -0.63450789451599121
vn -0.63450789451599121 -0.44136098027229309 0.63450789451599121
vn -0.63450789451599121 -0.44136098027229309 0.63450789451599121
vn -0.63450789451599121 -0.44136098027229309 0.63450789451599121
vn 0.63450789451599121 0.44136098027229309 -0.63450789451599121
vn -0.63450789451599121 -0.44136098027229309 0.63450789451599121
vn -0.70710676908493042 0 -0.70710676908493042
vn -0.70710676908493042 0 -0.70710676908493042
vn -0.70710676908493042 0 -0.70710676908493042
vn -0.70710676908493042 0 -0.70710676908493042
vn 0 -1 0
vn 0 -1 0
vn 0 -1 0
vn 0 -1 0
vn 0 1 0
vn 0 1 0
vn 0 1 0
vn 0 1 0
vn 0.63091135025024414 -0.45155483484268188 0.63091135025024414
vn 0.63091135025024414 -0.45155483484268188 0.63091135025024414
vn 0.63091135025024414 -0.45155483484268188 0.63091135025024414
vn 0.63091135025024414 -0.45155483484268188 0.63091135025024414
f 1/1/1 2/2/2 3/3/3
f 4/4/4 6/6/6 5/5/5
f 7/7/7 3/3/3 2/2/2
f 8/8/8 5/5/5 6/6/6
f 9/9/9 10/10/10 11/11/11 12/12/12
f 13/13/13 14/14/14 15/15/15 16/16/16
f 17/17/17 18/18/18 19/19/19 20/20/20
f 21/21/21 22/22/22 23/23/23 24/24/24
