# Rhino

mtllib Sofa_09_10.mtl
usemtl Default
v 0.41668380819699991 0 0.17636412831199966
v 0.41668380819699991 0.0077522674290000093 0.13760288962200029
v 0.41668380819699991 0 0.13760288962200029
v 0.41668380819699991 0.0077522674290000093 0.17636412831199966
v 0.41668380819699991 0 0.17636412831199966
v 0.37792256950600001 0.0077522674290000093 0.17636412831199966
v 0.41668380819699991 0.0077522674290000093 0.17636412831199966
v 0.37792256950600001 0 0.17636412831199966
v 0.41668380819699991 0 0.17636412831199966
v 0.37792256950600001 0 0.13760288962200029
v 0.37792256950600001 0 0.17636412831199966
v 0.41668380819699991 0 0.13760288962200029
v 0.41668380819699991 0.0077522674290000093 0.13760288962200029
v 0.37792256950600001 0 0.13760288962200029
v 0.41668380819699991 0 0.13760288962200029
v 0.37792256950600001 0.0077522674290000093 0.13760288962200029
v 0.37792256950600001 0.0077522674290000093 0.17636412831199966
v 0.37792256950600001 0 0.13760288962200029
v 0.37792256950600001 0.0077522674290000093 0.13760288962200029
v 0.37792256950600001 0 0.17636412831199966
v 0.41668380819699991 0.0077522674290000093 0.17636412831199966
v 0.41668380819699991 0.0077522674290000093 0.13760288962200029
v 0.39730318885149973 0.0077522674290000093 0.15698350896700042
v 0.37792256950600001 0.0077522674290000093 0.17636412831199966
v 0.37792256950600001 0.0077522674290000093 0.13760288962200029
vt 35.826801300048828 0
vt 31.889799118041992 0.78740197420120239
vt 31.889799118041992 0
vt 35.826801300048828 0.78740197420120239
vt -87.598396301269531 0
vt -83.661399841308594 0.78740197420120239
vt -87.598396301269531 0.78740197420120239
vt -83.661399841308594 0
vt -87.598396301269531 35.826801300048828
vt -83.661399841308594 31.889799118041992
vt -83.661399841308594 35.826801300048828
vt -87.598396301269531 31.889799118041992
vt 87.598396301269531 0.78740197420120239
vt 83.661399841308594 0
vt 87.598396301269531 0
vt 83.661399841308594 0.78740197420120239
vt -35.826801300048828 0.78740197420120239
vt -31.889799118041992 0
vt -31.889799118041992 0.78740197420120239
vt -35.826801300048828 0
vt 0 0
vt 0 1
vt 0.5 0.5
vt 1 0
vt 1 1
vn 1 0 0
vn 1 0 0
vn 1 0 0
vn 1 0 0
vn 0 0 1
vn 0 0 1
vn 0 0 1
vn 0 0 1
vn 0 -1 0
vn 0 -1 0
vn 0 -1 0
vn 0 -1 0
vn 0 0 -1
vn 0 0 -1
vn 0 0 -1
vn 0 0 -1
vn -1 0 0
vn -1 0 0
vn -1 0 0
vn -1 0 0
vn 0 1 0
vn 0 1 0
vn 0 1 0
vn 0 1 0
vn 0 1 0
f 1/1/1 3/3/3 2/2/2
f 2/2/2 4/4/4 1/1/1
f 5/5/5 7/7/7 6/6/6
f 6/6/6 8/8/8 5/5/5
f 9/9/9 11/11/11 10/10/10
f 10/10/10 12/12/12 9/9/9
f 13/13/13 15/15/15 14/14/14
f 14/14/14 16/16/16 13/13/13
f 17/17/17 19/19/19 18/18/18
f 18/18/18 20/20/20 17/17/17
f 23/23/23 21/21/21 22/22/22
f 25/25/25 24/24/24 23/23/23
f 21/21/21 23/23/23 24/24/24
f 22/22/22 25/25/25 23/23/23
