# Rhino

mtllib Sofa_01_11.mtl
usemtl Default
v -0.13104302798900003 0.074129130974699989 -0.16706872202699996
v 0 0.074129130974699989 -0.036025694039399925
v -0.24710970992000003 0.074129130974699989 -0.051002040095299961
v -0.13104302798900003 0.113841165425 -0.16706872202699996
v 0 0.113841165425 -0.036025694039399925
v -0.24710970992000003 0.113841165425 -0.051002040095299961
v -0.11606668193199998 0.074129130974699989 0.080040987892500026
v -0.11606668193199998 0.113841165425 0.080040987892500026
v -0.13104302798900003 0.113841165425 -0.16706872202699996
v 0 0.113841165425 -0.036025694039399925
v 0 0.074129130974699989 -0.036025694039399925
v -0.13104302798900003 0.074129130974699989 -0.16706872202699996
v -0.24710970992000003 0.113841165425 -0.051002040095299961
v -0.13104302798900003 0.113841165425 -0.16706872202699996
v -0.13104302798900003 0.074129130974699989 -0.16706872202699996
v -0.24710970992000003 0.074129130974699989 -0.051002040095299961
v 0 0.113841165425 -0.036025694039399925
v -0.11606668193199998 0.113841165425 0.080040987892500026
v -0.11606668193199998 0.074129130974699989 0.080040987892500026
v 0 0.074129130974699989 -0.036025694039399925
v -0.11606668193199998 0.113841165425 0.080040987892500026
v -0.24710970992000003 0.113841165425 -0.051002040095299961
v -0.24710970992000003 0.074129130974699989 -0.051002040095299961
v -0.11606668193199998 0.074129130974699989 0.080040987892500026
vt 41.207366943359375 4.0682334899902344
vt 54.986869812011719 4.0682334899902344
vt 41.207366943359375 16.272933959960938
vt 36.614200592041016 0
vt 64.173202514648438 0
vt 36.614200592041016 24.409400939941406
vt 59.580036163330078 20.341167449951172
vt 64.173202514648438 24.409400939941406
vt 36.614200592041016 0
vt 64.173202514648438 0
vt 54.986869812011719 4.0682334899902344
vt 41.207366943359375 4.0682334899902344
vt 36.614200592041016 24.409400939941406
vt 36.614200592041016 0
vt 41.207366943359375 4.0682334899902344
vt 41.207366943359375 16.272933959960938
vt 64.173202514648438 0
vt 64.173202514648438 24.409400939941406
vt 59.580036163330078 20.341167449951172
vt 54.986869812011719 4.0682334899902344
vt 64.173202514648438 24.409400939941406
vt 36.614200592041016 24.409400939941406
vt 41.207366943359375 16.272933959960938
vt 59.580036163330078 20.341167449951172
vn 0 -1 0
vn 0 -1 0
vn 0 -1 0
vn 0 1 0
vn 0 1 0
vn 0 1 0
vn 0 -1 0
vn 0 1 0
vn 0.70710676908493042 0 -0.70710676908493042
vn 0.70710676908493042 0 -0.70710676908493042
vn 0.70710676908493042 0 -0.70710676908493042
vn 0.70710676908493042 0 -0.70710676908493042
vn -0.70710676908493042 0 -0.70710676908493042
vn -0.70710676908493042 0 -0.70710676908493042
vn -0.70710676908493042 0 -0.70710676908493042
vn -0.70710676908493042 0 -0.70710676908493042
vn 0.70710676908493042 0 0.70710676908493042
vn 0.70710676908493042 0 0.70710676908493042
vn 0.70710676908493042 0 0.70710676908493042
vn 0.70710676908493042 0 0.70710676908493042
vn -0.70710676908493042 0 0.70710676908493042
vn -0.70710676908493042 0 0.70710676908493042
vn -0.70710676908493042 0 0.70710676908493042
vn -0.70710676908493042 0 0.70710676908493042
f 1/1/1 2/2/2 3/3/3
f 4/4/4 6/6/6 5/5/5
f 7/7/7 3/3/3 2/2/2
f 8/8/8 5/5/5 6/6/6
f 9/9/9 10/10/10 11/11/11 12/12/12
f 13/13/13 14/14/14 15/15/15 16/16/16
f 17/17/17 18/18/18 19/19/19 20/20/20
f 21/21/21 22/22/22 23/23/23 24/24/24
