# Rhino

mtllib Sofa_08_11.mtl
usemtl Default
v 0.3198111570028761 0.17330837865650001 -0.20295649922989245
v 0.31979872830574996 0.1263232084982 -0.2020720589344176
v 0.31979872830574996 0.173248576682 -0.2020720589344176
v 0.31985491969289104 0.12659062487459999 -0.20607070227899982
v 0.31985491969289104 0.12659062487459999 -0.20607070227899982
v 0.31979872830574996 0.1240969953736 -0.2020720589344176
v 0.31979872830574996 0.1263232084982 -0.2020720589344176
v 0.31985699573495907 0.12437456680220001 -0.20621843580581256
v 0.31979872830574996 0.1240969953736 -0.2020720589344176
v 0.31985699573495907 0.12437456680220001 -0.20621843580581256
v 0.31979879743156925 0.1196456974635 -0.20207697800674218
vt 0.032035399228334427 1.5605299472808838
vt 0.039999999105930328 1.137470006942749
vt 0.039999999105930328 1.559999942779541
vt 0.0039911400526762009 1.1398700475692749
vt 0.0039911400526762009 1.1398700475692749
vt 0.039999999105930328 1.117419958114624
vt 0.039999999105930328 1.137470006942749
vt 0.0026607599575072527 1.1199100017547607
vt 0.039999999105930328 1.117419958114624
vt 0.0026607599575072527 1.1199100017547607
vt 0.039955701678991318 1.0773400068283081
vn 0.99990129470825195 0 0.01405122596770525
vn 0.99990129470825195 0 0.01405122596770525
vn 0.99990129470825195 0 0.01405122596770525
vn 0.99990129470825195 0 0.01405122596770525
vn 0.99990129470825195 0 0.01405122596770525
vn 0.99990129470825195 0 0.01405122596770525
vn 0.99990129470825195 0 0.01405122596770525
vn 0.99990129470825195 0 0.01405122596770525
vn 0.99990129470825195 0 0.01405122596770525
vn 0.99990129470825195 0 0.01405122596770525
vn 0.99990129470825195 0 0.01405122596770525
f 3/3/3 2/2/2 1/1/1
f 4/4/4 1/1/1 2/2/2
f 7/7/7 6/6/6 5/5/5
f 8/8/8 5/5/5 6/6/6
f 10/10/10 9/9/9 11/11/11
