# Rhino

mtllib Sofa_01_04.mtl
usemtl Default
v 0.42308177607370401 0.01588481377425676 -0.13711602991753602
v 0.42308177607398201 0.055596848224956773 -0.13711602991725802
v 0.44461027352862592 0.01588481377425676 -0.15864452737261447
v 0.26583014248830761 0.015884813780499996 -0.2943676635021395
v 0.26583014248858561 0.055596848231200001 -0.2943676635018615
v 0.2873586399432293 0.015884813780499996 -0.31589616095721773
v 0.4230817760741119 0.074129130968456775 -0.13711602991712835
v 0.44461027352920945 0.09928008612035677 -0.1586445273720305
v 0.26583014248871528 0.074129130974700003 -0.29436766350173182
v 0.28735863994381328 0.099280086126599998 -0.31589616095663398
v 0.42308177607450093 0.12972597919895681 -0.1371160299167391
v 0.46325395232542466 0.11450303265959577 -0.17728820616881547
v 0.4230817760743899 0.11384116541875677 -0.13711602991685012
v 0.26583014248910453 0.12972597920520001 -0.2943676635013428
v 0.30600231874002826 0.114503032665839 -0.33453983975341872
v 0.26583014248899328 0.113841165425 -0.29436766350145382
v 0.45983372929539312 0.10819755582956678 -0.17386798313884699
v 0.3025820957099965 0.10819755583581001 -0.33111961672345047
v 0.45537452225719921 0.10335904155215678 -0.1694087761000409
v 0.29812288867180259 0.10335904155840001 -0.32666040968464438
v 0.45018147426237309 0.10031762920705678 -0.16421572810586693
v 0.29292984067697647 0.10031762921330001 -0.32146736169047063
v 0.46540493002746852 0.12184605257639677 -0.17943918387077185
v 0.30815329644207212 0.12184605258264 -0.33669081745537555
v 0.46613877098452083 0.12972597919895681 -0.18017302482771935
v 0.30888713739912443 0.12972597920520001 -0.33742465841232261
v 0.4238156170307299 0.13760590582145679 -0.13784987087351031
v 0.26656398344533327 0.13760590582769999 -0.29510150445811401
v 0.46325395232563782 0.14494892573815679 -0.1772882061686023
v 0.46540493002757888 0.13760590582145679 -0.17943918387066149
v 0.42596659473294984 0.14494892573815679 -0.14000084857629025
v 0.30600231874024142 0.14494892574439999 -0.33453983975320556
v 0.30815329644218226 0.13760590582769999 -0.33669081745526497
v 0.26871496114755322 0.14494892574439999 -0.29725248216089373
v 0.42938681776380516 0.15125440256825681 -0.1434210716064348
v 0.27213518417840876 0.15125440257450001 -0.3006727051910385
v 0.43384602480182277 0.15609291684565682 -0.14788027864441733
v 0.45983372929569444 0.15125440256825681 -0.17386798313854568
v 0.27659439121642637 0.15609291685189999 -0.30513191222902081
v 0.30258209571029804 0.15125440257450001 -0.33111961672314894
v 0.45537452225756825 0.15609291684565682 -0.16940877609967187
v 0.29812288867217185 0.15609291685189999 -0.32666040968427512
v 0.43903907279682519 0.15913432919075679 -0.15307332663941486
v 0.28178743921142879 0.15913432919699999 -0.31032496022401834
v 0.45018147426278476 0.15913432919075679 -0.16421572810545526
v 0.29292984067738814 0.15913432919699999 -0.32146736169005874
v 0.44461027352963578 0.1601718722774568 -0.15864452737160417
v 0.2873586399442396 0.1601718722837 -0.31589616095620765
v 0.26583014248830761 0.015884813780499996 -0.2943676635021395
v 0.26583014248858561 0.055596848231200001 -0.2943676635018615
v 0.42308177607398201 0.055596848224956773 -0.13711602991725802
v 0.42308177607370401 0.01588481377425676 -0.13711602991753602
v 0.2873586399432293 0.015884813780499996 -0.31589616095721773
v 0.26583014248830761 0.015884813780499996 -0.2943676635021395
v 0.42308177607370401 0.01588481377425676 -0.13711602991753602
v 0.44461027352862592 0.01588481377425676 -0.15864452737261447
v 0.26583014248871528 0.074129130974700003 -0.29436766350173182
v 0.26583014248858561 0.055596848231200001 -0.2943676635018615
v 0.42308177607398201 0.055596848224956773 -0.13711602991725802
v 0.4230817760741119 0.074129130968456775 -0.13711602991712835
v 0.28735863994381328 0.099280086126599998 -0.31589616095663398
v 0.2873586399432293 0.015884813780499996 -0.31589616095721773
v 0.44461027352862592 0.01588481377425676 -0.15864452737261447
v 0.44461027352920945 0.09928008612035677 -0.1586445273720305
v 0.26583014248899328 0.113841165425 -0.29436766350145382
v 0.26583014248871528 0.074129130974700003 -0.29436766350173182
v 0.4230817760741119 0.074129130968456775 -0.13711602991712835
v 0.4230817760743899 0.11384116541875677 -0.13711602991685012
v 0.28735863994381328 0.099280086126599998 -0.31589616095663398
v 0.29292984067697647 0.10031762921330001 -0.32146736169047063
v 0.45018147426237309 0.10031762920705678 -0.16421572810586693
v 0.44461027352920945 0.09928008612035677 -0.1586445273720305
v 0.26583014248899328 0.113841165425 -0.29436766350145382
v 0.26583014248910453 0.12972597920520001 -0.2943676635013428
v 0.42308177607450093 0.12972597919895681 -0.1371160299167391
v 0.4230817760743899 0.11384116541875677 -0.13711602991685012
v 0.26583014248910453 0.12972597920520001 -0.2943676635013428
v 0.26656398344533327 0.13760590582769999 -0.29510150445811401
v 0.4238156170307299 0.13760590582145679 -0.13784987087351031
v 0.42308177607450093 0.12972597919895681 -0.1371160299167391
v 0.30600231874002826 0.114503032665839 -0.33453983975341872
v 0.3025820957099965 0.10819755583581001 -0.33111961672345047
v 0.45983372929539312 0.10819755582956678 -0.17386798313884699
v 0.46325395232542466 0.11450303265959577 -0.17728820616881547
v 0.30815329644207212 0.12184605258264 -0.33669081745537555
v 0.30600231874002826 0.114503032665839 -0.33453983975341872
v 0.46325395232542466 0.11450303265959577 -0.17728820616881547
v 0.46540493002746852 0.12184605257639677 -0.17943918387077185
v 0.3025820957099965 0.10819755583581001 -0.33111961672345047
v 0.29812288867180259 0.10335904155840001 -0.32666040968464438
v 0.45537452225719921 0.10335904155215678 -0.1694087761000409
v 0.45983372929539312 0.10819755582956678 -0.17386798313884699
v 0.29292984067697647 0.10031762921330001 -0.32146736169047063
v 0.29812288867180259 0.10335904155840001 -0.32666040968464438
v 0.45537452225719921 0.10335904155215678 -0.1694087761000409
v 0.45018147426237309 0.10031762920705678 -0.16421572810586693
v 0.30888713739912443 0.12972597920520001 -0.33742465841232261
v 0.30815329644207212 0.12184605258264 -0.33669081745537555
v 0.46540493002746852 0.12184605257639677 -0.17943918387077185
v 0.46613877098452083 0.12972597919895681 -0.18017302482771935
v 0.30815329644218226 0.13760590582769999 -0.33669081745526497
v 0.30888713739912443 0.12972597920520001 -0.33742465841232261
v 0.46613877098452083 0.12972597919895681 -0.18017302482771935
v 0.46540493002757888 0.13760590582145679 -0.17943918387066149
v 0.26656398344533327 0.13760590582769999 -0.29510150445811401
v 0.26871496114755322 0.14494892574439999 -0.29725248216089373
v 0.42596659473294984 0.14494892573815679 -0.14000084857629025
v 0.4238156170307299 0.13760590582145679 -0.13784987087351031
v 0.30600231874024142 0.14494892574439999 -0.33453983975320556
v 0.30815329644218226 0.13760590582769999 -0.33669081745526497
v 0.46540493002757888 0.13760590582145679 -0.17943918387066149
v 0.46325395232563782 0.14494892573815679 -0.1772882061686023
v 0.30258209571029804 0.15125440257450001 -0.33111961672314894
v 0.30600231874024142 0.14494892574439999 -0.33453983975320556
v 0.46325395232563782 0.14494892573815679 -0.1772882061686023
v 0.45983372929569444 0.15125440256825681 -0.17386798313854568
v 0.26871496114755322 0.14494892574439999 -0.29725248216089373
v 0.27213518417840876 0.15125440257450001 -0.3006727051910385
v 0.42938681776380516 0.15125440256825681 -0.1434210716064348
v 0.42596659473294984 0.14494892573815679 -0.14000084857629025
v 0.27213518417840876 0.15125440257450001 -0.3006727051910385
v 0.27659439121642637 0.15609291685189999 -0.30513191222902081
v 0.43384602480182277 0.15609291684565682 -0.14788027864441733
v 0.42938681776380516 0.15125440256825681 -0.1434210716064348
v 0.27659439121642637 0.15609291685189999 -0.30513191222902081
v 0.28178743921142879 0.15913432919699999 -0.31032496022401834
v 0.43903907279682519 0.15913432919075679 -0.15307332663941486
v 0.43384602480182277 0.15609291684565682 -0.14788027864441733
v 0.29812288867217185 0.15609291685189999 -0.32666040968427512
v 0.30258209571029804 0.15125440257450001 -0.33111961672314894
v 0.45983372929569444 0.15125440256825681 -0.17386798313854568
v 0.45537452225756825 0.15609291684565682 -0.16940877609967187
v 0.29292984067738814 0.15913432919699999 -0.32146736169005874
v 0.29812288867217185 0.15609291685189999 -0.32666040968427512
v 0.45537452225756825 0.15609291684565682 -0.16940877609967187
v 0.45018147426278476 0.15913432919075679 -0.16421572810545526
v 0.28178743921142879 0.15913432919699999 -0.31032496022401834
v 0.2873586399442396 0.1601718722837 -0.31589616095620765
v 0.44461027352963578 0.1601718722774568 -0.15864452737160417
v 0.43903907279682519 0.15913432919075679 -0.15307332663941486
v 0.2873586399442396 0.1601718722837 -0.31589616095620765
v 0.29292984067738814 0.15913432919699999 -0.32146736169005874
v 0.45018147426278476 0.15913432919075679 -0.16421572810545526
v 0.44461027352963578 0.1601718722774568 -0.15864452737160417
vt 8.3005275726318359 0.98425167798995972
vt 8.3005275726318359 3.9370067119598389
vt 6.0367469787597656 0.98425167798995972
vt 9.0551204681396484 0
vt 9.0551204681396484 5.9055099487304688
vt 4.5275602340698242 0
vt 8.3005275726318359 8.825465202331543
vt 6.0367469787597656 10.695554733276367
vt 9.0551204681396484 8.6614198684692383
vt 4.5275602340698242 12.401599884033203
vt 7.6470298767089844 16.158117294311523
vt 3.4227588176727295 15.026266098022461
vt 7.6470298767089844 14.977016448974609
vt 9.0551204681396484 16.929100036621094
vt 0.60657799243927002 14.665399551391602
vt 9.0551204681396484 14.566900253295898
vt 2.4943430423736572 14.023850440979004
vt 1.3260899782180786 13.727700233459473
vt 3.2393884658813477 13.387899398803711
vt 2.2637801170349121 13.008199691772461
vt 4.1236433982849121 12.966383934020996
vt 3.3557400703430176 12.555800437927246
vt 1.7131317853927612 15.77061653137207
vt 0.15427300333976746 15.75730037689209
vt 1.5348988771438599 16.733800888061523
vt 0 16.929100036621094
vt 7.443087100982666 17.710367202758789
vt 8.9008502960205078 18.10099983215332
vt 1.8381874561309814 19.010915756225586
vt 1.6120349168777466 18.4649658203125
vt 5.7591681480407715 19.010915756225586
vt 0.60657799243927002 19.192899703979492
vt 0.15427300333976746 18.10099983215332
vt 8.4485397338867188 19.192899703979492
vt 6.6618728637695312 19.818033218383789
vt 7.7290301322937012 20.130599975585938
vt 6.0367465019226074 20.610265731811523
vt 3.304121732711792 20.250516891479492
vt 6.7913398742675781 20.850099563598633
vt 1.3260899782180786 20.130599975585938
vt 2.8620917797088623 20.730182647705078
vt 2.2637801170349121 20.850099563598633
vt 5.3087730407714844 21.151634216308594
vt 5.6993799209594727 21.302400588989258
vt 3.5643534660339355 21.227016448974609
vt 3.3557400703430176 21.302400588989258
vt 4.5275602340698242 21.405265808105469
vt 4.5275602340698242 21.456699371337891
vt 9.0551204681396484 0
vt 9.0551204681396484 5.9055099487304688
vt 8.3005275726318359 3.9370067119598389
vt 8.3005275726318359 0.98425167798995972
vt 4.5275602340698242 0
vt 9.0551204681396484 0
vt 8.3005275726318359 0.98425167798995972
vt 6.0367469787597656 0.98425167798995972
vt 9.0551204681396484 8.6614198684692383
vt 9.0551204681396484 5.9055099487304688
vt 8.3005275726318359 3.9370067119598389
vt 8.3005275726318359 8.825465202331543
vt 4.5275602340698242 12.401599884033203
vt 4.5275602340698242 0
vt 6.0367469787597656 0.98425167798995972
vt 6.0367469787597656 10.695554733276367
vt 9.0551204681396484 14.566900253295898
vt 9.0551204681396484 8.6614198684692383
vt 8.3005275726318359 8.825465202331543
vt 7.6470298767089844 14.977016448974609
vt 4.5275602340698242 12.401599884033203
vt 3.3557400703430176 12.555800437927246
vt 4.1236433982849121 12.966383934020996
vt 6.0367469787597656 10.695554733276367
vt 9.0551204681396484 14.566900253295898
vt 9.0551204681396484 16.929100036621094
vt 7.6470298767089844 16.158117294311523
vt 7.6470298767089844 14.977016448974609
vt 9.0551204681396484 16.929100036621094
vt 8.9008502960205078 18.10099983215332
vt 7.443087100982666 17.710367202758789
vt 7.6470298767089844 16.158117294311523
vt 0.60657799243927002 14.665399551391602
vt 1.3260899782180786 13.727700233459473
vt 2.4943430423736572 14.023850440979004
vt 3.4227588176727295 15.026266098022461
vt 0.15427300333976746 15.75730037689209
vt 0.60657799243927002 14.665399551391602
vt 3.4227588176727295 15.026266098022461
vt 1.7131317853927612 15.77061653137207
vt 1.3260899782180786 13.727700233459473
vt 2.2637801170349121 13.008199691772461
vt 3.2393884658813477 13.387899398803711
vt 2.4943430423736572 14.023850440979004
vt 3.3557400703430176 12.555800437927246
vt 2.2637801170349121 13.008199691772461
vt 3.2393884658813477 13.387899398803711
vt 4.1236433982849121 12.966383934020996
vt 0 16.929100036621094
vt 0.15427300333976746 15.75730037689209
vt 1.7131317853927612 15.77061653137207
vt 1.5348988771438599 16.733800888061523
vt 0.15427300333976746 18.10099983215332
vt 0 16.929100036621094
vt 1.5348988771438599 16.733800888061523
vt 1.6120349168777466 18.4649658203125
vt 8.9008502960205078 18.10099983215332
vt 8.4485397338867188 19.192899703979492
vt 5.7591681480407715 19.010915756225586
vt 7.443087100982666 17.710367202758789
vt 0.60657799243927002 19.192899703979492
vt 0.15427300333976746 18.10099983215332
vt 1.6120349168777466 18.4649658203125
vt 1.8381874561309814 19.010915756225586
vt 1.3260899782180786 20.130599975585938
vt 0.60657799243927002 19.192899703979492
vt 1.8381874561309814 19.010915756225586
vt 3.304121732711792 20.250516891479492
vt 8.4485397338867188 19.192899703979492
vt 7.7290301322937012 20.130599975585938
vt 6.6618728637695312 19.818033218383789
vt 5.7591681480407715 19.010915756225586
vt 7.7290301322937012 20.130599975585938
vt 6.7913398742675781 20.850099563598633
vt 6.0367465019226074 20.610265731811523
vt 6.6618728637695312 19.818033218383789
vt 6.7913398742675781 20.850099563598633
vt 5.6993799209594727 21.302400588989258
vt 5.3087730407714844 21.151634216308594
vt 6.0367465019226074 20.610265731811523
vt 2.2637801170349121 20.850099563598633
vt 1.3260899782180786 20.130599975585938
vt 3.304121732711792 20.250516891479492
vt 2.8620917797088623 20.730182647705078
vt 3.3557400703430176 21.302400588989258
vt 2.2637801170349121 20.850099563598633
vt 2.8620917797088623 20.730182647705078
vt 3.5643534660339355 21.227016448974609
vt 5.6993799209594727 21.302400588989258
vt 4.5275602340698242 21.456699371337891
vt 4.5275602340698242 21.405265808105469
vt 5.3087730407714844 21.151634216308594
vt 4.5275602340698242 21.456699371337891
vt 3.3557400703430176 21.302400588989258
vt 3.5643534660339355 21.227016448974609
vt 4.5275602340698242 21.405265808105469
vn 0.70710676908493042 0 0.70710676908493042
vn -0.70710676908493042 0 -0.70710676908493042
vn 0.70710676908493042 0 0.70710676908493042
vn -0.70710676908493042 0 -0.70710676908493042
vn -0.70710676908493042 0 -0.70710676908493042
vn -0.70710676908493042 0 -0.70710676908493042
vn 0.70710676908493042 0 0.70710676908493042
vn 0.70710676908493042 0 0.70710676908493042
vn -0.70710676908493042 0 -0.70710676908493042
vn -0.70710676908493042 0 -0.70710676908493042
vn 0.70710676908493042 0 0.70710676908493042
vn 0.70710676908493042 0 0.70710676908493042
vn -0.70710670948028564 -0.0004044582019560039 -0.70710670948028564
vn -0.70710676908493042 0 -0.70710676908493042
vn -0.70710676908493042 0 -0.70710676908493042
vn -0.70710676908493042 0 -0.70710676908493042
vn 0.70710676908493042 0 0.70710676908493042
vn -0.70710676908493042 0 -0.70710676908493042
vn 0 -1 0
vn -0.70710676908493042 0 -0.70710676908493042
vn 0.70710676908493042 0 0.70710676908493042
vn -0.70710676908493042 0 -0.70710676908493042
vn 0.70710676908493042 0 0.70710676908493042
vn -0.70710676908493042 0 -0.70710676908493042
vn 0.70710676908493042 0 0.70710676908493042
vn -0.70710676908493042 0 -0.70710676908493042
vn 0.70710676908493042 0 0.70710676908493042
vn -0.70710676908493042 0 -0.70710676908493042
vn 0.70710676908493042 0 0.70710676908493042
vn 0.70710676908493042 0 0.70710676908493042
vn 0.70710676908493042 0 0.70710676908493042
vn -0.70710676908493042 0 -0.70710676908493042
vn -0.70710676908493042 0 -0.70710676908493042
vn -0.70710676908493042 0 -0.70710676908493042
vn 0.70710676908493042 0 0.70710676908493042
vn -0.70710676908493042 0 -0.70710676908493042
vn 0.70710676908493042 0 0.70710676908493042
vn 0.70710676908493042 0 0.70710676908493042
vn -0.70710676908493042 0 -0.70710676908493042
vn -0.70710676908493042 0 -0.70710676908493042
vn 0.70710676908493042 0 0.70710676908493042
vn -0.70710676908493042 0 -0.70710676908493042
vn 0.70710676908493042 0 0.70710676908493042
vn -0.70710676908493042 0 -0.70710676908493042
vn 0.70710676908493042 0 0.70710676908493042
vn -0.70710676908493042 0 -0.70710676908493042
vn 0.70710676908493042 -4.510138096325278E-10 0.70710676908493042
vn -0.70710676908493042 0 -0.70710676908493042
vn -0.70710676908493042 0 0.70710676908493042
vn -0.70710676908493042 0 0.70710676908493042
vn -0.70710676908493042 0 0.70710676908493042
vn -0.70710676908493042 0 0.70710676908493042
vn 0 -1 0
vn 0 -1 0
vn 0 -1 0
vn 0 -1 0
vn -0.70710676908493042 0 0.70710676908493042
vn -0.70710676908493042 0 0.70710676908493042
vn -0.70710676908493042 0 0.70710676908493042
vn -0.70710676908493042 0 0.70710676908493042
vn 0.70710676908493042 0 -0.70710676908493042
vn 0.70710676908493042 0 -0.70710676908493042
vn 0.70710676908493042 0 -0.70710676908493042
vn 0.70710676908493042 0 -0.70710676908493042
vn -0.70710676908493042 0 0.70710676908493042
vn -0.70710676908493042 0 0.70710676908493042
vn -0.70710676908493042 0 0.70710676908493042
vn -0.70710676908493042 0 0.70710676908493042
vn 0.092319615185260773 -0.99144047498703003 -0.092319615185260773
vn 0.092319615185260773 -0.99144047498703003 -0.092319615185260773
vn 0.092319615185260773 -0.99144047498703003 -0.092319615185260773
vn 0.092319615185260773 -0.99144047498703003 -0.092319615185260773
vn -0.70710676908493042 0 0.70710676908493042
vn -0.70710676908493042 0 0.70710676908493042
vn -0.70710676908493042 0 0.70710676908493042
vn -0.70710676908493042 0 0.70710676908493042
vn -0.70105284452438354 0.13057515025138855 0.70105284452438354
vn -0.70105284452438354 0.13057515025138855 0.70105284452438354
vn -0.70105284452438354 0.13057515025138855 0.70105284452438354
vn -0.70105284452438354 0.13057515025138855 0.70105284452438354
vn 0.5610472559928894 -0.60864764451980591 -0.5610472559928894
vn 0.5610472559928894 -0.60864764451980591 -0.5610472559928894
vn 0.5610472559928894 -0.60864764451980591 -0.5610472559928894
vn 0.5610472559928894 -0.60864764451980591 -0.5610472559928894
vn 0.65327006578445435 -0.38272246718406677 -0.65327006578445435
vn 0.65327006578445435 -0.38272246718406677 -0.65327006578445435
vn 0.65327006578445435 -0.38272246718406677 -0.65327006578445435
vn 0.65327006578445435 -0.38272246718406677 -0.65327006578445435
vn 0.4304337203502655 -0.79338115453720093 -0.4304337203502655
vn 0.4304337203502655 -0.79338115453720093 -0.4304337203502655
vn 0.4304337203502655 -0.79338115453720093 -0.4304337203502655
vn 0.4304337203502655 -0.79338115453720093 -0.4304337203502655
vn 0.2705521285533905 -0.92390644550323486 -0.2705521285533905
vn 0.2705521285533905 -0.92390644550323486 -0.2705521285533905
vn 0.2705521285533905 -0.92390644550323486 -0.2705521285533905
vn 0.2705521285533905 -0.92390644550323486 -0.2705521285533905
vn 0.70105284452438354 -0.13057515025138855 -0.70105284452438354
vn 0.70105284452438354 -0.13057515025138855 -0.70105284452438354
vn 0.70105284452438354 -0.13057515025138855 -0.70105284452438354
vn 0.70105284452438354 -0.13057515025138855 -0.70105284452438354
vn 0.70105284452438354 0.13057515025138855 -0.70105284452438354
vn 0.70105284452438354 0.13057515025138855 -0.70105284452438354
vn 0.70105284452438354 0.13057515025138855 -0.70105284452438354
vn 0.70105284452438354 0.13057515025138855 -0.70105284452438354
vn -0.65327006578445435 0.38272246718406677 0.65327006578445435
vn -0.65327006578445435 0.38272246718406677 0.65327006578445435
vn -0.65327006578445435 0.38272246718406677 0.65327006578445435
vn -0.65327006578445435 0.38272246718406677 0.65327006578445435
vn 0.65327006578445435 0.38272246718406677 -0.65327006578445435
vn 0.65327006578445435 0.38272246718406677 -0.65327006578445435
vn 0.65327006578445435 0.38272246718406677 -0.65327006578445435
vn 0.65327006578445435 0.38272246718406677 -0.65327006578445435
vn 0.5610472559928894 0.60864764451980591 -0.5610472559928894
vn 0.5610472559928894 0.60864764451980591 -0.5610472559928894
vn 0.5610472559928894 0.60864764451980591 -0.5610472559928894
vn 0.5610472559928894 0.60864764451980591 -0.5610472559928894
vn -0.5610472559928894 0.60864764451980591 0.5610472559928894
vn -0.5610472559928894 0.60864764451980591 0.5610472559928894
vn -0.5610472559928894 0.60864764451980591 0.5610472559928894
vn -0.5610472559928894 0.60864764451980591 0.5610472559928894
vn -0.4304337203502655 0.79338115453720093 0.4304337203502655
vn -0.4304337203502655 0.79338115453720093 0.4304337203502655
vn -0.4304337203502655 0.79338115453720093 0.4304337203502655
vn -0.4304337203502655 0.79338115453720093 0.4304337203502655
vn -0.2705521285533905 0.92390644550323486 0.2705521285533905
vn -0.2705521285533905 0.92390644550323486 0.2705521285533905
vn -0.2705521285533905 0.92390644550323486 0.2705521285533905
vn -0.2705521285533905 0.92390644550323486 0.2705521285533905
vn 0.4304337203502655 0.79338115453720093 -0.4304337203502655
vn 0.4304337203502655 0.79338115453720093 -0.4304337203502655
vn 0.4304337203502655 0.79338115453720093 -0.4304337203502655
vn 0.4304337203502655 0.79338115453720093 -0.4304337203502655
vn 0.2705521285533905 0.92390644550323486 -0.2705521285533905
vn 0.2705521285533905 0.92390644550323486 -0.2705521285533905
vn 0.2705521285533905 0.92390644550323486 -0.2705521285533905
vn 0.2705521285533905 0.92390644550323486 -0.2705521285533905
vn -0.092319615185260773 0.99144047498703003 0.092319615185260773
vn -0.092319615185260773 0.99144047498703003 0.092319615185260773
vn -0.092319615185260773 0.99144047498703003 0.092319615185260773
vn -0.092319615185260773 0.99144047498703003 0.092319615185260773
vn 0.092319615185260773 0.99144047498703003 -0.092319615185260773
vn 0.092319615185260773 0.99144047498703003 -0.092319615185260773
vn 0.092319615185260773 0.99144047498703003 -0.092319615185260773
vn 0.092319615185260773 0.99144047498703003 -0.092319615185260773
f 1/1/1 3/3/3 2/2/2
f 4/4/4 5/5/5 6/6/6
f 7/7/7 2/2/2 8/8/8
f 9/9/9 10/10/10 5/5/5
f 11/11/11 13/13/13 12/12/12
f 14/14/14 15/15/15 16/16/16
f 12/12/12 13/13/13 17/17/17
f 15/15/15 18/18/18 16/16/16
f 17/17/17 13/13/13 19/19/19
f 18/18/18 20/20/20 16/16/16
f 19/19/19 13/13/13 21/21/21
f 20/20/20 22/22/22 16/16/16
f 21/21/21 13/13/13 8/8/8
f 22/22/22 10/10/10 16/16/16
f 13/13/13 7/7/7 8/8/8
f 16/16/16 10/10/10 9/9/9
f 8/8/8 2/2/2 3/3/3
f 10/10/10 6/6/6 5/5/5
f 23/23/23 11/11/11 12/12/12
f 24/24/24 15/15/15 14/14/14
f 25/25/25 11/11/11 23/23/23
f 26/26/26 24/24/24 14/14/14
f 27/27/27 11/11/11 25/25/25
f 28/28/28 26/26/26 14/14/14
f 29/29/29 31/31/31 30/30/30
f 32/32/32 33/33/33 34/34/34
f 35/35/35 31/31/31 29/29/29
f 36/36/36 32/32/32 34/34/34
f 37/37/37 35/35/35 38/38/38
f 39/39/39 40/40/40 36/36/36
f 38/38/38 35/35/35 29/29/29
f 40/40/40 32/32/32 36/36/36
f 31/31/31 27/27/27 30/30/30
f 34/34/34 33/33/33 28/28/28
f 30/30/30 27/27/27 25/25/25
f 33/33/33 26/26/26 28/28/28
f 41/41/41 37/37/37 38/38/38
f 42/42/42 40/40/40 39/39/39
f 43/43/43 37/37/37 41/41/41
f 44/44/44 42/42/42 39/39/39
f 45/45/45 43/43/43 41/41/41
f 46/46/46 42/42/42 44/44/44
f 47/47/47 43/43/43 45/45/45
f 48/48/48 46/46/46 44/44/44
f 49/49/49 52/52/52 51/51/51 50/50/50
f 53/53/53 56/56/56 55/55/55 54/54/54
f 57/57/57 58/58/58 59/59/59 60/60/60
f 61/61/61 64/64/64 63/63/63 62/62/62
f 65/65/65 66/66/66 67/67/67 68/68/68
f 69/69/69 70/70/70 71/71/71 72/72/72
f 73/73/73 76/76/76 75/75/75 74/74/74
f 77/77/77 80/80/80 79/79/79 78/78/78
f 81/81/81 84/84/84 83/83/83 82/82/82
f 85/85/85 88/88/88 87/87/87 86/86/86
f 89/89/89 92/92/92 91/91/91 90/90/90
f 93/93/93 94/94/94 95/95/95 96/96/96
f 97/97/97 100/100/100 99/99/99 98/98/98
f 101/101/101 104/104/104 103/103/103 102/102/102
f 105/105/105 108/108/108 107/107/107 106/106/106
f 109/109/109 112/112/112 111/111/111 110/110/110
f 113/113/113 116/116/116 115/115/115 114/114/114
f 117/117/117 120/120/120 119/119/119 118/118/118
f 121/121/121 124/124/124 123/123/123 122/122/122
f 125/125/125 128/128/128 127/127/127 126/126/126
f 129/129/129 132/132/132 131/131/131 130/130/130
f 133/133/133 136/136/136 135/135/135 134/134/134
f 137/137/137 140/140/140 139/139/139 138/138/138
f 141/141/141 144/144/144 143/143/143 142/142/142
