# Rhino

mtllib Sofa_10_06.mtl
usemtl Default
v 0.26347405764899978 0.0090280995690000254 -0.25709439571700088
v 0.27143018570200006 0.0090280995690000254 -0.26038983337200072
v 0.26347405764899978 0.20452771182099999 -0.25709439571700088
v 0.27143018570200006 0.0090280995690000254 -0.27630081710900001
v 0.26347405764899978 0.0090280995690000254 -0.27959625476499994
v 0.27143018570200006 0.2237347693982 -0.27630081710900001
v 0.26347405764899978 0.22703020705350002 -0.27959625476499994
v 0.26347405764899978 0.22703020705350002 -0.27959625476499994
v 0.26347405764899978 0.22703020705350002 0.23919915135300052
v 0.27143018570200006 0.2237347693982 -0.27630081710900001
v 0.27143018570200006 0.2237347693982 0.23644637939599988
v 0.27143018570200006 0.2237347693982 -0.27630081710900001
v 0.27143018570200006 0.2237347693982 0.23644637939599988
v 0.2747256233569999 0.21577864134500002 -0.26834532524100041
v 0.2747256233569999 0.21577864134500002 0.22980206455600083
v 0.2747256233569999 0.21577864134500002 -0.26834532524100041
v 0.2747256233569999 0.21577864134500002 0.22980206455600083
v 0.27143018570200006 0.207823149476 -0.26038983337200072
v 0.27143018570200006 0.207823149476 0.22315838590099979
v 0.27143018570200006 0.207823149476 -0.26038983337200072
v 0.27143018570200006 0.207823149476 0.22315838590099979
v 0.26347405764899978 0.20452771182099999 -0.25709439571700088
v 0.26347405764899978 0.20452771182099999 0.22040625013000081
v 0.27143018570200006 0.207823149476 0.22315838590099979
v 0.27143018570200006 0.0076100434810000284 0.25942537710099955
v 0.26347405764899978 0.20452771182099999 0.22040625013000081
v 0.27143018570200006 0.207823149476 0.22315838590099979
v 0.2747256233569999 0.21577864134500002 0.22980206455600083
v 0.27143018570200006 0.0076100434810000284 0.25942537710099955
v 0.2747256233569999 0.0090280995690000254 0.26725299580900064
v 0.27143018570200006 0.010446155655999989 0.27508188688799962
v 0.2747256233569999 0.0090280995690000254 0.26725299580900064
v 0.27143018570200006 0.2237347693982 0.23644637939599988
v 0.2747256233569999 0.21577864134500002 0.22980206455600083
v 0.27143018570200006 0.010446155655999989 0.27508188688799962
v 0.27143018570200006 0.2237347693982 0.23644637939599988
v 0.26347405764899978 0.011033354295999998 0.27832452119799989
v 0.26347405764899978 0.22703020705350002 0.23919915135300052
v 0.26347405764899978 0.0070222086560000063 0.2561827427899992
v 0.27143018570200006 0.207823149476 -0.26038983337200072
v 0.27143018570200006 0.207823149476 -0.26038983337200072
v 0.27143018570200006 0.0090280995690000254 -0.26038983337200072
v 0.2747256233569999 0.21577864134500002 -0.26834532524100041
v 0.2747256233569999 0.0090280995690000254 -0.26834532524100041
v 0.2747256233569999 0.21577864134500002 -0.26834532524100041
v 0.2747256233569999 0.0090280995690000254 -0.26834532524100041
v 0.27143018570200006 0.2237347693982 -0.27630081710900001
v 0.27143018570200006 0.0090280995690000254 -0.27630081710900001
v 0.26347405764899978 0.20452771182099999 -0.25709439571700088
v 0.2555185657800001 0.0090280995690000254 -0.26038983337200072
v 0.26347405764899978 0.0090280995690000254 -0.25709439571700088
v 0.2555185657800001 0.207823149476 -0.26038983337200072
v 0.26347405764899978 0.20452771182099999 -0.25709439571700088
v 0.2555185657800001 0.207823149476 0.22315838590099979
v 0.2555185657800001 0.207823149476 -0.26038983337200072
v 0.26347405764899978 0.20452771182099999 0.22040625013000081
v 0.26347405764899978 0.20452771182099999 0.22040625013000081
v 0.2555185657800001 0.0076100434810000284 0.25942537710099955
v 0.2555185657800001 0.207823149476 0.22315838590099979
v 0.26347405764899978 0.0070222086560000063 0.2561827427899992
v 0.26347405764899978 0.011033354295999998 0.27832452119799989
v 0.2555185657800001 0.2237347693982 0.23644637939599988
v 0.2555185657800001 0.010446155655999989 0.27508188688799962
v 0.26347405764899978 0.22703020705350002 0.23919915135300052
v 0.26347405764899978 0.22703020705350002 0.23919915135300052
v 0.2555185657800001 0.2237347693982 -0.27630081710900001
v 0.2555185657800001 0.2237347693982 0.23644637939599988
v 0.26347405764899978 0.22703020705350002 -0.27959625476499994
v 0.26347405764899978 0.0090280995690000254 -0.27959625476499994
v 0.2555185657800001 0.2237347693982 -0.27630081710900001
v 0.26347405764899978 0.22703020705350002 -0.27959625476499994
v 0.2555185657800001 0.0090280995690000254 -0.27630081710900001
v 0.25222312812499981 0.0090280995690000254 -0.26834532524100041
v 0.2555185657800001 0.2237347693982 -0.27630081710900001
v 0.2555185657800001 0.0090280995690000254 -0.27630081710900001
v 0.25222312812499981 0.21577864134500002 -0.26834532524100041
v 0.2555185657800001 0.0090280995690000254 -0.26038983337200072
v 0.25222312812499981 0.21577864134500002 -0.26834532524100041
v 0.25222312812499981 0.0090280995690000254 -0.26834532524100041
v 0.2555185657800001 0.207823149476 -0.26038983337200072
v 0.2555185657800001 0.207823149476 -0.26038983337200072
v 0.25222312812499981 0.21577864134500002 0.22980206455600083
v 0.25222312812499981 0.21577864134500002 -0.26834532524100041
v 0.2555185657800001 0.207823149476 0.22315838590099979
v 0.2555185657800001 0.0076100434810000284 0.25942537710099955
v 0.25222312812499981 0.21577864134500002 0.22980206455600083
v 0.2555185657800001 0.207823149476 0.22315838590099979
v 0.25222312812499981 0.0090280995690000254 0.26725299580900064
v 0.2555185657800001 0.2237347693982 0.23644637939599988
v 0.25222312812499981 0.0090280995690000254 0.26725299580900064
v 0.2555185657800001 0.010446155655999989 0.27508188688799962
v 0.25222312812499981 0.21577864134500002 0.22980206455600083
v 0.2555185657800001 0.2237347693982 0.23644637939599988
v 0.25222312812499981 0.21577864134500002 -0.26834532524100041
v 0.25222312812499981 0.21577864134500002 0.22980206455600083
v 0.2555185657800001 0.2237347693982 -0.27630081710900001
v 0.25222312812499981 0.0090280995690000254 -0.26834532524100041
v 0.2555185657800001 0.0090280995690000254 -0.26038983337200072
v 0.2555185657800001 0.0090280995690000254 -0.27630081710900001
v 0.26347405764899978 0.0090280995690000254 -0.25709439571700088
v 0.26347405764899978 0.0090280995690000254 -0.27959625476499994
v 0.26347437574099963 0.0090280995690000254 -0.26834532524100041
v 0.27143018570200006 0.0090280995690000254 -0.26038983337200072
v 0.27143018570200006 0.0090280995690000254 -0.27630081710900001
v 0.2747256233569999 0.0090280995690000254 -0.26834532524100041
v 0.25222312812499981 0.0090280995690000254 0.26725299580900064
v 0.2555185657800001 0.010446155655999989 0.27508188688799962
v 0.2555185657800001 0.0076100434810000284 0.25942537710099955
v 0.26347405764899978 0.011033354295999998 0.27832452119799989
v 0.26347405764899978 0.0070222086560000063 0.2561827427899992
v 0.26347437574099963 0.0090277814760000019 0.26725363199399865
v 0.27143018570200006 0.010446155655999989 0.27508188688799962
v 0.27143018570200006 0.0076100434810000284 0.25942537710099955
v 0.2747256233569999 0.0090280995690000254 0.26725299580900064
vt 3.4725000858306885 3.6405000686645508
vt 0 3.6405000686645508
vt 3.4725000858306885 82.477500915527344
vt 3.4725000858306885 3.6405000686645508
vt 0 3.6405000686645508
vt 3.4725000858306885 90.222702026367188
vt 0 91.551597595214844
vt 0 35.035301208496094
vt 209.20799255371094 35.035301208496094
vt 1.3288999795913696 31.562799453735352
vt 208.09800720214844 31.562799453735352
vt 1.3288999795913696 82.127197265625
vt 208.09800720214844 82.127197265625
vt 4.5370001792907715 78.654701232910156
vt 205.41900634765625 78.654701232910156
vt 4.5370001792907715 82.127197265625
vt 205.41900634765625 82.127197265625
vt 7.7452001571655273 78.654701232910156
vt 202.74000549316406 78.654701232910156
vt 7.7452001571655273 35.035301208496094
vt 202.74000549316406 35.035301208496094
vt 9.0740995407104492 31.562799453735352
vt 201.6300048828125 31.562799453735352
vt 81.615798950195312 52.096900939941406
vt 87.289901733398438 -29.758199691772461
vt 78.228401184082031 50.749698638916016
vt 188.95500183105469 78.594398498535156
vt 191.93800354003906 81.810096740722656
vt 202.49800109863281 -2.3317000865936279
vt 205.92300415039062 -1.7585999965667725
vt 205.92300415039062 -1.7585999965667725
vt 202.49800109863281 -2.3317000865936279
vt 191.49600219726562 84.452598571777344
vt 188.51300048828125 81.236900329589844
vt 83.825698852539062 -29.998300552368164
vt 77.781097412109375 57.202499389648438
vt 87.289901733398438 -29.758199691772461
vt 81.168502807617188 58.549800872802734
vt 83.825698852539062 -29.998300552368164
vt 0 83.806396484375
vt 5.9278998374938965 83.806396484375
vt 5.9278998374938965 3.6405000686645508
vt 2.4553999900817871 87.014602661132812
vt 2.4553999900817871 3.6405000686645508
vt 5.9278998374938965 87.014602661132812
vt 5.9278998374938965 3.6405000686645508
vt 2.4553999900817871 90.222702026367188
vt 2.4553999900817871 3.6405000686645508
vt 3.4725000858306885 82.477500915527344
vt 0 3.6405000686645508
vt 3.4725000858306885 3.6405000686645508
vt 0 83.806396484375
vt 9.0740995407104492 31.562799453735352
vt 202.74000549316406 35.035301208496094
vt 7.7452001571655273 35.035301208496094
vt 201.6300048828125 31.562799453735352
vt 78.228401184082031 50.749698638916016
vt 87.289901733398438 -29.758199691772461
vt 81.615798950195312 52.096900939941406
vt 83.825698852539062 -29.998300552368164
vt 87.289901733398438 -29.758199691772461
vt 77.781097412109375 57.202499389648438
vt 83.825698852539062 -29.998300552368164
vt 81.168502807617188 58.549800872802734
vt 209.20799255371094 35.035301208496094
vt 1.3288999795913696 31.562799453735352
vt 208.09800720214844 31.562799453735352
vt 0 35.035301208496094
vt 0 3.6405000686645508
vt 3.4725000858306885 90.222702026367188
vt 0 91.551597595214844
vt 3.4725000858306885 3.6405000686645508
vt 5.9278998374938965 3.6405000686645508
vt 2.4553999900817871 90.222702026367188
vt 2.4553999900817871 3.6405000686645508
vt 5.9278998374938965 87.014602661132812
vt 5.9278998374938965 3.6405000686645508
vt 2.4553999900817871 87.014602661132812
vt 2.4553999900817871 3.6405000686645508
vt 5.9278998374938965 83.806396484375
vt 7.7452001571655273 78.654701232910156
vt 205.41900634765625 82.127197265625
vt 4.5370001792907715 82.127197265625
vt 202.74000549316406 78.654701232910156
vt 202.49800109863281 -2.3317000865936279
vt 191.93800354003906 81.810096740722656
vt 188.95500183105469 78.594398498535156
vt 205.92300415039062 -1.7585999965667725
vt 191.49600219726562 84.452598571777344
vt 202.49800109863281 -2.3317000865936279
vt 205.92300415039062 -1.7585999965667725
vt 188.51300048828125 81.236900329589844
vt 208.09800720214844 82.127197265625
vt 4.5370001792907715 78.654701232910156
vt 205.41900634765625 78.654701232910156
vt 1.3288999795913696 82.127197265625
vt 1 0.5
vt 0.85355234146118164 0.85354822874069214
vt 0.85355234146118164 0.14645180106163025
vt 0.50001412630081177 1
vt 0.50001412630081177 0
vt 0.5 0.5
vt 0.14644765853881836 0.85354822874069214
vt 0.14644765853881836 0.14645180106163025
vt 0 0.5
vt 0.49997469782829285 1
vt 0.85355311632156372 0.85355234146118164
vt 0.1464519202709198 0.85355234146118164
vt 1 0.50001412630081177
vt 0 0.50001412630081177
vt 0.5 0.5
vt 0.85355311632156372 0.14644765853881836
vt 0.1464519202709198 0.14644765853881836
vt 0.49997469782829285 0
vn 0.38267368078231812 0 0.92388355731964111
vn 0.38267368078231812 0 0.92388355731964111
vn 0.38267368078231812 0 0.92388355731964111
vn 0.38267368078231812 0 -0.92388355731964111
vn 0.38267368078231812 0 -0.92388355731964111
vn 0.38267368078231812 0 -0.92388355731964111
vn 0.38267368078231812 0 -0.92388355731964111
vn 0.38267368078231812 0.92388355731964111 0
vn 0.38267368078231812 0.92388355731964111 0
vn 0.38267368078231812 0.92388355731964111 0
vn 0.38267368078231812 0.92388355731964111 0
vn 0.92388355731964111 0.38267368078231812 0
vn 0.92388355731964111 0.38267368078231812 0
vn 0.92388355731964111 0.38267368078231812 0
vn 0.92388355731964111 0.38267368078231812 0
vn 0.92387276887893677 -0.38269978761672974 0
vn 0.92387276887893677 -0.38269978761672974 0
vn 0.92387276887893677 -0.38269978761672974 0
vn 0.92387276887893677 -0.38269978761672974 0
vn 0.38267368078231812 -0.92388355731964111 0
vn 0.38267368078231812 -0.92388355731964111 0
vn 0.38267368078231812 -0.92388355731964111 0
vn 0.38267368078231812 -0.92388355731964111 0
vn 0.38267472386360168 -0.16467411816120148 -0.9090888500213623
vn 0.38267472386360168 -0.16467411816120148 -0.9090888500213623
vn 0.38267472386360168 -0.16467411816120148 -0.9090888500213623
vn 0.92386931180953979 -0.068214386701583862 -0.37657973170280457
vn 0.92386931180953979 -0.068214386701583862 -0.37657973170280457
vn 0.92386931180953979 -0.068214386701583862 -0.37657973170280457
vn 0.92386931180953979 -0.068214386701583862 -0.37657973170280457
vn 0.92388617992401123 0.068207107484340668 0.37653964757919312
vn 0.92388617992401123 0.068207107484340668 0.37653964757919312
vn 0.92388617992401123 0.068207107484340668 0.37653964757919312
vn 0.92388617992401123 0.068207107484340668 0.37653964757919312
vn 0.38266721367835999 0.16467463970184326 0.90909188985824585
vn 0.38266721367835999 0.16467463970184326 0.90909188985824585
vn 0.38266721367835999 0.16467463970184326 0.90909188985824585
vn 0.38266721367835999 0.16467463970184326 0.90909188985824585
vn 0.38267472386360168 -0.16467411816120148 -0.9090888500213623
vn 0.38267368078231812 0 0.92388355731964111
vn 0.92387276887893677 0 0.38269978761672974
vn 0.92387276887893677 0 0.38269978761672974
vn 0.92387276887893677 0 0.38269978761672974
vn 0.92387276887893677 0 0.38269978761672974
vn 0.92387276887893677 0 -0.38269978761672974
vn 0.92387276887893677 0 -0.38269978761672974
vn 0.92387276887893677 0 -0.38269978761672974
vn 0.92387276887893677 0 -0.38269978761672974
vn -0.38269978761672974 0 0.92387276887893677
vn -0.38269978761672974 0 0.92387276887893677
vn -0.38269978761672974 0 0.92387276887893677
vn -0.38269978761672974 0 0.92387276887893677
vn -0.38269978761672974 -0.92387276887893677 0
vn -0.38269978761672974 -0.92387276887893677 0
vn -0.38269978761672974 -0.92387276887893677 0
vn -0.38269978761672974 -0.92387276887893677 0
vn -0.38270086050033569 -0.16467218101024628 -0.90907818078994751
vn -0.38270086050033569 -0.16467218101024628 -0.90907818078994751
vn -0.38270086050033569 -0.16467218101024628 -0.90907818078994751
vn -0.38270086050033569 -0.16467218101024628 -0.90907818078994751
vn -0.38269332051277161 0.16467271745204926 0.90908122062683105
vn -0.38269332051277161 0.16467271745204926 0.90908122062683105
vn -0.38269332051277161 0.16467271745204926 0.90908122062683105
vn -0.38269332051277161 0.16467271745204926 0.90908122062683105
vn -0.38269978761672974 0.92387276887893677 0
vn -0.38269978761672974 0.92387276887893677 0
vn -0.38269978761672974 0.92387276887893677 0
vn -0.38269978761672974 0.92387276887893677 0
vn -0.38269978761672974 0 -0.92387276887893677
vn -0.38269978761672974 0 -0.92387276887893677
vn -0.38269978761672974 0 -0.92387276887893677
vn -0.38269978761672974 0 -0.92387276887893677
vn -0.92387276887893677 0 -0.38269978761672974
vn -0.92387276887893677 0 -0.38269978761672974
vn -0.92387276887893677 0 -0.38269978761672974
vn -0.92387276887893677 0 -0.38269978761672974
vn -0.92387276887893677 0 0.38269978761672974
vn -0.92387276887893677 0 0.38269978761672974
vn -0.92387276887893677 0 0.38269978761672974
vn -0.92387276887893677 0 0.38269978761672974
vn -0.92387276887893677 -0.38269978761672974 0
vn -0.92387276887893677 -0.38269978761672974 0
vn -0.92387276887893677 -0.38269978761672974 0
vn -0.92387276887893677 -0.38269978761672974 0
vn -0.92386931180953979 -0.068214386701583862 -0.37657973170280457
vn -0.92386931180953979 -0.068214386701583862 -0.37657973170280457
vn -0.92386931180953979 -0.068214386701583862 -0.37657973170280457
vn -0.92386931180953979 -0.068214386701583862 -0.37657973170280457
vn -0.92388617992401123 0.068207107484340668 0.37653964757919312
vn -0.92388617992401123 0.068207107484340668 0.37653964757919312
vn -0.92388617992401123 0.068207107484340668 0.37653964757919312
vn -0.92388617992401123 0.068207107484340668 0.37653964757919312
vn -0.92388355731964111 0.38267368078231812 0
vn -0.92388355731964111 0.38267368078231812 0
vn -0.92388355731964111 0.38267368078231812 0
vn -0.92388355731964111 0.38267368078231812 0
vn 0 -1 0
vn 0 -1 0
vn 0 -1 0
vn 0 -1 0
vn 0 -1 0
vn 0 -1 0
vn 0 -1 0
vn 0 -1 0
vn 0 -1 0
vn -3.7897654692642391E-05 -0.98398613929748535 0.17824503779411316
vn -3.3071213692892343E-05 -0.98398500680923462 0.17825119197368622
vn -4.416961019160226E-05 -0.98398524522781372 0.1782497763633728
vn -7.9853634815663099E-10 -0.98398417234420776 0.17825594544410706
vn -1.4260876923799515E-09 -0.98398417234420776 0.17825594544410706
vn -5.5706550483591855E-10 -0.98398512601852417 0.17825047671794891
vn 3.3070413337554783E-05 -0.98398500680923462 0.17825119197368622
vn 4.416818410390988E-05 -0.98398524522781372 0.1782497763633728
vn 3.7897654692642391E-05 -0.98398613929748535 0.17824503779411316
f 1/1/1 2/2/2 3/3/3
f 4/4/4 5/5/5 6/6/6
f 7/7/7 6/6/6 5/5/5
f 8/8/8 9/9/9 10/10/10
f 11/11/11 10/10/10 9/9/9
f 12/12/12 13/13/13 14/14/14
f 15/15/15 14/14/14 13/13/13
f 16/16/16 17/17/17 18/18/18
f 19/19/19 18/18/18 17/17/17
f 20/20/20 21/21/21 22/22/22
f 23/23/23 22/22/22 21/21/21
f 24/24/24 25/25/25 26/26/26
f 27/27/27 28/28/28 29/29/29
f 30/30/30 29/29/29 28/28/28
f 31/31/31 32/32/32 33/33/33
f 34/34/34 33/33/33 32/32/32
f 35/35/35 36/36/36 37/37/37
f 38/38/38 37/37/37 36/36/36
f 39/39/39 26/26/26 25/25/25
f 40/40/40 3/3/3 2/2/2
f 41/41/41 42/42/42 43/43/43
f 44/44/44 43/43/43 42/42/42
f 45/45/45 46/46/46 47/47/47
f 48/48/48 47/47/47 46/46/46
f 49/49/49 50/50/50 51/51/51
f 50/50/50 49/49/49 52/52/52
f 53/53/53 54/54/54 55/55/55
f 54/54/54 53/53/53 56/56/56
f 57/57/57 58/58/58 59/59/59
f 58/58/58 57/57/57 60/60/60
f 61/61/61 62/62/62 63/63/63
f 62/62/62 61/61/61 64/64/64
f 65/65/65 66/66/66 67/67/67
f 66/66/66 65/65/65 68/68/68
f 69/69/69 70/70/70 71/71/71
f 70/70/70 69/69/69 72/72/72
f 73/73/73 74/74/74 75/75/75
f 74/74/74 73/73/73 76/76/76
f 77/77/77 78/78/78 79/79/79
f 78/78/78 77/77/77 80/80/80
f 81/81/81 82/82/82 83/83/83
f 82/82/82 81/81/81 84/84/84
f 85/85/85 86/86/86 87/87/87
f 86/86/86 85/85/85 88/88/88
f 89/89/89 90/90/90 91/91/91
f 90/90/90 89/89/89 92/92/92
f 93/93/93 94/94/94 95/95/95
f 94/94/94 93/93/93 96/96/96
f 102/102/102 104/104/104 105/105/105
f 100/100/100 102/102/102 103/103/103
f 105/105/105 103/103/103 102/102/102
f 102/102/102 101/101/101 104/104/104
f 97/97/97 99/99/99 102/102/102
f 102/102/102 100/100/100 98/98/98
f 98/98/98 97/97/97 102/102/102
f 101/101/101 102/102/102 99/99/99
f 113/113/113 111/111/111 110/110/110
f 110/110/110 111/111/111 108/108/108
f 111/111/111 113/113/113 114/114/114
f 109/109/109 111/111/111 112/112/112
f 114/114/114 112/112/112 111/111/111
f 106/106/106 111/111/111 107/107/107
f 109/109/109 107/107/107 111/111/111
f 108/108/108 111/111/111 106/106/106
