# Rhino

mtllib Sofa_14_02.mtl
usemtl Default
v 0.34020494589899997 0.023675382014000018 -0.25734110885000039
v 0.34020494589899997 0 -0.23212168018299995
v 0.34020494589899997 0.023675382014000018 -0.23212168018299995
v 0.34020494589899997 0 -0.25734110885000039
v 0.34020494589899997 0.023675382014000018 -0.25734110885000039
v 0.36542437456699961 0 -0.25734110885000039
v 0.34020494589899997 0 -0.25734110885000039
v 0.36542437456699961 0.023675382014000018 -0.25734110885000039
v 0.36542437456699961 0.023675382014000018 -0.23212168018299995
v 0.36542437456699961 0 -0.25734110885000039
v 0.36542437456699961 0.023675382014000018 -0.25734110885000039
v 0.36542437456699961 0 -0.23212168018299995
v 0.36542437456699961 0.023675382014000018 -0.23212168018299995
v 0.34020494589899997 0 -0.23212168018299995
v 0.36542437456699961 0 -0.23212168018299995
v 0.34020494589899997 0.023675382014000018 -0.23212168018299995
v 0.34020494589899997 0 -0.23212168018299995
v 0.36542437456699961 0 -0.25734110885000039
v 0.36542437456699961 0 -0.23212168018299995
v 0.34020494589899997 0 -0.25734110885000039
vt 0 1.8110200166702271
vt 1.929129958152771 0
vt 1.929129958152771 1.8110200166702271
vt 0 0
vt 1.929129958152771 1.8110200166702271
vt 0 0
vt 1.929129958152771 0
vt 0 1.8110200166702271
vt -1.929129958152771 1.8110200166702271
vt 0 0
vt 0 1.8110200166702271
vt -1.929129958152771 0
vt 0 1.8110200166702271
vt -1.929129958152771 0
vt 0 0
vt -1.929129958152771 1.8110200166702271
vt -1.929129958152771 1.929129958152771
vt 0 0
vt 0 1.929129958152771
vt -1.929129958152771 0
vn -1 0 0
vn -1 0 0
vn -1 0 0
vn -1 0 0
vn 0 0 -1
vn 0 0 -1
vn 0 0 -1
vn 0 0 -1
vn 1 0 0
vn 1 0 0
vn 1 0 0
vn 1 0 0
vn 0 0 1
vn 0 0 1
vn 0 0 1
vn 0 0 1
vn 0 -1 0
vn 0 -1 0
vn 0 -1 0
vn 0 -1 0
f 1/1/1 2/2/2 3/3/3
f 2/2/2 1/1/1 4/4/4
f 5/5/5 6/6/6 7/7/7
f 6/6/6 5/5/5 8/8/8
f 9/9/9 10/10/10 11/11/11
f 10/10/10 9/9/9 12/12/12
f 13/13/13 14/14/14 15/15/15
f 14/14/14 13/13/13 16/16/16
f 17/17/17 18/18/18 19/19/19
f 18/18/18 17/17/17 20/20/20
