# Rhino

mtllib Sofa_07_03.mtl
usemtl Default
v 0.014107227325439453 0.19951173663139343 0.30772161483764648
v 0.014107227325439453 0.037408452481031418 0.30772161483764648
v -0.43733525276184082 0.19951173663139343 -0.14372110366821289
v -0.43733525276184082 0.037408452481031418 -0.14372110366821289
v -0.43733525276184082 0.19951173663139343 -0.14372110366821289
v -0.43733525276184082 0.037408452481031418 -0.14372110366821289
v -0.41617393493652344 0.19951173663139343 -0.16488242149353027
v -0.41617393493652344 0.037408452481031418 -0.16488242149353027
v -0.41617393493652344 0.19951173663139343 -0.16488242149353027
v -0.41617393493652344 0.037408452481031418 -0.16488242149353027
v 0.035268783569335938 0.037408452481031418 0.2865602970123291
v 0.014107227325439453 0.19951173663139343 0.30772161483764648
v -0.43733525276184082 0.19951173663139343 -0.14372110366821289
v -0.41617393493652344 0.19951173663139343 -0.16488242149353027
v 0.014107227325439453 0.037408452481031418 0.30772161483764648
v -0.43733525276184082 0.037408452481031418 -0.14372110366821289
v -0.41617393493652344 0.037408452481031418 -0.16488242149353027
v 0.035268783569335938 0.037408452481031418 0.2865602970123291
v 0.03526867063423067 0.037408452481031418 0.28656018407722383
v 0.03526867063423067 0.19097996965645925 0.28656018407722383
v 0.035268665340411065 0.19951173663139343 0.28656018937104033
v 0.03526867063423067 0.037408452481031418 0.28656018407722383
v 0.035268665340411065 0.037408452481031418 0.28656018937104033
v 0.035268665340411065 0.19951173663139343 0.28656018937104033
v 0.035268665340411065 0.19951173663139343 0.28656018937104033
v 0.03526867063423067 0.19951173663139343 0.28656018407722383
v 0.03526867063423067 0.037408452481031418 0.28656018407722383
v 0.035268665340411065 0.037408452481031418 0.28656018937104033
v 0.03526867063423067 0.037408452481031418 0.28656018407722383
v 0.035268665340411065 0.037408452481031418 0.28656018937104033
v 0.014107227325439453 0.19951173663139343 0.30772161483764648
v 0.035268783569335938 0.19951173663139343 0.2865602970123291
v 0.035268665340411065 0.19951173663139343 0.28656018937104033
v 0.03526867063423067 0.19951173663139343 0.28656018407722383
v 0.035268665340411065 0.19951173663139343 0.28656018937104033
v 0.03526867063423067 0.19951173663139343 0.28656018407722383
v 0.43733525276184082 0.19951173663139343 -0.073183536529541016
v 0.43733525276184082 0.037408452481031418 -0.073183536529541016
v 0.035268783569335938 0.19951173663139343 0.32888317108154297
v 0.035268783569335938 0.037408452481031418 0.32888317108154297
v 0.035268783569335938 0.19951173663139343 0.32888317108154297
v 0.035268783569335938 0.037408452481031418 0.32888317108154297
v 0.014107227325439453 0.19951173663139343 0.30772161483764648
v 0.014107227325439453 0.037408452481031418 0.30772161483764648
v 0.41617393493652344 0.19951173663139343 -0.094344854354858398
v 0.41617393493652344 0.037408452481031418 -0.094344854354858398
v 0.41617393493652344 0.19951173663139343 -0.094344854354858398
v 0.41617393493652344 0.037408452481031418 -0.094344854354858398
v 0.43733525276184082 0.19951173663139343 -0.073183536529541016
v 0.43733525276184082 0.037408452481031418 -0.073183536529541016
v 0.43733525276184082 0.19951173663139343 -0.073183536529541016
v 0.035268783569335938 0.19951173663139343 0.32888317108154297
v 0.014107227325439453 0.19951173663139343 0.30772161483764648
v 0.41617393493652344 0.19951173663139343 -0.094344854354858398
v 0.43733525276184082 0.037408452481031418 -0.073183536529541016
v 0.035268783569335938 0.037408452481031418 0.32888317108154297
v 0.014107227325439453 0.037408452481031418 0.30772161483764648
v 0.41617393493652344 0.037408452481031418 -0.094344854354858398
v 0.03526867063423067 0.19097996965645925 0.28656018407722383
v 0.035268665340411065 0.19951173663139343 0.28656018937104033
v 0.03526867063423067 0.19951173663139343 0.28656018407722383
v 0.03526867063423067 0.037408452481031418 0.28656018407722383
v 0.03526867063423067 0.19097996965645925 0.28656018407722383
v 0.03526867063423067 0.19951173663139343 0.28656018407722383
v 0.035268783569335938 0.19951173663139343 0.2865602970123291
v 0.03526867063423067 0.037408452481031418 0.28656018407722383
v 0.035268783569335938 0.037408452481031418 0.2865602970123291
v 0.014107227325439453 0.19951173663139343 0.30772161483764648
v 0.035268665340411065 0.19951173663139343 0.28656018937104033
v 0.03526867063423067 0.19951173663139343 0.28656018407722383
v 0.035268783569335938 0.19951173663139343 0.2865602970123291
v 0.014107227325439453 0.037408452481031418 0.30772161483764648
v 0.03526867063423067 0.037408452481031418 0.28656018407722383
v 0.035268665340411065 0.037408452481031418 0.28656018937104033
v 0.035268783569335938 0.037408452481031418 0.2865602970123291
v -0.41617393493652344 0.19951173663139343 -0.16488242149353027
v -0.43733525276184082 0.19951173663139343 -0.14372110366821289
v -0.43733525276184082 0.037408452481031418 -0.14372110366821289
v 0.035268783569335938 0.037408452481031418 0.2865602970123291
v 0.035268783569335938 0.19951173663139343 0.2865602970123291
v 0.41617393493652344 0.037408452481031418 -0.094344854354858398
vt 0 0
vt 0 0.86516779661178589
vt 0.47761189937591553 0
vt 0.47761189937591553 0.86516779661178589
vt 0.47761189937591553 0
vt 0.47761189937591553 0.86516779661178589
vt 0.5 0
vt 0.5 0.86516779661178589
vt 0.5 0
vt 0.5 0.86516779661178589
vt 0.97761189937591553 0.86516779661178589
vt 0 1
vt 0.47761189937591553 1
vt 0.47761189937591553 0.86516863107681274
vt 0.52238810062408447 0.86516863107681274
vt 1 0.86516863107681274
vt 1 1
vt 0.52238810062408447 1
vt 0.97761178016662598 0.86516779661178589
vt 0.97761178016662598 0.04553522914648056
vt 0.97761178016662598 0
vt 0.97761178016662598 0.86516779661178589
vt 0.97761178016662598 0.86516779661178589
vt 1.1948171163567167E-07 0.86516869068145752
vt 1.1948171163567167E-07 0.86516869068145752
vt 1.1948171163567167E-07 0.86516863107681274
vt 0.52238821983337402 1
vt 0.52238821983337402 0.99999994039535522
vt 0.52238821983337402 1
vt 0.52238821983337402 0.99999994039535522
vt 0 1
vt 0 0.86516863107681274
vt 1.1948171163567167E-07 0.86516869068145752
vt 1.194817400573811E-07 0.86516863107681274
vt 1.1948171163567167E-07 0.86516869068145752
vt 1.1948171163567167E-07 0.86516863107681274
vt 0 0
vt 0 0.86516779661178589
vt 0.42537355422973633 0
vt 0.42537355422973633 0.86516779661178589
vt 0.42537355422973633 0
vt 0.42537355422973633 0.86516779661178589
vt 0.4477616548538208 0
vt 0.4477616548538208 0.86516779661178589
vt 0.87313520908355713 0
vt 0.87313520908355713 0.86516779661178589
vt 0.87313520908355713 0
vt 0.87313520908355713 0.86516779661178589
vt 0.8955233097076416 0
vt 0.8955233097076416 0.86516779661178589
vt 0 1
vt 0.42537355422973633 1
vt 0.42537355422973633 0.86516863107681274
vt 0 0.86516863107681274
vt 0.47014975547790527 0.86516863107681274
vt 0.8955233097076416 0.86516863107681274
vt 0.8955233097076416 1
vt 0.47014975547790527 1
vt 0.47014978528022766 0.04553522914648056
vt 0.47014978528022766 0
vt 0.47014978528022766 0
vt 0.47014978528022766 0.86516779661178589
vt 0.47014978528022766 0.04553522914648056
vt 0.40298542380332947 0.86516863107681274
vt 0.40298542380332947 0.86516934633255005
vt 0.87313520908355713 1
vt 0.87313520908355713 0.9999992847442627
vt 0.42537355422973633 0.86516863107681274
vt 0.40298545360565186 0.86516863107681274
vt 0.40298542380332947 0.86516863107681274
vt 0.40298542380332947 0.86516934633255005
vt 0.8955233097076416 1
vt 0.87313520908355713 1
vt 0.87313520908355713 1
vt 0.87313520908355713 0.9999992847442627
vt 0.5 0
vt 0.47761189937591553 1
vt 1 0.86516863107681274
vt 0.52238810062408447 1
vt 0 0.86516863107681274
vt 0.87313520908355713 0.86516779661178589
vn -0.70710694789886475 0 0.70710659027099609
vn -0.70710694789886475 0 0.70710659027099609
vn -0.70710694789886475 0 0.70710659027099609
vn -0.70710694789886475 0 0.70710659027099609
vn -0.70710676908493042 0 -0.70710676908493042
vn -0.70710676908493042 0 -0.70710676908493042
vn -0.70710676908493042 0 -0.70710676908493042
vn -0.70710676908493042 0 -0.70710676908493042
vn 0.70710676908493042 0 -0.70710676908493042
vn 0.70710676908493042 0 -0.70710676908493042
vn 0.70710676908493042 0 -0.70710676908493042
vn 0 1 0
vn 0 1 0
vn 0 1 0
vn 0 -1 0
vn 0 -1 0
vn 0 -1 0
vn 0 -1 0
vn 0.70710676908493042 0 -0.70710676908493042
vn 0.70710676908493042 0 -0.70710676908493042
vn 0.70710676908493042 0 -0.70710676908493042
vn 0.70710676908493042 0 -0.70710676908493042
vn 0.70710676908493042 0 -0.70710676908493042
vn 0 1 0
vn 0 1 0
vn 0 1 0
vn 0 -1 0
vn 0 -1 0
vn 0 -1 0
vn 0 -1 0
vn 0 1 0
vn 0 1 0
vn 0 1 0
vn 0 1 0
vn 0 1 0
vn 0 1 0
vn 0.70710676908493042 0 0.70710676908493042
vn 0.70710676908493042 0 0.70710676908493042
vn 0.70710676908493042 0 0.70710676908493042
vn 0.70710676908493042 0 0.70710676908493042
vn -0.70710676908493042 0 0.70710676908493042
vn -0.70710676908493042 0 0.70710676908493042
vn -0.70710676908493042 0 0.70710676908493042
vn -0.70710676908493042 0 0.70710676908493042
vn -0.70710659027099609 0 -0.70710700750350952
vn -0.70710676908493042 0 -0.70710676908493042
vn 0.70710676908493042 0 -0.70710676908493042
vn 0.70710676908493042 0 -0.70710676908493042
vn 0.70710676908493042 0 -0.70710676908493042
vn 0.70710676908493042 0 -0.70710676908493042
vn 0 1 0
vn 0 1 0
vn 0 1 0
vn 0 1 0
vn 0 -1 0
vn 0 -1 0
vn 0 -1 0
vn 0 -1 0
vn -0.70710659027099609 0 -0.70710700750350952
vn -0.70710659027099609 0 -0.70710700750350952
vn -0.70710659027099609 0 -0.70710700750350952
vn -0.70710676908493042 0 -0.70710676908493042
vn -0.70710676908493042 0 -0.70710676908493042
vn 0 1 0
vn 0 1 0
vn 0 -1 0
vn 0 -1 0
vn 0 1 0
vn 0 1 0
vn 0 1 0
vn 0 1 0
vn 0 -1 0
vn 0 -1 0
vn 0 -1 0
vn 0 -1 0
vn 0.70710676908493042 0 -0.70710676908493042
vn 0 1 0
vn 0 -1 0
vn 0 -1 0
vn 0 1 0
vn -0.70710659027099609 0 -0.70710700750350952
f 5/5/5 7/7/7 8/8/8 6/6/6
f 4/4/4 1/1/1 3/3/3
f 2/2/2 1/1/1 4/4/4
f 19/19/19 76/76/76 20/20/20
f 20/20/20 76/76/76 21/21/21
f 23/23/23 10/10/10 9/9/9
f 22/22/22 23/23/23 11/11/11
f 9/9/9 11/11/11 23/23/23
f 24/24/24 13/13/13 12/12/12
f 77/77/77 25/25/25 14/14/14
f 26/26/26 14/14/14 25/25/25
f 28/28/28 15/15/15 78/78/78
f 79/79/79 28/28/28 27/27/27
f 15/15/15 28/28/28 79/79/79
f 30/30/30 29/29/29 18/18/18
f 17/17/17 30/30/30 16/16/16
f 29/29/29 30/30/30 17/17/17
f 34/34/34 33/33/33 80/80/80
f 31/31/31 80/80/80 33/33/33
f 35/35/35 32/32/32 36/36/36
f 37/37/37 39/39/39 40/40/40 38/38/38
f 47/47/47 49/49/49 50/50/50 48/48/48
f 52/52/52 51/51/51 54/54/54
f 56/56/56 58/58/58 55/55/55
f 44/44/44 41/41/41 43/43/43
f 42/42/42 41/41/41 44/44/44
f 59/59/59 60/60/60 61/61/61
f 81/81/81 59/59/59 45/45/45
f 61/61/61 45/45/45 59/59/59
f 63/63/63 46/46/46 62/62/62
f 65/65/65 54/54/54 64/64/64
f 52/52/52 54/54/54 65/65/65
f 65/65/65 53/53/53 52/52/52
f 58/58/58 67/67/67 66/66/66
f 57/57/57 67/67/67 56/56/56
f 58/58/58 56/56/56 67/67/67
f 69/69/69 71/71/71 70/70/70
f 69/69/69 68/68/68 71/71/71
f 74/74/74 73/73/73 75/75/75
f 74/74/74 75/75/75 72/72/72
