# Rhino

mtllib Sofa_15_07.mtl
usemtl Default
v -0.33282674470499973 0.016809457020000002 -0.0011356469162500105
v -0.33282674470499973 0 -0.021306995339800849
v -0.33282674470499973 0.016809457020000002 -0.021306995339800849
v -0.33282674470499973 0 -0.0011356469162500105
v -0.33282674470499973 0.016809457020000002 -0.0011356469162500105
v -0.35299809312899999 0 -0.0011356469162500105
v -0.33282674470499973 0 -0.0011356469162500105
v -0.35299809312899999 0.016809457020000002 -0.0011356469162500105
v -0.35299809312899999 0.016809457020000002 -0.021306995339800849
v -0.35299809312899999 0 -0.0011356469162500105
v -0.35299809312899999 0.016809457020000002 -0.0011356469162500105
v -0.35299809312899999 0 -0.021306995339800849
v -0.35299809312899999 0.016809457020000002 -0.021306995339800849
v -0.33282674470499973 0 -0.021306995339800849
v -0.35299809312899999 0 -0.021306995339800849
v -0.33282674470499973 0.016809457020000002 -0.021306995339800849
v -0.33282674470499973 0 -0.021306995339800849
v -0.35299809312899999 0 -0.0011356469162500105
v -0.35299809312899999 0 -0.021306995339800849
v -0.33282674470499973 0 -0.0011356469162500105
v -0.35299809312899999 0.016809457020000002 -0.0011356469162500105
v -0.35299809312899999 0.016809457020000002 -0.021306995339800849
v -0.34291241891699986 0.016809457020000002 -0.011221321128026318
v -0.33282674470499973 0.016809457020000002 -0.0011356469162500105
v -0.33282674470499973 0.016809457020000002 -0.021306995339800849
vt 30.940099716186523 1.968500018119812
vt 33.302299499511719 0
vt 33.302299499511719 1.968500018119812
vt 30.940099716186523 0
vt 8.2677202224731445 1.968500018119812
vt 5.9055099487304688 0
vt 8.2677202224731445 0
vt 5.9055099487304688 1.968500018119812
vt -33.302299499511719 1.968500018119812
vt -30.940099716186523 0
vt -30.940099716186523 1.968500018119812
vt -33.302299499511719 0
vt -5.9055099487304688 1.968500018119812
vt -8.2677202224731445 0
vt -5.9055099487304688 0
vt -8.2677202224731445 1.968500018119812
vt -8.2677202224731445 33.302299499511719
vt -5.9055099487304688 30.940099716186523
vt -5.9055099487304688 33.302299499511719
vt -8.2677202224731445 30.940099716186523
vt 0 0
vt 0 1
vt 0.5 0.5
vt 1 0
vt 1 1
vn 1 0 0
vn 1 0 0
vn 1 0 0
vn 1 0 0
vn 0 0 1
vn 0 0 1
vn 0 0 1
vn 0 0 1
vn -1 0 0
vn -1 0 0
vn -1 0 0
vn -1 0 0
vn 0 0 -1
vn 0 0 -1
vn 0 0 -1
vn 0 0 -1
vn 0 -1 0
vn 0 -1 0
vn 0 -1 0
vn 0 -1 0
vn 0 1 0
vn 0 1 0
vn 0 1 0
vn 0 1 0
vn 0 1 0
f 1/1/1 2/2/2 3/3/3
f 2/2/2 1/1/1 4/4/4
f 5/5/5 6/6/6 7/7/7
f 6/6/6 5/5/5 8/8/8
f 9/9/9 10/10/10 11/11/11
f 10/10/10 9/9/9 12/12/12
f 13/13/13 14/14/14 15/15/15
f 14/14/14 13/13/13 16/16/16
f 17/17/17 18/18/18 19/19/19
f 18/18/18 17/17/17 20/20/20
f 23/23/23 22/22/22 21/21/21
f 25/25/25 23/23/23 24/24/24
f 21/21/21 24/24/24 23/23/23
f 22/22/22 23/23/23 25/25/25
