# Rhino

mtllib Sofa_10_01.mtl
usemtl Default
v -0.26305417563099986 0.0070222086560000063 0.2561827427899992
v -0.27101030368400014 0.00058719864000000843 0.26069711066699952
v -0.27101030368400014 0.0076100434810000284 0.25942537710099955
v -0.26305417563099986 0 0.25745447635599916
v -0.26305417563099986 0 0.25745447635599916
v -0.27101030368400014 0.0034233108150000247 0.27635362045399958
v -0.27101030368400014 0.00058719864000000843 0.26069711066699952
v -0.26305417563099986 0.0040105094549999776 0.27959625476499994
v -0.26305417563099986 0.0040105094549999776 0.27959625476499994
v -0.27101030368400014 0.010446155655999989 0.27508188688799962
v -0.27101030368400014 0.0034233108150000247 0.27635362045399958
v -0.26305417563099986 0.011033354295999998 0.27832452119799989
v -0.27101030368400014 0.00058719864000000843 0.26069711066699952
v -0.27430510515499984 0.0090280995690000254 0.26725299580900064
v -0.27101030368400014 0.0076100434810000284 0.25942537710099955
v -0.27430510515499984 0.0020052547280000055 0.2685253655600004
v -0.27430510515499984 0.0020052547280000055 0.2685253655600004
v -0.27101030368400014 0.010446155655999989 0.27508188688799962
v -0.27430510515499984 0.0020052547280000055 0.2685253655600004
v -0.27101030368400014 0.0034233108150000247 0.27635362045399958
v -0.27430510515499984 0.0090280995690000254 0.26725299580900064
v -0.25509868376200018 0.0076100434810000284 0.25942537710099955
v -0.25180388229200013 0.0090280995690000254 0.26725299580900064
v -0.25509868376200018 0.00058719864000000843 0.26069711066699952
v -0.25180388229200013 0.0020052547280000055 0.2685253655600004
v -0.25180388229200013 0.0020052547280000055 0.2685253655600004
v -0.25509868376200018 0.0034233108150000247 0.27635362045399958
v -0.25509868376200018 0.00058719864000000843 0.26069711066699952
v -0.25509868376200018 0.0034233108150000247 0.27635362045399958
v -0.25180388229200013 0.0020052547280000055 0.2685253655600004
v -0.25509868376200018 0.010446155655999989 0.27508188688799962
v -0.25180388229200013 0.0090280995690000254 0.26725299580900064
v -0.26305417563099986 0.011033354295999998 0.27832452119799989
v -0.26305417563099986 0.0040105094549999776 0.27959625476499994
v -0.25509868376200018 0.010446155655999989 0.27508188688799962
v -0.25509868376200018 0.0034233108150000247 0.27635362045399958
v -0.26305417563099986 0.0040105094549999776 0.27959625476499994
v -0.26305417563099986 0 0.25745447635599916
v -0.26305417563099986 0 0.25745447635599916
v -0.26305417563099986 0.0070222086560000063 0.2561827427899992
v -0.25509868376200018 0.00058719864000000843 0.26069711066699952
v -0.25509868376200018 0.0076100434810000284 0.25942537710099955
v -0.27430510515499984 0.0090280995690000254 0.26725299580900064
v -0.27101030368400014 0.010446155655999989 0.27508188688799962
v -0.27101030368400014 0.0076100434810000284 0.25942537710099955
v -0.26305449372349976 0.0090277814760000019 0.26725363199399865
v -0.26305417563099986 0.011033354295999998 0.27832452119799989
v -0.26305417563099986 0.0070222086560000063 0.2561827427899992
v -0.25509868376200018 0.010446155655999989 0.27508188688799962
v -0.25509868376200018 0.0076100434810000284 0.25942537710099955
v -0.25180388229200013 0.0090280995690000254 0.26725299580900064
vt 83.825698852539062 -29.998300552368164
vt 87.488998413085938 -32.629199981689453
vt 87.289901733398438 -29.758199691772461
vt 84.024803161621094 -32.869400024414062
vt 0 213.10200500488281
vt -3.2081999778747559 220.84700012207031
vt -3.2081999778747559 214.43099975585938
vt 0 222.17599487304688
vt 87.488998413085938 -32.629199981689453
vt 83.825698852539062 -29.998300552368164
vt 84.024803161621094 -32.869400024414062
vt 87.289901733398438 -29.758199691772461
vt 202.97300720214844 -5.1701998710632324
vt 205.92300415039062 -1.7585999965667725
vt 202.49800109863281 -2.3317000865936279
vt 206.39799499511719 -4.597099781036377
vt -4.5370001792907715 217.63900756835938
vt 205.92300415039062 -1.7585999965667725
vt 202.97300720214844 -5.1701998710632324
vt 206.39799499511719 -4.597099781036377
vt 202.49800109863281 -2.3317000865936279
vt 202.49800109863281 -2.3317000865936279
vt 205.92300415039062 -1.7585999965667725
vt 202.97300720214844 -5.1701998710632324
vt 206.39799499511719 -4.597099781036377
vt -4.5370001792907715 217.63900756835938
vt -3.2081999778747559 220.84700012207031
vt -3.2081999778747559 214.43099975585938
vt 206.39799499511719 -4.597099781036377
vt 202.97300720214844 -5.1701998710632324
vt 205.92300415039062 -1.7585999965667725
vt 202.49800109863281 -2.3317000865936279
vt 87.289901733398438 -29.758199691772461
vt 87.488998413085938 -32.629199981689453
vt 83.825698852539062 -29.998300552368164
vt 84.024803161621094 -32.869400024414062
vt 0 222.17599487304688
vt 0 213.10200500488281
vt 84.024803161621094 -32.869400024414062
vt 83.825698852539062 -29.998300552368164
vt 87.488998413085938 -32.629199981689453
vt 87.289901733398438 -29.758199691772461
vt 1 0.49997469782829285
vt 0.8535723090171814 0.85355311632156372
vt 0.8535723090171814 0.1464519202709198
vt 0.5 0.5
vt 0.49998587369918823 1
vt 0.49998587369918823 0
vt 0.14642766118049622 0.85355311632156372
vt 0.14642766118049622 0.1464519202709198
vt 0 0.49997469782829285
vn -0.38267844915390015 -0.1646239310503006 -0.909096360206604
vn -0.38267844915390015 -0.1646239310503006 -0.909096360206604
vn -0.38267844915390015 -0.1646239310503006 -0.909096360206604
vn -0.38267844915390015 -0.1646239310503006 -0.909096360206604
vn 2.3645920009585097E-05 -0.98398613929748535 0.17824502289295197
vn 2.3645920009585097E-05 -0.98398613929748535 0.17824502289295197
vn 2.3645920009585097E-05 -0.98398613929748535 0.17824502289295197
vn 2.3645920009585097E-05 -0.98398613929748535 0.17824502289295197
vn -0.38266721367835999 0.16462476551532745 0.90910094976425171
vn -0.38266721367835999 0.16462476551532745 0.90910094976425171
vn -0.38266721367835999 0.16462476551532745 0.90910094976425171
vn -0.38266721367835999 0.16462476551532745 0.90910094976425171
vn -0.92389100790023804 -0.068184375762939453 -0.37653189897537231
vn -0.92389100790023804 -0.068184375762939453 -0.37653189897537231
vn -0.92389100790023804 -0.068184375762939453 -0.37653189897537231
vn -0.92389100790023804 -0.068184375762939453 -0.37653189897537231
vn 2.3645920009585097E-05 -0.98398613929748535 0.17824502289295197
vn -0.92390167713165283 0.068179793655872345 0.37650662660598755
vn -0.92390167713165283 0.068179793655872345 0.37650662660598755
vn -0.92390167713165283 0.068179793655872345 0.37650662660598755
vn -0.92390167713165283 0.068179793655872345 0.37650662660598755
vn 0.92389100790023804 -0.068184375762939453 -0.37653189897537231
vn 0.92389100790023804 -0.068184375762939453 -0.37653189897537231
vn 0.92389100790023804 -0.068184375762939453 -0.37653189897537231
vn 0.92389100790023804 -0.068184375762939453 -0.37653189897537231
vn 0 -0.98398613929748535 0.17824502289295197
vn 0 -0.98398613929748535 0.17824502289295197
vn 0 -0.98398613929748535 0.17824502289295197
vn 0.92390167713165283 0.068179793655872345 0.37650662660598755
vn 0.92390167713165283 0.068179793655872345 0.37650662660598755
vn 0.92390167713165283 0.068179793655872345 0.37650662660598755
vn 0.92390167713165283 0.068179793655872345 0.37650662660598755
vn 0.38269332051277161 0.16462282836437225 0.90909028053283691
vn 0.38269332051277161 0.16462282836437225 0.90909028053283691
vn 0.38269332051277161 0.16462282836437225 0.90909028053283691
vn 0.38269332051277161 0.16462282836437225 0.90909028053283691
vn 0 -0.98398613929748535 0.17824502289295197
vn 0 -0.98398613929748535 0.17824502289295197
vn 0.38269332051277161 -0.16463728249073029 -0.9090876579284668
vn 0.38269332051277161 -0.16463728249073029 -0.9090876579284668
vn 0.38269332051277161 -0.16463728249073029 -0.9090876579284668
vn 0.38269332051277161 -0.16463728249073029 -0.9090876579284668
vn 3.7899801100138575E-05 0.98398613929748535 -0.17824503779411316
vn 3.3071482903324068E-05 0.98398500680923462 -0.17825119197368622
vn 4.4169253669679165E-05 0.98398524522781372 -0.1782497763633728
vn -5.5797499953769147E-10 0.98398512601852417 -0.17825049161911011
vn -7.9853634815663099E-10 0.98398417234420776 -0.17825594544410706
vn -1.4260876923799515E-09 0.98398417234420776 -0.17825594544410706
vn -3.3072283258661628E-05 0.98398500680923462 -0.17825119197368622
vn -4.4170679757371545E-05 0.98398524522781372 -0.1782497763633728
vn -3.7899801100138575E-05 0.98398613929748535 -0.17824503779411316
f 1/1/1 2/2/2 3/3/3
f 2/2/2 1/1/1 4/4/4
f 5/5/5 6/6/6 7/7/7
f 6/6/6 5/5/5 8/8/8
f 9/9/9 10/10/10 11/11/11
f 10/10/10 9/9/9 12/12/12
f 13/13/13 14/14/14 15/15/15
f 14/14/14 13/13/13 16/16/16
f 7/7/7 6/6/6 17/17/17
f 18/18/18 19/19/19 20/20/20
f 19/19/19 18/18/18 21/21/21
f 22/22/22 23/23/23 24/24/24
f 25/25/25 24/24/24 23/23/23
f 26/26/26 27/27/27 28/28/28
f 29/29/29 30/30/30 31/31/31
f 32/32/32 31/31/31 30/30/30
f 33/33/33 34/34/34 35/35/35
f 36/36/36 35/35/35 34/34/34
f 37/37/37 38/38/38 27/27/27
f 28/28/28 27/27/27 38/38/38
f 39/39/39 40/40/40 41/41/41
f 42/42/42 41/41/41 40/40/40
f 46/46/46 51/51/51 50/50/50
f 51/51/51 46/46/46 49/49/49
f 48/48/48 46/46/46 50/50/50
f 46/46/46 45/45/45 43/43/43
f 44/44/44 47/47/47 46/46/46
f 49/49/49 46/46/46 47/47/47
f 43/43/43 44/44/44 46/46/46
f 48/48/48 45/45/45 46/46/46
