# Rhino

mtllib Sofa_15_06.mtl
usemtl Default
v 0.16839125711199987 0.016809457020000002 -0.22100334473300087
v 0.16839125711199987 0 -0.24117469315699935
v 0.16839125711199987 0.016809457020000002 -0.24117469315699935
v 0.16839125711199987 0 -0.22100334473300087
v 0.16839125711199987 0.016809457020000002 -0.22100334473300087
v 0.1482199086889997 0 -0.22100334473300087
v 0.16839125711199987 0 -0.22100334473300087
v 0.1482199086889997 0.016809457020000002 -0.22100334473300087
v 0.1482199086889997 0.016809457020000002 -0.24117469315699935
v 0.1482199086889997 0 -0.22100334473300087
v 0.1482199086889997 0.016809457020000002 -0.22100334473300087
v 0.1482199086889997 0 -0.24117469315699935
v 0.1482199086889997 0.016809457020000002 -0.24117469315699935
v 0.16839125711199987 0 -0.24117469315699935
v 0.1482199086889997 0 -0.24117469315699935
v 0.16839125711199987 0.016809457020000002 -0.24117469315699935
v 0.16839125711199987 0 -0.24117469315699935
v 0.1482199086889997 0 -0.22100334473300087
v 0.1482199086889997 0 -0.24117469315699935
v 0.16839125711199987 0 -0.22100334473300087
v 0.1482199086889997 0.016809457020000002 -0.22100334473300087
v 0.1482199086889997 0.016809457020000002 -0.24117469315699935
v 0.15830558290049979 0.016809457020000002 -0.23108901894499922
v 0.16839125711199987 0.016809457020000002 -0.22100334473300087
v 0.16839125711199987 0.016809457020000002 -0.24117469315699935
vt 56.688098907470703 1.968500018119812
vt 59.050300598144531 0
vt 59.050300598144531 1.968500018119812
vt 56.688098907470703 0
vt 66.963897705078125 1.968500018119812
vt 64.601699829101562 0
vt 66.963897705078125 0
vt 64.601699829101562 1.968500018119812
vt -59.050300598144531 1.968500018119812
vt -56.688098907470703 0
vt -56.688098907470703 1.968500018119812
vt -59.050300598144531 0
vt -64.601699829101562 1.968500018119812
vt -66.963897705078125 0
vt -64.601699829101562 0
vt -66.963897705078125 1.968500018119812
vt -66.963897705078125 59.050300598144531
vt -64.601699829101562 56.688098907470703
vt -64.601699829101562 59.050300598144531
vt -66.963897705078125 56.688098907470703
vt 0 0
vt 0 1
vt 0.5 0.5
vt 1 0
vt 1 1
vn 1 0 0
vn 1 0 0
vn 1 0 0
vn 1 0 0
vn 0 0 1
vn 0 0 1
vn 0 0 1
vn 0 0 1
vn -1 0 0
vn -1 0 0
vn -1 0 0
vn -1 0 0
vn 0 0 -1
vn 0 0 -1
vn 0 0 -1
vn 0 0 -1
vn 0 -1 0
vn 0 -1 0
vn 0 -1 0
vn 0 -1 0
vn 0 1 0
vn 0 1 0
vn 0 1 0
vn 0 1 0
vn 0 1 0
f 1/1/1 2/2/2 3/3/3
f 2/2/2 1/1/1 4/4/4
f 5/5/5 6/6/6 7/7/7
f 6/6/6 5/5/5 8/8/8
f 9/9/9 10/10/10 11/11/11
f 10/10/10 9/9/9 12/12/12
f 13/13/13 14/14/14 15/15/15
f 14/14/14 13/13/13 16/16/16
f 17/17/17 18/18/18 19/19/19
f 18/18/18 17/17/17 20/20/20
f 23/23/23 22/22/22 21/21/21
f 25/25/25 23/23/23 24/24/24
f 21/21/21 24/24/24 23/23/23
f 22/22/22 23/23/23 25/25/25
