# Rhino

mtllib Sofa_02_02.mtl
usemtl Default
v 0.36435445876299699 0.21825561859987883 0.18157177696599991
v 0.36606344690400006 0.22776974015850002 -0.17407548532600003
v 0.36462183486200006 0.2183508773143 -0.17407548532600003
v 0.36579607080499699 0.22767448144407884 0.18157177696599991
v 0.36579607080499699 0.22767448144407884 0.18157177696599991
v 0.37028944617600001 0.23654678375720001 -0.17407548532600003
v 0.36606344690400006 0.22776974015850002 -0.17407548532600003
v 0.37002207007699695 0.23645152504277883 0.18157177696599991
v 0.37002207007699695 0.23645152504277883 0.18157177696599991
v 0.37701283360599991 0.24408361091450001 -0.17407548532600003
v 0.37028944617600001 0.23654678375720001 -0.17407548532600003
v 0.37674545750699684 0.24398835220007883 0.18157177696599991
v 0.37701283360599991 0.24408361091450001 -0.17407548532600003
v 0.38550720000199701 0.24977175564567883 0.18157177696599991
v 0.38577457610100008 0.2498670143601 -0.17407548532600003
v 0.37674545750699684 0.24398835220007883 0.18157177696599991
v 0.38577457610100008 0.2498670143601 -0.17407548532600003
v 0.39571034776899694 0.25340721504417885 0.18157177696599991
v 0.39597772386800001 0.25350247375860002 -0.17407548532600003
v 0.38550720000199701 0.24977175564567883 0.18157177696599991
v 0.41787666268900003 0.18319928087002002 0.18157177696599991
v 0.42807994444300013 0.18683474026863001 -0.17407548532600003
v 0.42807994444300013 0.18683474026863001 0.18157177696599991
v 0.41787666268900003 0.18319928087002002 -0.17407548532600003
v 0.42807994444300013 0.18683474026863001 0.18157177696599991
v 0.43684167701400001 0.19261814371420002 -0.17407548532600003
v 0.43684167701400001 0.19261814371420002 0.18157177696599991
v 0.42807994444300013 0.18683474026863001 -0.17407548532600003
v 0.43684167701400001 0.19261814371420002 -0.17407548532600003
v 0.44356481631799993 0.20015497087150003 0.18157177696599991
v 0.43684167701400001 0.19261814371420002 0.18157177696599991
v 0.44356481631799993 0.20015497087150003 -0.17407548532600003
v 0.44356481631799993 0.20015497087150003 -0.17407548532600003
v 0.44779114642499995 0.20893201447020002 0.18157177696599991
v 0.44356481631799993 0.20015497087150003 0.18157177696599991
v 0.44779114642499995 0.20893201447020002 -0.17407548532600003
v 0.44779114642499995 0.20893201447020002 -0.17407548532600003
v 0.44923267575800008 0.2183508773143 0.18157177696599991
v 0.44779114642499995 0.20893201447020002 0.18157177696599991
v 0.44923267575800008 0.2183508773143 -0.17407548532600003
v 0.44923267575800008 0.2183508773143 -0.17407548532600003
v 0.44779114642499995 0.22776974015850002 0.18157177696599991
v 0.44923267575800008 0.2183508773143 0.18157177696599991
v 0.44779114642499995 0.22776974015850002 -0.17407548532600003
v 0.44356481631799993 0.23654678375720001 -0.17407548532600003
v 0.43684167701400001 0.24408361091450001 0.18157177696599991
v 0.44356481631799993 0.23654678375720001 0.18157177696599991
v 0.43684167701400001 0.24408361091450001 -0.17407548532600003
v 0.44356481631799993 0.23654678375720001 0.18157177696599991
v 0.44779114642499995 0.22776974015850002 -0.17407548532600003
v 0.44356481631799993 0.23654678375720001 -0.17407548532600003
v 0.44779114642499995 0.22776974015850002 0.18157177696599991
v 0.43684167701400001 0.24408361091450001 0.18157177696599991
v 0.42807994444300013 0.2498670143601 -0.17407548532600003
v 0.42807994444300013 0.2498670143601 0.18157177696599991
v 0.43684167701400001 0.24408361091450001 -0.17407548532600003
v 0.42807994444300013 0.2498670143601 0.18157177696599991
v 0.41787666268900003 0.25350247375860002 -0.17407548532600003
v 0.41787666268900003 0.25350247375860002 0.18157177696599991
v 0.42807994444300013 0.2498670143601 -0.17407548532600003
v 0.40692719327899995 0.25474269020009999 0.18157177696599991
v 0.39597772386800001 0.25350247375860002 0.18157177696599991
v 0.41787666268900003 0.25350247375860002 0.18157177696599991
v 0.40692719327899995 0.25474269020009999 0.18157177696599991
v 0.39597772386800001 0.25350247375860002 -0.17407548532600003
v 0.39597772386800001 0.25350247375860002 0.18157177696599991
v 0.40692719327899995 0.25474269020009999 -0.17407548532600003
v 0.41787666268900003 0.25350247375860002 0.18157177696599991
v 0.40692719327899995 0.25474269020009999 -0.17407548532600003
v 0.40692719327899995 0.25474269020009999 0.18157177696599991
v 0.41787666268900003 0.25350247375860002 -0.17407548532600003
v 0.41787666268900003 0.18319928087002002 -0.17407548532600003
v 0.36462183486200006 0.2183508773143 -0.17407548532600003
v 0.42807994444300013 0.18683474026863001 -0.17407548532600003
v 0.43684167701400001 0.19261814371420002 -0.17407548532600003
v 0.44356481631799993 0.20015497087150003 -0.17407548532600003
v 0.44779114642499995 0.20893201447020002 -0.17407548532600003
v 0.44923267575800008 0.2183508773143 -0.17407548532600003
v 0.36606344690400006 0.22776974015850002 -0.17407548532600003
v 0.44779114642499995 0.22776974015850002 -0.17407548532600003
v 0.37028944617600001 0.23654678375720001 -0.17407548532600003
v 0.44356481631799993 0.23654678375720001 -0.17407548532600003
v 0.37701283360599991 0.24408361091450001 -0.17407548532600003
v 0.43684167701400001 0.24408361091450001 -0.17407548532600003
v 0.38577457610100008 0.2498670143601 -0.17407548532600003
v 0.42807994444300013 0.2498670143601 -0.17407548532600003
v 0.39597772386800001 0.25350247375860002 -0.17407548532600003
v 0.41787666268900003 0.25350247375860002 -0.17407548532600003
v 0.40692719327899995 0.25474269020009999 -0.17407548532600003
v 0.36462187767028809 0.18683474026863001 0.18157177696599991
v 0.36462187767028809 0.18656203253451309 0.18157177696599991
v 0.42807994444300013 0.18683474026863001 0.18157177696599991
v 0.36462187767028809 0.18656203253451309 0.18157177696599991
v 0.36462187767028786 0.18319928087001999 0.18157177696599991
v 0.41787666268900003 0.18319928087002002 0.18157177696599991
v 0.36462187767028831 0.19261814371420005 0.18157177696599947
v 0.36462187767028809 0.19213523725100853 0.18157177696599991
v 0.43684167701400001 0.19261814371420002 0.18157177696599991
v 0.36462187767028809 0.19213523725100853 0.18157177696599991
v 0.36462187767028809 0.18683474026863001 0.18157177696599991
v 0.44356481631799993 0.23654678375720001 0.18157177696599991
v 0.37028944492340088 0.23654678463935852 0.18157177696599991
v 0.36994038595483203 0.23582181402409219 0.18157177696599991
v 0.36821871245942361 0.23224602080390538 0.18157177696599991
v 0.44779114642499995 0.22776974015850002 0.18157177696599991
v 0.36606347560882568 0.22776974737644196 0.18157177696599991
v 0.36994038595483203 0.23582181402409219 0.18157177696599991
v 0.36606347560882568 0.22776974737644196 0.18157177696599991
v 0.36593191953555948 0.22691020799052758 0.18157177696599991
v 0.36535709006053585 0.22315448192102794 0.18157177696599991
v 0.44923267575800008 0.2183508773143 0.18157177696599991
v 0.36462187842283655 0.2183508773143 0.18157177696599991
v 0.36593191953555948 0.22691020799052758 0.18157177696599991
v 0.36462187842283655 0.2183508773143 0.18157177696599991
v 0.36462187767028809 0.21746245158278574 0.18157177696599991
v 0.36462187767028809 0.21746245158278574 0.18157177696599991
v 0.36462187767028809 0.20893201447020004 0.18157177696599947
v 0.44779114642499995 0.20893201447020002 0.18157177696599991
v 0.36462187767028809 0.20893201447020004 0.18157177696599947
v 0.36462187767028786 0.20811305793811957 0.18157177696599991
v 0.36462187767028786 0.20811305793811957 0.18157177696599991
v 0.36462187767028809 0.2001549708715 0.18157177696599991
v 0.44356481631799993 0.20015497087150003 0.18157177696599991
v 0.36462187767028809 0.2001549708715 0.18157177696599991
v 0.36462187767028809 0.19947917116992353 0.18157177696599991
v 0.36462187767028809 0.19947917116992353 0.18157177696599991
v 0.36462187767028831 0.19261814371420005 0.18157177696599947
v 0.43684167701400001 0.24408361091450001 0.18157177696599991
v 0.37701284885406494 0.24408361315727234 0.18157177696599991
v 0.37655243487864776 0.24356749643786119 0.18157177696599991
v 0.37371836899600241 0.24039055380787128 0.18157177696599991
v 0.37028944492340088 0.23654678463935852 0.18157177696599991
v 0.37655243487864776 0.24356749643786119 0.18157177696599991
v 0.38577463270051582 0.2498670143601 0.18157177696599991
v 0.38534167934331154 0.24958124017089647 0.18157177696599947
v 0.42807994444300013 0.2498670143601 0.18157177696599991
v 0.38148133272662044 0.24703313382279951 0.18157177696599991
v 0.37701284885406494 0.24408361315727234 0.18157177696599991
v 0.38534167934331154 0.24958124017089647 0.18157177696599947
v 0.39597772386800001 0.25350247375860002 0.18157177696599991
v 0.39571034776899694 0.25340721504417885 0.18157177696599991
v 0.41787666268900003 0.25350247375860002 0.18157177696599991
v 0.390978187096509 0.25172109599442288 0.18157177696599991
v 0.38577463270051582 0.2498670143601 0.18157177696599991
v 0.39571034776899694 0.25340721504417885 0.18157177696599991
v 0.36462187767028786 0.17847856289983324 0.18157177696599991
v 0.36462187767028786 0.18319928087001999 0.18157177696599991
v 0.36462187767028809 0.16854150614933661 0.18157177696599991
v 0.36462187767028786 0.17847856289983324 0.18157177696599991
v 0.36462183486200006 0 -0.17407548532600003
v 0.36448850096958063 0 0.0032770678250599872
v 0.36462183486200006 0.2183508773143 -0.17407548532600003
v 0.36435445876299699 0.21825561859987883 0.18157177696599991
v 0.36435445876299721 0 0.18157177696599947
v 0.41787666268900026 0 0.18157177696599991
v 0.41787666268899981 0 0.17074325562877979
v 0.41787666268900003 0.18319928087002002 0.18157177696599991
v 0.41787666268900003 0 0.12977668893120775
v 0.41787666268899981 0 0.17074325562877979
v 0.41787666268900003 0 0.12977668893120775
v 0.41787666268900026 0 0.025537140203828912
v 0.41787666268900003 0 -0.17407548532600003
v 0.41787666268900003 0.18319928087002002 -0.17407548532600003
v 0.39364445638498968 0 -0.17407548532600003
v 0.36462183486200006 0 -0.17407548532600003
v 0.41787666268900003 0 -0.17407548532600003
v 0.39364445638498968 0 -0.17407548532600003
v 0.36462187767028809 0.16854150614933661 0.18157177696599991
v 0.41787666268900026 0 0.18157177696599991
v 0.38689916918378908 0 0.18157177696600035
v 0.38689916918378908 0 0.18157177696600035
v 0.36462187767028809 0 0.18157177696599991
v 0.41787666268900003 0 0.12977668893120775
v 0.36448816821664254 0 0.18157177696599991
v 0.36448850096958063 0 0.0032770678250599872
v 0.36462183486200006 0 -0.17407548532600003
v 0.39364445638498968 0 -0.17407548532600003
v 0.41787666268900003 0 -0.17407548532600003
v 0.38689916918378908 0 0.18157177696600035
v 0.41787666268899981 0 0.17074325562877979
v 0.41787666268900026 0 0.18157177696599991
v 0.41787666268900026 0 0.025537140203828912
vn -0.98848855495452881 0.15129396319389343 -0.00070262356894090772
vn -0.98848855495452881 0.15129396319389343 -0.00070262356894090772
vn -0.98848855495452881 0.15129396319389343 -0.00070262356894090772
vn -0.98848855495452881 0.15129396319389343 -0.00070262356894090772
vn -0.90100091695785522 0.4338168203830719 -0.00056117761414498091
vn -0.90100091695785522 0.4338168203830719 -0.00056117761414498091
vn -0.90100091695785522 0.4338168203830719 -0.00056117761414498091
vn -0.90100091695785522 0.4338168203830719 -0.00056117761414498091
vn -0.74622887372970581 0.66568934917449951 -0.0003827136242762208
vn -0.74622887372970581 0.66568934917449951 -0.0003827136242762208
vn -0.74622887372970581 0.66568934917449951 -0.0003827136242762208
vn -0.74622887372970581 0.66568934917449951 -0.0003827136242762208
vn -0.55088555812835693 0.83458077907562256 -0.00019061734201386571
vn -0.55088555812835693 0.83458077907562256 -0.00019061734201386571
vn -0.55088555812835693 0.83458077907562256 -0.00019061734201386571
vn -0.55088555812835693 0.83458077907562256 -0.00019061734201386571
vn -0.33563852310180664 0.94199085235595703 -2.4976152701583487E-08
vn -0.33563852310180664 0.94199085235595703 -2.4976152701583487E-08
vn -0.33563852310180664 0.94199085235595703 -2.4976152701583487E-08
vn -0.33563852310180664 0.94199085235595703 -2.4976152701583487E-08
vn 0.33563461899757385 -0.94199222326278687 0
vn 0.33563461899757385 -0.94199222326278687 0
vn 0.33563461899757385 -0.94199222326278687 0
vn 0.33563461899757385 -0.94199222326278687 0
vn 0.55088597536087036 -0.83458048105239868 0
vn 0.55088597536087036 -0.83458048105239868 0
vn 0.55088597536087036 -0.83458048105239868 0
vn 0.55088597536087036 -0.83458048105239868 0
vn 0.74624109268188477 -0.66567575931549072 0
vn 0.74624109268188477 -0.66567575931549072 0
vn 0.74624109268188477 -0.66567575931549072 0
vn 0.74624109268188477 -0.66567575931549072 0
vn 0.90098780393600464 -0.43384447693824768 0
vn 0.90098780393600464 -0.43384447693824768 0
vn 0.90098780393600464 -0.43384447693824768 0
vn 0.90098780393600464 -0.43384447693824768 0
vn 0.98849010467529297 -0.15128551423549652 0
vn 0.98849010467529297 -0.15128551423549652 0
vn 0.98849010467529297 -0.15128551423549652 0
vn 0.98849010467529297 -0.15128551423549652 0
vn 0.98849010467529297 0.15128551423549652 0
vn 0.98849010467529297 0.15128551423549652 0
vn 0.98849010467529297 0.15128551423549652 0
vn 0.98849010467529297 0.15128551423549652 0
vn 0.74624109268188477 0.66567575931549072 0
vn 0.74624109268188477 0.66567575931549072 0
vn 0.74624109268188477 0.66567575931549072 0
vn 0.74624109268188477 0.66567575931549072 0
vn 0.90098780393600464 0.43384447693824768 0
vn 0.90098780393600464 0.43384447693824768 0
vn 0.90098780393600464 0.43384447693824768 0
vn 0.90098780393600464 0.43384447693824768 0
vn 0.55088597536087036 0.83458048105239868 0
vn 0.55088597536087036 0.83458048105239868 0
vn 0.55088597536087036 0.83458048105239868 0
vn 0.55088597536087036 0.83458048105239868 0
vn 0.33563461899757385 0.94199222326278687 0
vn 0.33563461899757385 0.94199222326278687 0
vn 0.33563461899757385 0.94199222326278687 0
vn 0.33563461899757385 0.94199222326278687 0
vn 0 0 1
vn 0 0 1
vn 0 0 1
vn -0.11254759877920151 0.99364632368087769 0
vn -0.11254759877920151 0.99364632368087769 0
vn -0.11254759877920151 0.99364632368087769 0
vn -0.11254759877920151 0.99364632368087769 0
vn 0.11254759877920151 0.99364632368087769 0
vn 0.11254759877920151 0.99364632368087769 0
vn 0.11254759877920151 0.99364632368087769 0
vn 0.11254759877920151 0.99364632368087769 0
vn 0 0 -1
vn 0 0 -1
vn 0 0 -1
vn 0 0 -1
vn 0 0 -1
vn 0 0 -1
vn 0 0 -1
vn 0 0 -1
vn 0 0 -1
vn 0 0 -1
vn 0 0 -1
vn 0 0 -1
vn 0 0 -1
vn 0 0 -1
vn 0 0 -1
vn 0 0 -1
vn 0 0 -1
vn 0 0 -1
vn 0 0 1
vn 0 0 1
vn 0 0 1
vn 0 0 1
vn 0 0 1
vn 0 0 1
vn 0 0 1
vn 0 0 1
vn 0 0 1
vn 0 0 1
vn 0 0 1
vn 0 0 1
vn 0 0 1
vn 0 0 1
vn 0 0 1
vn 0 0 1
vn 0 0 1
vn 0 0 1
vn 0 0 1
vn 0 0 1
vn 0 0 1
vn 0 0 1
vn 0 0 1
vn 0 0 1
vn 0 0 1
vn 0 0 1
vn 0 0 1
vn 0 0 1
vn 0 0 1
vn 0 0 1
vn 0 0 1
vn 0 0 1
vn 0 0 1
vn 0 0 1
vn 0 0 1
vn 0 0 1
vn 0 0 1
vn 0 0 1
vn 0 0 1
vn 0 0 1
vn 0 0 1
vn 0 0 1
vn 0 0 1
vn 0 0 1
vn 0 0 1
vn 0 0 1
vn 0 0 1
vn 0 0 1
vn 0 0 1
vn 0 0 1
vn 0 0 1
vn 0 0 1
vn 0 0 1
vn 0 0 1
vn 0 0 1
vn 0 0 1
vn 0 0 1
vn 0 0 1
vn 0 0 1
vn 0 0 1
vn -0.99999970197677612 0 -0.00075180124258622527
vn -0.99999970197677612 0 -0.00075180118437856436
vn -0.99999970197677612 0 -0.00075180118437856436
vn -0.99999970197677612 0 -0.00075180118437856436
vn -0.99999970197677612 0 -0.00075180118437856436
vn 1 0 0
vn 1 0 0
vn 1 0 0
vn 1 0 0
vn 1 0 0
vn 1 0 0
vn 1 0 0
vn 1 0 0
vn 1 0 0
vn 0 0 -1
vn 0 0 -1
vn 0 0 -1
vn 0 0 -1
vn 0 0 1
vn 0 0 1
vn 0 0 1
vn 0 0 1
vn 0 0 1
vn 0 -1 0
vn 0 -1 0
vn 0 -1 0
vn 0 -1 0
vn 0 -1 0
vn 0 -1 0
vn 0 -1 0
vn 0 -1 0
vn 0 -1 0
vn 0 -1 0
f 1//1 2//2 3//3
f 2//2 1//1 4//4
f 5//5 6//6 7//7
f 6//6 5//5 8//8
f 9//9 10//10 11//11
f 10//10 9//9 12//12
f 13//13 14//14 15//15
f 14//14 13//13 16//16
f 17//17 18//18 19//19
f 18//18 17//17 20//20
f 21//21 22//22 23//23
f 22//22 21//21 24//24
f 25//25 26//26 27//27
f 26//26 25//25 28//28
f 29//29 30//30 31//31
f 30//30 29//29 32//32
f 33//33 34//34 35//35
f 34//34 33//33 36//36
f 37//37 38//38 39//39
f 38//38 37//37 40//40
f 41//41 42//42 43//43
f 42//42 41//41 44//44
f 45//45 46//46 47//47
f 46//46 45//45 48//48
f 49//49 50//50 51//51
f 50//50 49//49 52//52
f 53//53 54//54 55//55
f 54//54 53//53 56//56
f 57//57 58//58 59//59
f 58//58 57//57 60//60
f 61//61 62//62 63//63
f 64//64 65//65 66//66
f 65//65 64//64 67//67
f 68//68 69//69 70//70
f 69//69 68//68 71//71
f 72//72 73//73 74//74
f 74//74 73//73 75//75
f 75//75 73//73 76//76
f 76//76 73//73 77//77
f 77//77 73//73 78//78
f 78//78 73//73 79//79
f 78//78 79//79 80//80
f 80//80 79//79 81//81
f 82//82 83//83 84//84
f 82//82 81//81 83//83
f 80//80 81//81 82//82
f 84//84 85//85 86//86
f 84//84 83//83 85//85
f 86//86 87//87 88//88
f 86//86 85//85 87//87
f 88//88 87//87 89//89
f 90//90 91//91 92//92
f 93//93 94//94 95//95
f 95//95 92//92 93//93
f 96//96 97//97 98//98
f 99//99 100//100 92//92
f 92//92 98//98 99//99
f 101//101 102//102 103//103
f 101//101 104//104 105//105
f 106//106 105//105 104//104
f 104//104 101//101 107//107
f 105//105 108//108 109//109
f 105//105 110//110 111//111
f 112//112 111//111 110//110
f 110//110 105//105 113//113
f 114//114 115//115 111//111
f 116//116 117//117 118//118
f 118//118 111//111 116//116
f 119//119 120//120 118//118
f 121//121 122//122 123//123
f 123//123 118//118 121//121
f 124//124 125//125 123//123
f 126//126 127//127 98//98
f 98//98 123//123 126//126
f 128//128 129//129 130//130
f 128//128 131//131 101//101
f 132//132 101//101 131//131
f 131//131 128//128 133//133
f 134//134 135//135 136//136
f 136//136 137//137 128//128
f 138//138 128//128 137//137
f 137//137 136//136 139//139
f 140//140 141//141 142//142
f 142//142 143//143 136//136
f 144//144 136//136 143//143
f 143//143 142//142 145//145
f 146//146 95//95 147//147
f 148//148 95//95 149//149
f 150//150 151//151 152//152
f 151//151 153//153 152//152
f 153//153 151//151 154//154
f 155//155 156//156 157//157
f 158//158 157//157 159//159
f 160//160 161//161 157//157
f 161//161 162//162 163//163
f 157//157 161//161 163//163
f 164//164 165//165 72//72
f 73//73 72//72 165//165
f 72//72 166//166 167//167
f 168//168 169//169 95//95
f 169//169 168//168 170//170
f 171//171 168//168 172//172
f 173//173 174//174 175//175
f 176//176 177//177 175//175
f 175//175 177//177 178//178
f 179//179 174//174 173//173
f 179//179 180//180 181//181
f 182//182 175//175 178//178
f 182//182 173//173 175//175
f 173//173 180//180 179//179
