# Rhino

mtllib Table_18_03.mtl
usemtl Default
v 360.07794627600015 95.114929205199985 224.19947598299996
v -360.07794627600015 67.939235146899989 224.19947598299996
v 360.07794627600015 67.939235146899989 224.19947598299996
v -360.07794627600015 95.114929205199985 224.19947598299996
v 360.07794627600015 95.114929205199985 224.19947598299996
v -360.07794627600015 95.114929205199985 214.00859071100001
v -360.07794627600015 95.114929205199985 224.19947598299996
v 360.07794627600015 95.114929205199985 214.00859071100001
v 360.07794627600015 95.114929205199985 224.19947598299996
v 360.07794627600015 67.939235146899989 214.00859071100001
v 360.07794627600015 95.114929205199985 214.00859071100001
v 360.07794627600015 67.939235146899989 224.19947598299996
v -360.07794627600015 67.939235146899989 224.19947598299996
v 360.07794627600015 67.939235146899989 214.00859071100001
v 360.07794627600015 67.939235146899989 224.19947598299996
v -360.07794627600015 67.939235146899989 214.00859071100001
v -360.07794627600015 67.939235146899989 224.19947598299996
v -360.07794627600015 95.114929205199985 214.00859071100001
v -360.07794627600015 67.939235146899989 214.00859071100001
v -360.07794627600015 95.114929205199985 224.19947598299996
v -360.07794627600015 95.114929205199985 214.00859071100001
v 360.07794627600015 67.939235146899989 214.00859071100001
v -360.07794627600015 67.939235146899989 214.00859071100001
v 360.07794627600015 95.114929205199985 214.00859071100001
vt 41.7322998046875 1.5748000144958496
vt 0 0
vt 41.7322998046875 0
vt 0 1.5748000144958496
vt 41.7322998046875 0.1968500018119812
vt 0 0.78740197420120239
vt 0 0.1968500018119812
vt 41.7322998046875 0.78740197420120239
vt 0.1968500018119812 1.5748000144958496
vt 0.78740197420120239 0
vt 0.78740197420120239 1.5748000144958496
vt 0.1968500018119812 0
vt 0 0.1968500018119812
vt -41.7322998046875 0.78740197420120239
vt -41.7322998046875 0.1968500018119812
vt 0 0.78740197420120239
vt -0.1968500018119812 0
vt -0.78740197420120239 1.5748000144958496
vt -0.78740197420120239 0
vt -0.1968500018119812 1.5748000144958496
vt 0 1.5748000144958496
vt -41.7322998046875 0
vt 0 0
vt -41.7322998046875 1.5748000144958496
vn 0 0 1
vn 0 0 1
vn 0 0 1
vn 0 0 1
vn 0 1 0
vn 0 1 0
vn 0 1 0
vn 0 1 0
vn 1 0 0
vn 1 0 0
vn 1 0 0
vn 1 0 0
vn 0 -1 0
vn 0 -1 0
vn 0 -1 0
vn 0 -1 0
vn -1 0 0
vn -1 0 0
vn -1 0 0
vn -1 0 0
vn 0 0 -1
vn 0 0 -1
vn 0 0 -1
vn 0 0 -1
f 1/1/1 2/2/2 3/3/3
f 2/2/2 1/1/1 4/4/4
f 5/5/5 6/6/6 7/7/7
f 6/6/6 5/5/5 8/8/8
f 9/9/9 10/10/10 11/11/11
f 10/10/10 9/9/9 12/12/12
f 13/13/13 14/14/14 15/15/15
f 14/14/14 13/13/13 16/16/16
f 17/17/17 18/18/18 19/19/19
f 18/18/18 17/17/17 20/20/20
f 21/21/21 22/22/22 23/23/23
f 22/22/22 21/21/21 24/24/24
