# Rhino

mtllib Table_09_07.mtl
usemtl Default
v -345.76816372999929 154.1034110773 345.7681637300002
v -345.76816372999929 150.4637461959 -345.7681637300002
v -345.76816372999929 150.4637461959 345.7681637300002
v -345.76816372999929 154.1034110773 -345.7681637300002
v -345.76816372999929 154.1034110773 345.7681637300002
v 1.81983244067942 154.1034110773 0
v -345.76816372999929 154.1034110773 -345.7681637300002
v 1.81983244067942 154.1034110773 345.7681637300002
v -345.76816372999929 150.4637461959 345.7681637300002
v 1.81983244067942 154.1034110773 345.7681637300002
v -345.76816372999929 154.1034110773 345.7681637300002
v 345.76816372999929 150.4637461959 345.7681637300002
v 345.76816372999929 154.1034110773 345.7681637300002
v 345.76816372999929 154.1034110773 -345.7681637300002
v 345.76816372999929 150.4637461959 -345.7681637300002
v -345.76816372999929 150.4637461959 -345.7681637300002
v 345.76816372999929 150.4637461959 -345.7681637300002
v -345.76816372999929 150.4637461959 345.7681637300002
v -345.76816372999929 150.4637461959 -345.7681637300002
v 345.76816372999929 154.1034110773 -345.7681637300002
v 345.76816372999929 150.4637461959 -345.7681637300002
v -345.76816372999929 154.1034110773 -345.7681637300002
v 1.81983244067942 154.1034110773 -1.8198324406798747
v 345.76816372999929 154.1034110773 -345.7681637300002
v 342.12849884800016 154.1034110773 -1.8198324406798747
v 342.12849884800016 154.1034110773 -1.8198324406798747
v 1.81983244067942 154.1034110773 0
v 342.12849884800016 154.1034110773 -1.8009061832999578
v 342.12849884800016 154.1034110773 -1.8009061832999578
v 1.81983244067942 154.1034110773 0
v 342.12849884800016 154.1034110773 0
v 345.76816372999929 154.1034110773 345.7681637300002
v 342.12849884800016 154.1034110773 0
v 1.81983244067942 154.1034110773 345.7681637300002
v 345.76816372999929 154.1034110773 -1.8198324406798747
v 342.12849884800016 154.1034110773 -1.8009061832999578
v 345.76816372999929 154.1034110773 -1.8198324406798747
v 342.12849884800016 154.1034110773 -1.8198324406798747
v 342.12849884800016 154.1034110773 -1.8009061832999578
v 345.76816372999929 154.1034110773 -1.8198324406798747
vt 0 0.1968500018119812
vt -37.401599884033203 0
vt 0 0
vt -37.401599884033203 0.1968500018119812
vt 0 37.401599884033203
vt 18.700799942016602 18.602399826049805
vt 37.401599884033203 37.401599884033203
vt 0 18.602399826049805
vt -37.401599884033203 0
vt -18.602399826049805 0.1968500018119812
vt -37.401599884033203 0.1968500018119812
vt 0 0
vt 0 0.1968500018119812
vt 37.401599884033203 0.1968500018119812
vt 37.401599884033203 0
vt -37.401599884033203 37.401599884033203
vt -37.401599884033203 0
vt 0 37.401599884033203
vt 37.401599884033203 0
vt 0 0.1968500018119812
vt 0 0
vt 37.401599884033203 0.1968500018119812
vt 18.799200057983398 18.602399826049805
vt 37.401599884033203 0
vt 18.799200057983398 0.1968500018119812
vt 18.799200057983398 0.1968500018119812
vt 18.700799942016602 18.602399826049805
vt 18.798200607299805 0.1968500018119812
vt 18.798200607299805 0.1968500018119812
vt 18.700799942016602 18.602399826049805
vt 18.700799942016602 0.1968500018119812
vt 0 0
vt 18.700799942016602 0.1968500018119812
vt 0 18.602399826049805
vt 18.799200057983398 0
vt 18.798200607299805 0.1968500018119812
vt 18.799200057983398 0
vt 18.799200057983398 0.1968500018119812
vt 18.798200607299805 0.1968500018119812
vt 18.799200057983398 0.1968500018119812
vn -1 0 0
vn -1 0 0
vn -1 0 0
vn -1 0 0
vn 0 1 0
vn 0 1 0
vn 0 1 0
vn 0 1 0
vn 0 0 1
vn 0 0 1
vn 0 0 1
vn 0.57735025882720947 -0.57735025882720947 0.57735025882720947
vn 0.70710676908493042 0 0.70710676908493042
vn 1 0 0
vn 1 0 0
vn 0 -1 0
vn 0 -1 0
vn 0 -1 0
vn 0 0 -1
vn 0 0 -1
vn 0 0 -1
vn 0 0 -1
vn 0 1 0
vn 0 1 0
vn 0 1 0
vn 0 1 0
vn 0 1 0
vn 0 1 0
vn 0 1 0
vn 0 1 0
vn 0 1 0
vn 0 1 0
vn 0 1 0
vn 0 1 0
vn 0 1 0
vn 0 1 0
vn 0 1 0
vn 0 1 0
vn 0 1 0
vn 0 0 1
f 1/1/1 2/2/2 3/3/3
f 2/2/2 1/1/1 4/4/4
f 5/5/5 6/6/6 7/7/7
f 6/6/6 5/5/5 8/8/8
f 9/9/9 10/10/10 11/11/11
f 12/12/12 10/10/10 9/9/9
f 10/10/10 12/12/12 13/13/13
f 12/12/12 14/14/14 13/13/13
f 14/14/14 12/12/12 15/15/15
f 12/12/12 16/16/16 17/17/17
f 16/16/16 12/12/12 18/18/18
f 19/19/19 20/20/20 21/21/21
f 20/20/20 19/19/19 22/22/22
f 7/7/7 23/23/23 24/24/24
f 7/7/7 6/6/6 23/23/23
f 23/23/23 6/6/6 25/25/25
f 26/26/26 27/27/27 28/28/28
f 29/29/29 30/30/30 31/31/31
f 6/6/6 32/32/32 33/33/33
f 32/32/32 6/6/6 34/34/34
f 35/35/35 33/33/33 32/32/32
f 33/33/33 35/35/35 36/36/36
f 37/37/37 38/38/38 39/39/39
f 38/38/38 37/37/37 24/24/24
f 13/13/13 14/14/14 40/40/40
f 38/38/38 24/24/24 23/23/23
