# Rhino

mtllib Table_10_15.mtl
usemtl Default
v -237.73866682500011 667.734080844 -264.48452296899814
v 237.73868168300032 593.44069638400003 -264.48452296899814
v -237.73866682500011 593.44069638400003 -264.48452296899814
v 237.73868168300032 667.734080844 -264.48452296899814
v 237.73868168300032 667.734080844 -248.1399783880006
v -237.73866682500011 667.734080844 -264.48452296899814
v 237.73868168300032 667.734080844 -264.48452296899814
v -237.73866682500011 667.734080844 -248.1399783880006
v -237.73866682500011 667.734080844 -248.1399783880006
v 237.74462515399955 657.33300702000008 -248.1399783880006
v 237.73868168300032 667.734080844 -248.1399783880006
v -237.74131166899951 657.33300702000008 -248.1399783880006
v -237.73866682500011 593.44069638400003 -264.48452296899814
v 237.73868168300032 593.44069638400003 -248.1399783880006
v -237.73866682500011 593.44069638400003 -248.1399783880006
v 237.73868168300032 593.44069638400003 -264.48452296899814
v -237.74131166899951 649.75508180500003 -248.1399783880006
v 237.73868168300032 649.75508180500003 -248.1399783880006
v -237.73866682500011 593.44069638400003 -248.1399783880006
v 237.73868168300032 593.44069638400003 -248.1399783880006
v -237.74131166899951 649.75508180500003 -248.1399783880006
v -237.74131166899951 657.33300702000008 -248.1399783880006
v -237.73998924700027 630.58738861400002 -256.31225067850028
v -237.73866682500011 593.44069638400003 -248.1399783880006
v -237.73866682500011 667.734080844 -248.1399783880006
v -237.73866682500011 593.44069638400003 -264.48452296899814
v -237.73866682500011 667.734080844 -264.48452296899814
v 237.73868168300032 593.44069638400003 -248.1399783880006
v 237.73868168300032 649.75508180500003 -248.1399783880006
v 237.73868168300032 667.734080844 -248.1399783880006
v 237.73868168300032 593.44069638400003 -264.48452296899814
v 237.73868168300032 667.734080844 -264.48452296899814
v 237.74165341849948 630.58738861400002 -256.31225067850028
v 237.74462515399955 657.33300702000008 -248.1399783880006
vt -0.0013799900189042091 0.36859399080276489
vt -0.10636699944734573 0.32758399844169617
vt -0.0013799900189042091 0.32758399844169617
vt -0.10636699944734573 0.36859399080276489
vt -0.10636699944734573 0.26480099558830261
vt -0.0013799900189042091 0.27382299304008484
vt -0.10636699944734573 0.27382299304008484
vt -0.0013799900189042091 0.26480099558830261
vt 0.0013799900189042091 0.36859399080276489
vt 0.10636799782514572 0.36285299062728882
vt 0.10636699944734573 0.36859399080276489
vt 0.0013794100377708673 0.36285299062728882
vt -0.0013799900189042091 0.27382299304008484
vt -0.10636699944734573 0.26480099558830261
vt -0.0013799900189042091 0.26480099558830261
vt -0.10636699944734573 0.27382299304008484
vt 0.0013794100377708673 0.35866999626159668
vt 0.10636699944734573 0.35866999626159668
vt 0.0013799900189042091 0.32758399844169617
vt 0.10636699944734573 0.32758399844169617
vt 1 0.75800001621246338
vt 1 0.86000001430511475
vt 0.5 0.5
vt 1 0
vt 1 1
vt 0 0
vt 0 1
vt 3.1353870610928425E-08 0
vt 3.1353870610928425E-08 0.75800001621246338
vt 3.1353870610928425E-08 1
vt 1 0
vt 1 1
vt 0.5 0.5
vt 0 0.86000001430511475
vn 0 0 -1
vn 0 0 -1
vn 0 0 -1
vn 0 0 -1
vn 0 1 0
vn 0 1 0
vn 0 1 0
vn 0 1 0
vn 0 0 1
vn 0 0 1
vn 0 0 1
vn 0 0 1
vn 0 -1 0
vn 0 -1 0
vn 0 -1 0
vn 0 -1 0
vn 0 0 1
vn 0 0 1
vn 0 0 1
vn 0 0 1
vn -1 -1.5655230527045205E-05 -0.00012509951193351299
vn -1 0.00012714283366221935 -8.0909070675261319E-05
vn -1 -2.0641422452172264E-05 -9.3824637588113546E-05
vn -1 -4.1282844904344529E-05 -2.5831130187725648E-05
vn -0.99999994039535522 0.00025428566732443869 0
vn -1 -1.7799999113776721E-05 -8.0909085227176547E-05
vn -1 6.3571416831109673E-05 -0.00012136360601289198
vn 1 -4.0000002627493814E-05 0.00018181817722506821
vn 0.99999994039535522 -0.00022625751444138587 -0.00012767108273692429
vn 0.99999982118606567 0.00057142862351611257 0
vn 1 -4.0000002627493814E-05 -0.00018181817722506821
vn 0.99999994039535522 -2.6835963581106625E-05 -0.0002775715256575495
vn 1 6.3852244238660205E-06 2.9023753086221404E-05
vn 0.99999988079071045 -0.00010644240683177486 -0.0004313724348321557
f 1/1/1 2/2/2 3/3/3
f 2/2/2 1/1/1 4/4/4
f 5/5/5 7/7/7 6/6/6
f 6/6/6 8/8/8 5/5/5
f 9/9/9 10/10/10 11/11/11
f 10/10/10 9/9/9 12/12/12
f 13/13/13 14/14/14 15/15/15
f 14/14/14 13/13/13 16/16/16
f 17/17/17 10/10/10 12/12/12
f 10/10/10 17/17/17 18/18/18
f 19/19/19 18/18/18 17/17/17
f 18/18/18 19/19/19 20/20/20
f 27/27/27 26/26/26 23/23/23
f 24/24/24 23/23/23 26/26/26
f 21/21/21 27/27/27 23/23/23
f 21/21/21 22/22/22 27/27/27
f 22/22/22 25/25/25 27/27/27
f 24/24/24 21/21/21 23/23/23
f 33/33/33 29/29/29 28/28/28
f 32/32/32 34/34/34 29/29/29
f 32/32/32 33/33/33 31/31/31
f 28/28/28 31/31/31 33/33/33
f 32/32/32 30/30/30 34/34/34
f 33/33/33 32/32/32 29/29/29
