# Rhino

mtllib Table_13_10.mtl
usemtl Default
v 408.54649559300015 406.62543056799996 -80.044376095900134
v 387.41478030399958 406.62543056799996 80.044376095900134
v 408.54649559300015 406.62543056799996 80.044376095900134
v -387.41478030399958 406.62543056799996 80.044376095900134
v 387.41478030399958 406.62543056799996 101.17609138500029
v -387.41478030399958 406.62543056799996 101.17609138500029
v -387.41478030399958 406.62543056799996 -80.044376095900134
v -408.54649559299924 406.62543056799996 80.044376095900134
v 387.41478030399958 406.62543056799996 -80.044376095900134
v -387.41478030399958 406.62543056799996 -99.895381367899972
v 387.41478030399958 406.62543056799996 -99.895381367899972
v -408.54649559299924 406.62543056799996 -80.044376095900134
v -408.54649559299924 390.61655534799996 -80.044376095900134
v -408.54649559299924 390.61655534799996 80.044376095900134
v -408.54649559299924 406.62543056799996 80.044376095900134
v -408.54649559299924 406.62543056799996 -80.044376095900134
v -408.54649559299924 390.61655534799996 80.044376095900134
v -387.41478030399958 390.61655534799996 80.044376095900134
v -387.41478030399958 406.62543056799996 80.044376095900134
v -408.54649559299924 406.62543056799996 80.044376095900134
v -387.41478030399958 390.61655534799996 -80.044376095900134
v -408.54649559299924 390.61655534799996 -80.044376095900134
v -408.54649559299924 406.62543056799996 -80.044376095900134
v -387.41478030399958 406.62543056799996 -80.044376095900134
v -387.41478030399958 390.61655534799996 80.044376095900134
v -387.41478030399958 390.61655534799996 101.17609138500029
v -387.41478030399958 406.62543056799996 101.17609138500029
v -387.41478030399958 406.62543056799996 80.044376095900134
v -387.41478030399958 390.61655534799996 101.17609138500029
v 387.41478030399958 390.61655534799996 101.17609138500029
v 387.41478030399958 406.62543056799996 101.17609138500029
v -387.41478030399958 406.62543056799996 101.17609138500029
v -387.41478030399958 390.61655534799996 -99.895381367899972
v -387.41478030399958 390.61655534799996 -80.044376095900134
v -387.41478030399958 406.62543056799996 -80.044376095900134
v -387.41478030399958 406.62543056799996 -99.895381367899972
v 387.41478030399958 390.61655534799996 -99.895381367899972
v -387.41478030399958 390.61655534799996 -99.895381367899972
v -387.41478030399958 406.62543056799996 -99.895381367899972
v 387.41478030399958 406.62543056799996 -99.895381367899972
v 387.41478030399958 390.61655534799996 101.17609138500029
v 387.41478030399958 390.61655534799996 80.044376095900134
v 387.41478030399958 406.62543056799996 80.044376095900134
v 387.41478030399958 406.62543056799996 101.17609138500029
v 387.41478030399958 390.61655534799996 80.044376095900134
v 408.54649559300015 390.61655534799996 80.044376095900134
v 408.54649559300015 406.62543056799996 80.044376095900134
v 387.41478030399958 406.62543056799996 80.044376095900134
v 387.41478030399958 390.61655534799996 -80.044376095900134
v 387.41478030399958 390.61655534799996 -99.895381367899972
v 387.41478030399958 406.62543056799996 -99.895381367899972
v 387.41478030399958 406.62543056799996 -80.044376095900134
v 408.54649559300015 390.61655534799996 -80.044376095900134
v 387.41478030399958 390.61655534799996 -80.044376095900134
v 387.41478030399958 406.62543056799996 -80.044376095900134
v 408.54649559300015 406.62543056799996 -80.044376095900134
v 408.54649559300015 390.61655534799996 80.044376095900134
v 408.54649559300015 390.61655534799996 -80.044376095900134
v 408.54649559300015 406.62543056799996 -80.044376095900134
v 408.54649559300015 406.62543056799996 80.044376095900134
vt 0.63588112592697144 0.0043103448115289211
vt 0.23779192566871643 0.017241379246115685
vt 0.23779192566871643 0.0043103448115289211
vt 0.087579615414142609 0.65804594755172729
vt 0.035031847655773163 0.18390804529190063
vt 0.017515923827886581 0.81609195470809937
vt 0.63588112592697144 0.97844827175140381
vt 0.23779192566871643 0.99137932062149048
vt 0.63588112592697144 0.18390804529190063
vt 0.98354566097259521 0.65804594755172729
vt 0.98354566097259521 0.18390804529190063
vt 0.76857751607894897 0.99568963050842285
vt 0.90127390623092651 1
vt 0.10509554296731949 1
vt 0.23779192566871643 0.99137932062149048
vt 0.76857751607894897 0.99568963050842285
vt 0.10509554296731949 1
vt 0.10509554296731949 0.97413790225982666
vt 0.087579615414142609 0.65804594755172729
vt 0.23779192566871643 0.99137932062149048
vt 0.90127390623092651 0.97413790225982666
vt 0.90127390623092651 1
vt 0.76857751607894897 0.99568963050842285
vt 0.63588112592697144 0.97844827175140381
vt 0.10509554296731949 0.97413790225982666
vt 0 0.97413790225982666
vt 0.017515923827886581 0.81609195470809937
vt 0.087579615414142609 0.65804594755172729
vt 0 0.97413790225982666
vt 0 0.025862069800496101
vt 0.035031847655773163 0.18390804529190063
vt 0.017515923827886581 0.81609195470809937
vt 1 0.97413790225982666
vt 0.90127390623092651 0.97413790225982666
vt 0.63588112592697144 0.97844827175140381
vt 0.98354566097259521 0.65804594755172729
vt 1 0.025862069800496101
vt 1 0.97413790225982666
vt 0.98354566097259521 0.65804594755172729
vt 0.98354566097259521 0.18390804529190063
vt 0 0.025862069800496101
vt 0.10509554296731949 0.025862069800496101
vt 0.23779192566871643 0.017241379246115685
vt 0.035031847655773163 0.18390804529190063
vt 0.10509554296731949 0.025862069800496101
vt 0.10509554296731949 0
vt 0.23779192566871643 0.0043103448115289211
vt 0.23779192566871643 0.017241379246115685
vt 0.90127390623092651 0.025862069800496101
vt 1 0.025862069800496101
vt 0.98354566097259521 0.18390804529190063
vt 0.63588112592697144 0.18390804529190063
vt 0.90127390623092651 0
vt 0.90127390623092651 0.025862069800496101
vt 0.63588112592697144 0.18390804529190063
vt 0.63588112592697144 0.0043103448115289211
vt 0.10509554296731949 0
vt 0.90127390623092651 0
vt 0.63588112592697144 0.0043103448115289211
vt 0.23779192566871643 0.0043103448115289211
vn 0 1 0
vn 0 1 0
vn 0 1 0
vn 0 1 0
vn 0 1 0
vn 0 1 0
vn 0 1 0
vn 0 1 0
vn 0 1 0
vn 0 1 0
vn 0 1 0
vn 0 1 0
vn -1 0 0
vn -1 0 0
vn -1 0 0
vn -1 0 0
vn 0 0 1
vn 0 0 1
vn 0 0 1
vn 0 0 1
vn 0 0 -1
vn 0 0 -1
vn 0 0 -1
vn 0 0 -1
vn -1 0 0
vn -1 0 0
vn -1 0 0
vn -1 0 0
vn 0 0 1
vn 0 0 1
vn 0 0 1
vn 0 0 1
vn -1 0 0
vn -1 0 0
vn -1 0 0
vn -1 0 0
vn 0 0 -1
vn 0 0 -1
vn 0 0 -1
vn 0 0 -1
vn 1 0 0
vn 1 0 0
vn 1 0 0
vn 1 0 0
vn 0 0 1
vn 0 0 1
vn 0 0 1
vn 0 0 1
vn 1 0 0
vn 1 0 0
vn 1 0 0
vn 1 0 0
vn 0 0 -1
vn 0 0 -1
vn 0 0 -1
vn 0 0 -1
vn 1 0 0
vn 1 0 0
vn 1 0 0
vn 1 0 0
f 1/1/1 2/2/2 3/3/3
f 4/4/4 5/5/5 2/2/2
f 5/5/5 4/4/4 6/6/6
f 7/7/7 8/8/8 4/4/4
f 4/4/4 2/2/2 9/9/9
f 10/10/10 9/9/9 11/11/11
f 2/2/2 1/1/1 9/9/9
f 9/9/9 10/10/10 7/7/7
f 8/8/8 7/7/7 12/12/12
f 4/4/4 9/9/9 7/7/7
f 13/13/13 14/14/14 15/15/15 16/16/16
f 17/17/17 18/18/18 19/19/19 20/20/20
f 21/21/21 22/22/22 23/23/23 24/24/24
f 25/25/25 26/26/26 27/27/27 28/28/28
f 29/29/29 30/30/30 31/31/31 32/32/32
f 33/33/33 34/34/34 35/35/35 36/36/36
f 37/37/37 38/38/38 39/39/39 40/40/40
f 41/41/41 42/42/42 43/43/43 44/44/44
f 45/45/45 46/46/46 47/47/47 48/48/48
f 49/49/49 50/50/50 51/51/51 52/52/52
f 53/53/53 54/54/54 55/55/55 56/56/56
f 57/57/57 58/58/58 59/59/59 60/60/60
