# Rhino

mtllib Table_10_02.mtl
usemtl Default
v -237.73866682500011 657.33300702000008 248.1399783880006
v 237.73868168300032 649.75508180500003 248.1399783880006
v -237.73866682500011 649.75508180500003 248.1399783880006
v 237.73868168300032 657.33300702000008 248.1399783880006
v -237.73866682500011 667.734080844 248.1399783880006
v 237.73868168300032 667.734080844 248.1399783880006
v -237.73866682500011 667.734080844 248.1399783880006
v 237.73868168300032 667.734080844 264.48452296899814
v 237.73868168300032 667.734080844 248.1399783880006
v -237.73866682500011 667.734080844 264.48452296899814
v -237.73866682500011 593.44069638400003 248.1399783880006
v 237.73868168300032 593.44069638400003 264.48452296899814
v -237.73866682500011 593.44069638400003 264.48452296899814
v 237.73868168300032 593.44069638400003 248.1399783880006
v 237.73868168300032 593.44069638400003 248.1399783880006
v -237.73866682500011 593.44069638400003 248.1399783880006
v 237.73868168300032 667.734080844 264.48452296899814
v -237.73866682500011 593.44069638400003 264.48452296899814
v 237.73868168300032 593.44069638400003 264.48452296899814
v -237.73866682500011 667.734080844 264.48452296899814
v -237.73866682500011 593.44069638400003 264.48452296899814
v -237.73866682500011 667.734080844 264.48452296899814
v -237.73866682500011 630.58738861400002 256.31225067850028
v -237.73866682500011 593.44069638400003 248.1399783880006
v -237.73866682500011 649.75508180500003 248.1399783880006
v -237.73866682500011 657.33300702000008 248.1399783880006
v -237.73866682500011 667.734080844 248.1399783880006
v 237.73868168300032 593.44069638400003 264.48452296899814
v 237.73868168300032 667.734080844 264.48452296899814
v 237.73868168300032 630.58738861400002 256.31225067850028
v 237.73868168300032 593.44069638400003 248.1399783880006
v 237.73868168300032 649.75508180500003 248.1399783880006
v 237.73868168300032 657.33300702000008 248.1399783880006
v 237.73868168300032 667.734080844 248.1399783880006
vt -0.0013799900189042091 0.36285299062728882
vt -0.10636699944734573 0.35866999626159668
vt -0.0013799900189042091 0.35866999626159668
vt -0.10636699944734573 0.36285299062728882
vt -0.0013799900189042091 0.36859399080276489
vt -0.10636699944734573 0.36859399080276489
vt 0.0013799900189042091 -0.0091494899243116379
vt 0.10636699944734573 -0.018171800300478935
vt 0.10636699944734573 -0.0091494899243116379
vt 0.0013799900189042091 -0.018171800300478935
vt -0.0013799900189042091 -0.0091494899243116379
vt -0.10636699944734573 -0.018171800300478935
vt -0.0013799900189042091 -0.018171800300478935
vt -0.10636699944734573 -0.0091494899243116379
vt -0.10636699944734573 0.32758399844169617
vt -0.0013799900189042091 0.32758399844169617
vt 0.10636699944734573 0.36859399080276489
vt 0.0013799900189042091 0.32758399844169617
vt 0.10636699944734573 0.32758399844169617
vt 0.0013799900189042091 0.36859399080276489
vt 0 0
vt 1 0
vt 0.5 0.5
vt 0 1
vt 0.75800001621246338 1
vt 0.86000001430511475 1
vt 1 1
vt 0 1
vt 1 1
vt 0.5 0.5
vt 0 0
vt 0.75800001621246338 0
vt 0.86000001430511475 0
vt 1 0
vn 0 0 -1
vn 0 0 -1
vn 0 0 -1
vn 0 0 -1
vn 0 0 -1
vn 0 0 -1
vn 0 1 0
vn 0 1 0
vn 0 1 0
vn 0 1 0
vn 0 -1 0
vn 0 -1 0
vn 0 -1 0
vn 0 -1 0
vn 0 0 -1
vn 0 0 -1
vn 0 0 1
vn 0 0 1
vn 0 0 1
vn 0 0 1
vn -1 0 0
vn -1 0 0
vn -1 0 0
vn -1 0 0
vn -1 0 0
vn -1 0 0
vn -1 0 0
vn 1 0 0
vn 1 0 0
vn 1 0 0
vn 1 0 0
vn 1 0 0
vn 1 0 0
vn 1 0 0
f 1/1/1 2/2/2 3/3/3
f 2/2/2 1/1/1 4/4/4
f 5/5/5 4/4/4 1/1/1
f 4/4/4 5/5/5 6/6/6
f 7/7/7 8/8/8 9/9/9
f 8/8/8 7/7/7 10/10/10
f 11/11/11 12/12/12 13/13/13
f 12/12/12 11/11/11 14/14/14
f 3/3/3 15/15/15 16/16/16
f 15/15/15 3/3/3 2/2/2
f 17/17/17 18/18/18 19/19/19
f 18/18/18 17/17/17 20/20/20
f 24/24/24 21/21/21 23/23/23
f 22/22/22 23/23/23 21/21/21
f 25/25/25 24/24/24 23/23/23
f 26/26/26 25/25/25 22/22/22
f 23/23/23 22/22/22 25/25/25
f 22/22/22 27/27/27 26/26/26
f 28/28/28 31/31/31 30/30/30
f 32/32/32 30/30/30 31/31/31
f 29/29/29 28/28/28 30/30/30
f 29/29/29 32/32/32 33/33/33
f 33/33/33 34/34/34 29/29/29
f 30/30/30 32/32/32 29/29/29
