# Rhino

mtllib Table_13_13.mtl
usemtl Default
v -387.41478030399958 480.26625657599999 80.044376095900134
v 387.41478030399958 477.064481532 80.044376095900134
v -387.41478030399958 477.064481532 80.044376095900134
v 387.41478030399958 480.26625657599999 80.044376095900134
v -387.41478030399958 480.26625657599999 80.044376095900134
v 419.43253074300083 480.26625657599999 112.06212653400053
v 387.41478030399958 480.26625657599999 80.044376095900134
v -419.43253074299992 480.26625657599999 112.06212653400053
v -419.43253074299992 480.26625657599999 112.06212653400053
v 419.43253074300083 479.50320954699998 112.28159540700017
v 419.43253074300083 480.26625657599999 112.06212653400053
v -419.65199961500002 479.50320954699998 112.28159540700017
v -419.65199961500002 479.50320954699998 112.28159540700017
v 419.65025144500032 479.50320954699998 112.28159540700017
v 419.43253074300083 479.50320954699998 112.28159540700017
v 419.43253074300083 478.76347144099998 112.57015218100059
v -419.94055638900045 478.76347144099998 112.57015218100059
v -384.2130052600005 477.064481532 76.842601052099781
v -387.41478030399958 477.064481532 80.044376095900134
v 387.41478030399958 477.064481532 80.044376095900134
v 384.21300525999959 477.064481532 76.842601052099781
v -419.43253074299992 464.25738135699999 112.06212653400053
v -384.2130052600005 464.25738135699999 76.842601052099781
v 419.43253074300083 464.25738135699999 112.06212653400053
v 384.21300525999959 464.25738135699999 76.842601052099781
v -384.2130052600005 477.064481532 76.842601052099781
v 384.21300525999959 464.25738135699999 76.842601052099781
v -384.2130052600005 464.25738135699999 76.842601052099781
v 384.21300525999959 477.064481532 76.842601052099781
v -419.43253074299992 464.25738135699999 112.06212653400053
v 419.43253074300083 467.45915639999998 118.46567662199959
v -425.83608083000036 467.45915639999998 118.46567662199959
v 419.43253074300083 464.25738135699999 112.06212653400053
v 419.43253074300083 467.45915639999998 118.46567662199959
v 425.83608082999945 473.86270648800001 118.46567662199959
v -425.83608083000036 467.45915639999998 118.46567662199959
v -425.83608083000036 473.86270648800001 118.46567662199959
v 419.43253074300083 473.86270648800001 118.46567662199959
v -425.07300178399964 474.08215614899996 117.70259757500025
v 419.43253074300083 473.86270648800001 118.46567662199959
v 419.43253074300083 474.08215614899996 117.70259757500025
v -425.83608083000036 473.86270648800001 118.46567662199959
v -419.94055638900045 478.76347144099998 112.57015218100059
v 419.43253074300083 478.05331773600005 112.92536991099996
v 419.93841119900026 478.76347144099998 112.57015218100059
v -420.29577411900027 478.05331773600005 112.92536991099996
v -420.29577411900027 478.05331773600005 112.92536991099996
v 420.29701000500063 478.05331773600005 112.92536991099996
v 419.43253074300083 478.05331773600005 112.92536991099996
v 419.43253074300083 477.37876776999997 113.3442389289994
v -420.7146431379997 477.37876776999997 113.3442389289994
v -420.7146431379997 477.37876776999997 113.3442389289994
v 420.71324076000019 477.37876776999997 113.3442389289994
v 419.43253074300083 477.37876776999997 113.3442389289994
v 419.43253074300083 476.74552070200002 113.82323087899977
v -421.19363508700008 476.74552070200002 113.82323087899977
v -421.19363508700008 476.74552070200002 113.82323087899977
v 421.19350701599978 476.74552070200002 113.82323087899977
v 419.43253074300083 476.74552070200002 113.82323087899977
v 419.43253074300083 476.15889147799999 114.35830512100028
v -421.72870932899968 476.15889147799999 114.35830512100028
v -421.72870932899968 476.15889147799999 114.35830512100028
v 419.43253074300083 475.62381083299999 114.94494715200017
v 419.43253074300083 476.15889147799999 114.35830512100028
v -422.31535136000002 475.62381083299999 114.94494715200017
v -422.31535136000002 475.62381083299999 114.94494715200017
v 419.43253074300083 475.14482528600001 115.57820702700064
v 419.43253074300083 475.62381083299999 114.94494715200017
v -422.94861123600003 475.14482528600001 115.57820702700064
v -422.94861123600003 475.14482528600001 115.57820702700064
v 419.43253074300083 474.72596907499997 116.25275059000069
v 419.43253074300083 475.14482528600001 115.57820702700064
v -423.62315479800054 474.72596907499997 116.25275059000069
v -423.62315479800054 474.72596907499997 116.25275059000069
v 419.43253074300083 474.37076415199999 116.96287868000036
v 419.43253074300083 474.72596907499997 116.25275059000069
v -424.33328288800021 474.37076415199999 116.96287868000036
v -424.33328288800021 474.37076415199999 116.96287868000036
v 419.43253074300083 474.08215614899996 117.70259757500025
v 419.43253074300083 474.37076415199999 116.96287868000036
v -425.07300178399964 474.08215614899996 117.70259757500025
v 419.43253074300083 478.76347144099998 112.57015218100059
v -425.83608083000036 467.45915639999998 118.46567662199959
v -425.83608083000036 473.86270648800001 118.46567662199959
v -425.07300178399964 474.08215614899996 117.70259757500025
v -424.33328288800021 474.37076415199999 116.96287868000036
v -423.62315479800054 474.72596907499997 116.25275059000069
v -422.94861123600003 475.14482528600001 115.57820702700064
v -422.31535136000002 475.62381083299999 114.94494715200017
v -421.72870932899968 476.15889147799999 114.35830512100028
v -421.19363508700008 476.74552070200002 113.82323087899977
v -420.7146431379997 477.37876776999997 113.3442389289994
v -420.29577411900027 478.05331773600005 112.92536991099996
v -419.94055638900045 478.76347144099998 112.57015218100059
v -419.65199961500002 479.50320954699998 112.28159540700017
v -419.43253074299992 464.25738135699999 112.06212653400053
v -419.43253074299992 480.26625657599999 112.06212653400053
v -387.41478030399958 477.064481532 80.044376095900134
v -387.41478030399958 480.26625657599999 80.044376095900134
v -384.2130052600005 464.25738135699999 76.842601052099781
v -384.2130052600005 477.064481532 76.842601052099781
vt -2.3622000217437744 0.98425197601318359
vt -50 0.78740197420120239
vt -2.3622000217437744 0.78740197420120239
vt -50 0.98425197601318359
vt 2.3622000217437744 2.3622000217437744
vt 51.968498229980469 0.3937009871006012
vt 50 2.3622000217437744
vt 0.3937009871006012 0.3937009871006012
vt 0.3937009871006012 1.0547300577163696
vt 51.968498229980469 1.0059100389480591
vt 51.968498229980469 1.0547300577163696
vt 0.38020700216293335 1.0059100389480591
vt 0.38020700216293335 1.0114200115203857
vt 51.981998443603516 1.0114200115203857
vt 51.968498229980469 1.0114200115203857
vt 51.968498229980469 0.96260398626327515
vt 0.36246600747108459 0.96260398626327515
vt 2.5590600967407227 2.5590600967407227
vt 2.3622000217437744 2.3622000217437744
vt 50 2.3622000217437744
vt 49.8031005859375 2.5590600967407227
vt -0.3937009871006012 0.3937009871006012
vt -2.5590600967407227 2.5590600967407227
vt -51.968498229980469 0.3937009871006012
vt -49.8031005859375 2.5590600967407227
vt -2.5590600967407227 0.78740197420120239
vt -49.8031005859375 0
vt -2.5590600967407227 0
vt -49.8031005859375 0.78740197420120239
vt 0.3937009871006012 -0.3521369993686676
vt 51.968498229980469 0.088034197688102722
vt 0 0.088034197688102722
vt 51.968498229980469 -0.3521369993686676
vt 51.968498229980469 0.1968500018119812
vt 52.362201690673828 0.59055101871490479
vt 0 0.1968500018119812
vt 0 0.59055101871490479
vt 51.968498229980469 0.59055101871490479
vt 0.046915300190448761 0.21204900741577148
vt 51.968498229980469 0.16323199868202209
vt 51.968498229980469 0.21204900741577148
vt 0 0.16323199868202209
vt 0.36246600747108459 0.959788978099823
vt 51.968498229980469 0.910971999168396
vt 51.999698638916016 0.959788978099823
vt 0.34062701463699341 0.910971999168396
vt 0.34062701463699341 0.90026497840881348
vt 52.021598815917969 0.90026497840881348
vt 51.968498229980469 0.90026497840881348
vt 51.968498229980469 0.85144799947738647
vt 0.31487500667572021 0.85144799947738647
vt 0.31487500667572021 0.83335202932357788
vt 52.047298431396484 0.83335202932357788
vt 51.968498229980469 0.83335202932357788
vt 51.968498229980469 0.7845349907875061
vt 0.28542500734329224 0.7845349907875061
vt 0.28542500734329224 0.75961500406265259
vt 52.076801300048828 0.75961500406265259
vt 51.968498229980469 0.75961500406265259
vt 51.968498229980469 0.71079802513122559
vt 0.25252801179885864 0.71079802513122559
vt 0.25252801179885864 0.67967599630355835
vt 51.968498229980469 0.63085901737213135
vt 51.968498229980469 0.67967599630355835
vt 0.21646000444889069 0.63085901737213135
vt 0.21646000444889069 0.5942080020904541
vt 51.968498229980469 0.5453910231590271
vt 51.968498229980469 0.5942080020904541
vt 0.17752599716186523 0.5453910231590271
vt 0.17752599716186523 0.50393402576446533
vt 51.968498229980469 0.45511698722839355
vt 51.968498229980469 0.50393402576446533
vt 0.13605399429798126 0.45511698722839355
vt 0.13605399429798126 0.40961501002311707
vt 51.968498229980469 0.36079698801040649
vt 51.968498229980469 0.40961501002311707
vt 0.092394702136516571 0.36079698801040649
vt 0.092394702136516571 0.31204500794410706
vt 51.968498229980469 0.26322799921035767
vt 51.968498229980469 0.31204500794410706
vt 0.046915300190448761 0.26322799921035767
vt 51.968498229980469 0.959788978099823
vt 0.80000001192092896 1
vt 0.40000000596046448 1
vt 0.38629201054573059 0.9816669225692749
vt 0.36826398968696594 0.96389508247375488
vt 0.34607601165771484 0.94683414697647095
vt 0.31991198658943176 0.93062818050384521
vt 0.28999200463294983 0.91541397571563721
vt 0.25656801462173462 0.90131986141204834
vt 0.21992400288581848 0.88846462965011597
vt 0.18036800622940063 0.8769567608833313
vt 0.13823199272155762 0.86689341068267822
vt 0.093872003257274628 0.85835921764373779
vt 0.04766400158405304 0.85142660140991211
vt 1 0.8461538553237915
vt 0 0.8461538553237915
vt 0.20000000298023224 0.076923079788684845
vt 0 0.076923079788684845
vt 1 0
vt 0.20000000298023224 0
vn 0 0 -1
vn 0 0 -1
vn 0 0 -1
vn 0 0 -1
vn 0 1 0
vn 0 1 0
vn 0 1 0
vn 0 1 0
vn 0 0.27641546726226807 0.96103823184967041
vn 0 0.27641546726226807 0.96103823184967041
vn 0 0.27641546726226807 0.96103823184967041
vn 0 0.27641546726226807 0.96103823184967041
vn 0 0.36340969800949097 0.93162941932678223
vn 0 0.36340969800949097 0.93162941932678223
vn 0 0 1
vn 0 0.36340972781181335 0.93162941932678223
vn 0 0.36340969800949097 0.93162941932678223
vn 0 1 0
vn 0 1 0
vn 0 1 0
vn 0 1 0
vn 0 -1 0
vn 0 -1 0
vn 0 -1 0
vn 0 -1 0
vn 0 0 -1
vn 0 0 -1
vn 0 0 -1
vn 0 0 -1
vn 0 -0.89442718029022217 0.44721359014511108
vn 0 -0.89442718029022217 0.44721359014511108
vn 0 -0.89442718029022217 0.44721359014511108
vn 0 -0.89442718029022217 0.44721359014511108
vn 0 0 1
vn 0 0 1
vn 0 0 1
vn 0 0 1
vn 0 0 1
vn 0 0.96104776859283447 0.27638235688209534
vn 0 0.96104776859283447 0.27638235688209534
vn 0 0.96104776859283447 0.27638235688209534
vn 0 0.96104776859283447 0.27638235688209534
vn 0 0.44735556840896606 0.89435619115829468
vn 0 0.44735556840896606 0.89435619115829468
vn 0 0.44735556840896606 0.89435619115829468
vn 0 0.44735556840896606 0.89435619115829468
vn 0 0.52752900123596191 0.84953701496124268
vn 0 0.52752900123596191 0.84953701496124268
vn 0 0 1
vn 0 0.52752900123596191 0.84953701496124268
vn 0 0.52752900123596191 0.84953701496124268
vn 0 0.60326480865478516 0.79754096269607544
vn 0 0.60326480865478516 0.79754096269607544
vn 0 0 1
vn 0 0.60326480865478516 0.79754096269607544
vn 0 0.60326480865478516 0.79754096269607544
vn 0 0.67389577627182007 0.73882639408111572
vn 0 0.67389577627182007 0.73882639408111572
vn 0 0 1
vn 0 0.67389577627182007 0.73882639408111572
vn 0 0.67389577627182007 0.73882639408111572
vn 0 0.73882973194122314 0.67389214038848877
vn 0 0.73882973194122314 0.67389214038848877
vn 0 0.73882973194122314 0.67389214038848877
vn 0 0.73882973194122314 0.67389214038848877
vn 0 0.79755067825317383 0.60325193405151367
vn 0 0.79755067825317383 0.60325193405151367
vn 0 0.79755067825317383 0.60325193405151367
vn 0 0.79755067825317383 0.60325193405151367
vn 0 0.84954196214675903 0.52752107381820679
vn 0 0.84954196214675903 0.52752107381820679
vn 0 0.84954196214675903 0.52752107381820679
vn 0 0.84954196214675903 0.52752107381820679
vn 0 0.89435619115829468 0.44735556840896606
vn 0 0.89435619115829468 0.44735556840896606
vn 0 0.89435619115829468 0.44735556840896606
vn 0 0.89435619115829468 0.44735556840896606
vn 0 0.93160438537597656 0.36347386240959167
vn 0 0.93160438537597656 0.36347386240959167
vn 0 0.93160438537597656 0.36347386240959167
vn 0 0.93160438537597656 0.36347386240959167
vn 0 0 1
vn -0.70710676908493042 0 -0.70710676908493042
vn -0.70710676908493042 0 -0.70710676908493042
vn -0.70710676908493042 0 -0.70710676908493042
vn -0.70710676908493042 0 -0.70710676908493042
vn -0.70710676908493042 0 -0.70710676908493042
vn -0.70710676908493042 0 -0.70710676908493042
vn -0.70710676908493042 0 -0.70710676908493042
vn -0.70710676908493042 0 -0.70710676908493042
vn -0.70710676908493042 0 -0.70710676908493042
vn -0.70710676908493042 0 -0.70710676908493042
vn -0.70710676908493042 0 -0.70710676908493042
vn -0.70710676908493042 0 -0.70710676908493042
vn -0.70710676908493042 0 -0.70710676908493042
vn -0.70710676908493042 0 -0.70710676908493042
vn -0.70710676908493042 0 -0.70710676908493042
vn -0.70710676908493042 0 -0.70710676908493042
vn -0.70710676908493042 0 -0.70710676908493042
vn -0.70710676908493042 0 -0.70710676908493042
vn -0.70710676908493042 0 -0.70710676908493042
f 1/1/1 2/2/2 3/3/3
f 2/2/2 1/1/1 4/4/4
f 5/5/5 6/6/6 7/7/7
f 6/6/6 5/5/5 8/8/8
f 9/9/9 10/10/10 11/11/11
f 10/10/10 9/9/9 12/12/12
f 13/13/13 14/14/14 15/15/15
f 13/13/13 16/16/16 14/14/14
f 16/16/16 13/13/13 17/17/17
f 18/18/18 19/19/19 20/20/20
f 18/18/18 20/20/20 21/21/21
f 22/22/22 23/23/23 24/24/24
f 24/24/24 23/23/23 25/25/25
f 26/26/26 27/27/27 28/28/28
f 27/27/27 26/26/26 29/29/29
f 30/30/30 31/31/31 32/32/32
f 31/31/31 30/30/30 33/33/33
f 34/34/34 35/35/35 36/36/36
f 36/36/36 35/35/35 37/37/37
f 37/37/37 35/35/35 38/38/38
f 39/39/39 40/40/40 41/41/41
f 40/40/40 39/39/39 42/42/42
f 43/43/43 44/44/44 45/45/45
f 44/44/44 43/43/43 46/46/46
f 47/47/47 48/48/48 49/49/49
f 47/47/47 50/50/50 48/48/48
f 50/50/50 47/47/47 51/51/51
f 52/52/52 53/53/53 54/54/54
f 52/52/52 55/55/55 53/53/53
f 55/55/55 52/52/52 56/56/56
f 57/57/57 58/58/58 59/59/59
f 57/57/57 60/60/60 58/58/58
f 60/60/60 57/57/57 61/61/61
f 62/62/62 63/63/63 64/64/64
f 63/63/63 62/62/62 65/65/65
f 66/66/66 67/67/67 68/68/68
f 67/67/67 66/66/66 69/69/69
f 70/70/70 71/71/71 72/72/72
f 71/71/71 70/70/70 73/73/73
f 74/74/74 75/75/75 76/76/76
f 75/75/75 74/74/74 77/77/77
f 78/78/78 79/79/79 80/80/80
f 79/79/79 78/78/78 81/81/81
f 43/43/43 45/45/45 82/82/82
f 98/98/98 97/97/97 99/99/99
f 97/97/97 98/98/98 96/96/96
f 96/96/96 95/95/95 97/97/97
f 95/95/95 96/96/96 94/94/94
f 93/93/93 96/96/96 92/92/92
f 92/92/92 96/96/96 91/91/91
f 96/96/96 93/93/93 94/94/94
f 100/100/100 98/98/98 101/101/101
f 96/96/96 89/89/89 90/90/90
f 88/88/88 89/89/89 96/96/96
f 96/96/96 90/90/90 91/91/91
f 87/87/87 88/88/88 96/96/96
f 96/96/96 98/98/98 100/100/100
f 83/83/83 86/86/86 87/87/87
f 84/84/84 85/85/85 83/83/83
f 86/86/86 83/83/83 85/85/85
f 83/83/83 87/87/87 96/96/96
