# Rhino

mtllib Table_14_01.mtl
usemtl Default
v -282.26644777800084 343.00732894499993 -317.996377876
v -275.83506036000017 336.575941527 -317.996377876
v -282.26644777800084 285.83944078700006 -317.996377876
v 282.26644777800084 343.00732894499993 -317.996377876
v -282.26644777800084 343.00732894499993 -317.996377876
v -282.26644777800084 343.00732894499993 -282.26644777799993
v 282.26644777800084 343.00732894499993 -317.996377876
v -317.99637787599931 343.00732894499993 317.996377876
v -317.99637787599931 343.00732894499993 -317.996377876
v -317.99637787599931 285.83944078700006 -317.996377876
v -317.99637787599931 343.00732894499993 -317.996377876
v 317.99637787599931 285.83944078700006 317.996377876
v -317.99637787599931 285.83944078700006 -317.996377876
v 282.26644777800084 285.83944078700006 -317.996377876
v 317.99637787599931 285.83944078700006 -317.996377876
v 282.26644777800084 285.83944078700006 -317.996377876
v 317.99637787599931 343.00732894499993 -317.996377876
v 317.99637787599931 285.83944078700006 -317.996377876
v 275.83506036000017 292.27082820500004 -317.996377876
v -275.83506036000017 292.27082820500004 -317.996377876
v 275.83506036000017 336.575941527 -317.996377876
v 317.99637787599931 343.00732894499993 -317.996377876
v 282.26644777800084 343.00732894499993 -282.26644777799993
v 317.99637787599931 343.00732894499993 317.996377876
v 282.26644777800084 343.00732894499993 282.26644777799993
v 282.26644777800084 289.41243379699995 -282.26644777799993
v 282.26644777800084 343.00732894499993 282.26644777799993
v 282.26644777800084 343.00732894499993 -282.26644777799993
v 282.26644777800084 289.41243379699995 282.26644777799993
v 282.26644777800084 289.41243379699995 -282.26644777799993
v -282.26644777800084 289.41243379699995 282.26644777799993
v 282.26644777800084 289.41243379699995 282.26644777799993
v -282.26644777800084 289.41243379699995 -282.26644777799993
v 282.26644777800084 289.41243379699995 -282.26644777799993
v -282.26644777800084 343.00732894499993 -282.26644777799993
v -282.26644777800084 289.41243379699995 -282.26644777799993
v 282.26644777800084 343.00732894499993 -282.26644777799993
v -282.26644777800084 343.00732894499993 282.26644777799993
v -282.26644777800084 289.41243379699995 -282.26644777799993
v -282.26644777800084 343.00732894499993 -282.26644777799993
v -282.26644777800084 289.41243379699995 282.26644777799993
v 282.26644777800084 343.00732894499993 282.26644777799993
v -282.26644777800084 289.41243379699995 282.26644777799993
v -282.26644777800084 343.00732894499993 282.26644777799993
v 282.26644777800084 289.41243379699995 282.26644777799993
v -282.26644777800084 343.00732894499993 282.26644777799993
v -317.99637787599931 343.00732894499993 317.996377876
v 317.99637787599931 285.83944078700006 317.996377876
v 317.99637787599931 343.00732894499993 317.996377876
v -317.99637787599931 285.83944078700006 317.996377876
v -317.99637787599931 343.00732894499993 317.996377876
v -317.99637787599931 285.83944078700006 -317.996377876
v -317.99637787599931 285.83944078700006 317.996377876
v -317.99637787599931 343.00732894499993 -317.996377876
v -317.99637787599931 285.83944078700006 317.996377876
v 317.99637787599931 285.83944078700006 317.996377876
v 317.99637787599931 343.00732894499993 -317.996377876
v 317.99637787599931 343.00732894499993 317.996377876
v 317.99637787599931 285.83944078700006 -317.996377876
vt 0 3.1496100425720215
vt -0.35433098673820496 2.7952799797058105
vt 0 0
vt -31.102399826049805 3.1496100425720215
vt 0 0
vt 1.968500018119812 0
vt 0 31.102399826049805
vt 35.039398193359375 -1.968500018119812
vt 0 -1.968500018119812
vt 1.968500018119812 0
vt 1.968500018119812 3.1496100425720215
vt -35.039398193359375 33.070899963378906
vt 0 -1.968500018119812
vt 0 31.102399826049805
vt 0 33.070899963378906
vt -31.102399826049805 0
vt -33.070899963378906 3.1496100425720215
vt -33.070899963378906 0
vt -30.74799919128418 0.35433098673820496
vt -0.35433098673820496 0.35433098673820496
vt -30.74799919128418 2.7952799797058105
vt 0 33.070899963378906
vt 1.968500018119812 31.102399826049805
vt 35.039398193359375 33.070899963378906
vt 33.070899963378906 31.102399826049805
vt 1.968500018119812 0.1968500018119812
vt 33.070899963378906 3.1496100425720215
vt 1.968500018119812 3.1496100425720215
vt 33.070899963378906 0.1968500018119812
vt 1.968500018119812 31.102399826049805
vt 33.070899963378906 0
vt 33.070899963378906 31.102399826049805
vt 1.968500018119812 0
vt 31.102399826049805 0.1968500018119812
vt 0 3.1496100425720215
vt 0 0.1968500018119812
vt 31.102399826049805 3.1496100425720215
vt -33.070899963378906 3.1496100425720215
vt -1.968500018119812 0.1968500018119812
vt -1.968500018119812 3.1496100425720215
vt -33.070899963378906 0.1968500018119812
vt -31.102399826049805 3.1496100425720215
vt 0 0.1968500018119812
vt 0 3.1496100425720215
vt -31.102399826049805 0.1968500018119812
vt 33.070899963378906 0
vt -1.968500018119812 3.1496100425720215
vt 33.070899963378906 0
vt 33.070899963378906 3.1496100425720215
vt -1.968500018119812 0
vt 35.039398193359375 3.1496100425720215
vt 0 0
vt 35.039398193359375 0
vt 0 3.1496100425720215
vt -35.039398193359375 -1.968500018119812
vt -35.039398193359375 0
vt 0 3.1496100425720215
vt -35.039398193359375 3.1496100425720215
vt 0 0
vn 0 0 -1
vn 0 0 -1
vn 0 -0.44721359014511108 -0.89442718029022217
vn 0 0 -1
vn 0 1 0
vn 0 1 0
vn 0 1 0
vn 0 1 0
vn 0 1 0
vn 0 0 -1
vn 0 0 -1
vn 0 -1 0
vn 0 -1 0
vn 0 -1 0
vn 0 -1 0
vn 0 0 -1
vn 0 0 -1
vn 0 0 -1
vn 0 0 -1
vn 0 0 -1
vn 0 0 -1
vn 0 1 0
vn 0 1 0
vn 0 1 0
vn 0 1 0
vn -1 0 0
vn -1 0 0
vn -1 0 0
vn -1 0 0
vn 0 1 0
vn 0 1 0
vn 0 1 0
vn 0 1 0
vn 0 0 1
vn 0 0 1
vn 0 0 1
vn 0 0 1
vn 1 0 0
vn 1 0 0
vn 1 0 0
vn 1 0 0
vn 0 0 -1
vn 0 0 -1
vn 0 0 -1
vn 0 0 -1
vn 0 1 0
vn 0 0 1
vn 0 0 1
vn 0 0 1
vn 0 0 1
vn -1 0 0
vn -1 0 0
vn -1 0 0
vn -1 0 0
vn 0 -1 0
vn 1 0 0
vn 1 0 0
vn 1 0 0
vn 1 0 0
f 1/1/1 2/2/2 3/3/3
f 2/2/2 1/1/1 4/4/4
f 5/5/5 6/6/6 7/7/7
f 5/5/5 8/8/8 6/6/6
f 8/8/8 5/5/5 9/9/9
f 1/1/1 10/10/10 11/11/11
f 10/10/10 1/1/1 3/3/3
f 3/3/3 12/12/12 13/13/13
f 14/14/14 12/12/12 3/3/3
f 12/12/12 14/14/14 15/15/15
f 16/16/16 17/17/17 18/18/18
f 17/17/17 16/16/16 4/4/4
f 16/16/16 19/19/19 4/4/4
f 16/16/16 20/20/20 19/19/19
f 3/3/3 20/20/20 16/16/16
f 20/20/20 3/3/3 2/2/2
f 21/21/21 20/20/20 2/2/2
f 20/20/20 21/21/21 19/19/19
f 21/21/21 4/4/4 19/19/19
f 2/2/2 4/4/4 21/21/21
f 7/7/7 6/6/6 22/22/22
f 23/23/23 22/22/22 6/6/6
f 22/22/22 23/23/23 24/24/24
f 24/24/24 23/23/23 25/25/25
f 26/26/26 27/27/27 28/28/28
f 27/27/27 26/26/26 29/29/29
f 30/30/30 31/31/31 32/32/32
f 31/31/31 30/30/30 33/33/33
f 34/34/34 35/35/35 36/36/36
f 35/35/35 34/34/34 37/37/37
f 38/38/38 39/39/39 40/40/40
f 39/39/39 38/38/38 41/41/41
f 42/42/42 43/43/43 44/44/44
f 43/43/43 42/42/42 45/45/45
f 46/46/46 8/8/8 25/25/25
f 6/6/6 8/8/8 46/46/46
f 24/24/24 25/25/25 8/8/8
f 47/47/47 48/48/48 49/49/49
f 48/48/48 47/47/47 50/50/50
f 51/51/51 52/52/52 53/53/53
f 52/52/52 51/51/51 54/54/54
f 13/13/13 12/12/12 55/55/55
f 56/56/56 57/57/57 58/58/58
f 57/57/57 56/56/56 59/59/59
