# Rhino

mtllib Table_09_04.mtl
usemtl Default
v 345.76816372999929 205.05871941600003 345.7681637300002
v -342.12849884800016 154.1034110773 345.7681637300002
v 345.76816372999929 154.1034110773 345.7681637300002
v -342.12849884800016 205.05871941600003 345.7681637300002
v 345.76816372999929 205.05871941600003 345.7681637300002
v -342.12849884800016 205.05871941600003 342.12849884799994
v -342.12849884800016 205.05871941600003 345.7681637300002
v 345.76816372999929 205.05871941600003 342.12849884799994
v 345.76816372999929 205.05871941600003 345.7681637300002
v 345.76816372999929 154.1034110773 342.12849884799994
v 345.76816372999929 205.05871941600003 342.12849884799994
v 345.76816372999929 154.1034110773 345.7681637300002
v -342.12849884800016 154.1034110773 345.7681637300002
v 345.76816372999929 154.1034110773 345.7681637300002
v -342.12849884800016 154.1034110773 342.12849884799994
v -342.12849884800016 154.1034110773 345.7681637300002
v -342.12849884800016 205.05871941600003 342.12849884799994
v -342.12849884800016 154.1034110773 342.12849884799994
v -342.12849884800016 205.05871941600003 345.7681637300002
v -342.12849884800016 154.1034110773 342.12849884799994
v -342.12849884800016 205.05871941600003 342.12849884799994
vt 0 2.7559099197387695
vt -37.401599884033203 0
vt 0 0
vt -37.401599884033203 2.7559099197387695
vt 0 0.1968500018119812
vt 37.401599884033203 0
vt 37.401599884033203 0.1968500018119812
vt 0 0
vt -0.1968500018119812 2.7559099197387695
vt 0 0
vt 0 2.7559099197387695
vt -0.1968500018119812 0
vt -37.401599884033203 0.1968500018119812
vt 0 0.1968500018119812
vt -37.401599884033203 0
vt 0.1968500018119812 0
vt 0 2.7559099197387695
vt 0 0
vt 0.1968500018119812 2.7559099197387695
vt 37.401599884033203 0
vt 37.401599884033203 2.7559099197387695
vn 0 0 1
vn 0 0 1
vn 0 0 1
vn 0 0 1
vn 0 1 0
vn 0 1 0
vn 0 1 0
vn 0 1 0
vn 1 0 0
vn 0.66666668653488159 -0.66666668653488159 -0.3333333432674408
vn 0.44721359014511108 0 -0.89442718029022217
vn 1 0 0
vn 0 -1 0
vn 0 -1 0
vn 0 -1 0
vn -1 0 0
vn -1 0 0
vn -1 0 0
vn -1 0 0
vn 0 0 -1
vn 0 0 -1
f 1/1/1 2/2/2 3/3/3
f 2/2/2 1/1/1 4/4/4
f 5/5/5 6/6/6 7/7/7
f 6/6/6 5/5/5 8/8/8
f 9/9/9 10/10/10 11/11/11
f 10/10/10 9/9/9 12/12/12
f 13/13/13 10/10/10 14/14/14
f 10/10/10 13/13/13 15/15/15
f 16/16/16 17/17/17 18/18/18
f 17/17/17 16/16/16 19/19/19
f 11/11/11 20/20/20 21/21/21
f 20/20/20 11/11/11 10/10/10
