# Rhino

mtllib Table_07_03.mtl
usemtl Default
v 260.22390383100083 675.28761745400004 -0.0010476954585101339
v 235.47434369300026 675.28761745400004 14.142840990100012
v 235.47434369300026 675.28761745400004 -0.0010476954585101339
v 280.25883440699999 675.28761745400004 14.142840990100012
v 280.25883440699999 675.28761745400004 -0.0010476954585101339
v 260.22390383100083 675.28761745400004 -0.0010476954585101339
v 280.25883440699999 675.28761745400004 -14.141942965399721
v 280.25883440699999 675.28761745400004 -0.0010476954585101339
v 260.22390383100083 675.28761745400004 -14.141942965399721
v 235.47434369300026 675.28761745400004 -0.0010476954585101339
v 260.22390383100083 675.28761745400004 -14.141942965399721
v 260.22390383100083 675.28761745400004 -0.0010476954585101339
v 235.47434369300026 675.28761745400004 -14.141942965399721
v 235.47434369300026 675.28761745400004 14.142840990100012
v 235.47434369300026 675.28761745400004 -14.141942965399721
v 235.47434369300026 675.28761745400004 -0.0010476954585101339
v 176.77645729400047 675.28761745400004 306.18615391099956
v 250.00138957499985 675.28761745400004 250.00004253800034
v 280.25883440699999 675.28761745400004 14.142840990100012
v 306.18480687399915 675.28761745400004 176.77810367299935
v 306.18480687399915 675.28761745400004 -176.77720564799984
v 280.25883440699999 675.28761745400004 -0.0010476954585101339
v 280.25883440699999 675.28761745400004 -14.141942965399721
v 260.22390383100083 675.28761745400004 -14.141942965399721
v 250.00138957499985 675.28761745400004 -249.99914451399945
v 176.77645729400047 675.28761745400004 -306.18555522799943
v 91.506020660000104 675.28761745400004 341.5063625390012
v 91.506020660000104 675.28761745400004 -341.50486583200109
v 0.00029934155918454053 675.28761745400004 353.55336360099955
v 0.00029934155918454053 675.28761745400004 -353.55336360099955
v -91.50542197679988 675.28761745400004 341.5063625390012
v -91.50542197679988 675.28761745400004 -341.50486583200109
v -176.77585861100033 675.28761745400004 306.18615391099956
v -176.77585861100033 675.28761745400004 -306.18555522799943
v -249.99929418399915 675.28761745400004 250.00004253800034
v -249.99929418399915 675.28761745400004 -249.99914451399945
v -306.18570489899957 675.28761745400004 176.77810367299935
v -306.18570489899957 675.28761745400004 -176.77720564799984
v -341.50561418599955 675.28761745400004 91.507667038500585
v -341.50561418599955 675.28761745400004 -91.50676901370025
v -353.55261524699927 675.28761745400004 -0.0010476954585101339
v -341.50561418599955 675.28761745400004 91.507667038500585
v -353.55261524699927 707.10463181199998 -0.0010476954585101339
v -353.55261524699927 675.28761745400004 -0.0010476954585101339
v -341.50561418599955 707.10463181199998 91.507667038500585
v -306.18570489899957 675.28761745400004 176.77810367299935
v -341.50561418599955 707.10463181199998 91.507667038500585
v -341.50561418599955 675.28761745400004 91.507667038500585
v -306.18570489899957 707.10463181199998 176.77810367299935
v -249.99929418399915 675.28761745400004 250.00004253800034
v -306.18570489899957 707.10463181199998 176.77810367299935
v -306.18570489899957 675.28761745400004 176.77810367299935
v -249.99929418399915 707.10463181199998 250.00004253800034
v -249.99929418399915 675.28761745400004 250.00004253800034
v -176.77585861100033 707.10463181199998 306.18615391099956
v -249.99929418399915 707.10463181199998 250.00004253800034
v -176.77585861100033 675.28761745400004 306.18615391099956
v -176.77585861100033 675.28761745400004 306.18615391099956
v -91.50542197679988 707.10463181199998 341.5063625390012
v -176.77585861100033 707.10463181199998 306.18615391099956
v -91.50542197679988 675.28761745400004 341.5063625390012
v -91.50542197679988 675.28761745400004 341.5063625390012
v 0.00029934155918454053 707.10463181199998 353.55336360099955
v -91.50542197679988 707.10463181199998 341.5063625390012
v 0.00029934155918454053 675.28761745400004 353.55336360099955
v 91.506020660000104 707.10463181199998 341.5063625390012
v 91.506020660000104 675.28761745400004 341.5063625390012
v 91.506020660000104 675.28761745400004 341.5063625390012
v 176.77645729400047 707.10463181199998 306.18615391099956
v 91.506020660000104 707.10463181199998 341.5063625390012
v 176.77645729400047 675.28761745400004 306.18615391099956
v 176.77645729400047 675.28761745400004 306.18615391099956
v 250.00138957499985 707.10463181199998 250.00004253800034
v 176.77645729400047 707.10463181199998 306.18615391099956
v 250.00138957499985 675.28761745400004 250.00004253800034
v 306.18480687399915 675.28761745400004 176.77810367299935
v 250.00138957499985 707.10463181199998 250.00004253800034
v 250.00138957499985 675.28761745400004 250.00004253800034
v 306.18480687399915 707.10463181199998 176.77810367299935
v 341.5071108939992 675.28761745400004 91.507667038500585
v 306.18480687399915 707.10463181199998 176.77810367299935
v 306.18480687399915 675.28761745400004 176.77810367299935
v 341.5071108939992 707.10463181199998 91.507667038500585
v 353.55261524699927 675.28761745400004 -0.0010476954585101339
v 341.5071108939992 707.10463181199998 91.507667038500585
v 341.5071108939992 675.28761745400004 91.507667038500585
v 353.55261524699927 707.10463181199998 -0.0010476954585101339
v 341.5071108939992 675.28761745400004 -91.50676901370025
v 353.55261524699927 707.10463181199998 -0.0010476954585101339
v 353.55261524699927 675.28761745400004 -0.0010476954585101339
v 341.5071108939992 707.10463181199998 -91.50676901370025
v 306.18480687399915 675.28761745400004 -176.77720564799984
v 341.5071108939992 707.10463181199998 -91.50676901370025
v 341.5071108939992 675.28761745400004 -91.50676901370025
v 306.18480687399915 707.10463181199998 -176.77720564799984
v 250.00138957499985 675.28761745400004 -249.99914451399945
v 306.18480687399915 707.10463181199998 -176.77720564799984
v 306.18480687399915 675.28761745400004 -176.77720564799984
v 250.00138957499985 707.10463181199998 -249.99914451399945
v 250.00138957499985 675.28761745400004 -249.99914451399945
v 176.77645729400047 707.10463181199998 -306.18555522799943
v 250.00138957499985 707.10463181199998 -249.99914451399945
v 176.77645729400047 675.28761745400004 -306.18555522799943
v 176.77645729400047 675.28761745400004 -306.18555522799943
v 91.506020660000104 707.10463181199998 -341.50486583200109
v 176.77645729400047 707.10463181199998 -306.18555522799943
v 91.506020660000104 675.28761745400004 -341.50486583200109
v 91.506020660000104 675.28761745400004 -341.50486583200109
v 0.00029934155918454053 707.10463181199998 -353.55336360099955
v 91.506020660000104 707.10463181199998 -341.50486583200109
v 0.00029934155918454053 675.28761745400004 -353.55336360099955
v 0.00029934155918454053 675.28761745400004 -353.55336360099955
v -91.50542197679988 707.10463181199998 -341.50486583200109
v 0.00029934155918454053 707.10463181199998 -353.55336360099955
v -91.50542197679988 675.28761745400004 -341.50486583200109
v -91.50542197679988 675.28761745400004 -341.50486583200109
v -176.77585861100033 707.10463181199998 -306.18555522799943
v -91.50542197679988 707.10463181199998 -341.50486583200109
v -176.77585861100033 675.28761745400004 -306.18555522799943
v -176.77585861100033 675.28761745400004 -306.18555522799943
v -249.99929418399915 707.10463181199998 -249.99914451399945
v -176.77585861100033 707.10463181199998 -306.18555522799943
v -249.99929418399915 675.28761745400004 -249.99914451399945
v -306.18570489899957 675.28761745400004 -176.77720564799984
v -249.99929418399915 707.10463181199998 -249.99914451399945
v -249.99929418399915 675.28761745400004 -249.99914451399945
v -306.18570489899957 707.10463181199998 -176.77720564799984
v -341.50561418599955 675.28761745400004 -91.50676901370025
v -306.18570489899957 707.10463181199998 -176.77720564799984
v -306.18570489899957 675.28761745400004 -176.77720564799984
v -341.50561418599955 707.10463181199998 -91.50676901370025
v -341.50561418599955 707.10463181199998 -91.50676901370025
v -341.50561418599955 675.28761745400004 -91.50676901370025
v -341.50561418599955 707.10463181199998 91.507667038500585
v -341.50561418599955 707.10463181199998 -91.50676901370025
v -353.55261524699927 707.10463181199998 -0.0010476954585101339
v -306.18570489899957 707.10463181199998 176.77810367299935
v -306.18570489899957 707.10463181199998 -176.77720564799984
v -249.99929418399915 707.10463181199998 250.00004253800034
v -249.99929418399915 707.10463181199998 -249.99914451399945
v -176.77585861100033 707.10463181199998 306.18615391099956
v -176.77585861100033 707.10463181199998 -306.18555522799943
v -91.50542197679988 707.10463181199998 341.5063625390012
v -91.50542197679988 707.10463181199998 -341.50486583200109
v 0.00029934155918454053 707.10463181199998 353.55336360099955
v 0.00029934155918454053 707.10463181199998 -353.55336360099955
v 91.506020660000104 707.10463181199998 341.5063625390012
v 91.506020660000104 707.10463181199998 -341.50486583200109
v 176.77645729400047 707.10463181199998 306.18615391099956
v 176.77645729400047 707.10463181199998 -306.18555522799943
v 250.00138957499985 707.10463181199998 250.00004253800034
v 250.00138957499985 707.10463181199998 -249.99914451399945
v 306.18480687399915 707.10463181199998 176.77810367299935
v 306.18480687399915 707.10463181199998 -176.77720564799984
v 341.5071108939992 707.10463181199998 91.507667038500585
v 341.5071108939992 707.10463181199998 -91.50676901370025
v 353.55261524699927 707.10463181199998 -0.0010476954585101339
v 341.5071108939992 675.28761745400004 -91.50676901370025
v 341.5071108939992 675.28761745400004 91.507667038500585
v 353.55261524699927 675.28761745400004 -0.0010476954585101339
vt -0.86801302433013916 0.47377300262451172
vt -0.83301299810409546 0.45482200384140015
vt -0.83301299810409546 0.47377300262451172
vt -0.89634597301483154 0.45482200384140015
vt -0.89634597301483154 0.47377300262451172
vt -0.86801302433013916 0.47377300262451172
vt -0.89634597301483154 0.49272400140762329
vt -0.89634597301483154 0.47377300262451172
vt -0.86801302433013916 0.49272400140762329
vt -0.83301299810409546 0.47377300262451172
vt -0.86801302433013916 0.49272400140762329
vt -0.86801302433013916 0.47377300262451172
vt -0.83301299810409546 0.49272400140762329
vt -0.83301299810409546 0.45482200384140015
vt -0.83301299810409546 0.49272400140762329
vt -0.83301299810409546 0.47377300262451172
vt -0.75 0.063473597168922424
vt -0.85355299711227417 0.13876500725746155
vt -0.89634597301483154 0.45482200384140015
vt -0.93301302194595337 0.23688699305057526
vt -0.93301302194595337 0.71065998077392578
vt -0.89634597301483154 0.47377300262451172
vt -0.89634597301483154 0.49272400140762329
vt -0.86801302433013916 0.49272400140762329
vt -0.85355299711227417 0.80878198146820068
vt -0.75 0.88407301902770996
vt -0.6294100284576416 0.016143400222063065
vt -0.6294100284576416 0.93140298128128052
vt -0.5 0
vt -0.5 0.94754701852798462
vt -0.37059000134468079 0.016143400222063065
vt -0.37059000134468079 0.93140298128128052
vt -0.25 0.063473597168922424
vt -0.25 0.88407301902770996
vt -0.14644700288772583 0.13876500725746155
vt -0.14644700288772583 0.80878198146820068
vt -0.066987298429012299 0.23688699305057526
vt -0.066987298429012299 0.71065998077392578
vt -0.017037099227309227 0.35115200281143188
vt -0.017037099227309227 0.59639501571655273
vt 0 0.47377300262451172
vt -0.36519598960876465 0.70884400606155396
vt -0.49572199583053589 0.74224501848220825
vt -0.49572199583053589 0.70884400606155396
vt -0.36519598960876465 0.74224501848220825
vt -0.20533500611782074 0.70884400606155396
vt -0.33586099743843079 0.74224501848220825
vt -0.33586099743843079 0.70884400606155396
vt -0.20533500611782074 0.74224501848220825
vt -0.027032900601625443 0.70884400606155396
vt -0.15755900740623474 0.74224501848220825
vt -0.15755900740623474 0.70884400606155396
vt -0.027032900601625443 0.74224501848220825
vt 0.027032900601625443 0.70884400606155396
vt 0.15755900740623474 0.74224501848220825
vt 0.027032900601625443 0.74224501848220825
vt 0.15755900740623474 0.70884400606155396
vt 0.20533500611782074 0.70884400606155396
vt 0.33586099743843079 0.74224501848220825
vt 0.20533500611782074 0.74224501848220825
vt 0.33586099743843079 0.70884400606155396
vt 0.36519598960876465 0.70884400606155396
vt 0.49572199583053589 0.74224501848220825
vt 0.36519598960876465 0.74224501848220825
vt 0.49572199583053589 0.70884400606155396
vt 0.62624901533126831 0.74224501848220825
vt 0.62624901533126831 0.70884400606155396
vt 0.58801800012588501 0.70884400606155396
vt 0.71854501962661743 0.74224501848220825
vt 0.58801800012588501 0.74224501848220825
vt 0.71854501962661743 0.70884400606155396
vt 0.63579398393630981 0.70884400606155396
vt 0.76631999015808105 0.74224501848220825
vt 0.63579398393630981 0.74224501848220825
vt 0.76631999015808105 0.70884400606155396
vt 0.76631999015808105 0.70884400606155396
vt 0.63579398393630981 0.74224501848220825
vt 0.63579398393630981 0.70884400606155396
vt 0.76631999015808105 0.74224501848220825
vt 0.71854501962661743 0.70884400606155396
vt 0.58801800012588501 0.74224501848220825
vt 0.58801800012588501 0.70884400606155396
vt 0.71854501962661743 0.74224501848220825
vt 0.62624901533126831 0.70884400606155396
vt 0.49572199583053589 0.74224501848220825
vt 0.49572199583053589 0.70884400606155396
vt 0.62624901533126831 0.74224501848220825
vt 0.49572199583053589 0.70884400606155396
vt 0.36519598960876465 0.74224501848220825
vt 0.36519598960876465 0.70884400606155396
vt 0.49572199583053589 0.74224501848220825
vt 0.33586099743843079 0.70884400606155396
vt 0.20533500611782074 0.74224501848220825
vt 0.20533500611782074 0.70884400606155396
vt 0.33586099743843079 0.74224501848220825
vt 0.15755900740623474 0.70884400606155396
vt 0.027032900601625443 0.74224501848220825
vt 0.027032900601625443 0.70884400606155396
vt 0.15755900740623474 0.74224501848220825
vt -0.15755900740623474 0.70884400606155396
vt -0.027032900601625443 0.74224501848220825
vt -0.15755900740623474 0.74224501848220825
vt -0.027032900601625443 0.70884400606155396
vt -0.33586099743843079 0.70884400606155396
vt -0.20533500611782074 0.74224501848220825
vt -0.33586099743843079 0.74224501848220825
vt -0.20533500611782074 0.70884400606155396
vt -0.49572199583053589 0.70884400606155396
vt -0.36519598960876465 0.74224501848220825
vt -0.49572199583053589 0.74224501848220825
vt -0.36519598960876465 0.70884400606155396
vt -0.62624901533126831 0.70884400606155396
vt -0.49572199583053589 0.74224501848220825
vt -0.62624901533126831 0.74224501848220825
vt -0.49572199583053589 0.70884400606155396
vt -0.71854501962661743 0.70884400606155396
vt -0.58801800012588501 0.74224501848220825
vt -0.71854501962661743 0.74224501848220825
vt -0.58801800012588501 0.70884400606155396
vt -0.76631999015808105 0.70884400606155396
vt -0.63579398393630981 0.74224501848220825
vt -0.76631999015808105 0.74224501848220825
vt -0.63579398393630981 0.70884400606155396
vt -0.63579398393630981 0.70884400606155396
vt -0.76631999015808105 0.74224501848220825
vt -0.76631999015808105 0.70884400606155396
vt -0.63579398393630981 0.74224501848220825
vt -0.58801800012588501 0.70884400606155396
vt -0.71854501962661743 0.74224501848220825
vt -0.71854501962661743 0.70884400606155396
vt -0.58801800012588501 0.74224501848220825
vt -0.62624901533126831 0.74224501848220825
vt -0.62624901533126831 0.70884400606155396
vt 0.017037099227309227 0.35115200281143188
vt 0.017037099227309227 0.59639501571655273
vt 0 0.47377300262451172
vt 0.066987298429012299 0.23688699305057526
vt 0.066987298429012299 0.71065998077392578
vt 0.14644700288772583 0.13876500725746155
vt 0.14644700288772583 0.80878198146820068
vt 0.25 0.063473597168922424
vt 0.25 0.88407301902770996
vt 0.37059000134468079 0.016143400222063065
vt 0.37059000134468079 0.93140298128128052
vt 0.5 0
vt 0.5 0.94754701852798462
vt 0.6294100284576416 0.016143400222063065
vt 0.6294100284576416 0.93140298128128052
vt 0.75 0.063473597168922424
vt 0.75 0.88407301902770996
vt 0.85355299711227417 0.13876500725746155
vt 0.85355299711227417 0.80878198146820068
vt 0.93301302194595337 0.23688699305057526
vt 0.93301302194595337 0.71065998077392578
vt 0.98296302556991577 0.35115200281143188
vt 0.98296302556991577 0.59639501571655273
vt 1 0.47377300262451172
vt -0.98296302556991577 0.59639501571655273
vt -0.98296302556991577 0.35115200281143188
vt -1 0.47377300262451172
vn 0 -1 0
vn 0 -1 0
vn 0 -1 0
vn 0 -1 0
vn 0 -1 0
vn 0 -1 0
vn 0 -1 0
vn 0 -1 0
vn 0 -1 0
vn 0 -1 0
vn 0 -1 0
vn 0 -1 0
vn 0 -1 0
vn 0 -1 0
vn 0 -1 0
vn 0 0 1
vn 0 -1 0
vn 0 -1 0
vn 0 -1 0
vn 0 -1 0
vn 0 -1 0
vn 0 -1 0
vn 0 -1 0
vn 0 -1 0
vn 0 -1 0
vn 0 -1 0
vn 0 -1 0
vn 0 -1 0
vn 0 -1 0
vn 0 -1 0
vn 0 -1 0
vn 0 -1 0
vn 0 -1 0
vn 0 -1 0
vn 0 -1 0
vn 0 -1 0
vn 0 -1 0
vn 0 -1 0
vn 0 -1 0
vn 0 -1 0
vn 0 -1 0
vn -0.99144536256790161 0 0.1305224597454071
vn -0.99903857707977295 0 0.043839301913976669
vn -0.99903839826583862 0 -0.043843530118465424
vn -0.99144536256790161 0 0.1305224597454071
vn -0.92388051748275757 0 0.3826809823513031
vn -0.92388051748275757 0 0.3826809823513031
vn -0.92388051748275757 0 0.3826809823513031
vn -0.92388051748275757 0 0.3826809823513031
vn -0.7933468222618103 0 0.60876989364624023
vn -0.7933468222618103 0 0.60876989364624023
vn -0.7933468222618103 0 0.60876989364624023
vn -0.7933468222618103 0 0.60876989364624023
vn -0.60875993967056274 0 0.79335445165634155
vn -0.60875993967056274 0 0.79335445165634155
vn -0.60875993967056274 0 0.79335445165634155
vn -0.60875993967056274 0 0.79335445165634155
vn -0.38268381357192993 0 0.92387938499450684
vn -0.38268381357192993 0 0.92387938499450684
vn -0.38268381357192993 0 0.92387938499450684
vn -0.38268381357192993 0 0.92387938499450684
vn -0.13052666187286377 0 0.99144482612609863
vn -0.0438421331346035 0 0.9990384578704834
vn -0.13052666187286377 0 0.99144482612609863
vn 0.0438421331346035 0 0.9990384578704834
vn 0.13052666187286377 0 0.99144482612609863
vn 0.13052666187286377 0 0.99144482612609863
vn 0.38268381357192993 0 0.92387938499450684
vn 0.38268381357192993 0 0.92387938499450684
vn 0.38268381357192993 0 0.92387938499450684
vn 0.38268381357192993 0 0.92387938499450684
vn 0.60875219106674194 0 0.79336041212081909
vn 0.60875219106674194 0 0.79336041212081909
vn 0.60875219106674194 0 0.79336041212081909
vn 0.60875219106674194 0 0.79336041212081909
vn 0.79336249828338623 0 0.60874950885772705
vn 0.79336249828338623 0 0.60874950885772705
vn 0.79336249828338623 0 0.60874950885772705
vn 0.79336249828338623 0 0.60874950885772705
vn 0.92387133836746216 0 0.38270318508148193
vn 0.92387133836746216 0 0.38270318508148193
vn 0.92387133836746216 0 0.38270318508148193
vn 0.92387133836746216 0 0.38270318508148193
vn 0.99144744873046875 0 0.13050653040409088
vn 0.99144744873046875 0 0.13050653040409088
vn 0.99144744873046875 0 0.13050653040409088
vn 0.99144744873046875 0 0.13050653040409088
vn 0.99144691228866577 0 -0.13051071763038635
vn 0.99144691228866577 0 -0.13051071763038635
vn 0.99144691228866577 0 -0.13051071763038635
vn 0.99144691228866577 0 -0.13051071763038635
vn 0.92387133836746216 0 -0.38270318508148193
vn 0.92387133836746216 0 -0.38270318508148193
vn 0.92387133836746216 0 -0.38270318508148193
vn 0.92387133836746216 0 -0.38270318508148193
vn 0.79336249828338623 0 -0.60874950885772705
vn 0.79336249828338623 0 -0.60874950885772705
vn 0.79336249828338623 0 -0.60874950885772705
vn 0.79336249828338623 0 -0.60874950885772705
vn 0.60875421762466431 0 -0.79335886240005493
vn 0.60875421762466431 0 -0.79335886240005493
vn 0.60875421762466431 0 -0.79335886240005493
vn 0.60875421762466431 0 -0.79335886240005493
vn 0.38267543911933899 0 -0.92388284206390381
vn 0.38267543911933899 0 -0.92388284206390381
vn 0.38267543911933899 0 -0.92388284206390381
vn 0.38267543911933899 0 -0.92388284206390381
vn 0.13054262101650238 0 -0.99144268035888672
vn 0.13054262101650238 0 -0.99144268035888672
vn 0.13054262101650238 0 -0.99144268035888672
vn 0.13054262101650238 0 -0.99144268035888672
vn -0.13054262101650238 0 -0.99144268035888672
vn -0.13054262101650238 0 -0.99144268035888672
vn -0.13054262101650238 0 -0.99144268035888672
vn -0.13054262101650238 0 -0.99144268035888672
vn -0.38267543911933899 0 -0.92388284206390381
vn -0.38267543911933899 0 -0.92388284206390381
vn -0.38267543911933899 0 -0.92388284206390381
vn -0.38267543911933899 0 -0.92388284206390381
vn -0.60876208543777466 0 -0.79335284233093262
vn -0.60876208543777466 0 -0.79335284233093262
vn -0.60876208543777466 0 -0.79335284233093262
vn -0.60876208543777466 0 -0.79335284233093262
vn -0.7933468222618103 0 -0.60876989364624023
vn -0.7933468222618103 0 -0.60876989364624023
vn -0.7933468222618103 0 -0.60876989364624023
vn -0.7933468222618103 0 -0.60876989364624023
vn -0.92388051748275757 0 -0.3826809823513031
vn -0.92388051748275757 0 -0.3826809823513031
vn -0.92388051748275757 0 -0.3826809823513031
vn -0.92388051748275757 0 -0.3826809823513031
vn -0.99144482612609863 0 -0.13052666187286377
vn -0.99144482612609863 0 -0.13052666187286377
vn 0 1 0
vn 0 1 0
vn 0 1 0
vn 0 1 0
vn 0 1 0
vn 0 1 0
vn 0 1 0
vn 0 1 0
vn 0 1 0
vn 0 1 0
vn 0 1 0
vn 0 1 0
vn 0 1 0
vn 0 1 0
vn 0 1 0
vn 0 1 0
vn 0 1 0
vn 0 1 0
vn 0 1 0
vn 0 1 0
vn 0 1 0
vn 0 1 0
vn 0 1 0
vn 0 1 0
vn 0 -1 0
vn 0 -1 0
vn 0 -1 0
f 1/1/1 2/2/2 3/3/3
f 2/2/2 1/1/1 4/4/4
f 4/4/4 1/1/1 5/5/5
f 6/6/6 7/7/7 8/8/8
f 7/7/7 6/6/6 9/9/9
f 10/10/10 11/11/11 12/12/12
f 11/11/11 10/10/10 13/13/13
f 14/14/14 15/15/15 16/16/16
f 14/14/14 17/17/17 15/15/15
f 17/17/17 14/14/14 18/18/18
f 18/18/18 14/14/14 19/19/19
f 18/18/18 19/19/19 20/20/20
f 20/20/20 19/19/19 21/21/21
f 22/22/22 21/21/21 19/19/19
f 23/23/23 21/21/21 22/22/22
f 24/24/24 21/21/21 23/23/23
f 24/24/24 25/25/25 21/21/21
f 15/15/15 25/25/25 24/24/24
f 17/17/17 25/25/25 15/15/15
f 17/17/17 26/26/26 25/25/25
f 27/27/27 26/26/26 17/17/17
f 27/27/27 28/28/28 26/26/26
f 29/29/29 28/28/28 27/27/27
f 29/29/29 30/30/30 28/28/28
f 31/31/31 30/30/30 29/29/29
f 31/31/31 32/32/32 30/30/30
f 33/33/33 32/32/32 31/31/31
f 33/33/33 34/34/34 32/32/32
f 35/35/35 34/34/34 33/33/33
f 35/35/35 36/36/36 34/34/34
f 37/37/37 36/36/36 35/35/35
f 37/37/37 38/38/38 36/36/36
f 39/39/39 38/38/38 37/37/37
f 39/39/39 40/40/40 38/38/38
f 40/40/40 39/39/39 41/41/41
f 42/42/42 43/43/43 44/44/44
f 43/43/43 42/42/42 45/45/45
f 46/46/46 47/47/47 48/48/48
f 47/47/47 46/46/46 49/49/49
f 50/50/50 51/51/51 52/52/52
f 51/51/51 50/50/50 53/53/53
f 54/54/54 55/55/55 56/56/56
f 55/55/55 54/54/54 57/57/57
f 58/58/58 59/59/59 60/60/60
f 59/59/59 58/58/58 61/61/61
f 62/62/62 63/63/63 64/64/64
f 63/63/63 62/62/62 65/65/65
f 65/65/65 66/66/66 63/63/63
f 66/66/66 65/65/65 67/67/67
f 68/68/68 69/69/69 70/70/70
f 69/69/69 68/68/68 71/71/71
f 72/72/72 73/73/73 74/74/74
f 73/73/73 72/72/72 75/75/75
f 76/76/76 77/77/77 78/78/78
f 77/77/77 76/76/76 79/79/79
f 80/80/80 81/81/81 82/82/82
f 81/81/81 80/80/80 83/83/83
f 84/84/84 85/85/85 86/86/86
f 85/85/85 84/84/84 87/87/87
f 88/88/88 89/89/89 90/90/90
f 89/89/89 88/88/88 91/91/91
f 92/92/92 93/93/93 94/94/94
f 93/93/93 92/92/92 95/95/95
f 96/96/96 97/97/97 98/98/98
f 97/97/97 96/96/96 99/99/99
f 100/100/100 101/101/101 102/102/102
f 101/101/101 100/100/100 103/103/103
f 104/104/104 105/105/105 106/106/106
f 105/105/105 104/104/104 107/107/107
f 108/108/108 109/109/109 110/110/110
f 109/109/109 108/108/108 111/111/111
f 112/112/112 113/113/113 114/114/114
f 113/113/113 112/112/112 115/115/115
f 116/116/116 117/117/117 118/118/118
f 117/117/117 116/116/116 119/119/119
f 120/120/120 121/121/121 122/122/122
f 121/121/121 120/120/120 123/123/123
f 124/124/124 125/125/125 126/126/126
f 125/125/125 124/124/124 127/127/127
f 128/128/128 129/129/129 130/130/130
f 129/129/129 128/128/128 131/131/131
f 44/44/44 132/132/132 133/133/133
f 132/132/132 44/44/44 43/43/43
f 134/134/134 135/135/135 136/136/136
f 135/135/135 134/134/134 137/137/137
f 135/135/135 137/137/137 138/138/138
f 138/138/138 137/137/137 139/139/139
f 138/138/138 139/139/139 140/140/140
f 140/140/140 139/139/139 141/141/141
f 140/140/140 141/141/141 142/142/142
f 142/142/142 141/141/141 143/143/143
f 142/142/142 143/143/143 144/144/144
f 144/144/144 143/143/143 145/145/145
f 144/144/144 145/145/145 146/146/146
f 146/146/146 145/145/145 147/147/147
f 146/146/146 147/147/147 148/148/148
f 148/148/148 147/147/147 149/149/149
f 148/148/148 149/149/149 150/150/150
f 150/150/150 149/149/149 151/151/151
f 150/150/150 151/151/151 152/152/152
f 152/152/152 151/151/151 153/153/153
f 152/152/152 153/153/153 154/154/154
f 154/154/154 153/153/153 155/155/155
f 154/154/154 155/155/155 156/156/156
f 156/156/156 155/155/155 157/157/157
f 20/20/20 21/21/21 158/158/158
f 20/20/20 158/158/158 159/159/159
f 159/159/159 158/158/158 160/160/160
