# Rhino

mtllib Table_17_06.mtl
usemtl Default
v -325.87437289399986 424.83609614399995 -206.24910279599953
v 325.87405024999998 424.83609614399995 -206.24910279599953
v -325.87437289399986 424.83609614399995 -194.61941490400022
v 325.87405024999998 424.83609614399995 -194.61941490400022
v -325.87437289399986 456.09057987299997 -194.61941490400022
v 325.87405024999998 456.09057987299997 -194.61941490400022
v -325.87437289399986 456.09057987299997 -206.24910279599953
v 325.87405024999998 456.09057987299997 -206.24910279599953
v -325.87437289399986 424.83609614399995 -194.61941490400022
v 325.87405024999998 424.83609614399995 -194.61941490400022
v -325.87437289399986 456.09057987299997 -194.61941490400022
v 325.87405024999998 456.09057987299997 -194.61941490400022
v 325.87405024999998 424.83609614399995 -194.61941490400022
v 325.87405024999998 424.83609614399995 -206.24910279599953
v 325.87405024999998 456.09057987299997 -194.61941490400022
v 325.87405024999998 456.09057987299997 -206.24910279599953
v 325.87405024999998 424.83609614399995 -206.24910279599953
v -325.87437289399986 424.83609614399995 -206.24910279599953
v 325.87405024999998 456.09057987299997 -206.24910279599953
v -325.87437289399986 456.09057987299997 -206.24910279599953
v -325.87437289399986 424.83609614399995 -206.24910279599953
v -325.87437289399986 424.83609614399995 -194.61941490400022
v -325.87437289399986 456.09057987299997 -206.24910279599953
v -325.87437289399986 456.09057987299997 -194.61941490400022
vt 0 0
vt 1 0
vt 0 1
vt 1 1
vt 0 0
vt 1 0
vt 0 1
vt 1 1
vt 0 0
vt 1 0
vt 0 1
vt 1 1
vt 0 0
vt 1 0
vt 0 1
vt 1 1
vt 0 0
vt 1 0
vt 0 1
vt 1 1
vt 0 0
vt 1 0
vt 0 1
vt 1 1
vn 0 -1 0
vn 0 -1 0
vn 0 -1 0
vn 0 -1 0
vn 0 1 0
vn 0 1 0
vn 0 1 0
vn 0 1 0
vn 0 0 1
vn 0 0 1
vn 0 0 1
vn 0 0 1
vn 1 0 0
vn 1 0 0
vn 1 0 0
vn 1 0 0
vn 0 0 -1
vn 0 0 -1
vn 0 0 -1
vn 0 0 -1
vn -1 0 0
vn -1 0 0
vn -1 0 0
vn -1 0 0
f 1/1/1 2/2/2 4/4/4 3/3/3
f 5/5/5 6/6/6 8/8/8 7/7/7
f 9/9/9 10/10/10 12/12/12 11/11/11
f 13/13/13 14/14/14 16/16/16 15/15/15
f 17/17/17 18/18/18 20/20/20 19/19/19
f 21/21/21 22/22/22 24/24/24 23/23/23
