# Rhino

mtllib Table_14_10.mtl
usemtl Default
v -282.26644777800084 343.00732894499993 325.14236389600001
v -325.14236389600046 343.00732894499993 282.26644777799993
v -325.14236389600046 343.00732894499993 325.14236389600001
v -282.26644777800084 343.00732894499993 282.26644777799993
v -282.26644777800084 343.00732894499993 325.14236389600001
v -282.26644777800084 282.266447777 282.26644777799993
v -282.26644777800084 343.00732894499993 282.26644777799993
v -282.26644777800084 282.266447777 325.14236389600001
v -325.14236389600046 343.00732894499993 325.14236389600001
v -282.26644777800084 282.266447777 325.14236389600001
v -282.26644777800084 343.00732894499993 325.14236389600001
v -325.14236389600046 0 325.14236389600001
v -296.55841981699996 0 325.14236389600001
v -296.55841981699996 0 296.55841981699996
v -296.55841981699996 0 325.14236389600001
v -325.14236389600046 0 296.55841981699996
v -325.14236389600046 343.00732894499993 282.26644777799993
v -325.14236389600046 0 296.55841981699996
v -325.14236389600046 282.266447777 282.26644777799993
v -325.14236389600046 343.00732894499993 282.26644777799993
v -282.26644777800084 282.266447777 282.26644777799993
v -325.14236389600046 282.266447777 282.26644777799993
v -282.26644777800084 343.00732894499993 282.26644777799993
v -296.55841981699996 0 296.55841981699996
v -325.14236389600046 282.266447777 282.26644777799993
v -282.26644777800084 282.266447777 282.26644777799993
v -325.14236389600046 0 296.55841981699996
v -282.26644777800084 282.266447777 325.14236389600001
v -296.55841981699996 0 296.55841981699996
v -282.26644777800084 282.266447777 282.26644777799993
v -296.55841981699996 0 325.14236389600001
vt 2.3622000217437744 0
vt 0 2.3622000217437744
vt 0 0
vt 2.3622000217437744 2.3622000217437744
vt 0 18.897600173950195
vt 2.3622000217437744 15.551199913024902
vt 2.3622000217437744 18.897600173950195
vt 0 15.551199913024902
vt 0 18.897600173950195
vt 2.3622000217437744 15.551199913024902
vt 2.3622000217437744 18.897600173950195
vt 0 0
vt 1.5748000144958496 0
vt -1.5748000144958496 1.5748000144958496
vt -1.5748000144958496 0
vt 0 1.5748000144958496
vt -2.3622000217437744 18.897600173950195
vt -1.5748000144958496 0
vt -2.3622000217437744 15.551199913024902
vt 0 18.897600173950195
vt -2.3622000217437744 15.551199913024902
vt 0 15.551199913024902
vt -2.3622000217437744 18.897600173950195
vt -1.5748000144958496 0.079634897410869598
vt 0 15.650699615478516
vt -2.3622000217437744 15.650699615478516
vt 0 0.079634897410869598
vt 0 15.650699615478516
vt 1.5748000144958496 0.079634897410869598
vt 2.3622000217437744 15.650699615478516
vt 0 0.079634897410869598
vn 0 1 0
vn 0 1 0
vn 0 1 0
vn 0 1 0
vn 1 0 0
vn 1 0 0
vn 1 0 0
vn 1 0 0
vn -0.44721359014511108 0 0.89442718029022217
vn 0 0 1
vn 0 0 1
vn -0.57735025882720947 -0.57735025882720947 0.57735025882720947
vn 0 0 1
vn 0 -1 0
vn 0 -1 0
vn 0 -1 0
vn -1 0 0
vn -1 0 0
vn -1 0 0
vn 0 0 -1
vn 0 0 -1
vn 0 0 -1
vn 0 0 -1
vn 0 -0.050568133592605591 -0.99872058629989624
vn 0 -0.050568133592605591 -0.99872058629989624
vn 0 -0.050568133592605591 -0.99872058629989624
vn 0 -0.050568133592605591 -0.99872058629989624
vn 0.99872058629989624 -0.050568133592605591 0
vn 0.99872058629989624 -0.050568133592605591 0
vn 0.99872058629989624 -0.050568133592605591 0
vn 0.99872058629989624 -0.050568133592605591 0
f 1/1/1 2/2/2 3/3/3
f 2/2/2 1/1/1 4/4/4
f 5/5/5 6/6/6 7/7/7
f 6/6/6 5/5/5 8/8/8
f 9/9/9 10/10/10 11/11/11
f 12/12/12 10/10/10 9/9/9
f 10/10/10 12/12/12 13/13/13
f 12/12/12 14/14/14 15/15/15
f 14/14/14 12/12/12 16/16/16
f 12/12/12 17/17/17 18/18/18
f 17/17/17 12/12/12 9/9/9
f 18/18/18 17/17/17 19/19/19
f 20/20/20 21/21/21 22/22/22
f 21/21/21 20/20/20 23/23/23
f 24/24/24 25/25/25 26/26/26
f 25/25/25 24/24/24 27/27/27
f 28/28/28 29/29/29 30/30/30
f 29/29/29 28/28/28 31/31/31
