# Rhino

mtllib Table_13_04.mtl
usemtl Default
v 384.21300525999959 477.064481532 76.842601052099781
v 387.41478030399958 477.064481532 80.044376095900134
v 384.21300525999959 477.064481532 -57.631950789000257
v 387.41478030399958 477.064481532 -60.8337258329002
v 384.21300525999959 477.064481532 -57.631950789000257
v 384.21300525999959 464.25738135699999 76.842601052099781
v 384.21300525999959 477.064481532 76.842601052099781
v 384.21300525999959 464.25738135699999 -57.631950789000257
v 384.21300525999959 464.25738135699999 -57.631950789000257
v 419.43253074300083 464.25738135699999 -112.06212653400053
v 384.21300525999959 464.25738135699999 76.842601052099781
v 419.43253074300083 464.25738135699999 112.06212653400053
v 425.83608082999945 467.45915639999998 -118.46567662199959
v 419.43253074300083 464.25738135699999 112.06212653400053
v 419.43253074300083 464.25738135699999 -112.06212653400053
v 425.83608082999945 467.45915639999998 118.46567662199959
v 425.83608082999945 467.45915639999998 -118.46567662199959
v 425.83608082999945 473.86270648800001 118.46567662199959
v 425.83608082999945 467.45915639999998 118.46567662199959
v 425.83608082999945 473.86270648800001 -118.46567662199959
v 419.43253074300083 467.45915639999998 118.46567662199959
v 419.43253074300083 464.25738135699999 112.06212653400053
v 425.83608082999945 467.45915639999998 118.46567662199959
v 425.83608082999945 473.86270648800001 118.46567662199959
v 419.43253074300083 467.45915639999998 118.46567662199959
v 425.83608082999945 467.45915639999998 118.46567662199959
v 419.43253074300083 474.08215614899996 117.70259757500025
v 419.43253074300083 473.86270648800001 118.46567662199959
v 425.83608082999945 473.86270648800001 118.46567662199959
v 419.93841119900026 478.76347144099998 112.57015218100059
v 420.29701000500063 478.05331773600005 -112.92532508600016
v 419.93841119900026 478.76347144099998 -112.56992805600021
v 420.29701000500063 478.05331773600005 112.92536991099996
v 419.93841119900026 478.76347144099998 112.57015218100059
v 419.43253074300083 478.05331773600005 112.92536991099996
v 420.29701000500063 478.05331773600005 112.92536991099996
v 419.43253074300083 474.37076415199999 116.96287868000036
v 419.43253074300083 474.08215614899996 117.70259757500025
v 425.07405836999988 474.08215614899996 117.70259757500025
v 425.07405836999988 474.08215614899996 117.70259757500025
v 425.83608082999945 473.86270648800001 118.46567662199959
v 425.07405836999988 474.08215614899996 -117.70237345099986
v 425.07405836999988 474.08215614899996 117.70259757500025
v 425.83608082999945 473.86270648800001 -118.46567662199959
v 420.29701000500063 478.05331773600005 112.92536991099996
v 420.71324076000019 477.37876776999997 -113.3441172619996
v 420.29701000500063 478.05331773600005 -112.92532508600016
v 420.71324076000019 477.37876776999997 113.3442389289994
v 420.29701000500063 478.05331773600005 112.92536991099996
v 419.43253074300083 477.37876776999997 113.3442389289994
v 420.71324076000019 477.37876776999997 113.3442389289994
v 420.71324076000019 477.37876776999997 113.3442389289994
v 421.19350701599978 476.74552070200002 -113.82310280799993
v 420.71324076000019 477.37876776999997 -113.3441172619996
v 421.19350701599978 476.74552070200002 113.82323087899977
v 420.71324076000019 477.37876776999997 113.3442389289994
v 419.43253074300083 476.74552070200002 113.82323087899977
v 421.19350701599978 476.74552070200002 113.82323087899977
v 421.19350701599978 476.74552070200002 113.82323087899977
v 421.7314052239999 476.15889147799999 -114.3584395959997
v 421.19350701599978 476.74552070200002 -113.82310280799993
v 421.7314052239999 476.15889147799999 114.35830512100028
v 421.19350701599978 476.74552070200002 113.82323087899977
v 419.43253074300083 476.15889147799999 114.35830512100028
v 421.7314052239999 476.15889147799999 114.35830512100028
v 419.43253074300083 476.15889147799999 114.35830512100028
v 422.31412828200064 475.62381083299999 114.94494715200017
v 421.7314052239999 476.15889147799999 114.35830512100028
v 419.43253074300083 475.62381083299999 114.94494715200017
v 419.43253074300083 475.62381083299999 114.94494715200017
v 422.94807974000014 475.14482528600001 115.57820702700064
v 422.31412828200064 475.62381083299999 114.94494715200017
v 419.43253074300083 475.14482528600001 115.57820702700064
v 419.43253074300083 475.14482528600001 115.57820702700064
v 423.62045249999937 474.72596907499997 116.25275059000069
v 422.94807974000014 475.14482528600001 115.57820702700064
v 419.43253074300083 474.72596907499997 116.25275059000069
v 419.43253074300083 474.72596907499997 116.25275059000069
v 424.33124655999927 474.37076415199999 116.96287868000036
v 423.62045249999937 474.72596907499997 116.25275059000069
v 419.43253074300083 474.37076415199999 116.96287868000036
v 424.33124655999927 474.37076415199999 116.96287868000036
v 425.07405836999988 474.08215614899996 117.70259757500025
v 424.33124655999927 474.37076415199999 -116.96276341700013
v 424.33124655999927 474.37076415199999 116.96287868000036
v 425.07405836999988 474.08215614899996 -117.70237345099986
v 423.62045249999937 474.72596907499997 -116.25260971100033
v 424.33124655999927 474.37076415199999 116.96287868000036
v 424.33124655999927 474.37076415199999 -116.96276341700013
v 423.62045249999937 474.72596907499997 116.25275059000069
v 422.94807974000014 475.14482528600001 -115.57831588699992
v 423.62045249999937 474.72596907499997 116.25275059000069
v 423.62045249999937 474.72596907499997 -116.25260971100033
v 422.94807974000014 475.14482528600001 115.57820702700064
v 422.31412828200064 475.62381083299999 -114.9450047829996
v 422.94807974000014 475.14482528600001 115.57820702700064
v 422.94807974000014 475.14482528600001 -115.57831588699992
v 422.31412828200064 475.62381083299999 114.94494715200017
v 421.7314052239999 476.15889147799999 -114.3584395959997
v 422.31412828200064 475.62381083299999 114.94494715200017
v 422.31412828200064 475.62381083299999 -114.9450047829996
v 421.7314052239999 476.15889147799999 114.35830512100028
v 419.65025144500032 479.50320954699998 112.28159540700017
v 419.43253074300083 478.76347144099998 112.57015218100059
v 419.93841119900026 478.76347144099998 112.57015218100059
v 419.93841119900026 478.76347144099998 -112.56992805600021
v 419.65025144500032 479.50320954699998 112.28159540700017
v 419.93841119900026 478.76347144099998 112.57015218100059
v 419.65025144500032 479.50320954699998 -112.28176830200027
v 419.65025144500032 479.50320954699998 -112.28176830200027
v 419.43253074300083 480.26625657599999 112.06212653400053
v 419.65025144500032 479.50320954699998 112.28159540700017
v 419.43253074300083 480.26625657599999 -112.06212653400053
v 387.41478030399958 480.26625657599999 -60.8337258329002
v 419.43253074300083 480.26625657599999 112.06212653400053
v 419.43253074300083 480.26625657599999 -112.06212653400053
v 387.41478030399958 480.26625657599999 80.044376095900134
v 387.41478030399958 480.26625657599999 -60.8337258329002
v 387.41478030399958 477.064481532 80.044376095900134
v 387.41478030399958 480.26625657599999 80.044376095900134
v 387.41478030399958 477.064481532 -60.8337258329002
vt 49.8031005859375 2.5590600967407227
vt 50 2.3622000217437744
vt 49.8031005859375 10.826800346374512
vt 50 11.023599624633789
vt -10.826800346374512 0.78740197420120239
vt -2.5590600967407227 0
vt -2.5590600967407227 0.78740197420120239
vt -10.826800346374512 0
vt -49.8031005859375 10.826800346374512
vt -51.968498229980469 14.173199653625488
vt -49.8031005859375 2.5590600967407227
vt -51.968498229980469 0.3937009871006012
vt 14.566900253295898 46.922199249267578
vt 0.3937009871006012 46.481998443603516
vt 14.173199653625488 46.481998443603516
vt 0 46.922199249267578
vt 14.566900253295898 0.1968500018119812
vt 0 0.59055101871490479
vt 0 0.1968500018119812
vt 14.566900253295898 0.59055101871490479
vt 51.968498229980469 0.088034197688102722
vt 51.968498229980469 -0.3521369993686676
vt 52.362201690673828 0.088034197688102722
vt 52.362201690673828 0.59055101871490479
vt 51.968498229980469 0.1968500018119812
vt 52.362201690673828 0.1968500018119812
vt 51.968498229980469 0.21204900741577148
vt 51.968498229980469 0.16323199868202209
vt 52.362201690673828 0.16323199868202209
vt 0.36246600747108459 -22.465099334716797
vt 14.226300239562988 -22.513999938964844
vt 14.204500198364258 -22.465099334716797
vt 0.34062701463699341 -22.513999938964844
vt 51.999698638916016 0.959788978099823
vt 51.968498229980469 0.910971999168396
vt 52.021598815917969 0.910971999168396
vt 51.968498229980469 0.31204500794410706
vt 51.968498229980469 0.26322799921035767
vt 52.315299987792969 0.26322799921035767
vt 52.315299987792969 0.21204900741577148
vt 0 -50.159000396728516
vt 14.520000457763672 -50.110198974609375
vt 0.046915300190448761 -50.110198974609375
vt 14.566900253295898 -50.159000396728516
vt 0.34062701463699341 -26.722600936889648
vt 14.252099990844727 -26.771400451660156
vt 14.226300239562988 -26.722600936889648
vt 0.31487500667572021 -26.771400451660156
vt 52.021598815917969 0.90026497840881348
vt 51.968498229980469 0.85144799947738647
vt 52.047298431396484 0.85144799947738647
vt 0.31487500667572021 -30.754400253295898
vt 14.281499862670898 -30.803300857543945
vt 14.252099990844727 -30.754400253295898
vt 0.28542500734329224 -30.803300857543945
vt 52.047298431396484 0.83335202932357788
vt 51.968498229980469 0.7845349907875061
vt 52.076801300048828 0.7845349907875061
vt 0.28542500734329224 -34.526599884033203
vt 14.314399719238281 -34.575401306152344
vt 14.281499862670898 -34.526599884033203
vt 0.25252801179885864 -34.575401306152344
vt 52.076801300048828 0.75961500406265259
vt 51.968498229980469 0.71079802513122559
vt 52.109699249267578 0.71079802513122559
vt 51.968498229980469 0.67967599630355835
vt 52.145698547363281 0.63085901737213135
vt 52.109699249267578 0.67967599630355835
vt 51.968498229980469 0.63085901737213135
vt 51.968498229980469 0.5942080020904541
vt 52.184700012207031 0.5453910231590271
vt 52.145698547363281 0.5942080020904541
vt 51.968498229980469 0.5453910231590271
vt 51.968498229980469 0.50393402576446533
vt 52.226200103759766 0.45511698722839355
vt 52.184700012207031 0.50393402576446533
vt 51.968498229980469 0.45511698722839355
vt 51.968498229980469 0.40961501002311707
vt 52.269798278808594 0.36079698801040649
vt 52.226200103759766 0.40961501002311707
vt 51.968498229980469 0.36079698801040649
vt 52.269798278808594 0.31204500794410706
vt 0.046915300190448761 -48.518798828125
vt 14.474499702453613 -48.470001220703125
vt 0.092394702136516571 -48.470001220703125
vt 14.520000457763672 -48.518798828125
vt 14.430899620056152 -46.420600891113281
vt 0.092394702136516571 -46.469501495361328
vt 14.474499702453613 -46.469501495361328
vt 0.13605399429798126 -46.420600891113281
vt 14.389399528503418 -43.979499816894531
vt 0.13605399429798126 -44.028301239013672
vt 14.430899620056152 -44.028301239013672
vt 0.17752599716186523 -43.979499816894531
vt 14.350500106811523 -41.167198181152344
vt 0.17752599716186523 -41.215999603271484
vt 14.389399528503418 -41.215999603271484
vt 0.21646000444889069 -41.167198181152344
vt 14.314399719238281 -38.007301330566406
vt 0.21646000444889069 -38.056098937988281
vt 14.350500106811523 -38.056098937988281
vt 0.25252801179885864 -38.007301330566406
vt 51.981998443603516 1.0114200115203857
vt 51.968498229980469 0.96260398626327515
vt 51.999698638916016 0.96260398626327515
vt 14.204500198364258 -18.066799163818359
vt 0.38020700216293335 -18.017900466918945
vt 0.36246600747108459 -18.066799163818359
vt 14.186699867248535 -18.017900466918945
vt 14.186699867248535 -13.467300415039062
vt 0.3937009871006012 -13.418499946594238
vt 0.38020700216293335 -13.467300415039062
vt 14.173199653625488 -13.418499946594238
vt 50 11.023599624633789
vt 51.968498229980469 0.3937009871006012
vt 51.968498229980469 14.173199653625488
vt 50 2.3622000217437744
vt -11.023599624633789 0.98425197601318359
vt -2.3622000217437744 0.78740197420120239
vt -2.3622000217437744 0.98425197601318359
vt -11.023599624633789 0.78740197420120239
vn 0 1 0
vn 0 1 0
vn 0 1 0
vn 0 1 0
vn -1 0 0
vn -1 0 0
vn -1 0 0
vn -1 0 0
vn 0 -1 0
vn 0 -1 0
vn 0 -1 0
vn 0 -1 0
vn 0.44721359014511108 -0.89442718029022217 0
vn 0.44721359014511108 -0.89442718029022217 0
vn 0.44721359014511108 -0.89442718029022217 0
vn 0.44721359014511108 -0.89442718029022217 0
vn 1 0 0
vn 1 0 0
vn 1 0 0
vn 1 0 0
vn 0 -0.89442718029022217 0.44721359014511108
vn 0 -0.89442718029022217 0.44721359014511108
vn 0 -0.89442718029022217 0.44721359014511108
vn 0 0 1
vn 0 0 1
vn 0 0 1
vn 0 0.96104776859283447 0.27638235688209534
vn 0 0.96104776859283447 0.27638235688209534
vn 0 0.96104776859283447 0.27638235688209534
vn 0.89264935255050659 0.45075175166130066 0
vn 0.89264935255050659 0.45075175166130066 0
vn 0.89264935255050659 0.45075175166130066 0
vn 0.89264935255050659 0.45075175166130066 0
vn 0 0.44735556840896606 0.89435619115829468
vn 0 0.44735556840896606 0.89435619115829468
vn 0 0.44735556840896606 0.89435619115829468
vn 0 0.93160438537597656 0.36347386240959167
vn 0 0.93160438537597656 0.36347386240959167
vn 0 0.93160438537597656 0.36347386240959167
vn 0 0.96104776859283447 0.27638235688209534
vn 0.27673625946044922 0.96094590425491333 0
vn 0.27673625946044922 0.96094590425491333 0
vn 0.27673625946044922 0.96094590425491333 0
vn 0.27673625946044922 0.96094590425491333 0
vn 0.8510252833366394 0.52512472867965698 0
vn 0.8510252833366394 0.52512472867965698 0
vn 0.8510252833366394 0.52512472867965698 0
vn 0.8510252833366394 0.52512472867965698 0
vn 0 0.52752900123596191 0.84953701496124268
vn 0 0.52752900123596191 0.84953701496124268
vn 0 0.52752900123596191 0.84953701496124268
vn 0.79676884412765503 0.60428422689437866 0
vn 0.79676884412765503 0.60428422689437866 0
vn 0.79676884412765503 0.60428422689437866 0
vn 0.79676884412765503 0.60428422689437866 0
vn 0 0.60326480865478516 0.79754096269607544
vn 0 0.60326480865478516 0.79754096269607544
vn 0 0.60326480865478516 0.79754096269607544
vn 0.73705726861953735 0.67583030462265015 0
vn 0.73705726861953735 0.67583030462265015 0
vn 0.73705726861953735 0.67583030462265015 0
vn 0.73705726861953735 0.67583030462265015 0
vn 0 0.67389577627182007 0.73882639408111572
vn 0 0.67389577627182007 0.73882639408111572
vn 0 0.67389577627182007 0.73882639408111572
vn 0 0.73882973194122314 0.67389214038848877
vn 0 0.73882973194122314 0.67389214038848877
vn 0 0.73882973194122314 0.67389214038848877
vn 0 0.73882973194122314 0.67389214038848877
vn 0 0.79755067825317383 0.60325193405151367
vn 0 0.79755067825317383 0.60325193405151367
vn 0 0.79755067825317383 0.60325193405151367
vn 0 0.79755067825317383 0.60325193405151367
vn 0 0.84954196214675903 0.52752107381820679
vn 0 0.84954196214675903 0.52752107381820679
vn 0 0.84954196214675903 0.52752107381820679
vn 0 0.84954196214675903 0.52752107381820679
vn 0 0.89435619115829468 0.44735556840896606
vn 0 0.89435619115829468 0.44735556840896606
vn 0 0.89435619115829468 0.44735556840896606
vn 0 0.89435619115829468 0.44735556840896606
vn 0 0.93160438537597656 0.36347386240959167
vn 0.36215928196907043 0.93211621046066284 0
vn 0.36215928196907043 0.93211621046066284 0
vn 0.36215928196907043 0.93211621046066284 0
vn 0.36215928196907043 0.93211621046066284 0
vn 0.44702017307281494 0.89452385902404785 0
vn 0.44702017307281494 0.89452385902404785 0
vn 0.44702017307281494 0.89452385902404785 0
vn 0.44702017307281494 0.89452385902404785 0
vn 0.52874857187271118 0.84877848625183105 0
vn 0.52874857187271118 0.84877848625183105 0
vn 0.52874857187271118 0.84877848625183105 0
vn 0.52874857187271118 0.84877848625183105 0
vn 0.602833092212677 0.7978672981262207 0
vn 0.602833092212677 0.7978672981262207 0
vn 0.602833092212677 0.7978672981262207 0
vn 0.602833092212677 0.7978672981262207 0
vn 0.67635482549667358 0.73657596111297607 0
vn 0.67635482549667358 0.73657596111297607 0
vn 0.67635482549667358 0.73657596111297607 0
vn 0.67635482549667358 0.73657596111297607 0
vn 0 0.36340969800949097 0.93162941932678223
vn 0 0.36340972781181335 0.93162941932678223
vn 0 0.36340969800949097 0.93162941932678223
vn 0.93179863691329956 0.3629755973815918 0
vn 0.93179863691329956 0.3629755973815918 0
vn 0.93179863691329956 0.3629755973815918 0
vn 0.93179863691329956 0.3629755973815918 0
vn 0.96162134408950806 0.27437999844551086 0
vn 0.96162134408950806 0.27437999844551086 0
vn 0.96162134408950806 0.27437999844551086 0
vn 0.96162134408950806 0.27437999844551086 0
vn 0 1 0
vn 0 1 0
vn 0 1 0
vn 0 1 0
vn -1 0 0
vn -1 0 0
vn -1 0 0
vn -1 0 0
f 1/1/1 2/2/2 3/3/3
f 4/4/4 3/3/3 2/2/2
f 5/5/5 6/6/6 7/7/7
f 6/6/6 5/5/5 8/8/8
f 9/9/9 10/10/10 11/11/11
f 12/12/12 11/11/11 10/10/10
f 13/13/13 14/14/14 15/15/15
f 14/14/14 13/13/13 16/16/16
f 17/17/17 18/18/18 19/19/19
f 18/18/18 17/17/17 20/20/20
f 21/21/21 22/22/22 23/23/23
f 24/24/24 25/25/25 26/26/26
f 27/27/27 28/28/28 29/29/29
f 30/30/30 31/31/31 32/32/32
f 31/31/31 30/30/30 33/33/33
f 34/34/34 35/35/35 36/36/36
f 37/37/37 38/38/38 39/39/39
f 27/27/27 29/29/29 40/40/40
f 41/41/41 42/42/42 43/43/43
f 42/42/42 41/41/41 44/44/44
f 45/45/45 46/46/46 47/47/47
f 46/46/46 45/45/45 48/48/48
f 49/49/49 50/50/50 51/51/51
f 52/52/52 53/53/53 54/54/54
f 53/53/53 52/52/52 55/55/55
f 56/56/56 57/57/57 58/58/58
f 59/59/59 60/60/60 61/61/61
f 60/60/60 59/59/59 62/62/62
f 63/63/63 64/64/64 65/65/65
f 66/66/66 67/67/67 68/68/68
f 66/66/66 69/69/69 67/67/67
f 70/70/70 71/71/71 72/72/72
f 70/70/70 73/73/73 71/71/71
f 74/74/74 75/75/75 76/76/76
f 74/74/74 77/77/77 75/75/75
f 78/78/78 79/79/79 80/80/80
f 78/78/78 81/81/81 79/79/79
f 37/37/37 39/39/39 82/82/82
f 83/83/83 84/84/84 85/85/85
f 84/84/84 83/83/83 86/86/86
f 87/87/87 88/88/88 89/89/89
f 88/88/88 87/87/87 90/90/90
f 91/91/91 92/92/92 93/93/93
f 92/92/92 91/91/91 94/94/94
f 95/95/95 96/96/96 97/97/97
f 96/96/96 95/95/95 98/98/98
f 99/99/99 100/100/100 101/101/101
f 100/100/100 99/99/99 102/102/102
f 103/103/103 104/104/104 105/105/105
f 106/106/106 107/107/107 108/108/108
f 107/107/107 106/106/106 109/109/109
f 110/110/110 111/111/111 112/112/112
f 111/111/111 110/110/110 113/113/113
f 114/114/114 115/115/115 116/116/116
f 115/115/115 114/114/114 117/117/117
f 118/118/118 119/119/119 120/120/120
f 119/119/119 118/118/118 121/121/121
