# Rhino

mtllib Table_16_08.mtl
usemtl Default
v -436.34856036999963 386.52364154999992 139.07044522499928
v -440.85033849899992 386.52364154999992 -104.8756393650001
v -440.85033849899992 386.52364154999992 104.8756393650001
v -436.34856036999963 386.52364154999992 -139.06982328699996
v -423.15001585599975 386.52364154999992 170.93447401000049
v -423.15001585599975 386.52364154999992 -170.93422523400022
v -402.15411523400007 386.52364154999992 198.29691124799956
v -402.15411523400007 386.52364154999992 -198.2970356349997
v -374.79180238299978 386.52364154999992 219.29281187000015
v -374.79180238299978 386.52364154999992 -219.2924387059993
v -342.92764921199978 386.52364154999992 -232.49121955800001
v -342.92764921199978 386.52364154999992 232.49133150699981
v 342.92782335500033 386.52364154999992 -232.49121955800001
v 342.92782335500033 386.52364154999992 232.49133150699981
v 374.7909814249997 386.52364154999992 219.29281187000015
v 374.7909814249997 386.52364154999992 -219.2924387059993
v 402.15379182499964 386.52364154999992 -198.2970356349997
v 402.15379182499964 386.52364154999992 198.29691124799956
v 423.14919489700014 386.52364154999992 170.93447401000049
v 423.14919489700014 386.52364154999992 -170.93422523400022
v 436.34797574799995 386.52364154999992 139.07044522499928
v 436.34797574799995 386.52364154999992 -139.06982328699996
v 440.84956729499982 386.52364154999992 -104.8756393650001
v 440.84956729499982 386.52364154999992 104.8756393650001
vt 0.94631898403167725 7.7300500869750977
vt 0.58440399169921875 27.341800689697266
vt 0.58440399169921875 10.479100227355957
vt 0.94631898403167725 30.090799331665039
vt 2.0074000358581543 5.1683797836303711
vt 2.0074000358581543 32.652500152587891
vt 3.6953399181365967 2.9686100482940674
vt 3.6953399181365967 34.852298736572266
vt 5.8951001167297363 1.2806700468063354
vt 5.8951001167297363 36.540199279785156
vt 8.4567804336547852 37.601299285888672
vt 8.4567804336547852 0.21959100663661957
vt 63.595298767089844 37.601299285888672
vt 63.595298767089844 0.21959100663661957
vt 66.156898498535156 1.2806700468063354
vt 66.156898498535156 36.540199279785156
vt 68.356697082519531 34.852298736572266
vt 68.356697082519531 2.9686100482940674
vt 70.044601440429688 5.1683797836303711
vt 70.044601440429688 32.652500152587891
vt 71.105697631835938 7.7300500869750977
vt 71.105697631835938 30.090799331665039
vt 71.467597961425781 27.341800689697266
vt 71.467597961425781 10.479100227355957
vn 0 1 0
vn 0 1 0
vn 0 1 0
vn 0 1 0
vn 0 1 0
vn 0 1 0
vn 0 1 0
vn 0 1 0
vn 0 1 0
vn 0 1 0
vn 0 1 0
vn 0 1 0
vn 0 1 0
vn 0 1 0
vn 0 1 0
vn 0 1 0
vn 0 1 0
vn 0 1 0
vn 0 1 0
vn 0 1 0
vn 0 1 0
vn 0 1 0
vn 0 1 0
vn 0 1 0
f 1/1/1 2/2/2 3/3/3
f 2/2/2 1/1/1 4/4/4
f 4/4/4 1/1/1 5/5/5
f 4/4/4 5/5/5 6/6/6
f 6/6/6 5/5/5 7/7/7
f 6/6/6 7/7/7 8/8/8
f 8/8/8 7/7/7 9/9/9
f 8/8/8 9/9/9 10/10/10
f 10/10/10 9/9/9 11/11/11
f 11/11/11 9/9/9 12/12/12
f 11/11/11 12/12/12 13/13/13
f 13/13/13 12/12/12 14/14/14
f 13/13/13 14/14/14 15/15/15
f 13/13/13 15/15/15 16/16/16
f 16/16/16 15/15/15 17/17/17
f 17/17/17 15/15/15 18/18/18
f 17/17/17 18/18/18 19/19/19
f 17/17/17 19/19/19 20/20/20
f 20/20/20 19/19/19 21/21/21
f 20/20/20 21/21/21 22/22/22
f 22/22/22 21/21/21 23/23/23
f 23/23/23 21/21/21 24/24/24
