# Rhino

mtllib Table_04_13.mtl
usemtl Default
v 393.78548363599998 328.37704736999996 260.29887901299935
v -393.78548363599998 328.37704736999996 -260.29887901299935
v -393.78548363599998 328.37704736999996 260.29887901299935
v 393.78548363599998 328.37704736999996 -260.29887901299935
v 393.78548363599998 328.37704736999996 -260.29887901299935
v 393.78548363599998 329.71191341599996 260.29887901299935
v 393.78548363599998 328.37704736999996 260.29887901299935
v 393.78548363599998 329.71191341599996 -260.29887901299935
v 393.78548363599998 328.37704736999996 -260.29887901299935
v -393.78548363599998 329.71191341599996 -260.29887901299935
v 393.78548363599998 329.71191341599996 -260.29887901299935
v -393.78548363599998 328.37704736999996 -260.29887901299935
v -393.78548363599998 328.37704736999996 260.29887901299935
v -393.78548363599998 329.71191341599996 -260.29887901299935
v -393.78548363599998 328.37704736999996 -260.29887901299935
v -393.78548363599998 329.71191341599996 260.29887901299935
v 393.78548363599998 329.71191341599996 260.29887901299935
v 393.78548363599998 328.37704736999996 260.29887901299935
v 393.78548363599998 329.71191341599996 260.29887901299935
v -393.78548363599998 329.71191341599996 -260.29887901299935
v -393.78548363599998 329.71191341599996 260.29887901299935
v 393.78548363599998 329.71191341599996 -260.29887901299935
vt 46.456699371337891 0
vt 0 30.708700180053711
vt 0 0
vt 46.456699371337891 30.708700180053711
vt 30.708700180053711 19.370100021362305
vt 0 19.448799133300781
vt 0 19.370100021362305
vt 30.708700180053711 19.448799133300781
vt -46.456699371337891 19.370100021362305
vt 0 19.448799133300781
vt -46.456699371337891 19.448799133300781
vt 0 19.370100021362305
vt 0 19.370100021362305
vt -30.708700180053711 19.448799133300781
vt -30.708700180053711 19.370100021362305
vt 0 19.448799133300781
vt 46.456699371337891 19.448799133300781
vt 46.456699371337891 19.370100021362305
vt 46.456699371337891 0
vt 0 30.708700180053711
vt 0 0
vt 46.456699371337891 30.708700180053711
vn 0 1 0
vn 0 1 0
vn 0 1 0
vn 0 1 0
vn 1 0 0
vn 1 0 0
vn 1 0 0
vn 1 0 0
vn 0 0 -1
vn 0 0 -1
vn 0 0 -1
vn 0 0 -1
vn -0.70710676908493042 0 0.70710676908493042
vn -1 0 0
vn -1 0 0
vn -0.70710676908493042 0 0.70710676908493042
vn 0 0 1
vn 0 0 1
vn 0 1 0
vn 0 1 0
vn 0 1 0
vn 0 1 0
f 1/1/1 2/2/2 3/3/3
f 2/2/2 1/1/1 4/4/4
f 5/5/5 6/6/6 7/7/7
f 6/6/6 5/5/5 8/8/8
f 9/9/9 10/10/10 11/11/11
f 10/10/10 9/9/9 12/12/12
f 13/13/13 14/14/14 15/15/15
f 14/14/14 13/13/13 16/16/16
f 13/13/13 17/17/17 16/16/16
f 17/17/17 13/13/13 18/18/18
f 19/19/19 20/20/20 21/21/21
f 20/20/20 19/19/19 22/22/22
