# Rhino

mtllib Table_07_07.mtl
usemtl Default
v -11.784777855299581 0 -280.25958276199981
v 2.3561174146907433 0 -235.47509204700054
v -11.784777855299581 0 -235.47509204700054
v 16.500006100200153 0 -235.47509204700054
v 16.500006100200153 0 -260.22465218599973
v 16.500006100200153 0 -280.25958276199981
v 2.3561174146907433 0 -280.25958276199981
v -11.784777855299581 675.28761745400004 -306.18555522799943
v 2.3561174146907433 0 -280.25958276199981
v -11.784777855299581 0 -280.25958276199981
v 16.500006100200153 675.28761745400004 -306.18555522799943
v 16.500006100200153 0 -280.25958276199981
v 16.500006100200153 675.28761745400004 -306.18555522799943
v 16.500006100200153 0 -260.22465218599973
v 16.500006100200153 0 -280.25958276199981
v 16.500006100200153 618.71804954300001 -235.47509204700054
v 16.500006100200153 675.28761745400004 -235.47509204700054
v 9.1870918020795216 675.28761745400004 -281.37313336300031
v 16.500006100200153 675.28761745400004 -235.47509204700054
v 16.500006100200153 675.28761745400004 -306.18555522799943
v 8.4806457217300704 675.28761745400004 -279.66987988999972
v -11.784777855299581 675.28761745400004 -235.47509204700054
v 7.3581148736693649 675.28761745400004 -278.20609966399934
v -2.6428866286805714 675.28761745400004 -278.20609966399934
v 7.3581148736693649 675.28761745400004 -278.20609966399934
v 8.4806457217300704 675.28761745400004 -279.66987988999972
v -1.1791064028002438 675.28761745400004 -277.08057540000027
v 5.8943346477808518 675.28761745400004 -277.08057540000027
v 0.52714048624875431 675.28761745400004 -276.37412932000007
v 4.1880877587300347 675.28761745400004 -276.37412932000007
v 2.3561174146907433 675.28761745400004 -276.13465607200033
v 0.52714048624875431 675.28761745400004 -276.37412932000007
v 2.3561174146907433 675.28761745400004 -276.13465607200033
v -1.1791064028002438 675.28761745400004 -277.08057540000027
v -2.6428866286805714 675.28761745400004 -278.20609966399934
v -3.7654174767394579 675.28761745400004 -279.66987988999972
v -4.471863557119832 675.28761745400004 -281.37313336300031
v -11.784777855299581 675.28761745400004 -306.18555522799943
v -4.7143302202994164 675.28761745400004 -283.20510370700049
v -4.471863557119832 675.28761745400004 -281.37313336300031
v 9.4295584652800244 675.28761745400004 -283.20510370700049
v -4.7143302202994164 675.28761745400004 -283.20510370700049
v 9.1870918020795216 675.28761745400004 -281.37313336300031
v -3.7654174767394579 675.28761745400004 -279.66987988999972
v 9.4295584652800244 675.28761745400004 -283.20510370700049
v 9.1870918020795216 675.28761745400004 -285.03408063500046
v 8.4806457217300704 675.28761745400004 -286.74032752399944
v 7.3581148736693649 675.28761745400004 -288.20410774999982
v 5.8943346477808518 675.28761745400004 -289.3296320139998
v 4.1880877587300347 675.28761745400004 -290.036078094
v 2.3561174146907433 675.28761745400004 -290.27555134200065
v 0.52714048624875431 675.28761745400004 -290.036078094
v -1.1791064028002438 675.28761745400004 -289.3296320139998
v -2.6428866286805714 675.28761745400004 -288.20410774999982
v -3.7654174767394579 675.28761745400004 -286.74032752399944
v -4.471863557119832 675.28761745400004 -285.03408063500046
v 9.1870918020795216 675.28761745400004 -285.03408063500046
v -4.471863557119832 675.28761745400004 -285.03408063500046
v 8.4806457217300704 675.28761745400004 -286.74032752399944
v -3.7654174767394579 675.28761745400004 -286.74032752399944
v 7.3581148736693649 675.28761745400004 -288.20410774999982
v -2.6428866286805714 675.28761745400004 -288.20410774999982
v 5.8943346477808518 675.28761745400004 -289.3296320139998
v -1.1791064028002438 675.28761745400004 -289.3296320139998
v 4.1880877587300347 675.28761745400004 -290.036078094
v 0.52714048624875431 675.28761745400004 -290.036078094
v 2.3561174146907433 675.28761745400004 -290.27555134200065
v -11.784777855299581 675.28761745400004 -306.18555522799943
v -11.784777855299581 618.71804954300001 -235.47509204700054
v -11.784777855299581 675.28761745400004 -235.47509204700054
v -11.784777855299581 0 -235.47509204700054
v -11.784777855299581 0 -280.25958276199981
v -11.784777855299581 0 -235.47509204700054
v 2.3561174146907433 0 -235.47509204700054
v -11.784777855299581 618.71804954300001 -235.47509204700054
v -11.784777855299581 675.28761745400004 -235.47509204700054
v 16.500006100200153 0 -235.47509204700054
v 16.500006100200153 618.71804954300001 -235.47509204700054
v 16.500006100200153 675.28761745400004 -235.47509204700054
v 16.500006100200153 0 -235.47509204700054
v 4.1880877587300347 675.28761745400004 -276.37412932000007
v 5.8943346477808518 675.28761745400004 -277.08057540000027
vt -0.18999999761581421 0.085279196500778198
vt 0 0.042639598250389099
vt 0 0.085279196500778198
vt 0 0
vt -0.10499999672174454 0
vt -0.18999999761581421 0
vt -0.18999999761581421 0.042639598250389099
vt 0.11999999731779099 2.0427200794219971
vt 0.059999998658895493 0.0051803998649120331
vt 0.11999999731779099 0.0051803998649120331
vt 0 2.0427200794219971
vt 0 0.0051803998649120331
vt 0.30000001192092896 2.0360400676727295
vt 0.10499999672174454 0
vt 0.18999999761581421 0
vt 0 1.8654799461364746
vt 0 2.0360400676727295
vt 0.19473500549793243 0.022046299651265144
vt 0 0
vt 0.30000001192092896 0
vt 0.1875 0.024176100268959999
vt 0 0.085279196500778198
vt 0.1812870055437088 0.027564199641346931
vt 0.1812870055437088 0.057714998722076416
vt 0.1812870055437088 0.027564199641346931
vt 0.1875 0.024176100268959999
vt 0.1765190064907074 0.053299501538276672
vt 0.1765190064907074 0.031979698687791824
vt 0.17352199554443359 0.048157598823308945
vt 0.17352199554443359 0.037121601402759552
vt 0.17249999940395355 0.042639598250389099
vt 0.17352199554443359 0.048157598823308945
vt 0.17249999940395355 0.042639598250389099
vt 0.1765190064907074 0.053299501538276672
vt 0.1812870055437088 0.057714998722076416
vt 0.1875 0.061103101819753647
vt 0.19473500549793243 0.063232898712158203
vt 0.30000001192092896 0.085279196500778198
vt 0.20250000059604645 0.063959397375583649
vt 0.19473500549793243 0.063232898712158203
vt 0.20250000059604645 0.02131979912519455
vt 0.20250000059604645 0.063959397375583649
vt 0.19473500549793243 0.022046299651265144
vt 0.1875 0.061103101819753647
vt 0.20250000059604645 0.02131979912519455
vt 0.21026499569416046 0.022046299651265144
vt 0.2175000011920929 0.024176100268959999
vt 0.22371299564838409 0.027564199641346931
vt 0.2284809947013855 0.031979698687791824
vt 0.2314780056476593 0.037121601402759552
vt 0.23250000178813934 0.042639598250389099
vt 0.2314780056476593 0.048157598823308945
vt 0.2284809947013855 0.053299501538276672
vt 0.22371299564838409 0.057714998722076416
vt 0.2175000011920929 0.061103101819753647
vt 0.21026499569416046 0.063232898712158203
vt 0.21026499569416046 0.022046299651265144
vt 0.21026499569416046 0.063232898712158203
vt 0.2175000011920929 0.024176100268959999
vt 0.2175000011920929 0.061103101819753647
vt 0.22371299564838409 0.027564199641346931
vt 0.22371299564838409 0.057714998722076416
vt 0.2284809947013855 0.031979698687791824
vt 0.2284809947013855 0.053299501538276672
vt 0.2314780056476593 0.037121601402759552
vt 0.2314780056476593 0.048157598823308945
vt 0.23250000178813934 0.042639598250389099
vt -0.30000001192092896 2.0360400676727295
vt 0 1.8654799461364746
vt 0 2.0360400676727295
vt 0 0
vt -0.18999999761581421 0
vt -0.11999999731779099 0
vt -0.059999998658895493 0
vt -0.11999999731779099 1.8654799461364746
vt -0.11999999731779099 2.0360400676727295
vt 0 0
vt 0 1.8654799461364746
vt 0 2.0360400676727295
vt 0 0
vt 0.17352199554443359 0.037121601402759552
vt 0.1765190064907074 0.031979698687791824
vn 0 -1 0
vn 0 -1 0
vn 0 -1 0
vn 0 -1 0
vn 0 -1 0
vn 0 -1 0
vn 0 0 1
vn 0 -0.038364224135875702 -0.99926382303237915
vn 0 -0.038364224135875702 -0.99926382303237915
vn 0 -0.038364224135875702 -0.99926382303237915
vn 0 -0.038364224135875702 -0.99926382303237915
vn 0 -0.038364224135875702 -0.99926382303237915
vn 1 0 0
vn 1 0 0
vn 1 0 0
vn 1 0 0
vn 1 0 0
vn 0 1 0
vn 0 1 0
vn 0 1 0
vn 0 1 0
vn 0 1 0
vn 0 1 0
vn 0 1 0
vn 0 1 0
vn 0 1 0
vn 0 1 0
vn 0 1 0
vn 0 1 0
vn 0 1 0
vn 0 1 0
vn 0 1 0
vn 0 1 0
vn 0 1 0
vn 0 1 0
vn 0 1 0
vn 0 1 0
vn 0 1 0
vn 0 1 0
vn 0 1 0
vn 0 1 0
vn 0 1 0
vn 0 1 0
vn 0 1 0
vn 0 1 0
vn 0 1 0
vn 0 1 0
vn 0 1 0
vn 0 1 0
vn 0 1 0
vn 0 1 0
vn 0 1 0
vn 0 1 0
vn 0 1 0
vn 0 1 0
vn 0 1 0
vn 0 1 0
vn 0 1 0
vn 0 1 0
vn 0 1 0
vn 0 1 0
vn 0 1 0
vn 0 1 0
vn 0 1 0
vn 0 1 0
vn 0 1 0
vn 0 1 0
vn -1 0 0
vn -1 0 0
vn -1 0 0
vn -1 0 0
vn -1 0 0
vn 0 0 1
vn 0 0 1
vn 0 0 1
vn 0 0 1
vn 0 0 1
vn 0 0 1
vn 0 0 1
vn 1 0 0
vn 0 1 0
vn 0 1 0
f 1/1/1 2/2/2 3/3/3
f 2/2/2 1/1/1 4/4/4
f 4/4/4 1/1/1 5/5/5
f 5/5/5 1/1/1 6/6/6
f 6/6/6 1/1/1 7/7/7
f 8/8/8 9/9/9 10/10/10
f 11/11/11 9/9/9 8/8/8
f 9/9/9 11/11/11 12/12/12
f 13/13/13 14/14/14 15/15/15
f 14/14/14 13/13/13 16/16/16
f 16/16/16 13/13/13 17/17/17
f 18/18/18 19/19/19 20/20/20
f 21/21/21 19/19/19 18/18/18
f 19/19/19 21/21/21 22/22/22
f 22/22/22 21/21/21 23/23/23
f 24/24/24 25/25/25 26/26/26
f 27/27/27 25/25/25 24/24/24
f 27/27/27 28/28/28 25/25/25
f 29/29/29 28/28/28 27/27/27
f 29/29/29 30/30/30 28/28/28
f 30/30/30 29/29/29 31/31/31
f 32/32/32 22/22/22 33/33/33
f 34/34/34 22/22/22 32/32/32
f 35/35/35 22/22/22 34/34/34
f 36/36/36 22/22/22 35/35/35
f 37/37/37 22/22/22 36/36/36
f 22/22/22 37/37/37 38/38/38
f 38/38/38 37/37/37 39/39/39
f 40/40/40 41/41/41 42/42/42
f 40/40/40 43/43/43 41/41/41
f 44/44/44 43/43/43 40/40/40
f 44/44/44 26/26/26 43/43/43
f 24/24/24 26/26/26 44/44/44
f 18/18/18 20/20/20 45/45/45
f 45/45/45 20/20/20 46/46/46
f 46/46/46 20/20/20 47/47/47
f 47/47/47 20/20/20 48/48/48
f 48/48/48 20/20/20 49/49/49
f 49/49/49 20/20/20 50/50/50
f 50/50/50 20/20/20 51/51/51
f 38/38/38 51/51/51 20/20/20
f 38/38/38 52/52/52 51/51/51
f 38/38/38 53/53/53 52/52/52
f 38/38/38 54/54/54 53/53/53
f 38/38/38 55/55/55 54/54/54
f 38/38/38 56/56/56 55/55/55
f 38/38/38 39/39/39 56/56/56
f 42/42/42 57/57/57 58/58/58
f 42/42/42 41/41/41 57/57/57
f 58/58/58 57/57/57 59/59/59
f 58/58/58 59/59/59 60/60/60
f 60/60/60 59/59/59 61/61/61
f 60/60/60 61/61/61 62/62/62
f 62/62/62 61/61/61 63/63/63
f 62/62/62 63/63/63 64/64/64
f 64/64/64 63/63/63 65/65/65
f 64/64/64 65/65/65 66/66/66
f 66/66/66 65/65/65 67/67/67
f 68/68/68 69/69/69 70/70/70
f 68/68/68 71/71/71 69/69/69
f 71/71/71 68/68/68 72/72/72
f 73/73/73 74/74/74 75/75/75
f 74/74/74 76/76/76 75/75/75
f 77/77/77 76/76/76 74/74/74
f 78/78/78 76/76/76 77/77/77
f 76/76/76 78/78/78 79/79/79
f 16/16/16 80/80/80 14/14/14
f 22/22/22 81/81/81 33/33/33
f 22/22/22 82/82/82 81/81/81
f 22/22/22 23/23/23 82/82/82
