# Rhino

mtllib Table_09_09.mtl
usemtl Default
v -345.76816372999929 208.69838429800001 345.7681637300002
v 345.76816372999929 208.69838429800001 -345.7681637300002
v -345.76816372999929 208.69838429800001 -345.7681637300002
v 345.76816372999929 208.69838429800001 345.7681637300002
v -345.76816372999929 208.69838429800001 345.7681637300002
v -345.76816372999929 205.05871941600003 -345.7681637300002
v -345.76816372999929 205.05871941600003 345.7681637300002
v -345.76816372999929 208.69838429800001 -345.7681637300002
v -345.76816372999929 208.69838429800001 345.7681637300002
v 345.76816372999929 205.05871941600003 345.7681637300002
v 345.76816372999929 208.69838429800001 345.7681637300002
v -345.76816372999929 205.05871941600003 345.7681637300002
v -345.76816372999929 205.05871941600003 -345.7681637300002
v -345.76816372999929 205.05871941600003 345.7681637300002
v 345.76816372999929 205.05871941600003 -345.7681637300002
v -345.76816372999929 205.05871941600003 -345.7681637300002
v 345.76816372999929 208.69838429800001 -345.7681637300002
v 345.76816372999929 205.05871941600003 -345.7681637300002
v -345.76816372999929 208.69838429800001 -345.7681637300002
v 345.76816372999929 208.69838429800001 -345.7681637300002
v 345.76816372999929 205.05871941600003 -345.7681637300002
vt 0 37.401599884033203
vt 37.401599884033203 0
vt 37.401599884033203 37.401599884033203
vt 0 0
vt 0 0.1968500018119812
vt -37.401599884033203 0
vt 0 0
vt -37.401599884033203 0.1968500018119812
vt -37.401599884033203 0.1968500018119812
vt 0 0
vt 0 0.1968500018119812
vt -37.401599884033203 0
vt -37.401599884033203 37.401599884033203
vt 0 37.401599884033203
vt -37.401599884033203 0
vt 37.401599884033203 0
vt 0 0.1968500018119812
vt 0 0
vt 37.401599884033203 0.1968500018119812
vt 37.401599884033203 0.1968500018119812
vt 37.401599884033203 0
vn 0 1 0
vn 0 1 0
vn 0 1 0
vn 0 1 0
vn -1 0 0
vn -1 0 0
vn -1 0 0
vn -1 0 0
vn 0 0 1
vn 0.57735025882720947 -0.57735025882720947 0.57735025882720947
vn 0.70710676908493042 0 0.70710676908493042
vn 0 0 1
vn 0 -1 0
vn 0 -1 0
vn 0 -1 0
vn 0 0 -1
vn 0 0 -1
vn 0 0 -1
vn 0 0 -1
vn 1 0 0
vn 1 0 0
f 1/1/1 2/2/2 3/3/3
f 2/2/2 1/1/1 4/4/4
f 5/5/5 6/6/6 7/7/7
f 6/6/6 5/5/5 8/8/8
f 9/9/9 10/10/10 11/11/11
f 10/10/10 9/9/9 12/12/12
f 13/13/13 10/10/10 14/14/14
f 10/10/10 13/13/13 15/15/15
f 16/16/16 17/17/17 18/18/18
f 17/17/17 16/16/16 19/19/19
f 20/20/20 10/10/10 21/21/21
f 10/10/10 20/20/20 11/11/11
