# Rhino

mtllib Table_02_04.mtl
usemtl Default
v 204.81382217700047 573.42769186200007 354.74758748100066
v 106.01936318200023 565.69886838299999 395.67016203399908
v 204.81382217700047 565.69886838299999 354.74758748100066
v 106.01936318200023 573.42769186200007 395.67016203399908
v 106.01936318200023 573.42769186200007 -395.67016203399908
v 106.01936318200023 573.42769186200007 395.67016203399908
v 204.81382217700047 573.42769186200007 354.74758748100066
v 0 573.42769186200007 -409.62764435399913
v 0 573.42769186200007 409.62764435399913
v -106.01936318200023 573.42769186200007 -395.67016203399908
v -106.01936318200023 573.42769186200007 395.67016203399908
v -204.81382217700047 573.42769186200007 -354.74758748100066
v -204.81382217700047 573.42769186200007 354.74758748100066
v -289.65079885199884 573.42769186200007 -289.65079885199884
v -289.65079885199884 573.42769186200007 289.65079885199884
v -354.74758748100066 573.42769186200007 -204.81382217700047
v -354.74758748100066 573.42769186200007 204.81382217700047
v -395.67016203399908 573.42769186200007 -106.01936318200023
v -395.67016203399908 573.42769186200007 106.01936318200023
v -409.62764435399913 573.42769186200007 0
v -395.67016203399908 573.42769186200007 -106.01936318200023
v -409.62764435399913 565.69886838299999 0
v -409.62764435399913 573.42769186200007 0
v -395.67016203399908 565.69886838299999 -106.01936318200023
v -354.74758748100066 573.42769186200007 -204.81382217700047
v -395.67016203399908 565.69886838299999 -106.01936318200023
v -395.67016203399908 573.42769186200007 -106.01936318200023
v -354.74758748100066 565.69886838299999 -204.81382217700047
v -289.65079885199884 573.42769186200007 -289.65079885199884
v -354.74758748100066 565.69886838299999 -204.81382217700047
v -354.74758748100066 573.42769186200007 -204.81382217700047
v -289.65079885199884 565.69886838299999 -289.65079885199884
v -289.65079885199884 573.42769186200007 -289.65079885199884
v -204.81382217700047 565.69886838299999 -354.74758748100066
v -289.65079885199884 565.69886838299999 -289.65079885199884
v -204.81382217700047 573.42769186200007 -354.74758748100066
v -204.81382217700047 573.42769186200007 -354.74758748100066
v -106.01936318200023 565.69886838299999 -395.67016203399908
v -204.81382217700047 565.69886838299999 -354.74758748100066
v -106.01936318200023 573.42769186200007 -395.67016203399908
v -106.01936318200023 573.42769186200007 -395.67016203399908
v 0 565.69886838299999 -409.62764435399913
v -106.01936318200023 565.69886838299999 -395.67016203399908
v 0 573.42769186200007 -409.62764435399913
v 0 573.42769186200007 -409.62764435399913
v 106.01936318200023 565.69886838299999 -395.67016203399908
v 0 565.69886838299999 -409.62764435399913
v 106.01936318200023 573.42769186200007 -395.67016203399908
v 106.01936318200023 573.42769186200007 -395.67016203399908
v 204.81382217700047 565.69886838299999 -354.74758748100066
v 106.01936318200023 565.69886838299999 -395.67016203399908
v 204.81382217700047 573.42769186200007 -354.74758748100066
v 204.81382217700047 573.42769186200007 -354.74758748100066
v 289.65079885199884 573.42769186200007 289.65079885199884
v 204.81382217700047 565.69886838299999 354.74758748100066
v 289.65079885199884 573.42769186200007 289.65079885199884
v 204.81382217700047 573.42769186200007 354.74758748100066
v 289.65079885199884 565.69886838299999 289.65079885199884
v 204.81382217700047 565.69886838299999 354.74758748100066
v 204.81382217700047 565.69886838299999 -354.74758748100066
v 289.65079885199884 565.69886838299999 289.65079885199884
v 106.01936318200023 565.69886838299999 -395.67016203399908
v 106.01936318200023 565.69886838299999 395.67016203399908
v 0 565.69886838299999 -409.62764435399913
v 0 565.69886838299999 409.62764435399913
v -106.01936318200023 565.69886838299999 -395.67016203399908
v -106.01936318200023 565.69886838299999 395.67016203399908
v -204.81382217700047 565.69886838299999 -354.74758748100066
v -204.81382217700047 565.69886838299999 354.74758748100066
v -289.65079885199884 565.69886838299999 -289.65079885199884
v -289.65079885199884 565.69886838299999 289.65079885199884
v -354.74758748100066 565.69886838299999 -204.81382217700047
v -354.74758748100066 565.69886838299999 204.81382217700047
v -395.67016203399908 565.69886838299999 -106.01936318200023
v -395.67016203399908 565.69886838299999 106.01936318200023
v -409.62764435399913 565.69886838299999 0
v -395.67016203399908 565.69886838299999 106.01936318200023
v -395.67016203399908 573.42769186200007 106.01936318200023
v -354.74758748100066 565.69886838299999 204.81382217700047
v -395.67016203399908 573.42769186200007 106.01936318200023
v -395.67016203399908 565.69886838299999 106.01936318200023
v -354.74758748100066 573.42769186200007 204.81382217700047
v -289.65079885199884 565.69886838299999 289.65079885199884
v -354.74758748100066 573.42769186200007 204.81382217700047
v -354.74758748100066 565.69886838299999 204.81382217700047
v -289.65079885199884 573.42769186200007 289.65079885199884
v -289.65079885199884 565.69886838299999 289.65079885199884
v -204.81382217700047 573.42769186200007 354.74758748100066
v -289.65079885199884 573.42769186200007 289.65079885199884
v -204.81382217700047 565.69886838299999 354.74758748100066
v -204.81382217700047 565.69886838299999 354.74758748100066
v -106.01936318200023 573.42769186200007 395.67016203399908
v -204.81382217700047 573.42769186200007 354.74758748100066
v -106.01936318200023 565.69886838299999 395.67016203399908
v -106.01936318200023 565.69886838299999 395.67016203399908
v 0 573.42769186200007 409.62764435399913
v -106.01936318200023 573.42769186200007 395.67016203399908
v 0 565.69886838299999 409.62764435399913
v 106.01936318200023 573.42769186200007 395.67016203399908
v 106.01936318200023 565.69886838299999 395.67016203399908
v 289.65079885199884 565.69886838299999 -289.65079885199884
v 204.81382217700047 573.42769186200007 -354.74758748100066
v 289.65079885199884 565.69886838299999 -289.65079885199884
v 204.81382217700047 565.69886838299999 -354.74758748100066
v 289.65079885199884 573.42769186200007 -289.65079885199884
v 289.65079885199884 573.42769186200007 -289.65079885199884
v 354.74758748100066 573.42769186200007 204.81382217700047
v 289.65079885199884 573.42769186200007 289.65079885199884
v 354.74758748100066 565.69886838299999 204.81382217700047
v 354.74758748100066 573.42769186200007 204.81382217700047
v 289.65079885199884 565.69886838299999 289.65079885199884
v 354.74758748100066 565.69886838299999 -204.81382217700047
v 354.74758748100066 565.69886838299999 204.81382217700047
v 289.65079885199884 565.69886838299999 -289.65079885199884
v 354.74758748100066 573.42769186200007 -204.81382217700047
v 354.74758748100066 565.69886838299999 -204.81382217700047
v 289.65079885199884 573.42769186200007 -289.65079885199884
v 354.74758748100066 573.42769186200007 -204.81382217700047
v 395.67016203399908 573.42769186200007 106.01936318200023
v 354.74758748100066 573.42769186200007 204.81382217700047
v 395.67016203399908 565.69886838299999 106.01936318200023
v 395.67016203399908 573.42769186200007 106.01936318200023
v 354.74758748100066 565.69886838299999 204.81382217700047
v 395.67016203399908 565.69886838299999 106.01936318200023
v 395.67016203399908 565.69886838299999 -106.01936318200023
v 354.74758748100066 565.69886838299999 -204.81382217700047
v 395.67016203399908 573.42769186200007 -106.01936318200023
v 395.67016203399908 565.69886838299999 -106.01936318200023
v 354.74758748100066 573.42769186200007 -204.81382217700047
v 395.67016203399908 573.42769186200007 -106.01936318200023
v 409.62764435399913 573.42769186200007 0
v 395.67016203399908 573.42769186200007 106.01936318200023
v 409.62764435399913 565.69886838299999 0
v 409.62764435399913 573.42769186200007 0
v 395.67016203399908 565.69886838299999 106.01936318200023
v 409.62764435399913 565.69886838299999 0
v 395.67016203399908 565.69886838299999 -106.01936318200023
v 409.62764435399913 573.42769186200007 0
v 409.62764435399913 565.69886838299999 0
v 395.67016203399908 573.42769186200007 -106.01936318200023
vt 29.986499786376953 0.3937009871006012
vt 24.539300918579102 0
vt 29.986499786376953 0
vt 24.539300918579102 0.3937009871006012
vt 26.266700744628906 41.02130126953125
vt 26.266700744628906 0.71099698543548584
vt 31.299200057983398 2.7955300807952881
vt 20.866100311279297 41.7322998046875
vt 20.866100311279297 0
vt 15.46560001373291 41.02130126953125
vt 15.46560001373291 0.71099698543548584
vt 10.433099746704102 38.936798095703125
vt 10.433099746704102 2.7955300807952881
vt 6.1115498542785645 35.620700836181641
vt 6.1115498542785645 6.1115498542785645
vt 2.7955300807952881 31.299200057983398
vt 2.7955300807952881 10.433099746704102
vt 0.71099698543548584 26.266700744628906
vt 0.71099698543548584 15.46560001373291
vt 0 20.866100311279297
vt -26.134799957275391 0.3937009871006012
vt -20.687599182128906 0
vt -20.687599182128906 0.3937009871006012
vt -26.134799957275391 0
vt -29.986499786376953 0.3937009871006012
vt -24.539300918579102 0
vt -24.539300918579102 0.3937009871006012
vt -29.986499786376953 0
vt -31.980300903320312 0.3937009871006012
vt -26.533100128173828 0
vt -26.533100128173828 0.3937009871006012
vt -31.980300903320312 0
vt -26.533100128173828 0.3937009871006012
vt -31.980300903320312 0
vt -26.533100128173828 0
vt -31.980300903320312 0.3937009871006012
vt -24.539300918579102 0.3937009871006012
vt -29.986499786376953 0
vt -24.539300918579102 0
vt -29.986499786376953 0.3937009871006012
vt -20.687599182128906 0.3937009871006012
vt -26.134799957275391 0
vt -20.687599182128906 0
vt -26.134799957275391 0.3937009871006012
vt -15.240500450134277 0.3937009871006012
vt -20.687599182128906 0
vt -15.240500450134277 0
vt -20.687599182128906 0.3937009871006012
vt -8.5691003799438477 0.3937009871006012
vt -14.016300201416016 0
vt -8.5691003799438477 0
vt -14.016300201416016 0.3937009871006012
vt 31.299200057983398 38.936798095703125
vt 35.620700836181641 6.1115498542785645
vt 26.533100128173828 0
vt 31.980300903320312 0.3937009871006012
vt 26.533100128173828 0.3937009871006012
vt 31.980300903320312 0
vt -31.299200057983398 2.7955300807952881
vt -31.299200057983398 38.936798095703125
vt -35.620700836181641 6.1115498542785645
vt -26.266700744628906 41.02130126953125
vt -26.266700744628906 0.71099698543548584
vt -20.866100311279297 41.7322998046875
vt -20.866100311279297 0
vt -15.46560001373291 41.02130126953125
vt -15.46560001373291 0.71099698543548584
vt -10.433099746704102 38.936798095703125
vt -10.433099746704102 2.7955300807952881
vt -6.1115498542785645 35.620700836181641
vt -6.1115498542785645 6.1115498542785645
vt -2.7955300807952881 31.299200057983398
vt -2.7955300807952881 10.433099746704102
vt -0.71099698543548584 26.266700744628906
vt -0.71099698543548584 15.46560001373291
vt 0 20.866100311279297
vt -15.240500450134277 0
vt -15.240500450134277 0.3937009871006012
vt -8.5691003799438477 0
vt -14.016300201416016 0.3937009871006012
vt -14.016300201416016 0
vt -8.5691003799438477 0.3937009871006012
vt -1.1281399726867676 0
vt -6.5753002166748047 0.3937009871006012
vt -6.5753002166748047 0
vt -1.1281399726867676 0.3937009871006012
vt 1.1281399726867676 0
vt 6.5753002166748047 0.3937009871006012
vt 1.1281399726867676 0.3937009871006012
vt 6.5753002166748047 0
vt 8.5691003799438477 0
vt 14.016300201416016 0.3937009871006012
vt 8.5691003799438477 0.3937009871006012
vt 14.016300201416016 0
vt 15.240500450134277 0
vt 20.687599182128906 0.3937009871006012
vt 15.240500450134277 0.3937009871006012
vt 20.687599182128906 0
vt 26.134799957275391 0.3937009871006012
vt 26.134799957275391 0
vt -35.620700836181641 35.620700836181641
vt -1.1281399726867676 0.3937009871006012
vt -6.5753002166748047 0
vt -1.1281399726867676 0
vt -6.5753002166748047 0.3937009871006012
vt 35.620700836181641 35.620700836181641
vt 38.936798095703125 10.433099746704102
vt 26.533100128173828 0.3937009871006012
vt 31.980300903320312 0
vt 31.980300903320312 0.3937009871006012
vt 26.533100128173828 0
vt -38.936798095703125 31.299200057983398
vt -38.936798095703125 10.433099746704102
vt 6.5753002166748047 0
vt 1.1281399726867676 0.3937009871006012
vt 1.1281399726867676 0
vt 6.5753002166748047 0.3937009871006012
vt 38.936798095703125 31.299200057983398
vt 41.02130126953125 15.46560001373291
vt 24.539300918579102 0.3937009871006012
vt 29.986499786376953 0
vt 29.986499786376953 0.3937009871006012
vt 24.539300918579102 0
vt -41.02130126953125 15.46560001373291
vt -41.02130126953125 26.266700744628906
vt 14.016300201416016 0
vt 8.5691003799438477 0.3937009871006012
vt 8.5691003799438477 0
vt 14.016300201416016 0.3937009871006012
vt 41.02130126953125 26.266700744628906
vt 41.7322998046875 20.866100311279297
vt 20.687599182128906 0.3937009871006012
vt 26.134799957275391 0
vt 26.134799957275391 0.3937009871006012
vt 20.687599182128906 0
vt -41.7322998046875 20.866100311279297
vt 20.687599182128906 0
vt 15.240500450134277 0.3937009871006012
vt 15.240500450134277 0
vt 20.687599182128906 0.3937009871006012
vn 0.38268798589706421 0 0.92387765645980835
vn 0.38268798589706421 0 0.92387765645980835
vn 0.38268798589706421 0 0.92387765645980835
vn 0.38268798589706421 0 0.92387765645980835
vn 0 1 0
vn 0 1 0
vn 0 1 0
vn 0 1 0
vn 0 1 0
vn 0 1 0
vn 0 1 0
vn 0 1 0
vn 0 1 0
vn 0 1 0
vn 0 1 0
vn 0 1 0
vn 0 1 0
vn 0 1 0
vn 0 1 0
vn 0 1 0
vn -0.99144512414932251 0 -0.13052406907081604
vn -0.99903851747512817 0 -0.043841242790222168
vn -0.99903851747512817 0 0.043841242790222168
vn -0.99144512414932251 0 -0.13052406907081604
vn -0.92387765645980835 0 -0.38268798589706421
vn -0.92387765645980835 0 -0.38268798589706421
vn -0.92387765645980835 0 -0.38268798589706421
vn -0.92387765645980835 0 -0.38268798589706421
vn -0.79335743188858032 0 -0.60875606536865234
vn -0.79335743188858032 0 -0.60875606536865234
vn -0.79335743188858032 0 -0.60875606536865234
vn -0.79335743188858032 0 -0.60875606536865234
vn -0.60875606536865234 0 -0.79335743188858032
vn -0.60875606536865234 0 -0.79335743188858032
vn -0.60875606536865234 0 -0.79335743188858032
vn -0.60875606536865234 0 -0.79335743188858032
vn -0.38268798589706421 0 -0.92387765645980835
vn -0.38268798589706421 0 -0.92387765645980835
vn -0.38268798589706421 0 -0.92387765645980835
vn -0.38268798589706421 0 -0.92387765645980835
vn -0.13052406907081604 0 -0.99144512414932251
vn -0.13052406907081604 0 -0.99144512414932251
vn -0.13052406907081604 0 -0.99144512414932251
vn -0.13052406907081604 0 -0.99144512414932251
vn 0.13052406907081604 0 -0.99144512414932251
vn 0.13052406907081604 0 -0.99144512414932251
vn 0.13052406907081604 0 -0.99144512414932251
vn 0.13052406907081604 0 -0.99144512414932251
vn 0.38268798589706421 0 -0.92387765645980835
vn 0.38268798589706421 0 -0.92387765645980835
vn 0.38268798589706421 0 -0.92387765645980835
vn 0.38268798589706421 0 -0.92387765645980835
vn 0 1 0
vn 0 1 0
vn 0.60875606536865234 0 0.79335743188858032
vn 0.60875606536865234 0 0.79335743188858032
vn 0.60875606536865234 0 0.79335743188858032
vn 0.60875606536865234 0 0.79335743188858032
vn 0 -1 0
vn 0 -1 0
vn 0 -1 0
vn 0 -1 0
vn 0 -1 0
vn 0 -1 0
vn 0 -1 0
vn 0 -1 0
vn 0 -1 0
vn 0 -1 0
vn 0 -1 0
vn 0 -1 0
vn 0 -1 0
vn 0 -1 0
vn 0 -1 0
vn 0 -1 0
vn 0 -1 0
vn 0 -1 0
vn -0.99144512414932251 0 0.13052406907081604
vn -0.99144512414932251 0 0.13052406907081604
vn -0.92387765645980835 0 0.38268798589706421
vn -0.92387765645980835 0 0.38268798589706421
vn -0.92387765645980835 0 0.38268798589706421
vn -0.92387765645980835 0 0.38268798589706421
vn -0.79335743188858032 0 0.60875606536865234
vn -0.79335743188858032 0 0.60875606536865234
vn -0.79335743188858032 0 0.60875606536865234
vn -0.79335743188858032 0 0.60875606536865234
vn -0.60875606536865234 0 0.79335743188858032
vn -0.60875606536865234 0 0.79335743188858032
vn -0.60875606536865234 0 0.79335743188858032
vn -0.60875606536865234 0 0.79335743188858032
vn -0.38268798589706421 0 0.92387765645980835
vn -0.38268798589706421 0 0.92387765645980835
vn -0.38268798589706421 0 0.92387765645980835
vn -0.38268798589706421 0 0.92387765645980835
vn -0.13052406907081604 0 0.99144512414932251
vn -0.043841242790222168 0 0.99903851747512817
vn -0.13052406907081604 0 0.99144512414932251
vn 0.043841242790222168 0 0.99903851747512817
vn 0.13052406907081604 0 0.99144512414932251
vn 0.13052406907081604 0 0.99144512414932251
vn 0 -1 0
vn 0.60875606536865234 0 -0.79335743188858032
vn 0.60875606536865234 0 -0.79335743188858032
vn 0.60875606536865234 0 -0.79335743188858032
vn 0.60875606536865234 0 -0.79335743188858032
vn 0 1 0
vn 0 1 0
vn 0.79335743188858032 0 0.60875606536865234
vn 0.79335743188858032 0 0.60875606536865234
vn 0.79335743188858032 0 0.60875606536865234
vn 0.79335743188858032 0 0.60875606536865234
vn 0 -1 0
vn 0 -1 0
vn 0.79335743188858032 0 -0.60875606536865234
vn 0.79335743188858032 0 -0.60875606536865234
vn 0.79335743188858032 0 -0.60875606536865234
vn 0.79335743188858032 0 -0.60875606536865234
vn 0 1 0
vn 0 1 0
vn 0.92387765645980835 0 0.38268798589706421
vn 0.92387765645980835 0 0.38268798589706421
vn 0.92387765645980835 0 0.38268798589706421
vn 0.92387765645980835 0 0.38268798589706421
vn 0 -1 0
vn 0 -1 0
vn 0.92387765645980835 0 -0.38268798589706421
vn 0.92387765645980835 0 -0.38268798589706421
vn 0.92387765645980835 0 -0.38268798589706421
vn 0.92387765645980835 0 -0.38268798589706421
vn 0 1 0
vn 0 1 0
vn 0.99144512414932251 0 0.13052406907081604
vn 0.99144512414932251 0 0.13052406907081604
vn 0.99144512414932251 0 0.13052406907081604
vn 0.99144512414932251 0 0.13052406907081604
vn 0 -1 0
vn 0.99144512414932251 0 -0.13052406907081604
vn 0.99144512414932251 0 -0.13052406907081604
vn 0.99144512414932251 0 -0.13052406907081604
vn 0.99144512414932251 0 -0.13052406907081604
f 1/1/1 2/2/2 3/3/3
f 2/2/2 1/1/1 4/4/4
f 5/5/5 6/6/6 7/7/7
f 8/8/8 6/6/6 5/5/5
f 8/8/8 9/9/9 6/6/6
f 10/10/10 9/9/9 8/8/8
f 10/10/10 11/11/11 9/9/9
f 12/12/12 11/11/11 10/10/10
f 12/12/12 13/13/13 11/11/11
f 14/14/14 13/13/13 12/12/12
f 14/14/14 15/15/15 13/13/13
f 16/16/16 15/15/15 14/14/14
f 16/16/16 17/17/17 15/15/15
f 18/18/18 17/17/17 16/16/16
f 18/18/18 19/19/19 17/17/17
f 19/19/19 18/18/18 20/20/20
f 21/21/21 22/22/22 23/23/23
f 22/22/22 21/21/21 24/24/24
f 25/25/25 26/26/26 27/27/27
f 26/26/26 25/25/25 28/28/28
f 29/29/29 30/30/30 31/31/31
f 30/30/30 29/29/29 32/32/32
f 33/33/33 34/34/34 35/35/35
f 34/34/34 33/33/33 36/36/36
f 37/37/37 38/38/38 39/39/39
f 38/38/38 37/37/37 40/40/40
f 41/41/41 42/42/42 43/43/43
f 42/42/42 41/41/41 44/44/44
f 45/45/45 46/46/46 47/47/47
f 46/46/46 45/45/45 48/48/48
f 49/49/49 50/50/50 51/51/51
f 50/50/50 49/49/49 52/52/52
f 5/5/5 7/7/7 53/53/53
f 53/53/53 7/7/7 54/54/54
f 55/55/55 56/56/56 57/57/57
f 56/56/56 55/55/55 58/58/58
f 59/59/59 60/60/60 61/61/61
f 59/59/59 62/62/62 60/60/60
f 63/63/63 62/62/62 59/59/59
f 63/63/63 64/64/64 62/62/62
f 65/65/65 64/64/64 63/63/63
f 65/65/65 66/66/66 64/64/64
f 67/67/67 66/66/66 65/65/65
f 67/67/67 68/68/68 66/66/66
f 69/69/69 68/68/68 67/67/67
f 69/69/69 70/70/70 68/68/68
f 71/71/71 70/70/70 69/69/69
f 71/71/71 72/72/72 70/70/70
f 73/73/73 72/72/72 71/71/71
f 73/73/73 74/74/74 72/72/72
f 75/75/75 74/74/74 73/73/73
f 74/74/74 75/75/75 76/76/76
f 77/77/77 23/23/23 22/22/22
f 23/23/23 77/77/77 78/78/78
f 79/79/79 80/80/80 81/81/81
f 80/80/80 79/79/79 82/82/82
f 83/83/83 84/84/84 85/85/85
f 84/84/84 83/83/83 86/86/86
f 87/87/87 88/88/88 89/89/89
f 88/88/88 87/87/87 90/90/90
f 91/91/91 92/92/92 93/93/93
f 92/92/92 91/91/91 94/94/94
f 95/95/95 96/96/96 97/97/97
f 96/96/96 95/95/95 98/98/98
f 98/98/98 99/99/99 96/96/96
f 99/99/99 98/98/98 100/100/100
f 61/61/61 60/60/60 101/101/101
f 102/102/102 103/103/103 104/104/104
f 103/103/103 102/102/102 105/105/105
f 53/53/53 54/54/54 106/106/106
f 106/106/106 54/54/54 107/107/107
f 108/108/108 109/109/109 110/110/110
f 109/109/109 108/108/108 111/111/111
f 61/61/61 112/112/112 113/113/113
f 61/61/61 101/101/101 112/112/112
f 114/114/114 115/115/115 116/116/116
f 115/115/115 114/114/114 117/117/117
f 106/106/106 107/107/107 118/118/118
f 118/118/118 107/107/107 119/119/119
f 120/120/120 121/121/121 122/122/122
f 121/121/121 120/120/120 123/123/123
f 113/113/113 112/112/112 124/124/124
f 124/124/124 112/112/112 125/125/125
f 126/126/126 127/127/127 128/128/128
f 127/127/127 126/126/126 129/129/129
f 118/118/118 119/119/119 130/130/130
f 130/130/130 119/119/119 131/131/131
f 132/132/132 133/133/133 134/134/134
f 133/133/133 132/132/132 135/135/135
f 124/124/124 125/125/125 136/136/136
f 137/137/137 138/138/138 139/139/139
f 138/138/138 137/137/137 140/140/140
