# Rhino

mtllib Table_13_06.mtl
usemtl Default
v -419.65199961500002 479.50320954699998 -112.28176830200027
v 419.93841119900026 478.76347144099998 -112.56992805600021
v -419.94055638900045 478.76347144099998 -112.56992805600021
v 419.65025144500032 479.50320954699998 -112.28176830200027
v -419.43253074299992 480.26625657599999 -112.06212653400053
v 419.65025144500032 479.50320954699998 -112.28176830200027
v -419.65199961500002 479.50320954699998 -112.28176830200027
v 419.43253074300083 480.26625657599999 -112.06212653400053
v -387.41478030399958 480.26625657599999 -60.8337258329002
v 419.43253074300083 480.26625657599999 -112.06212653400053
v -419.43253074299992 480.26625657599999 -112.06212653400053
v 387.41478030399958 480.26625657599999 -60.8337258329002
v -387.41478030399958 477.064481532 -60.8337258329002
v 387.41478030399958 480.26625657599999 -60.8337258329002
v -387.41478030399958 480.26625657599999 -60.8337258329002
v 387.41478030399958 477.064481532 -60.8337258329002
v -387.41478030399958 477.064481532 -60.8337258329002
v -384.2130052600005 477.064481532 -57.631950789000257
v 387.41478030399958 477.064481532 -60.8337258329002
v 384.21300525999959 477.064481532 -57.631950789000257
v -384.2130052600005 464.25738135699999 -57.631950789000257
v 384.21300525999959 477.064481532 -57.631950789000257
v -384.2130052600005 477.064481532 -57.631950789000257
v 384.21300525999959 464.25738135699999 -57.631950789000257
v -384.2130052600005 464.25738135699999 -57.631950789000257
v 419.43253074300083 464.25738135699999 -112.06212653400053
v 384.21300525999959 464.25738135699999 -57.631950789000257
v -419.43253074299992 464.25738135699999 -112.06212653400053
v 425.83608082999945 467.45915639999998 -118.46567662199959
v -425.83608083000036 473.86270648800001 -118.46567662199959
v 425.83608082999945 473.86270648800001 -118.46567662199959
v -425.83608083000036 467.45915639999998 -118.46567662199959
v 425.83608082999945 467.45915639999998 -118.46567662199959
v -419.43253074299992 464.25738135699999 -112.06212653400053
v -425.83608083000036 467.45915639999998 -118.46567662199959
v 419.43253074300083 464.25738135699999 -112.06212653400053
v -419.94055638900045 478.76347144099998 -112.56992805600021
v 420.29701000500063 478.05331773600005 -112.92532508600016
v -420.29577411900027 478.05331773600005 -112.92532508600016
v 419.93841119900026 478.76347144099998 -112.56992805600021
v 425.83608082999945 473.86270648800001 -118.46567662199959
v -425.07300178399964 474.08215614899996 -117.70237345099986
v 425.07405836999988 474.08215614899996 -117.70237345099986
v -425.83608083000036 473.86270648800001 -118.46567662199959
v -424.33328288800021 474.37076415199999 -116.96276341700013
v 425.07405836999988 474.08215614899996 -117.70237345099986
v -425.07300178399964 474.08215614899996 -117.70237345099986
v 424.33124655999927 474.37076415199999 -116.96276341700013
v -423.62315479800054 474.72596907499997 -116.25260971100033
v 424.33124655999927 474.37076415199999 -116.96276341700013
v -424.33328288800021 474.37076415199999 -116.96276341700013
v 423.62045249999937 474.72596907499997 -116.25260971100033
v -422.94861123600003 475.14482528600001 -115.57831588699992
v 423.62045249999937 474.72596907499997 -116.25260971100033
v -423.62315479800054 474.72596907499997 -116.25260971100033
v 422.94807974000014 475.14482528600001 -115.57831588699992
v -422.31535136000002 475.62381083299999 -114.9450047829996
v 422.94807974000014 475.14482528600001 -115.57831588699992
v -422.94861123600003 475.14482528600001 -115.57831588699992
v 422.31412828200064 475.62381083299999 -114.9450047829996
v -421.72870932899968 476.15889147799999 -114.3584395959997
v 422.31412828200064 475.62381083299999 -114.9450047829996
v -422.31535136000002 475.62381083299999 -114.9450047829996
v 421.7314052239999 476.15889147799999 -114.3584395959997
v -421.19363508700008 476.74552070200002 -113.82310280799993
v 421.7314052239999 476.15889147799999 -114.3584395959997
v -421.72870932899968 476.15889147799999 -114.3584395959997
v 421.19350701599978 476.74552070200002 -113.82310280799993
v -420.7146431379997 477.37876776999997 -113.3441172619996
v 421.19350701599978 476.74552070200002 -113.82310280799993
v -421.19363508700008 476.74552070200002 -113.82310280799993
v 420.71324076000019 477.37876776999997 -113.3441172619996
v -420.29577411900027 478.05331773600005 -112.92532508600016
v 420.71324076000019 477.37876776999997 -113.3441172619996
v -420.7146431379997 477.37876776999997 -113.3441172619996
v 420.29701000500063 478.05331773600005 -112.92532508600016
vt -0.38020700216293335 -4.2824602127075195
vt -51.999698638916016 -4.3312802314758301
vt -0.36246600747108459 -4.3312802314758301
vt -51.981998443603516 -4.2824602127075195
vt -0.3937009871006012 -2.9716699123382568
vt -51.981998443603516 -3.0204799175262451
vt -0.38020700216293335 -3.0204799175262451
vt -51.968498229980469 -2.9716699123382568
vt 2.3622000217437744 11.023599624633789
vt 51.968498229980469 14.173199653625488
vt 0.3937009871006012 14.173199653625488
vt 50 11.023599624633789
vt 2.3622000217437744 0.78740197420120239
vt 50 0.98425197601318359
vt 2.3622000217437744 0.98425197601318359
vt 50 0.78740197420120239
vt 2.3622000217437744 11.023599624633789
vt 2.5590600967407227 10.826800346374512
vt 50 11.023599624633789
vt 49.8031005859375 10.826800346374512
vt 2.5590600967407227 0
vt 49.8031005859375 0.78740197420120239
vt 2.5590600967407227 0.78740197420120239
vt 49.8031005859375 0
vt -2.5590600967407227 10.826800346374512
vt -51.968498229980469 14.173199653625488
vt -49.8031005859375 10.826800346374512
vt -0.3937009871006012 14.173199653625488
vt -52.362201690673828 0.1968500018119812
vt 0 0.59055101871490479
vt -52.362201690673828 0.59055101871490479
vt 0 0.1968500018119812
vt -52.362201690673828 13.117099761962891
vt -0.3937009871006012 12.676899909973145
vt 0 13.117099761962891
vt -51.968498229980469 12.676899909973145
vt -0.36246600747108459 -5.556920051574707
vt -52.021598815917969 -5.6057400703430176
vt -0.34062701463699341 -5.6057400703430176
vt -51.999698638916016 -5.556920051574707
vt -52.362201690673828 -13.836199760437012
vt -0.046915300190448761 -13.787400245666504
vt -52.315299987792969 -13.787400245666504
vt 0 -13.836199760437012
vt -0.092394702136516571 -13.258899688720703
vt -52.315299987792969 -13.307700157165527
vt -0.046915300190448761 -13.307700157165527
vt -52.269798278808594 -13.258899688720703
vt -0.13605399429798126 -12.618399620056152
vt -52.269798278808594 -12.667200088500977
vt -0.092394702136516571 -12.667200088500977
vt -52.226200103759766 -12.618399620056152
vt -0.17752599716186523 -11.871199607849121
vt -52.226200103759766 -11.920000076293945
vt -0.13605399429798126 -11.920000076293945
vt -52.184700012207031 -11.871199607849121
vt -0.21646000444889069 -11.023599624633789
vt -52.184700012207031 -11.072400093078613
vt -0.17752599716186523 -11.072400093078613
vt -52.145698547363281 -11.023599624633789
vt -0.25252801179885864 -10.082900047302246
vt -52.145698547363281 -10.131699562072754
vt -0.21646000444889069 -10.131699562072754
vt -52.109699249267578 -10.082900047302246
vt -0.28542500734329224 -9.0568504333496094
vt -52.109699249267578 -9.1056699752807617
vt -0.25252801179885864 -9.1056699752807617
vt -52.076801300048828 -9.0568504333496094
vt -0.31487500667572021 -7.9542298316955566
vt -52.076801300048828 -8.0030498504638672
vt -0.28542500734329224 -8.0030498504638672
vt -52.047298431396484 -7.9542298316955566
vt -0.34062701463699341 -6.7842898368835449
vt -52.047298431396484 -6.8331098556518555
vt -0.31487500667572021 -6.8331098556518555
vt -52.021598815917969 -6.7842898368835449
vn 0 0.3629755973815918 -0.93179863691329956
vn 0 0.3629755973815918 -0.93179863691329956
vn 0 0.3629755973815918 -0.93179863691329956
vn 0 0.3629755973815918 -0.93179863691329956
vn 0 0.27661654353141785 -0.96098035573959351
vn 0 0.27661654353141785 -0.96098035573959351
vn 0 0.27661654353141785 -0.96098035573959351
vn 0 0.27661654353141785 -0.96098035573959351
vn 0 1 0
vn 0 1 0
vn 0 1 0
vn 0 1 0
vn 0 0 1
vn 0 0 1
vn 0 0 1
vn 0 0 1
vn 0 1 0
vn 0 1 0
vn 0 1 0
vn 0 1 0
vn 0 0 1
vn 0 0 1
vn 0 0 1
vn 0 0 1
vn 0 -1 0
vn 0 -1 0
vn 0 -1 0
vn 0 -1 0
vn 0 0 -1
vn 0 0 -1
vn 0 0 -1
vn 0 0 -1
vn 0 -0.89442718029022217 -0.44721359014511108
vn 0 -0.89442718029022217 -0.44721359014511108
vn 0 -0.89442718029022217 -0.44721359014511108
vn 0 -0.89442718029022217 -0.44721359014511108
vn 0 0.44753614068031311 -0.89426583051681519
vn 0 0.44753614068031311 -0.89426583051681519
vn 0 0.44753614068031311 -0.89426583051681519
vn 0 0.44753614068031311 -0.89426583051681519
vn 0 0.96106928586959839 -0.27630743384361267
vn 0 0.96106928586959839 -0.27630743384361267
vn 0 0.96106928586959839 -0.27630743384361267
vn 0 0.96106928586959839 -0.27630743384361267
vn 0 0.93158626556396484 -0.36352032423019409
vn 0 0.93158626556396484 -0.36352032423019409
vn 0 0.93158626556396484 -0.36352032423019409
vn 0 0.93158626556396484 -0.36352032423019409
vn 0 0.8943626880645752 -0.44734260439872742
vn 0 0.8943626880645752 -0.44734260439872742
vn 0 0.8943626880645752 -0.44734260439872742
vn 0 0.8943626880645752 -0.44734260439872742
vn 0 0.84945440292358398 -0.52766203880310059
vn 0 0.84945440292358398 -0.52766203880310059
vn 0 0.84945440292358398 -0.52766203880310059
vn 0 0.84945440292358398 -0.52766203880310059
vn 0 0.79757416248321533 -0.60322093963623047
vn 0 0.79757416248321533 -0.60322093963623047
vn 0 0.79757416248321533 -0.60322093963623047
vn 0 0.79757416248321533 -0.60322093963623047
vn 0 0.73878574371337891 -0.67394036054611206
vn 0 0.73878574371337891 -0.67394036054611206
vn 0 0.73878574371337891 -0.67394036054611206
vn 0 0.73878574371337891 -0.67394036054611206
vn 0 0.67407625913619995 -0.73866176605224609
vn 0 0.67407625913619995 -0.73866176605224609
vn 0 0.67407625913619995 -0.73866176605224609
vn 0 0.67407625913619995 -0.73866176605224609
vn 0 0.60325968265533447 -0.79754483699798584
vn 0 0.60325968265533447 -0.79754483699798584
vn 0 0.60325968265533447 -0.79754483699798584
vn 0 0.60325968265533447 -0.79754483699798584
vn 0 0.52745920419692993 -0.84958034753799438
vn 0 0.52745920419692993 -0.84958034753799438
vn 0 0.52745920419692993 -0.84958034753799438
vn 0 0.52745920419692993 -0.84958034753799438
f 1/1/1 2/2/2 3/3/3
f 2/2/2 1/1/1 4/4/4
f 5/5/5 6/6/6 7/7/7
f 6/6/6 5/5/5 8/8/8
f 9/9/9 10/10/10 11/11/11
f 10/10/10 9/9/9 12/12/12
f 13/13/13 14/14/14 15/15/15
f 14/14/14 13/13/13 16/16/16
f 17/17/17 18/18/18 19/19/19
f 19/19/19 18/18/18 20/20/20
f 21/21/21 22/22/22 23/23/23
f 22/22/22 21/21/21 24/24/24
f 25/25/25 26/26/26 27/27/27
f 25/25/25 28/28/28 26/26/26
f 29/29/29 30/30/30 31/31/31
f 30/30/30 29/29/29 32/32/32
f 33/33/33 34/34/34 35/35/35
f 34/34/34 33/33/33 36/36/36
f 37/37/37 38/38/38 39/39/39
f 38/38/38 37/37/37 40/40/40
f 41/41/41 42/42/42 43/43/43
f 42/42/42 41/41/41 44/44/44
f 45/45/45 46/46/46 47/47/47
f 46/46/46 45/45/45 48/48/48
f 49/49/49 50/50/50 51/51/51
f 50/50/50 49/49/49 52/52/52
f 53/53/53 54/54/54 55/55/55
f 54/54/54 53/53/53 56/56/56
f 57/57/57 58/58/58 59/59/59
f 58/58/58 57/57/57 60/60/60
f 61/61/61 62/62/62 63/63/63
f 62/62/62 61/61/61 64/64/64
f 65/65/65 66/66/66 67/67/67
f 66/66/66 65/65/65 68/68/68
f 69/69/69 70/70/70 71/71/71
f 70/70/70 69/69/69 72/72/72
f 73/73/73 74/74/74 75/75/75
f 74/74/74 73/73/73 76/76/76
