# Rhino

mtllib Table_18_01.mtl
usemtl Default
v 400.84148736399993 298.93263464500001 -254.77213179899991
v -400.84148736399993 298.93263464500001 254.77213179899991
v -400.84148736399993 298.93263464500001 -254.77213179899991
v 400.84148736399993 298.93263464500001 254.77213179899991
v 400.84148736399993 298.93263464500001 -254.77213179899991
v 400.84148736399993 312.520481674 254.77213179899991
v 400.84148736399993 298.93263464500001 254.77213179899991
v 400.84148736399993 312.520481674 -254.77213179899991
v 400.84148736399993 298.93263464500001 -254.77213179899991
v -400.84148736399993 312.520481674 -254.77213179899991
v 400.84148736399993 312.520481674 -254.77213179899991
v -400.84148736399993 298.93263464500001 -254.77213179899991
v -400.84148736399993 312.520481674 -254.77213179899991
v -400.84148736399993 298.93263464500001 -254.77213179899991
v -400.84148736399993 312.520481674 254.77213179899991
v 400.84148736399993 312.520481674 254.77213179899991
v 400.84148736399993 298.93263464500001 254.77213179899991
v 400.84148736399993 312.520481674 254.77213179899991
v -400.84148736399993 312.520481674 -254.77213179899991
v -400.84148736399993 312.520481674 254.77213179899991
v 400.84148736399993 312.520481674 -254.77213179899991
vt -46.456699371337891 29.527599334716797
vt 0 0
vt 0 29.527599334716797
vt -46.456699371337891 0
vt 29.527599334716797 0
vt 0 0.78740197420120239
vt 0 0
vt 29.527599334716797 0.78740197420120239
vt -46.456699371337891 0
vt 0 0.78740197420120239
vt -46.456699371337891 0.78740197420120239
vt 0 0
vt -29.527599334716797 0.78740197420120239
vt -29.527599334716797 0
vt 0 0.78740197420120239
vt 46.456699371337891 0.78740197420120239
vt 46.456699371337891 0
vt 46.456699371337891 0
vt 0 29.527599334716797
vt 0 0
vt 46.456699371337891 29.527599334716797
vn 0 -1 0
vn -0.57735025882720947 -0.57735025882720947 0.57735025882720947
vn 0 -1 0
vn 0 -1 0
vn 1 0 0
vn 1 0 0
vn 1 0 0
vn 1 0 0
vn 0 0 -1
vn 0 0 -1
vn 0 0 -1
vn 0 0 -1
vn -1 0 0
vn -1 0 0
vn -0.70710676908493042 0 0.70710676908493042
vn 0 0 1
vn 0 0 1
vn 0 1 0
vn 0 1 0
vn 0 1 0
vn 0 1 0
f 1/1/1 2/2/2 3/3/3
f 2/2/2 1/1/1 4/4/4
f 5/5/5 6/6/6 7/7/7
f 6/6/6 5/5/5 8/8/8
f 9/9/9 10/10/10 11/11/11
f 10/10/10 9/9/9 12/12/12
f 2/2/2 13/13/13 14/14/14
f 13/13/13 2/2/2 15/15/15
f 2/2/2 16/16/16 15/15/15
f 16/16/16 2/2/2 17/17/17
f 18/18/18 19/19/19 20/20/20
f 19/19/19 18/18/18 21/21/21
