# Rhino

mtllib Table_10_14.mtl
usemtl Default
v 240.71041706200049 593.44069638400003 245.16818357500051
v 257.05496164299984 593.44069638400003 -245.16824300999906
v 257.05496164299984 593.44069638400003 245.16818357500051
v 240.71041706200049 593.44069638400003 -245.16824300999906
v 240.71041706200049 593.44069638400003 245.16818357500051
v 240.71041706200049 649.75508180500003 -245.16824300999906
v 240.71041706200049 593.44069638400003 -245.16824300999906
v 240.71041706200049 649.75508180500003 245.16818357500051
v 240.71041706200049 649.75508180500003 245.16818357500051
v 240.71041706200049 657.33300702000008 237.59025835999819
v 240.71041706200049 649.75508180500003 -245.16824300999906
v 240.71041706200049 657.33300702000008 -245.16824300999906
v 240.71041706200049 657.33300702000008 237.59025835999819
v 240.71041706200049 667.734080844 -245.16824300999906
v 240.71041706200049 657.33300702000008 -245.16824300999906
v 240.71041706200049 657.33300702000008 245.16818357500051
v 240.71041706200049 667.734080844 245.16818357500051
v 240.71041706200049 667.734080844 245.16818357500051
v 257.05496164299984 667.734080844 -245.16824300999906
v 240.71041706200049 667.734080844 -245.16824300999906
v 257.05496164299984 667.734080844 245.16818357500051
v 257.05496164299984 667.734080844 245.16818357500051
v 257.05496164299984 593.44069638400003 -245.16824300999906
v 257.05496164299984 667.734080844 -245.16824300999906
v 257.05496164299984 593.44069638400003 245.16818357500051
v 240.71041706200049 593.44069638400003 -245.16824300999906
v 240.71041706200049 649.75508180500003 -245.16824300999906
v 240.71041706200049 657.33300702000008 -245.16824300999906
v 240.71041706200049 667.734080844 -245.16824300999906
v 248.88268935250017 630.58738861400002 -245.16824300999906
v 257.05496164299984 593.44069638400003 -245.16824300999906
v 257.05496164299984 667.734080844 -245.16824300999906
vt -0.10702300071716309 -0.0075090699829161167
vt -0.11063200235366821 0.26315999031066895
vt -0.11063200235366821 -0.0075090699829161167
vt -0.10702300071716309 0.26315999031066895
vt 0.0030036300886422396 0.32758399844169617
vt -0.10526400059461594 0.35866999626159668
vt -0.10526400059461594 0.32758399844169617
vt 0.0030036300886422396 0.35866999626159668
vt 0.0030036300886422396 0.35866999626159668
vt 0.0013304000021889806 0.36285299062728882
vt -0.10526400059461594 0.35866999626159668
vt -0.10526400059461594 0.36285299062728882
vt 0.0013304000021889806 0.36285299062728882
vt -0.10526400059461594 0.36859399080276489
vt -0.10526400059461594 0.36285299062728882
vt 0.0030036300886422396 0.36285299062728882
vt 0.0030036300886422396 0.36859399080276489
vt 0.10702300071716309 -0.0075090699829161167
vt 0.11063200235366821 0.26315999031066895
vt 0.10702300071716309 0.26315999031066895
vt 0.11063200235366821 -0.0075090699829161167
vt -0.0030036300886422396 0.36859399080276489
vt 0.10526400059461594 0.32758399844169617
vt 0.10526400059461594 0.36859399080276489
vt -0.0030036300886422396 0.32758399844169617
vt 0 1
vt 0 0.24199999868869781
vt 0 0.14000000059604645
vt 0 0
vt 0.5 0.5
vt 1 1
vt 1 0
vn 0 -1 0
vn 0 -1 0
vn 0 -1 0
vn 0 -1 0
vn -1 0 0
vn -1 0 0
vn -1 0 0
vn -1 0 0
vn -1 0 0
vn -1 0 0
vn -1 0 0
vn -1 0 0
vn -1 0 0
vn -1 0 0
vn -1 0 0
vn -1 0 0
vn -1 0 0
vn 0 1 0
vn 0 1 0
vn 0 1 0
vn 0 1 0
vn 1 0 0
vn 1 0 0
vn 1 0 0
vn 1 0 0
vn 0 0 -1
vn 0 0 -1
vn 0 0 -1
vn 0 0 -1
vn 0 0 -1
vn 0 0 -1
vn 0 0 -1
f 1/1/1 2/2/2 3/3/3
f 2/2/2 1/1/1 4/4/4
f 5/5/5 6/6/6 7/7/7
f 6/6/6 5/5/5 8/8/8
f 9/9/9 10/10/10 11/11/11
f 11/11/11 10/10/10 12/12/12
f 13/13/13 14/14/14 15/15/15
f 16/16/16 14/14/14 13/13/13
f 14/14/14 16/16/16 17/17/17
f 18/18/18 19/19/19 20/20/20
f 19/19/19 18/18/18 21/21/21
f 22/22/22 23/23/23 24/24/24
f 23/23/23 22/22/22 25/25/25
f 32/32/32 28/28/28 29/29/29
f 32/32/32 27/27/27 28/28/28
f 31/31/31 30/30/30 32/32/32
f 27/27/27 30/30/30 26/26/26
f 30/30/30 31/31/31 26/26/26
f 32/32/32 30/30/30 27/27/27
