# Rhino

mtllib Table_07_02.mtl
usemtl Default
v 166.50604838900017 355.32142452255005 -166.50679674200092
v 203.92673673899935 376.5327674275 -117.73806987100033
v 203.92673673899935 355.32142452255005 -117.73806987100033
v 166.50604838900017 376.5327674275 -166.50679674200092
v 166.50604838900017 355.32142452255005 -166.50679674200092
v 117.73732151699915 376.5327674275 -203.92748509400008
v 166.50604838900017 376.5327674275 -166.50679674200092
v 117.73732151699915 355.32142452255005 -203.92748509400008
v 117.73732151699915 355.32142452255005 203.92838311800006
v 117.73732151699915 355.32142452255005 -203.92748509400008
v 166.50604838900017 355.32142452255005 -166.50679674200092
v 60.946240852300434 355.32142452255005 227.45064286200068
v 60.946240852300434 355.32142452255005 -227.45273825299955
v 0.00029934155918454053 355.32142452255005 235.47599007199915
v 0.00029934155918454053 355.32142452255005 -235.47509204700054
v -60.945642169199346 355.32142452255005 227.45064286200068
v -60.945642169199346 355.32142452255005 -227.45273825299955
v -117.73672283499945 355.32142452255005 203.92838311800006
v -117.73672283499945 355.32142452255005 -203.92748509400008
v -166.5054497050005 355.32142452255005 166.50769476699952
v -166.5054497050005 355.32142452255005 -166.50679674200092
v -203.92613805599922 355.32142452255005 117.73896789599985
v -203.92613805599922 355.32142452255005 -117.73806987100033
v -227.45139121600005 355.32142452255005 60.94489381530002
v -227.45139121600005 355.32142452255005 -60.943995790599729
v -233.61303787600082 355.32142452255005 14.142840990100012
v -235.47494237699993 355.32142452255005 -0.0010476954585101339
v -233.61303787600082 355.32142452255005 14.142840990100012
v -235.47494237699993 376.5327674275 -0.0010476954585101339
v -235.47494237699993 355.32142452255005 -0.0010476954585101339
v -227.45139121600005 355.32142452255005 60.94489381530002
v -227.45139121600005 376.5327674275 60.94489381530002
v -203.92613805599922 355.32142452255005 117.73896789599985
v -227.45139121600005 376.5327674275 60.94489381530002
v -227.45139121600005 355.32142452255005 60.94489381530002
v -203.92613805599922 376.5327674275 117.73896789599985
v -166.5054497050005 355.32142452255005 166.50769476699952
v -203.92613805599922 376.5327674275 117.73896789599985
v -203.92613805599922 355.32142452255005 117.73896789599985
v -166.5054497050005 376.5327674275 166.50769476699952
v -166.5054497050005 355.32142452255005 166.50769476699952
v -117.73672283499945 376.5327674275 203.92838311800006
v -166.5054497050005 376.5327674275 166.50769476699952
v -117.73672283499945 355.32142452255005 203.92838311800006
v -117.73672283499945 355.32142452255005 203.92838311800006
v -60.945642169199346 376.5327674275 227.45064286200068
v -117.73672283499945 376.5327674275 203.92838311800006
v -60.945642169199346 355.32142452255005 227.45064286200068
v -60.945642169199346 355.32142452255005 227.45064286200068
v 0.00029934155918454053 376.5327674275 235.47599007199915
v -60.945642169199346 376.5327674275 227.45064286200068
v 0.00029934155918454053 355.32142452255005 235.47599007199915
v 0.00029934155918454053 355.32142452255005 235.47599007199915
v 60.946240852300434 376.5327674275 227.45064286200068
v 0.00029934155918454053 376.5327674275 235.47599007199915
v 60.946240852300434 355.32142452255005 227.45064286200068
v 60.946240852300434 355.32142452255005 227.45064286200068
v 117.73732151699915 376.5327674275 203.92838311800006
v 60.946240852300434 376.5327674275 227.45064286200068
v 117.73732151699915 355.32142452255005 203.92838311800006
v 117.73732151699915 355.32142452255005 203.92838311800006
v 166.50604838900017 376.5327674275 166.50769476699952
v 117.73732151699915 376.5327674275 203.92838311800006
v 166.50604838900017 355.32142452255005 166.50769476699952
v 166.50604838900017 355.32142452255005 166.50769476699952
v 203.92673673899935 355.32142452255005 -117.73806987100033
v 203.92673673899935 355.32142452255005 117.73896789599985
v 227.45198989900018 355.32142452255005 -60.943995790599729
v 203.92673673899935 355.32142452255005 -117.73806987100033
v 227.45198989900018 376.5327674275 -60.943995790599729
v 227.45198989900018 355.32142452255005 -60.943995790599729
v 203.92673673899935 376.5327674275 -117.73806987100033
v 203.92673673899935 376.5327674275 -117.73806987100033
v 227.45198989900018 376.5327674275 60.94489381530002
v 227.45198989900018 376.5327674275 -60.943995790599729
v 203.92673673899935 376.5327674275 117.73896789599985
v 166.50604838900017 376.5327674275 -166.50679674200092
v 166.50604838900017 376.5327674275 166.50769476699952
v 117.73732151699915 376.5327674275 -203.92748509400008
v 117.73732151699915 376.5327674275 203.92838311800006
v 60.946240852300434 376.5327674275 -227.45273825299955
v 60.946240852300434 376.5327674275 227.45064286200068
v 0.00029934155918454053 376.5327674275 -235.47509204700054
v 0.00029934155918454053 376.5327674275 235.47599007199915
v -60.945642169199346 376.5327674275 -227.45273825299955
v -60.945642169199346 376.5327674275 227.45064286200068
v -117.73672283499945 376.5327674275 -203.92748509400008
v -117.73672283499945 376.5327674275 203.92838311800006
v -166.5054497050005 376.5327674275 -166.50679674200092
v -166.5054497050005 376.5327674275 166.50769476699952
v -203.92613805599922 376.5327674275 -117.73806987100033
v -203.92613805599922 376.5327674275 117.73896789599985
v -227.45139121600005 376.5327674275 -60.943995790599729
v -227.45139121600005 376.5327674275 60.94489381530002
v -235.47494237699993 376.5327674275 -0.0010476954585101339
v -227.45139121600005 376.5327674275 -60.943995790599729
v -235.47494237699993 355.32142452255005 -0.0010476954585101339
v -235.47494237699993 376.5327674275 -0.0010476954585101339
v -227.45139121600005 355.32142452255005 -60.943995790599729
v -203.92613805599922 376.5327674275 -117.73806987100033
v -227.45139121600005 355.32142452255005 -60.943995790599729
v -227.45139121600005 376.5327674275 -60.943995790599729
v -203.92613805599922 355.32142452255005 -117.73806987100033
v -166.5054497050005 376.5327674275 -166.50679674200092
v -203.92613805599922 355.32142452255005 -117.73806987100033
v -203.92613805599922 376.5327674275 -117.73806987100033
v -166.5054497050005 355.32142452255005 -166.50679674200092
v -166.5054497050005 376.5327674275 -166.50679674200092
v -117.73672283499945 355.32142452255005 -203.92748509400008
v -166.5054497050005 355.32142452255005 -166.50679674200092
v -117.73672283499945 376.5327674275 -203.92748509400008
v -117.73672283499945 376.5327674275 -203.92748509400008
v -60.945642169199346 355.32142452255005 -227.45273825299955
v -117.73672283499945 355.32142452255005 -203.92748509400008
v -60.945642169199346 376.5327674275 -227.45273825299955
v -60.945642169199346 376.5327674275 -227.45273825299955
v 0.00029934155918454053 355.32142452255005 -235.47509204700054
v -60.945642169199346 355.32142452255005 -227.45273825299955
v 0.00029934155918454053 376.5327674275 -235.47509204700054
v 0.00029934155918454053 376.5327674275 -235.47509204700054
v 60.946240852300434 355.32142452255005 -227.45273825299955
v 0.00029934155918454053 355.32142452255005 -235.47509204700054
v 60.946240852300434 376.5327674275 -227.45273825299955
v 60.946240852300434 376.5327674275 -227.45273825299955
v 117.73732151699915 355.32142452255005 -203.92748509400008
v 60.946240852300434 355.32142452255005 -227.45273825299955
v 117.73732151699915 376.5327674275 -203.92748509400008
v 166.50604838900017 376.5327674275 166.50769476699952
v 203.92673673899935 355.32142452255005 117.73896789599985
v 203.92673673899935 376.5327674275 117.73896789599985
v 166.50604838900017 355.32142452255005 166.50769476699952
v 227.45198989900018 355.32142452255005 60.94489381530002
v 203.92673673899935 376.5327674275 117.73896789599985
v 203.92673673899935 355.32142452255005 117.73896789599985
v 227.45198989900018 376.5327674275 60.94489381530002
v 235.47434369300026 355.32142452255005 -0.0010476954585101339
v 227.45198989900018 376.5327674275 60.94489381530002
v 227.45198989900018 355.32142452255005 60.94489381530002
v 235.47434369300026 376.5327674275 -0.0010476954585101339
v 227.45198989900018 355.32142452255005 -60.943995790599729
v 235.47434369300026 376.5327674275 -0.0010476954585101339
v 235.47434369300026 355.32142452255005 -0.0010476954585101339
v 227.45198989900018 376.5327674275 -60.943995790599729
v 235.47434369300026 376.5327674275 -0.0010476954585101339
v 227.45198989900018 355.32142452255005 60.94489381530002
v 235.47434369300026 355.32142452255005 -0.0010476954585101339
vt 0.13576300442218781 0.37297800183296204
vt 0.048829101026058197 0.39524498581886292
vt 0.048829101026058197 0.37297800183296204
vt 0.13576300442218781 0.39524498581886292
vt -0.13576300442218781 0.37297800183296204
vt -0.048829101026058197 0.39524498581886292
vt -0.13576300442218781 0.39524498581886292
vt -0.048829101026058197 0.37297800183296204
vt -0.66650599241256714 0.20050300657749176
vt -0.66650599241256714 0.74704301357269287
vt -0.73547601699829102 0.69689697027206421
vt -0.58618998527526855 0.16898000240325928
vt -0.58618998527526855 0.77856600284576416
vt -0.5 0.15822799503803253
vt -0.5 0.7893180251121521
vt -0.41381001472473145 0.16898000240325928
vt -0.41381001472473145 0.77856600284576416
vt -0.33349400758743286 0.20050300657749176
vt -0.33349400758743286 0.74704301357269287
vt -0.26452401280403137 0.25064900517463684
vt -0.26452401280403137 0.69689697027206421
vt -0.21160300076007843 0.31600099802017212
vt -0.21160300076007843 0.6315460205078125
vt -0.17833399772644043 0.39210399985313416
vt -0.17833399772644043 0.55544197559356689
vt -0.16962000727653503 0.45482200384140015
vt -0.16698700189590454 0.47377300262451172
vt -0.4537540078163147 0.37297800183296204
vt -0.47392600774765015 0.39524498581886292
vt -0.47392600774765015 0.37297800183296204
vt -0.38699200749397278 0.37297800183296204
vt -0.38699200749397278 0.39524498581886292
vt -0.22713099420070648 0.37297800183296204
vt -0.31406500935554504 0.39524498581886292
vt -0.31406500935554504 0.37297800183296204
vt -0.22713099420070648 0.39524498581886292
vt -0.048829101026058197 0.37297800183296204
vt -0.13576300442218781 0.39524498581886292
vt -0.13576300442218781 0.37297800183296204
vt -0.048829101026058197 0.39524498581886292
vt 0.048829101026058197 0.37297800183296204
vt 0.13576300442218781 0.39524498581886292
vt 0.048829101026058197 0.39524498581886292
vt 0.13576300442218781 0.37297800183296204
vt 0.22713099420070648 0.37297800183296204
vt 0.31406500935554504 0.39524498581886292
vt 0.22713099420070648 0.39524498581886292
vt 0.31406500935554504 0.37297800183296204
vt 0.38699200749397278 0.37297800183296204
vt 0.47392600774765015 0.39524498581886292
vt 0.38699200749397278 0.39524498581886292
vt 0.47392600774765015 0.37297800183296204
vt 0.51751899719238281 0.37297800183296204
vt 0.60445201396942139 0.39524498581886292
vt 0.51751899719238281 0.39524498581886292
vt 0.60445201396942139 0.37297800183296204
vt 0.60981500148773193 0.37297800183296204
vt 0.69674801826477051 0.39524498581886292
vt 0.60981500148773193 0.39524498581886292
vt 0.69674801826477051 0.37297800183296204
vt 0.65759098529815674 0.37297800183296204
vt 0.74452400207519531 0.39524498581886292
vt 0.65759098529815674 0.39524498581886292
vt 0.74452400207519531 0.37297800183296204
vt -0.73547601699829102 0.25064900517463684
vt -0.78839701414108276 0.6315460205078125
vt -0.78839701414108276 0.31600099802017212
vt -0.82166600227355957 0.55544197559356689
vt 0.31406500935554504 0.37297800183296204
vt 0.22713099420070648 0.39524498581886292
vt 0.22713099420070648 0.37297800183296204
vt 0.31406500935554504 0.39524498581886292
vt 0.78839701414108276 0.6315460205078125
vt 0.82166600227355957 0.39210399985313416
vt 0.82166600227355957 0.55544197559356689
vt 0.78839701414108276 0.31600099802017212
vt 0.73547601699829102 0.69689697027206421
vt 0.73547601699829102 0.25064900517463684
vt 0.66650599241256714 0.74704301357269287
vt 0.66650599241256714 0.20050300657749176
vt 0.58618998527526855 0.77856600284576416
vt 0.58618998527526855 0.16898000240325928
vt 0.5 0.7893180251121521
vt 0.5 0.15822799503803253
vt 0.41381001472473145 0.77856600284576416
vt 0.41381001472473145 0.16898000240325928
vt 0.33349400758743286 0.74704301357269287
vt 0.33349400758743286 0.20050300657749176
vt 0.26452401280403137 0.69689697027206421
vt 0.26452401280403137 0.25064900517463684
vt 0.21160300076007843 0.6315460205078125
vt 0.21160300076007843 0.31600099802017212
vt 0.17833399772644043 0.55544197559356689
vt 0.17833399772644043 0.39210399985313416
vt 0.16698700189590454 0.47377300262451172
vt -0.60445201396942139 0.39524498581886292
vt -0.51751899719238281 0.37297800183296204
vt -0.51751899719238281 0.39524498581886292
vt -0.60445201396942139 0.37297800183296204
vt -0.69674801826477051 0.39524498581886292
vt -0.60981500148773193 0.37297800183296204
vt -0.60981500148773193 0.39524498581886292
vt -0.69674801826477051 0.37297800183296204
vt -0.74452400207519531 0.39524498581886292
vt -0.65759098529815674 0.37297800183296204
vt -0.65759098529815674 0.39524498581886292
vt -0.74452400207519531 0.37297800183296204
vt -0.65759098529815674 0.39524498581886292
vt -0.74452400207519531 0.37297800183296204
vt -0.65759098529815674 0.37297800183296204
vt -0.74452400207519531 0.39524498581886292
vt -0.60981500148773193 0.39524498581886292
vt -0.69674801826477051 0.37297800183296204
vt -0.60981500148773193 0.37297800183296204
vt -0.69674801826477051 0.39524498581886292
vt -0.51751899719238281 0.39524498581886292
vt -0.60445201396942139 0.37297800183296204
vt -0.51751899719238281 0.37297800183296204
vt -0.60445201396942139 0.39524498581886292
vt -0.38699200749397278 0.39524498581886292
vt -0.47392600774765015 0.37297800183296204
vt -0.38699200749397278 0.37297800183296204
vt -0.47392600774765015 0.39524498581886292
vt -0.22713099420070648 0.39524498581886292
vt -0.31406500935554504 0.37297800183296204
vt -0.22713099420070648 0.37297800183296204
vt -0.31406500935554504 0.39524498581886292
vt 0.65759098529815674 0.39524498581886292
vt 0.74452400207519531 0.37297800183296204
vt 0.74452400207519531 0.39524498581886292
vt 0.65759098529815674 0.37297800183296204
vt 0.69674801826477051 0.37297800183296204
vt 0.60981500148773193 0.39524498581886292
vt 0.60981500148773193 0.37297800183296204
vt 0.69674801826477051 0.39524498581886292
vt 0.60445201396942139 0.37297800183296204
vt 0.51751899719238281 0.39524498581886292
vt 0.51751899719238281 0.37297800183296204
vt 0.60445201396942139 0.39524498581886292
vt 0.47392600774765015 0.37297800183296204
vt 0.38699200749397278 0.39524498581886292
vt 0.38699200749397278 0.37297800183296204
vt 0.47392600774765015 0.39524498581886292
vt 0.83301299810409546 0.47377300262451172
vt -0.82166600227355957 0.39210399985313416
vt -0.83301299810409546 0.47377300262451172
vn 0.79336017370223999 0 -0.60875248908996582
vn 0.79336017370223999 0 -0.60875248908996582
vn 0.79336017370223999 0 -0.60875248908996582
vn 0.79336017370223999 0 -0.60875248908996582
vn 0.60875248908996582 0 -0.79336017370223999
vn 0.60875248908996582 0 -0.79336017370223999
vn 0.60875248908996582 0 -0.79336017370223999
vn 0.60875248908996582 0 -0.79336017370223999
vn 0 -1 0
vn 0 -1 0
vn 0 -1 0
vn 0 -1 0
vn 0 -1 0
vn 0 -1 0
vn 0 -1 0
vn 0 -1 0
vn 0 -1 0
vn 0 -1 0
vn 0 -1 0
vn 0 -1 0
vn 0 -1 0
vn 0 -1 0
vn 0 -1 0
vn 0 -1 0
vn 0 -1 0
vn 0 -1 0
vn 0 -1 0
vn -0.99144560098648071 4.3401882976468187E-06 0.13052061200141907
vn -0.99144542217254639 2.8934589408891043E-06 0.13052177429199219
vn -0.99144643545150757 0 0.13051421940326691
vn -0.99144494533538818 4.3401882976468187E-06 0.13052552938461304
vn -0.99144512414932251 0 0.13052403926849365
vn -0.92387735843658447 0 0.38268864154815674
vn -0.92387735843658447 0 0.38268864154815674
vn -0.92387735843658447 0 0.38268864154815674
vn -0.92387735843658447 0 0.38268864154815674
vn -0.79336017370223999 0 0.60875248908996582
vn -0.79336017370223999 0 0.60875248908996582
vn -0.79336017370223999 0 0.60875248908996582
vn -0.79336017370223999 0 0.60875248908996582
vn -0.60875248908996582 0 0.79336017370223999
vn -0.60875248908996582 0 0.79336017370223999
vn -0.60875248908996582 0 0.79336017370223999
vn -0.60875248908996582 0 0.79336017370223999
vn -0.38266432285308838 0 0.92388743162155151
vn -0.38266432285308838 0 0.92388743162155151
vn -0.38266432285308838 0 0.92388743162155151
vn -0.38266432285308838 0 0.92388743162155151
vn -0.1305527538061142 0 0.99144136905670166
vn -0.1305527538061142 0 0.99144136905670166
vn -0.1305527538061142 0 0.99144136905670166
vn -0.1305527538061142 0 0.99144136905670166
vn 0.1305527538061142 0 0.99144136905670166
vn 0.1305527538061142 0 0.99144136905670166
vn 0.1305527538061142 0 0.99144136905670166
vn 0.1305527538061142 0 0.99144136905670166
vn 0.38266432285308838 0 0.92388743162155151
vn 0.38266432285308838 0 0.92388743162155151
vn 0.38266432285308838 0 0.92388743162155151
vn 0.38266432285308838 0 0.92388743162155151
vn 0.60875248908996582 0 0.79336017370223999
vn 0.60875248908996582 0 0.79336017370223999
vn 0.60875248908996582 0 0.79336017370223999
vn 0.60875248908996582 0 0.79336017370223999
vn 0 -1 0
vn 0 -1 0
vn 0 -1 0
vn 0 -1 0
vn 0.92387735843658447 0 -0.38268864154815674
vn 0.92387735843658447 0 -0.38268864154815674
vn 0.92387735843658447 0 -0.38268864154815674
vn 0.92387735843658447 0 -0.38268864154815674
vn 0 1 0
vn 0 1 0
vn 0 1 0
vn 0 1 0
vn 0 1 0
vn 0 1 0
vn 0 1 0
vn 0 1 0
vn 0 1 0
vn 0 1 0
vn 0 1 0
vn 0 1 0
vn 0 1 0
vn 0 1 0
vn 0 1 0
vn 0 1 0
vn 0 1 0
vn 0 1 0
vn 0 1 0
vn 0 1 0
vn 0 1 0
vn 0 1 0
vn 0 1 0
vn -0.99144428968429565 0 -0.13053034245967865
vn -0.99144428968429565 0 -0.13053034245967865
vn -0.99144428968429565 0 -0.13053034245967865
vn -0.99144428968429565 0 -0.13053034245967865
vn -0.92387735843658447 0 -0.38268864154815674
vn -0.92387735843658447 0 -0.38268864154815674
vn -0.92387735843658447 0 -0.38268864154815674
vn -0.92387735843658447 0 -0.38268864154815674
vn -0.79336017370223999 0 -0.60875248908996582
vn -0.79336017370223999 0 -0.60875248908996582
vn -0.79336017370223999 0 -0.60875248908996582
vn -0.79336017370223999 0 -0.60875248908996582
vn -0.60875248908996582 0 -0.79336017370223999
vn -0.60875248908996582 0 -0.79336017370223999
vn -0.60875248908996582 0 -0.79336017370223999
vn -0.60875248908996582 0 -0.79336017370223999
vn -0.38270589709281921 0 -0.92387020587921143
vn -0.38270589709281921 0 -0.92387020587921143
vn -0.38270589709281921 0 -0.92387020587921143
vn -0.38270589709281921 0 -0.92387020587921143
vn -0.13050490617752075 0 -0.99144768714904785
vn -0.13050490617752075 0 -0.99144768714904785
vn -0.13050490617752075 0 -0.99144768714904785
vn -0.13050490617752075 0 -0.99144768714904785
vn 0.13050490617752075 0 -0.99144768714904785
vn 0.13050490617752075 0 -0.99144768714904785
vn 0.13050490617752075 0 -0.99144768714904785
vn 0.13050490617752075 0 -0.99144768714904785
vn 0.38270589709281921 0 -0.92387020587921143
vn 0.38270589709281921 0 -0.92387020587921143
vn 0.38270589709281921 0 -0.92387020587921143
vn 0.38270589709281921 0 -0.92387020587921143
vn 0.79336017370223999 0 0.60875248908996582
vn 0.79336017370223999 0 0.60875248908996582
vn 0.79336017370223999 0 0.60875248908996582
vn 0.79336017370223999 0 0.60875248908996582
vn 0.92387735843658447 0 0.38268864154815674
vn 0.92387735843658447 0 0.38268864154815674
vn 0.92387735843658447 0 0.38268864154815674
vn 0.92387735843658447 0 0.38268864154815674
vn 0.99144768714904785 0 0.13050490617752075
vn 0.99144768714904785 0 0.13050490617752075
vn 0.99144768714904785 0 0.13050490617752075
vn 0.99144768714904785 0 0.13050490617752075
vn 0.991446852684021 0 -0.13051117956638336
vn 0.991446852684021 0 -0.13051117956638336
vn 0.991446852684021 0 -0.13051117956638336
vn 0.991446852684021 0 -0.13051117956638336
vn 0 1 0
vn 0 -1 0
vn 0 -1 0
f 1/1/1 2/2/2 3/3/3
f 2/2/2 1/1/1 4/4/4
f 5/5/5 6/6/6 7/7/7
f 6/6/6 5/5/5 8/8/8
f 9/9/9 10/10/10 11/11/11
f 12/12/12 10/10/10 9/9/9
f 12/12/12 13/13/13 10/10/10
f 14/14/14 13/13/13 12/12/12
f 14/14/14 15/15/15 13/13/13
f 16/16/16 15/15/15 14/14/14
f 16/16/16 17/17/17 15/15/15
f 18/18/18 17/17/17 16/16/16
f 18/18/18 19/19/19 17/17/17
f 20/20/20 19/19/19 18/18/18
f 20/20/20 21/21/21 19/19/19
f 22/22/22 21/21/21 20/20/20
f 22/22/22 23/23/23 21/21/21
f 24/24/24 23/23/23 22/22/22
f 24/24/24 25/25/25 23/23/23
f 26/26/26 25/25/25 24/24/24
f 25/25/25 26/26/26 27/27/27
f 28/28/28 29/29/29 30/30/30
f 31/31/31 29/29/29 28/28/28
f 29/29/29 31/31/31 32/32/32
f 33/33/33 34/34/34 35/35/35
f 34/34/34 33/33/33 36/36/36
f 37/37/37 38/38/38 39/39/39
f 38/38/38 37/37/37 40/40/40
f 41/41/41 42/42/42 43/43/43
f 42/42/42 41/41/41 44/44/44
f 45/45/45 46/46/46 47/47/47
f 46/46/46 45/45/45 48/48/48
f 49/49/49 50/50/50 51/51/51
f 50/50/50 49/49/49 52/52/52
f 53/53/53 54/54/54 55/55/55
f 54/54/54 53/53/53 56/56/56
f 57/57/57 58/58/58 59/59/59
f 58/58/58 57/57/57 60/60/60
f 61/61/61 62/62/62 63/63/63
f 62/62/62 61/61/61 64/64/64
f 9/9/9 11/11/11 65/65/65
f 65/65/65 11/11/11 66/66/66
f 65/65/65 66/66/66 67/67/67
f 67/67/67 66/66/66 68/68/68
f 69/69/69 70/70/70 71/71/71
f 70/70/70 69/69/69 72/72/72
f 73/73/73 74/74/74 75/75/75
f 73/73/73 76/76/76 74/74/74
f 77/77/77 76/76/76 73/73/73
f 77/77/77 78/78/78 76/76/76
f 79/79/79 78/78/78 77/77/77
f 79/79/79 80/80/80 78/78/78
f 81/81/81 80/80/80 79/79/79
f 81/81/81 82/82/82 80/80/80
f 83/83/83 82/82/82 81/81/81
f 83/83/83 84/84/84 82/82/82
f 85/85/85 84/84/84 83/83/83
f 85/85/85 86/86/86 84/84/84
f 87/87/87 86/86/86 85/85/85
f 87/87/87 88/88/88 86/86/86
f 89/89/89 88/88/88 87/87/87
f 89/89/89 90/90/90 88/88/88
f 91/91/91 90/90/90 89/89/89
f 91/91/91 92/92/92 90/90/90
f 93/93/93 92/92/92 91/91/91
f 93/93/93 94/94/94 92/92/92
f 94/94/94 93/93/93 95/95/95
f 96/96/96 97/97/97 98/98/98
f 97/97/97 96/96/96 99/99/99
f 100/100/100 101/101/101 102/102/102
f 101/101/101 100/100/100 103/103/103
f 104/104/104 105/105/105 106/106/106
f 105/105/105 104/104/104 107/107/107
f 108/108/108 109/109/109 110/110/110
f 109/109/109 108/108/108 111/111/111
f 112/112/112 113/113/113 114/114/114
f 113/113/113 112/112/112 115/115/115
f 116/116/116 117/117/117 118/118/118
f 117/117/117 116/116/116 119/119/119
f 120/120/120 121/121/121 122/122/122
f 121/121/121 120/120/120 123/123/123
f 124/124/124 125/125/125 126/126/126
f 125/125/125 124/124/124 127/127/127
f 128/128/128 129/129/129 130/130/130
f 129/129/129 128/128/128 131/131/131
f 132/132/132 133/133/133 134/134/134
f 133/133/133 132/132/132 135/135/135
f 136/136/136 137/137/137 138/138/138
f 137/137/137 136/136/136 139/139/139
f 140/140/140 141/141/141 142/142/142
f 141/141/141 140/140/140 143/143/143
f 75/75/75 74/74/74 144/144/144
f 145/145/145 68/68/68 146/146/146
f 67/67/67 68/68/68 145/145/145
