# Rhino

mtllib Table_17_03.mtl
usemtl Default
v -334.7077088649994 456.09057987299997 159.28558705399973
v -299.37420365799971 456.09057987299997 194.61909225999989
v -317.04087560100015 456.09057987299997 194.61909225999989
v -334.7077088649994 456.09057987299997 176.95225899599973
v -334.7077088649994 424.83609614399995 159.28558705399973
v -299.37420365799971 424.83609614399995 194.61909225999989
v -317.04087560100015 424.83609614399995 194.61909225999989
v -334.7077088649994 424.83609614399995 176.95225899599973
v -334.7077088649994 424.83609614399995 159.28558705399973
v -299.37420365799971 424.83609614399995 194.61909225999989
v -299.37420365799971 456.09057987299997 194.61909225999989
v -334.7077088649994 456.09057987299997 159.28558705399973
v -334.7077088649994 424.83609614399995 176.95225899599973
v -334.7077088649994 424.83609614399995 159.28558705399973
v -334.7077088649994 456.09057987299997 159.28558705399973
v -334.7077088649994 456.09057987299997 176.95225899599973
v -299.37420365799971 424.83609614399995 194.61909225999989
v -317.04087560100015 424.83609614399995 194.61909225999989
v -317.04087560100015 456.09057987299997 194.61909225999989
v -299.37420365799971 456.09057987299997 194.61909225999989
v -317.04087560100015 424.83609614399995 194.61909225999989
v -334.7077088649994 424.83609614399995 176.95225899599973
v -334.7077088649994 456.09057987299997 176.95225899599973
v -317.04087560100015 456.09057987299997 194.61909225999989
vn 0 1 0
vn 0 1 0
vn 0 1 0
vn 0 1 0
vn 0 -1 0
vn 0 -1 0
vn 0 -1 0
vn 0 -1 0
vn 0.70710676908493042 0 -0.70710676908493042
vn 0.70710676908493042 0 -0.70710676908493042
vn 0.70710676908493042 0 -0.70710676908493042
vn 0.70710676908493042 0 -0.70710676908493042
vn -1 0 0
vn -1 0 0
vn -1 0 0
vn -1 0 0
vn 0 0 1
vn 0 0 1
vn 0 0 1
vn 0 0 1
vn -0.70710676908493042 0 0.70710676908493042
vn -0.70710676908493042 0 0.70710676908493042
vn -0.70710676908493042 0 0.70710676908493042
vn -0.70710676908493042 0 0.70710676908493042
f 1//1 4//4 3//3 2//2
f 5//5 6//6 7//7 8//8
f 9//9 12//12 11//11 10//10
f 13//13 16//16 15//15 14//14
f 17//17 20//20 19//19 18//18
f 21//21 24//24 23//23 22//22
