# Rhino

mtllib Table_08_05.mtl
usemtl Default
v -381.02000700799999 0 213.26893165000001
v -352.47043681300056 0 213.26893165000001
v -381.02000700799999 0 241.81806995099987
v -352.47043681300056 0 241.81806995099987
v -381.02000700799999 390.50392056100003 241.81806995099987
v -352.47043681300056 390.50392056100003 241.81806995099987
v -381.02000700799999 390.50392056100003 213.26893165000001
v -352.47043681300056 390.50392056100003 213.26893165000001
v -381.02000700799999 0 241.81806995099987
v -352.47043681300056 0 241.81806995099987
v -381.02000700799999 390.50392056100003 241.81806995099987
v -352.47043681300056 390.50392056100003 241.81806995099987
v -352.47043681300056 0 241.81806995099987
v -352.47043681300056 0 213.26893165000001
v -352.47043681300056 390.50392056100003 241.81806995099987
v -352.47043681300056 390.50392056100003 213.26893165000001
v -352.47043681300056 0 213.26893165000001
v -381.02000700799999 0 213.26893165000001
v -352.47043681300056 390.50392056100003 213.26893165000001
v -381.02000700799999 390.50392056100003 213.26893165000001
v -381.02000700799999 0 213.26893165000001
v -381.02000700799999 0 241.81806995099987
v -381.02000700799999 390.50392056100003 213.26893165000001
v -381.02000700799999 390.50392056100003 241.81806995099987
vt 0 0
vt 1 0
vt 0 1
vt 1 1
vt 0 0
vt 1 0
vt 0 1
vt 1 1
vt 0 0
vt 1 0
vt 0 1
vt 1 1
vt 0 0
vt 1 0
vt 0 1
vt 1 1
vt 0 0
vt 1 0
vt 0 1
vt 1 1
vt 0 0
vt 1 0
vt 0 1
vt 1 1
vn 0 -1 0
vn 0 -1 0
vn 0 -1 0
vn 0 -1 0
vn 0 1 0
vn 0 1 0
vn 0 1 0
vn 0 1 0
vn 0 0 1
vn 0 0 1
vn 0 0 1
vn 0 0 1
vn 1 0 0
vn 1 0 0
vn 1 0 0
vn 1 0 0
vn 0 0 -1
vn 0 0 -1
vn 0 0 -1
vn 0 0 -1
vn -1 0 0
vn -1 0 0
vn -1 0 0
vn -1 0 0
f 1/1/1 2/2/2 4/4/4 3/3/3
f 5/5/5 6/6/6 8/8/8 7/7/7
f 9/9/9 10/10/10 12/12/12 11/11/11
f 13/13/13 14/14/14 16/16/16 15/15/15
f 17/17/17 18/18/18 20/20/20 19/19/19
f 21/21/21 22/22/22 24/24/24 23/23/23
