# Rhino

mtllib Table_01_01.mtl
usemtl Default
v 322.40400550599952 442.394497301 -0.0013769047745881835
v 291.74158789600006 442.394497301 17.723142745200676
v 291.74158789600006 442.394497301 -0.0013769047745881835
v 347.22584340499998 442.394497301 17.723142745200676
v 347.22584340499998 442.394497301 -0.0013769047745881835
v 322.40400550599952 442.394497301 -0.0013769047745881835
v 347.22584340499998 442.394497301 -17.72589655469892
v 347.22584340499998 442.394497301 -0.0013769047745881835
v 322.40400550599952 442.394497301 -17.72589655469892
v 291.74158789600006 442.394497301 -0.0013769047745881835
v 322.40400550599952 442.394497301 -17.72589655469892
v 322.40400550599952 442.394497301 -0.0013769047745881835
v 291.74158789600006 442.394497301 -17.72589655469892
v 291.74158789600006 442.394497301 17.723142745200676
v 291.74158789600006 442.394497301 -17.72589655469892
v 291.74158789600006 442.394497301 -0.0013769047745881835
v 219.01848460399924 442.394497301 383.74949429499975
v 309.73648157499883 442.394497301 313.32957717200043
v 347.22584340499998 442.394497301 17.723142745200676
v 379.34778007499881 442.394497301 221.55762218200107
v 379.34778007499881 442.394497301 -221.56037599199954
v 347.22584340499998 442.394497301 -0.0013769047745881835
v 347.22584340499998 442.394497301 -17.72589655469892
v 322.40400550599952 442.394497301 -17.72589655469892
v 309.73648157499883 442.394497301 -313.33233098200071
v 219.01848460399924 442.394497301 -383.75224810500004
v 113.37233640799968 442.394497301 428.01798419899933
v 113.37233640799968 442.394497301 -428.01848489099939
v 0.00050069264580088202 442.394497301 443.11687161600094
v 0.00050069264398189262 442.394497301 -443.11687161600094
v -113.37133502300094 442.394497301 428.01798419899933
v -113.37133502300094 442.394497301 -428.01848489099939
v -219.0174832190005 442.394497301 383.74949429499975
v -219.0174832190005 442.394497301 -383.75224810500004
v -309.73548019000009 442.394497301 313.32957717200043
v -309.73548019000009 442.394497301 -313.33233098200071
v -379.3492821539985 442.394497301 221.55762218200107
v -379.3492821539985 442.394497301 -221.56037599199954
v -423.10731590499927 442.394497301 114.68728046800061
v -423.10731590499927 442.394497301 -114.68753081400064
v -438.03396505199999 442.394497301 -0.0013769047745881835
v -423.10731590499927 442.394497301 114.68728046800061
v -438.03396505199999 463.23833213199998 -0.0013769047745881835
v -438.03396505199999 442.394497301 -0.0013769047745881835
v -423.10731590499927 463.23833213199998 114.68728046800061
v -379.3492821539985 442.394497301 221.55762218200107
v -423.10731590499927 463.23833213199998 114.68728046800061
v -423.10731590499927 442.394497301 114.68728046800061
v -379.3492821539985 463.23833213199998 221.55762218200107
v -309.73548019000009 442.394497301 313.32957717200043
v -379.3492821539985 463.23833213199998 221.55762218200107
v -379.3492821539985 442.394497301 221.55762218200107
v -309.73548019000009 463.23833213199998 313.32957717200043
v -309.73548019000009 442.394497301 313.32957717200043
v -219.0174832190005 463.23833213199998 383.74949429499975
v -309.73548019000009 463.23833213199998 313.32957717200043
v -219.0174832190005 442.394497301 383.74949429499975
v -219.0174832190005 442.394497301 383.74949429499975
v -113.37133502300094 463.23833213199998 428.01798419899933
v -219.0174832190005 463.23833213199998 383.74949429499975
v -113.37133502300094 442.394497301 428.01798419899933
v -113.37133502300094 442.394497301 428.01798419899933
v 0.00050069264580088202 463.23833213199998 443.11687161600094
v -113.37133502300094 463.23833213199998 428.01798419899933
v 0.00050069264580088202 442.394497301 443.11687161600094
v 0.00050069264580088202 442.394497301 443.11687161600094
v 113.37233640799968 463.23833213199998 428.01798419899933
v 0.00050069264580088202 463.23833213199998 443.11687161600094
v 113.37233640799968 442.394497301 428.01798419899933
v 113.37233640799968 442.394497301 428.01798419899933
v 219.01848460399924 463.23833213199998 383.74949429499975
v 113.37233640799968 463.23833213199998 428.01798419899933
v 219.01848460399924 442.394497301 383.74949429499975
v 219.01848460399924 442.394497301 383.74949429499975
v 309.73648157499883 463.23833213199998 313.32957717200043
v 219.01848460399924 463.23833213199998 383.74949429499975
v 309.73648157499883 442.394497301 313.32957717200043
v 379.34778007499881 442.394497301 221.55762218200107
v 309.73648157499883 463.23833213199998 313.32957717200043
v 309.73648157499883 442.394497301 313.32957717200043
v 379.34778007499881 463.23833213199998 221.55762218200107
v 423.10831729100028 442.394497301 114.68728046800061
v 379.34778007499881 463.23833213199998 221.55762218200107
v 379.34778007499881 442.394497301 221.55762218200107
v 423.10831729100028 463.23833213199998 114.68728046800061
v 438.03396505199999 442.394497301 -0.0013769047745881835
v 423.10831729100028 463.23833213199998 114.68728046800061
v 423.10831729100028 442.394497301 114.68728046800061
v 438.03396505199999 463.23833213199998 -0.0013769047745881835
v 423.10831729100028 442.394497301 -114.68753081400064
v 438.03396505199999 463.23833213199998 -0.0013769047745881835
v 438.03396505199999 442.394497301 -0.0013769047745881835
v 423.10831729100028 463.23833213199998 -114.68753081400064
v 379.34778007499881 442.394497301 -221.56037599199954
v 423.10831729100028 463.23833213199998 -114.68753081400064
v 423.10831729100028 442.394497301 -114.68753081400064
v 379.34778007499881 463.23833213199998 -221.56037599199954
v 309.73648157499883 442.394497301 -313.33233098200071
v 379.34778007499881 463.23833213199998 -221.56037599199954
v 379.34778007499881 442.394497301 -221.56037599199954
v 309.73648157499883 463.23833213199998 -313.33233098200071
v 309.73648157499883 442.394497301 -313.33233098200071
v 219.01848460399924 463.23833213199998 -383.75224810500004
v 309.73648157499883 463.23833213199998 -313.33233098200071
v 219.01848460399924 442.394497301 -383.75224810500004
v 219.01848460399924 442.394497301 -383.75224810500004
v 113.37233640799968 463.23833213199998 -428.01848489099939
v 219.01848460399924 463.23833213199998 -383.75224810500004
v 113.37233640799968 442.394497301 -428.01848489099939
v 113.37233640799968 442.394497301 -428.01848489099939
v 0.00050069264398189262 463.23833213199998 -443.11687161600094
v 113.37233640799968 463.23833213199998 -428.01848489099939
v 0.00050069264398189262 442.394497301 -443.11687161600094
v 0.00050069264398189262 442.394497301 -443.11687161600094
v -113.37133502300094 463.23833213199998 -428.01848489099939
v 0.00050069264398189262 463.23833213199998 -443.11687161600094
v -113.37133502300094 442.394497301 -428.01848489099939
v -113.37133502300094 442.394497301 -428.01848489099939
v -219.0174832190005 463.23833213199998 -383.75224810500004
v -113.37133502300094 463.23833213199998 -428.01848489099939
v -219.0174832190005 442.394497301 -383.75224810500004
v -219.0174832190005 442.394497301 -383.75224810500004
v -309.73548019000009 463.23833213199998 -313.33233098200071
v -219.0174832190005 463.23833213199998 -383.75224810500004
v -309.73548019000009 442.394497301 -313.33233098200071
v -379.3492821539985 442.394497301 -221.56037599199954
v -309.73548019000009 463.23833213199998 -313.33233098200071
v -309.73548019000009 442.394497301 -313.33233098200071
v -379.3492821539985 463.23833213199998 -221.56037599199954
v -423.10731590499927 442.394497301 -114.68753081400064
v -379.3492821539985 463.23833213199998 -221.56037599199954
v -379.3492821539985 442.394497301 -221.56037599199954
v -423.10731590499927 463.23833213199998 -114.68753081400064
v -423.10731590499927 463.23833213199998 -114.68753081400064
v -423.10731590499927 442.394497301 -114.68753081400064
v -423.10731590499927 463.23833213199998 114.68728046800061
v -423.10731590499927 463.23833213199998 -114.68753081400064
v -438.03396505199999 463.23833213199998 -0.0013769047745881835
v -379.3492821539985 463.23833213199998 221.55762218200107
v -379.3492821539985 463.23833213199998 -221.56037599199954
v -309.73548019000009 463.23833213199998 313.32957717200043
v -309.73548019000009 463.23833213199998 -313.33233098200071
v -219.0174832190005 463.23833213199998 383.74949429499975
v -219.0174832190005 463.23833213199998 -383.75224810500004
v -113.37133502300094 463.23833213199998 428.01798419899933
v -113.37133502300094 463.23833213199998 -428.01848489099939
v 0.00050069264580088202 463.23833213199998 443.11687161600094
v 0.00050069264398189262 463.23833213199998 -443.11687161600094
v 113.37233640799968 463.23833213199998 428.01798419899933
v 113.37233640799968 463.23833213199998 -428.01848489099939
v 219.01848460399924 463.23833213199998 383.74949429499975
v 219.01848460399924 463.23833213199998 -383.75224810500004
v 309.73648157499883 463.23833213199998 313.32957717200043
v 309.73648157499883 463.23833213199998 -313.33233098200071
v 379.34778007499881 463.23833213199998 221.55762218200107
v 379.34778007499881 463.23833213199998 -221.56037599199954
v 423.10831729100028 463.23833213199998 114.68728046800061
v 423.10831729100028 463.23833213199998 -114.68753081400064
v 438.03396505199999 463.23833213199998 -0.0013769047745881835
v 423.10831729100028 442.394497301 -114.68753081400064
v 423.10831729100028 442.394497301 114.68728046800061
v 438.03396505199999 442.394497301 -0.0013769047745881835
vt -0.86801302433013916 0.47377300262451172
vt -0.83301299810409546 0.45482200384140015
vt -0.83301299810409546 0.47377300262451172
vt -0.89634597301483154 0.45482200384140015
vt -0.89634597301483154 0.47377300262451172
vt -0.86801302433013916 0.47377300262451172
vt -0.89634597301483154 0.49272400140762329
vt -0.89634597301483154 0.47377300262451172
vt -0.86801302433013916 0.49272400140762329
vt -0.83301299810409546 0.47377300262451172
vt -0.86801302433013916 0.49272400140762329
vt -0.86801302433013916 0.47377300262451172
vt -0.83301299810409546 0.49272400140762329
vt -0.83301299810409546 0.45482200384140015
vt -0.83301299810409546 0.49272400140762329
vt -0.83301299810409546 0.47377300262451172
vt -0.75 0.063473597168922424
vt -0.85355299711227417 0.13876500725746155
vt -0.89634597301483154 0.45482200384140015
vt -0.93301302194595337 0.23688699305057526
vt -0.93301302194595337 0.71065998077392578
vt -0.89634597301483154 0.47377300262451172
vt -0.89634597301483154 0.49272400140762329
vt -0.86801302433013916 0.49272400140762329
vt -0.85355299711227417 0.80878198146820068
vt -0.75 0.88407301902770996
vt -0.6294100284576416 0.016143400222063065
vt -0.6294100284576416 0.93140298128128052
vt -0.5 0
vt -0.5 0.94754701852798462
vt -0.37059000134468079 0.016143400222063065
vt -0.37059000134468079 0.93140298128128052
vt -0.25 0.063473597168922424
vt -0.25 0.88407301902770996
vt -0.14644700288772583 0.13876500725746155
vt -0.14644700288772583 0.80878198146820068
vt -0.066987298429012299 0.23688699305057526
vt -0.066987298429012299 0.71065998077392578
vt -0.017037099227309227 0.35115200281143188
vt -0.017037099227309227 0.59639501571655273
vt 0 0.47377300262451172
vt -0.36519598960876465 0.70884400606155396
vt -0.49572199583053589 0.74224501848220825
vt -0.49572199583053589 0.70884400606155396
vt -0.36519598960876465 0.74224501848220825
vt -0.20533500611782074 0.70884400606155396
vt -0.33586099743843079 0.74224501848220825
vt -0.33586099743843079 0.70884400606155396
vt -0.20533500611782074 0.74224501848220825
vt -0.027032900601625443 0.70884400606155396
vt -0.15755900740623474 0.74224501848220825
vt -0.15755900740623474 0.70884400606155396
vt -0.027032900601625443 0.74224501848220825
vt 0.027032900601625443 0.70884400606155396
vt 0.15755900740623474 0.74224501848220825
vt 0.027032900601625443 0.74224501848220825
vt 0.15755900740623474 0.70884400606155396
vt 0.20533500611782074 0.70884400606155396
vt 0.33586099743843079 0.74224501848220825
vt 0.20533500611782074 0.74224501848220825
vt 0.33586099743843079 0.70884400606155396
vt 0.36519598960876465 0.70884400606155396
vt 0.49572199583053589 0.74224501848220825
vt 0.36519598960876465 0.74224501848220825
vt 0.49572199583053589 0.70884400606155396
vt 0.49572199583053589 0.70884400606155396
vt 0.62624901533126831 0.74224501848220825
vt 0.49572199583053589 0.74224501848220825
vt 0.62624901533126831 0.70884400606155396
vt 0.58801800012588501 0.70884400606155396
vt 0.71854501962661743 0.74224501848220825
vt 0.58801800012588501 0.74224501848220825
vt 0.71854501962661743 0.70884400606155396
vt 0.63579398393630981 0.70884400606155396
vt 0.76631999015808105 0.74224501848220825
vt 0.63579398393630981 0.74224501848220825
vt 0.76631999015808105 0.70884400606155396
vt 0.76631999015808105 0.70884400606155396
vt 0.63579398393630981 0.74224501848220825
vt 0.63579398393630981 0.70884400606155396
vt 0.76631999015808105 0.74224501848220825
vt 0.71854501962661743 0.70884400606155396
vt 0.58801800012588501 0.74224501848220825
vt 0.58801800012588501 0.70884400606155396
vt 0.71854501962661743 0.74224501848220825
vt 0.62624901533126831 0.70884400606155396
vt 0.49572199583053589 0.74224501848220825
vt 0.49572199583053589 0.70884400606155396
vt 0.62624901533126831 0.74224501848220825
vt 0.49572199583053589 0.70884400606155396
vt 0.36519598960876465 0.74224501848220825
vt 0.36519598960876465 0.70884400606155396
vt 0.49572199583053589 0.74224501848220825
vt 0.33586099743843079 0.70884400606155396
vt 0.20533500611782074 0.74224501848220825
vt 0.20533500611782074 0.70884400606155396
vt 0.33586099743843079 0.74224501848220825
vt 0.15755900740623474 0.70884400606155396
vt 0.027032900601625443 0.74224501848220825
vt 0.027032900601625443 0.70884400606155396
vt 0.15755900740623474 0.74224501848220825
vt -0.15755900740623474 0.70884400606155396
vt -0.027032900601625443 0.74224501848220825
vt -0.15755900740623474 0.74224501848220825
vt -0.027032900601625443 0.70884400606155396
vt -0.33586099743843079 0.70884400606155396
vt -0.20533500611782074 0.74224501848220825
vt -0.33586099743843079 0.74224501848220825
vt -0.20533500611782074 0.70884400606155396
vt -0.49572199583053589 0.70884400606155396
vt -0.36519598960876465 0.74224501848220825
vt -0.49572199583053589 0.74224501848220825
vt -0.36519598960876465 0.70884400606155396
vt -0.62624901533126831 0.70884400606155396
vt -0.49572199583053589 0.74224501848220825
vt -0.62624901533126831 0.74224501848220825
vt -0.49572199583053589 0.70884400606155396
vt -0.71854501962661743 0.70884400606155396
vt -0.58801800012588501 0.74224501848220825
vt -0.71854501962661743 0.74224501848220825
vt -0.58801800012588501 0.70884400606155396
vt -0.76631999015808105 0.70884400606155396
vt -0.63579398393630981 0.74224501848220825
vt -0.76631999015808105 0.74224501848220825
vt -0.63579398393630981 0.70884400606155396
vt -0.63579398393630981 0.70884400606155396
vt -0.76631999015808105 0.74224501848220825
vt -0.76631999015808105 0.70884400606155396
vt -0.63579398393630981 0.74224501848220825
vt -0.58801800012588501 0.70884400606155396
vt -0.71854501962661743 0.74224501848220825
vt -0.71854501962661743 0.70884400606155396
vt -0.58801800012588501 0.74224501848220825
vt -0.62624901533126831 0.74224501848220825
vt -0.62624901533126831 0.70884400606155396
vt 0.017037099227309227 0.35115200281143188
vt 0.017037099227309227 0.59639501571655273
vt 0 0.47377300262451172
vt 0.066987298429012299 0.23688699305057526
vt 0.066987298429012299 0.71065998077392578
vt 0.14644700288772583 0.13876500725746155
vt 0.14644700288772583 0.80878198146820068
vt 0.25 0.063473597168922424
vt 0.25 0.88407301902770996
vt 0.37059000134468079 0.016143400222063065
vt 0.37059000134468079 0.93140298128128052
vt 0.5 0
vt 0.5 0.94754701852798462
vt 0.6294100284576416 0.016143400222063065
vt 0.6294100284576416 0.93140298128128052
vt 0.75 0.063473597168922424
vt 0.75 0.88407301902770996
vt 0.85355299711227417 0.13876500725746155
vt 0.85355299711227417 0.80878198146820068
vt 0.93301302194595337 0.23688699305057526
vt 0.93301302194595337 0.71065998077392578
vt 0.98296302556991577 0.35115200281143188
vt 0.98296302556991577 0.59639501571655273
vt 1 0.47377300262451172
vt -0.98296302556991577 0.59639501571655273
vt -0.98296302556991577 0.35115200281143188
vt -1 0.47377300262451172
vn 0 -1 0
vn 0 -1 0
vn 0 -1 0
vn 0 -1 0
vn 0 -1 0
vn 0 -1 0
vn 0 -1 0
vn 0 -1 0
vn 0 -1 0
vn 0 -1 0
vn 0 -1 0
vn 0 -1 0
vn 0 -1 0
vn 0 -1 0
vn 0 -1 0
vn 0 0 1
vn 0 -1 0
vn 0 -1 0
vn 0 -1 0
vn 0 -1 0
vn 0 -1 0
vn 0 -1 0
vn 0 -1 0
vn 0 -1 0
vn 0 -1 0
vn 0 -1 0
vn 0 -1 0
vn 0 -1 0
vn 0 -1 0
vn 0 -1 0
vn 0 -1 0
vn 0 -1 0
vn 0 -1 0
vn 0 -1 0
vn 0 -1 0
vn 0 -1 0
vn 0 -1 0
vn 0 -1 0
vn 0 -1 0
vn 0 -1 0
vn 0 -1 0
vn -0.99163669347763062 0 0.12906081974506378
vn -0.99906033277511597 0 0.043341405689716339
vn -0.99906021356582642 0 -0.043344199657440186
vn -0.99163669347763062 0 0.12906081974506378
vn -0.9254305362701416 0 0.37891730666160583
vn -0.9254305362701416 0 0.37891730666160583
vn -0.9254305362701416 0 0.37891730666160583
vn -0.9254305362701416 0 0.37891730666160583
vn -0.79671758413314819 0 0.60435175895690918
vn -0.79671758413314819 0 0.60435175895690918
vn -0.79671758413314819 0 0.60435175895690918
vn -0.79671758413314819 0 0.60435175895690918
vn -0.61318874359130859 0 0.78993642330169678
vn -0.61318874359130859 0 0.78993642330169678
vn -0.61318874359130859 0 0.78993642330169678
vn -0.61318874359130859 0 0.78993642330169678
vn -0.3864687979221344 0 0.9223024845123291
vn -0.3864687979221344 0 0.9223024845123291
vn -0.3864687979221344 0 0.9223024845123291
vn -0.3864687979221344 0 0.9223024845123291
vn -0.13201458752155304 0 0.99124777317047119
vn -0.13201458752155304 0 0.99124777317047119
vn -0.13201458752155304 0 0.99124777317047119
vn -0.13201458752155304 0 0.99124777317047119
vn 0.13201458752155304 0 0.99124777317047119
vn 0.13201458752155304 0 0.99124777317047119
vn 0.13201458752155304 0 0.99124777317047119
vn 0.13201458752155304 0 0.99124777317047119
vn 0.3864687979221344 0 0.9223024845123291
vn 0.3864687979221344 0 0.9223024845123291
vn 0.3864687979221344 0 0.9223024845123291
vn 0.3864687979221344 0 0.9223024845123291
vn 0.61318874359130859 0 0.78993642330169678
vn 0.61318874359130859 0 0.78993642330169678
vn 0.61318874359130859 0 0.78993642330169678
vn 0.61318874359130859 0 0.78993642330169678
vn 0.79672807455062866 0 0.60433799028396606
vn 0.79672807455062866 0 0.60433799028396606
vn 0.79672807455062866 0 0.60433799028396606
vn 0.79672807455062866 0 0.60433799028396606
vn 0.92542296648025513 0 0.37893584370613098
vn 0.92542296648025513 0 0.37893584370613098
vn 0.92542296648025513 0 0.37893584370613098
vn 0.92542296648025513 0 0.37893584370613098
vn 0.99163776636123657 0 0.1290522962808609
vn 0.99163776636123657 0 0.1290522962808609
vn 0.99163776636123657 0 0.1290522962808609
vn 0.99163776636123657 0 0.1290522962808609
vn 0.99163740873336792 0 -0.12905509769916534
vn 0.99163740873336792 0 -0.12905509769916534
vn 0.99163740873336792 0 -0.12905509769916534
vn 0.99163740873336792 0 -0.12905509769916534
vn 0.92542606592178345 0 -0.37892821431159973
vn 0.92542606592178345 0 -0.37892821431159973
vn 0.92542606592178345 0 -0.37892821431159973
vn 0.92542606592178345 0 -0.37892821431159973
vn 0.79672807455062866 0 -0.60433799028396606
vn 0.79672807455062866 0 -0.60433799028396606
vn 0.79672807455062866 0 -0.60433799028396606
vn 0.79672807455062866 0 -0.60433799028396606
vn 0.61318874359130859 0 -0.78993642330169678
vn 0.61318874359130859 0 -0.78993642330169678
vn 0.61318874359130859 0 -0.78993642330169678
vn 0.61318874359130859 0 -0.78993642330169678
vn 0.38645201921463013 0 -0.9223095178604126
vn 0.38645201921463013 0 -0.9223095178604126
vn 0.38645201921463013 0 -0.9223095178604126
vn 0.38645201921463013 0 -0.9223095178604126
vn 0.13201029598712921 0 -0.99124836921691895
vn 0.13201029598712921 0 -0.99124836921691895
vn 0.13201029598712921 0 -0.99124836921691895
vn 0.13201029598712921 0 -0.99124836921691895
vn -0.13201029598712921 0 -0.99124836921691895
vn -0.13201029598712921 0 -0.99124836921691895
vn -0.13201029598712921 0 -0.99124836921691895
vn -0.13201029598712921 0 -0.99124836921691895
vn -0.38645201921463013 0 -0.9223095178604126
vn -0.38645201921463013 0 -0.9223095178604126
vn -0.38645201921463013 0 -0.9223095178604126
vn -0.38645201921463013 0 -0.9223095178604126
vn -0.61318874359130859 0 -0.78993642330169678
vn -0.61318874359130859 0 -0.78993642330169678
vn -0.61318874359130859 0 -0.78993642330169678
vn -0.61318874359130859 0 -0.78993642330169678
vn -0.79671758413314819 0 -0.60435175895690918
vn -0.79671758413314819 0 -0.60435175895690918
vn -0.79671758413314819 0 -0.60435175895690918
vn -0.79671758413314819 0 -0.60435175895690918
vn -0.92543363571166992 0 -0.37890970706939697
vn -0.92543363571166992 0 -0.37890970706939697
vn -0.92543363571166992 0 -0.37890970706939697
vn -0.92543363571166992 0 -0.37890970706939697
vn -0.99163633584976196 0 -0.12906359136104584
vn -0.99163633584976196 0 -0.12906359136104584
vn 0 1 0
vn 0 1 0
vn 0 1 0
vn 0 1 0
vn 0 1 0
vn 0 1 0
vn 0 1 0
vn 0 1 0
vn 0 1 0
vn 0 1 0
vn 0 1 0
vn 0 1 0
vn 0 1 0
vn 0 1 0
vn 0 1 0
vn 0 1 0
vn 0 1 0
vn 0 1 0
vn 0 1 0
vn 0 1 0
vn 0 1 0
vn 0 1 0
vn 0 1 0
vn 0 1 0
vn 0 -1 0
vn 0 -1 0
vn 0 -1 0
f 1/1/1 2/2/2 3/3/3
f 2/2/2 1/1/1 4/4/4
f 4/4/4 1/1/1 5/5/5
f 6/6/6 7/7/7 8/8/8
f 7/7/7 6/6/6 9/9/9
f 10/10/10 11/11/11 12/12/12
f 11/11/11 10/10/10 13/13/13
f 14/14/14 15/15/15 16/16/16
f 14/14/14 17/17/17 15/15/15
f 17/17/17 14/14/14 18/18/18
f 18/18/18 14/14/14 19/19/19
f 18/18/18 19/19/19 20/20/20
f 20/20/20 19/19/19 21/21/21
f 22/22/22 21/21/21 19/19/19
f 23/23/23 21/21/21 22/22/22
f 24/24/24 21/21/21 23/23/23
f 24/24/24 25/25/25 21/21/21
f 15/15/15 25/25/25 24/24/24
f 17/17/17 25/25/25 15/15/15
f 17/17/17 26/26/26 25/25/25
f 27/27/27 26/26/26 17/17/17
f 27/27/27 28/28/28 26/26/26
f 29/29/29 28/28/28 27/27/27
f 29/29/29 30/30/30 28/28/28
f 31/31/31 30/30/30 29/29/29
f 31/31/31 32/32/32 30/30/30
f 33/33/33 32/32/32 31/31/31
f 33/33/33 34/34/34 32/32/32
f 35/35/35 34/34/34 33/33/33
f 35/35/35 36/36/36 34/34/34
f 37/37/37 36/36/36 35/35/35
f 37/37/37 38/38/38 36/36/36
f 39/39/39 38/38/38 37/37/37
f 39/39/39 40/40/40 38/38/38
f 40/40/40 39/39/39 41/41/41
f 42/42/42 43/43/43 44/44/44
f 43/43/43 42/42/42 45/45/45
f 46/46/46 47/47/47 48/48/48
f 47/47/47 46/46/46 49/49/49
f 50/50/50 51/51/51 52/52/52
f 51/51/51 50/50/50 53/53/53
f 54/54/54 55/55/55 56/56/56
f 55/55/55 54/54/54 57/57/57
f 58/58/58 59/59/59 60/60/60
f 59/59/59 58/58/58 61/61/61
f 62/62/62 63/63/63 64/64/64
f 63/63/63 62/62/62 65/65/65
f 66/66/66 67/67/67 68/68/68
f 67/67/67 66/66/66 69/69/69
f 70/70/70 71/71/71 72/72/72
f 71/71/71 70/70/70 73/73/73
f 74/74/74 75/75/75 76/76/76
f 75/75/75 74/74/74 77/77/77
f 78/78/78 79/79/79 80/80/80
f 79/79/79 78/78/78 81/81/81
f 82/82/82 83/83/83 84/84/84
f 83/83/83 82/82/82 85/85/85
f 86/86/86 87/87/87 88/88/88
f 87/87/87 86/86/86 89/89/89
f 90/90/90 91/91/91 92/92/92
f 91/91/91 90/90/90 93/93/93
f 94/94/94 95/95/95 96/96/96
f 95/95/95 94/94/94 97/97/97
f 98/98/98 99/99/99 100/100/100
f 99/99/99 98/98/98 101/101/101
f 102/102/102 103/103/103 104/104/104
f 103/103/103 102/102/102 105/105/105
f 106/106/106 107/107/107 108/108/108
f 107/107/107 106/106/106 109/109/109
f 110/110/110 111/111/111 112/112/112
f 111/111/111 110/110/110 113/113/113
f 114/114/114 115/115/115 116/116/116
f 115/115/115 114/114/114 117/117/117
f 118/118/118 119/119/119 120/120/120
f 119/119/119 118/118/118 121/121/121
f 122/122/122 123/123/123 124/124/124
f 123/123/123 122/122/122 125/125/125
f 126/126/126 127/127/127 128/128/128
f 127/127/127 126/126/126 129/129/129
f 130/130/130 131/131/131 132/132/132
f 131/131/131 130/130/130 133/133/133
f 44/44/44 134/134/134 135/135/135
f 134/134/134 44/44/44 43/43/43
f 136/136/136 137/137/137 138/138/138
f 137/137/137 136/136/136 139/139/139
f 137/137/137 139/139/139 140/140/140
f 140/140/140 139/139/139 141/141/141
f 140/140/140 141/141/141 142/142/142
f 142/142/142 141/141/141 143/143/143
f 142/142/142 143/143/143 144/144/144
f 144/144/144 143/143/143 145/145/145
f 144/144/144 145/145/145 146/146/146
f 146/146/146 145/145/145 147/147/147
f 146/146/146 147/147/147 148/148/148
f 148/148/148 147/147/147 149/149/149
f 148/148/148 149/149/149 150/150/150
f 150/150/150 149/149/149 151/151/151
f 150/150/150 151/151/151 152/152/152
f 152/152/152 151/151/151 153/153/153
f 152/152/152 153/153/153 154/154/154
f 154/154/154 153/153/153 155/155/155
f 154/154/154 155/155/155 156/156/156
f 156/156/156 155/155/155 157/157/157
f 156/156/156 157/157/157 158/158/158
f 158/158/158 157/157/157 159/159/159
f 20/20/20 21/21/21 160/160/160
f 20/20/20 160/160/160 161/161/161
f 161/161/161 160/160/160 162/162/162
