# Rhino

mtllib Table_16_04.mtl
usemtl Default
v -407.55478121299984 204.628992466 129.89349248899998
v -411.7595836620003 204.628992466 -97.954706685500241
v -411.7595836620003 204.628992466 97.955950562999533
v -407.55478121299984 204.628992466 -129.89374126499933
v -395.22721194399992 204.628992466 159.65487127300003
v -395.22721194399992 204.628992466 -159.65474688599988
v -375.61686612299991 204.628992466 185.21169638399988
v -375.61686612299991 204.628992466 -185.21144760799962
v -350.06004101300005 204.628992466 204.8220422050008
v -350.06004101300005 204.628992466 -204.82241536899983
v -320.29878661600014 204.628992466 217.1497358609995
v -320.29878661600014 204.628992466 -217.14923831000124
v 320.29796565700008 204.628992466 217.1497358609995
v 320.29796565700008 204.628992466 -217.14923831000124
v 350.0602151549997 204.628992466 204.8220422050008
v 350.0602151549997 204.628992466 -204.82241536899983
v 375.61691587799987 204.628992466 185.21169638399988
v 375.61691587799987 204.628992466 -185.21144760799962
v 395.22663976099966 204.628992466 159.65487127300003
v 395.22663976099966 204.628992466 -159.65474688599988
v 407.55470657999967 204.628992466 129.89349248899998
v 407.55470657999967 204.628992466 -129.89374126499933
v 411.75901147800005 204.628992466 -97.954706685500241
vt 1.2487200498580933 6.7742600440979004
vt 1.1192799806594849 21.428400039672852
vt 1.1192799806594849 8.8283500671386719
vt 1.2487200498580933 23.482400894165039
vt 1.6282000541687012 4.8601498603820801
vt 1.6282000541687012 25.396600723266602
vt 2.2318699359893799 3.2164599895477295
vt 2.2318699359893799 27.040199279785156
vt 3.018589973449707 1.9552199840545654
vt 3.018589973449707 28.30150032043457
vt 3.9347500801086426 1.162369966506958
vt 3.9347500801086426 29.09429931640625
vt 23.654399871826172 1.162369966506958
vt 23.654399871826172 29.09429931640625
vt 24.570600509643555 1.9552199840545654
vt 24.570600509643555 28.30150032043457
vt 25.3572998046875 3.2164599895477295
vt 25.3572998046875 27.040199279785156
vt 25.961000442504883 4.8601498603820801
vt 25.961000442504883 25.396600723266602
vt 26.340400695800781 6.7742600440979004
vt 26.340400695800781 23.482400894165039
vt 26.469900131225586 21.428400039672852
vn 0 1 0
vn 0 1 0
vn 0 1 0
vn 0 1 0
vn 0 1 0
vn 0 1 0
vn 0 1 0
vn 0 1 0
vn 0 1 0
vn 0 1 0
vn 0 1 0
vn 0 1 0
vn 0 1 0
vn 0 1 0
vn 0 1 0
vn 0 1 0
vn 0 1 0
vn 0 1 0
vn 0 1 0
vn 0 1 0
vn 0 1 0
vn 0 1 0
vn 0 1 0
f 1/1/1 2/2/2 3/3/3
f 2/2/2 1/1/1 4/4/4
f 4/4/4 1/1/1 5/5/5
f 4/4/4 5/5/5 6/6/6
f 6/6/6 5/5/5 7/7/7
f 6/6/6 7/7/7 8/8/8
f 8/8/8 7/7/7 9/9/9
f 8/8/8 9/9/9 10/10/10
f 10/10/10 9/9/9 11/11/11
f 10/10/10 11/11/11 12/12/12
f 12/12/12 11/11/11 13/13/13
f 12/12/12 13/13/13 14/14/14
f 14/14/14 13/13/13 15/15/15
f 14/14/14 15/15/15 16/16/16
f 16/16/16 15/15/15 17/17/17
f 16/16/16 17/17/17 18/18/18
f 18/18/18 17/17/17 19/19/19
f 18/18/18 19/19/19 20/20/20
f 20/20/20 19/19/19 21/21/21
f 20/20/20 21/21/21 22/22/22
f 22/22/22 21/21/21 23/23/23
