# Rhino

mtllib Table_18_02.mtl
usemtl Default
v 370.26883154900042 67.939235146899989 -214.00859071100012
v 370.26883154900042 95.114929205199985 214.00859071100001
v 370.26883154900042 67.939235146899989 214.00859071100001
v 370.26883154900042 95.114929205199985 -214.00859071100012
v 370.26883154900042 67.939235146899989 -214.00859071100012
v 360.07794627600015 95.114929205199985 -214.00859071100012
v 370.26883154900042 95.114929205199985 -214.00859071100012
v 360.07794627600015 67.939235146899989 -214.00859071100012
v 370.26883154900042 67.939235146899989 -214.00859071100012
v 360.07794627600015 67.939235146899989 214.00859071100001
v 360.07794627600015 67.939235146899989 -214.00859071100012
v 370.26883154900042 67.939235146899989 214.00859071100001
v 370.26883154900042 95.114929205199985 214.00859071100001
v 370.26883154900042 67.939235146899989 214.00859071100001
v 360.07794627600015 95.114929205199985 214.00859071100001
v 370.26883154900042 95.114929205199985 214.00859071100001
v 360.07794627600015 95.114929205199985 -214.00859071100012
v 360.07794627600015 95.114929205199985 214.00859071100001
v 370.26883154900042 95.114929205199985 -214.00859071100012
v 360.07794627600015 95.114929205199985 -214.00859071100012
v 360.07794627600015 67.939235146899989 -214.00859071100012
vt 24.8031005859375 0
vt 0 1.5748000144958496
vt 0 0
vt 24.8031005859375 1.5748000144958496
vt -0.59055101871490479 0
vt 0 1.5748000144958496
vt -0.59055101871490479 1.5748000144958496
vt 0 0
vt -0.59055101871490479 24.8031005859375
vt 0 0
vt 0 24.8031005859375
vt -0.59055101871490479 0
vt 0.59055101871490479 1.5748000144958496
vt 0.59055101871490479 0
vt 0 1.5748000144958496
vt 0.59055101871490479 0
vt 0 24.8031005859375
vt 0 0
vt 0.59055101871490479 24.8031005859375
vt -24.8031005859375 1.5748000144958496
vt -24.8031005859375 0
vn 1 0 0
vn 1 0 0
vn 1 0 0
vn 1 0 0
vn 0 0 -1
vn 0 0 -1
vn 0 0 -1
vn 0 0 -1
vn 0 -1 0
vn -0.57735025882720947 -0.57735025882720947 0.57735025882720947
vn 0 -1 0
vn 0 -1 0
vn 0 0 1
vn 0 0 1
vn -0.70710676908493042 0 0.70710676908493042
vn 0 1 0
vn 0 1 0
vn 0 1 0
vn 0 1 0
vn -1 0 0
vn -1 0 0
f 1/1/1 2/2/2 3/3/3
f 2/2/2 1/1/1 4/4/4
f 5/5/5 6/6/6 7/7/7
f 6/6/6 5/5/5 8/8/8
f 9/9/9 10/10/10 11/11/11
f 10/10/10 9/9/9 12/12/12
f 13/13/13 10/10/10 14/14/14
f 10/10/10 13/13/13 15/15/15
f 16/16/16 17/17/17 18/18/18
f 17/17/17 16/16/16 19/19/19
f 20/20/20 10/10/10 15/15/15
f 10/10/10 20/20/20 21/21/21
