# Rhino

mtllib Table_01_08.mtl
usemtl Default
v -14.599696849500106 442.394497301 -383.75224810500004
v 2.91953881578047 0 -351.25729541299916
v -14.599696849500106 0 -351.25729541299916
v 20.441277944300964 442.394497301 -383.75224810500004
v 20.441277944300964 0 -351.25729541299916
v 20.441277944300964 442.394497301 -383.75224810500004
v 20.441277944300964 0 -326.14505577899945
v 20.441277944300964 0 -351.25729541299916
v 20.441277944300964 405.33322768300002 -295.12714639200021
v 20.441277944300964 442.394497301 -295.12714639200021
v 11.383747987600145 442.394497301 -352.65422789399963
v 20.441277944300964 442.394497301 -295.12714639200021
v 20.441277944300964 442.394497301 -383.75224810500004
v 10.507535857999756 442.394497301 -350.51877376099947
v -14.599696849500106 442.394497301 -295.12714639200021
v 9.1156103036100831 442.394497301 -348.68123175300025
v -3.2740292087801208 442.394497301 -348.68123175300025
v 9.1156103036100831 442.394497301 -348.68123175300025
v 10.507535857999756 442.394497301 -350.51877376099947
v -1.4590183689197147 442.394497301 -347.27428541799964
v 7.3005994637096592 442.394497301 -347.27428541799964
v 0.65390459499394638 442.394497301 -346.38805943599982
v 5.1876764997905411 442.394497301 -346.38805943599982
v 2.91953881578047 442.394497301 -346.08514038499925
v 0.65390459499394638 442.394497301 -346.38805943599982
v 2.91953881578047 442.394497301 -346.08514038499925
v -1.4590183689197147 442.394497301 -347.27428541799964
v -3.2740292087801208 442.394497301 -348.68123175300025
v -4.6659547632098111 442.394497301 -350.51877376099947
v -5.5421668927992869 442.394497301 -352.65422789399963
v -14.599696849500106 442.394497301 -383.75224810500004
v -5.8400790168489038 442.394497301 -354.94990367300124
v -5.5421668927992869 442.394497301 -352.65422789399963
v 11.681660111700694 442.394497301 -354.94990367300124
v -5.8400790168489038 442.394497301 -354.94990367300124
v 11.383747987600145 442.394497301 -352.65422789399963
v -4.6659547632098111 442.394497301 -350.51877376099947
v 11.681660111700694 442.394497301 -354.94990367300124
v 11.383747987600145 442.394497301 -357.24307598999985
v 10.507535857999756 442.394497301 -359.38103358599983
v 9.1156103036100831 442.394497301 -361.21607213199968
v 7.3005994637096592 442.394497301 -362.62301846599985
v 5.1876764997905411 442.394497301 -363.50924444799966
v 2.91953881578047 442.394497301 -363.81216349799979
v 0.65390459499394638 442.394497301 -363.50924444799966
v -1.4590183689197147 442.394497301 -362.62301846599985
v -3.2740292087801208 442.394497301 -361.21607213199968
v -4.6659547632098111 442.394497301 -359.38103358599983
v -5.5421668927992869 442.394497301 -357.24307598999985
v 11.383747987600145 442.394497301 -357.24307598999985
v -5.5421668927992869 442.394497301 -357.24307598999985
v 10.507535857999756 442.394497301 -359.38103358599983
v -4.6659547632098111 442.394497301 -359.38103358599983
v 9.1156103036100831 442.394497301 -361.21607213199968
v -3.2740292087801208 442.394497301 -361.21607213199968
v 7.3005994637096592 442.394497301 -362.62301846599985
v -1.4590183689197147 442.394497301 -362.62301846599985
v 5.1876764997905411 442.394497301 -363.50924444799966
v 0.65390459499394638 442.394497301 -363.50924444799966
v 2.91953881578047 442.394497301 -363.81216349799979
v -14.599696849500106 442.394497301 -383.75224810500004
v -14.599696849500106 405.33322768300002 -295.12714639200021
v -14.599696849500106 442.394497301 -295.12714639200021
v -14.599696849500106 0 -295.12714639200021
v -14.599696849500106 0 -351.25729541299916
v -14.599696849500106 0 -295.12714639200021
v 2.91953881578047 0 -295.12714639200021
v -14.599696849500106 405.33322768300002 -295.12714639200021
v -14.599696849500106 442.394497301 -295.12714639200021
v 20.441277944300964 442.394497301 -295.12714639200021
v 20.441277944300964 0 -295.12714639200021
v 20.441277944300964 405.33322768300002 -295.12714639200021
v 20.441277944300964 0 -295.12714639200021
v 5.1876764997905411 442.394497301 -346.38805943599982
v 7.3005994637096592 442.394497301 -347.27428541799964
vt 0.16440899670124054 0.24227799475193024
vt 0.16553400456905365 0.28047698736190796
vt 0.16440899670124054 0.28047698736190796
vt 0.16665899753570557 0.24227799475193024
vt 0.16665899753570557 0.28047698736190796
vt -1.9654500484466553 0.29608398675918579
vt -1.9617899656295776 0.33425500988960266
vt -1.9633899927139282 0.33425500988960266
vt -1.9598300457000732 0.2992820143699646
vt -1.9598300457000732 0.29608398675918579
vt -0.16607700288295746 -1.395359992980957
vt -0.16665899753570557 -1.3927700519561768
vt -0.16665899753570557 -1.3967700004577637
vt -0.16602100431919098 -1.3952699899673462
vt -0.16440899670124054 -1.3927700519561768
vt -0.16593199968338013 -1.3951799869537354
vt -0.16513599455356598 -1.3951799869537354
vt -0.16593199968338013 -1.3951799869537354
vt -0.16602100431919098 -1.3952699899673462
vt -0.16525299847126007 -1.3951200246810913
vt -0.16581499576568604 -1.3951200246810913
vt -0.16538800299167633 -1.3950799703598022
vt -0.16567899286746979 -1.3950799703598022
vt -0.16553400456905365 -1.39506995677948
vt -0.16538800299167633 -1.3950799703598022
vt -0.16553400456905365 -1.39506995677948
vt -0.16525299847126007 -1.3951200246810913
vt -0.16513599455356598 -1.3951799869537354
vt -0.16504700481891632 -1.3952699899673462
vt -0.16499100625514984 -1.395359992980957
vt -0.16440899670124054 -1.3967700004577637
vt -0.1649709939956665 -1.3954700231552124
vt -0.16499100625514984 -1.395359992980957
vt -0.16609600186347961 -1.3954700231552124
vt -0.1649709939956665 -1.3954700231552124
vt -0.16607700288295746 -1.395359992980957
vt -0.16504700481891632 -1.3952699899673462
vt -0.16609600186347961 -1.3954700231552124
vt -0.16607700288295746 -1.3955700397491455
vt -0.16602100431919098 -1.3956700563430786
vt -0.16593199968338013 -1.3957500457763672
vt -0.16581499576568604 -1.3958100080490112
vt -0.16567899286746979 -1.3958499431610107
vt -0.16553400456905365 -1.3958699703216553
vt -0.16538800299167633 -1.3958499431610107
vt -0.16525299847126007 -1.3958100080490112
vt -0.16513599455356598 -1.3957500457763672
vt -0.16504700481891632 -1.3956700563430786
vt -0.16499100625514984 -1.3955700397491455
vt -0.16607700288295746 -1.3955700397491455
vt -0.16499100625514984 -1.3955700397491455
vt -0.16602100431919098 -1.3956700563430786
vt -0.16504700481891632 -1.3956700563430786
vt -0.16593199968338013 -1.3957500457763672
vt -0.16513599455356598 -1.3957500457763672
vt -0.16581499576568604 -1.3958100080490112
vt -0.16525299847126007 -1.3958100080490112
vt -0.16567899286746979 -1.3958499431610107
vt -0.16538800299167633 -1.3958499431610107
vt -0.16553400456905365 -1.3958699703216553
vt 1.9654500484466553 0.29608398675918579
vt 1.9598300457000732 0.2992820143699646
vt 1.9598300457000732 0.29608398675918579
vt 1.9598300457000732 0.33425500988960266
vt 1.9633899927139282 0.33425500988960266
vt -0.16890799999237061 0.28690001368522644
vt -0.16778400540351868 0.28690001368522644
vt -0.16890799999237061 0.3218739926815033
vt -0.16890799999237061 0.32507100701332092
vt -0.16665899753570557 0.32507100701332092
vt -0.16665899753570557 0.28690001368522644
vt -0.16665899753570557 0.3218739926815033
vt -1.9598300457000732 0.33425500988960266
vt -0.16567899286746979 -1.3950799703598022
vt -0.16581499576568604 -1.3951200246810913
vn 0 -0.073255077004432678 -0.99731326103210449
vn 0 -0.073255069553852081 -0.99731326103210449
vn 0 -0.073255077004432678 -0.99731326103210449
vn 0 -0.073255077004432678 -0.99731326103210449
vn 0 -0.073255077004432678 -0.99731326103210449
vn 1 0 0
vn 1 0 0
vn 1 0 0
vn 1 0 0
vn 1 0 0
vn 0 1 0
vn 0 1 0
vn 0 1 0
vn 0 1 0
vn 0 1 0
vn 0 1 0
vn 0 1 0
vn 0 1 0
vn 0 1 0
vn 0 1 0
vn 0 1 0
vn 0 1 0
vn 0 1 0
vn 0 1 0
vn 0 1 0
vn 0 1 0
vn 0 1 0
vn 0 1 0
vn 0 1 0
vn 0 1 0
vn 0 1 0
vn 0 1 0
vn 0 1 0
vn 0 1 0
vn 0 1 0
vn 0 1 0
vn 0 1 0
vn 0 1 0
vn 0 1 0
vn 0 1 0
vn 0 1 0
vn 0 1 0
vn 0 1 0
vn 0 1 0
vn 0 1 0
vn 0 1 0
vn 0 1 0
vn 0 1 0
vn 0 1 0
vn 0 1 0
vn 0 1 0
vn 0 1 0
vn 0 1 0
vn 0 1 0
vn 0 1 0
vn 0 1 0
vn 0 1 0
vn 0 1 0
vn 0 1 0
vn 0 1 0
vn -1 0 0
vn -1 0 0
vn -1 0 0
vn -1 0 0
vn -1 0 0
vn 0 0 1
vn 0 0 1
vn 0 0 1
vn 0 0 1
vn 0 0 1
vn 0 0 1
vn 0 0 1
vn 1 0 0
vn 0 1 0
vn 0 1 0
f 1/1/1 2/2/2 3/3/3
f 4/4/4 2/2/2 1/1/1
f 2/2/2 4/4/4 5/5/5
f 6/6/6 7/7/7 8/8/8
f 7/7/7 6/6/6 9/9/9
f 9/9/9 6/6/6 10/10/10
f 11/11/11 12/12/12 13/13/13
f 14/14/14 12/12/12 11/11/11
f 12/12/12 14/14/14 15/15/15
f 15/15/15 14/14/14 16/16/16
f 17/17/17 18/18/18 19/19/19
f 20/20/20 18/18/18 17/17/17
f 20/20/20 21/21/21 18/18/18
f 22/22/22 21/21/21 20/20/20
f 22/22/22 23/23/23 21/21/21
f 23/23/23 22/22/22 24/24/24
f 25/25/25 15/15/15 26/26/26
f 27/27/27 15/15/15 25/25/25
f 28/28/28 15/15/15 27/27/27
f 29/29/29 15/15/15 28/28/28
f 30/30/30 15/15/15 29/29/29
f 15/15/15 30/30/30 31/31/31
f 31/31/31 30/30/30 32/32/32
f 33/33/33 34/34/34 35/35/35
f 33/33/33 36/36/36 34/34/34
f 37/37/37 36/36/36 33/33/33
f 37/37/37 19/19/19 36/36/36
f 17/17/17 19/19/19 37/37/37
f 11/11/11 13/13/13 38/38/38
f 38/38/38 13/13/13 39/39/39
f 39/39/39 13/13/13 40/40/40
f 40/40/40 13/13/13 41/41/41
f 41/41/41 13/13/13 42/42/42
f 42/42/42 13/13/13 43/43/43
f 43/43/43 13/13/13 44/44/44
f 31/31/31 44/44/44 13/13/13
f 31/31/31 45/45/45 44/44/44
f 31/31/31 46/46/46 45/45/45
f 31/31/31 47/47/47 46/46/46
f 31/31/31 48/48/48 47/47/47
f 31/31/31 49/49/49 48/48/48
f 31/31/31 32/32/32 49/49/49
f 35/35/35 50/50/50 51/51/51
f 35/35/35 34/34/34 50/50/50
f 51/51/51 50/50/50 52/52/52
f 51/51/51 52/52/52 53/53/53
f 53/53/53 52/52/52 54/54/54
f 53/53/53 54/54/54 55/55/55
f 55/55/55 54/54/54 56/56/56
f 55/55/55 56/56/56 57/57/57
f 57/57/57 56/56/56 58/58/58
f 57/57/57 58/58/58 59/59/59
f 59/59/59 58/58/58 60/60/60
f 61/61/61 62/62/62 63/63/63
f 61/61/61 64/64/64 62/62/62
f 64/64/64 61/61/61 65/65/65
f 66/66/66 67/67/67 68/68/68
f 67/67/67 69/69/69 68/68/68
f 67/67/67 70/70/70 69/69/69
f 71/71/71 70/70/70 67/67/67
f 70/70/70 71/71/71 72/72/72
f 9/9/9 73/73/73 7/7/7
f 15/15/15 74/74/74 26/26/26
f 15/15/15 75/75/75 74/74/74
f 15/15/15 16/16/16 75/75/75
