# Rhino

mtllib Table_11_06.mtl
usemtl Default
v 158.98987978599962 546.86374110199995 -215.82684164300008
v 0 546.86374110199995 214.29070753800079
v 0 546.86374110199995 -215.82684164300008
v 158.98987978599962 546.86374110199995 214.29070753800079
v 172.81508672400014 546.86374110199995 -215.82684164300008
v 172.81508672400014 546.86374110199995 214.29070753800079
v 351.77470986599928 546.86374110199995 -215.82684164300008
v 351.77470986599928 546.86374110199995 214.29070753800079
v 351.77470986599928 546.86374110199995 -215.82684164300008
v 351.77470986599928 564.52928329999997 214.29070753800079
v 351.77470986599928 546.86374110199995 214.29070753800079
v 351.77470986599928 564.52928329999997 -215.82684164300008
v 351.77470986599928 546.86374110199995 -215.82684164300008
v 172.81508672400014 564.52928329999997 -215.82684164300008
v 351.77470986599928 564.52928329999997 -215.82684164300008
v 172.81508672400014 546.86374110199995 -215.82684164300008
v 158.98987978599962 550.70407636199991 -215.82684164300008
v 158.98987978599962 546.86374110199995 -215.82684164300008
v 0 550.70407636199991 -215.82684164300008
v 0 546.86374110199995 -215.82684164300008
v 0 546.86374110199995 -215.82684164300008
v 0 564.52928329999997 -215.82684164300008
v 0 550.70407636199991 -215.82684164300008
v 0 564.52928329999997 214.29070753800079
v 351.77470986599928 564.52928329999997 214.29070753800079
v 158.98987978599962 546.86374110199995 214.29070753800079
v 172.81508672400014 546.86374110199995 214.29070753800079
v 351.77470986599928 546.86374110199995 214.29070753800079
v 351.77470986599928 564.52928329999997 214.29070753800079
v 0 564.52928329999997 -215.82684164300008
v 0 564.52928329999997 214.29070753800079
v 172.81508672400014 564.52928329999997 -215.82684164300008
v 351.77470986599928 564.52928329999997 -215.82684164300008
v 0 564.52928329999997 -215.82684164300008
v -192.78483007900013 546.86374110199995 -215.82684164300008
v -351.77470986599928 546.86374110199995 214.29070753800079
v -351.77470986599928 546.86374110199995 -215.82684164300008
v -192.78483007900013 546.86374110199995 214.29070753800079
v -178.95962314100052 546.86374110199995 -215.82684164300008
v -178.95962314100052 546.86374110199995 214.29070753800079
v 0 546.86374110199995 -215.82684164300008
v 0 546.86374110199995 214.29070753800079
v 0 546.86374110199995 -215.82684164300008
v 0 564.52928329999997 214.29070753800079
v 0 546.86374110199995 214.29070753800079
v 0 564.52928329999997 -215.82684164300008
v 0 546.86374110199995 -215.82684164300008
v -178.95962314100052 564.52928329999997 -215.82684164300008
v 0 564.52928329999997 -215.82684164300008
v -178.95962314100052 546.86374110199995 -215.82684164300008
v -192.78483007900013 550.70407636199991 -215.82684164300008
v -192.78483007900013 546.86374110199995 -215.82684164300008
v -351.77470986599928 550.70407636199991 -215.82684164300008
v -351.77470986599928 546.86374110199995 -215.82684164300008
v -351.77470986599928 546.86374110199995 -215.82684164300008
v -351.77470986599928 564.52928329999997 -215.82684164300008
v -351.77470986599928 550.70407636199991 -215.82684164300008
v -351.77470986599928 564.52928329999997 214.29070753800079
v 0 564.52928329999997 214.29070753800079
v -192.78483007900013 546.86374110199995 214.29070753800079
v -178.95962314100052 546.86374110199995 214.29070753800079
v 0 546.86374110199995 214.29070753800079
v 0 564.52928329999997 214.29070753800079
v -351.77470986599928 564.52928329999997 -215.82684164300008
v -351.77470986599928 564.52928329999997 214.29070753800079
v -178.95962314100052 564.52928329999997 -215.82684164300008
v 0 564.52928329999997 -215.82684164300008
v -351.77470986599928 564.52928329999997 -215.82684164300008
vt -8.1496095657348633 22.047199249267578
vt 0 0
vt 0 22.047199249267578
vt -8.1496095657348633 0
vt -8.8582696914672852 22.047199249267578
vt -8.8582696914672852 0
vt -18.031499862670898 22.047199249267578
vt -18.031499862670898 0
vt 22.047199249267578 0
vt 0 0.90551197528839111
vt 0 0
vt 22.047199249267578 0.90551197528839111
vt -18.031499862670898 0
vt -8.8582696914672852 0.90551197528839111
vt -18.031499862670898 0.90551197528839111
vt -8.8582696914672852 0
vt -8.1496095657348633 0.1968500018119812
vt -8.1496095657348633 0
vt 0 0.1968500018119812
vt 0 0
vt -22.047199249267578 0
vt -22.047199249267578 0.90551197528839111
vt -22.047199249267578 0.1968500018119812
vt 0 0.90551197528839111
vt 18.031499862670898 0.90551197528839111
vt 8.1496095657348633 0
vt 8.8582696914672852 0
vt 18.031499862670898 0
vt 18.031499862670898 0
vt 0 22.047199249267578
vt 0 0
vt 8.8582696914672852 22.047199249267578
vt 18.031499862670898 22.047199249267578
vt 0 0.90551197528839111
vt -8.1496095657348633 22.047199249267578
vt 0 0
vt 0 22.047199249267578
vt -8.1496095657348633 0
vt -8.8582696914672852 22.047199249267578
vt -8.8582696914672852 0
vt -18.031499862670898 22.047199249267578
vt -18.031499862670898 0
vt 22.047199249267578 0
vt 0 0.90551197528839111
vt 0 0
vt 22.047199249267578 0.90551197528839111
vt -18.031499862670898 0
vt -8.8582696914672852 0.90551197528839111
vt -18.031499862670898 0.90551197528839111
vt -8.8582696914672852 0
vt -8.1496095657348633 0.1968500018119812
vt -8.1496095657348633 0
vt 0 0.1968500018119812
vt 0 0
vt -22.047199249267578 0
vt -22.047199249267578 0.90551197528839111
vt -22.047199249267578 0.1968500018119812
vt 0 0.90551197528839111
vt 18.031499862670898 0.90551197528839111
vt 8.1496095657348633 0
vt 8.8582696914672852 0
vt 18.031499862670898 0
vt 18.031499862670898 0
vt 0 22.047199249267578
vt 0 0
vt 8.8582696914672852 22.047199249267578
vt 18.031499862670898 22.047199249267578
vt 0 0.90551197528839111
vn 0 1 0
vn 0.57735025882720947 0.57735025882720947 -0.57735025882720947
vn 0 1 0
vn 0 1 0
vn 0 1 0
vn 0 1 0
vn 0 1 0
vn 0 1 0
vn -1 0 0
vn -1 0 0
vn -1 0 0
vn -1 0 0
vn 0 0 1
vn 0 0 1
vn 0 0 1
vn 0 0 1
vn 0 0 1
vn 0 0 1
vn 0 0 1
vn 0 0 1
vn 1 0 0
vn 1 0 0
vn 0 0 -1
vn 0.70710676908493042 0 -0.70710676908493042
vn 0 0 -1
vn 0 0 -1
vn 0 0 -1
vn 0 0 -1
vn 0 -1 0
vn 0 -1 0
vn 0 -1 0
vn 0 -1 0
vn 0 -1 0
vn 0 0 1
vn 0 1 0
vn -0.57735025882720947 -0.57735025882720947 0.57735025882720947
vn 0 1 0
vn 0 1 0
vn 0 1 0
vn 0 1 0
vn 0 1 0
vn 0 1 0
vn 1 0 0
vn 1 0 0
vn 1 0 0
vn -1 0 0
vn 0 0 -1
vn 0 0 -1
vn 0 0 -1
vn 0 0 -1
vn 0 0 -1
vn 0 0 -1
vn 0 0 -1
vn 0 0 -1
vn -1 0 0
vn -1 0 0
vn 0 0 1
vn -0.70710676908493042 0 0.70710676908493042
vn 0 0 -1
vn 0 0 -1
vn 0 0 -1
vn 0 0 -1
vn 0 1 0
vn 0 1 0
vn 0 1 0
vn 0 1 0
vn 0 1 0
vn 0 0 -1
f 1/1/1 3/3/3 2/2/2
f 2/2/2 4/4/4 1/1/1
f 5/5/5 1/1/1 4/4/4
f 4/4/4 6/6/6 5/5/5
f 7/7/7 5/5/5 6/6/6
f 6/6/6 8/8/8 7/7/7
f 9/9/9 11/11/11 10/10/10
f 10/10/10 12/12/12 9/9/9
f 13/13/13 15/15/15 14/14/14
f 14/14/14 16/16/16 13/13/13
f 16/16/16 14/14/14 17/17/17
f 17/17/17 18/18/18 16/16/16
f 18/18/18 17/17/17 19/19/19
f 19/19/19 20/20/20 18/18/18
f 21/21/21 23/23/23 22/22/22
f 2/2/2 21/21/21 22/22/22
f 22/22/22 24/24/24 2/2/2
f 2/2/2 24/24/24 25/25/25
f 26/26/26 2/2/2 25/25/25
f 27/27/27 26/26/26 25/25/25
f 25/25/25 28/28/28 27/27/27
f 29/29/29 31/31/31 30/30/30
f 30/30/30 32/32/32 29/29/29
f 32/32/32 33/33/33 29/29/29
f 14/14/14 34/34/34 17/17/17
f 34/34/34 19/19/19 17/17/17
f 35/35/35 37/37/37 36/36/36
f 36/36/36 38/38/38 35/35/35
f 39/39/39 35/35/35 38/38/38
f 38/38/38 40/40/40 39/39/39
f 41/41/41 39/39/39 40/40/40
f 40/40/40 42/42/42 41/41/41
f 43/43/43 44/44/44 45/45/45
f 44/44/44 46/46/46 43/43/43
f 47/47/47 48/48/48 49/49/49
f 48/48/48 47/47/47 50/50/50
f 50/50/50 51/51/51 48/48/48
f 51/51/51 50/50/50 52/52/52
f 52/52/52 53/53/53 51/51/51
f 53/53/53 52/52/52 54/54/54
f 55/55/55 56/56/56 57/57/57
f 36/36/36 56/56/56 55/55/55
f 56/56/56 36/36/36 58/58/58
f 36/36/36 58/58/58 59/59/59
f 60/60/60 36/36/36 59/59/59
f 61/61/61 60/60/60 59/59/59
f 59/59/59 62/62/62 61/61/61
f 63/63/63 64/64/64 65/65/65
f 64/64/64 63/63/63 66/66/66
f 66/66/66 63/63/63 67/67/67
f 48/48/48 51/51/51 68/68/68
f 68/68/68 51/51/51 53/53/53
