# Rhino

mtllib Table_04_07.mtl
usemtl Default
v -295.74866632275291 153.5095953151 -171.45444985507856
v -295.74866632275291 140.16093485289997 -171.45444985507856
v -379.17779421075284 140.16093485289997 -254.88357774432734
v -379.17779421075284 153.5095953151 -254.88357774432734
v -304.94105447816059 153.5095953151 -162.26206169963734
v -304.94105447816059 140.16093485289997 -162.26206169963734
v -388.37018236616098 140.16093485289997 -245.69118958888612
v -388.37018236616098 153.5095953151 -245.69118958888612
v -295.74866632275291 140.16093485289997 -171.45444985507856
v -379.17779421075284 140.16093485289997 -254.88357774432734
v -388.37018236616098 140.16093485289997 -245.69118958888612
v -304.94105447816059 140.16093485289997 -162.26206169963734
v -379.17779421075284 140.16093485289997 -254.88357774432734
v -379.17779421075284 153.5095953151 -254.88357774432734
v -388.37018236616098 153.5095953151 -245.69118958888612
v -388.37018236616098 140.16093485289997 -245.69118958888612
v -379.17779421075284 153.5095953151 -254.88357774432734
v -295.74866632275291 153.5095953151 -171.45444985507856
v -304.94105447816059 153.5095953151 -162.26206169963734
v -388.37018236616098 153.5095953151 -245.69118958888612
v -295.74866632275291 153.5095953151 -171.45444985507856
v -295.74866632275291 140.16093485289997 -171.45444985507856
v -304.94105447816059 140.16093485289997 -162.26206169963734
v -304.94105447816059 153.5095953151 -162.26206169963734
vn 0.70710676908493042 0 -0.70710676908493042
vn 0.70710676908493042 0 -0.70710676908493042
vn 0.70710676908493042 0 -0.70710676908493042
vn 0.70710676908493042 0 -0.70710676908493042
vn -0.70710676908493042 0 0.70710676908493042
vn -0.70710676908493042 0 0.70710676908493042
vn -0.70710676908493042 0 0.70710676908493042
vn -0.70710676908493042 0 0.70710676908493042
vn 0 -1 0
vn 0 -1 0
vn 0 -1 0
vn 0 -1 0
vn -0.70710676908493042 0 -0.70710676908493042
vn -0.70710676908493042 0 -0.70710676908493042
vn -0.70710676908493042 0 -0.70710676908493042
vn -0.70710676908493042 0 -0.70710676908493042
vn 0 1 0
vn 0 1 0
vn 0 1 0
vn 0 1 0
vn 0.70710676908493042 0 0.70710676908493042
vn 0.70710676908493042 0 0.70710676908493042
vn 0.70710676908493042 0 0.70710676908493042
vn 0.70710676908493042 0 0.70710676908493042
f 1//1 2//2 3//3 4//4
f 5//5 8//8 7//7 6//6
f 9//9 12//12 11//11 10//10
f 13//13 16//16 15//15 14//14
f 17//17 20//20 19//19 18//18
f 21//21 24//24 23//23 22//22
