# Rhino

mtllib Table_10_09.mtl
usemtl Default
v 240.71041706200049 271.0074078307 -133.72816631999922
v 240.71041706200049 271.0074078307 -144.12924014500095
v 240.71041706200049 263.57806938480002 -133.72816631999922
v 240.71041706200049 263.57806938480002 -144.12924014500095
v 240.71041706200049 267.29273860774998 -138.92870323250099
v 240.71041706200049 263.57806938480002 -133.72816631999922
v 240.71041706200049 263.57806938480002 -144.12924014500095
v 240.71041706200049 271.0074078307 -144.12924014500095
v 240.71041706200049 271.0074078307 -133.72816631999922
vt -0.080657802522182465 0.14959800243377686
vt -0.082954399287700653 0.14959800243377686
vt -0.080657802522182465 0.14549699425697327
vt -0.082954399287700653 0.14549699425697327
vt 0.5 0.5
vt 0 0
vt 0 1
vt 1 1
vt 1 0
vn -1 0 0
vn -1 0 0
vn -1 0 0
vn -1 0 0
vn 1 0 0
vn 1 0 0
vn 1 0 0
vn 1 0 0
vn 1 0 0
f 1/1/1 2/2/2 3/3/3
f 4/4/4 3/3/3 2/2/2
f 5/5/5 6/6/6 7/7/7
f 8/8/8 9/9/9 5/5/5
f 6/6/6 5/5/5 9/9/9
f 7/7/7 8/8/8 5/5/5
